<?xml version="1.0" encoding="utf-8" standalone="no"?>
<!DOCTYPE svg PUBLIC "-//W3C//DTD SVG 1.1//EN"
  "http://www.w3.org/Graphics/SVG/1.1/DTD/svg11.dtd">
<!-- Created with matplotlib (https://matplotlib.org/) -->
<svg height="498.454907pt" version="1.1" viewBox="0 0 1001.55875 498.454907" width="1001.55875pt" xmlns="http://www.w3.org/2000/svg" xmlns:xlink="http://www.w3.org/1999/xlink">
 <defs>
  <style type="text/css">
*{stroke-linecap:butt;stroke-linejoin:round;}
  </style>
 </defs>
 <g id="figure_1">
  <g id="patch_1">
   <path d="M 0 498.454907 
L 1001.55875 498.454907 
L 1001.55875 0 
L 0 0 
z
" style="fill:#ffffff;"/>
  </g>
  <g id="axes_1">
   <g id="patch_2">
    <path d="M 42.53875 376.596014 
L 994.35875 376.596014 
L 994.35875 22.318125 
L 42.53875 22.318125 
z
" style="fill:#ffffff;"/>
   </g>
   <g id="patch_3">
    <path clip-path="url(#p0c4d64829c)" d="M 85.803295 376.596014 
L 92.725623 376.596014 
L 92.725623 146.169176 
L 85.803295 146.169176 
z
" style="fill:#1f77b4;"/>
   </g>
   <g id="patch_4">
    <path clip-path="url(#p0c4d64829c)" d="M 131.952144 376.596014 
L 138.874471 376.596014 
L 138.874471 151.792635 
L 131.952144 151.792635 
z
" style="fill:#1f77b4;"/>
   </g>
   <g id="patch_5">
    <path clip-path="url(#p0c4d64829c)" d="M 178.100992 376.596014 
L 185.02332 376.596014 
L 185.02332 151.747647 
L 178.100992 151.747647 
z
" style="fill:#1f77b4;"/>
   </g>
   <g id="patch_6">
    <path clip-path="url(#p0c4d64829c)" d="M 224.249841 376.596014 
L 231.172168 376.596014 
L 231.172168 150.982857 
L 224.249841 150.982857 
z
" style="fill:#1f77b4;"/>
   </g>
   <g id="patch_7">
    <path clip-path="url(#p0c4d64829c)" d="M 270.398689 376.596014 
L 277.321017 376.596014 
L 277.321017 151.567696 
L 270.398689 151.567696 
z
" style="fill:#1f77b4;"/>
   </g>
   <g id="patch_8">
    <path clip-path="url(#p0c4d64829c)" d="M 316.547538 376.596014 
L 323.469865 376.596014 
L 323.469865 151.207795 
L 316.547538 151.207795 
z
" style="fill:#1f77b4;"/>
   </g>
   <g id="patch_9">
    <path clip-path="url(#p0c4d64829c)" d="M 362.696386 376.596014 
L 369.618714 376.596014 
L 369.618714 150.847894 
L 362.696386 150.847894 
z
" style="fill:#1f77b4;"/>
   </g>
   <g id="patch_10">
    <path clip-path="url(#p0c4d64829c)" d="M 408.845235 376.596014 
L 415.767562 376.596014 
L 415.767562 152.017573 
L 408.845235 152.017573 
z
" style="fill:#1f77b4;"/>
   </g>
   <g id="patch_11">
    <path clip-path="url(#p0c4d64829c)" d="M 454.994083 376.596014 
L 461.916411 376.596014 
L 461.916411 151.747647 
L 454.994083 151.747647 
z
" style="fill:#1f77b4;"/>
   </g>
   <g id="patch_12">
    <path clip-path="url(#p0c4d64829c)" d="M 501.142932 376.596014 
L 508.065259 376.596014 
L 508.065259 151.522709 
L 501.142932 151.522709 
z
" style="fill:#1f77b4;"/>
   </g>
   <g id="patch_13">
    <path clip-path="url(#p0c4d64829c)" d="M 547.29178 376.596014 
L 554.214108 376.596014 
L 554.214108 152.062561 
L 547.29178 152.062561 
z
" style="fill:#1f77b4;"/>
   </g>
   <g id="patch_14">
    <path clip-path="url(#p0c4d64829c)" d="M 593.440629 376.596014 
L 600.362956 376.596014 
L 600.362956 153.142265 
L 593.440629 153.142265 
z
" style="fill:#1f77b4;"/>
   </g>
   <g id="patch_15">
    <path clip-path="url(#p0c4d64829c)" d="M 639.589477 376.596014 
L 646.511805 376.596014 
L 646.511805 154.986759 
L 639.589477 154.986759 
z
" style="fill:#1f77b4;"/>
   </g>
   <g id="patch_16">
    <path clip-path="url(#p0c4d64829c)" d="M 685.738326 376.596014 
L 692.660653 376.596014 
L 692.660653 156.471352 
L 685.738326 156.471352 
z
" style="fill:#1f77b4;"/>
   </g>
   <g id="patch_17">
    <path clip-path="url(#p0c4d64829c)" d="M 731.887174 376.596014 
L 738.809502 376.596014 
L 738.809502 158.540785 
L 731.887174 158.540785 
z
" style="fill:#1f77b4;"/>
   </g>
   <g id="patch_18">
    <path clip-path="url(#p0c4d64829c)" d="M 778.036023 376.596014 
L 784.95835 376.596014 
L 784.95835 156.831254 
L 778.036023 156.831254 
z
" style="fill:#1f77b4;"/>
   </g>
   <g id="patch_19">
    <path clip-path="url(#p0c4d64829c)" d="M 824.184871 376.596014 
L 831.107198 376.596014 
L 831.107198 154.716833 
L 824.184871 154.716833 
z
" style="fill:#1f77b4;"/>
   </g>
   <g id="patch_20">
    <path clip-path="url(#p0c4d64829c)" d="M 870.33372 376.596014 
L 877.256047 376.596014 
L 877.256047 159.845427 
L 870.33372 159.845427 
z
" style="fill:#1f77b4;"/>
   </g>
   <g id="patch_21">
    <path clip-path="url(#p0c4d64829c)" d="M 916.482568 376.596014 
L 923.404895 376.596014 
L 923.404895 67.305793 
L 916.482568 67.305793 
z
" style="fill:#1f77b4;"/>
   </g>
   <g id="patch_22">
    <path clip-path="url(#p0c4d64829c)" d="M 95.033065 376.596014 
L 101.955392 376.596014 
L 101.955392 312.488586 
L 95.033065 312.488586 
z
" style="fill:#ff7f0e;"/>
   </g>
   <g id="patch_23">
    <path clip-path="url(#p0c4d64829c)" d="M 141.181914 376.596014 
L 148.104241 376.596014 
L 148.104241 343.48509 
L 141.181914 343.48509 
z
" style="fill:#ff7f0e;"/>
   </g>
   <g id="patch_24">
    <path clip-path="url(#p0c4d64829c)" d="M 187.330762 376.596014 
L 194.253089 376.596014 
L 194.253089 334.982421 
L 187.330762 334.982421 
z
" style="fill:#ff7f0e;"/>
   </g>
   <g id="patch_25">
    <path clip-path="url(#p0c4d64829c)" d="M 233.479611 376.596014 
L 240.401938 376.596014 
L 240.401938 328.504196 
L 233.479611 328.504196 
z
" style="fill:#ff7f0e;"/>
   </g>
   <g id="patch_26">
    <path clip-path="url(#p0c4d64829c)" d="M 279.628459 376.596014 
L 286.550786 376.596014 
L 286.550786 336.062125 
L 279.628459 336.062125 
z
" style="fill:#ff7f0e;"/>
   </g>
   <g id="patch_27">
    <path clip-path="url(#p0c4d64829c)" d="M 325.777308 376.596014 
L 332.699635 376.596014 
L 332.699635 340.830818 
L 325.777308 340.830818 
z
" style="fill:#ff7f0e;"/>
   </g>
   <g id="patch_28">
    <path clip-path="url(#p0c4d64829c)" d="M 371.926156 376.596014 
L 378.848483 376.596014 
L 378.848483 340.380941 
L 371.926156 340.380941 
z
" style="fill:#ff7f0e;"/>
   </g>
   <g id="patch_29">
    <path clip-path="url(#p0c4d64829c)" d="M 418.075005 376.596014 
L 424.997332 376.596014 
L 424.997332 341.460645 
L 418.075005 341.460645 
z
" style="fill:#ff7f0e;"/>
   </g>
   <g id="patch_30">
    <path clip-path="url(#p0c4d64829c)" d="M 464.223853 376.596014 
L 471.14618 376.596014 
L 471.14618 327.874369 
L 464.223853 327.874369 
z
" style="fill:#ff7f0e;"/>
   </g>
   <g id="patch_31">
    <path clip-path="url(#p0c4d64829c)" d="M 510.372702 376.596014 
L 517.295029 376.596014 
L 517.295029 312.083697 
L 510.372702 312.083697 
z
" style="fill:#ff7f0e;"/>
   </g>
   <g id="patch_32">
    <path clip-path="url(#p0c4d64829c)" d="M 556.52155 376.596014 
L 563.443877 376.596014 
L 563.443877 291.029469 
L 556.52155 291.029469 
z
" style="fill:#ff7f0e;"/>
   </g>
   <g id="patch_33">
    <path clip-path="url(#p0c4d64829c)" d="M 602.670398 376.596014 
L 609.592726 376.596014 
L 609.592726 276.72339 
L 602.670398 276.72339 
z
" style="fill:#ff7f0e;"/>
   </g>
   <g id="patch_34">
    <path clip-path="url(#p0c4d64829c)" d="M 648.819247 376.596014 
L 655.741574 376.596014 
L 655.741574 265.881362 
L 648.819247 265.881362 
z
" style="fill:#ff7f0e;"/>
   </g>
   <g id="patch_35">
    <path clip-path="url(#p0c4d64829c)" d="M 694.968095 376.596014 
L 701.890423 376.596014 
L 701.890423 303.221127 
L 694.968095 303.221127 
z
" style="fill:#ff7f0e;"/>
   </g>
   <g id="patch_36">
    <path clip-path="url(#p0c4d64829c)" d="M 741.116944 376.596014 
L 748.039271 376.596014 
L 748.039271 323.285627 
L 741.116944 323.285627 
z
" style="fill:#ff7f0e;"/>
   </g>
   <g id="patch_37">
    <path clip-path="url(#p0c4d64829c)" d="M 787.265792 376.596014 
L 794.18812 376.596014 
L 794.18812 317.932094 
L 787.265792 317.932094 
z
" style="fill:#ff7f0e;"/>
   </g>
   <g id="patch_38">
    <path clip-path="url(#p0c4d64829c)" d="M 833.414641 376.596014 
L 840.336968 376.596014 
L 840.336968 302.861225 
L 833.414641 302.861225 
z
" style="fill:#ff7f0e;"/>
   </g>
   <g id="patch_39">
    <path clip-path="url(#p0c4d64829c)" d="M 879.563489 376.596014 
L 886.485817 376.596014 
L 886.485817 254.859383 
L 879.563489 254.859383 
z
" style="fill:#ff7f0e;"/>
   </g>
   <g id="patch_40">
    <path clip-path="url(#p0c4d64829c)" d="M 925.712338 376.596014 
L 932.634665 376.596014 
L 932.634665 86.065651 
L 925.712338 86.065651 
z
" style="fill:#ff7f0e;"/>
   </g>
   <g id="patch_41">
    <path clip-path="url(#p0c4d64829c)" d="M 104.262835 376.596014 
L 111.185162 376.596014 
L 111.185162 328.279258 
L 104.262835 328.279258 
z
" style="fill:#2ca02c;"/>
   </g>
   <g id="patch_42">
    <path clip-path="url(#p0c4d64829c)" d="M 150.411683 376.596014 
L 157.334011 376.596014 
L 157.334011 353.742278 
L 150.411683 353.742278 
z
" style="fill:#2ca02c;"/>
   </g>
   <g id="patch_43">
    <path clip-path="url(#p0c4d64829c)" d="M 196.560532 376.596014 
L 203.482859 376.596014 
L 203.482859 353.697291 
L 196.560532 353.697291 
z
" style="fill:#2ca02c;"/>
   </g>
   <g id="patch_44">
    <path clip-path="url(#p0c4d64829c)" d="M 242.70938 376.596014 
L 249.631708 376.596014 
L 249.631708 359.320749 
L 242.70938 359.320749 
z
" style="fill:#2ca02c;"/>
   </g>
   <g id="patch_45">
    <path clip-path="url(#p0c4d64829c)" d="M 288.858229 376.596014 
L 295.780556 376.596014 
L 295.780556 362.694824 
L 288.858229 362.694824 
z
" style="fill:#2ca02c;"/>
   </g>
   <g id="patch_46">
    <path clip-path="url(#p0c4d64829c)" d="M 335.007077 376.596014 
L 341.929405 376.596014 
L 341.929405 364.809245 
L 335.007077 364.809245 
z
" style="fill:#2ca02c;"/>
   </g>
   <g id="patch_47">
    <path clip-path="url(#p0c4d64829c)" d="M 381.155926 376.596014 
L 388.078253 376.596014 
L 388.078253 364.989196 
L 381.155926 364.989196 
z
" style="fill:#2ca02c;"/>
   </g>
   <g id="patch_48">
    <path clip-path="url(#p0c4d64829c)" d="M 427.304774 376.596014 
L 434.227102 376.596014 
L 434.227102 362.694824 
L 427.304774 362.694824 
z
" style="fill:#2ca02c;"/>
   </g>
   <g id="patch_49">
    <path clip-path="url(#p0c4d64829c)" d="M 473.453623 376.596014 
L 480.37595 376.596014 
L 480.37595 357.791169 
L 473.453623 357.791169 
z
" style="fill:#2ca02c;"/>
   </g>
   <g id="patch_50">
    <path clip-path="url(#p0c4d64829c)" d="M 519.602471 376.596014 
L 526.524798 376.596014 
L 526.524798 342.180448 
L 519.602471 342.180448 
z
" style="fill:#2ca02c;"/>
   </g>
   <g id="patch_51">
    <path clip-path="url(#p0c4d64829c)" d="M 565.75132 376.596014 
L 572.673647 376.596014 
L 572.673647 311.543845 
L 565.75132 311.543845 
z
" style="fill:#2ca02c;"/>
   </g>
   <g id="patch_52">
    <path clip-path="url(#p0c4d64829c)" d="M 611.900168 376.596014 
L 618.822495 376.596014 
L 618.822495 293.053914 
L 611.900168 293.053914 
z
" style="fill:#2ca02c;"/>
   </g>
   <g id="patch_53">
    <path clip-path="url(#p0c4d64829c)" d="M 658.049017 376.596014 
L 664.971344 376.596014 
L 664.971344 269.930252 
L 658.049017 269.930252 
z
" style="fill:#2ca02c;"/>
   </g>
   <g id="patch_54">
    <path clip-path="url(#p0c4d64829c)" d="M 704.197865 376.596014 
L 711.120192 376.596014 
L 711.120192 280.952231 
L 704.197865 280.952231 
z
" style="fill:#2ca02c;"/>
   </g>
   <g id="patch_55">
    <path clip-path="url(#p0c4d64829c)" d="M 750.346714 376.596014 
L 757.269041 376.596014 
L 757.269041 297.417718 
L 750.346714 297.417718 
z
" style="fill:#2ca02c;"/>
   </g>
   <g id="patch_56">
    <path clip-path="url(#p0c4d64829c)" d="M 796.495562 376.596014 
L 803.417889 376.596014 
L 803.417889 295.663198 
L 796.495562 295.663198 
z
" style="fill:#2ca02c;"/>
   </g>
   <g id="patch_57">
    <path clip-path="url(#p0c4d64829c)" d="M 842.644411 376.596014 
L 849.566738 376.596014 
L 849.566738 288.960036 
L 842.644411 288.960036 
z
" style="fill:#2ca02c;"/>
   </g>
   <g id="patch_58">
    <path clip-path="url(#p0c4d64829c)" d="M 888.793259 376.596014 
L 895.715586 376.596014 
L 895.715586 238.843773 
L 888.793259 238.843773 
z
" style="fill:#2ca02c;"/>
   </g>
   <g id="patch_59">
    <path clip-path="url(#p0c4d64829c)" d="M 934.942108 376.596014 
L 941.864435 376.596014 
L 941.864435 39.188501 
L 934.942108 39.188501 
z
" style="fill:#2ca02c;"/>
   </g>
   <g id="patch_60">
    <path clip-path="url(#p0c4d64829c)" d="M 113.492605 376.596014 
L 120.414932 376.596014 
L 120.414932 341.865534 
L 113.492605 341.865534 
z
" style="fill:#d62728;"/>
   </g>
   <g id="patch_61">
    <path clip-path="url(#p0c4d64829c)" d="M 159.641453 376.596014 
L 166.56378 376.596014 
L 166.56378 368.993098 
L 159.641453 368.993098 
z
" style="fill:#d62728;"/>
   </g>
   <g id="patch_62">
    <path clip-path="url(#p0c4d64829c)" d="M 205.790302 376.596014 
L 212.712629 376.596014 
L 212.712629 374.121692 
L 205.790302 374.121692 
z
" style="fill:#d62728;"/>
   </g>
   <g id="patch_63">
    <path clip-path="url(#p0c4d64829c)" d="M 251.93915 376.596014 
L 258.861477 376.596014 
L 258.861477 375.471322 
L 251.93915 375.471322 
z
" style="fill:#d62728;"/>
   </g>
   <g id="patch_64">
    <path clip-path="url(#p0c4d64829c)" d="M 298.087998 376.596014 
L 305.010326 376.596014 
L 305.010326 376.461051 
L 298.087998 376.461051 
z
" style="fill:#d62728;"/>
   </g>
   <g id="patch_65">
    <path clip-path="url(#p0c4d64829c)" d="M 344.236847 376.596014 
L 351.159174 376.596014 
L 351.159174 376.146137 
L 344.236847 376.146137 
z
" style="fill:#d62728;"/>
   </g>
   <g id="patch_66">
    <path clip-path="url(#p0c4d64829c)" d="M 390.385695 376.596014 
L 397.308023 376.596014 
L 397.308023 376.596014 
L 390.385695 376.596014 
z
" style="fill:#d62728;"/>
   </g>
   <g id="patch_67">
    <path clip-path="url(#p0c4d64829c)" d="M 436.534544 376.596014 
L 443.456871 376.596014 
L 443.456871 376.461051 
L 436.534544 376.461051 
z
" style="fill:#d62728;"/>
   </g>
   <g id="patch_68">
    <path clip-path="url(#p0c4d64829c)" d="M 482.683392 376.596014 
L 489.60572 376.596014 
L 489.60572 376.371076 
L 482.683392 376.371076 
z
" style="fill:#d62728;"/>
   </g>
   <g id="patch_69">
    <path clip-path="url(#p0c4d64829c)" d="M 528.832241 376.596014 
L 535.754568 376.596014 
L 535.754568 374.706532 
L 528.832241 374.706532 
z
" style="fill:#d62728;"/>
   </g>
   <g id="patch_70">
    <path clip-path="url(#p0c4d64829c)" d="M 574.981089 376.596014 
L 581.903417 376.596014 
L 581.903417 369.802876 
L 574.981089 369.802876 
z
" style="fill:#d62728;"/>
   </g>
   <g id="patch_71">
    <path clip-path="url(#p0c4d64829c)" d="M 621.129938 376.596014 
L 628.052265 376.596014 
L 628.052265 348.838623 
L 621.129938 348.838623 
z
" style="fill:#d62728;"/>
   </g>
   <g id="patch_72">
    <path clip-path="url(#p0c4d64829c)" d="M 667.278786 376.596014 
L 674.201114 376.596014 
L 674.201114 302.726262 
L 667.278786 302.726262 
z
" style="fill:#d62728;"/>
   </g>
   <g id="patch_73">
    <path clip-path="url(#p0c4d64829c)" d="M 713.427635 376.596014 
L 720.349962 376.596014 
L 720.349962 310.824043 
L 713.427635 310.824043 
z
" style="fill:#d62728;"/>
   </g>
   <g id="patch_74">
    <path clip-path="url(#p0c4d64829c)" d="M 759.576483 376.596014 
L 766.498811 376.596014 
L 766.498811 317.977082 
L 759.576483 317.977082 
z
" style="fill:#d62728;"/>
   </g>
   <g id="patch_75">
    <path clip-path="url(#p0c4d64829c)" d="M 805.725332 376.596014 
L 812.647659 376.596014 
L 812.647659 303.626016 
L 805.725332 303.626016 
z
" style="fill:#d62728;"/>
   </g>
   <g id="patch_76">
    <path clip-path="url(#p0c4d64829c)" d="M 851.87418 376.596014 
L 858.796508 376.596014 
L 858.796508 279.017761 
L 851.87418 279.017761 
z
" style="fill:#d62728;"/>
   </g>
   <g id="patch_77">
    <path clip-path="url(#p0c4d64829c)" d="M 898.023029 376.596014 
L 904.945356 376.596014 
L 904.945356 241.588021 
L 898.023029 241.588021 
z
" style="fill:#d62728;"/>
   </g>
   <g id="patch_78">
    <path clip-path="url(#p0c4d64829c)" d="M 944.171877 376.596014 
L 951.094205 376.596014 
L 951.094205 67.305793 
L 944.171877 67.305793 
z
" style="fill:#d62728;"/>
   </g>
   <g id="matplotlib.axis_1">
    <g id="xtick_1">
     <g id="line2d_1">
      <defs>
       <path d="M 0 0 
L 0 3.5 
" id="m843f45c871" style="stroke:#000000;stroke-width:0.8;"/>
      </defs>
      <g>
       <use style="stroke:#000000;stroke-width:0.8;" x="103.109114" xlink:href="#m843f45c871" y="376.596014"/>
      </g>
     </g>
     <g id="text_1">
      <!-- downsampling-1 -->
      <defs>
       <path d="M 45.40625 46.390625 
L 45.40625 75.984375 
L 54.390625 75.984375 
L 54.390625 0 
L 45.40625 0 
L 45.40625 8.203125 
Q 42.578125 3.328125 38.25 0.953125 
Q 33.9375 -1.421875 27.875 -1.421875 
Q 17.96875 -1.421875 11.734375 6.484375 
Q 5.515625 14.40625 5.515625 27.296875 
Q 5.515625 40.1875 11.734375 48.09375 
Q 17.96875 56 27.875 56 
Q 33.9375 56 38.25 53.625 
Q 42.578125 51.265625 45.40625 46.390625 
z
M 14.796875 27.296875 
Q 14.796875 17.390625 18.875 11.75 
Q 22.953125 6.109375 30.078125 6.109375 
Q 37.203125 6.109375 41.296875 11.75 
Q 45.40625 17.390625 45.40625 27.296875 
Q 45.40625 37.203125 41.296875 42.84375 
Q 37.203125 48.484375 30.078125 48.484375 
Q 22.953125 48.484375 18.875 42.84375 
Q 14.796875 37.203125 14.796875 27.296875 
z
" id="DejaVuSans-100"/>
       <path d="M 30.609375 48.390625 
Q 23.390625 48.390625 19.1875 42.75 
Q 14.984375 37.109375 14.984375 27.296875 
Q 14.984375 17.484375 19.15625 11.84375 
Q 23.34375 6.203125 30.609375 6.203125 
Q 37.796875 6.203125 41.984375 11.859375 
Q 46.1875 17.53125 46.1875 27.296875 
Q 46.1875 37.015625 41.984375 42.703125 
Q 37.796875 48.390625 30.609375 48.390625 
z
M 30.609375 56 
Q 42.328125 56 49.015625 48.375 
Q 55.71875 40.765625 55.71875 27.296875 
Q 55.71875 13.875 49.015625 6.21875 
Q 42.328125 -1.421875 30.609375 -1.421875 
Q 18.84375 -1.421875 12.171875 6.21875 
Q 5.515625 13.875 5.515625 27.296875 
Q 5.515625 40.765625 12.171875 48.375 
Q 18.84375 56 30.609375 56 
z
" id="DejaVuSans-111"/>
       <path d="M 4.203125 54.6875 
L 13.1875 54.6875 
L 24.421875 12.015625 
L 35.59375 54.6875 
L 46.1875 54.6875 
L 57.421875 12.015625 
L 68.609375 54.6875 
L 77.59375 54.6875 
L 63.28125 0 
L 52.6875 0 
L 40.921875 44.828125 
L 29.109375 0 
L 18.5 0 
z
" id="DejaVuSans-119"/>
       <path d="M 54.890625 33.015625 
L 54.890625 0 
L 45.90625 0 
L 45.90625 32.71875 
Q 45.90625 40.484375 42.875 44.328125 
Q 39.84375 48.1875 33.796875 48.1875 
Q 26.515625 48.1875 22.3125 43.546875 
Q 18.109375 38.921875 18.109375 30.90625 
L 18.109375 0 
L 9.078125 0 
L 9.078125 54.6875 
L 18.109375 54.6875 
L 18.109375 46.1875 
Q 21.34375 51.125 25.703125 53.5625 
Q 30.078125 56 35.796875 56 
Q 45.21875 56 50.046875 50.171875 
Q 54.890625 44.34375 54.890625 33.015625 
z
" id="DejaVuSans-110"/>
       <path d="M 44.28125 53.078125 
L 44.28125 44.578125 
Q 40.484375 46.53125 36.375 47.5 
Q 32.28125 48.484375 27.875 48.484375 
Q 21.1875 48.484375 17.84375 46.4375 
Q 14.5 44.390625 14.5 40.28125 
Q 14.5 37.15625 16.890625 35.375 
Q 19.28125 33.59375 26.515625 31.984375 
L 29.59375 31.296875 
Q 39.15625 29.25 43.1875 25.515625 
Q 47.21875 21.78125 47.21875 15.09375 
Q 47.21875 7.46875 41.1875 3.015625 
Q 35.15625 -1.421875 24.609375 -1.421875 
Q 20.21875 -1.421875 15.453125 -0.5625 
Q 10.6875 0.296875 5.421875 2 
L 5.421875 11.28125 
Q 10.40625 8.6875 15.234375 7.390625 
Q 20.0625 6.109375 24.8125 6.109375 
Q 31.15625 6.109375 34.5625 8.28125 
Q 37.984375 10.453125 37.984375 14.40625 
Q 37.984375 18.0625 35.515625 20.015625 
Q 33.0625 21.96875 24.703125 23.78125 
L 21.578125 24.515625 
Q 13.234375 26.265625 9.515625 29.90625 
Q 5.8125 33.546875 5.8125 39.890625 
Q 5.8125 47.609375 11.28125 51.796875 
Q 16.75 56 26.8125 56 
Q 31.78125 56 36.171875 55.265625 
Q 40.578125 54.546875 44.28125 53.078125 
z
" id="DejaVuSans-115"/>
       <path d="M 34.28125 27.484375 
Q 23.390625 27.484375 19.1875 25 
Q 14.984375 22.515625 14.984375 16.5 
Q 14.984375 11.71875 18.140625 8.90625 
Q 21.296875 6.109375 26.703125 6.109375 
Q 34.1875 6.109375 38.703125 11.40625 
Q 43.21875 16.703125 43.21875 25.484375 
L 43.21875 27.484375 
z
M 52.203125 31.203125 
L 52.203125 0 
L 43.21875 0 
L 43.21875 8.296875 
Q 40.140625 3.328125 35.546875 0.953125 
Q 30.953125 -1.421875 24.3125 -1.421875 
Q 15.921875 -1.421875 10.953125 3.296875 
Q 6 8.015625 6 15.921875 
Q 6 25.140625 12.171875 29.828125 
Q 18.359375 34.515625 30.609375 34.515625 
L 43.21875 34.515625 
L 43.21875 35.40625 
Q 43.21875 41.609375 39.140625 45 
Q 35.0625 48.390625 27.6875 48.390625 
Q 23 48.390625 18.546875 47.265625 
Q 14.109375 46.140625 10.015625 43.890625 
L 10.015625 52.203125 
Q 14.9375 54.109375 19.578125 55.046875 
Q 24.21875 56 28.609375 56 
Q 40.484375 56 46.34375 49.84375 
Q 52.203125 43.703125 52.203125 31.203125 
z
" id="DejaVuSans-97"/>
       <path d="M 52 44.1875 
Q 55.375 50.25 60.0625 53.125 
Q 64.75 56 71.09375 56 
Q 79.640625 56 84.28125 50.015625 
Q 88.921875 44.046875 88.921875 33.015625 
L 88.921875 0 
L 79.890625 0 
L 79.890625 32.71875 
Q 79.890625 40.578125 77.09375 44.375 
Q 74.3125 48.1875 68.609375 48.1875 
Q 61.625 48.1875 57.5625 43.546875 
Q 53.515625 38.921875 53.515625 30.90625 
L 53.515625 0 
L 44.484375 0 
L 44.484375 32.71875 
Q 44.484375 40.625 41.703125 44.40625 
Q 38.921875 48.1875 33.109375 48.1875 
Q 26.21875 48.1875 22.15625 43.53125 
Q 18.109375 38.875 18.109375 30.90625 
L 18.109375 0 
L 9.078125 0 
L 9.078125 54.6875 
L 18.109375 54.6875 
L 18.109375 46.1875 
Q 21.1875 51.21875 25.484375 53.609375 
Q 29.78125 56 35.6875 56 
Q 41.65625 56 45.828125 52.96875 
Q 50 49.953125 52 44.1875 
z
" id="DejaVuSans-109"/>
       <path d="M 18.109375 8.203125 
L 18.109375 -20.796875 
L 9.078125 -20.796875 
L 9.078125 54.6875 
L 18.109375 54.6875 
L 18.109375 46.390625 
Q 20.953125 51.265625 25.265625 53.625 
Q 29.59375 56 35.59375 56 
Q 45.5625 56 51.78125 48.09375 
Q 58.015625 40.1875 58.015625 27.296875 
Q 58.015625 14.40625 51.78125 6.484375 
Q 45.5625 -1.421875 35.59375 -1.421875 
Q 29.59375 -1.421875 25.265625 0.953125 
Q 20.953125 3.328125 18.109375 8.203125 
z
M 48.6875 27.296875 
Q 48.6875 37.203125 44.609375 42.84375 
Q 40.53125 48.484375 33.40625 48.484375 
Q 26.265625 48.484375 22.1875 42.84375 
Q 18.109375 37.203125 18.109375 27.296875 
Q 18.109375 17.390625 22.1875 11.75 
Q 26.265625 6.109375 33.40625 6.109375 
Q 40.53125 6.109375 44.609375 11.75 
Q 48.6875 17.390625 48.6875 27.296875 
z
" id="DejaVuSans-112"/>
       <path d="M 9.421875 75.984375 
L 18.40625 75.984375 
L 18.40625 0 
L 9.421875 0 
z
" id="DejaVuSans-108"/>
       <path d="M 9.421875 54.6875 
L 18.40625 54.6875 
L 18.40625 0 
L 9.421875 0 
z
M 9.421875 75.984375 
L 18.40625 75.984375 
L 18.40625 64.59375 
L 9.421875 64.59375 
z
" id="DejaVuSans-105"/>
       <path d="M 45.40625 27.984375 
Q 45.40625 37.75 41.375 43.109375 
Q 37.359375 48.484375 30.078125 48.484375 
Q 22.859375 48.484375 18.828125 43.109375 
Q 14.796875 37.75 14.796875 27.984375 
Q 14.796875 18.265625 18.828125 12.890625 
Q 22.859375 7.515625 30.078125 7.515625 
Q 37.359375 7.515625 41.375 12.890625 
Q 45.40625 18.265625 45.40625 27.984375 
z
M 54.390625 6.78125 
Q 54.390625 -7.171875 48.1875 -13.984375 
Q 42 -20.796875 29.203125 -20.796875 
Q 24.46875 -20.796875 20.265625 -20.09375 
Q 16.0625 -19.390625 12.109375 -17.921875 
L 12.109375 -9.1875 
Q 16.0625 -11.328125 19.921875 -12.34375 
Q 23.78125 -13.375 27.78125 -13.375 
Q 36.625 -13.375 41.015625 -8.765625 
Q 45.40625 -4.15625 45.40625 5.171875 
L 45.40625 9.625 
Q 42.625 4.78125 38.28125 2.390625 
Q 33.9375 0 27.875 0 
Q 17.828125 0 11.671875 7.65625 
Q 5.515625 15.328125 5.515625 27.984375 
Q 5.515625 40.671875 11.671875 48.328125 
Q 17.828125 56 27.875 56 
Q 33.9375 56 38.28125 53.609375 
Q 42.625 51.21875 45.40625 46.390625 
L 45.40625 54.6875 
L 54.390625 54.6875 
z
" id="DejaVuSans-103"/>
       <path d="M 4.890625 31.390625 
L 31.203125 31.390625 
L 31.203125 23.390625 
L 4.890625 23.390625 
z
" id="DejaVuSans-45"/>
       <path d="M 12.40625 8.296875 
L 28.515625 8.296875 
L 28.515625 63.921875 
L 10.984375 60.40625 
L 10.984375 69.390625 
L 28.421875 72.90625 
L 38.28125 72.90625 
L 38.28125 8.296875 
L 54.390625 8.296875 
L 54.390625 0 
L 12.40625 0 
z
" id="DejaVuSans-49"/>
      </defs>
      <g transform="translate(81.190178 474.018248)rotate(-60)scale(0.12 -0.12)">
       <use xlink:href="#DejaVuSans-100"/>
       <use x="63.476562" xlink:href="#DejaVuSans-111"/>
       <use x="124.658203" xlink:href="#DejaVuSans-119"/>
       <use x="206.445312" xlink:href="#DejaVuSans-110"/>
       <use x="269.824219" xlink:href="#DejaVuSans-115"/>
       <use x="321.923828" xlink:href="#DejaVuSans-97"/>
       <use x="383.203125" xlink:href="#DejaVuSans-109"/>
       <use x="480.615234" xlink:href="#DejaVuSans-112"/>
       <use x="544.091797" xlink:href="#DejaVuSans-108"/>
       <use x="571.875" xlink:href="#DejaVuSans-105"/>
       <use x="599.658203" xlink:href="#DejaVuSans-110"/>
       <use x="663.037109" xlink:href="#DejaVuSans-103"/>
       <use x="726.513672" xlink:href="#DejaVuSans-45"/>
       <use x="762.597656" xlink:href="#DejaVuSans-49"/>
      </g>
     </g>
    </g>
    <g id="xtick_2">
     <g id="line2d_2">
      <g>
       <use style="stroke:#000000;stroke-width:0.8;" x="149.257962" xlink:href="#m843f45c871" y="376.596014"/>
      </g>
     </g>
     <g id="text_2">
      <!-- convolution-1 -->
      <defs>
       <path d="M 48.78125 52.59375 
L 48.78125 44.1875 
Q 44.96875 46.296875 41.140625 47.34375 
Q 37.3125 48.390625 33.40625 48.390625 
Q 24.65625 48.390625 19.8125 42.84375 
Q 14.984375 37.3125 14.984375 27.296875 
Q 14.984375 17.28125 19.8125 11.734375 
Q 24.65625 6.203125 33.40625 6.203125 
Q 37.3125 6.203125 41.140625 7.25 
Q 44.96875 8.296875 48.78125 10.40625 
L 48.78125 2.09375 
Q 45.015625 0.34375 40.984375 -0.53125 
Q 36.96875 -1.421875 32.421875 -1.421875 
Q 20.0625 -1.421875 12.78125 6.34375 
Q 5.515625 14.109375 5.515625 27.296875 
Q 5.515625 40.671875 12.859375 48.328125 
Q 20.21875 56 33.015625 56 
Q 37.15625 56 41.109375 55.140625 
Q 45.0625 54.296875 48.78125 52.59375 
z
" id="DejaVuSans-99"/>
       <path d="M 2.984375 54.6875 
L 12.5 54.6875 
L 29.59375 8.796875 
L 46.6875 54.6875 
L 56.203125 54.6875 
L 35.6875 0 
L 23.484375 0 
z
" id="DejaVuSans-118"/>
       <path d="M 8.5 21.578125 
L 8.5 54.6875 
L 17.484375 54.6875 
L 17.484375 21.921875 
Q 17.484375 14.15625 20.5 10.265625 
Q 23.53125 6.390625 29.59375 6.390625 
Q 36.859375 6.390625 41.078125 11.03125 
Q 45.3125 15.671875 45.3125 23.6875 
L 45.3125 54.6875 
L 54.296875 54.6875 
L 54.296875 0 
L 45.3125 0 
L 45.3125 8.40625 
Q 42.046875 3.421875 37.71875 1 
Q 33.40625 -1.421875 27.6875 -1.421875 
Q 18.265625 -1.421875 13.375 4.4375 
Q 8.5 10.296875 8.5 21.578125 
z
M 31.109375 56 
z
" id="DejaVuSans-117"/>
       <path d="M 18.3125 70.21875 
L 18.3125 54.6875 
L 36.8125 54.6875 
L 36.8125 47.703125 
L 18.3125 47.703125 
L 18.3125 18.015625 
Q 18.3125 11.328125 20.140625 9.421875 
Q 21.96875 7.515625 27.59375 7.515625 
L 36.8125 7.515625 
L 36.8125 0 
L 27.59375 0 
Q 17.1875 0 13.234375 3.875 
Q 9.28125 7.765625 9.28125 18.015625 
L 9.28125 47.703125 
L 2.6875 47.703125 
L 2.6875 54.6875 
L 9.28125 54.6875 
L 9.28125 70.21875 
z
" id="DejaVuSans-116"/>
      </defs>
      <g transform="translate(131.655745 459.064695)rotate(-60)scale(0.12 -0.12)">
       <use xlink:href="#DejaVuSans-99"/>
       <use x="54.980469" xlink:href="#DejaVuSans-111"/>
       <use x="116.162109" xlink:href="#DejaVuSans-110"/>
       <use x="179.541016" xlink:href="#DejaVuSans-118"/>
       <use x="238.720703" xlink:href="#DejaVuSans-111"/>
       <use x="299.902344" xlink:href="#DejaVuSans-108"/>
       <use x="327.685547" xlink:href="#DejaVuSans-117"/>
       <use x="391.064453" xlink:href="#DejaVuSans-116"/>
       <use x="430.273438" xlink:href="#DejaVuSans-105"/>
       <use x="458.056641" xlink:href="#DejaVuSans-111"/>
       <use x="519.238281" xlink:href="#DejaVuSans-110"/>
       <use x="582.617188" xlink:href="#DejaVuSans-45"/>
       <use x="618.701172" xlink:href="#DejaVuSans-49"/>
      </g>
     </g>
    </g>
    <g id="xtick_3">
     <g id="line2d_3">
      <g>
       <use style="stroke:#000000;stroke-width:0.8;" x="195.406811" xlink:href="#m843f45c871" y="376.596014"/>
      </g>
     </g>
     <g id="text_3">
      <!-- downsampling-2 -->
      <defs>
       <path d="M 19.1875 8.296875 
L 53.609375 8.296875 
L 53.609375 0 
L 7.328125 0 
L 7.328125 8.296875 
Q 12.9375 14.109375 22.625 23.890625 
Q 32.328125 33.6875 34.8125 36.53125 
Q 39.546875 41.84375 41.421875 45.53125 
Q 43.3125 49.21875 43.3125 52.78125 
Q 43.3125 58.59375 39.234375 62.25 
Q 35.15625 65.921875 28.609375 65.921875 
Q 23.96875 65.921875 18.8125 64.3125 
Q 13.671875 62.703125 7.8125 59.421875 
L 7.8125 69.390625 
Q 13.765625 71.78125 18.9375 73 
Q 24.125 74.21875 28.421875 74.21875 
Q 39.75 74.21875 46.484375 68.546875 
Q 53.21875 62.890625 53.21875 53.421875 
Q 53.21875 48.921875 51.53125 44.890625 
Q 49.859375 40.875 45.40625 35.40625 
Q 44.1875 33.984375 37.640625 27.21875 
Q 31.109375 20.453125 19.1875 8.296875 
z
" id="DejaVuSans-50"/>
      </defs>
      <g transform="translate(173.487875 474.018248)rotate(-60)scale(0.12 -0.12)">
       <use xlink:href="#DejaVuSans-100"/>
       <use x="63.476562" xlink:href="#DejaVuSans-111"/>
       <use x="124.658203" xlink:href="#DejaVuSans-119"/>
       <use x="206.445312" xlink:href="#DejaVuSans-110"/>
       <use x="269.824219" xlink:href="#DejaVuSans-115"/>
       <use x="321.923828" xlink:href="#DejaVuSans-97"/>
       <use x="383.203125" xlink:href="#DejaVuSans-109"/>
       <use x="480.615234" xlink:href="#DejaVuSans-112"/>
       <use x="544.091797" xlink:href="#DejaVuSans-108"/>
       <use x="571.875" xlink:href="#DejaVuSans-105"/>
       <use x="599.658203" xlink:href="#DejaVuSans-110"/>
       <use x="663.037109" xlink:href="#DejaVuSans-103"/>
       <use x="726.513672" xlink:href="#DejaVuSans-45"/>
       <use x="762.597656" xlink:href="#DejaVuSans-50"/>
      </g>
     </g>
    </g>
    <g id="xtick_4">
     <g id="line2d_4">
      <g>
       <use style="stroke:#000000;stroke-width:0.8;" x="241.555659" xlink:href="#m843f45c871" y="376.596014"/>
      </g>
     </g>
     <g id="text_4">
      <!-- convolution-2 -->
      <g transform="translate(223.953442 459.064695)rotate(-60)scale(0.12 -0.12)">
       <use xlink:href="#DejaVuSans-99"/>
       <use x="54.980469" xlink:href="#DejaVuSans-111"/>
       <use x="116.162109" xlink:href="#DejaVuSans-110"/>
       <use x="179.541016" xlink:href="#DejaVuSans-118"/>
       <use x="238.720703" xlink:href="#DejaVuSans-111"/>
       <use x="299.902344" xlink:href="#DejaVuSans-108"/>
       <use x="327.685547" xlink:href="#DejaVuSans-117"/>
       <use x="391.064453" xlink:href="#DejaVuSans-116"/>
       <use x="430.273438" xlink:href="#DejaVuSans-105"/>
       <use x="458.056641" xlink:href="#DejaVuSans-111"/>
       <use x="519.238281" xlink:href="#DejaVuSans-110"/>
       <use x="582.617188" xlink:href="#DejaVuSans-45"/>
       <use x="618.701172" xlink:href="#DejaVuSans-50"/>
      </g>
     </g>
    </g>
    <g id="xtick_5">
     <g id="line2d_5">
      <g>
       <use style="stroke:#000000;stroke-width:0.8;" x="287.704508" xlink:href="#m843f45c871" y="376.596014"/>
      </g>
     </g>
     <g id="text_5">
      <!-- downsampling-3 -->
      <defs>
       <path d="M 40.578125 39.3125 
Q 47.65625 37.796875 51.625 33 
Q 55.609375 28.21875 55.609375 21.1875 
Q 55.609375 10.40625 48.1875 4.484375 
Q 40.765625 -1.421875 27.09375 -1.421875 
Q 22.515625 -1.421875 17.65625 -0.515625 
Q 12.796875 0.390625 7.625 2.203125 
L 7.625 11.71875 
Q 11.71875 9.328125 16.59375 8.109375 
Q 21.484375 6.890625 26.8125 6.890625 
Q 36.078125 6.890625 40.9375 10.546875 
Q 45.796875 14.203125 45.796875 21.1875 
Q 45.796875 27.640625 41.28125 31.265625 
Q 36.765625 34.90625 28.71875 34.90625 
L 20.21875 34.90625 
L 20.21875 43.015625 
L 29.109375 43.015625 
Q 36.375 43.015625 40.234375 45.921875 
Q 44.09375 48.828125 44.09375 54.296875 
Q 44.09375 59.90625 40.109375 62.90625 
Q 36.140625 65.921875 28.71875 65.921875 
Q 24.65625 65.921875 20.015625 65.03125 
Q 15.375 64.15625 9.8125 62.3125 
L 9.8125 71.09375 
Q 15.4375 72.65625 20.34375 73.4375 
Q 25.25 74.21875 29.59375 74.21875 
Q 40.828125 74.21875 47.359375 69.109375 
Q 53.90625 64.015625 53.90625 55.328125 
Q 53.90625 49.265625 50.4375 45.09375 
Q 46.96875 40.921875 40.578125 39.3125 
z
" id="DejaVuSans-51"/>
      </defs>
      <g transform="translate(265.785572 474.018248)rotate(-60)scale(0.12 -0.12)">
       <use xlink:href="#DejaVuSans-100"/>
       <use x="63.476562" xlink:href="#DejaVuSans-111"/>
       <use x="124.658203" xlink:href="#DejaVuSans-119"/>
       <use x="206.445312" xlink:href="#DejaVuSans-110"/>
       <use x="269.824219" xlink:href="#DejaVuSans-115"/>
       <use x="321.923828" xlink:href="#DejaVuSans-97"/>
       <use x="383.203125" xlink:href="#DejaVuSans-109"/>
       <use x="480.615234" xlink:href="#DejaVuSans-112"/>
       <use x="544.091797" xlink:href="#DejaVuSans-108"/>
       <use x="571.875" xlink:href="#DejaVuSans-105"/>
       <use x="599.658203" xlink:href="#DejaVuSans-110"/>
       <use x="663.037109" xlink:href="#DejaVuSans-103"/>
       <use x="726.513672" xlink:href="#DejaVuSans-45"/>
       <use x="762.597656" xlink:href="#DejaVuSans-51"/>
      </g>
     </g>
    </g>
    <g id="xtick_6">
     <g id="line2d_6">
      <g>
       <use style="stroke:#000000;stroke-width:0.8;" x="333.853356" xlink:href="#m843f45c871" y="376.596014"/>
      </g>
     </g>
     <g id="text_6">
      <!-- convolution-3 -->
      <g transform="translate(316.251139 459.064695)rotate(-60)scale(0.12 -0.12)">
       <use xlink:href="#DejaVuSans-99"/>
       <use x="54.980469" xlink:href="#DejaVuSans-111"/>
       <use x="116.162109" xlink:href="#DejaVuSans-110"/>
       <use x="179.541016" xlink:href="#DejaVuSans-118"/>
       <use x="238.720703" xlink:href="#DejaVuSans-111"/>
       <use x="299.902344" xlink:href="#DejaVuSans-108"/>
       <use x="327.685547" xlink:href="#DejaVuSans-117"/>
       <use x="391.064453" xlink:href="#DejaVuSans-116"/>
       <use x="430.273438" xlink:href="#DejaVuSans-105"/>
       <use x="458.056641" xlink:href="#DejaVuSans-111"/>
       <use x="519.238281" xlink:href="#DejaVuSans-110"/>
       <use x="582.617188" xlink:href="#DejaVuSans-45"/>
       <use x="618.701172" xlink:href="#DejaVuSans-51"/>
      </g>
     </g>
    </g>
    <g id="xtick_7">
     <g id="line2d_7">
      <g>
       <use style="stroke:#000000;stroke-width:0.8;" x="380.002205" xlink:href="#m843f45c871" y="376.596014"/>
      </g>
     </g>
     <g id="text_7">
      <!-- downsampling-4 -->
      <defs>
       <path d="M 37.796875 64.3125 
L 12.890625 25.390625 
L 37.796875 25.390625 
z
M 35.203125 72.90625 
L 47.609375 72.90625 
L 47.609375 25.390625 
L 58.015625 25.390625 
L 58.015625 17.1875 
L 47.609375 17.1875 
L 47.609375 0 
L 37.796875 0 
L 37.796875 17.1875 
L 4.890625 17.1875 
L 4.890625 26.703125 
z
" id="DejaVuSans-52"/>
      </defs>
      <g transform="translate(358.083269 474.018248)rotate(-60)scale(0.12 -0.12)">
       <use xlink:href="#DejaVuSans-100"/>
       <use x="63.476562" xlink:href="#DejaVuSans-111"/>
       <use x="124.658203" xlink:href="#DejaVuSans-119"/>
       <use x="206.445312" xlink:href="#DejaVuSans-110"/>
       <use x="269.824219" xlink:href="#DejaVuSans-115"/>
       <use x="321.923828" xlink:href="#DejaVuSans-97"/>
       <use x="383.203125" xlink:href="#DejaVuSans-109"/>
       <use x="480.615234" xlink:href="#DejaVuSans-112"/>
       <use x="544.091797" xlink:href="#DejaVuSans-108"/>
       <use x="571.875" xlink:href="#DejaVuSans-105"/>
       <use x="599.658203" xlink:href="#DejaVuSans-110"/>
       <use x="663.037109" xlink:href="#DejaVuSans-103"/>
       <use x="726.513672" xlink:href="#DejaVuSans-45"/>
       <use x="762.597656" xlink:href="#DejaVuSans-52"/>
      </g>
     </g>
    </g>
    <g id="xtick_8">
     <g id="line2d_8">
      <g>
       <use style="stroke:#000000;stroke-width:0.8;" x="426.151053" xlink:href="#m843f45c871" y="376.596014"/>
      </g>
     </g>
     <g id="text_8">
      <!-- convolution-4 -->
      <g transform="translate(408.548836 459.064695)rotate(-60)scale(0.12 -0.12)">
       <use xlink:href="#DejaVuSans-99"/>
       <use x="54.980469" xlink:href="#DejaVuSans-111"/>
       <use x="116.162109" xlink:href="#DejaVuSans-110"/>
       <use x="179.541016" xlink:href="#DejaVuSans-118"/>
       <use x="238.720703" xlink:href="#DejaVuSans-111"/>
       <use x="299.902344" xlink:href="#DejaVuSans-108"/>
       <use x="327.685547" xlink:href="#DejaVuSans-117"/>
       <use x="391.064453" xlink:href="#DejaVuSans-116"/>
       <use x="430.273438" xlink:href="#DejaVuSans-105"/>
       <use x="458.056641" xlink:href="#DejaVuSans-111"/>
       <use x="519.238281" xlink:href="#DejaVuSans-110"/>
       <use x="582.617188" xlink:href="#DejaVuSans-45"/>
       <use x="618.701172" xlink:href="#DejaVuSans-52"/>
      </g>
     </g>
    </g>
    <g id="xtick_9">
     <g id="line2d_9">
      <g>
       <use style="stroke:#000000;stroke-width:0.8;" x="472.299902" xlink:href="#m843f45c871" y="376.596014"/>
      </g>
     </g>
     <g id="text_9">
      <!-- downsampling-5 -->
      <defs>
       <path d="M 10.796875 72.90625 
L 49.515625 72.90625 
L 49.515625 64.59375 
L 19.828125 64.59375 
L 19.828125 46.734375 
Q 21.96875 47.46875 24.109375 47.828125 
Q 26.265625 48.1875 28.421875 48.1875 
Q 40.625 48.1875 47.75 41.5 
Q 54.890625 34.8125 54.890625 23.390625 
Q 54.890625 11.625 47.5625 5.09375 
Q 40.234375 -1.421875 26.90625 -1.421875 
Q 22.3125 -1.421875 17.546875 -0.640625 
Q 12.796875 0.140625 7.71875 1.703125 
L 7.71875 11.625 
Q 12.109375 9.234375 16.796875 8.0625 
Q 21.484375 6.890625 26.703125 6.890625 
Q 35.15625 6.890625 40.078125 11.328125 
Q 45.015625 15.765625 45.015625 23.390625 
Q 45.015625 31 40.078125 35.4375 
Q 35.15625 39.890625 26.703125 39.890625 
Q 22.75 39.890625 18.8125 39.015625 
Q 14.890625 38.140625 10.796875 36.28125 
z
" id="DejaVuSans-53"/>
      </defs>
      <g transform="translate(450.380966 474.018248)rotate(-60)scale(0.12 -0.12)">
       <use xlink:href="#DejaVuSans-100"/>
       <use x="63.476562" xlink:href="#DejaVuSans-111"/>
       <use x="124.658203" xlink:href="#DejaVuSans-119"/>
       <use x="206.445312" xlink:href="#DejaVuSans-110"/>
       <use x="269.824219" xlink:href="#DejaVuSans-115"/>
       <use x="321.923828" xlink:href="#DejaVuSans-97"/>
       <use x="383.203125" xlink:href="#DejaVuSans-109"/>
       <use x="480.615234" xlink:href="#DejaVuSans-112"/>
       <use x="544.091797" xlink:href="#DejaVuSans-108"/>
       <use x="571.875" xlink:href="#DejaVuSans-105"/>
       <use x="599.658203" xlink:href="#DejaVuSans-110"/>
       <use x="663.037109" xlink:href="#DejaVuSans-103"/>
       <use x="726.513672" xlink:href="#DejaVuSans-45"/>
       <use x="762.597656" xlink:href="#DejaVuSans-53"/>
      </g>
     </g>
    </g>
    <g id="xtick_10">
     <g id="line2d_10">
      <g>
       <use style="stroke:#000000;stroke-width:0.8;" x="518.44875" xlink:href="#m843f45c871" y="376.596014"/>
      </g>
     </g>
     <g id="text_10">
      <!-- convolution-5 -->
      <g transform="translate(500.846533 459.064695)rotate(-60)scale(0.12 -0.12)">
       <use xlink:href="#DejaVuSans-99"/>
       <use x="54.980469" xlink:href="#DejaVuSans-111"/>
       <use x="116.162109" xlink:href="#DejaVuSans-110"/>
       <use x="179.541016" xlink:href="#DejaVuSans-118"/>
       <use x="238.720703" xlink:href="#DejaVuSans-111"/>
       <use x="299.902344" xlink:href="#DejaVuSans-108"/>
       <use x="327.685547" xlink:href="#DejaVuSans-117"/>
       <use x="391.064453" xlink:href="#DejaVuSans-116"/>
       <use x="430.273438" xlink:href="#DejaVuSans-105"/>
       <use x="458.056641" xlink:href="#DejaVuSans-111"/>
       <use x="519.238281" xlink:href="#DejaVuSans-110"/>
       <use x="582.617188" xlink:href="#DejaVuSans-45"/>
       <use x="618.701172" xlink:href="#DejaVuSans-53"/>
      </g>
     </g>
    </g>
    <g id="xtick_11">
     <g id="line2d_11">
      <g>
       <use style="stroke:#000000;stroke-width:0.8;" x="564.597598" xlink:href="#m843f45c871" y="376.596014"/>
      </g>
     </g>
     <g id="text_11">
      <!-- downsampling-6 -->
      <defs>
       <path d="M 33.015625 40.375 
Q 26.375 40.375 22.484375 35.828125 
Q 18.609375 31.296875 18.609375 23.390625 
Q 18.609375 15.53125 22.484375 10.953125 
Q 26.375 6.390625 33.015625 6.390625 
Q 39.65625 6.390625 43.53125 10.953125 
Q 47.40625 15.53125 47.40625 23.390625 
Q 47.40625 31.296875 43.53125 35.828125 
Q 39.65625 40.375 33.015625 40.375 
z
M 52.59375 71.296875 
L 52.59375 62.3125 
Q 48.875 64.0625 45.09375 64.984375 
Q 41.3125 65.921875 37.59375 65.921875 
Q 27.828125 65.921875 22.671875 59.328125 
Q 17.53125 52.734375 16.796875 39.40625 
Q 19.671875 43.65625 24.015625 45.921875 
Q 28.375 48.1875 33.59375 48.1875 
Q 44.578125 48.1875 50.953125 41.515625 
Q 57.328125 34.859375 57.328125 23.390625 
Q 57.328125 12.15625 50.6875 5.359375 
Q 44.046875 -1.421875 33.015625 -1.421875 
Q 20.359375 -1.421875 13.671875 8.265625 
Q 6.984375 17.96875 6.984375 36.375 
Q 6.984375 53.65625 15.1875 63.9375 
Q 23.390625 74.21875 37.203125 74.21875 
Q 40.921875 74.21875 44.703125 73.484375 
Q 48.484375 72.75 52.59375 71.296875 
z
" id="DejaVuSans-54"/>
      </defs>
      <g transform="translate(542.678663 474.018248)rotate(-60)scale(0.12 -0.12)">
       <use xlink:href="#DejaVuSans-100"/>
       <use x="63.476562" xlink:href="#DejaVuSans-111"/>
       <use x="124.658203" xlink:href="#DejaVuSans-119"/>
       <use x="206.445312" xlink:href="#DejaVuSans-110"/>
       <use x="269.824219" xlink:href="#DejaVuSans-115"/>
       <use x="321.923828" xlink:href="#DejaVuSans-97"/>
       <use x="383.203125" xlink:href="#DejaVuSans-109"/>
       <use x="480.615234" xlink:href="#DejaVuSans-112"/>
       <use x="544.091797" xlink:href="#DejaVuSans-108"/>
       <use x="571.875" xlink:href="#DejaVuSans-105"/>
       <use x="599.658203" xlink:href="#DejaVuSans-110"/>
       <use x="663.037109" xlink:href="#DejaVuSans-103"/>
       <use x="726.513672" xlink:href="#DejaVuSans-45"/>
       <use x="762.597656" xlink:href="#DejaVuSans-54"/>
      </g>
     </g>
    </g>
    <g id="xtick_12">
     <g id="line2d_12">
      <g>
       <use style="stroke:#000000;stroke-width:0.8;" x="610.746447" xlink:href="#m843f45c871" y="376.596014"/>
      </g>
     </g>
     <g id="text_12">
      <!-- convolution-6 -->
      <g transform="translate(593.14423 459.064695)rotate(-60)scale(0.12 -0.12)">
       <use xlink:href="#DejaVuSans-99"/>
       <use x="54.980469" xlink:href="#DejaVuSans-111"/>
       <use x="116.162109" xlink:href="#DejaVuSans-110"/>
       <use x="179.541016" xlink:href="#DejaVuSans-118"/>
       <use x="238.720703" xlink:href="#DejaVuSans-111"/>
       <use x="299.902344" xlink:href="#DejaVuSans-108"/>
       <use x="327.685547" xlink:href="#DejaVuSans-117"/>
       <use x="391.064453" xlink:href="#DejaVuSans-116"/>
       <use x="430.273438" xlink:href="#DejaVuSans-105"/>
       <use x="458.056641" xlink:href="#DejaVuSans-111"/>
       <use x="519.238281" xlink:href="#DejaVuSans-110"/>
       <use x="582.617188" xlink:href="#DejaVuSans-45"/>
       <use x="618.701172" xlink:href="#DejaVuSans-54"/>
      </g>
     </g>
    </g>
    <g id="xtick_13">
     <g id="line2d_13">
      <g>
       <use style="stroke:#000000;stroke-width:0.8;" x="656.895295" xlink:href="#m843f45c871" y="376.596014"/>
      </g>
     </g>
     <g id="text_13">
      <!-- upsampling-6 -->
      <g transform="translate(639.265422 459.160499)rotate(-60)scale(0.12 -0.12)">
       <use xlink:href="#DejaVuSans-117"/>
       <use x="63.378906" xlink:href="#DejaVuSans-112"/>
       <use x="126.855469" xlink:href="#DejaVuSans-115"/>
       <use x="178.955078" xlink:href="#DejaVuSans-97"/>
       <use x="240.234375" xlink:href="#DejaVuSans-109"/>
       <use x="337.646484" xlink:href="#DejaVuSans-112"/>
       <use x="401.123047" xlink:href="#DejaVuSans-108"/>
       <use x="428.90625" xlink:href="#DejaVuSans-105"/>
       <use x="456.689453" xlink:href="#DejaVuSans-110"/>
       <use x="520.068359" xlink:href="#DejaVuSans-103"/>
       <use x="583.544922" xlink:href="#DejaVuSans-45"/>
       <use x="619.628906" xlink:href="#DejaVuSans-54"/>
      </g>
     </g>
    </g>
    <g id="xtick_14">
     <g id="line2d_14">
      <g>
       <use style="stroke:#000000;stroke-width:0.8;" x="703.044144" xlink:href="#m843f45c871" y="376.596014"/>
      </g>
     </g>
     <g id="text_14">
      <!-- upsampling-5 -->
      <g transform="translate(685.414271 459.160499)rotate(-60)scale(0.12 -0.12)">
       <use xlink:href="#DejaVuSans-117"/>
       <use x="63.378906" xlink:href="#DejaVuSans-112"/>
       <use x="126.855469" xlink:href="#DejaVuSans-115"/>
       <use x="178.955078" xlink:href="#DejaVuSans-97"/>
       <use x="240.234375" xlink:href="#DejaVuSans-109"/>
       <use x="337.646484" xlink:href="#DejaVuSans-112"/>
       <use x="401.123047" xlink:href="#DejaVuSans-108"/>
       <use x="428.90625" xlink:href="#DejaVuSans-105"/>
       <use x="456.689453" xlink:href="#DejaVuSans-110"/>
       <use x="520.068359" xlink:href="#DejaVuSans-103"/>
       <use x="583.544922" xlink:href="#DejaVuSans-45"/>
       <use x="619.628906" xlink:href="#DejaVuSans-53"/>
      </g>
     </g>
    </g>
    <g id="xtick_15">
     <g id="line2d_15">
      <g>
       <use style="stroke:#000000;stroke-width:0.8;" x="749.192992" xlink:href="#m843f45c871" y="376.596014"/>
      </g>
     </g>
     <g id="text_15">
      <!-- upsampling-4 -->
      <g transform="translate(731.563119 459.160499)rotate(-60)scale(0.12 -0.12)">
       <use xlink:href="#DejaVuSans-117"/>
       <use x="63.378906" xlink:href="#DejaVuSans-112"/>
       <use x="126.855469" xlink:href="#DejaVuSans-115"/>
       <use x="178.955078" xlink:href="#DejaVuSans-97"/>
       <use x="240.234375" xlink:href="#DejaVuSans-109"/>
       <use x="337.646484" xlink:href="#DejaVuSans-112"/>
       <use x="401.123047" xlink:href="#DejaVuSans-108"/>
       <use x="428.90625" xlink:href="#DejaVuSans-105"/>
       <use x="456.689453" xlink:href="#DejaVuSans-110"/>
       <use x="520.068359" xlink:href="#DejaVuSans-103"/>
       <use x="583.544922" xlink:href="#DejaVuSans-45"/>
       <use x="619.628906" xlink:href="#DejaVuSans-52"/>
      </g>
     </g>
    </g>
    <g id="xtick_16">
     <g id="line2d_16">
      <g>
       <use style="stroke:#000000;stroke-width:0.8;" x="795.341841" xlink:href="#m843f45c871" y="376.596014"/>
      </g>
     </g>
     <g id="text_16">
      <!-- upsampling-3 -->
      <g transform="translate(777.711968 459.160499)rotate(-60)scale(0.12 -0.12)">
       <use xlink:href="#DejaVuSans-117"/>
       <use x="63.378906" xlink:href="#DejaVuSans-112"/>
       <use x="126.855469" xlink:href="#DejaVuSans-115"/>
       <use x="178.955078" xlink:href="#DejaVuSans-97"/>
       <use x="240.234375" xlink:href="#DejaVuSans-109"/>
       <use x="337.646484" xlink:href="#DejaVuSans-112"/>
       <use x="401.123047" xlink:href="#DejaVuSans-108"/>
       <use x="428.90625" xlink:href="#DejaVuSans-105"/>
       <use x="456.689453" xlink:href="#DejaVuSans-110"/>
       <use x="520.068359" xlink:href="#DejaVuSans-103"/>
       <use x="583.544922" xlink:href="#DejaVuSans-45"/>
       <use x="619.628906" xlink:href="#DejaVuSans-51"/>
      </g>
     </g>
    </g>
    <g id="xtick_17">
     <g id="line2d_17">
      <g>
       <use style="stroke:#000000;stroke-width:0.8;" x="841.490689" xlink:href="#m843f45c871" y="376.596014"/>
      </g>
     </g>
     <g id="text_17">
      <!-- upsampling-2 -->
      <g transform="translate(823.860816 459.160499)rotate(-60)scale(0.12 -0.12)">
       <use xlink:href="#DejaVuSans-117"/>
       <use x="63.378906" xlink:href="#DejaVuSans-112"/>
       <use x="126.855469" xlink:href="#DejaVuSans-115"/>
       <use x="178.955078" xlink:href="#DejaVuSans-97"/>
       <use x="240.234375" xlink:href="#DejaVuSans-109"/>
       <use x="337.646484" xlink:href="#DejaVuSans-112"/>
       <use x="401.123047" xlink:href="#DejaVuSans-108"/>
       <use x="428.90625" xlink:href="#DejaVuSans-105"/>
       <use x="456.689453" xlink:href="#DejaVuSans-110"/>
       <use x="520.068359" xlink:href="#DejaVuSans-103"/>
       <use x="583.544922" xlink:href="#DejaVuSans-45"/>
       <use x="619.628906" xlink:href="#DejaVuSans-50"/>
      </g>
     </g>
    </g>
    <g id="xtick_18">
     <g id="line2d_18">
      <g>
       <use style="stroke:#000000;stroke-width:0.8;" x="887.639538" xlink:href="#m843f45c871" y="376.596014"/>
      </g>
     </g>
     <g id="text_18">
      <!-- upsampling-1 -->
      <g transform="translate(870.009664 459.160499)rotate(-60)scale(0.12 -0.12)">
       <use xlink:href="#DejaVuSans-117"/>
       <use x="63.378906" xlink:href="#DejaVuSans-112"/>
       <use x="126.855469" xlink:href="#DejaVuSans-115"/>
       <use x="178.955078" xlink:href="#DejaVuSans-97"/>
       <use x="240.234375" xlink:href="#DejaVuSans-109"/>
       <use x="337.646484" xlink:href="#DejaVuSans-112"/>
       <use x="401.123047" xlink:href="#DejaVuSans-108"/>
       <use x="428.90625" xlink:href="#DejaVuSans-105"/>
       <use x="456.689453" xlink:href="#DejaVuSans-110"/>
       <use x="520.068359" xlink:href="#DejaVuSans-103"/>
       <use x="583.544922" xlink:href="#DejaVuSans-45"/>
       <use x="619.628906" xlink:href="#DejaVuSans-49"/>
      </g>
     </g>
    </g>
    <g id="xtick_19">
     <g id="line2d_19">
      <g>
       <use style="stroke:#000000;stroke-width:0.8;" x="933.788386" xlink:href="#m843f45c871" y="376.596014"/>
      </g>
     </g>
     <g id="text_19">
      <!-- final convolution -->
      <defs>
       <path d="M 37.109375 75.984375 
L 37.109375 68.5 
L 28.515625 68.5 
Q 23.6875 68.5 21.796875 66.546875 
Q 19.921875 64.59375 19.921875 59.515625 
L 19.921875 54.6875 
L 34.71875 54.6875 
L 34.71875 47.703125 
L 19.921875 47.703125 
L 19.921875 0 
L 10.890625 0 
L 10.890625 47.703125 
L 2.296875 47.703125 
L 2.296875 54.6875 
L 10.890625 54.6875 
L 10.890625 58.5 
Q 10.890625 67.625 15.140625 71.796875 
Q 19.390625 75.984375 28.609375 75.984375 
z
" id="DejaVuSans-102"/>
       <path id="DejaVuSans-32"/>
      </defs>
      <g transform="translate(911.761169 474.393345)rotate(-60)scale(0.12 -0.12)">
       <use xlink:href="#DejaVuSans-102"/>
       <use x="35.205078" xlink:href="#DejaVuSans-105"/>
       <use x="62.988281" xlink:href="#DejaVuSans-110"/>
       <use x="126.367188" xlink:href="#DejaVuSans-97"/>
       <use x="187.646484" xlink:href="#DejaVuSans-108"/>
       <use x="215.429688" xlink:href="#DejaVuSans-32"/>
       <use x="247.216797" xlink:href="#DejaVuSans-99"/>
       <use x="302.197266" xlink:href="#DejaVuSans-111"/>
       <use x="363.378906" xlink:href="#DejaVuSans-110"/>
       <use x="426.757812" xlink:href="#DejaVuSans-118"/>
       <use x="485.9375" xlink:href="#DejaVuSans-111"/>
       <use x="547.119141" xlink:href="#DejaVuSans-108"/>
       <use x="574.902344" xlink:href="#DejaVuSans-117"/>
       <use x="638.28125" xlink:href="#DejaVuSans-116"/>
       <use x="677.490234" xlink:href="#DejaVuSans-105"/>
       <use x="705.273438" xlink:href="#DejaVuSans-111"/>
       <use x="766.455078" xlink:href="#DejaVuSans-110"/>
      </g>
     </g>
    </g>
    <g id="text_20">
     <!-- Layer Type -->
     <defs>
      <path d="M 9.8125 72.90625 
L 19.671875 72.90625 
L 19.671875 8.296875 
L 55.171875 8.296875 
L 55.171875 0 
L 9.8125 0 
z
" id="DejaVuSans-76"/>
      <path d="M 32.171875 -5.078125 
Q 28.375 -14.84375 24.75 -17.8125 
Q 21.140625 -20.796875 15.09375 -20.796875 
L 7.90625 -20.796875 
L 7.90625 -13.28125 
L 13.1875 -13.28125 
Q 16.890625 -13.28125 18.9375 -11.515625 
Q 21 -9.765625 23.484375 -3.21875 
L 25.09375 0.875 
L 2.984375 54.6875 
L 12.5 54.6875 
L 29.59375 11.921875 
L 46.6875 54.6875 
L 56.203125 54.6875 
z
" id="DejaVuSans-121"/>
      <path d="M 56.203125 29.59375 
L 56.203125 25.203125 
L 14.890625 25.203125 
Q 15.484375 15.921875 20.484375 11.0625 
Q 25.484375 6.203125 34.421875 6.203125 
Q 39.59375 6.203125 44.453125 7.46875 
Q 49.3125 8.734375 54.109375 11.28125 
L 54.109375 2.78125 
Q 49.265625 0.734375 44.1875 -0.34375 
Q 39.109375 -1.421875 33.890625 -1.421875 
Q 20.796875 -1.421875 13.15625 6.1875 
Q 5.515625 13.8125 5.515625 26.8125 
Q 5.515625 40.234375 12.765625 48.109375 
Q 20.015625 56 32.328125 56 
Q 43.359375 56 49.78125 48.890625 
Q 56.203125 41.796875 56.203125 29.59375 
z
M 47.21875 32.234375 
Q 47.125 39.59375 43.09375 43.984375 
Q 39.0625 48.390625 32.421875 48.390625 
Q 24.90625 48.390625 20.390625 44.140625 
Q 15.875 39.890625 15.1875 32.171875 
z
" id="DejaVuSans-101"/>
      <path d="M 41.109375 46.296875 
Q 39.59375 47.171875 37.8125 47.578125 
Q 36.03125 48 33.890625 48 
Q 26.265625 48 22.1875 43.046875 
Q 18.109375 38.09375 18.109375 28.8125 
L 18.109375 0 
L 9.078125 0 
L 9.078125 54.6875 
L 18.109375 54.6875 
L 18.109375 46.1875 
Q 20.953125 51.171875 25.484375 53.578125 
Q 30.03125 56 36.53125 56 
Q 37.453125 56 38.578125 55.875 
Q 39.703125 55.765625 41.0625 55.515625 
z
" id="DejaVuSans-114"/>
      <path d="M -0.296875 72.90625 
L 61.375 72.90625 
L 61.375 64.59375 
L 35.5 64.59375 
L 35.5 0 
L 25.59375 0 
L 25.59375 64.59375 
L -0.296875 64.59375 
z
" id="DejaVuSans-84"/>
     </defs>
     <g transform="translate(485.109375 488.759282)scale(0.12 -0.12)">
      <use xlink:href="#DejaVuSans-76"/>
      <use x="55.712891" xlink:href="#DejaVuSans-97"/>
      <use x="116.992188" xlink:href="#DejaVuSans-121"/>
      <use x="176.171875" xlink:href="#DejaVuSans-101"/>
      <use x="237.695312" xlink:href="#DejaVuSans-114"/>
      <use x="278.808594" xlink:href="#DejaVuSans-32"/>
      <use x="310.595703" xlink:href="#DejaVuSans-84"/>
      <use x="371.445312" xlink:href="#DejaVuSans-121"/>
      <use x="430.625" xlink:href="#DejaVuSans-112"/>
      <use x="494.101562" xlink:href="#DejaVuSans-101"/>
     </g>
    </g>
   </g>
   <g id="matplotlib.axis_2">
    <g id="ytick_1">
     <g id="line2d_20">
      <defs>
       <path d="M 0 0 
L -3.5 0 
" id="m4b2d0b1dad" style="stroke:#000000;stroke-width:0.8;"/>
      </defs>
      <g>
       <use style="stroke:#000000;stroke-width:0.8;" x="42.53875" xlink:href="#m4b2d0b1dad" y="376.596014"/>
      </g>
     </g>
     <g id="text_21">
      <!-- 0 -->
      <defs>
       <path d="M 31.78125 66.40625 
Q 24.171875 66.40625 20.328125 58.90625 
Q 16.5 51.421875 16.5 36.375 
Q 16.5 21.390625 20.328125 13.890625 
Q 24.171875 6.390625 31.78125 6.390625 
Q 39.453125 6.390625 43.28125 13.890625 
Q 47.125 21.390625 47.125 36.375 
Q 47.125 51.421875 43.28125 58.90625 
Q 39.453125 66.40625 31.78125 66.40625 
z
M 31.78125 74.21875 
Q 44.046875 74.21875 50.515625 64.515625 
Q 56.984375 54.828125 56.984375 36.375 
Q 56.984375 17.96875 50.515625 8.265625 
Q 44.046875 -1.421875 31.78125 -1.421875 
Q 19.53125 -1.421875 13.0625 8.265625 
Q 6.59375 17.96875 6.59375 36.375 
Q 6.59375 54.828125 13.0625 64.515625 
Q 19.53125 74.21875 31.78125 74.21875 
z
" id="DejaVuSans-48"/>
      </defs>
      <g transform="translate(29.17625 380.395233)scale(0.1 -0.1)">
       <use xlink:href="#DejaVuSans-48"/>
      </g>
     </g>
    </g>
    <g id="ytick_2">
     <g id="line2d_21">
      <g>
       <use style="stroke:#000000;stroke-width:0.8;" x="42.53875" xlink:href="#m4b2d0b1dad" y="331.608346"/>
      </g>
     </g>
     <g id="text_22">
      <!-- 10 -->
      <g transform="translate(22.81375 335.407564)scale(0.1 -0.1)">
       <use xlink:href="#DejaVuSans-49"/>
       <use x="63.623047" xlink:href="#DejaVuSans-48"/>
      </g>
     </g>
    </g>
    <g id="ytick_3">
     <g id="line2d_22">
      <g>
       <use style="stroke:#000000;stroke-width:0.8;" x="42.53875" xlink:href="#m4b2d0b1dad" y="286.620677"/>
      </g>
     </g>
     <g id="text_23">
      <!-- 20 -->
      <g transform="translate(22.81375 290.419896)scale(0.1 -0.1)">
       <use xlink:href="#DejaVuSans-50"/>
       <use x="63.623047" xlink:href="#DejaVuSans-48"/>
      </g>
     </g>
    </g>
    <g id="ytick_4">
     <g id="line2d_23">
      <g>
       <use style="stroke:#000000;stroke-width:0.8;" x="42.53875" xlink:href="#m4b2d0b1dad" y="241.633009"/>
      </g>
     </g>
     <g id="text_24">
      <!-- 30 -->
      <g transform="translate(22.81375 245.432227)scale(0.1 -0.1)">
       <use xlink:href="#DejaVuSans-51"/>
       <use x="63.623047" xlink:href="#DejaVuSans-48"/>
      </g>
     </g>
    </g>
    <g id="ytick_5">
     <g id="line2d_24">
      <g>
       <use style="stroke:#000000;stroke-width:0.8;" x="42.53875" xlink:href="#m4b2d0b1dad" y="196.64534"/>
      </g>
     </g>
     <g id="text_25">
      <!-- 40 -->
      <g transform="translate(22.81375 200.444559)scale(0.1 -0.1)">
       <use xlink:href="#DejaVuSans-52"/>
       <use x="63.623047" xlink:href="#DejaVuSans-48"/>
      </g>
     </g>
    </g>
    <g id="ytick_6">
     <g id="line2d_25">
      <g>
       <use style="stroke:#000000;stroke-width:0.8;" x="42.53875" xlink:href="#m4b2d0b1dad" y="151.657672"/>
      </g>
     </g>
     <g id="text_26">
      <!-- 50 -->
      <g transform="translate(22.81375 155.456891)scale(0.1 -0.1)">
       <use xlink:href="#DejaVuSans-53"/>
       <use x="63.623047" xlink:href="#DejaVuSans-48"/>
      </g>
     </g>
    </g>
    <g id="ytick_7">
     <g id="line2d_26">
      <g>
       <use style="stroke:#000000;stroke-width:0.8;" x="42.53875" xlink:href="#m4b2d0b1dad" y="106.670003"/>
      </g>
     </g>
     <g id="text_27">
      <!-- 60 -->
      <g transform="translate(22.81375 110.469222)scale(0.1 -0.1)">
       <use xlink:href="#DejaVuSans-54"/>
       <use x="63.623047" xlink:href="#DejaVuSans-48"/>
      </g>
     </g>
    </g>
    <g id="ytick_8">
     <g id="line2d_27">
      <g>
       <use style="stroke:#000000;stroke-width:0.8;" x="42.53875" xlink:href="#m4b2d0b1dad" y="61.682335"/>
      </g>
     </g>
     <g id="text_28">
      <!-- 70 -->
      <defs>
       <path d="M 8.203125 72.90625 
L 55.078125 72.90625 
L 55.078125 68.703125 
L 28.609375 0 
L 18.3125 0 
L 43.21875 64.59375 
L 8.203125 64.59375 
z
" id="DejaVuSans-55"/>
      </defs>
      <g transform="translate(22.81375 65.481554)scale(0.1 -0.1)">
       <use xlink:href="#DejaVuSans-55"/>
       <use x="63.623047" xlink:href="#DejaVuSans-48"/>
      </g>
     </g>
    </g>
    <g id="text_29">
     <!-- Sparsity Level (%) -->
     <defs>
      <path d="M 53.515625 70.515625 
L 53.515625 60.890625 
Q 47.90625 63.578125 42.921875 64.890625 
Q 37.9375 66.21875 33.296875 66.21875 
Q 25.25 66.21875 20.875 63.09375 
Q 16.5 59.96875 16.5 54.203125 
Q 16.5 49.359375 19.40625 46.890625 
Q 22.3125 44.4375 30.421875 42.921875 
L 36.375 41.703125 
Q 47.40625 39.59375 52.65625 34.296875 
Q 57.90625 29 57.90625 20.125 
Q 57.90625 9.515625 50.796875 4.046875 
Q 43.703125 -1.421875 29.984375 -1.421875 
Q 24.8125 -1.421875 18.96875 -0.25 
Q 13.140625 0.921875 6.890625 3.21875 
L 6.890625 13.375 
Q 12.890625 10.015625 18.65625 8.296875 
Q 24.421875 6.59375 29.984375 6.59375 
Q 38.421875 6.59375 43.015625 9.90625 
Q 47.609375 13.234375 47.609375 19.390625 
Q 47.609375 24.75 44.3125 27.78125 
Q 41.015625 30.8125 33.5 32.328125 
L 27.484375 33.5 
Q 16.453125 35.6875 11.515625 40.375 
Q 6.59375 45.0625 6.59375 53.421875 
Q 6.59375 63.09375 13.40625 68.65625 
Q 20.21875 74.21875 32.171875 74.21875 
Q 37.3125 74.21875 42.625 73.28125 
Q 47.953125 72.359375 53.515625 70.515625 
z
" id="DejaVuSans-83"/>
      <path d="M 31 75.875 
Q 24.46875 64.65625 21.28125 53.65625 
Q 18.109375 42.671875 18.109375 31.390625 
Q 18.109375 20.125 21.3125 9.0625 
Q 24.515625 -2 31 -13.1875 
L 23.1875 -13.1875 
Q 15.875 -1.703125 12.234375 9.375 
Q 8.59375 20.453125 8.59375 31.390625 
Q 8.59375 42.28125 12.203125 53.3125 
Q 15.828125 64.359375 23.1875 75.875 
z
" id="DejaVuSans-40"/>
      <path d="M 72.703125 32.078125 
Q 68.453125 32.078125 66.03125 28.46875 
Q 63.625 24.859375 63.625 18.40625 
Q 63.625 12.0625 66.03125 8.421875 
Q 68.453125 4.78125 72.703125 4.78125 
Q 76.859375 4.78125 79.265625 8.421875 
Q 81.6875 12.0625 81.6875 18.40625 
Q 81.6875 24.8125 79.265625 28.4375 
Q 76.859375 32.078125 72.703125 32.078125 
z
M 72.703125 38.28125 
Q 80.421875 38.28125 84.953125 32.90625 
Q 89.5 27.546875 89.5 18.40625 
Q 89.5 9.28125 84.9375 3.921875 
Q 80.375 -1.421875 72.703125 -1.421875 
Q 64.890625 -1.421875 60.34375 3.921875 
Q 55.8125 9.28125 55.8125 18.40625 
Q 55.8125 27.59375 60.375 32.9375 
Q 64.9375 38.28125 72.703125 38.28125 
z
M 22.3125 68.015625 
Q 18.109375 68.015625 15.6875 64.375 
Q 13.28125 60.75 13.28125 54.390625 
Q 13.28125 47.953125 15.671875 44.328125 
Q 18.0625 40.71875 22.3125 40.71875 
Q 26.5625 40.71875 28.96875 44.328125 
Q 31.390625 47.953125 31.390625 54.390625 
Q 31.390625 60.6875 28.953125 64.34375 
Q 26.515625 68.015625 22.3125 68.015625 
z
M 66.40625 74.21875 
L 74.21875 74.21875 
L 28.609375 -1.421875 
L 20.796875 -1.421875 
z
M 22.3125 74.21875 
Q 30.03125 74.21875 34.609375 68.875 
Q 39.203125 63.53125 39.203125 54.390625 
Q 39.203125 45.171875 34.640625 39.84375 
Q 30.078125 34.515625 22.3125 34.515625 
Q 14.546875 34.515625 10.03125 39.859375 
Q 5.515625 45.21875 5.515625 54.390625 
Q 5.515625 63.484375 10.046875 68.84375 
Q 14.59375 74.21875 22.3125 74.21875 
z
" id="DejaVuSans-37"/>
      <path d="M 8.015625 75.875 
L 15.828125 75.875 
Q 23.140625 64.359375 26.78125 53.3125 
Q 30.421875 42.28125 30.421875 31.390625 
Q 30.421875 20.453125 26.78125 9.375 
Q 23.140625 -1.703125 15.828125 -13.1875 
L 8.015625 -13.1875 
Q 14.5 -2 17.703125 9.0625 
Q 20.90625 20.125 20.90625 31.390625 
Q 20.90625 42.671875 17.703125 53.65625 
Q 14.5 64.65625 8.015625 75.875 
z
" id="DejaVuSans-41"/>
     </defs>
     <g transform="translate(16.318125 254.055195)rotate(-90)scale(0.12 -0.12)">
      <use xlink:href="#DejaVuSans-83"/>
      <use x="63.476562" xlink:href="#DejaVuSans-112"/>
      <use x="126.953125" xlink:href="#DejaVuSans-97"/>
      <use x="188.232422" xlink:href="#DejaVuSans-114"/>
      <use x="229.345703" xlink:href="#DejaVuSans-115"/>
      <use x="281.445312" xlink:href="#DejaVuSans-105"/>
      <use x="309.228516" xlink:href="#DejaVuSans-116"/>
      <use x="348.4375" xlink:href="#DejaVuSans-121"/>
      <use x="407.617188" xlink:href="#DejaVuSans-32"/>
      <use x="439.404297" xlink:href="#DejaVuSans-76"/>
      <use x="495.101562" xlink:href="#DejaVuSans-101"/>
      <use x="556.625" xlink:href="#DejaVuSans-118"/>
      <use x="615.804688" xlink:href="#DejaVuSans-101"/>
      <use x="677.328125" xlink:href="#DejaVuSans-108"/>
      <use x="705.111328" xlink:href="#DejaVuSans-32"/>
      <use x="736.898438" xlink:href="#DejaVuSans-40"/>
      <use x="775.912109" xlink:href="#DejaVuSans-37"/>
      <use x="870.931641" xlink:href="#DejaVuSans-41"/>
     </g>
    </g>
   </g>
   <g id="patch_79">
    <path d="M 42.53875 376.596014 
L 42.53875 22.318125 
" style="fill:none;stroke:#000000;stroke-linecap:square;stroke-linejoin:miter;stroke-width:0.8;"/>
   </g>
   <g id="patch_80">
    <path d="M 994.35875 376.596014 
L 994.35875 22.318125 
" style="fill:none;stroke:#000000;stroke-linecap:square;stroke-linejoin:miter;stroke-width:0.8;"/>
   </g>
   <g id="patch_81">
    <path d="M 42.53875 376.596014 
L 994.35875 376.596014 
" style="fill:none;stroke:#000000;stroke-linecap:square;stroke-linejoin:miter;stroke-width:0.8;"/>
   </g>
   <g id="patch_82">
    <path d="M 42.53875 22.318125 
L 994.35875 22.318125 
" style="fill:none;stroke:#000000;stroke-linecap:square;stroke-linejoin:miter;stroke-width:0.8;"/>
   </g>
   <g id="text_30">
    <!-- Comparative Histogram of Weight Layer Sparsity for Lena image -->
    <defs>
     <path d="M 64.40625 67.28125 
L 64.40625 56.890625 
Q 59.421875 61.53125 53.78125 63.8125 
Q 48.140625 66.109375 41.796875 66.109375 
Q 29.296875 66.109375 22.65625 58.46875 
Q 16.015625 50.828125 16.015625 36.375 
Q 16.015625 21.96875 22.65625 14.328125 
Q 29.296875 6.6875 41.796875 6.6875 
Q 48.140625 6.6875 53.78125 8.984375 
Q 59.421875 11.28125 64.40625 15.921875 
L 64.40625 5.609375 
Q 59.234375 2.09375 53.4375 0.328125 
Q 47.65625 -1.421875 41.21875 -1.421875 
Q 24.65625 -1.421875 15.125 8.703125 
Q 5.609375 18.84375 5.609375 36.375 
Q 5.609375 53.953125 15.125 64.078125 
Q 24.65625 74.21875 41.21875 74.21875 
Q 47.75 74.21875 53.53125 72.484375 
Q 59.328125 70.75 64.40625 67.28125 
z
" id="DejaVuSans-67"/>
     <path d="M 9.8125 72.90625 
L 19.671875 72.90625 
L 19.671875 43.015625 
L 55.515625 43.015625 
L 55.515625 72.90625 
L 65.375 72.90625 
L 65.375 0 
L 55.515625 0 
L 55.515625 34.71875 
L 19.671875 34.71875 
L 19.671875 0 
L 9.8125 0 
z
" id="DejaVuSans-72"/>
     <path d="M 3.328125 72.90625 
L 13.28125 72.90625 
L 28.609375 11.28125 
L 43.890625 72.90625 
L 54.984375 72.90625 
L 70.3125 11.28125 
L 85.59375 72.90625 
L 95.609375 72.90625 
L 77.296875 0 
L 64.890625 0 
L 49.515625 63.28125 
L 33.984375 0 
L 21.578125 0 
z
" id="DejaVuSans-87"/>
     <path d="M 54.890625 33.015625 
L 54.890625 0 
L 45.90625 0 
L 45.90625 32.71875 
Q 45.90625 40.484375 42.875 44.328125 
Q 39.84375 48.1875 33.796875 48.1875 
Q 26.515625 48.1875 22.3125 43.546875 
Q 18.109375 38.921875 18.109375 30.90625 
L 18.109375 0 
L 9.078125 0 
L 9.078125 75.984375 
L 18.109375 75.984375 
L 18.109375 46.1875 
Q 21.34375 51.125 25.703125 53.5625 
Q 30.078125 56 35.796875 56 
Q 45.21875 56 50.046875 50.171875 
Q 54.890625 44.34375 54.890625 33.015625 
z
" id="DejaVuSans-104"/>
    </defs>
    <g transform="translate(323.798438 16.318125)scale(0.12 -0.12)">
     <use xlink:href="#DejaVuSans-67"/>
     <use x="69.824219" xlink:href="#DejaVuSans-111"/>
     <use x="131.005859" xlink:href="#DejaVuSans-109"/>
     <use x="228.417969" xlink:href="#DejaVuSans-112"/>
     <use x="291.894531" xlink:href="#DejaVuSans-97"/>
     <use x="353.173828" xlink:href="#DejaVuSans-114"/>
     <use x="394.287109" xlink:href="#DejaVuSans-97"/>
     <use x="455.566406" xlink:href="#DejaVuSans-116"/>
     <use x="494.775391" xlink:href="#DejaVuSans-105"/>
     <use x="522.558594" xlink:href="#DejaVuSans-118"/>
     <use x="581.738281" xlink:href="#DejaVuSans-101"/>
     <use x="643.261719" xlink:href="#DejaVuSans-32"/>
     <use x="675.048828" xlink:href="#DejaVuSans-72"/>
     <use x="750.244141" xlink:href="#DejaVuSans-105"/>
     <use x="778.027344" xlink:href="#DejaVuSans-115"/>
     <use x="830.126953" xlink:href="#DejaVuSans-116"/>
     <use x="869.335938" xlink:href="#DejaVuSans-111"/>
     <use x="930.517578" xlink:href="#DejaVuSans-103"/>
     <use x="993.994141" xlink:href="#DejaVuSans-114"/>
     <use x="1035.107422" xlink:href="#DejaVuSans-97"/>
     <use x="1096.386719" xlink:href="#DejaVuSans-109"/>
     <use x="1193.798828" xlink:href="#DejaVuSans-32"/>
     <use x="1225.585938" xlink:href="#DejaVuSans-111"/>
     <use x="1286.767578" xlink:href="#DejaVuSans-102"/>
     <use x="1321.972656" xlink:href="#DejaVuSans-32"/>
     <use x="1353.759766" xlink:href="#DejaVuSans-87"/>
     <use x="1452.558594" xlink:href="#DejaVuSans-101"/>
     <use x="1514.082031" xlink:href="#DejaVuSans-105"/>
     <use x="1541.865234" xlink:href="#DejaVuSans-103"/>
     <use x="1605.341797" xlink:href="#DejaVuSans-104"/>
     <use x="1668.720703" xlink:href="#DejaVuSans-116"/>
     <use x="1707.929688" xlink:href="#DejaVuSans-32"/>
     <use x="1739.716797" xlink:href="#DejaVuSans-76"/>
     <use x="1795.429688" xlink:href="#DejaVuSans-97"/>
     <use x="1856.708984" xlink:href="#DejaVuSans-121"/>
     <use x="1915.888672" xlink:href="#DejaVuSans-101"/>
     <use x="1977.412109" xlink:href="#DejaVuSans-114"/>
     <use x="2018.525391" xlink:href="#DejaVuSans-32"/>
     <use x="2050.3125" xlink:href="#DejaVuSans-83"/>
     <use x="2113.789062" xlink:href="#DejaVuSans-112"/>
     <use x="2177.265625" xlink:href="#DejaVuSans-97"/>
     <use x="2238.544922" xlink:href="#DejaVuSans-114"/>
     <use x="2279.658203" xlink:href="#DejaVuSans-115"/>
     <use x="2331.757812" xlink:href="#DejaVuSans-105"/>
     <use x="2359.541016" xlink:href="#DejaVuSans-116"/>
     <use x="2398.75" xlink:href="#DejaVuSans-121"/>
     <use x="2457.929688" xlink:href="#DejaVuSans-32"/>
     <use x="2489.716797" xlink:href="#DejaVuSans-102"/>
     <use x="2524.921875" xlink:href="#DejaVuSans-111"/>
     <use x="2586.103516" xlink:href="#DejaVuSans-114"/>
     <use x="2627.216797" xlink:href="#DejaVuSans-32"/>
     <use x="2659.003906" xlink:href="#DejaVuSans-76"/>
     <use x="2714.701172" xlink:href="#DejaVuSans-101"/>
     <use x="2776.224609" xlink:href="#DejaVuSans-110"/>
     <use x="2839.603516" xlink:href="#DejaVuSans-97"/>
     <use x="2900.882812" xlink:href="#DejaVuSans-32"/>
     <use x="2932.669922" xlink:href="#DejaVuSans-105"/>
     <use x="2960.453125" xlink:href="#DejaVuSans-109"/>
     <use x="3057.865234" xlink:href="#DejaVuSans-97"/>
     <use x="3119.144531" xlink:href="#DejaVuSans-103"/>
     <use x="3182.621094" xlink:href="#DejaVuSans-101"/>
    </g>
   </g>
   <g id="legend_1">
    <g id="patch_83">
     <path d="M 50.93875 102.373125 
L 167.3725 102.373125 
Q 169.7725 102.373125 169.7725 99.973125 
L 169.7725 30.718125 
Q 169.7725 28.318125 167.3725 28.318125 
L 50.93875 28.318125 
Q 48.53875 28.318125 48.53875 30.718125 
L 48.53875 99.973125 
Q 48.53875 102.373125 50.93875 102.373125 
z
" style="fill:#ffffff;opacity:0.8;stroke:#cccccc;stroke-linejoin:miter;"/>
    </g>
    <g id="patch_84">
     <path d="M 53.33875 42.23625 
L 77.33875 42.23625 
L 77.33875 33.83625 
L 53.33875 33.83625 
z
" style="fill:#1f77b4;"/>
    </g>
    <g id="text_31">
     <!-- 50% sparsity -->
     <g transform="translate(86.93875 42.23625)scale(0.12 -0.12)">
      <use xlink:href="#DejaVuSans-53"/>
      <use x="63.623047" xlink:href="#DejaVuSans-48"/>
      <use x="127.246094" xlink:href="#DejaVuSans-37"/>
      <use x="222.265625" xlink:href="#DejaVuSans-32"/>
      <use x="254.052734" xlink:href="#DejaVuSans-115"/>
      <use x="306.152344" xlink:href="#DejaVuSans-112"/>
      <use x="369.628906" xlink:href="#DejaVuSans-97"/>
      <use x="430.908203" xlink:href="#DejaVuSans-114"/>
      <use x="472.021484" xlink:href="#DejaVuSans-115"/>
      <use x="524.121094" xlink:href="#DejaVuSans-105"/>
      <use x="551.904297" xlink:href="#DejaVuSans-116"/>
      <use x="591.113281" xlink:href="#DejaVuSans-121"/>
     </g>
    </g>
    <g id="patch_85">
     <path d="M 53.33875 59.85 
L 77.33875 59.85 
L 77.33875 51.45 
L 53.33875 51.45 
z
" style="fill:#ff7f0e;"/>
    </g>
    <g id="text_32">
     <!-- 85% sparsity -->
     <defs>
      <path d="M 31.78125 34.625 
Q 24.75 34.625 20.71875 30.859375 
Q 16.703125 27.09375 16.703125 20.515625 
Q 16.703125 13.921875 20.71875 10.15625 
Q 24.75 6.390625 31.78125 6.390625 
Q 38.8125 6.390625 42.859375 10.171875 
Q 46.921875 13.96875 46.921875 20.515625 
Q 46.921875 27.09375 42.890625 30.859375 
Q 38.875 34.625 31.78125 34.625 
z
M 21.921875 38.8125 
Q 15.578125 40.375 12.03125 44.71875 
Q 8.5 49.078125 8.5 55.328125 
Q 8.5 64.0625 14.71875 69.140625 
Q 20.953125 74.21875 31.78125 74.21875 
Q 42.671875 74.21875 48.875 69.140625 
Q 55.078125 64.0625 55.078125 55.328125 
Q 55.078125 49.078125 51.53125 44.71875 
Q 48 40.375 41.703125 38.8125 
Q 48.828125 37.15625 52.796875 32.3125 
Q 56.78125 27.484375 56.78125 20.515625 
Q 56.78125 9.90625 50.3125 4.234375 
Q 43.84375 -1.421875 31.78125 -1.421875 
Q 19.734375 -1.421875 13.25 4.234375 
Q 6.78125 9.90625 6.78125 20.515625 
Q 6.78125 27.484375 10.78125 32.3125 
Q 14.796875 37.15625 21.921875 38.8125 
z
M 18.3125 54.390625 
Q 18.3125 48.734375 21.84375 45.5625 
Q 25.390625 42.390625 31.78125 42.390625 
Q 38.140625 42.390625 41.71875 45.5625 
Q 45.3125 48.734375 45.3125 54.390625 
Q 45.3125 60.0625 41.71875 63.234375 
Q 38.140625 66.40625 31.78125 66.40625 
Q 25.390625 66.40625 21.84375 63.234375 
Q 18.3125 60.0625 18.3125 54.390625 
z
" id="DejaVuSans-56"/>
     </defs>
     <g transform="translate(86.93875 59.85)scale(0.12 -0.12)">
      <use xlink:href="#DejaVuSans-56"/>
      <use x="63.623047" xlink:href="#DejaVuSans-53"/>
      <use x="127.246094" xlink:href="#DejaVuSans-37"/>
      <use x="222.265625" xlink:href="#DejaVuSans-32"/>
      <use x="254.052734" xlink:href="#DejaVuSans-115"/>
      <use x="306.152344" xlink:href="#DejaVuSans-112"/>
      <use x="369.628906" xlink:href="#DejaVuSans-97"/>
      <use x="430.908203" xlink:href="#DejaVuSans-114"/>
      <use x="472.021484" xlink:href="#DejaVuSans-115"/>
      <use x="524.121094" xlink:href="#DejaVuSans-105"/>
      <use x="551.904297" xlink:href="#DejaVuSans-116"/>
      <use x="591.113281" xlink:href="#DejaVuSans-121"/>
     </g>
    </g>
    <g id="patch_86">
     <path d="M 53.33875 77.46375 
L 77.33875 77.46375 
L 77.33875 69.06375 
L 53.33875 69.06375 
z
" style="fill:#2ca02c;"/>
    </g>
    <g id="text_33">
     <!-- 90% sparsity -->
     <defs>
      <path d="M 10.984375 1.515625 
L 10.984375 10.5 
Q 14.703125 8.734375 18.5 7.8125 
Q 22.3125 6.890625 25.984375 6.890625 
Q 35.75 6.890625 40.890625 13.453125 
Q 46.046875 20.015625 46.78125 33.40625 
Q 43.953125 29.203125 39.59375 26.953125 
Q 35.25 24.703125 29.984375 24.703125 
Q 19.046875 24.703125 12.671875 31.3125 
Q 6.296875 37.9375 6.296875 49.421875 
Q 6.296875 60.640625 12.9375 67.421875 
Q 19.578125 74.21875 30.609375 74.21875 
Q 43.265625 74.21875 49.921875 64.515625 
Q 56.59375 54.828125 56.59375 36.375 
Q 56.59375 19.140625 48.40625 8.859375 
Q 40.234375 -1.421875 26.421875 -1.421875 
Q 22.703125 -1.421875 18.890625 -0.6875 
Q 15.09375 0.046875 10.984375 1.515625 
z
M 30.609375 32.421875 
Q 37.25 32.421875 41.125 36.953125 
Q 45.015625 41.5 45.015625 49.421875 
Q 45.015625 57.28125 41.125 61.84375 
Q 37.25 66.40625 30.609375 66.40625 
Q 23.96875 66.40625 20.09375 61.84375 
Q 16.21875 57.28125 16.21875 49.421875 
Q 16.21875 41.5 20.09375 36.953125 
Q 23.96875 32.421875 30.609375 32.421875 
z
" id="DejaVuSans-57"/>
     </defs>
     <g transform="translate(86.93875 77.46375)scale(0.12 -0.12)">
      <use xlink:href="#DejaVuSans-57"/>
      <use x="63.623047" xlink:href="#DejaVuSans-48"/>
      <use x="127.246094" xlink:href="#DejaVuSans-37"/>
      <use x="222.265625" xlink:href="#DejaVuSans-32"/>
      <use x="254.052734" xlink:href="#DejaVuSans-115"/>
      <use x="306.152344" xlink:href="#DejaVuSans-112"/>
      <use x="369.628906" xlink:href="#DejaVuSans-97"/>
      <use x="430.908203" xlink:href="#DejaVuSans-114"/>
      <use x="472.021484" xlink:href="#DejaVuSans-115"/>
      <use x="524.121094" xlink:href="#DejaVuSans-105"/>
      <use x="551.904297" xlink:href="#DejaVuSans-116"/>
      <use x="591.113281" xlink:href="#DejaVuSans-121"/>
     </g>
    </g>
    <g id="patch_87">
     <path d="M 53.33875 95.0775 
L 77.33875 95.0775 
L 77.33875 86.6775 
L 53.33875 86.6775 
z
" style="fill:#d62728;"/>
    </g>
    <g id="text_34">
     <!-- 96% sparsity -->
     <g transform="translate(86.93875 95.0775)scale(0.12 -0.12)">
      <use xlink:href="#DejaVuSans-57"/>
      <use x="63.623047" xlink:href="#DejaVuSans-54"/>
      <use x="127.246094" xlink:href="#DejaVuSans-37"/>
      <use x="222.265625" xlink:href="#DejaVuSans-32"/>
      <use x="254.052734" xlink:href="#DejaVuSans-115"/>
      <use x="306.152344" xlink:href="#DejaVuSans-112"/>
      <use x="369.628906" xlink:href="#DejaVuSans-97"/>
      <use x="430.908203" xlink:href="#DejaVuSans-114"/>
      <use x="472.021484" xlink:href="#DejaVuSans-115"/>
      <use x="524.121094" xlink:href="#DejaVuSans-105"/>
      <use x="551.904297" xlink:href="#DejaVuSans-116"/>
      <use x="591.113281" xlink:href="#DejaVuSans-121"/>
     </g>
    </g>
   </g>
  </g>
 </g>
 <defs>
  <clipPath id="p0c4d64829c">
   <rect height="354.277889" width="951.82" x="42.53875" y="22.318125"/>
  </clipPath>
 </defs>
</svg>
