<?xml version="1.0" encoding="utf-8" standalone="no"?>
<!DOCTYPE svg PUBLIC "-//W3C//DTD SVG 1.1//EN"
  "http://www.w3.org/Graphics/SVG/1.1/DTD/svg11.dtd">
<!-- Created with matplotlib (https://matplotlib.org/) -->
<svg height="432pt" version="1.1" viewBox="0 0 720 432" width="720pt" xmlns="http://www.w3.org/2000/svg" xmlns:xlink="http://www.w3.org/1999/xlink">
 <defs>
  <style type="text/css">
*{stroke-linecap:butt;stroke-linejoin:round;}
  </style>
 </defs>
 <g id="figure_1">
  <g id="patch_1">
   <path d="M 0 432 
L 720 432 
L 720 0 
L 0 0 
z
" style="fill:#ffffff;"/>
  </g>
  <g id="axes_1">
   <g id="patch_2">
    <path d="M 90 384.48 
L 648 384.48 
L 648 51.84 
L 90 51.84 
z
" style="fill:#ffffff;"/>
   </g>
   <g id="matplotlib.axis_1">
    <g id="xtick_1">
     <g id="line2d_1">
      <path clip-path="url(#p1cba9079d4)" d="M 115.363636 384.48 
L 115.363636 51.84 
" style="fill:none;stroke:#b0b0b0;stroke-linecap:square;stroke-width:0.8;"/>
     </g>
     <g id="line2d_2">
      <defs>
       <path d="M 0 0 
L 0 3.5 
" id="md16a83669d" style="stroke:#000000;stroke-width:0.8;"/>
      </defs>
      <g>
       <use style="stroke:#000000;stroke-width:0.8;" x="115.363636" xlink:href="#md16a83669d" y="384.48"/>
      </g>
     </g>
     <g id="text_1">
      <!-- 0 -->
      <defs>
       <path d="M 31.78125 66.40625 
Q 24.171875 66.40625 20.328125 58.90625 
Q 16.5 51.421875 16.5 36.375 
Q 16.5 21.390625 20.328125 13.890625 
Q 24.171875 6.390625 31.78125 6.390625 
Q 39.453125 6.390625 43.28125 13.890625 
Q 47.125 21.390625 47.125 36.375 
Q 47.125 51.421875 43.28125 58.90625 
Q 39.453125 66.40625 31.78125 66.40625 
z
M 31.78125 74.21875 
Q 44.046875 74.21875 50.515625 64.515625 
Q 56.984375 54.828125 56.984375 36.375 
Q 56.984375 17.96875 50.515625 8.265625 
Q 44.046875 -1.421875 31.78125 -1.421875 
Q 19.53125 -1.421875 13.0625 8.265625 
Q 6.59375 17.96875 6.59375 36.375 
Q 6.59375 54.828125 13.0625 64.515625 
Q 19.53125 74.21875 31.78125 74.21875 
z
" id="DejaVuSans-48"/>
      </defs>
      <g transform="translate(111.546136 400.598125)scale(0.12 -0.12)">
       <use xlink:href="#DejaVuSans-48"/>
      </g>
     </g>
    </g>
    <g id="xtick_2">
     <g id="line2d_3">
      <path clip-path="url(#p1cba9079d4)" d="M 179.091366 384.48 
L 179.091366 51.84 
" style="fill:none;stroke:#b0b0b0;stroke-linecap:square;stroke-width:0.8;"/>
     </g>
     <g id="line2d_4">
      <g>
       <use style="stroke:#000000;stroke-width:0.8;" x="179.091366" xlink:href="#md16a83669d" y="384.48"/>
      </g>
     </g>
     <g id="text_2">
      <!-- 5000 -->
      <defs>
       <path d="M 10.796875 72.90625 
L 49.515625 72.90625 
L 49.515625 64.59375 
L 19.828125 64.59375 
L 19.828125 46.734375 
Q 21.96875 47.46875 24.109375 47.828125 
Q 26.265625 48.1875 28.421875 48.1875 
Q 40.625 48.1875 47.75 41.5 
Q 54.890625 34.8125 54.890625 23.390625 
Q 54.890625 11.625 47.5625 5.09375 
Q 40.234375 -1.421875 26.90625 -1.421875 
Q 22.3125 -1.421875 17.546875 -0.640625 
Q 12.796875 0.140625 7.71875 1.703125 
L 7.71875 11.625 
Q 12.109375 9.234375 16.796875 8.0625 
Q 21.484375 6.890625 26.703125 6.890625 
Q 35.15625 6.890625 40.078125 11.328125 
Q 45.015625 15.765625 45.015625 23.390625 
Q 45.015625 31 40.078125 35.4375 
Q 35.15625 39.890625 26.703125 39.890625 
Q 22.75 39.890625 18.8125 39.015625 
Q 14.890625 38.140625 10.796875 36.28125 
z
" id="DejaVuSans-53"/>
      </defs>
      <g transform="translate(163.821366 400.598125)scale(0.12 -0.12)">
       <use xlink:href="#DejaVuSans-53"/>
       <use x="63.623047" xlink:href="#DejaVuSans-48"/>
       <use x="127.246094" xlink:href="#DejaVuSans-48"/>
       <use x="190.869141" xlink:href="#DejaVuSans-48"/>
      </g>
     </g>
    </g>
    <g id="xtick_3">
     <g id="line2d_5">
      <path clip-path="url(#p1cba9079d4)" d="M 242.819095 384.48 
L 242.819095 51.84 
" style="fill:none;stroke:#b0b0b0;stroke-linecap:square;stroke-width:0.8;"/>
     </g>
     <g id="line2d_6">
      <g>
       <use style="stroke:#000000;stroke-width:0.8;" x="242.819095" xlink:href="#md16a83669d" y="384.48"/>
      </g>
     </g>
     <g id="text_3">
      <!-- 10000 -->
      <defs>
       <path d="M 12.40625 8.296875 
L 28.515625 8.296875 
L 28.515625 63.921875 
L 10.984375 60.40625 
L 10.984375 69.390625 
L 28.421875 72.90625 
L 38.28125 72.90625 
L 38.28125 8.296875 
L 54.390625 8.296875 
L 54.390625 0 
L 12.40625 0 
z
" id="DejaVuSans-49"/>
      </defs>
      <g transform="translate(223.731595 400.598125)scale(0.12 -0.12)">
       <use xlink:href="#DejaVuSans-49"/>
       <use x="63.623047" xlink:href="#DejaVuSans-48"/>
       <use x="127.246094" xlink:href="#DejaVuSans-48"/>
       <use x="190.869141" xlink:href="#DejaVuSans-48"/>
       <use x="254.492188" xlink:href="#DejaVuSans-48"/>
      </g>
     </g>
    </g>
    <g id="xtick_4">
     <g id="line2d_7">
      <path clip-path="url(#p1cba9079d4)" d="M 306.546825 384.48 
L 306.546825 51.84 
" style="fill:none;stroke:#b0b0b0;stroke-linecap:square;stroke-width:0.8;"/>
     </g>
     <g id="line2d_8">
      <g>
       <use style="stroke:#000000;stroke-width:0.8;" x="306.546825" xlink:href="#md16a83669d" y="384.48"/>
      </g>
     </g>
     <g id="text_4">
      <!-- 15000 -->
      <g transform="translate(287.459325 400.598125)scale(0.12 -0.12)">
       <use xlink:href="#DejaVuSans-49"/>
       <use x="63.623047" xlink:href="#DejaVuSans-53"/>
       <use x="127.246094" xlink:href="#DejaVuSans-48"/>
       <use x="190.869141" xlink:href="#DejaVuSans-48"/>
       <use x="254.492188" xlink:href="#DejaVuSans-48"/>
      </g>
     </g>
    </g>
    <g id="xtick_5">
     <g id="line2d_9">
      <path clip-path="url(#p1cba9079d4)" d="M 370.274555 384.48 
L 370.274555 51.84 
" style="fill:none;stroke:#b0b0b0;stroke-linecap:square;stroke-width:0.8;"/>
     </g>
     <g id="line2d_10">
      <g>
       <use style="stroke:#000000;stroke-width:0.8;" x="370.274555" xlink:href="#md16a83669d" y="384.48"/>
      </g>
     </g>
     <g id="text_5">
      <!-- 20000 -->
      <defs>
       <path d="M 19.1875 8.296875 
L 53.609375 8.296875 
L 53.609375 0 
L 7.328125 0 
L 7.328125 8.296875 
Q 12.9375 14.109375 22.625 23.890625 
Q 32.328125 33.6875 34.8125 36.53125 
Q 39.546875 41.84375 41.421875 45.53125 
Q 43.3125 49.21875 43.3125 52.78125 
Q 43.3125 58.59375 39.234375 62.25 
Q 35.15625 65.921875 28.609375 65.921875 
Q 23.96875 65.921875 18.8125 64.3125 
Q 13.671875 62.703125 7.8125 59.421875 
L 7.8125 69.390625 
Q 13.765625 71.78125 18.9375 73 
Q 24.125 74.21875 28.421875 74.21875 
Q 39.75 74.21875 46.484375 68.546875 
Q 53.21875 62.890625 53.21875 53.421875 
Q 53.21875 48.921875 51.53125 44.890625 
Q 49.859375 40.875 45.40625 35.40625 
Q 44.1875 33.984375 37.640625 27.21875 
Q 31.109375 20.453125 19.1875 8.296875 
z
" id="DejaVuSans-50"/>
      </defs>
      <g transform="translate(351.187055 400.598125)scale(0.12 -0.12)">
       <use xlink:href="#DejaVuSans-50"/>
       <use x="63.623047" xlink:href="#DejaVuSans-48"/>
       <use x="127.246094" xlink:href="#DejaVuSans-48"/>
       <use x="190.869141" xlink:href="#DejaVuSans-48"/>
       <use x="254.492188" xlink:href="#DejaVuSans-48"/>
      </g>
     </g>
    </g>
    <g id="xtick_6">
     <g id="line2d_11">
      <path clip-path="url(#p1cba9079d4)" d="M 434.002284 384.48 
L 434.002284 51.84 
" style="fill:none;stroke:#b0b0b0;stroke-linecap:square;stroke-width:0.8;"/>
     </g>
     <g id="line2d_12">
      <g>
       <use style="stroke:#000000;stroke-width:0.8;" x="434.002284" xlink:href="#md16a83669d" y="384.48"/>
      </g>
     </g>
     <g id="text_6">
      <!-- 25000 -->
      <g transform="translate(414.914784 400.598125)scale(0.12 -0.12)">
       <use xlink:href="#DejaVuSans-50"/>
       <use x="63.623047" xlink:href="#DejaVuSans-53"/>
       <use x="127.246094" xlink:href="#DejaVuSans-48"/>
       <use x="190.869141" xlink:href="#DejaVuSans-48"/>
       <use x="254.492188" xlink:href="#DejaVuSans-48"/>
      </g>
     </g>
    </g>
    <g id="xtick_7">
     <g id="line2d_13">
      <path clip-path="url(#p1cba9079d4)" d="M 497.730014 384.48 
L 497.730014 51.84 
" style="fill:none;stroke:#b0b0b0;stroke-linecap:square;stroke-width:0.8;"/>
     </g>
     <g id="line2d_14">
      <g>
       <use style="stroke:#000000;stroke-width:0.8;" x="497.730014" xlink:href="#md16a83669d" y="384.48"/>
      </g>
     </g>
     <g id="text_7">
      <!-- 30000 -->
      <defs>
       <path d="M 40.578125 39.3125 
Q 47.65625 37.796875 51.625 33 
Q 55.609375 28.21875 55.609375 21.1875 
Q 55.609375 10.40625 48.1875 4.484375 
Q 40.765625 -1.421875 27.09375 -1.421875 
Q 22.515625 -1.421875 17.65625 -0.515625 
Q 12.796875 0.390625 7.625 2.203125 
L 7.625 11.71875 
Q 11.71875 9.328125 16.59375 8.109375 
Q 21.484375 6.890625 26.8125 6.890625 
Q 36.078125 6.890625 40.9375 10.546875 
Q 45.796875 14.203125 45.796875 21.1875 
Q 45.796875 27.640625 41.28125 31.265625 
Q 36.765625 34.90625 28.71875 34.90625 
L 20.21875 34.90625 
L 20.21875 43.015625 
L 29.109375 43.015625 
Q 36.375 43.015625 40.234375 45.921875 
Q 44.09375 48.828125 44.09375 54.296875 
Q 44.09375 59.90625 40.109375 62.90625 
Q 36.140625 65.921875 28.71875 65.921875 
Q 24.65625 65.921875 20.015625 65.03125 
Q 15.375 64.15625 9.8125 62.3125 
L 9.8125 71.09375 
Q 15.4375 72.65625 20.34375 73.4375 
Q 25.25 74.21875 29.59375 74.21875 
Q 40.828125 74.21875 47.359375 69.109375 
Q 53.90625 64.015625 53.90625 55.328125 
Q 53.90625 49.265625 50.4375 45.09375 
Q 46.96875 40.921875 40.578125 39.3125 
z
" id="DejaVuSans-51"/>
      </defs>
      <g transform="translate(478.642514 400.598125)scale(0.12 -0.12)">
       <use xlink:href="#DejaVuSans-51"/>
       <use x="63.623047" xlink:href="#DejaVuSans-48"/>
       <use x="127.246094" xlink:href="#DejaVuSans-48"/>
       <use x="190.869141" xlink:href="#DejaVuSans-48"/>
       <use x="254.492188" xlink:href="#DejaVuSans-48"/>
      </g>
     </g>
    </g>
    <g id="xtick_8">
     <g id="line2d_15">
      <path clip-path="url(#p1cba9079d4)" d="M 561.457743 384.48 
L 561.457743 51.84 
" style="fill:none;stroke:#b0b0b0;stroke-linecap:square;stroke-width:0.8;"/>
     </g>
     <g id="line2d_16">
      <g>
       <use style="stroke:#000000;stroke-width:0.8;" x="561.457743" xlink:href="#md16a83669d" y="384.48"/>
      </g>
     </g>
     <g id="text_8">
      <!-- 35000 -->
      <g transform="translate(542.370243 400.598125)scale(0.12 -0.12)">
       <use xlink:href="#DejaVuSans-51"/>
       <use x="63.623047" xlink:href="#DejaVuSans-53"/>
       <use x="127.246094" xlink:href="#DejaVuSans-48"/>
       <use x="190.869141" xlink:href="#DejaVuSans-48"/>
       <use x="254.492188" xlink:href="#DejaVuSans-48"/>
      </g>
     </g>
    </g>
    <g id="xtick_9">
     <g id="line2d_17">
      <path clip-path="url(#p1cba9079d4)" d="M 625.185473 384.48 
L 625.185473 51.84 
" style="fill:none;stroke:#b0b0b0;stroke-linecap:square;stroke-width:0.8;"/>
     </g>
     <g id="line2d_18">
      <g>
       <use style="stroke:#000000;stroke-width:0.8;" x="625.185473" xlink:href="#md16a83669d" y="384.48"/>
      </g>
     </g>
     <g id="text_9">
      <!-- 40000 -->
      <defs>
       <path d="M 37.796875 64.3125 
L 12.890625 25.390625 
L 37.796875 25.390625 
z
M 35.203125 72.90625 
L 47.609375 72.90625 
L 47.609375 25.390625 
L 58.015625 25.390625 
L 58.015625 17.1875 
L 47.609375 17.1875 
L 47.609375 0 
L 37.796875 0 
L 37.796875 17.1875 
L 4.890625 17.1875 
L 4.890625 26.703125 
z
" id="DejaVuSans-52"/>
      </defs>
      <g transform="translate(606.097973 400.598125)scale(0.12 -0.12)">
       <use xlink:href="#DejaVuSans-52"/>
       <use x="63.623047" xlink:href="#DejaVuSans-48"/>
       <use x="127.246094" xlink:href="#DejaVuSans-48"/>
       <use x="190.869141" xlink:href="#DejaVuSans-48"/>
       <use x="254.492188" xlink:href="#DejaVuSans-48"/>
      </g>
     </g>
    </g>
    <g id="text_10">
     <!-- Number of Epochs -->
     <defs>
      <path d="M 9.8125 72.90625 
L 23.09375 72.90625 
L 55.421875 11.921875 
L 55.421875 72.90625 
L 64.984375 72.90625 
L 64.984375 0 
L 51.703125 0 
L 19.390625 60.984375 
L 19.390625 0 
L 9.8125 0 
z
" id="DejaVuSans-78"/>
      <path d="M 8.5 21.578125 
L 8.5 54.6875 
L 17.484375 54.6875 
L 17.484375 21.921875 
Q 17.484375 14.15625 20.5 10.265625 
Q 23.53125 6.390625 29.59375 6.390625 
Q 36.859375 6.390625 41.078125 11.03125 
Q 45.3125 15.671875 45.3125 23.6875 
L 45.3125 54.6875 
L 54.296875 54.6875 
L 54.296875 0 
L 45.3125 0 
L 45.3125 8.40625 
Q 42.046875 3.421875 37.71875 1 
Q 33.40625 -1.421875 27.6875 -1.421875 
Q 18.265625 -1.421875 13.375 4.4375 
Q 8.5 10.296875 8.5 21.578125 
z
M 31.109375 56 
z
" id="DejaVuSans-117"/>
      <path d="M 52 44.1875 
Q 55.375 50.25 60.0625 53.125 
Q 64.75 56 71.09375 56 
Q 79.640625 56 84.28125 50.015625 
Q 88.921875 44.046875 88.921875 33.015625 
L 88.921875 0 
L 79.890625 0 
L 79.890625 32.71875 
Q 79.890625 40.578125 77.09375 44.375 
Q 74.3125 48.1875 68.609375 48.1875 
Q 61.625 48.1875 57.5625 43.546875 
Q 53.515625 38.921875 53.515625 30.90625 
L 53.515625 0 
L 44.484375 0 
L 44.484375 32.71875 
Q 44.484375 40.625 41.703125 44.40625 
Q 38.921875 48.1875 33.109375 48.1875 
Q 26.21875 48.1875 22.15625 43.53125 
Q 18.109375 38.875 18.109375 30.90625 
L 18.109375 0 
L 9.078125 0 
L 9.078125 54.6875 
L 18.109375 54.6875 
L 18.109375 46.1875 
Q 21.1875 51.21875 25.484375 53.609375 
Q 29.78125 56 35.6875 56 
Q 41.65625 56 45.828125 52.96875 
Q 50 49.953125 52 44.1875 
z
" id="DejaVuSans-109"/>
      <path d="M 48.6875 27.296875 
Q 48.6875 37.203125 44.609375 42.84375 
Q 40.53125 48.484375 33.40625 48.484375 
Q 26.265625 48.484375 22.1875 42.84375 
Q 18.109375 37.203125 18.109375 27.296875 
Q 18.109375 17.390625 22.1875 11.75 
Q 26.265625 6.109375 33.40625 6.109375 
Q 40.53125 6.109375 44.609375 11.75 
Q 48.6875 17.390625 48.6875 27.296875 
z
M 18.109375 46.390625 
Q 20.953125 51.265625 25.265625 53.625 
Q 29.59375 56 35.59375 56 
Q 45.5625 56 51.78125 48.09375 
Q 58.015625 40.1875 58.015625 27.296875 
Q 58.015625 14.40625 51.78125 6.484375 
Q 45.5625 -1.421875 35.59375 -1.421875 
Q 29.59375 -1.421875 25.265625 0.953125 
Q 20.953125 3.328125 18.109375 8.203125 
L 18.109375 0 
L 9.078125 0 
L 9.078125 75.984375 
L 18.109375 75.984375 
z
" id="DejaVuSans-98"/>
      <path d="M 56.203125 29.59375 
L 56.203125 25.203125 
L 14.890625 25.203125 
Q 15.484375 15.921875 20.484375 11.0625 
Q 25.484375 6.203125 34.421875 6.203125 
Q 39.59375 6.203125 44.453125 7.46875 
Q 49.3125 8.734375 54.109375 11.28125 
L 54.109375 2.78125 
Q 49.265625 0.734375 44.1875 -0.34375 
Q 39.109375 -1.421875 33.890625 -1.421875 
Q 20.796875 -1.421875 13.15625 6.1875 
Q 5.515625 13.8125 5.515625 26.8125 
Q 5.515625 40.234375 12.765625 48.109375 
Q 20.015625 56 32.328125 56 
Q 43.359375 56 49.78125 48.890625 
Q 56.203125 41.796875 56.203125 29.59375 
z
M 47.21875 32.234375 
Q 47.125 39.59375 43.09375 43.984375 
Q 39.0625 48.390625 32.421875 48.390625 
Q 24.90625 48.390625 20.390625 44.140625 
Q 15.875 39.890625 15.1875 32.171875 
z
" id="DejaVuSans-101"/>
      <path d="M 41.109375 46.296875 
Q 39.59375 47.171875 37.8125 47.578125 
Q 36.03125 48 33.890625 48 
Q 26.265625 48 22.1875 43.046875 
Q 18.109375 38.09375 18.109375 28.8125 
L 18.109375 0 
L 9.078125 0 
L 9.078125 54.6875 
L 18.109375 54.6875 
L 18.109375 46.1875 
Q 20.953125 51.171875 25.484375 53.578125 
Q 30.03125 56 36.53125 56 
Q 37.453125 56 38.578125 55.875 
Q 39.703125 55.765625 41.0625 55.515625 
z
" id="DejaVuSans-114"/>
      <path id="DejaVuSans-32"/>
      <path d="M 30.609375 48.390625 
Q 23.390625 48.390625 19.1875 42.75 
Q 14.984375 37.109375 14.984375 27.296875 
Q 14.984375 17.484375 19.15625 11.84375 
Q 23.34375 6.203125 30.609375 6.203125 
Q 37.796875 6.203125 41.984375 11.859375 
Q 46.1875 17.53125 46.1875 27.296875 
Q 46.1875 37.015625 41.984375 42.703125 
Q 37.796875 48.390625 30.609375 48.390625 
z
M 30.609375 56 
Q 42.328125 56 49.015625 48.375 
Q 55.71875 40.765625 55.71875 27.296875 
Q 55.71875 13.875 49.015625 6.21875 
Q 42.328125 -1.421875 30.609375 -1.421875 
Q 18.84375 -1.421875 12.171875 6.21875 
Q 5.515625 13.875 5.515625 27.296875 
Q 5.515625 40.765625 12.171875 48.375 
Q 18.84375 56 30.609375 56 
z
" id="DejaVuSans-111"/>
      <path d="M 37.109375 75.984375 
L 37.109375 68.5 
L 28.515625 68.5 
Q 23.6875 68.5 21.796875 66.546875 
Q 19.921875 64.59375 19.921875 59.515625 
L 19.921875 54.6875 
L 34.71875 54.6875 
L 34.71875 47.703125 
L 19.921875 47.703125 
L 19.921875 0 
L 10.890625 0 
L 10.890625 47.703125 
L 2.296875 47.703125 
L 2.296875 54.6875 
L 10.890625 54.6875 
L 10.890625 58.5 
Q 10.890625 67.625 15.140625 71.796875 
Q 19.390625 75.984375 28.609375 75.984375 
z
" id="DejaVuSans-102"/>
      <path d="M 9.8125 72.90625 
L 55.90625 72.90625 
L 55.90625 64.59375 
L 19.671875 64.59375 
L 19.671875 43.015625 
L 54.390625 43.015625 
L 54.390625 34.71875 
L 19.671875 34.71875 
L 19.671875 8.296875 
L 56.78125 8.296875 
L 56.78125 0 
L 9.8125 0 
z
" id="DejaVuSans-69"/>
      <path d="M 18.109375 8.203125 
L 18.109375 -20.796875 
L 9.078125 -20.796875 
L 9.078125 54.6875 
L 18.109375 54.6875 
L 18.109375 46.390625 
Q 20.953125 51.265625 25.265625 53.625 
Q 29.59375 56 35.59375 56 
Q 45.5625 56 51.78125 48.09375 
Q 58.015625 40.1875 58.015625 27.296875 
Q 58.015625 14.40625 51.78125 6.484375 
Q 45.5625 -1.421875 35.59375 -1.421875 
Q 29.59375 -1.421875 25.265625 0.953125 
Q 20.953125 3.328125 18.109375 8.203125 
z
M 48.6875 27.296875 
Q 48.6875 37.203125 44.609375 42.84375 
Q 40.53125 48.484375 33.40625 48.484375 
Q 26.265625 48.484375 22.1875 42.84375 
Q 18.109375 37.203125 18.109375 27.296875 
Q 18.109375 17.390625 22.1875 11.75 
Q 26.265625 6.109375 33.40625 6.109375 
Q 40.53125 6.109375 44.609375 11.75 
Q 48.6875 17.390625 48.6875 27.296875 
z
" id="DejaVuSans-112"/>
      <path d="M 48.78125 52.59375 
L 48.78125 44.1875 
Q 44.96875 46.296875 41.140625 47.34375 
Q 37.3125 48.390625 33.40625 48.390625 
Q 24.65625 48.390625 19.8125 42.84375 
Q 14.984375 37.3125 14.984375 27.296875 
Q 14.984375 17.28125 19.8125 11.734375 
Q 24.65625 6.203125 33.40625 6.203125 
Q 37.3125 6.203125 41.140625 7.25 
Q 44.96875 8.296875 48.78125 10.40625 
L 48.78125 2.09375 
Q 45.015625 0.34375 40.984375 -0.53125 
Q 36.96875 -1.421875 32.421875 -1.421875 
Q 20.0625 -1.421875 12.78125 6.34375 
Q 5.515625 14.109375 5.515625 27.296875 
Q 5.515625 40.671875 12.859375 48.328125 
Q 20.21875 56 33.015625 56 
Q 37.15625 56 41.109375 55.140625 
Q 45.0625 54.296875 48.78125 52.59375 
z
" id="DejaVuSans-99"/>
      <path d="M 54.890625 33.015625 
L 54.890625 0 
L 45.90625 0 
L 45.90625 32.71875 
Q 45.90625 40.484375 42.875 44.328125 
Q 39.84375 48.1875 33.796875 48.1875 
Q 26.515625 48.1875 22.3125 43.546875 
Q 18.109375 38.921875 18.109375 30.90625 
L 18.109375 0 
L 9.078125 0 
L 9.078125 75.984375 
L 18.109375 75.984375 
L 18.109375 46.1875 
Q 21.34375 51.125 25.703125 53.5625 
Q 30.078125 56 35.796875 56 
Q 45.21875 56 50.046875 50.171875 
Q 54.890625 44.34375 54.890625 33.015625 
z
" id="DejaVuSans-104"/>
      <path d="M 44.28125 53.078125 
L 44.28125 44.578125 
Q 40.484375 46.53125 36.375 47.5 
Q 32.28125 48.484375 27.875 48.484375 
Q 21.1875 48.484375 17.84375 46.4375 
Q 14.5 44.390625 14.5 40.28125 
Q 14.5 37.15625 16.890625 35.375 
Q 19.28125 33.59375 26.515625 31.984375 
L 29.59375 31.296875 
Q 39.15625 29.25 43.1875 25.515625 
Q 47.21875 21.78125 47.21875 15.09375 
Q 47.21875 7.46875 41.1875 3.015625 
Q 35.15625 -1.421875 24.609375 -1.421875 
Q 20.21875 -1.421875 15.453125 -0.5625 
Q 10.6875 0.296875 5.421875 2 
L 5.421875 11.28125 
Q 10.40625 8.6875 15.234375 7.390625 
Q 20.0625 6.109375 24.8125 6.109375 
Q 31.15625 6.109375 34.5625 8.28125 
Q 37.984375 10.453125 37.984375 14.40625 
Q 37.984375 18.0625 35.515625 20.015625 
Q 33.0625 21.96875 24.703125 23.78125 
L 21.578125 24.515625 
Q 13.234375 26.265625 9.515625 29.90625 
Q 5.8125 33.546875 5.8125 39.890625 
Q 5.8125 47.609375 11.28125 51.796875 
Q 16.75 56 26.8125 56 
Q 31.78125 56 36.171875 55.265625 
Q 40.578125 54.546875 44.28125 53.078125 
z
" id="DejaVuSans-115"/>
     </defs>
     <g transform="translate(304.601094 417.731562)scale(0.14 -0.14)">
      <use xlink:href="#DejaVuSans-78"/>
      <use x="74.804688" xlink:href="#DejaVuSans-117"/>
      <use x="138.183594" xlink:href="#DejaVuSans-109"/>
      <use x="235.595703" xlink:href="#DejaVuSans-98"/>
      <use x="299.072266" xlink:href="#DejaVuSans-101"/>
      <use x="360.595703" xlink:href="#DejaVuSans-114"/>
      <use x="401.708984" xlink:href="#DejaVuSans-32"/>
      <use x="433.496094" xlink:href="#DejaVuSans-111"/>
      <use x="494.677734" xlink:href="#DejaVuSans-102"/>
      <use x="529.882812" xlink:href="#DejaVuSans-32"/>
      <use x="561.669922" xlink:href="#DejaVuSans-69"/>
      <use x="624.853516" xlink:href="#DejaVuSans-112"/>
      <use x="688.330078" xlink:href="#DejaVuSans-111"/>
      <use x="749.511719" xlink:href="#DejaVuSans-99"/>
      <use x="804.492188" xlink:href="#DejaVuSans-104"/>
      <use x="867.871094" xlink:href="#DejaVuSans-115"/>
     </g>
    </g>
   </g>
   <g id="matplotlib.axis_2">
    <g id="ytick_1">
     <g id="line2d_19">
      <path clip-path="url(#p1cba9079d4)" d="M 90 384.48 
L 648 384.48 
" style="fill:none;stroke:#b0b0b0;stroke-linecap:square;stroke-width:0.8;"/>
     </g>
     <g id="line2d_20">
      <defs>
       <path d="M 0 0 
L -3.5 0 
" id="m2817986377" style="stroke:#000000;stroke-width:0.8;"/>
      </defs>
      <g>
       <use style="stroke:#000000;stroke-width:0.8;" x="90" xlink:href="#m2817986377" y="384.48"/>
      </g>
     </g>
     <g id="text_11">
      <!-- 18 -->
      <defs>
       <path d="M 31.78125 34.625 
Q 24.75 34.625 20.71875 30.859375 
Q 16.703125 27.09375 16.703125 20.515625 
Q 16.703125 13.921875 20.71875 10.15625 
Q 24.75 6.390625 31.78125 6.390625 
Q 38.8125 6.390625 42.859375 10.171875 
Q 46.921875 13.96875 46.921875 20.515625 
Q 46.921875 27.09375 42.890625 30.859375 
Q 38.875 34.625 31.78125 34.625 
z
M 21.921875 38.8125 
Q 15.578125 40.375 12.03125 44.71875 
Q 8.5 49.078125 8.5 55.328125 
Q 8.5 64.0625 14.71875 69.140625 
Q 20.953125 74.21875 31.78125 74.21875 
Q 42.671875 74.21875 48.875 69.140625 
Q 55.078125 64.0625 55.078125 55.328125 
Q 55.078125 49.078125 51.53125 44.71875 
Q 48 40.375 41.703125 38.8125 
Q 48.828125 37.15625 52.796875 32.3125 
Q 56.78125 27.484375 56.78125 20.515625 
Q 56.78125 9.90625 50.3125 4.234375 
Q 43.84375 -1.421875 31.78125 -1.421875 
Q 19.734375 -1.421875 13.25 4.234375 
Q 6.78125 9.90625 6.78125 20.515625 
Q 6.78125 27.484375 10.78125 32.3125 
Q 14.796875 37.15625 21.921875 38.8125 
z
M 18.3125 54.390625 
Q 18.3125 48.734375 21.84375 45.5625 
Q 25.390625 42.390625 31.78125 42.390625 
Q 38.140625 42.390625 41.71875 45.5625 
Q 45.3125 48.734375 45.3125 54.390625 
Q 45.3125 60.0625 41.71875 63.234375 
Q 38.140625 66.40625 31.78125 66.40625 
Q 25.390625 66.40625 21.84375 63.234375 
Q 18.3125 60.0625 18.3125 54.390625 
z
" id="DejaVuSans-56"/>
      </defs>
      <g transform="translate(67.73 389.039062)scale(0.12 -0.12)">
       <use xlink:href="#DejaVuSans-49"/>
       <use x="63.623047" xlink:href="#DejaVuSans-56"/>
      </g>
     </g>
    </g>
    <g id="ytick_2">
     <g id="line2d_21">
      <path clip-path="url(#p1cba9079d4)" d="M 90 329.04 
L 648 329.04 
" style="fill:none;stroke:#b0b0b0;stroke-linecap:square;stroke-width:0.8;"/>
     </g>
     <g id="line2d_22">
      <g>
       <use style="stroke:#000000;stroke-width:0.8;" x="90" xlink:href="#m2817986377" y="329.04"/>
      </g>
     </g>
     <g id="text_12">
      <!-- 20 -->
      <g transform="translate(67.73 333.599062)scale(0.12 -0.12)">
       <use xlink:href="#DejaVuSans-50"/>
       <use x="63.623047" xlink:href="#DejaVuSans-48"/>
      </g>
     </g>
    </g>
    <g id="ytick_3">
     <g id="line2d_23">
      <path clip-path="url(#p1cba9079d4)" d="M 90 273.6 
L 648 273.6 
" style="fill:none;stroke:#b0b0b0;stroke-linecap:square;stroke-width:0.8;"/>
     </g>
     <g id="line2d_24">
      <g>
       <use style="stroke:#000000;stroke-width:0.8;" x="90" xlink:href="#m2817986377" y="273.6"/>
      </g>
     </g>
     <g id="text_13">
      <!-- 22 -->
      <g transform="translate(67.73 278.159063)scale(0.12 -0.12)">
       <use xlink:href="#DejaVuSans-50"/>
       <use x="63.623047" xlink:href="#DejaVuSans-50"/>
      </g>
     </g>
    </g>
    <g id="ytick_4">
     <g id="line2d_25">
      <path clip-path="url(#p1cba9079d4)" d="M 90 218.16 
L 648 218.16 
" style="fill:none;stroke:#b0b0b0;stroke-linecap:square;stroke-width:0.8;"/>
     </g>
     <g id="line2d_26">
      <g>
       <use style="stroke:#000000;stroke-width:0.8;" x="90" xlink:href="#m2817986377" y="218.16"/>
      </g>
     </g>
     <g id="text_14">
      <!-- 24 -->
      <g transform="translate(67.73 222.719062)scale(0.12 -0.12)">
       <use xlink:href="#DejaVuSans-50"/>
       <use x="63.623047" xlink:href="#DejaVuSans-52"/>
      </g>
     </g>
    </g>
    <g id="ytick_5">
     <g id="line2d_27">
      <path clip-path="url(#p1cba9079d4)" d="M 90 162.72 
L 648 162.72 
" style="fill:none;stroke:#b0b0b0;stroke-linecap:square;stroke-width:0.8;"/>
     </g>
     <g id="line2d_28">
      <g>
       <use style="stroke:#000000;stroke-width:0.8;" x="90" xlink:href="#m2817986377" y="162.72"/>
      </g>
     </g>
     <g id="text_15">
      <!-- 26 -->
      <defs>
       <path d="M 33.015625 40.375 
Q 26.375 40.375 22.484375 35.828125 
Q 18.609375 31.296875 18.609375 23.390625 
Q 18.609375 15.53125 22.484375 10.953125 
Q 26.375 6.390625 33.015625 6.390625 
Q 39.65625 6.390625 43.53125 10.953125 
Q 47.40625 15.53125 47.40625 23.390625 
Q 47.40625 31.296875 43.53125 35.828125 
Q 39.65625 40.375 33.015625 40.375 
z
M 52.59375 71.296875 
L 52.59375 62.3125 
Q 48.875 64.0625 45.09375 64.984375 
Q 41.3125 65.921875 37.59375 65.921875 
Q 27.828125 65.921875 22.671875 59.328125 
Q 17.53125 52.734375 16.796875 39.40625 
Q 19.671875 43.65625 24.015625 45.921875 
Q 28.375 48.1875 33.59375 48.1875 
Q 44.578125 48.1875 50.953125 41.515625 
Q 57.328125 34.859375 57.328125 23.390625 
Q 57.328125 12.15625 50.6875 5.359375 
Q 44.046875 -1.421875 33.015625 -1.421875 
Q 20.359375 -1.421875 13.671875 8.265625 
Q 6.984375 17.96875 6.984375 36.375 
Q 6.984375 53.65625 15.1875 63.9375 
Q 23.390625 74.21875 37.203125 74.21875 
Q 40.921875 74.21875 44.703125 73.484375 
Q 48.484375 72.75 52.59375 71.296875 
z
" id="DejaVuSans-54"/>
      </defs>
      <g transform="translate(67.73 167.279063)scale(0.12 -0.12)">
       <use xlink:href="#DejaVuSans-50"/>
       <use x="63.623047" xlink:href="#DejaVuSans-54"/>
      </g>
     </g>
    </g>
    <g id="ytick_6">
     <g id="line2d_29">
      <path clip-path="url(#p1cba9079d4)" d="M 90 107.28 
L 648 107.28 
" style="fill:none;stroke:#b0b0b0;stroke-linecap:square;stroke-width:0.8;"/>
     </g>
     <g id="line2d_30">
      <g>
       <use style="stroke:#000000;stroke-width:0.8;" x="90" xlink:href="#m2817986377" y="107.28"/>
      </g>
     </g>
     <g id="text_16">
      <!-- 28 -->
      <g transform="translate(67.73 111.839062)scale(0.12 -0.12)">
       <use xlink:href="#DejaVuSans-50"/>
       <use x="63.623047" xlink:href="#DejaVuSans-56"/>
      </g>
     </g>
    </g>
    <g id="ytick_7">
     <g id="line2d_31">
      <path clip-path="url(#p1cba9079d4)" d="M 90 51.84 
L 648 51.84 
" style="fill:none;stroke:#b0b0b0;stroke-linecap:square;stroke-width:0.8;"/>
     </g>
     <g id="line2d_32">
      <g>
       <use style="stroke:#000000;stroke-width:0.8;" x="90" xlink:href="#m2817986377" y="51.84"/>
      </g>
     </g>
     <g id="text_17">
      <!-- 30 -->
      <g transform="translate(67.73 56.399063)scale(0.12 -0.12)">
       <use xlink:href="#DejaVuSans-51"/>
       <use x="63.623047" xlink:href="#DejaVuSans-48"/>
      </g>
     </g>
    </g>
    <g id="text_18">
     <!-- PSNR -->
     <defs>
      <path d="M 19.671875 64.796875 
L 19.671875 37.40625 
L 32.078125 37.40625 
Q 38.96875 37.40625 42.71875 40.96875 
Q 46.484375 44.53125 46.484375 51.125 
Q 46.484375 57.671875 42.71875 61.234375 
Q 38.96875 64.796875 32.078125 64.796875 
z
M 9.8125 72.90625 
L 32.078125 72.90625 
Q 44.34375 72.90625 50.609375 67.359375 
Q 56.890625 61.8125 56.890625 51.125 
Q 56.890625 40.328125 50.609375 34.8125 
Q 44.34375 29.296875 32.078125 29.296875 
L 19.671875 29.296875 
L 19.671875 0 
L 9.8125 0 
z
" id="DejaVuSans-80"/>
      <path d="M 53.515625 70.515625 
L 53.515625 60.890625 
Q 47.90625 63.578125 42.921875 64.890625 
Q 37.9375 66.21875 33.296875 66.21875 
Q 25.25 66.21875 20.875 63.09375 
Q 16.5 59.96875 16.5 54.203125 
Q 16.5 49.359375 19.40625 46.890625 
Q 22.3125 44.4375 30.421875 42.921875 
L 36.375 41.703125 
Q 47.40625 39.59375 52.65625 34.296875 
Q 57.90625 29 57.90625 20.125 
Q 57.90625 9.515625 50.796875 4.046875 
Q 43.703125 -1.421875 29.984375 -1.421875 
Q 24.8125 -1.421875 18.96875 -0.25 
Q 13.140625 0.921875 6.890625 3.21875 
L 6.890625 13.375 
Q 12.890625 10.015625 18.65625 8.296875 
Q 24.421875 6.59375 29.984375 6.59375 
Q 38.421875 6.59375 43.015625 9.90625 
Q 47.609375 13.234375 47.609375 19.390625 
Q 47.609375 24.75 44.3125 27.78125 
Q 41.015625 30.8125 33.5 32.328125 
L 27.484375 33.5 
Q 16.453125 35.6875 11.515625 40.375 
Q 6.59375 45.0625 6.59375 53.421875 
Q 6.59375 63.09375 13.40625 68.65625 
Q 20.21875 74.21875 32.171875 74.21875 
Q 37.3125 74.21875 42.625 73.28125 
Q 47.953125 72.359375 53.515625 70.515625 
z
" id="DejaVuSans-83"/>
      <path d="M 44.390625 34.1875 
Q 47.5625 33.109375 50.5625 29.59375 
Q 53.5625 26.078125 56.59375 19.921875 
L 66.609375 0 
L 56 0 
L 46.6875 18.703125 
Q 43.0625 26.03125 39.671875 28.421875 
Q 36.28125 30.8125 30.421875 30.8125 
L 19.671875 30.8125 
L 19.671875 0 
L 9.8125 0 
L 9.8125 72.90625 
L 32.078125 72.90625 
Q 44.578125 72.90625 50.734375 67.671875 
Q 56.890625 62.453125 56.890625 51.90625 
Q 56.890625 45.015625 53.6875 40.46875 
Q 50.484375 35.9375 44.390625 34.1875 
z
M 19.671875 64.796875 
L 19.671875 38.921875 
L 32.078125 38.921875 
Q 39.203125 38.921875 42.84375 42.21875 
Q 46.484375 45.515625 46.484375 51.90625 
Q 46.484375 58.296875 42.84375 61.546875 
Q 39.203125 64.796875 32.078125 64.796875 
z
" id="DejaVuSans-82"/>
     </defs>
     <g transform="translate(60.818438 236.925469)rotate(-90)scale(0.14 -0.14)">
      <use xlink:href="#DejaVuSans-80"/>
      <use x="60.302734" xlink:href="#DejaVuSans-83"/>
      <use x="123.779297" xlink:href="#DejaVuSans-78"/>
      <use x="198.583984" xlink:href="#DejaVuSans-82"/>
     </g>
    </g>
   </g>
   <g id="line2d_33">
    <path clip-path="url(#p1cba9079d4)" d="M 115.363636 420.747081 
L 117.912746 234.403971 
L 120.461855 164.605252 
L 123.010964 133.735878 
L 125.560073 134.723318 
L 128.109182 118.164834 
L 130.658291 93.636468 
L 133.207401 84.836686 
L 135.75651 90.967544 
L 138.305619 93.363208 
L 140.854728 85.661713 
L 143.403837 84.761463 
L 145.952947 89.206681 
L 148.502056 87.075404 
L 151.051165 86.136509 
L 153.600274 96.065813 
L 156.149383 90.657295 
L 158.698492 95.150528 
L 161.247602 102.713046 
L 163.796711 98.801401 
L 166.34582 96.925311 
L 168.894929 97.717316 
L 171.444038 97.667156 
L 173.993148 99.73271 
L 176.542257 107.444343 
L 179.091366 101.124932 
L 181.640475 100.922103 
L 184.189584 99.676505 
L 186.738693 103.800216 
L 189.287803 104.752542 
L 191.836912 108.574902 
L 194.386021 108.144323 
L 196.93513 104.965599 
L 199.484239 105.659807 
L 202.033349 111.473926 
L 204.582458 108.149767 
L 207.131567 105.133461 
L 209.680676 110.438245 
L 212.229785 114.031406 
L 214.778894 109.712236 
L 217.328004 113.818821 
L 219.877113 111.210721 
L 222.426222 110.132163 
L 224.975331 111.00345 
L 227.52444 109.740871 
L 230.07355 109.261171 
L 232.622659 114.713346 
L 235.171768 112.141036 
L 237.720877 115.924893 
L 240.269986 112.732591 
L 242.819095 115.032029 
L 245.368205 111.585079 
L 247.917314 112.687596 
L 250.466423 110.980867 
L 253.015532 116.418122 
L 255.564641 121.074371 
L 258.113751 113.460651 
L 260.66286 117.542185 
L 263.211969 116.556507 
L 265.761078 121.927641 
L 268.310187 114.15398 
L 270.859296 117.515957 
L 275.957515 113.26274 
L 278.506624 118.23715 
L 281.055733 115.473116 
L 283.604842 113.764719 
L 286.153952 118.052095 
L 288.703061 117.21584 
L 291.25217 115.189321 
L 293.801279 121.491617 
L 296.350388 119.986073 
L 298.899497 116.33367 
L 301.448607 118.703635 
L 303.997716 115.919726 
L 306.546825 115.61241 
L 309.095934 118.477354 
L 311.645043 121.101297 
L 314.194153 117.820784 
L 316.743262 117.256506 
L 319.292371 118.456267 
L 321.84148 117.189116 
L 324.390589 119.506798 
L 326.939698 119.867655 
L 329.488808 119.314294 
L 332.037917 121.01871 
L 334.587026 119.971661 
L 337.136135 120.640174 
L 339.685244 122.751071 
L 342.234354 120.399813 
L 344.783463 118.436028 
L 347.332572 119.897332 
L 349.881681 121.803808 
L 352.43079 119.358831 
L 354.979899 119.918813 
L 357.529009 118.336802 
L 360.078118 121.285222 
L 362.627227 118.622259 
L 365.176336 121.597915 
L 367.725445 119.017866 
L 370.274555 121.331817 
L 372.823664 122.001912 
L 375.372773 122.057103 
L 377.921882 124.615862 
L 380.470991 124.857489 
L 383.020101 121.130769 
L 385.56921 120.998302 
L 388.118319 122.855258 
L 390.667428 122.71584 
L 393.216537 122.060772 
L 395.765646 122.360997 
L 398.314756 123.278373 
L 400.863865 119.874278 
L 403.412974 121.513578 
L 405.962083 121.536303 
L 408.511192 121.028503 
L 411.060302 122.65301 
L 413.609411 124.076513 
L 416.15852 124.034474 
L 418.707629 120.676793 
L 421.256738 121.209841 
L 423.805847 123.351343 
L 426.354957 123.121728 
L 428.904066 124.265077 
L 431.453175 122.23269 
L 434.002284 123.204833 
L 436.551393 123.435832 
L 439.100503 122.908853 
L 441.649612 122.005989 
L 444.198721 124.232929 
L 446.74783 122.475946 
L 449.296939 126.911443 
L 451.846048 124.284594 
L 454.395158 127.550759 
L 456.944267 124.002265 
L 459.493376 123.101927 
L 462.042485 124.038977 
L 464.591594 121.404209 
L 467.140704 124.480214 
L 469.689813 124.585462 
L 472.238922 128.971211 
L 474.788031 125.34231 
L 477.33714 124.063924 
L 479.886249 125.998089 
L 482.435359 126.861888 
L 484.984468 126.566283 
L 487.533577 125.459378 
L 490.082686 126.672399 
L 492.631795 124.954111 
L 495.180905 124.437843 
L 497.730014 123.05534 
L 500.279123 125.105696 
L 502.828232 128.19624 
L 505.377341 124.724371 
L 507.92645 123.66567 
L 510.47556 124.805568 
L 513.024669 126.704034 
L 515.573778 125.121837 
L 518.122887 125.734304 
L 520.671996 125.498693 
L 523.221106 123.954495 
L 525.770215 125.069319 
L 528.319324 126.407631 
L 530.868433 128.89379 
L 533.417542 125.084968 
L 535.966651 124.360092 
L 538.515761 122.555892 
L 541.06487 126.047363 
L 543.613979 124.680501 
L 546.163088 124.761994 
L 548.712197 123.845778 
L 551.261307 125.414698 
L 553.810416 126.312964 
L 556.359525 125.996885 
L 558.908634 125.926339 
L 561.457743 126.346714 
L 564.006852 125.660952 
L 566.555962 124.410331 
L 569.105071 126.135867 
L 571.65418 128.849176 
L 574.203289 124.819102 
L 576.752398 127.876386 
L 579.301508 125.390588 
L 581.850617 125.668589 
L 584.399726 124.410312 
L 586.948835 123.950458 
L 589.497944 126.21102 
L 592.047053 125.401453 
L 594.596163 125.882718 
L 597.145272 124.132424 
L 599.694381 124.349152 
L 602.24349 126.110246 
L 604.792599 129.051541 
L 607.341709 125.045497 
L 609.890818 125.458611 
L 612.439927 126.102498 
L 614.989036 127.88548 
L 617.538145 125.863661 
L 620.087254 124.872453 
L 622.636364 127.866581 
L 622.636364 127.866581 
" style="fill:none;stroke:#1f77b4;stroke-linecap:square;stroke-width:1.5;"/>
   </g>
   <g id="line2d_34">
    <path clip-path="url(#p1cba9079d4)" d="M 115.363636 179.59497 
L 117.912746 138.372145 
L 120.461855 136.228433 
L 123.010964 132.843828 
L 125.560073 129.209884 
L 128.109182 135.723976 
L 130.658291 130.828718 
L 133.207401 135.301948 
L 135.75651 151.587326 
L 138.305619 125.265288 
L 140.854728 125.706785 
L 143.403837 124.904889 
L 145.952947 135.136862 
L 148.502056 138.946968 
L 151.051165 128.729632 
L 153.600274 128.304063 
L 156.149383 125.349046 
L 158.698492 137.053917 
L 161.247602 128.473406 
L 163.796711 135.739357 
L 166.34582 136.30051 
L 168.894929 133.117685 
L 171.444038 135.247158 
L 173.993148 127.632103 
L 176.542257 130.256595 
L 179.091366 133.795928 
L 181.640475 132.786567 
L 184.189584 132.903515 
L 186.738693 133.512498 
L 189.287803 137.943711 
L 191.836912 136.225415 
L 194.386021 130.539709 
L 196.93513 131.178823 
L 199.484239 142.253794 
L 202.033349 132.461681 
L 204.582458 136.0277 
L 207.131567 136.860899 
L 209.680676 144.748058 
L 212.229785 133.851382 
L 214.778894 138.682898 
L 217.328004 132.609457 
L 219.877113 129.828443 
L 222.426222 133.933716 
L 224.975331 136.821903 
L 227.52444 137.394347 
L 230.07355 137.317698 
L 232.622659 142.738886 
L 235.171768 136.765598 
L 237.720877 140.452936 
L 240.269986 138.446653 
L 242.819095 132.475881 
L 245.368205 134.471225 
L 247.917314 135.346657 
L 250.466423 135.068893 
L 253.015532 136.641959 
L 255.564641 137.638047 
L 258.113751 134.947334 
L 260.66286 139.785539 
L 263.211969 134.78963 
L 268.310187 135.193822 
L 270.859296 140.889222 
L 273.408406 135.324727 
L 275.957515 134.782342 
L 278.506624 140.251936 
L 281.055733 135.419682 
L 283.604842 133.559743 
L 286.153952 137.763124 
L 288.703061 135.001559 
L 291.25217 138.716166 
L 293.801279 140.284473 
L 296.350388 136.350148 
L 298.899497 135.027214 
L 301.448607 135.522486 
L 303.997716 142.473089 
L 306.546825 136.35541 
L 309.095934 141.167493 
L 311.645043 141.463317 
L 314.194153 143.620673 
L 316.743262 142.184175 
L 319.292371 136.907419 
L 321.84148 137.358753 
L 324.390589 139.512507 
L 326.939698 141.224756 
L 329.488808 142.147428 
L 332.037917 135.397972 
L 334.587026 140.608326 
L 337.136135 138.019593 
L 339.685244 134.542273 
L 342.234354 141.83533 
L 344.783463 136.599542 
L 347.332572 135.320566 
L 349.881681 140.652787 
L 352.43079 139.102302 
L 354.979899 141.325199 
L 357.529009 139.526911 
L 360.078118 135.105227 
L 362.627227 141.203859 
L 365.176336 135.901158 
L 367.725445 139.972764 
L 370.274555 137.396811 
L 372.823664 138.344868 
L 375.372773 136.676176 
L 377.921882 140.299731 
L 380.470991 141.757172 
L 383.020101 144.649044 
L 385.56921 139.448709 
L 388.118319 138.595862 
L 390.667428 136.957432 
L 393.216537 138.788282 
L 395.765646 142.054077 
L 398.314756 143.29185 
L 400.863865 145.244123 
L 403.412974 144.349344 
L 405.962083 136.988164 
L 408.511192 137.42937 
L 411.060302 144.21675 
L 413.609411 146.437646 
L 416.15852 139.707355 
L 418.707629 137.957358 
L 421.256738 140.778696 
L 423.805847 143.11735 
L 426.354957 141.730156 
L 428.904066 147.434194 
L 431.453175 150.223756 
L 434.002284 141.121179 
L 436.551393 141.354966 
L 439.100503 145.318784 
L 441.649612 140.248187 
L 444.198721 140.230321 
L 446.74783 145.271059 
L 449.296939 141.359553 
L 451.846048 142.451851 
L 454.395158 143.376858 
L 456.944267 137.706006 
L 459.493376 141.901721 
L 462.042485 139.582426 
L 464.591594 141.961627 
L 467.140704 138.983235 
L 469.689813 141.247341 
L 472.238922 144.135168 
L 474.788031 144.683927 
L 477.33714 144.343828 
L 479.886249 145.191203 
L 482.435359 145.709507 
L 484.984468 148.618292 
L 487.533577 140.667134 
L 490.082686 144.226188 
L 492.631795 143.505973 
L 495.180905 141.180579 
L 497.730014 146.092919 
L 500.279123 142.249012 
L 502.828232 145.412102 
L 505.377341 143.172217 
L 507.92645 143.206464 
L 510.47556 145.315865 
L 513.024669 146.482559 
L 515.573778 142.22633 
L 518.122887 141.724952 
L 520.671996 141.030743 
L 523.221106 144.072046 
L 525.770215 139.837469 
L 528.319324 149.169912 
L 530.868433 148.886638 
L 533.417542 143.039405 
L 535.966651 141.726925 
L 538.515761 145.603118 
L 541.06487 141.800931 
L 543.613979 141.970373 
L 546.163088 146.921225 
L 548.712197 142.431088 
L 551.261307 150.627523 
L 553.810416 140.485291 
L 556.359525 142.462454 
L 558.908634 143.610796 
L 561.457743 144.967319 
L 564.006852 148.910108 
L 566.555962 145.226785 
L 569.105071 145.934102 
L 571.65418 141.83636 
L 574.203289 142.574953 
L 576.752398 150.743379 
L 579.301508 146.391816 
L 581.850617 143.960236 
L 584.399726 148.449918 
L 586.948835 153.55663 
L 589.497944 144.777145 
L 592.047053 147.632534 
L 594.596163 144.478836 
L 597.145272 143.287544 
L 599.694381 143.624222 
L 602.24349 145.885803 
L 604.792599 148.790723 
L 607.341709 144.480719 
L 609.890818 144.957726 
L 612.439927 148.347508 
L 614.989036 142.830257 
L 617.538145 143.427552 
L 620.087254 142.779002 
L 622.636364 142.779002 
L 622.636364 142.779002 
" style="fill:none;stroke:#ff7f0e;stroke-linecap:square;stroke-width:1.5;"/>
   </g>
   <g id="line2d_35">
    <path clip-path="url(#p1cba9079d4)" d="M 115.363636 384.463685 
L 117.912746 337.559682 
L 120.461855 299.896576 
L 123.010964 288.809852 
L 125.560073 279.024033 
L 128.109182 255.946942 
L 130.658291 251.885071 
L 133.207401 241.183705 
L 135.75651 236.195388 
L 138.305619 240.04897 
L 140.854728 222.344047 
L 143.403837 230.292469 
L 145.952947 221.365238 
L 148.502056 247.401754 
L 151.051165 202.598172 
L 153.600274 204.390715 
L 156.149383 211.932237 
L 158.698492 188.073804 
L 161.247602 187.084814 
L 163.796711 177.466274 
L 166.34582 173.274197 
L 168.894929 167.112679 
L 171.444038 163.284944 
L 173.993148 161.750947 
L 176.542257 165.74575 
L 179.091366 157.929129 
L 181.640475 141.946946 
L 184.189584 146.062782 
L 186.738693 134.739276 
L 189.287803 133.728109 
L 191.836912 131.319489 
L 194.386021 129.451127 
L 196.93513 124.669864 
L 199.484239 125.00735 
L 202.033349 119.629396 
L 204.582458 122.962255 
L 207.131567 114.702069 
L 209.680676 115.203404 
L 212.229785 108.185131 
L 214.778894 103.999325 
L 217.328004 105.08317 
L 219.877113 105.584622 
L 222.426222 100.468198 
L 224.975331 99.924646 
L 227.52444 101.345755 
L 230.07355 99.364242 
L 232.622659 102.05233 
L 235.171768 90.452268 
L 237.720877 91.577217 
L 240.269986 90.526825 
L 242.819095 92.408812 
L 245.368205 88.518082 
L 247.917314 89.101768 
L 250.466423 86.756953 
L 253.015532 88.312059 
L 255.564641 85.140012 
L 258.113751 85.606789 
L 260.66286 81.160952 
L 263.211969 85.021311 
L 265.761078 83.837747 
L 268.310187 80.454012 
L 270.859296 84.878807 
L 273.408406 80.58819 
L 275.957515 87.103632 
L 278.506624 83.694463 
L 281.055733 82.282474 
L 283.604842 84.108565 
L 286.153952 87.241846 
L 288.703061 85.900075 
L 291.25217 88.340512 
L 293.801279 84.851088 
L 296.350388 90.590008 
L 298.899497 87.308285 
L 301.448607 87.114735 
L 303.997716 88.478353 
L 306.546825 90.770973 
L 309.095934 99.287076 
L 311.645043 95.64976 
L 314.194153 91.774708 
L 316.743262 91.351509 
L 319.292371 97.526236 
L 321.84148 96.789844 
L 324.390589 97.449945 
L 326.939698 98.676295 
L 329.488808 100.420523 
L 332.037917 100.369355 
L 334.587026 100.867352 
L 337.136135 102.009781 
L 339.685244 103.768702 
L 342.234354 105.815429 
L 344.783463 105.439411 
L 347.332572 104.169294 
L 349.881681 109.703371 
L 352.43079 109.453976 
L 354.979899 115.770261 
L 357.529009 110.707527 
L 360.078118 113.040646 
L 362.627227 113.320541 
L 365.176336 115.786157 
L 367.725445 112.833409 
L 370.274555 117.018392 
L 372.823664 115.63343 
L 375.372773 116.653652 
L 377.921882 122.24906 
L 380.470991 121.420192 
L 383.020101 120.999446 
L 385.56921 124.53525 
L 388.118319 124.272014 
L 390.667428 123.691636 
L 393.216537 126.591249 
L 395.765646 127.103377 
L 398.314756 128.629618 
L 400.863865 128.107705 
L 403.412974 127.962759 
L 405.962083 131.647712 
L 408.511192 132.251123 
L 411.060302 134.082324 
L 413.609411 132.433298 
L 416.15852 136.208937 
L 418.707629 136.7875 
L 421.256738 138.688407 
L 423.805847 142.313977 
L 426.354957 136.631784 
L 428.904066 139.694568 
L 431.453175 139.691886 
L 434.002284 138.078896 
L 436.551393 143.518525 
L 439.100503 139.510087 
L 441.649612 146.303998 
L 444.198721 145.736501 
L 446.74783 147.31778 
L 449.296939 146.49171 
L 451.846048 145.473317 
L 454.395158 147.840316 
L 456.944267 149.277888 
L 459.493376 149.787605 
L 462.042485 151.26675 
L 464.591594 147.882113 
L 467.140704 147.864573 
L 469.689813 150.165363 
L 472.238922 152.786886 
L 474.788031 152.557323 
L 477.33714 155.132133 
L 479.886249 155.268051 
L 482.435359 154.243638 
L 484.984468 154.712899 
L 487.533577 157.084555 
L 490.082686 154.636515 
L 492.631795 157.176423 
L 495.180905 160.072491 
L 497.730014 159.208651 
L 500.279123 157.474207 
L 502.828232 159.058687 
L 505.377341 162.507803 
L 507.92645 165.365543 
L 513.024669 161.555134 
L 515.573778 161.814244 
L 518.122887 160.650173 
L 520.671996 163.611273 
L 523.221106 163.228833 
L 525.770215 163.831195 
L 528.319324 164.903358 
L 530.868433 163.456335 
L 533.417542 168.665028 
L 535.966651 168.477447 
L 538.515761 164.026139 
L 541.06487 165.706994 
L 543.613979 170.908323 
L 546.163088 171.159716 
L 548.712197 167.620603 
L 551.261307 169.582744 
L 553.810416 173.933636 
L 556.359525 171.276402 
L 558.908634 171.05502 
L 561.457743 169.06594 
L 564.006852 173.644002 
L 566.555962 173.64293 
L 569.105071 174.582107 
L 571.65418 172.726288 
L 574.203289 176.050035 
L 576.752398 176.055591 
L 579.301508 177.814065 
L 581.850617 175.44007 
L 584.399726 175.182506 
L 586.948835 179.220481 
L 589.497944 175.475278 
L 592.047053 177.858184 
L 597.145272 179.320593 
L 599.694381 180.437968 
L 602.24349 181.715798 
L 604.792599 181.733789 
L 607.341709 178.521879 
L 609.890818 186.303283 
L 612.439927 180.775444 
L 614.989036 184.283287 
L 617.538145 184.145791 
L 620.087254 183.709692 
L 622.636364 183.709692 
L 622.636364 183.709692 
" style="fill:none;stroke:#2ca02c;stroke-linecap:square;stroke-width:1.5;"/>
   </g>
   <g id="line2d_36">
    <path clip-path="url(#p1cba9079d4)" d="M 115.363636 191.82693 
L 117.912746 115.50223 
L 120.461855 104.090861 
L 123.010964 120.578151 
L 125.560073 125.971402 
L 128.109182 155.812634 
L 130.658291 157.638451 
L 133.207401 178.661715 
L 135.75651 184.172691 
L 138.305619 202.670566 
L 140.854728 213.333373 
L 145.952947 221.274363 
L 148.502056 234.811527 
L 151.051165 234.945646 
L 153.600274 237.128503 
L 156.149383 245.038561 
L 158.698492 243.193277 
L 161.247602 257.108299 
L 163.796711 245.592592 
L 166.34582 251.328513 
L 168.894929 253.961412 
L 171.444038 259.622926 
L 173.993148 266.208428 
L 176.542257 259.403622 
L 179.091366 258.703729 
L 181.640475 259.908635 
L 184.189584 262.107218 
L 186.738693 262.799043 
L 189.287803 260.609461 
L 191.836912 267.986143 
L 194.386021 266.987957 
L 196.93513 264.154301 
L 199.484239 262.89302 
L 202.033349 272.572812 
L 207.131567 269.279842 
L 209.680676 275.296888 
L 212.229785 275.052429 
L 214.778894 277.513887 
L 217.328004 277.5531 
L 219.877113 270.827395 
L 222.426222 271.505331 
L 224.975331 278.652521 
L 227.52444 276.633678 
L 230.07355 280.174196 
L 232.622659 276.076485 
L 235.171768 280.551157 
L 237.720877 277.924037 
L 240.269986 276.501032 
L 242.819095 277.440165 
L 245.368205 276.79022 
L 247.917314 281.772578 
L 250.466423 278.77334 
L 253.015532 276.344074 
L 255.564641 274.898555 
L 258.113751 277.774746 
L 260.66286 286.08797 
L 263.211969 278.838638 
L 265.761078 284.68147 
L 268.310187 283.952984 
L 270.859296 278.676761 
L 273.408406 285.320287 
L 275.957515 276.955501 
L 278.506624 277.187056 
L 281.055733 283.275077 
L 283.604842 280.56503 
L 286.153952 280.836067 
L 288.703061 283.640358 
L 291.25217 282.009131 
L 293.801279 285.253969 
L 296.350388 284.696854 
L 298.899497 284.333067 
L 301.448607 285.631844 
L 303.997716 282.85136 
L 306.546825 283.715505 
L 309.095934 280.817692 
L 311.645043 286.129085 
L 314.194153 284.976389 
L 316.743262 285.504974 
L 319.292371 281.258818 
L 321.84148 285.091439 
L 324.390589 284.721812 
L 326.939698 282.411787 
L 329.488808 284.897764 
L 332.037917 286.658597 
L 334.587026 286.186993 
L 337.136135 286.938802 
L 339.685244 285.061191 
L 342.234354 286.39816 
L 344.783463 287.454551 
L 347.332572 286.679562 
L 349.881681 286.311824 
L 352.43079 289.744169 
L 354.979899 286.83918 
L 357.529009 288.568113 
L 360.078118 287.112374 
L 362.627227 288.378008 
L 365.176336 290.255345 
L 367.725445 289.234635 
L 370.274555 288.988181 
L 372.823664 282.978411 
L 375.372773 285.338743 
L 377.921882 293.456488 
L 380.470991 288.079907 
L 383.020101 291.225616 
L 385.56921 289.244778 
L 388.118319 291.178979 
L 390.667428 289.903874 
L 393.216537 290.6044 
L 395.765646 283.52412 
L 398.314756 286.528112 
L 400.863865 286.422527 
L 403.412974 289.61172 
L 405.962083 288.503306 
L 408.511192 289.43362 
L 411.060302 291.541615 
L 413.609411 291.824911 
L 416.15852 289.654422 
L 418.707629 290.70184 
L 421.256738 293.298339 
L 423.805847 290.240592 
L 426.354957 289.133595 
L 428.904066 289.199464 
L 431.453175 289.407419 
L 434.002284 291.109685 
L 436.551393 287.332552 
L 439.100503 291.066989 
L 441.649612 286.080219 
L 444.198721 289.947442 
L 446.74783 289.514682 
L 449.296939 284.877517 
L 451.846048 294.457071 
L 454.395158 291.651544 
L 456.944267 290.317981 
L 459.493376 286.714019 
L 462.042485 289.355561 
L 464.591594 292.596284 
L 467.140704 293.067293 
L 469.689813 288.180541 
L 472.238922 290.221547 
L 474.788031 291.479488 
L 477.33714 293.285492 
L 479.886249 290.331802 
L 482.435359 290.732872 
L 484.984468 295.796932 
L 487.533577 288.723914 
L 490.082686 287.052545 
L 492.631795 291.978004 
L 495.180905 291.698387 
L 497.730014 295.990407 
L 500.279123 288.007281 
L 502.828232 292.540131 
L 505.377341 289.556896 
L 507.92645 287.687802 
L 510.47556 292.719384 
L 513.024669 287.857173 
L 515.573778 292.990707 
L 518.122887 292.632153 
L 520.671996 289.999046 
L 523.221106 292.28094 
L 525.770215 290.934732 
L 528.319324 291.462012 
L 530.868433 289.297081 
L 533.417542 291.926164 
L 535.966651 291.823859 
L 538.515761 293.43873 
L 541.06487 291.568754 
L 543.613979 294.28931 
L 546.163088 290.861723 
L 548.712197 290.194487 
L 551.261307 286.109563 
L 553.810416 292.119519 
L 556.359525 292.702596 
L 558.908634 295.227757 
L 561.457743 290.029524 
L 564.006852 291.169789 
L 566.555962 291.84123 
L 569.105071 294.489865 
L 571.65418 294.10676 
L 574.203289 295.925554 
L 576.752398 293.394008 
L 579.301508 290.016798 
L 581.850617 294.873807 
L 584.399726 289.124545 
L 586.948835 293.307255 
L 589.497944 293.165042 
L 592.047053 291.46641 
L 594.596163 292.434397 
L 597.145272 294.636129 
L 599.694381 295.039034 
L 602.24349 290.118122 
L 604.792599 289.997906 
L 607.341709 291.544441 
L 609.890818 292.767621 
L 612.439927 294.854989 
L 614.989036 293.642848 
L 617.538145 296.050676 
L 620.087254 295.383977 
L 622.636364 295.383977 
L 622.636364 295.383977 
" style="fill:none;stroke:#d62728;stroke-linecap:square;stroke-width:1.5;"/>
   </g>
   <g id="line2d_37">
    <path clip-path="url(#p1cba9079d4)" d="M 116.350412 433 
L 117.912746 199.598415 
L 120.461855 115.198813 
L 123.010964 99.451521 
L 125.560073 84.774512 
L 128.109182 95.687398 
L 130.658291 95.845499 
L 133.207401 95.135129 
L 135.75651 103.93039 
L 138.305619 108.902745 
L 140.854728 106.439937 
L 143.403837 110.561435 
L 145.952947 113.2738 
L 148.502056 121.383101 
L 151.051165 119.425799 
L 153.600274 124.775593 
L 156.149383 125.229163 
L 158.698492 125.842481 
L 161.247602 128.005021 
L 163.796711 129.624666 
L 166.34582 132.24081 
L 168.894929 130.920834 
L 171.444038 131.777302 
L 173.993148 136.324009 
L 176.542257 138.357581 
L 179.091366 137.677145 
L 181.640475 141.744245 
L 184.189584 137.8207 
L 186.738693 137.984951 
L 189.287803 145.780193 
L 191.836912 142.876203 
L 196.93513 143.40066 
L 199.484239 142.629436 
L 202.033349 143.223947 
L 204.582458 143.029875 
L 207.131567 147.096117 
L 209.680676 141.516461 
L 212.229785 145.155841 
L 214.778894 147.334295 
L 217.328004 143.907177 
L 219.877113 145.356935 
L 224.975331 145.841445 
L 227.52444 147.497484 
L 230.07355 146.782432 
L 232.622659 148.938737 
L 235.171768 152.018249 
L 237.720877 145.914339 
L 240.269986 147.505229 
L 242.819095 148.116593 
L 245.368205 147.450888 
L 247.917314 147.995723 
L 250.466423 151.47146 
L 253.015532 146.813795 
L 255.564641 150.342197 
L 258.113751 149.924455 
L 260.66286 153.459615 
L 263.211969 154.191487 
L 265.761078 154.454731 
L 268.310187 147.656132 
L 270.859296 148.629055 
L 273.408406 148.24389 
L 275.957515 153.29858 
L 278.506624 149.704776 
L 281.055733 151.257103 
L 283.604842 155.002884 
L 286.153952 154.934021 
L 288.703061 151.201799 
L 291.25217 151.514448 
L 293.801279 150.876329 
L 296.350388 151.216558 
L 298.899497 151.180989 
L 301.448607 152.299954 
L 303.997716 150.416031 
L 306.546825 152.173348 
L 309.095934 154.137684 
L 311.645043 154.364766 
L 314.194153 153.301111 
L 316.743262 151.211801 
L 319.292371 153.913939 
L 321.84148 154.159363 
L 324.390589 152.666435 
L 326.939698 153.999863 
L 329.488808 153.16659 
L 332.037917 154.297209 
L 334.587026 157.112302 
L 337.136135 153.430133 
L 339.685244 153.730516 
L 342.234354 156.053766 
L 344.783463 153.482609 
L 347.332572 154.692183 
L 349.881681 152.824278 
L 352.43079 155.610077 
L 354.979899 152.002034 
L 357.529009 156.619787 
L 360.078118 154.12861 
L 362.627227 154.398183 
L 367.725445 154.416965 
L 370.274555 155.633035 
L 372.823664 154.998536 
L 375.372773 155.957021 
L 377.921882 153.812672 
L 380.470991 158.32248 
L 383.020101 155.122997 
L 385.56921 154.997137 
L 388.118319 155.462049 
L 390.667428 155.583004 
L 393.216537 156.356598 
L 395.765646 156.197178 
L 398.314756 156.181474 
L 400.863865 157.389934 
L 403.412974 155.03177 
L 405.962083 156.551629 
L 408.511192 156.58941 
L 411.060302 154.846664 
L 413.609411 155.207563 
L 416.15852 153.279525 
L 418.707629 159.225204 
L 421.256738 155.735653 
L 423.805847 155.953024 
L 426.354957 155.383345 
L 428.904066 157.839394 
L 431.453175 156.711025 
L 434.002284 153.390396 
L 436.551393 155.460058 
L 439.100503 159.808406 
L 441.649612 159.397313 
L 444.198721 156.60224 
L 446.74783 156.178607 
L 449.296939 155.975578 
L 454.395158 157.119069 
L 456.944267 158.051321 
L 459.493376 160.173721 
L 462.042485 156.468054 
L 464.591594 155.394985 
L 467.140704 156.519704 
L 469.689813 158.053401 
L 472.238922 155.877145 
L 474.788031 157.154154 
L 477.33714 155.735485 
L 479.886249 157.264444 
L 482.435359 155.441848 
L 484.984468 155.990359 
L 487.533577 157.471565 
L 490.082686 155.020045 
L 492.631795 159.82012 
L 495.180905 156.808055 
L 497.730014 155.700352 
L 500.279123 156.605932 
L 502.828232 159.379267 
L 505.377341 159.360648 
L 507.92645 156.666511 
L 510.47556 156.110159 
L 513.024669 160.01224 
L 515.573778 159.466323 
L 520.671996 155.691819 
L 523.221106 159.954919 
L 525.770215 156.758677 
L 528.319324 159.154498 
L 530.868433 162.341176 
L 533.417542 156.689539 
L 535.966651 158.470494 
L 538.515761 159.23262 
L 541.06487 157.942151 
L 543.613979 156.279702 
L 546.163088 157.240047 
L 551.261307 159.613422 
L 553.810416 161.596767 
L 556.359525 160.137274 
L 558.908634 155.619126 
L 561.457743 156.642532 
L 564.006852 156.956138 
L 566.555962 156.17871 
L 569.105071 162.097877 
L 571.65418 157.255781 
L 574.203289 159.842394 
L 576.752398 159.141896 
L 579.301508 159.073414 
L 581.850617 157.48567 
L 584.399726 157.627621 
L 586.948835 156.427439 
L 589.497944 161.925135 
L 592.047053 156.852196 
L 594.596163 157.328225 
L 597.145272 158.787936 
L 599.694381 157.763503 
L 602.24349 159.932677 
L 604.792599 158.557174 
L 607.341709 156.849674 
L 609.890818 160.033839 
L 612.439927 158.913782 
L 614.989036 158.060065 
L 617.538145 161.5823 
L 620.087254 157.676766 
L 622.636364 160.261517 
L 622.636364 160.261517 
" style="fill:none;stroke:#9467bd;stroke-linecap:square;stroke-width:1.5;"/>
   </g>
   <g id="patch_3">
    <path d="M 90 384.48 
L 90 51.84 
" style="fill:none;stroke:#000000;stroke-linecap:square;stroke-linejoin:miter;stroke-width:0.8;"/>
   </g>
   <g id="patch_4">
    <path d="M 648 384.48 
L 648 51.84 
" style="fill:none;stroke:#000000;stroke-linecap:square;stroke-linejoin:miter;stroke-width:0.8;"/>
   </g>
   <g id="patch_5">
    <path d="M 90 384.48 
L 648 384.48 
" style="fill:none;stroke:#000000;stroke-linecap:square;stroke-linejoin:miter;stroke-width:0.8;"/>
   </g>
   <g id="patch_6">
    <path d="M 90 51.84 
L 648 51.84 
" style="fill:none;stroke:#000000;stroke-linecap:square;stroke-linejoin:miter;stroke-width:0.8;"/>
   </g>
   <g id="text_19">
    <!-- PSNR vs. Number of Epochs -->
    <defs>
     <path d="M 2.984375 54.6875 
L 12.5 54.6875 
L 29.59375 8.796875 
L 46.6875 54.6875 
L 56.203125 54.6875 
L 35.6875 0 
L 23.484375 0 
z
" id="DejaVuSans-118"/>
     <path d="M 10.6875 12.40625 
L 21 12.40625 
L 21 0 
L 10.6875 0 
z
" id="DejaVuSans-46"/>
    </defs>
    <g transform="translate(257.425 45.84)scale(0.16 -0.16)">
     <use xlink:href="#DejaVuSans-80"/>
     <use x="60.302734" xlink:href="#DejaVuSans-83"/>
     <use x="123.779297" xlink:href="#DejaVuSans-78"/>
     <use x="198.583984" xlink:href="#DejaVuSans-82"/>
     <use x="268.066406" xlink:href="#DejaVuSans-32"/>
     <use x="299.853516" xlink:href="#DejaVuSans-118"/>
     <use x="359.033203" xlink:href="#DejaVuSans-115"/>
     <use x="411.132812" xlink:href="#DejaVuSans-46"/>
     <use x="442.919922" xlink:href="#DejaVuSans-32"/>
     <use x="474.707031" xlink:href="#DejaVuSans-78"/>
     <use x="549.511719" xlink:href="#DejaVuSans-117"/>
     <use x="612.890625" xlink:href="#DejaVuSans-109"/>
     <use x="710.302734" xlink:href="#DejaVuSans-98"/>
     <use x="773.779297" xlink:href="#DejaVuSans-101"/>
     <use x="835.302734" xlink:href="#DejaVuSans-114"/>
     <use x="876.416016" xlink:href="#DejaVuSans-32"/>
     <use x="908.203125" xlink:href="#DejaVuSans-111"/>
     <use x="969.384766" xlink:href="#DejaVuSans-102"/>
     <use x="1004.589844" xlink:href="#DejaVuSans-32"/>
     <use x="1036.376953" xlink:href="#DejaVuSans-69"/>
     <use x="1099.560547" xlink:href="#DejaVuSans-112"/>
     <use x="1163.037109" xlink:href="#DejaVuSans-111"/>
     <use x="1224.21875" xlink:href="#DejaVuSans-99"/>
     <use x="1279.199219" xlink:href="#DejaVuSans-104"/>
     <use x="1342.578125" xlink:href="#DejaVuSans-115"/>
    </g>
   </g>
   <g id="legend_1">
    <g id="patch_7">
     <path d="M 537.384375 379.48 
L 641 379.48 
Q 643 379.48 643 377.48 
L 643 305.089375 
Q 643 303.089375 641 303.089375 
L 537.384375 303.089375 
Q 535.384375 303.089375 535.384375 305.089375 
L 535.384375 377.48 
Q 535.384375 379.48 537.384375 379.48 
z
" style="fill:#ffffff;opacity:0.8;stroke:#cccccc;stroke-linejoin:miter;"/>
    </g>
    <g id="line2d_38">
     <path d="M 539.384375 311.187813 
L 559.384375 311.187813 
" style="fill:none;stroke:#1f77b4;stroke-linecap:square;stroke-width:1.5;"/>
    </g>
    <g id="line2d_39"/>
    <g id="text_20">
     <!-- Sparse-DIP -->
     <defs>
      <path d="M 34.28125 27.484375 
Q 23.390625 27.484375 19.1875 25 
Q 14.984375 22.515625 14.984375 16.5 
Q 14.984375 11.71875 18.140625 8.90625 
Q 21.296875 6.109375 26.703125 6.109375 
Q 34.1875 6.109375 38.703125 11.40625 
Q 43.21875 16.703125 43.21875 25.484375 
L 43.21875 27.484375 
z
M 52.203125 31.203125 
L 52.203125 0 
L 43.21875 0 
L 43.21875 8.296875 
Q 40.140625 3.328125 35.546875 0.953125 
Q 30.953125 -1.421875 24.3125 -1.421875 
Q 15.921875 -1.421875 10.953125 3.296875 
Q 6 8.015625 6 15.921875 
Q 6 25.140625 12.171875 29.828125 
Q 18.359375 34.515625 30.609375 34.515625 
L 43.21875 34.515625 
L 43.21875 35.40625 
Q 43.21875 41.609375 39.140625 45 
Q 35.0625 48.390625 27.6875 48.390625 
Q 23 48.390625 18.546875 47.265625 
Q 14.109375 46.140625 10.015625 43.890625 
L 10.015625 52.203125 
Q 14.9375 54.109375 19.578125 55.046875 
Q 24.21875 56 28.609375 56 
Q 40.484375 56 46.34375 49.84375 
Q 52.203125 43.703125 52.203125 31.203125 
z
" id="DejaVuSans-97"/>
      <path d="M 4.890625 31.390625 
L 31.203125 31.390625 
L 31.203125 23.390625 
L 4.890625 23.390625 
z
" id="DejaVuSans-45"/>
      <path d="M 19.671875 64.796875 
L 19.671875 8.109375 
L 31.59375 8.109375 
Q 46.6875 8.109375 53.6875 14.9375 
Q 60.6875 21.78125 60.6875 36.53125 
Q 60.6875 51.171875 53.6875 57.984375 
Q 46.6875 64.796875 31.59375 64.796875 
z
M 9.8125 72.90625 
L 30.078125 72.90625 
Q 51.265625 72.90625 61.171875 64.09375 
Q 71.09375 55.28125 71.09375 36.53125 
Q 71.09375 17.671875 61.125 8.828125 
Q 51.171875 0 30.078125 0 
L 9.8125 0 
z
" id="DejaVuSans-68"/>
      <path d="M 9.8125 72.90625 
L 19.671875 72.90625 
L 19.671875 0 
L 9.8125 0 
z
" id="DejaVuSans-73"/>
     </defs>
     <g transform="translate(567.384375 314.687813)scale(0.1 -0.1)">
      <use xlink:href="#DejaVuSans-83"/>
      <use x="63.476562" xlink:href="#DejaVuSans-112"/>
      <use x="126.953125" xlink:href="#DejaVuSans-97"/>
      <use x="188.232422" xlink:href="#DejaVuSans-114"/>
      <use x="229.345703" xlink:href="#DejaVuSans-115"/>
      <use x="281.445312" xlink:href="#DejaVuSans-101"/>
      <use x="342.96875" xlink:href="#DejaVuSans-45"/>
      <use x="379.052734" xlink:href="#DejaVuSans-68"/>
      <use x="456.054688" xlink:href="#DejaVuSans-73"/>
      <use x="485.546875" xlink:href="#DejaVuSans-80"/>
     </g>
    </g>
    <g id="line2d_40">
     <path d="M 539.384375 325.865937 
L 559.384375 325.865937 
" style="fill:none;stroke:#ff7f0e;stroke-linecap:square;stroke-width:1.5;"/>
    </g>
    <g id="line2d_41"/>
    <g id="text_21">
     <!-- Deep Decoder -->
     <defs>
      <path d="M 45.40625 46.390625 
L 45.40625 75.984375 
L 54.390625 75.984375 
L 54.390625 0 
L 45.40625 0 
L 45.40625 8.203125 
Q 42.578125 3.328125 38.25 0.953125 
Q 33.9375 -1.421875 27.875 -1.421875 
Q 17.96875 -1.421875 11.734375 6.484375 
Q 5.515625 14.40625 5.515625 27.296875 
Q 5.515625 40.1875 11.734375 48.09375 
Q 17.96875 56 27.875 56 
Q 33.9375 56 38.25 53.625 
Q 42.578125 51.265625 45.40625 46.390625 
z
M 14.796875 27.296875 
Q 14.796875 17.390625 18.875 11.75 
Q 22.953125 6.109375 30.078125 6.109375 
Q 37.203125 6.109375 41.296875 11.75 
Q 45.40625 17.390625 45.40625 27.296875 
Q 45.40625 37.203125 41.296875 42.84375 
Q 37.203125 48.484375 30.078125 48.484375 
Q 22.953125 48.484375 18.875 42.84375 
Q 14.796875 37.203125 14.796875 27.296875 
z
" id="DejaVuSans-100"/>
     </defs>
     <g transform="translate(567.384375 329.365937)scale(0.1 -0.1)">
      <use xlink:href="#DejaVuSans-68"/>
      <use x="77.001953" xlink:href="#DejaVuSans-101"/>
      <use x="138.525391" xlink:href="#DejaVuSans-101"/>
      <use x="200.048828" xlink:href="#DejaVuSans-112"/>
      <use x="263.525391" xlink:href="#DejaVuSans-32"/>
      <use x="295.3125" xlink:href="#DejaVuSans-68"/>
      <use x="372.314453" xlink:href="#DejaVuSans-101"/>
      <use x="433.837891" xlink:href="#DejaVuSans-99"/>
      <use x="488.818359" xlink:href="#DejaVuSans-111"/>
      <use x="550" xlink:href="#DejaVuSans-100"/>
      <use x="613.476562" xlink:href="#DejaVuSans-101"/>
      <use x="675" xlink:href="#DejaVuSans-114"/>
     </g>
    </g>
    <g id="line2d_42">
     <path d="M 539.384375 340.544062 
L 559.384375 340.544062 
" style="fill:none;stroke:#2ca02c;stroke-linecap:square;stroke-width:1.5;"/>
    </g>
    <g id="line2d_43"/>
    <g id="text_22">
     <!-- SGLD -->
     <defs>
      <path d="M 59.515625 10.40625 
L 59.515625 29.984375 
L 43.40625 29.984375 
L 43.40625 38.09375 
L 69.28125 38.09375 
L 69.28125 6.78125 
Q 63.578125 2.734375 56.6875 0.65625 
Q 49.8125 -1.421875 42 -1.421875 
Q 24.90625 -1.421875 15.25 8.5625 
Q 5.609375 18.5625 5.609375 36.375 
Q 5.609375 54.25 15.25 64.234375 
Q 24.90625 74.21875 42 74.21875 
Q 49.125 74.21875 55.546875 72.453125 
Q 61.96875 70.703125 67.390625 67.28125 
L 67.390625 56.78125 
Q 61.921875 61.421875 55.765625 63.765625 
Q 49.609375 66.109375 42.828125 66.109375 
Q 29.4375 66.109375 22.71875 58.640625 
Q 16.015625 51.171875 16.015625 36.375 
Q 16.015625 21.625 22.71875 14.15625 
Q 29.4375 6.6875 42.828125 6.6875 
Q 48.046875 6.6875 52.140625 7.59375 
Q 56.25 8.5 59.515625 10.40625 
z
" id="DejaVuSans-71"/>
      <path d="M 9.8125 72.90625 
L 19.671875 72.90625 
L 19.671875 8.296875 
L 55.171875 8.296875 
L 55.171875 0 
L 9.8125 0 
z
" id="DejaVuSans-76"/>
     </defs>
     <g transform="translate(567.384375 344.044062)scale(0.1 -0.1)">
      <use xlink:href="#DejaVuSans-83"/>
      <use x="63.476562" xlink:href="#DejaVuSans-71"/>
      <use x="140.966797" xlink:href="#DejaVuSans-76"/>
      <use x="196.679688" xlink:href="#DejaVuSans-68"/>
     </g>
    </g>
    <g id="line2d_44">
     <path d="M 539.384375 355.222188 
L 559.384375 355.222188 
" style="fill:none;stroke:#d62728;stroke-linecap:square;stroke-width:1.5;"/>
    </g>
    <g id="line2d_45"/>
    <g id="text_23">
     <!-- Dense DIP -->
     <defs>
      <path d="M 54.890625 33.015625 
L 54.890625 0 
L 45.90625 0 
L 45.90625 32.71875 
Q 45.90625 40.484375 42.875 44.328125 
Q 39.84375 48.1875 33.796875 48.1875 
Q 26.515625 48.1875 22.3125 43.546875 
Q 18.109375 38.921875 18.109375 30.90625 
L 18.109375 0 
L 9.078125 0 
L 9.078125 54.6875 
L 18.109375 54.6875 
L 18.109375 46.1875 
Q 21.34375 51.125 25.703125 53.5625 
Q 30.078125 56 35.796875 56 
Q 45.21875 56 50.046875 50.171875 
Q 54.890625 44.34375 54.890625 33.015625 
z
" id="DejaVuSans-110"/>
     </defs>
     <g transform="translate(567.384375 358.722188)scale(0.1 -0.1)">
      <use xlink:href="#DejaVuSans-68"/>
      <use x="77.001953" xlink:href="#DejaVuSans-101"/>
      <use x="138.525391" xlink:href="#DejaVuSans-110"/>
      <use x="201.904297" xlink:href="#DejaVuSans-115"/>
      <use x="254.003906" xlink:href="#DejaVuSans-101"/>
      <use x="315.527344" xlink:href="#DejaVuSans-32"/>
      <use x="347.314453" xlink:href="#DejaVuSans-68"/>
      <use x="424.316406" xlink:href="#DejaVuSans-73"/>
      <use x="453.808594" xlink:href="#DejaVuSans-80"/>
     </g>
    </g>
    <g id="line2d_46">
     <path d="M 539.384375 369.900313 
L 559.384375 369.900313 
" style="fill:none;stroke:#9467bd;stroke-linecap:square;stroke-width:1.5;"/>
    </g>
    <g id="line2d_47"/>
    <g id="text_24">
     <!-- IMP -->
     <defs>
      <path d="M 9.8125 72.90625 
L 24.515625 72.90625 
L 43.109375 23.296875 
L 61.8125 72.90625 
L 76.515625 72.90625 
L 76.515625 0 
L 66.890625 0 
L 66.890625 64.015625 
L 48.09375 14.015625 
L 38.1875 14.015625 
L 19.390625 64.015625 
L 19.390625 0 
L 9.8125 0 
z
" id="DejaVuSans-77"/>
     </defs>
     <g transform="translate(567.384375 373.400313)scale(0.1 -0.1)">
      <use xlink:href="#DejaVuSans-73"/>
      <use x="29.492188" xlink:href="#DejaVuSans-77"/>
      <use x="115.771484" xlink:href="#DejaVuSans-80"/>
     </g>
    </g>
   </g>
  </g>
 </g>
 <defs>
  <clipPath id="p1cba9079d4">
   <rect height="332.64" width="558" x="90" y="51.84"/>
  </clipPath>
 </defs>
</svg>
