<?xml version="1.0" encoding="utf-8" standalone="no"?>
<!DOCTYPE svg PUBLIC "-//W3C//DTD SVG 1.1//EN"
  "http://www.w3.org/Graphics/SVG/1.1/DTD/svg11.dtd">
<svg xmlns:xlink="http://www.w3.org/1999/xlink" width="1080pt" height="576pt" viewBox="0 0 1080 576" xmlns="http://www.w3.org/2000/svg" version="1.1">
 <metadata>
  <rdf:RDF xmlns:dc="http://purl.org/dc/elements/1.1/" xmlns:cc="http://creativecommons.org/ns#" xmlns:rdf="http://www.w3.org/1999/02/22-rdf-syntax-ns#">
   <cc:Work>
    <dc:type rdf:resource="http://purl.org/dc/dcmitype/StillImage"/>
    <dc:date>2024-01-20T16:16:36.689756</dc:date>
    <dc:format>image/svg+xml</dc:format>
    <dc:creator>
     <cc:Agent>
      <dc:title>Matplotlib v3.7.0, https://matplotlib.org/</dc:title>
     </cc:Agent>
    </dc:creator>
   </cc:Work>
  </rdf:RDF>
 </metadata>
 <defs>
  <style type="text/css">*{stroke-linejoin: round; stroke-linecap: butt}</style>
 </defs>
 <g id="figure_1">
  <g id="patch_1">
   <path d="M 0 576 
L 1080 576 
L 1080 0 
L 0 0 
z
" style="fill: #ffffff"/>
  </g>
  <g id="axes_1">
   <g id="patch_2">
    <path d="M 78.14 503.08 
L 862.348 503.08 
L 862.348 46.32 
L 78.14 46.32 
z
" style="fill: #ffffff"/>
   </g>
   <g id="matplotlib.axis_1">
    <g id="xtick_1">
     <g id="line2d_1">
      <path d="M 113.785818 503.08 
L 113.785818 46.32 
" clip-path="url(#p1f4c17b457)" style="fill: none; stroke: #b0b0b0; stroke-width: 0.8; stroke-linecap: square"/>
     </g>
     <g id="line2d_2">
      <defs>
       <path id="m53d881354f" d="M 0 0 
L 0 3.5 
" style="stroke: #000000; stroke-width: 0.8"/>
      </defs>
      <g>
       <use xlink:href="#m53d881354f" x="113.785818" y="503.08" style="stroke: #000000; stroke-width: 0.8"/>
      </g>
     </g>
     <g id="text_1">
      <!-- 0 -->
      <g transform="translate(107.423318 525.276875) scale(0.2 -0.2)">
       <defs>
        <path id="DejaVuSans-30" d="M 2034 4250 
Q 1547 4250 1301 3770 
Q 1056 3291 1056 2328 
Q 1056 1369 1301 889 
Q 1547 409 2034 409 
Q 2525 409 2770 889 
Q 3016 1369 3016 2328 
Q 3016 3291 2770 3770 
Q 2525 4250 2034 4250 
z
M 2034 4750 
Q 2819 4750 3233 4129 
Q 3647 3509 3647 2328 
Q 3647 1150 3233 529 
Q 2819 -91 2034 -91 
Q 1250 -91 836 529 
Q 422 1150 422 2328 
Q 422 3509 836 4129 
Q 1250 4750 2034 4750 
z
" transform="scale(0.015625)"/>
       </defs>
       <use xlink:href="#DejaVuSans-30"/>
      </g>
     </g>
    </g>
    <g id="xtick_2">
     <g id="line2d_3">
      <path d="M 203.348175 503.08 
L 203.348175 46.32 
" clip-path="url(#p1f4c17b457)" style="fill: none; stroke: #b0b0b0; stroke-width: 0.8; stroke-linecap: square"/>
     </g>
     <g id="line2d_4">
      <g>
       <use xlink:href="#m53d881354f" x="203.348175" y="503.08" style="stroke: #000000; stroke-width: 0.8"/>
      </g>
     </g>
     <g id="text_2">
      <!-- 5000 -->
      <g transform="translate(177.898175 525.276875) scale(0.2 -0.2)">
       <defs>
        <path id="DejaVuSans-35" d="M 691 4666 
L 3169 4666 
L 3169 4134 
L 1269 4134 
L 1269 2991 
Q 1406 3038 1543 3061 
Q 1681 3084 1819 3084 
Q 2600 3084 3056 2656 
Q 3513 2228 3513 1497 
Q 3513 744 3044 326 
Q 2575 -91 1722 -91 
Q 1428 -91 1123 -41 
Q 819 9 494 109 
L 494 744 
Q 775 591 1075 516 
Q 1375 441 1709 441 
Q 2250 441 2565 725 
Q 2881 1009 2881 1497 
Q 2881 1984 2565 2268 
Q 2250 2553 1709 2553 
Q 1456 2553 1204 2497 
Q 953 2441 691 2322 
L 691 4666 
z
" transform="scale(0.015625)"/>
       </defs>
       <use xlink:href="#DejaVuSans-35"/>
       <use xlink:href="#DejaVuSans-30" x="63.623047"/>
       <use xlink:href="#DejaVuSans-30" x="127.246094"/>
       <use xlink:href="#DejaVuSans-30" x="190.869141"/>
      </g>
     </g>
    </g>
    <g id="xtick_3">
     <g id="line2d_5">
      <path d="M 292.910533 503.08 
L 292.910533 46.32 
" clip-path="url(#p1f4c17b457)" style="fill: none; stroke: #b0b0b0; stroke-width: 0.8; stroke-linecap: square"/>
     </g>
     <g id="line2d_6">
      <g>
       <use xlink:href="#m53d881354f" x="292.910533" y="503.08" style="stroke: #000000; stroke-width: 0.8"/>
      </g>
     </g>
     <g id="text_3">
      <!-- 10000 -->
      <g transform="translate(261.098033 525.276875) scale(0.2 -0.2)">
       <defs>
        <path id="DejaVuSans-31" d="M 794 531 
L 1825 531 
L 1825 4091 
L 703 3866 
L 703 4441 
L 1819 4666 
L 2450 4666 
L 2450 531 
L 3481 531 
L 3481 0 
L 794 0 
L 794 531 
z
" transform="scale(0.015625)"/>
       </defs>
       <use xlink:href="#DejaVuSans-31"/>
       <use xlink:href="#DejaVuSans-30" x="63.623047"/>
       <use xlink:href="#DejaVuSans-30" x="127.246094"/>
       <use xlink:href="#DejaVuSans-30" x="190.869141"/>
       <use xlink:href="#DejaVuSans-30" x="254.492188"/>
      </g>
     </g>
    </g>
    <g id="xtick_4">
     <g id="line2d_7">
      <path d="M 382.47289 503.08 
L 382.47289 46.32 
" clip-path="url(#p1f4c17b457)" style="fill: none; stroke: #b0b0b0; stroke-width: 0.8; stroke-linecap: square"/>
     </g>
     <g id="line2d_8">
      <g>
       <use xlink:href="#m53d881354f" x="382.47289" y="503.08" style="stroke: #000000; stroke-width: 0.8"/>
      </g>
     </g>
     <g id="text_4">
      <!-- 15000 -->
      <g transform="translate(350.66039 525.276875) scale(0.2 -0.2)">
       <use xlink:href="#DejaVuSans-31"/>
       <use xlink:href="#DejaVuSans-35" x="63.623047"/>
       <use xlink:href="#DejaVuSans-30" x="127.246094"/>
       <use xlink:href="#DejaVuSans-30" x="190.869141"/>
       <use xlink:href="#DejaVuSans-30" x="254.492188"/>
      </g>
     </g>
    </g>
    <g id="xtick_5">
     <g id="line2d_9">
      <path d="M 472.035247 503.08 
L 472.035247 46.32 
" clip-path="url(#p1f4c17b457)" style="fill: none; stroke: #b0b0b0; stroke-width: 0.8; stroke-linecap: square"/>
     </g>
     <g id="line2d_10">
      <g>
       <use xlink:href="#m53d881354f" x="472.035247" y="503.08" style="stroke: #000000; stroke-width: 0.8"/>
      </g>
     </g>
     <g id="text_5">
      <!-- 20000 -->
      <g transform="translate(440.222747 525.276875) scale(0.2 -0.2)">
       <defs>
        <path id="DejaVuSans-32" d="M 1228 531 
L 3431 531 
L 3431 0 
L 469 0 
L 469 531 
Q 828 903 1448 1529 
Q 2069 2156 2228 2338 
Q 2531 2678 2651 2914 
Q 2772 3150 2772 3378 
Q 2772 3750 2511 3984 
Q 2250 4219 1831 4219 
Q 1534 4219 1204 4116 
Q 875 4013 500 3803 
L 500 4441 
Q 881 4594 1212 4672 
Q 1544 4750 1819 4750 
Q 2544 4750 2975 4387 
Q 3406 4025 3406 3419 
Q 3406 3131 3298 2873 
Q 3191 2616 2906 2266 
Q 2828 2175 2409 1742 
Q 1991 1309 1228 531 
z
" transform="scale(0.015625)"/>
       </defs>
       <use xlink:href="#DejaVuSans-32"/>
       <use xlink:href="#DejaVuSans-30" x="63.623047"/>
       <use xlink:href="#DejaVuSans-30" x="127.246094"/>
       <use xlink:href="#DejaVuSans-30" x="190.869141"/>
       <use xlink:href="#DejaVuSans-30" x="254.492188"/>
      </g>
     </g>
    </g>
    <g id="xtick_6">
     <g id="line2d_11">
      <path d="M 561.597604 503.08 
L 561.597604 46.32 
" clip-path="url(#p1f4c17b457)" style="fill: none; stroke: #b0b0b0; stroke-width: 0.8; stroke-linecap: square"/>
     </g>
     <g id="line2d_12">
      <g>
       <use xlink:href="#m53d881354f" x="561.597604" y="503.08" style="stroke: #000000; stroke-width: 0.8"/>
      </g>
     </g>
     <g id="text_6">
      <!-- 25000 -->
      <g transform="translate(529.785104 525.276875) scale(0.2 -0.2)">
       <use xlink:href="#DejaVuSans-32"/>
       <use xlink:href="#DejaVuSans-35" x="63.623047"/>
       <use xlink:href="#DejaVuSans-30" x="127.246094"/>
       <use xlink:href="#DejaVuSans-30" x="190.869141"/>
       <use xlink:href="#DejaVuSans-30" x="254.492188"/>
      </g>
     </g>
    </g>
    <g id="xtick_7">
     <g id="line2d_13">
      <path d="M 651.159962 503.08 
L 651.159962 46.32 
" clip-path="url(#p1f4c17b457)" style="fill: none; stroke: #b0b0b0; stroke-width: 0.8; stroke-linecap: square"/>
     </g>
     <g id="line2d_14">
      <g>
       <use xlink:href="#m53d881354f" x="651.159962" y="503.08" style="stroke: #000000; stroke-width: 0.8"/>
      </g>
     </g>
     <g id="text_7">
      <!-- 30000 -->
      <g transform="translate(619.347462 525.276875) scale(0.2 -0.2)">
       <defs>
        <path id="DejaVuSans-33" d="M 2597 2516 
Q 3050 2419 3304 2112 
Q 3559 1806 3559 1356 
Q 3559 666 3084 287 
Q 2609 -91 1734 -91 
Q 1441 -91 1130 -33 
Q 819 25 488 141 
L 488 750 
Q 750 597 1062 519 
Q 1375 441 1716 441 
Q 2309 441 2620 675 
Q 2931 909 2931 1356 
Q 2931 1769 2642 2001 
Q 2353 2234 1838 2234 
L 1294 2234 
L 1294 2753 
L 1863 2753 
Q 2328 2753 2575 2939 
Q 2822 3125 2822 3475 
Q 2822 3834 2567 4026 
Q 2313 4219 1838 4219 
Q 1578 4219 1281 4162 
Q 984 4106 628 3988 
L 628 4550 
Q 988 4650 1302 4700 
Q 1616 4750 1894 4750 
Q 2613 4750 3031 4423 
Q 3450 4097 3450 3541 
Q 3450 3153 3228 2886 
Q 3006 2619 2597 2516 
z
" transform="scale(0.015625)"/>
       </defs>
       <use xlink:href="#DejaVuSans-33"/>
       <use xlink:href="#DejaVuSans-30" x="63.623047"/>
       <use xlink:href="#DejaVuSans-30" x="127.246094"/>
       <use xlink:href="#DejaVuSans-30" x="190.869141"/>
       <use xlink:href="#DejaVuSans-30" x="254.492188"/>
      </g>
     </g>
    </g>
    <g id="xtick_8">
     <g id="line2d_15">
      <path d="M 740.722319 503.08 
L 740.722319 46.32 
" clip-path="url(#p1f4c17b457)" style="fill: none; stroke: #b0b0b0; stroke-width: 0.8; stroke-linecap: square"/>
     </g>
     <g id="line2d_16">
      <g>
       <use xlink:href="#m53d881354f" x="740.722319" y="503.08" style="stroke: #000000; stroke-width: 0.8"/>
      </g>
     </g>
     <g id="text_8">
      <!-- 35000 -->
      <g transform="translate(708.909819 525.276875) scale(0.2 -0.2)">
       <use xlink:href="#DejaVuSans-33"/>
       <use xlink:href="#DejaVuSans-35" x="63.623047"/>
       <use xlink:href="#DejaVuSans-30" x="127.246094"/>
       <use xlink:href="#DejaVuSans-30" x="190.869141"/>
       <use xlink:href="#DejaVuSans-30" x="254.492188"/>
      </g>
     </g>
    </g>
    <g id="xtick_9">
     <g id="line2d_17">
      <path d="M 830.284676 503.08 
L 830.284676 46.32 
" clip-path="url(#p1f4c17b457)" style="fill: none; stroke: #b0b0b0; stroke-width: 0.8; stroke-linecap: square"/>
     </g>
     <g id="line2d_18">
      <g>
       <use xlink:href="#m53d881354f" x="830.284676" y="503.08" style="stroke: #000000; stroke-width: 0.8"/>
      </g>
     </g>
     <g id="text_9">
      <!-- 40000 -->
      <g transform="translate(798.472176 525.276875) scale(0.2 -0.2)">
       <defs>
        <path id="DejaVuSans-34" d="M 2419 4116 
L 825 1625 
L 2419 1625 
L 2419 4116 
z
M 2253 4666 
L 3047 4666 
L 3047 1625 
L 3713 1625 
L 3713 1100 
L 3047 1100 
L 3047 0 
L 2419 0 
L 2419 1100 
L 313 1100 
L 313 1709 
L 2253 4666 
z
" transform="scale(0.015625)"/>
       </defs>
       <use xlink:href="#DejaVuSans-34"/>
       <use xlink:href="#DejaVuSans-30" x="63.623047"/>
       <use xlink:href="#DejaVuSans-30" x="127.246094"/>
       <use xlink:href="#DejaVuSans-30" x="190.869141"/>
       <use xlink:href="#DejaVuSans-30" x="254.492188"/>
      </g>
     </g>
    </g>
    <g id="text_10">
     <!-- Number of Epochs -->
     <g transform="translate(378.245562 548.633125) scale(0.2 -0.2)">
      <defs>
       <path id="DejaVuSans-4e" d="M 628 4666 
L 1478 4666 
L 3547 763 
L 3547 4666 
L 4159 4666 
L 4159 0 
L 3309 0 
L 1241 3903 
L 1241 0 
L 628 0 
L 628 4666 
z
" transform="scale(0.015625)"/>
       <path id="DejaVuSans-75" d="M 544 1381 
L 544 3500 
L 1119 3500 
L 1119 1403 
Q 1119 906 1312 657 
Q 1506 409 1894 409 
Q 2359 409 2629 706 
Q 2900 1003 2900 1516 
L 2900 3500 
L 3475 3500 
L 3475 0 
L 2900 0 
L 2900 538 
Q 2691 219 2414 64 
Q 2138 -91 1772 -91 
Q 1169 -91 856 284 
Q 544 659 544 1381 
z
M 1991 3584 
L 1991 3584 
z
" transform="scale(0.015625)"/>
       <path id="DejaVuSans-6d" d="M 3328 2828 
Q 3544 3216 3844 3400 
Q 4144 3584 4550 3584 
Q 5097 3584 5394 3201 
Q 5691 2819 5691 2113 
L 5691 0 
L 5113 0 
L 5113 2094 
Q 5113 2597 4934 2840 
Q 4756 3084 4391 3084 
Q 3944 3084 3684 2787 
Q 3425 2491 3425 1978 
L 3425 0 
L 2847 0 
L 2847 2094 
Q 2847 2600 2669 2842 
Q 2491 3084 2119 3084 
Q 1678 3084 1418 2786 
Q 1159 2488 1159 1978 
L 1159 0 
L 581 0 
L 581 3500 
L 1159 3500 
L 1159 2956 
Q 1356 3278 1631 3431 
Q 1906 3584 2284 3584 
Q 2666 3584 2933 3390 
Q 3200 3197 3328 2828 
z
" transform="scale(0.015625)"/>
       <path id="DejaVuSans-62" d="M 3116 1747 
Q 3116 2381 2855 2742 
Q 2594 3103 2138 3103 
Q 1681 3103 1420 2742 
Q 1159 2381 1159 1747 
Q 1159 1113 1420 752 
Q 1681 391 2138 391 
Q 2594 391 2855 752 
Q 3116 1113 3116 1747 
z
M 1159 2969 
Q 1341 3281 1617 3432 
Q 1894 3584 2278 3584 
Q 2916 3584 3314 3078 
Q 3713 2572 3713 1747 
Q 3713 922 3314 415 
Q 2916 -91 2278 -91 
Q 1894 -91 1617 61 
Q 1341 213 1159 525 
L 1159 0 
L 581 0 
L 581 4863 
L 1159 4863 
L 1159 2969 
z
" transform="scale(0.015625)"/>
       <path id="DejaVuSans-65" d="M 3597 1894 
L 3597 1613 
L 953 1613 
Q 991 1019 1311 708 
Q 1631 397 2203 397 
Q 2534 397 2845 478 
Q 3156 559 3463 722 
L 3463 178 
Q 3153 47 2828 -22 
Q 2503 -91 2169 -91 
Q 1331 -91 842 396 
Q 353 884 353 1716 
Q 353 2575 817 3079 
Q 1281 3584 2069 3584 
Q 2775 3584 3186 3129 
Q 3597 2675 3597 1894 
z
M 3022 2063 
Q 3016 2534 2758 2815 
Q 2500 3097 2075 3097 
Q 1594 3097 1305 2825 
Q 1016 2553 972 2059 
L 3022 2063 
z
" transform="scale(0.015625)"/>
       <path id="DejaVuSans-72" d="M 2631 2963 
Q 2534 3019 2420 3045 
Q 2306 3072 2169 3072 
Q 1681 3072 1420 2755 
Q 1159 2438 1159 1844 
L 1159 0 
L 581 0 
L 581 3500 
L 1159 3500 
L 1159 2956 
Q 1341 3275 1631 3429 
Q 1922 3584 2338 3584 
Q 2397 3584 2469 3576 
Q 2541 3569 2628 3553 
L 2631 2963 
z
" transform="scale(0.015625)"/>
       <path id="DejaVuSans-20" transform="scale(0.015625)"/>
       <path id="DejaVuSans-6f" d="M 1959 3097 
Q 1497 3097 1228 2736 
Q 959 2375 959 1747 
Q 959 1119 1226 758 
Q 1494 397 1959 397 
Q 2419 397 2687 759 
Q 2956 1122 2956 1747 
Q 2956 2369 2687 2733 
Q 2419 3097 1959 3097 
z
M 1959 3584 
Q 2709 3584 3137 3096 
Q 3566 2609 3566 1747 
Q 3566 888 3137 398 
Q 2709 -91 1959 -91 
Q 1206 -91 779 398 
Q 353 888 353 1747 
Q 353 2609 779 3096 
Q 1206 3584 1959 3584 
z
" transform="scale(0.015625)"/>
       <path id="DejaVuSans-66" d="M 2375 4863 
L 2375 4384 
L 1825 4384 
Q 1516 4384 1395 4259 
Q 1275 4134 1275 3809 
L 1275 3500 
L 2222 3500 
L 2222 3053 
L 1275 3053 
L 1275 0 
L 697 0 
L 697 3053 
L 147 3053 
L 147 3500 
L 697 3500 
L 697 3744 
Q 697 4328 969 4595 
Q 1241 4863 1831 4863 
L 2375 4863 
z
" transform="scale(0.015625)"/>
       <path id="DejaVuSans-45" d="M 628 4666 
L 3578 4666 
L 3578 4134 
L 1259 4134 
L 1259 2753 
L 3481 2753 
L 3481 2222 
L 1259 2222 
L 1259 531 
L 3634 531 
L 3634 0 
L 628 0 
L 628 4666 
z
" transform="scale(0.015625)"/>
       <path id="DejaVuSans-70" d="M 1159 525 
L 1159 -1331 
L 581 -1331 
L 581 3500 
L 1159 3500 
L 1159 2969 
Q 1341 3281 1617 3432 
Q 1894 3584 2278 3584 
Q 2916 3584 3314 3078 
Q 3713 2572 3713 1747 
Q 3713 922 3314 415 
Q 2916 -91 2278 -91 
Q 1894 -91 1617 61 
Q 1341 213 1159 525 
z
M 3116 1747 
Q 3116 2381 2855 2742 
Q 2594 3103 2138 3103 
Q 1681 3103 1420 2742 
Q 1159 2381 1159 1747 
Q 1159 1113 1420 752 
Q 1681 391 2138 391 
Q 2594 391 2855 752 
Q 3116 1113 3116 1747 
z
" transform="scale(0.015625)"/>
       <path id="DejaVuSans-63" d="M 3122 3366 
L 3122 2828 
Q 2878 2963 2633 3030 
Q 2388 3097 2138 3097 
Q 1578 3097 1268 2742 
Q 959 2388 959 1747 
Q 959 1106 1268 751 
Q 1578 397 2138 397 
Q 2388 397 2633 464 
Q 2878 531 3122 666 
L 3122 134 
Q 2881 22 2623 -34 
Q 2366 -91 2075 -91 
Q 1284 -91 818 406 
Q 353 903 353 1747 
Q 353 2603 823 3093 
Q 1294 3584 2113 3584 
Q 2378 3584 2631 3529 
Q 2884 3475 3122 3366 
z
" transform="scale(0.015625)"/>
       <path id="DejaVuSans-68" d="M 3513 2113 
L 3513 0 
L 2938 0 
L 2938 2094 
Q 2938 2591 2744 2837 
Q 2550 3084 2163 3084 
Q 1697 3084 1428 2787 
Q 1159 2491 1159 1978 
L 1159 0 
L 581 0 
L 581 4863 
L 1159 4863 
L 1159 2956 
Q 1366 3272 1645 3428 
Q 1925 3584 2291 3584 
Q 2894 3584 3203 3211 
Q 3513 2838 3513 2113 
z
" transform="scale(0.015625)"/>
       <path id="DejaVuSans-73" d="M 2834 3397 
L 2834 2853 
Q 2591 2978 2328 3040 
Q 2066 3103 1784 3103 
Q 1356 3103 1142 2972 
Q 928 2841 928 2578 
Q 928 2378 1081 2264 
Q 1234 2150 1697 2047 
L 1894 2003 
Q 2506 1872 2764 1633 
Q 3022 1394 3022 966 
Q 3022 478 2636 193 
Q 2250 -91 1575 -91 
Q 1294 -91 989 -36 
Q 684 19 347 128 
L 347 722 
Q 666 556 975 473 
Q 1284 391 1588 391 
Q 1994 391 2212 530 
Q 2431 669 2431 922 
Q 2431 1156 2273 1281 
Q 2116 1406 1581 1522 
L 1381 1569 
Q 847 1681 609 1914 
Q 372 2147 372 2553 
Q 372 3047 722 3315 
Q 1072 3584 1716 3584 
Q 2034 3584 2315 3537 
Q 2597 3491 2834 3397 
z
" transform="scale(0.015625)"/>
      </defs>
      <use xlink:href="#DejaVuSans-4e"/>
      <use xlink:href="#DejaVuSans-75" x="74.804688"/>
      <use xlink:href="#DejaVuSans-6d" x="138.183594"/>
      <use xlink:href="#DejaVuSans-62" x="235.595703"/>
      <use xlink:href="#DejaVuSans-65" x="299.072266"/>
      <use xlink:href="#DejaVuSans-72" x="360.595703"/>
      <use xlink:href="#DejaVuSans-20" x="401.708984"/>
      <use xlink:href="#DejaVuSans-6f" x="433.496094"/>
      <use xlink:href="#DejaVuSans-66" x="494.677734"/>
      <use xlink:href="#DejaVuSans-20" x="529.882812"/>
      <use xlink:href="#DejaVuSans-45" x="561.669922"/>
      <use xlink:href="#DejaVuSans-70" x="624.853516"/>
      <use xlink:href="#DejaVuSans-6f" x="688.330078"/>
      <use xlink:href="#DejaVuSans-63" x="749.511719"/>
      <use xlink:href="#DejaVuSans-68" x="804.492188"/>
      <use xlink:href="#DejaVuSans-73" x="867.871094"/>
     </g>
    </g>
   </g>
   <g id="matplotlib.axis_2">
    <g id="ytick_1">
     <g id="line2d_19">
      <path d="M 78.14 467.944615 
L 862.348 467.944615 
" clip-path="url(#p1f4c17b457)" style="fill: none; stroke: #b0b0b0; stroke-width: 0.8; stroke-linecap: square"/>
     </g>
     <g id="line2d_20">
      <defs>
       <path id="m63f75ae52c" d="M 0 0 
L -3.5 0 
" style="stroke: #000000; stroke-width: 0.8"/>
      </defs>
      <g>
       <use xlink:href="#m63f75ae52c" x="78.14" y="467.944615" style="stroke: #000000; stroke-width: 0.8"/>
      </g>
     </g>
     <g id="text_11">
      <!-- 20 -->
      <g transform="translate(45.69 475.543053) scale(0.2 -0.2)">
       <use xlink:href="#DejaVuSans-32"/>
       <use xlink:href="#DejaVuSans-30" x="63.623047"/>
      </g>
     </g>
    </g>
    <g id="ytick_2">
     <g id="line2d_21">
      <path d="M 78.14 397.673846 
L 862.348 397.673846 
" clip-path="url(#p1f4c17b457)" style="fill: none; stroke: #b0b0b0; stroke-width: 0.8; stroke-linecap: square"/>
     </g>
     <g id="line2d_22">
      <g>
       <use xlink:href="#m63f75ae52c" x="78.14" y="397.673846" style="stroke: #000000; stroke-width: 0.8"/>
      </g>
     </g>
     <g id="text_12">
      <!-- 22 -->
      <g transform="translate(45.69 405.272284) scale(0.2 -0.2)">
       <use xlink:href="#DejaVuSans-32"/>
       <use xlink:href="#DejaVuSans-32" x="63.623047"/>
      </g>
     </g>
    </g>
    <g id="ytick_3">
     <g id="line2d_23">
      <path d="M 78.14 327.403077 
L 862.348 327.403077 
" clip-path="url(#p1f4c17b457)" style="fill: none; stroke: #b0b0b0; stroke-width: 0.8; stroke-linecap: square"/>
     </g>
     <g id="line2d_24">
      <g>
       <use xlink:href="#m63f75ae52c" x="78.14" y="327.403077" style="stroke: #000000; stroke-width: 0.8"/>
      </g>
     </g>
     <g id="text_13">
      <!-- 24 -->
      <g transform="translate(45.69 335.001514) scale(0.2 -0.2)">
       <use xlink:href="#DejaVuSans-32"/>
       <use xlink:href="#DejaVuSans-34" x="63.623047"/>
      </g>
     </g>
    </g>
    <g id="ytick_4">
     <g id="line2d_25">
      <path d="M 78.14 257.132308 
L 862.348 257.132308 
" clip-path="url(#p1f4c17b457)" style="fill: none; stroke: #b0b0b0; stroke-width: 0.8; stroke-linecap: square"/>
     </g>
     <g id="line2d_26">
      <g>
       <use xlink:href="#m63f75ae52c" x="78.14" y="257.132308" style="stroke: #000000; stroke-width: 0.8"/>
      </g>
     </g>
     <g id="text_14">
      <!-- 26 -->
      <g transform="translate(45.69 264.730745) scale(0.2 -0.2)">
       <defs>
        <path id="DejaVuSans-36" d="M 2113 2584 
Q 1688 2584 1439 2293 
Q 1191 2003 1191 1497 
Q 1191 994 1439 701 
Q 1688 409 2113 409 
Q 2538 409 2786 701 
Q 3034 994 3034 1497 
Q 3034 2003 2786 2293 
Q 2538 2584 2113 2584 
z
M 3366 4563 
L 3366 3988 
Q 3128 4100 2886 4159 
Q 2644 4219 2406 4219 
Q 1781 4219 1451 3797 
Q 1122 3375 1075 2522 
Q 1259 2794 1537 2939 
Q 1816 3084 2150 3084 
Q 2853 3084 3261 2657 
Q 3669 2231 3669 1497 
Q 3669 778 3244 343 
Q 2819 -91 2113 -91 
Q 1303 -91 875 529 
Q 447 1150 447 2328 
Q 447 3434 972 4092 
Q 1497 4750 2381 4750 
Q 2619 4750 2861 4703 
Q 3103 4656 3366 4563 
z
" transform="scale(0.015625)"/>
       </defs>
       <use xlink:href="#DejaVuSans-32"/>
       <use xlink:href="#DejaVuSans-36" x="63.623047"/>
      </g>
     </g>
    </g>
    <g id="ytick_5">
     <g id="line2d_27">
      <path d="M 78.14 186.861538 
L 862.348 186.861538 
" clip-path="url(#p1f4c17b457)" style="fill: none; stroke: #b0b0b0; stroke-width: 0.8; stroke-linecap: square"/>
     </g>
     <g id="line2d_28">
      <g>
       <use xlink:href="#m63f75ae52c" x="78.14" y="186.861538" style="stroke: #000000; stroke-width: 0.8"/>
      </g>
     </g>
     <g id="text_15">
      <!-- 28 -->
      <g transform="translate(45.69 194.459976) scale(0.2 -0.2)">
       <defs>
        <path id="DejaVuSans-38" d="M 2034 2216 
Q 1584 2216 1326 1975 
Q 1069 1734 1069 1313 
Q 1069 891 1326 650 
Q 1584 409 2034 409 
Q 2484 409 2743 651 
Q 3003 894 3003 1313 
Q 3003 1734 2745 1975 
Q 2488 2216 2034 2216 
z
M 1403 2484 
Q 997 2584 770 2862 
Q 544 3141 544 3541 
Q 544 4100 942 4425 
Q 1341 4750 2034 4750 
Q 2731 4750 3128 4425 
Q 3525 4100 3525 3541 
Q 3525 3141 3298 2862 
Q 3072 2584 2669 2484 
Q 3125 2378 3379 2068 
Q 3634 1759 3634 1313 
Q 3634 634 3220 271 
Q 2806 -91 2034 -91 
Q 1263 -91 848 271 
Q 434 634 434 1313 
Q 434 1759 690 2068 
Q 947 2378 1403 2484 
z
M 1172 3481 
Q 1172 3119 1398 2916 
Q 1625 2713 2034 2713 
Q 2441 2713 2670 2916 
Q 2900 3119 2900 3481 
Q 2900 3844 2670 4047 
Q 2441 4250 2034 4250 
Q 1625 4250 1398 4047 
Q 1172 3844 1172 3481 
z
" transform="scale(0.015625)"/>
       </defs>
       <use xlink:href="#DejaVuSans-32"/>
       <use xlink:href="#DejaVuSans-38" x="63.623047"/>
      </g>
     </g>
    </g>
    <g id="ytick_6">
     <g id="line2d_29">
      <path d="M 78.14 116.590769 
L 862.348 116.590769 
" clip-path="url(#p1f4c17b457)" style="fill: none; stroke: #b0b0b0; stroke-width: 0.8; stroke-linecap: square"/>
     </g>
     <g id="line2d_30">
      <g>
       <use xlink:href="#m63f75ae52c" x="78.14" y="116.590769" style="stroke: #000000; stroke-width: 0.8"/>
      </g>
     </g>
     <g id="text_16">
      <!-- 30 -->
      <g transform="translate(45.69 124.189207) scale(0.2 -0.2)">
       <use xlink:href="#DejaVuSans-33"/>
       <use xlink:href="#DejaVuSans-30" x="63.623047"/>
      </g>
     </g>
    </g>
    <g id="ytick_7">
     <g id="line2d_31">
      <path d="M 78.14 46.32 
L 862.348 46.32 
" clip-path="url(#p1f4c17b457)" style="fill: none; stroke: #b0b0b0; stroke-width: 0.8; stroke-linecap: square"/>
     </g>
     <g id="line2d_32">
      <g>
       <use xlink:href="#m63f75ae52c" x="78.14" y="46.32" style="stroke: #000000; stroke-width: 0.8"/>
      </g>
     </g>
     <g id="text_17">
      <!-- 32 -->
      <g transform="translate(45.69 53.918437) scale(0.2 -0.2)">
       <use xlink:href="#DejaVuSans-33"/>
       <use xlink:href="#DejaVuSans-32" x="63.623047"/>
      </g>
     </g>
    </g>
    <g id="text_18">
     <!-- PSNR -->
     <g transform="translate(37.530625 301.507812) rotate(-90) scale(0.2 -0.2)">
      <defs>
       <path id="DejaVuSans-50" d="M 1259 4147 
L 1259 2394 
L 2053 2394 
Q 2494 2394 2734 2622 
Q 2975 2850 2975 3272 
Q 2975 3691 2734 3919 
Q 2494 4147 2053 4147 
L 1259 4147 
z
M 628 4666 
L 2053 4666 
Q 2838 4666 3239 4311 
Q 3641 3956 3641 3272 
Q 3641 2581 3239 2228 
Q 2838 1875 2053 1875 
L 1259 1875 
L 1259 0 
L 628 0 
L 628 4666 
z
" transform="scale(0.015625)"/>
       <path id="DejaVuSans-53" d="M 3425 4513 
L 3425 3897 
Q 3066 4069 2747 4153 
Q 2428 4238 2131 4238 
Q 1616 4238 1336 4038 
Q 1056 3838 1056 3469 
Q 1056 3159 1242 3001 
Q 1428 2844 1947 2747 
L 2328 2669 
Q 3034 2534 3370 2195 
Q 3706 1856 3706 1288 
Q 3706 609 3251 259 
Q 2797 -91 1919 -91 
Q 1588 -91 1214 -16 
Q 841 59 441 206 
L 441 856 
Q 825 641 1194 531 
Q 1563 422 1919 422 
Q 2459 422 2753 634 
Q 3047 847 3047 1241 
Q 3047 1584 2836 1778 
Q 2625 1972 2144 2069 
L 1759 2144 
Q 1053 2284 737 2584 
Q 422 2884 422 3419 
Q 422 4038 858 4394 
Q 1294 4750 2059 4750 
Q 2388 4750 2728 4690 
Q 3069 4631 3425 4513 
z
" transform="scale(0.015625)"/>
       <path id="DejaVuSans-52" d="M 2841 2188 
Q 3044 2119 3236 1894 
Q 3428 1669 3622 1275 
L 4263 0 
L 3584 0 
L 2988 1197 
Q 2756 1666 2539 1819 
Q 2322 1972 1947 1972 
L 1259 1972 
L 1259 0 
L 628 0 
L 628 4666 
L 2053 4666 
Q 2853 4666 3247 4331 
Q 3641 3997 3641 3322 
Q 3641 2881 3436 2590 
Q 3231 2300 2841 2188 
z
M 1259 4147 
L 1259 2491 
L 2053 2491 
Q 2509 2491 2742 2702 
Q 2975 2913 2975 3322 
Q 2975 3731 2742 3939 
Q 2509 4147 2053 4147 
L 1259 4147 
z
" transform="scale(0.015625)"/>
      </defs>
      <use xlink:href="#DejaVuSans-50"/>
      <use xlink:href="#DejaVuSans-53" x="60.302734"/>
      <use xlink:href="#DejaVuSans-4e" x="123.779297"/>
      <use xlink:href="#DejaVuSans-52" x="198.583984"/>
     </g>
    </g>
   </g>
   <g id="line2d_33">
    <path d="M 113.785818 574.506356 
L 117.368312 329.586002 
L 120.950807 230.467563 
L 124.533301 190.517218 
L 128.115795 154.071131 
L 131.69829 137.628471 
L 135.280784 150.044082 
L 138.863278 132.080604 
L 142.445772 139.258047 
L 146.028267 121.942808 
L 149.610761 129.032937 
L 153.193255 119.003527 
L 156.77575 125.588463 
L 160.358244 118.522995 
L 163.940738 132.635688 
L 167.523233 126.961674 
L 171.105727 122.01777 
L 174.688221 134.691187 
L 178.270715 127.128857 
L 181.85321 140.218007 
L 185.435704 146.761233 
L 189.018198 136.877578 
L 192.600693 147.900477 
L 196.183187 137.608095 
L 199.765681 136.967127 
L 203.348175 140.584864 
L 206.93067 141.378074 
L 210.513164 144.074584 
L 214.095658 152.631839 
L 217.678153 143.902123 
L 221.260647 147.336389 
L 224.843141 146.628529 
L 228.425635 148.816802 
L 232.00813 151.509528 
L 235.590624 152.674381 
L 239.173118 160.724433 
L 242.755613 148.653147 
L 246.338107 157.673818 
L 249.920601 153.870577 
L 253.503095 156.630164 
L 257.08559 152.629273 
L 260.668084 163.174124 
L 264.250578 164.952931 
L 267.833073 157.863484 
L 271.415567 155.023542 
L 274.998061 159.503486 
L 278.580556 155.119191 
L 282.16305 162.334703 
L 285.745544 160.375173 
L 289.328038 162.744315 
L 292.910533 160.282605 
L 296.493027 159.449033 
L 300.075521 164.784148 
L 303.658016 158.021772 
L 307.24051 161.710357 
L 310.823004 162.076409 
L 314.405498 166.330633 
L 317.987993 161.742688 
L 321.570487 159.299822 
L 325.152981 170.043501 
L 328.735476 156.795754 
L 332.31797 169.380804 
L 335.900464 165.717492 
L 339.482958 167.408439 
L 343.065453 161.09494 
L 346.647947 167.446248 
L 350.230441 172.402731 
L 353.812936 164.786266 
L 357.39543 165.631854 
L 360.977924 168.163638 
L 364.560418 166.267507 
L 368.142913 161.733069 
L 371.725407 170.234503 
L 375.307901 166.711535 
L 378.890396 166.030119 
L 382.47289 167.640956 
L 386.055384 170.295014 
L 389.637878 170.629016 
L 393.220373 163.690883 
L 396.802867 165.887764 
L 400.385361 165.942293 
L 403.967856 170.392728 
L 407.55035 164.460212 
L 411.132844 169.277104 
L 414.715339 176.356315 
L 418.297833 167.347247 
L 421.880327 169.121805 
L 425.462821 166.332568 
L 429.045316 167.013483 
L 432.62781 166.666672 
L 436.210304 168.22475 
L 439.792799 167.767347 
L 443.375293 178.763206 
L 446.957787 169.236001 
L 450.540281 171.081832 
L 454.122776 169.319308 
L 457.70527 172.290933 
L 461.287764 171.480776 
L 468.452753 165.588999 
L 472.035247 179.451054 
L 475.617741 173.936213 
L 479.200236 176.142789 
L 482.78273 172.401369 
L 486.365224 176.623582 
L 489.947719 169.627138 
L 493.530213 178.481409 
L 497.112707 177.442106 
L 500.695201 172.272004 
L 504.277696 170.39914 
L 507.86019 172.193776 
L 511.442684 177.035874 
L 515.025179 175.385184 
L 518.607673 175.231446 
L 522.190167 173.371557 
L 525.772661 169.560428 
L 529.355156 170.548557 
L 532.93765 176.739928 
L 536.520144 174.47215 
L 540.102639 177.410954 
L 543.685133 171.314774 
L 547.267627 178.087922 
L 550.850122 176.640001 
L 554.432616 174.498311 
L 558.01511 176.125524 
L 561.597604 187.130555 
L 565.180099 179.246685 
L 568.762593 173.182283 
L 572.345087 188.420197 
L 575.927582 179.473464 
L 579.510076 178.434475 
L 583.09257 174.190189 
L 586.675064 188.434688 
L 590.257559 179.302265 
L 593.840053 174.518783 
L 597.422547 178.549833 
L 601.005042 176.632471 
L 604.587536 177.436733 
L 608.17003 177.314974 
L 611.752524 174.57643 
L 615.335019 179.299439 
L 618.917513 176.328231 
L 622.500007 177.41106 
L 626.082502 180.066611 
L 629.664996 175.910033 
L 633.24749 177.88461 
L 636.829984 175.477981 
L 640.412479 180.370947 
L 643.994973 172.767266 
L 647.577467 182.307306 
L 651.159962 177.536083 
L 654.742456 175.339456 
L 658.32495 178.482003 
L 661.907444 184.012546 
L 665.489939 174.632793 
L 669.072433 183.224413 
L 672.654927 174.739771 
L 676.237422 180.736002 
L 679.819916 175.328538 
L 683.40241 176.094793 
L 686.984905 177.950093 
L 690.567399 174.494404 
L 694.149893 180.1145 
L 697.732387 177.776209 
L 701.314882 183.395389 
L 704.897376 175.14019 
L 708.47987 183.452017 
L 712.062365 180.472162 
L 715.644859 174.411067 
L 719.227353 178.94023 
L 722.809847 178.727533 
L 726.392342 174.928896 
L 729.974836 179.65771 
L 733.55733 177.770187 
L 737.139825 176.551175 
L 740.722319 179.790222 
L 744.304813 180.45286 
L 747.887307 179.336627 
L 751.469802 178.877207 
L 755.052296 176.986172 
L 758.63479 179.819492 
L 762.217285 183.781076 
L 765.799779 181.325184 
L 769.382273 182.796109 
L 772.964767 182.36737 
L 776.547262 179.09626 
L 780.129756 186.803988 
L 783.71225 175.497847 
L 787.294745 179.493612 
L 790.877239 181.990538 
L 794.459733 178.837726 
L 798.042228 177.999303 
L 801.624722 175.107471 
L 805.207216 183.886974 
L 808.78971 179.234719 
L 812.372205 178.405802 
L 815.954699 184.151644 
L 819.537193 186.289695 
L 823.119688 185.083884 
L 826.702182 180.315985 
L 826.702182 180.315985 
" clip-path="url(#p1f4c17b457)" style="fill: none; stroke: #00008b; stroke-width: 1.5; stroke-linecap: square"/>
   </g>
   <g id="line2d_34">
    <path d="M 119.180256 577 
L 131.69829 173.840168 
L 149.610761 109.360702 
L 167.523233 171.390583 
L 185.435704 242.910483 
L 203.348175 294.884699 
L 221.260647 324.214411 
L 239.173118 340.834856 
L 257.08559 355.320063 
L 274.998061 358.708784 
L 292.910533 365.573208 
L 310.823004 369.277107 
L 328.735476 374.649675 
L 346.647947 379.925479 
L 364.560418 376.220066 
L 382.47289 383.510398 
L 400.385361 381.654304 
L 418.297833 382.94623 
L 436.210304 386.076253 
L 454.122776 385.750166 
L 472.035247 385.861874 
L 489.947719 389.211054 
L 507.86019 388.463106 
L 525.772661 388.09643 
L 543.685133 390.394037 
L 561.597604 391.654718 
L 579.510076 387.984221 
L 597.422547 387.659916 
L 615.335019 392.670788 
L 633.24749 389.665528 
L 651.159962 393.202257 
L 669.072433 395.38677 
L 686.984905 395.883005 
L 704.897376 395.001623 
L 722.809847 391.399873 
L 740.722319 399.404247 
L 758.63479 395.182937 
L 776.547262 395.420826 
L 794.459733 397.553281 
L 812.372205 400.20757 
" clip-path="url(#p1f4c17b457)" style="fill: none; stroke: #afafaf; stroke-width: 1.5; stroke-linecap: square"/>
   </g>
   <g id="line2d_35">
    <path d="M 118.752544 577 
L 131.69829 172.638503 
L 149.610761 93.821225 
L 167.523233 142.505629 
L 185.435704 209.181804 
L 203.348175 279.092516 
L 221.260647 303.489842 
L 239.173118 333.886399 
L 257.08559 339.05555 
L 274.998061 348.978523 
L 292.910533 353.042486 
L 310.823004 360.822897 
L 328.735476 369.317608 
L 346.647947 359.707089 
L 364.560418 369.41593 
L 382.47289 362.53074 
L 400.385361 371.498525 
L 418.297833 370.158423 
L 436.210304 376.335234 
L 454.122776 381.044738 
L 472.035247 377.202961 
L 489.947719 383.209443 
L 507.86019 376.433875 
L 525.772661 378.053275 
L 543.685133 375.834038 
L 561.597604 382.528818 
L 579.510076 382.289354 
L 597.422547 389.046596 
L 615.335019 376.763628 
L 633.24749 385.238841 
L 651.159962 385.38852 
L 669.072433 383.222966 
L 686.984905 382.58577 
L 704.897376 385.668667 
L 722.809847 390.140796 
L 740.722319 388.837393 
L 758.63479 382.606068 
L 776.547262 388.963781 
L 794.459733 384.546122 
L 812.372205 386.211766 
" clip-path="url(#p1f4c17b457)" style="fill: none; stroke: #9e9e9e; stroke-width: 1.5; stroke-linecap: square"/>
   </g>
   <g id="line2d_36">
    <path d="M 118.844648 577 
L 131.69829 157.038991 
L 149.610761 124.083013 
L 167.523233 160.27481 
L 185.435704 236.053654 
L 203.348175 286.568454 
L 221.260647 310.225248 
L 239.173118 329.249053 
L 257.08559 341.671065 
L 274.998061 346.964519 
L 292.910533 355.528236 
L 310.823004 358.718417 
L 328.735476 353.515786 
L 346.647947 358.080283 
L 364.560418 359.589338 
L 382.47289 363.640266 
L 400.385361 367.182114 
L 418.297833 372.203367 
L 436.210304 365.964276 
L 454.122776 367.515059 
L 472.035247 364.180947 
L 489.947719 364.501495 
L 507.86019 369.990144 
L 525.772661 365.675387 
L 543.685133 371.487494 
L 561.597604 371.425361 
L 579.510076 370.276016 
L 597.422547 373.925793 
L 615.335019 369.762605 
L 633.24749 380.404309 
L 651.159962 372.944928 
L 669.072433 371.165231 
L 686.984905 372.974524 
L 704.897376 376.284463 
L 722.809847 377.634825 
L 740.722319 373.729053 
L 758.63479 378.059045 
L 776.547262 382.619331 
L 794.459733 374.708898 
L 812.372205 383.143837 
" clip-path="url(#p1f4c17b457)" style="fill: none; stroke: #7f7f7f; stroke-width: 1.5; stroke-linecap: square"/>
   </g>
   <g id="line2d_37">
    <path d="M 118.893176 577 
L 131.69829 160.24582 
L 149.610761 117.031673 
L 167.523233 152.297695 
L 185.435704 218.723653 
L 203.348175 277.442263 
L 221.260647 298.636085 
L 239.173118 324.147449 
L 257.08559 323.820083 
L 274.998061 335.921738 
L 292.910533 341.989638 
L 310.823004 340.294675 
L 328.735476 344.745504 
L 346.647947 352.901904 
L 364.560418 350.263945 
L 382.47289 353.472618 
L 400.385361 352.873359 
L 418.297833 354.841376 
L 436.210304 358.190181 
L 454.122776 358.570757 
L 472.035247 360.991502 
L 489.947719 362.565702 
L 507.86019 360.778077 
L 525.772661 362.376282 
L 543.685133 364.129627 
L 561.597604 364.729556 
L 579.510076 365.044834 
L 597.422547 360.447199 
L 615.335019 366.237249 
L 633.24749 369.257736 
L 651.159962 363.891569 
L 669.072433 368.505741 
L 686.984905 367.833119 
L 704.897376 365.452479 
L 722.809847 368.796654 
L 740.722319 366.598059 
L 758.63479 368.108559 
L 776.547262 371.011361 
L 794.459733 367.623683 
L 812.372205 369.546919 
" clip-path="url(#p1f4c17b457)" style="fill: none; stroke: #717171; stroke-width: 1.5; stroke-linecap: square"/>
   </g>
   <g id="line2d_38">
    <path d="M 118.716574 577 
L 131.69829 138.28526 
L 149.610761 101.35525 
L 167.523233 168.069844 
L 185.435704 245.343726 
L 203.348175 286.278465 
L 221.260647 310.507525 
L 239.173118 322.473823 
L 257.08559 327.083698 
L 274.998061 333.773798 
L 292.910533 336.833545 
L 310.823004 338.678034 
L 328.735476 349.357779 
L 346.647947 346.821346 
L 364.560418 344.627055 
L 382.47289 351.861425 
L 400.385361 353.4306 
L 418.297833 353.991847 
L 436.210304 354.818629 
L 454.122776 353.914973 
L 472.035247 357.108814 
L 489.947719 356.029539 
L 507.86019 355.766007 
L 525.772661 357.985575 
L 543.685133 356.281209 
L 561.597604 356.205849 
L 579.510076 361.04545 
L 597.422547 360.416041 
L 615.335019 360.602872 
L 633.24749 360.374543 
L 651.159962 356.791797 
L 669.072433 361.064587 
L 686.984905 364.310212 
L 704.897376 362.98915 
L 722.809847 362.801692 
L 740.722319 362.21998 
L 758.63479 362.752504 
L 776.547262 361.394511 
L 794.459733 360.311432 
L 812.372205 360.660687 
" clip-path="url(#p1f4c17b457)" style="fill: none; stroke: #636363; stroke-width: 1.5; stroke-linecap: square"/>
   </g>
   <g id="line2d_39">
    <path d="M 118.49338 577 
L 131.69829 138.018755 
L 149.610761 115.816562 
L 167.523233 185.453525 
L 185.435704 259.059 
L 203.348175 289.144635 
L 221.260647 300.093684 
L 239.173118 311.840404 
L 257.08559 314.449122 
L 274.998061 319.98697 
L 292.910533 331.267532 
L 310.823004 332.039799 
L 328.735476 331.219845 
L 346.647947 331.899803 
L 364.560418 336.072699 
L 382.47289 336.633962 
L 400.385361 337.98752 
L 418.297833 340.201916 
L 436.210304 341.146424 
L 454.122776 343.171498 
L 472.035247 342.335721 
L 489.947719 345.566729 
L 507.86019 344.006135 
L 525.772661 344.559946 
L 543.685133 344.369566 
L 561.597604 347.059678 
L 579.510076 349.85955 
L 597.422547 347.479727 
L 615.335019 347.908943 
L 633.24749 349.051036 
L 651.159962 353.506127 
L 669.072433 350.248087 
L 686.984905 351.965668 
L 704.897376 349.938975 
L 722.809847 355.673126 
L 740.722319 352.52789 
L 758.63479 351.234704 
L 776.547262 352.517604 
L 794.459733 351.442114 
L 812.372205 352.397064 
" clip-path="url(#p1f4c17b457)" style="fill: none; stroke: #555555; stroke-width: 1.5; stroke-linecap: square"/>
   </g>
   <g id="line2d_40">
    <path d="M 118.836129 577 
L 131.69829 116.761749 
L 149.610761 140.968995 
L 167.523233 218.457194 
L 185.435704 261.485697 
L 203.348175 281.525713 
L 221.260647 296.475693 
L 239.173118 302.630273 
L 257.08559 311.21167 
L 274.998061 318.23599 
L 292.910533 317.802877 
L 310.823004 317.790753 
L 328.735476 321.623205 
L 346.647947 322.895786 
L 364.560418 326.760949 
L 382.47289 334.127823 
L 400.385361 328.870277 
L 418.297833 333.111797 
L 436.210304 332.148662 
L 454.122776 334.758482 
L 472.035247 332.869111 
L 489.947719 331.844405 
L 507.86019 331.618303 
L 525.772661 333.433387 
L 543.685133 336.787371 
L 561.597604 335.244074 
L 579.510076 335.169626 
L 597.422547 334.636173 
L 615.335019 338.904632 
L 633.24749 335.153683 
L 651.159962 335.231467 
L 669.072433 336.931244 
L 686.984905 336.238864 
L 704.897376 336.553324 
L 722.809847 339.161553 
L 740.722319 339.284845 
L 758.63479 337.698119 
L 776.547262 337.240133 
L 794.459733 339.5979 
L 812.372205 338.719303 
" clip-path="url(#p1f4c17b457)" style="fill: none; stroke: #555555; stroke-width: 1.5; stroke-linecap: square"/>
   </g>
   <g id="line2d_41">
    <path d="M 119.12199 577 
L 131.69829 139.896505 
L 149.610761 119.279114 
L 167.523233 174.495673 
L 185.435704 224.520967 
L 203.348175 245.174494 
L 221.260647 269.897476 
L 239.173118 280.813766 
L 257.08559 282.207886 
L 274.998061 290.961461 
L 292.910533 294.854729 
L 310.823004 304.243619 
L 328.735476 301.412541 
L 346.647947 301.152929 
L 364.560418 301.57012 
L 382.47289 308.27723 
L 400.385361 308.843645 
L 418.297833 307.759299 
L 436.210304 310.943653 
L 454.122776 310.692615 
L 472.035247 312.569966 
L 489.947719 315.164851 
L 507.86019 310.377385 
L 525.772661 319.209719 
L 543.685133 315.55343 
L 561.597604 319.597104 
L 579.510076 314.789292 
L 597.422547 320.487094 
L 615.335019 319.004327 
L 633.24749 315.989275 
L 651.159962 320.479269 
L 669.072433 321.332197 
L 686.984905 318.018497 
L 704.897376 319.1897 
L 722.809847 318.334041 
L 740.722319 318.491549 
L 758.63479 323.328208 
L 776.547262 324.429876 
L 794.459733 322.220788 
L 812.372205 319.913961 
" clip-path="url(#p1f4c17b457)" style="fill: none; stroke: #434343; stroke-width: 1.5; stroke-linecap: square"/>
   </g>
   <g id="line2d_42">
    <path d="M 118.944051 577 
L 131.69829 119.104548 
L 149.610761 146.533874 
L 167.523233 194.877233 
L 185.435704 229.81522 
L 203.348175 251.168511 
L 221.260647 263.740629 
L 239.173118 276.525303 
L 257.08559 273.431715 
L 274.998061 289.404163 
L 292.910533 287.498221 
L 310.823004 284.260019 
L 328.735476 292.003922 
L 346.647947 297.568983 
L 364.560418 293.010104 
L 382.47289 296.355331 
L 400.385361 293.698885 
L 418.297833 302.451936 
L 436.210304 297.149753 
L 454.122776 297.321302 
L 472.035247 295.222855 
L 489.947719 298.799055 
L 507.86019 298.58073 
L 525.772661 303.296584 
L 543.685133 305.70323 
L 561.597604 302.286791 
L 579.510076 304.112715 
L 597.422547 303.523921 
L 615.335019 299.928188 
L 633.24749 304.753603 
L 651.159962 303.437648 
L 669.072433 304.731255 
L 686.984905 309.215278 
L 704.897376 306.331999 
L 722.809847 305.271286 
L 740.722319 303.878285 
L 758.63479 309.480248 
L 776.547262 304.558766 
L 794.459733 305.295529 
L 812.372205 310.003307 
" clip-path="url(#p1f4c17b457)" style="fill: none; stroke: #303030; stroke-width: 1.5; stroke-linecap: square"/>
   </g>
   <g id="line2d_43">
    <path d="M 118.718194 577 
L 131.69829 124.525774 
L 149.610761 147.511726 
L 167.523233 186.818285 
L 185.435704 223.184619 
L 203.348175 239.007259 
L 221.260647 248.916448 
L 239.173118 254.218969 
L 257.08559 255.497111 
L 274.998061 261.205563 
L 292.910533 265.970252 
L 310.823004 266.837937 
L 328.735476 271.879999 
L 346.647947 271.527935 
L 364.560418 271.434055 
L 382.47289 275.012852 
L 400.385361 276.204613 
L 418.297833 280.124823 
L 436.210304 276.906634 
L 454.122776 280.611644 
L 472.035247 280.262938 
L 489.947719 279.573329 
L 507.86019 278.624197 
L 525.772661 282.566057 
L 543.685133 282.710535 
L 561.597604 282.459939 
L 579.510076 285.716265 
L 597.422547 284.328861 
L 615.335019 283.822735 
L 633.24749 288.219554 
L 651.159962 285.49427 
L 669.072433 286.031475 
L 686.984905 284.913791 
L 704.897376 285.718484 
L 722.809847 286.768389 
L 740.722319 286.95418 
L 758.63479 288.297624 
L 776.547262 287.089713 
L 794.459733 287.112543 
L 812.372205 289.981648 
" clip-path="url(#p1f4c17b457)" style="fill: none; stroke: #1e1e1e; stroke-width: 1.5; stroke-linecap: square"/>
   </g>
   <g id="line2d_44">
    <path d="M 118.711692 577 
L 131.69829 117.432209 
L 149.610761 171.382216 
L 167.523233 186.04465 
L 185.435704 219.421302 
L 203.348175 220.948343 
L 221.260647 245.044079 
L 239.173118 241.286643 
L 257.08559 241.949338 
L 274.998061 243.189635 
L 292.910533 253.35672 
L 310.823004 250.310984 
L 328.735476 256.336838 
L 346.647947 254.419649 
L 364.560418 254.561095 
L 382.47289 253.110064 
L 400.385361 258.691948 
L 418.297833 259.942992 
L 436.210304 257.160297 
L 454.122776 260.65398 
L 472.035247 262.745834 
L 489.947719 265.582154 
L 507.86019 266.511853 
L 525.772661 264.295131 
L 543.685133 261.713167 
L 561.597604 260.198091 
L 579.510076 264.327244 
L 597.422547 266.065593 
L 615.335019 266.835813 
L 633.24749 267.47155 
L 651.159962 268.211706 
L 669.072433 264.944604 
L 686.984905 265.286141 
L 704.897376 269.532728 
L 722.809847 265.123939 
L 740.722319 269.042735 
L 758.63479 264.162575 
L 776.547262 269.467531 
L 794.459733 264.618951 
L 812.372205 267.21365 
" clip-path="url(#p1f4c17b457)" style="fill: none; stroke: #0f0f0f; stroke-width: 1.5; stroke-linecap: square"/>
   </g>
   <g id="line2d_45">
    <path d="M 118.761112 577 
L 131.69829 147.865784 
L 149.610761 152.935396 
L 167.523233 190.522934 
L 185.435704 198.445257 
L 203.348175 215.675162 
L 221.260647 214.715461 
L 239.173118 218.039253 
L 257.08559 220.566958 
L 274.998061 223.425855 
L 292.910533 227.781266 
L 310.823004 228.038711 
L 328.735476 230.66072 
L 346.647947 230.771332 
L 364.560418 240.635468 
L 382.47289 231.198428 
L 400.385361 242.748226 
L 418.297833 242.770191 
L 436.210304 238.023092 
L 454.122776 236.039106 
L 472.035247 235.171536 
L 489.947719 236.131977 
L 507.86019 237.79381 
L 525.772661 240.450039 
L 543.685133 240.343411 
L 561.597604 238.74395 
L 579.510076 238.336265 
L 597.422547 239.164904 
L 615.335019 241.347035 
L 633.24749 240.438411 
L 651.159962 239.97138 
L 669.072433 243.775663 
L 686.984905 245.041524 
L 704.897376 245.150416 
L 722.809847 242.599243 
L 740.722319 246.379027 
L 758.63479 247.257409 
L 776.547262 242.647658 
L 794.459733 242.875662 
L 812.372205 240.967394 
" clip-path="url(#p1f4c17b457)" style="fill: none; stroke: #000000; stroke-width: 1.5; stroke-linecap: square"/>
   </g>
   <g id="line2d_46">
    <path d="M 115.918972 577 
L 117.368312 417.572692 
L 120.950807 331.286775 
L 124.533301 270.575134 
L 128.115795 222.501162 
L 131.69829 176.152969 
L 135.280784 136.787088 
L 138.863278 124.66686 
L 142.445772 114.595716 
L 146.028267 101.586936 
L 149.610761 102.556703 
L 153.193255 110.923353 
L 156.77575 105.995407 
L 160.358244 107.640392 
L 163.940738 111.953302 
L 167.523233 136.460815 
L 171.105727 132.155011 
L 174.688221 144.120727 
L 178.270715 162.502162 
L 181.85321 170.917309 
L 185.435704 188.426403 
L 189.018198 201.077279 
L 192.600693 212.800864 
L 196.183187 225.856626 
L 199.765681 248.847118 
L 203.348175 249.695964 
L 206.93067 259.7974 
L 210.513164 265.48507 
L 214.095658 275.058171 
L 217.678153 280.370602 
L 221.260647 287.290482 
L 224.843141 290.08234 
L 228.425635 301.422103 
L 232.00813 301.91642 
L 235.590624 307.234647 
L 239.173118 307.394129 
L 242.755613 309.485473 
L 246.338107 314.098667 
L 249.920601 324.353456 
L 253.503095 324.322908 
L 257.08559 330.024649 
L 260.668084 330.690748 
L 264.250578 327.010897 
L 267.833073 331.114203 
L 271.415567 326.929795 
L 274.998061 330.940685 
L 278.580556 330.691706 
L 282.16305 338.175887 
L 285.745544 335.979131 
L 289.328038 343.226266 
L 292.910533 342.447724 
L 296.493027 342.253024 
L 300.075521 337.338633 
L 303.658016 344.603309 
L 307.24051 342.233624 
L 310.823004 346.721782 
L 314.405498 347.650661 
L 317.987993 347.670566 
L 321.570487 347.244301 
L 325.152981 346.377638 
L 328.735476 346.88069 
L 332.31797 347.00556 
L 335.900464 357.024088 
L 339.482958 353.145117 
L 343.065453 355.907067 
L 346.647947 355.911149 
L 350.230441 350.726927 
L 353.812936 351.831341 
L 357.39543 352.757711 
L 360.977924 359.499609 
L 364.560418 351.81183 
L 368.142913 352.519449 
L 371.725407 352.911575 
L 378.890396 356.835973 
L 382.47289 356.060786 
L 386.055384 358.952275 
L 389.637878 357.975345 
L 393.220373 361.005269 
L 396.802867 361.999658 
L 400.385361 356.568901 
L 403.967856 356.437727 
L 407.55035 360.993188 
L 411.132844 358.158651 
L 414.715339 356.539104 
L 418.297833 367.467663 
L 421.880327 359.579559 
L 425.462821 361.069533 
L 429.045316 362.836218 
L 432.62781 361.459777 
L 436.210304 365.294115 
L 439.792799 364.919629 
L 443.375293 360.360692 
L 446.957787 359.61104 
L 450.540281 367.488992 
L 454.122776 363.549321 
L 457.70527 367.012571 
L 461.287764 361.430789 
L 464.870259 363.602559 
L 468.452753 365.196561 
L 475.617741 365.438166 
L 479.200236 367.578362 
L 482.78273 366.793662 
L 486.365224 366.757489 
L 489.947719 364.454032 
L 493.530213 365.564161 
L 497.112707 370.396821 
L 500.695201 362.077119 
L 504.277696 360.961598 
L 507.86019 367.406011 
L 511.442684 369.141746 
L 515.025179 367.428142 
L 518.607673 366.452615 
L 522.190167 367.988431 
L 525.772661 372.092681 
L 529.355156 368.069344 
L 532.93765 371.785669 
L 536.520144 368.547123 
L 540.102639 368.304668 
L 543.685133 367.608549 
L 547.267627 368.744727 
L 550.850122 366.2861 
L 554.432616 370.682049 
L 558.01511 368.295925 
L 561.597604 370.609094 
L 565.180099 368.722845 
L 568.762593 376.306407 
L 572.345087 370.188955 
L 575.927582 370.727597 
L 579.510076 370.874571 
L 583.09257 372.856494 
L 586.675064 371.01276 
L 590.257559 369.5751 
L 593.840053 366.086289 
L 597.422547 370.840411 
L 601.005042 370.954928 
L 604.587536 373.900936 
L 608.17003 373.367178 
L 611.752524 370.124057 
L 615.335019 371.785552 
L 618.917513 370.57567 
L 622.500007 370.646464 
L 626.082502 369.692138 
L 629.664996 370.21122 
L 633.24749 373.103712 
L 636.829984 371.539882 
L 640.412479 372.067149 
L 643.994973 371.12186 
L 647.577467 368.406334 
L 651.159962 371.663356 
L 654.742456 373.018827 
L 658.32495 367.8332 
L 661.907444 371.147071 
L 665.489939 375.050516 
L 669.072433 369.250464 
L 672.654927 374.903423 
L 676.237422 375.163712 
L 679.819916 370.074224 
L 683.40241 375.458364 
L 686.984905 373.576887 
L 690.567399 376.880998 
L 694.149893 375.934496 
L 697.732387 373.472969 
L 701.314882 371.772127 
L 704.897376 371.725053 
L 708.47987 369.748871 
L 712.062365 373.124926 
L 715.644859 370.781422 
L 719.227353 374.725686 
L 722.809847 373.786788 
L 726.392342 375.520978 
L 729.974836 374.635744 
L 733.55733 374.335957 
L 737.139825 375.017809 
L 740.722319 371.708386 
L 744.304813 376.823337 
L 747.887307 373.535363 
L 751.469802 373.351628 
L 755.052296 376.972631 
L 758.63479 371.775481 
L 762.217285 378.122655 
L 765.799779 374.941137 
L 769.382273 375.197086 
L 772.964767 374.368409 
L 776.547262 371.931557 
L 780.129756 373.828994 
L 783.71225 373.121547 
L 787.294745 373.461959 
L 790.877239 372.375884 
L 794.459733 376.197539 
L 798.042228 376.41219 
L 801.624722 376.963746 
L 805.207216 376.363612 
L 808.78971 377.197294 
L 812.372205 375.189077 
L 815.954699 376.061679 
L 819.537193 374.689278 
L 823.119688 372.643462 
L 826.702182 378.44723 
L 826.702182 378.44723 
" clip-path="url(#p1f4c17b457)" style="fill: none; stroke: #1f77b4; stroke-width: 1.5; stroke-linecap: square"/>
   </g>
   <g id="line2d_47">
    <path d="M 115.869921 577 
L 117.368312 422.710117 
L 120.950807 339.728789 
L 124.533301 244.978774 
L 128.115795 201.739042 
L 131.69829 153.799316 
L 135.280784 148.756452 
L 138.863278 106.960618 
L 142.445772 102.566714 
L 146.028267 97.512024 
L 149.610761 131.665734 
L 153.193255 113.469719 
L 156.77575 116.989322 
L 160.358244 138.672795 
L 163.940738 129.351943 
L 167.523233 147.145798 
L 171.105727 160.143981 
L 174.688221 166.965081 
L 178.270715 182.866601 
L 181.85321 202.139304 
L 185.435704 214.47756 
L 189.018198 224.948405 
L 192.600693 233.765892 
L 196.183187 246.370373 
L 199.765681 251.825661 
L 203.348175 261.722116 
L 206.93067 282.31873 
L 210.513164 284.127661 
L 214.095658 283.340689 
L 217.678153 295.270998 
L 221.260647 293.204778 
L 224.843141 298.683532 
L 228.425635 302.330038 
L 232.00813 307.92748 
L 235.590624 312.155279 
L 239.173118 311.719479 
L 242.755613 317.169293 
L 246.338107 376.472939 
L 249.920601 326.607569 
L 253.503095 324.587029 
L 257.08559 321.441717 
L 260.668084 321.041248 
L 264.250578 325.419623 
L 267.833073 326.991336 
L 271.415567 332.373438 
L 274.998061 330.394075 
L 278.580556 337.161308 
L 282.16305 329.383694 
L 285.745544 332.29629 
L 289.328038 337.78078 
L 292.910533 332.864856 
L 296.493027 334.236281 
L 300.075521 344.403548 
L 303.658016 342.22837 
L 307.24051 344.384319 
L 310.823004 340.372302 
L 314.405498 345.867378 
L 317.987993 344.89087 
L 321.570487 352.654927 
L 325.152981 344.117886 
L 328.735476 350.277221 
L 332.31797 352.356879 
L 335.900464 349.84454 
L 339.482958 349.57667 
L 343.065453 348.948885 
L 346.647947 346.453733 
L 350.230441 349.604147 
L 353.812936 486.124962 
L 357.39543 352.383067 
L 360.977924 357.031523 
L 364.560418 350.536833 
L 368.142913 355.89843 
L 371.725407 355.371088 
L 375.307901 351.152564 
L 378.890396 351.752011 
L 382.47289 352.706986 
L 386.055384 359.683794 
L 389.637878 353.911209 
L 393.220373 354.554576 
L 396.802867 357.632607 
L 400.385361 356.877568 
L 403.967856 356.86918 
L 407.55035 357.923395 
L 411.132844 361.00179 
L 414.715339 358.462253 
L 418.297833 356.606476 
L 421.880327 357.515409 
L 425.462821 359.913041 
L 429.045316 358.347932 
L 432.62781 357.633625 
L 436.210304 362.247853 
L 439.792799 358.596061 
L 443.375293 356.033574 
L 446.957787 363.457598 
L 450.540281 357.631642 
L 454.122776 362.244334 
L 457.70527 361.839121 
L 461.287764 359.202587 
L 464.870259 360.437142 
L 468.452753 361.945109 
L 472.035247 364.083816 
L 475.617741 363.973478 
L 479.200236 361.235796 
L 482.78273 363.409933 
L 486.365224 365.091919 
L 489.947719 362.056566 
L 493.530213 359.957882 
L 497.112707 364.38788 
L 500.695201 360.343461 
L 504.277696 370.099665 
L 507.86019 363.024449 
L 511.442684 363.610857 
L 515.025179 366.787507 
L 518.607673 362.206173 
L 522.190167 367.392278 
L 525.772661 367.826315 
L 529.355156 367.061583 
L 532.93765 364.163098 
L 536.520144 366.612476 
L 540.102639 363.382716 
L 543.685133 367.000087 
L 547.267627 364.695563 
L 550.850122 365.318108 
L 554.432616 368.654115 
L 558.01511 365.644244 
L 561.597604 363.933504 
L 565.180099 367.646665 
L 568.762593 367.308837 
L 572.345087 365.085743 
L 575.927582 369.682096 
L 579.510076 367.059771 
L 583.09257 371.467912 
L 586.675064 367.984423 
L 590.257559 369.927563 
L 593.840053 369.225655 
L 597.422547 368.778147 
L 601.005042 370.427501 
L 604.587536 367.719724 
L 608.17003 370.44875 
L 611.752524 367.575739 
L 615.335019 371.870492 
L 618.917513 369.969919 
L 622.500007 370.665738 
L 626.082502 369.51621 
L 629.664996 368.788071 
L 633.24749 366.36663 
L 636.829984 375.345666 
L 640.412479 368.253211 
L 643.994973 370.789383 
L 647.577467 368.652339 
L 651.159962 367.757872 
L 654.742456 369.469554 
L 658.32495 370.943902 
L 661.907444 369.367123 
L 665.489939 373.475123 
L 669.072433 375.628282 
L 672.654927 370.133711 
L 676.237422 370.553819 
L 679.819916 368.581296 
L 683.40241 373.63566 
L 686.984905 370.923851 
L 690.567399 371.714185 
L 694.149893 371.471689 
L 697.732387 376.187019 
L 701.314882 368.897264 
L 704.897376 370.179664 
L 708.47987 375.833301 
L 712.062365 370.914759 
L 715.644859 373.868944 
L 719.227353 373.925377 
L 722.809847 372.362733 
L 729.974836 374.118814 
L 733.55733 374.243952 
L 737.139825 372.985748 
L 740.722319 371.906681 
L 744.304813 374.504479 
L 747.887307 375.129714 
L 751.469802 373.295547 
L 755.052296 372.190286 
L 758.63479 371.81638 
L 762.217285 371.726394 
L 765.799779 372.197205 
L 769.382273 374.399282 
L 772.964767 374.82449 
L 776.547262 375.797362 
L 780.129756 373.824138 
L 783.71225 372.366819 
L 787.294745 374.064293 
L 790.877239 374.824324 
L 794.459733 373.378451 
L 798.042228 372.645934 
L 801.624722 376.194977 
L 805.207216 371.518937 
L 808.78971 376.345079 
L 812.372205 374.805548 
L 815.954699 375.071627 
L 819.537193 376.088139 
L 823.119688 377.450192 
L 826.702182 376.170717 
L 826.702182 376.170717 
" clip-path="url(#p1f4c17b457)" style="fill: none; stroke: #ff7f0e; stroke-width: 1.5; stroke-linecap: square"/>
   </g>
   <g id="patch_3">
    <path d="M 78.14 503.08 
L 78.14 46.32 
" style="fill: none; stroke: #000000; stroke-width: 0.8; stroke-linejoin: miter; stroke-linecap: square"/>
   </g>
   <g id="patch_4">
    <path d="M 862.348 503.08 
L 862.348 46.32 
" style="fill: none; stroke: #000000; stroke-width: 0.8; stroke-linejoin: miter; stroke-linecap: square"/>
   </g>
   <g id="patch_5">
    <path d="M 78.14 503.08 
L 862.348 503.08 
" style="fill: none; stroke: #000000; stroke-width: 0.8; stroke-linejoin: miter; stroke-linecap: square"/>
   </g>
   <g id="patch_6">
    <path d="M 78.14 46.32 
L 862.348 46.32 
" style="fill: none; stroke: #000000; stroke-width: 0.8; stroke-linejoin: miter; stroke-linecap: square"/>
   </g>
   <g id="text_19">
    <!-- PSNR vs. Number of Epochs -->
    <g transform="translate(302.8815 40.32) scale(0.24 -0.24)">
     <defs>
      <path id="DejaVuSans-76" d="M 191 3500 
L 800 3500 
L 1894 563 
L 2988 3500 
L 3597 3500 
L 2284 0 
L 1503 0 
L 191 3500 
z
" transform="scale(0.015625)"/>
      <path id="DejaVuSans-2e" d="M 684 794 
L 1344 794 
L 1344 0 
L 684 0 
L 684 794 
z
" transform="scale(0.015625)"/>
     </defs>
     <use xlink:href="#DejaVuSans-50"/>
     <use xlink:href="#DejaVuSans-53" x="60.302734"/>
     <use xlink:href="#DejaVuSans-4e" x="123.779297"/>
     <use xlink:href="#DejaVuSans-52" x="198.583984"/>
     <use xlink:href="#DejaVuSans-20" x="268.066406"/>
     <use xlink:href="#DejaVuSans-76" x="299.853516"/>
     <use xlink:href="#DejaVuSans-73" x="359.033203"/>
     <use xlink:href="#DejaVuSans-2e" x="411.132812"/>
     <use xlink:href="#DejaVuSans-20" x="442.919922"/>
     <use xlink:href="#DejaVuSans-4e" x="474.707031"/>
     <use xlink:href="#DejaVuSans-75" x="549.511719"/>
     <use xlink:href="#DejaVuSans-6d" x="612.890625"/>
     <use xlink:href="#DejaVuSans-62" x="710.302734"/>
     <use xlink:href="#DejaVuSans-65" x="773.779297"/>
     <use xlink:href="#DejaVuSans-72" x="835.302734"/>
     <use xlink:href="#DejaVuSans-20" x="876.416016"/>
     <use xlink:href="#DejaVuSans-6f" x="908.203125"/>
     <use xlink:href="#DejaVuSans-66" x="969.384766"/>
     <use xlink:href="#DejaVuSans-20" x="1004.589844"/>
     <use xlink:href="#DejaVuSans-45" x="1036.376953"/>
     <use xlink:href="#DejaVuSans-70" x="1099.560547"/>
     <use xlink:href="#DejaVuSans-6f" x="1163.037109"/>
     <use xlink:href="#DejaVuSans-63" x="1224.21875"/>
     <use xlink:href="#DejaVuSans-68" x="1279.199219"/>
     <use xlink:href="#DejaVuSans-73" x="1342.578125"/>
    </g>
   </g>
   <g id="legend_1">
    <g id="patch_7">
     <path d="M 677.75425 150.38875 
L 848.348 150.38875 
Q 852.348 150.38875 852.348 146.38875 
L 852.348 60.32 
Q 852.348 56.32 848.348 56.32 
L 677.75425 56.32 
Q 673.75425 56.32 673.75425 60.32 
L 673.75425 146.38875 
Q 673.75425 150.38875 677.75425 150.38875 
z
" style="fill: #ffffff; opacity: 0.8; stroke: #cccccc; stroke-linejoin: miter"/>
    </g>
    <g id="line2d_48">
     <path d="M 681.75425 72.516875 
L 701.75425 72.516875 
L 721.75425 72.516875 
" style="fill: none; stroke: #00008b; stroke-width: 1.5; stroke-linecap: square"/>
    </g>
    <g id="text_20">
     <!-- OES (ours) -->
     <g transform="translate(737.75425 79.516875) scale(0.2 -0.2)">
      <defs>
       <path id="DejaVuSans-4f" d="M 2522 4238 
Q 1834 4238 1429 3725 
Q 1025 3213 1025 2328 
Q 1025 1447 1429 934 
Q 1834 422 2522 422 
Q 3209 422 3611 934 
Q 4013 1447 4013 2328 
Q 4013 3213 3611 3725 
Q 3209 4238 2522 4238 
z
M 2522 4750 
Q 3503 4750 4090 4092 
Q 4678 3434 4678 2328 
Q 4678 1225 4090 567 
Q 3503 -91 2522 -91 
Q 1538 -91 948 565 
Q 359 1222 359 2328 
Q 359 3434 948 4092 
Q 1538 4750 2522 4750 
z
" transform="scale(0.015625)"/>
       <path id="DejaVuSans-28" d="M 1984 4856 
Q 1566 4138 1362 3434 
Q 1159 2731 1159 2009 
Q 1159 1288 1364 580 
Q 1569 -128 1984 -844 
L 1484 -844 
Q 1016 -109 783 600 
Q 550 1309 550 2009 
Q 550 2706 781 3412 
Q 1013 4119 1484 4856 
L 1984 4856 
z
" transform="scale(0.015625)"/>
       <path id="DejaVuSans-29" d="M 513 4856 
L 1013 4856 
Q 1481 4119 1714 3412 
Q 1947 2706 1947 2009 
Q 1947 1309 1714 600 
Q 1481 -109 1013 -844 
L 513 -844 
Q 928 -128 1133 580 
Q 1338 1288 1338 2009 
Q 1338 2731 1133 3434 
Q 928 4138 513 4856 
z
" transform="scale(0.015625)"/>
      </defs>
      <use xlink:href="#DejaVuSans-4f"/>
      <use xlink:href="#DejaVuSans-45" x="78.710938"/>
      <use xlink:href="#DejaVuSans-53" x="141.894531"/>
      <use xlink:href="#DejaVuSans-20" x="205.371094"/>
      <use xlink:href="#DejaVuSans-28" x="237.158203"/>
      <use xlink:href="#DejaVuSans-6f" x="276.171875"/>
      <use xlink:href="#DejaVuSans-75" x="337.353516"/>
      <use xlink:href="#DejaVuSans-72" x="400.732422"/>
      <use xlink:href="#DejaVuSans-73" x="441.845703"/>
      <use xlink:href="#DejaVuSans-29" x="493.945312"/>
     </g>
    </g>
    <g id="line2d_49">
     <path d="M 681.75425 101.873125 
L 701.75425 101.873125 
L 721.75425 101.873125 
" style="fill: none; stroke: #1f77b4; stroke-width: 1.5; stroke-linecap: square"/>
    </g>
    <g id="text_21">
     <!-- synflow -->
     <g transform="translate(737.75425 108.873125) scale(0.2 -0.2)">
      <defs>
       <path id="DejaVuSans-79" d="M 2059 -325 
Q 1816 -950 1584 -1140 
Q 1353 -1331 966 -1331 
L 506 -1331 
L 506 -850 
L 844 -850 
Q 1081 -850 1212 -737 
Q 1344 -625 1503 -206 
L 1606 56 
L 191 3500 
L 800 3500 
L 1894 763 
L 2988 3500 
L 3597 3500 
L 2059 -325 
z
" transform="scale(0.015625)"/>
       <path id="DejaVuSans-6e" d="M 3513 2113 
L 3513 0 
L 2938 0 
L 2938 2094 
Q 2938 2591 2744 2837 
Q 2550 3084 2163 3084 
Q 1697 3084 1428 2787 
Q 1159 2491 1159 1978 
L 1159 0 
L 581 0 
L 581 3500 
L 1159 3500 
L 1159 2956 
Q 1366 3272 1645 3428 
Q 1925 3584 2291 3584 
Q 2894 3584 3203 3211 
Q 3513 2838 3513 2113 
z
" transform="scale(0.015625)"/>
       <path id="DejaVuSans-6c" d="M 603 4863 
L 1178 4863 
L 1178 0 
L 603 0 
L 603 4863 
z
" transform="scale(0.015625)"/>
       <path id="DejaVuSans-77" d="M 269 3500 
L 844 3500 
L 1563 769 
L 2278 3500 
L 2956 3500 
L 3675 769 
L 4391 3500 
L 4966 3500 
L 4050 0 
L 3372 0 
L 2619 2869 
L 1863 0 
L 1184 0 
L 269 3500 
z
" transform="scale(0.015625)"/>
      </defs>
      <use xlink:href="#DejaVuSans-73"/>
      <use xlink:href="#DejaVuSans-79" x="52.099609"/>
      <use xlink:href="#DejaVuSans-6e" x="111.279297"/>
      <use xlink:href="#DejaVuSans-66" x="174.658203"/>
      <use xlink:href="#DejaVuSans-6c" x="209.863281"/>
      <use xlink:href="#DejaVuSans-6f" x="237.646484"/>
      <use xlink:href="#DejaVuSans-77" x="298.828125"/>
     </g>
    </g>
    <g id="line2d_50">
     <path d="M 681.75425 131.229375 
L 701.75425 131.229375 
L 721.75425 131.229375 
" style="fill: none; stroke: #ff7f0e; stroke-width: 1.5; stroke-linecap: square"/>
    </g>
    <g id="text_22">
     <!-- grasp -->
     <g transform="translate(737.75425 138.229375) scale(0.2 -0.2)">
      <defs>
       <path id="DejaVuSans-67" d="M 2906 1791 
Q 2906 2416 2648 2759 
Q 2391 3103 1925 3103 
Q 1463 3103 1205 2759 
Q 947 2416 947 1791 
Q 947 1169 1205 825 
Q 1463 481 1925 481 
Q 2391 481 2648 825 
Q 2906 1169 2906 1791 
z
M 3481 434 
Q 3481 -459 3084 -895 
Q 2688 -1331 1869 -1331 
Q 1566 -1331 1297 -1286 
Q 1028 -1241 775 -1147 
L 775 -588 
Q 1028 -725 1275 -790 
Q 1522 -856 1778 -856 
Q 2344 -856 2625 -561 
Q 2906 -266 2906 331 
L 2906 616 
Q 2728 306 2450 153 
Q 2172 0 1784 0 
Q 1141 0 747 490 
Q 353 981 353 1791 
Q 353 2603 747 3093 
Q 1141 3584 1784 3584 
Q 2172 3584 2450 3431 
Q 2728 3278 2906 2969 
L 2906 3500 
L 3481 3500 
L 3481 434 
z
" transform="scale(0.015625)"/>
       <path id="DejaVuSans-61" d="M 2194 1759 
Q 1497 1759 1228 1600 
Q 959 1441 959 1056 
Q 959 750 1161 570 
Q 1363 391 1709 391 
Q 2188 391 2477 730 
Q 2766 1069 2766 1631 
L 2766 1759 
L 2194 1759 
z
M 3341 1997 
L 3341 0 
L 2766 0 
L 2766 531 
Q 2569 213 2275 61 
Q 1981 -91 1556 -91 
Q 1019 -91 701 211 
Q 384 513 384 1019 
Q 384 1609 779 1909 
Q 1175 2209 1959 2209 
L 2766 2209 
L 2766 2266 
Q 2766 2663 2505 2880 
Q 2244 3097 1772 3097 
Q 1472 3097 1187 3025 
Q 903 2953 641 2809 
L 641 3341 
Q 956 3463 1253 3523 
Q 1550 3584 1831 3584 
Q 2591 3584 2966 3190 
Q 3341 2797 3341 1997 
z
" transform="scale(0.015625)"/>
      </defs>
      <use xlink:href="#DejaVuSans-67"/>
      <use xlink:href="#DejaVuSans-72" x="63.476562"/>
      <use xlink:href="#DejaVuSans-61" x="104.589844"/>
      <use xlink:href="#DejaVuSans-73" x="165.869141"/>
      <use xlink:href="#DejaVuSans-70" x="217.96875"/>
     </g>
    </g>
   </g>
  </g>
  <g id="axes_2">
   <g id="patch_8">
    <path d="M 911.361 503.08 
L 934.199 503.08 
L 934.199 46.32 
L 911.361 46.32 
z
" style="fill: #ffffff"/>
   </g>
   <g id="QuadMesh_1">
    <path d="M 911.361 503.08 
L 934.199 503.08 
L 934.199 465.016667 
L 911.361 465.016667 
L 911.361 503.08 
" clip-path="url(#p11663d6d53)" style="fill: #afafaf"/>
    <path d="M 911.361 465.016667 
L 934.199 465.016667 
L 934.199 426.953333 
L 911.361 426.953333 
L 911.361 465.016667 
" clip-path="url(#p11663d6d53)" style="fill: #9e9e9e"/>
    <path d="M 911.361 426.953333 
L 934.199 426.953333 
L 934.199 388.89 
L 911.361 388.89 
L 911.361 426.953333 
" clip-path="url(#p11663d6d53)" style="fill: #8f8f8f"/>
    <path d="M 911.361 388.89 
L 934.199 388.89 
L 934.199 350.826667 
L 911.361 350.826667 
L 911.361 388.89 
" clip-path="url(#p11663d6d53)" style="fill: #7f7f7f"/>
    <path d="M 911.361 350.826667 
L 934.199 350.826667 
L 934.199 312.763333 
L 911.361 312.763333 
L 911.361 350.826667 
" clip-path="url(#p11663d6d53)" style="fill: #717171"/>
    <path d="M 911.361 312.763333 
L 934.199 312.763333 
L 934.199 274.7 
L 911.361 274.7 
L 911.361 312.763333 
" clip-path="url(#p11663d6d53)" style="fill: #636363"/>
    <path d="M 911.361 274.7 
L 934.199 274.7 
L 934.199 236.636667 
L 911.361 236.636667 
L 911.361 274.7 
" clip-path="url(#p11663d6d53)" style="fill: #555555"/>
    <path d="M 911.361 236.636667 
L 934.199 236.636667 
L 934.199 198.573333 
L 911.361 198.573333 
L 911.361 236.636667 
" clip-path="url(#p11663d6d53)" style="fill: #434343"/>
    <path d="M 911.361 198.573333 
L 934.199 198.573333 
L 934.199 160.51 
L 911.361 160.51 
L 911.361 198.573333 
" clip-path="url(#p11663d6d53)" style="fill: #303030"/>
    <path d="M 911.361 160.51 
L 934.199 160.51 
L 934.199 122.446667 
L 911.361 122.446667 
L 911.361 160.51 
" clip-path="url(#p11663d6d53)" style="fill: #1e1e1e"/>
    <path d="M 911.361 122.446667 
L 934.199 122.446667 
L 934.199 84.383333 
L 911.361 84.383333 
L 911.361 122.446667 
" clip-path="url(#p11663d6d53)" style="fill: #0f0f0f"/>
    <path d="M 911.361 84.383333 
L 934.199 84.383333 
L 934.199 46.32 
L 911.361 46.32 
L 911.361 84.383333 
" clip-path="url(#p11663d6d53)"/>
   </g>
   <g id="matplotlib.axis_3"/>
   <g id="matplotlib.axis_4">
    <g id="ytick_8">
     <g id="line2d_51">
      <defs>
       <path id="m2b2d222546" d="M 0 0 
L 3.5 0 
" style="stroke: #000000; stroke-width: 0.8"/>
      </defs>
      <g>
       <use xlink:href="#m2b2d222546" x="934.199" y="503.08" style="stroke: #000000; stroke-width: 0.8"/>
      </g>
     </g>
     <g id="text_23">
      <!-- 1 -->
      <g transform="translate(941.199 510.678437) scale(0.2 -0.2)">
       <use xlink:href="#DejaVuSans-31"/>
      </g>
     </g>
    </g>
    <g id="ytick_9">
     <g id="line2d_52">
      <g>
       <use xlink:href="#m2b2d222546" x="934.199" y="432.809231" style="stroke: #000000; stroke-width: 0.8"/>
      </g>
     </g>
     <g id="text_24">
      <!-- 3 -->
      <g transform="translate(941.199 440.407668) scale(0.2 -0.2)">
       <use xlink:href="#DejaVuSans-33"/>
      </g>
     </g>
    </g>
    <g id="ytick_10">
     <g id="line2d_53">
      <g>
       <use xlink:href="#m2b2d222546" x="934.199" y="362.538462" style="stroke: #000000; stroke-width: 0.8"/>
      </g>
     </g>
     <g id="text_25">
      <!-- 5 -->
      <g transform="translate(941.199 370.136899) scale(0.2 -0.2)">
       <use xlink:href="#DejaVuSans-35"/>
      </g>
     </g>
    </g>
    <g id="ytick_11">
     <g id="line2d_54">
      <g>
       <use xlink:href="#m2b2d222546" x="934.199" y="292.267692" style="stroke: #000000; stroke-width: 0.8"/>
      </g>
     </g>
     <g id="text_26">
      <!-- 7 -->
      <g transform="translate(941.199 299.86613) scale(0.2 -0.2)">
       <defs>
        <path id="DejaVuSans-37" d="M 525 4666 
L 3525 4666 
L 3525 4397 
L 1831 0 
L 1172 0 
L 2766 4134 
L 525 4134 
L 525 4666 
z
" transform="scale(0.015625)"/>
       </defs>
       <use xlink:href="#DejaVuSans-37"/>
      </g>
     </g>
    </g>
    <g id="ytick_12">
     <g id="line2d_55">
      <g>
       <use xlink:href="#m2b2d222546" x="934.199" y="221.996923" style="stroke: #000000; stroke-width: 0.8"/>
      </g>
     </g>
     <g id="text_27">
      <!-- 9 -->
      <g transform="translate(941.199 229.595361) scale(0.2 -0.2)">
       <defs>
        <path id="DejaVuSans-39" d="M 703 97 
L 703 672 
Q 941 559 1184 500 
Q 1428 441 1663 441 
Q 2288 441 2617 861 
Q 2947 1281 2994 2138 
Q 2813 1869 2534 1725 
Q 2256 1581 1919 1581 
Q 1219 1581 811 2004 
Q 403 2428 403 3163 
Q 403 3881 828 4315 
Q 1253 4750 1959 4750 
Q 2769 4750 3195 4129 
Q 3622 3509 3622 2328 
Q 3622 1225 3098 567 
Q 2575 -91 1691 -91 
Q 1453 -91 1209 -44 
Q 966 3 703 97 
z
M 1959 2075 
Q 2384 2075 2632 2365 
Q 2881 2656 2881 3163 
Q 2881 3666 2632 3958 
Q 2384 4250 1959 4250 
Q 1534 4250 1286 3958 
Q 1038 3666 1038 3163 
Q 1038 2656 1286 2365 
Q 1534 2075 1959 2075 
z
" transform="scale(0.015625)"/>
       </defs>
       <use xlink:href="#DejaVuSans-39"/>
      </g>
     </g>
    </g>
    <g id="ytick_13">
     <g id="line2d_56">
      <g>
       <use xlink:href="#m2b2d222546" x="934.199" y="151.726154" style="stroke: #000000; stroke-width: 0.8"/>
      </g>
     </g>
     <g id="text_28">
      <!-- 11 -->
      <g transform="translate(941.199 159.324591) scale(0.2 -0.2)">
       <use xlink:href="#DejaVuSans-31"/>
       <use xlink:href="#DejaVuSans-31" x="63.623047"/>
      </g>
     </g>
    </g>
    <g id="ytick_14">
     <g id="line2d_57">
      <g>
       <use xlink:href="#m2b2d222546" x="934.199" y="81.455385" style="stroke: #000000; stroke-width: 0.8"/>
      </g>
     </g>
     <g id="text_29">
      <!-- 13 -->
      <g transform="translate(941.199 89.053822) scale(0.2 -0.2)">
       <use xlink:href="#DejaVuSans-31"/>
       <use xlink:href="#DejaVuSans-33" x="63.623047"/>
      </g>
     </g>
    </g>
    <g id="text_30">
     <!-- IMP iterations -->
     <g transform="translate(985.845875 342.940625) rotate(-90) scale(0.2 -0.2)">
      <defs>
       <path id="DejaVuSans-49" d="M 628 4666 
L 1259 4666 
L 1259 0 
L 628 0 
L 628 4666 
z
" transform="scale(0.015625)"/>
       <path id="DejaVuSans-4d" d="M 628 4666 
L 1569 4666 
L 2759 1491 
L 3956 4666 
L 4897 4666 
L 4897 0 
L 4281 0 
L 4281 4097 
L 3078 897 
L 2444 897 
L 1241 4097 
L 1241 0 
L 628 0 
L 628 4666 
z
" transform="scale(0.015625)"/>
       <path id="DejaVuSans-69" d="M 603 3500 
L 1178 3500 
L 1178 0 
L 603 0 
L 603 3500 
z
M 603 4863 
L 1178 4863 
L 1178 4134 
L 603 4134 
L 603 4863 
z
" transform="scale(0.015625)"/>
       <path id="DejaVuSans-74" d="M 1172 4494 
L 1172 3500 
L 2356 3500 
L 2356 3053 
L 1172 3053 
L 1172 1153 
Q 1172 725 1289 603 
Q 1406 481 1766 481 
L 2356 481 
L 2356 0 
L 1766 0 
Q 1100 0 847 248 
Q 594 497 594 1153 
L 594 3053 
L 172 3053 
L 172 3500 
L 594 3500 
L 594 4494 
L 1172 4494 
z
" transform="scale(0.015625)"/>
      </defs>
      <use xlink:href="#DejaVuSans-49"/>
      <use xlink:href="#DejaVuSans-4d" x="29.492188"/>
      <use xlink:href="#DejaVuSans-50" x="115.771484"/>
      <use xlink:href="#DejaVuSans-20" x="176.074219"/>
      <use xlink:href="#DejaVuSans-69" x="207.861328"/>
      <use xlink:href="#DejaVuSans-74" x="235.644531"/>
      <use xlink:href="#DejaVuSans-65" x="274.853516"/>
      <use xlink:href="#DejaVuSans-72" x="336.376953"/>
      <use xlink:href="#DejaVuSans-61" x="377.490234"/>
      <use xlink:href="#DejaVuSans-74" x="438.769531"/>
      <use xlink:href="#DejaVuSans-69" x="477.978516"/>
      <use xlink:href="#DejaVuSans-6f" x="505.761719"/>
      <use xlink:href="#DejaVuSans-6e" x="566.943359"/>
      <use xlink:href="#DejaVuSans-73" x="630.322266"/>
     </g>
    </g>
   </g>
   <g id="LineCollection_1"/>
   <g id="patch_9">
    <path d="M 911.361 503.08 
L 922.78 503.08 
L 934.199 503.08 
L 934.199 46.32 
L 922.78 46.32 
L 911.361 46.32 
L 911.361 503.08 
z
" style="fill: none; stroke: #000000; stroke-width: 0.8; stroke-linejoin: miter; stroke-linecap: square"/>
   </g>
  </g>
 </g>
 <defs>
  <clipPath id="p1f4c17b457">
   <rect x="78.14" y="46.32" width="784.208" height="456.76"/>
  </clipPath>
  <clipPath id="p11663d6d53">
   <rect x="911.361" y="46.32" width="22.838" height="456.76"/>
  </clipPath>
 </defs>
</svg>
