<?xml version="1.0" encoding="utf-8" standalone="no"?>
<!DOCTYPE svg PUBLIC "-//W3C//DTD SVG 1.1//EN"
  "http://www.w3.org/Graphics/SVG/1.1/DTD/svg11.dtd">
<svg xmlns:xlink="http://www.w3.org/1999/xlink" width="1080pt" height="576pt" viewBox="0 0 1080 576" xmlns="http://www.w3.org/2000/svg" version="1.1">
 <metadata>
  <rdf:RDF xmlns:dc="http://purl.org/dc/elements/1.1/" xmlns:cc="http://creativecommons.org/ns#" xmlns:rdf="http://www.w3.org/1999/02/22-rdf-syntax-ns#">
   <cc:Work>
    <dc:type rdf:resource="http://purl.org/dc/dcmitype/StillImage"/>
    <dc:date>2024-01-20T16:20:40.086791</dc:date>
    <dc:format>image/svg+xml</dc:format>
    <dc:creator>
     <cc:Agent>
      <dc:title>Matplotlib v3.7.0, https://matplotlib.org/</dc:title>
     </cc:Agent>
    </dc:creator>
   </cc:Work>
  </rdf:RDF>
 </metadata>
 <defs>
  <style type="text/css">*{stroke-linejoin: round; stroke-linecap: butt}</style>
 </defs>
 <g id="figure_1">
  <g id="patch_1">
   <path d="M 0 576 
L 1080 576 
L 1080 0 
L 0 0 
z
" style="fill: #ffffff"/>
  </g>
  <g id="axes_1">
   <g id="patch_2">
    <path d="M 78.14 503.08 
L 862.348 503.08 
L 862.348 46.32 
L 78.14 46.32 
z
" style="fill: #ffffff"/>
   </g>
   <g id="matplotlib.axis_1">
    <g id="xtick_1">
     <g id="line2d_1">
      <path d="M 113.785818 503.08 
L 113.785818 46.32 
" clip-path="url(#p7029ab3f94)" style="fill: none; stroke: #b0b0b0; stroke-width: 0.8; stroke-linecap: square"/>
     </g>
     <g id="line2d_2">
      <defs>
       <path id="mbeed306b6d" d="M 0 0 
L 0 3.5 
" style="stroke: #000000; stroke-width: 0.8"/>
      </defs>
      <g>
       <use xlink:href="#mbeed306b6d" x="113.785818" y="503.08" style="stroke: #000000; stroke-width: 0.8"/>
      </g>
     </g>
     <g id="text_1">
      <!-- 0 -->
      <g transform="translate(107.423318 525.276875) scale(0.2 -0.2)">
       <defs>
        <path id="DejaVuSans-30" d="M 2034 4250 
Q 1547 4250 1301 3770 
Q 1056 3291 1056 2328 
Q 1056 1369 1301 889 
Q 1547 409 2034 409 
Q 2525 409 2770 889 
Q 3016 1369 3016 2328 
Q 3016 3291 2770 3770 
Q 2525 4250 2034 4250 
z
M 2034 4750 
Q 2819 4750 3233 4129 
Q 3647 3509 3647 2328 
Q 3647 1150 3233 529 
Q 2819 -91 2034 -91 
Q 1250 -91 836 529 
Q 422 1150 422 2328 
Q 422 3509 836 4129 
Q 1250 4750 2034 4750 
z
" transform="scale(0.015625)"/>
       </defs>
       <use xlink:href="#DejaVuSans-30"/>
      </g>
     </g>
    </g>
    <g id="xtick_2">
     <g id="line2d_3">
      <path d="M 203.348175 503.08 
L 203.348175 46.32 
" clip-path="url(#p7029ab3f94)" style="fill: none; stroke: #b0b0b0; stroke-width: 0.8; stroke-linecap: square"/>
     </g>
     <g id="line2d_4">
      <g>
       <use xlink:href="#mbeed306b6d" x="203.348175" y="503.08" style="stroke: #000000; stroke-width: 0.8"/>
      </g>
     </g>
     <g id="text_2">
      <!-- 5000 -->
      <g transform="translate(177.898175 525.276875) scale(0.2 -0.2)">
       <defs>
        <path id="DejaVuSans-35" d="M 691 4666 
L 3169 4666 
L 3169 4134 
L 1269 4134 
L 1269 2991 
Q 1406 3038 1543 3061 
Q 1681 3084 1819 3084 
Q 2600 3084 3056 2656 
Q 3513 2228 3513 1497 
Q 3513 744 3044 326 
Q 2575 -91 1722 -91 
Q 1428 -91 1123 -41 
Q 819 9 494 109 
L 494 744 
Q 775 591 1075 516 
Q 1375 441 1709 441 
Q 2250 441 2565 725 
Q 2881 1009 2881 1497 
Q 2881 1984 2565 2268 
Q 2250 2553 1709 2553 
Q 1456 2553 1204 2497 
Q 953 2441 691 2322 
L 691 4666 
z
" transform="scale(0.015625)"/>
       </defs>
       <use xlink:href="#DejaVuSans-35"/>
       <use xlink:href="#DejaVuSans-30" x="63.623047"/>
       <use xlink:href="#DejaVuSans-30" x="127.246094"/>
       <use xlink:href="#DejaVuSans-30" x="190.869141"/>
      </g>
     </g>
    </g>
    <g id="xtick_3">
     <g id="line2d_5">
      <path d="M 292.910533 503.08 
L 292.910533 46.32 
" clip-path="url(#p7029ab3f94)" style="fill: none; stroke: #b0b0b0; stroke-width: 0.8; stroke-linecap: square"/>
     </g>
     <g id="line2d_6">
      <g>
       <use xlink:href="#mbeed306b6d" x="292.910533" y="503.08" style="stroke: #000000; stroke-width: 0.8"/>
      </g>
     </g>
     <g id="text_3">
      <!-- 10000 -->
      <g transform="translate(261.098033 525.276875) scale(0.2 -0.2)">
       <defs>
        <path id="DejaVuSans-31" d="M 794 531 
L 1825 531 
L 1825 4091 
L 703 3866 
L 703 4441 
L 1819 4666 
L 2450 4666 
L 2450 531 
L 3481 531 
L 3481 0 
L 794 0 
L 794 531 
z
" transform="scale(0.015625)"/>
       </defs>
       <use xlink:href="#DejaVuSans-31"/>
       <use xlink:href="#DejaVuSans-30" x="63.623047"/>
       <use xlink:href="#DejaVuSans-30" x="127.246094"/>
       <use xlink:href="#DejaVuSans-30" x="190.869141"/>
       <use xlink:href="#DejaVuSans-30" x="254.492188"/>
      </g>
     </g>
    </g>
    <g id="xtick_4">
     <g id="line2d_7">
      <path d="M 382.47289 503.08 
L 382.47289 46.32 
" clip-path="url(#p7029ab3f94)" style="fill: none; stroke: #b0b0b0; stroke-width: 0.8; stroke-linecap: square"/>
     </g>
     <g id="line2d_8">
      <g>
       <use xlink:href="#mbeed306b6d" x="382.47289" y="503.08" style="stroke: #000000; stroke-width: 0.8"/>
      </g>
     </g>
     <g id="text_4">
      <!-- 15000 -->
      <g transform="translate(350.66039 525.276875) scale(0.2 -0.2)">
       <use xlink:href="#DejaVuSans-31"/>
       <use xlink:href="#DejaVuSans-35" x="63.623047"/>
       <use xlink:href="#DejaVuSans-30" x="127.246094"/>
       <use xlink:href="#DejaVuSans-30" x="190.869141"/>
       <use xlink:href="#DejaVuSans-30" x="254.492188"/>
      </g>
     </g>
    </g>
    <g id="xtick_5">
     <g id="line2d_9">
      <path d="M 472.035247 503.08 
L 472.035247 46.32 
" clip-path="url(#p7029ab3f94)" style="fill: none; stroke: #b0b0b0; stroke-width: 0.8; stroke-linecap: square"/>
     </g>
     <g id="line2d_10">
      <g>
       <use xlink:href="#mbeed306b6d" x="472.035247" y="503.08" style="stroke: #000000; stroke-width: 0.8"/>
      </g>
     </g>
     <g id="text_5">
      <!-- 20000 -->
      <g transform="translate(440.222747 525.276875) scale(0.2 -0.2)">
       <defs>
        <path id="DejaVuSans-32" d="M 1228 531 
L 3431 531 
L 3431 0 
L 469 0 
L 469 531 
Q 828 903 1448 1529 
Q 2069 2156 2228 2338 
Q 2531 2678 2651 2914 
Q 2772 3150 2772 3378 
Q 2772 3750 2511 3984 
Q 2250 4219 1831 4219 
Q 1534 4219 1204 4116 
Q 875 4013 500 3803 
L 500 4441 
Q 881 4594 1212 4672 
Q 1544 4750 1819 4750 
Q 2544 4750 2975 4387 
Q 3406 4025 3406 3419 
Q 3406 3131 3298 2873 
Q 3191 2616 2906 2266 
Q 2828 2175 2409 1742 
Q 1991 1309 1228 531 
z
" transform="scale(0.015625)"/>
       </defs>
       <use xlink:href="#DejaVuSans-32"/>
       <use xlink:href="#DejaVuSans-30" x="63.623047"/>
       <use xlink:href="#DejaVuSans-30" x="127.246094"/>
       <use xlink:href="#DejaVuSans-30" x="190.869141"/>
       <use xlink:href="#DejaVuSans-30" x="254.492188"/>
      </g>
     </g>
    </g>
    <g id="xtick_6">
     <g id="line2d_11">
      <path d="M 561.597604 503.08 
L 561.597604 46.32 
" clip-path="url(#p7029ab3f94)" style="fill: none; stroke: #b0b0b0; stroke-width: 0.8; stroke-linecap: square"/>
     </g>
     <g id="line2d_12">
      <g>
       <use xlink:href="#mbeed306b6d" x="561.597604" y="503.08" style="stroke: #000000; stroke-width: 0.8"/>
      </g>
     </g>
     <g id="text_6">
      <!-- 25000 -->
      <g transform="translate(529.785104 525.276875) scale(0.2 -0.2)">
       <use xlink:href="#DejaVuSans-32"/>
       <use xlink:href="#DejaVuSans-35" x="63.623047"/>
       <use xlink:href="#DejaVuSans-30" x="127.246094"/>
       <use xlink:href="#DejaVuSans-30" x="190.869141"/>
       <use xlink:href="#DejaVuSans-30" x="254.492188"/>
      </g>
     </g>
    </g>
    <g id="xtick_7">
     <g id="line2d_13">
      <path d="M 651.159962 503.08 
L 651.159962 46.32 
" clip-path="url(#p7029ab3f94)" style="fill: none; stroke: #b0b0b0; stroke-width: 0.8; stroke-linecap: square"/>
     </g>
     <g id="line2d_14">
      <g>
       <use xlink:href="#mbeed306b6d" x="651.159962" y="503.08" style="stroke: #000000; stroke-width: 0.8"/>
      </g>
     </g>
     <g id="text_7">
      <!-- 30000 -->
      <g transform="translate(619.347462 525.276875) scale(0.2 -0.2)">
       <defs>
        <path id="DejaVuSans-33" d="M 2597 2516 
Q 3050 2419 3304 2112 
Q 3559 1806 3559 1356 
Q 3559 666 3084 287 
Q 2609 -91 1734 -91 
Q 1441 -91 1130 -33 
Q 819 25 488 141 
L 488 750 
Q 750 597 1062 519 
Q 1375 441 1716 441 
Q 2309 441 2620 675 
Q 2931 909 2931 1356 
Q 2931 1769 2642 2001 
Q 2353 2234 1838 2234 
L 1294 2234 
L 1294 2753 
L 1863 2753 
Q 2328 2753 2575 2939 
Q 2822 3125 2822 3475 
Q 2822 3834 2567 4026 
Q 2313 4219 1838 4219 
Q 1578 4219 1281 4162 
Q 984 4106 628 3988 
L 628 4550 
Q 988 4650 1302 4700 
Q 1616 4750 1894 4750 
Q 2613 4750 3031 4423 
Q 3450 4097 3450 3541 
Q 3450 3153 3228 2886 
Q 3006 2619 2597 2516 
z
" transform="scale(0.015625)"/>
       </defs>
       <use xlink:href="#DejaVuSans-33"/>
       <use xlink:href="#DejaVuSans-30" x="63.623047"/>
       <use xlink:href="#DejaVuSans-30" x="127.246094"/>
       <use xlink:href="#DejaVuSans-30" x="190.869141"/>
       <use xlink:href="#DejaVuSans-30" x="254.492188"/>
      </g>
     </g>
    </g>
    <g id="xtick_8">
     <g id="line2d_15">
      <path d="M 740.722319 503.08 
L 740.722319 46.32 
" clip-path="url(#p7029ab3f94)" style="fill: none; stroke: #b0b0b0; stroke-width: 0.8; stroke-linecap: square"/>
     </g>
     <g id="line2d_16">
      <g>
       <use xlink:href="#mbeed306b6d" x="740.722319" y="503.08" style="stroke: #000000; stroke-width: 0.8"/>
      </g>
     </g>
     <g id="text_8">
      <!-- 35000 -->
      <g transform="translate(708.909819 525.276875) scale(0.2 -0.2)">
       <use xlink:href="#DejaVuSans-33"/>
       <use xlink:href="#DejaVuSans-35" x="63.623047"/>
       <use xlink:href="#DejaVuSans-30" x="127.246094"/>
       <use xlink:href="#DejaVuSans-30" x="190.869141"/>
       <use xlink:href="#DejaVuSans-30" x="254.492188"/>
      </g>
     </g>
    </g>
    <g id="xtick_9">
     <g id="line2d_17">
      <path d="M 830.284676 503.08 
L 830.284676 46.32 
" clip-path="url(#p7029ab3f94)" style="fill: none; stroke: #b0b0b0; stroke-width: 0.8; stroke-linecap: square"/>
     </g>
     <g id="line2d_18">
      <g>
       <use xlink:href="#mbeed306b6d" x="830.284676" y="503.08" style="stroke: #000000; stroke-width: 0.8"/>
      </g>
     </g>
     <g id="text_9">
      <!-- 40000 -->
      <g transform="translate(798.472176 525.276875) scale(0.2 -0.2)">
       <defs>
        <path id="DejaVuSans-34" d="M 2419 4116 
L 825 1625 
L 2419 1625 
L 2419 4116 
z
M 2253 4666 
L 3047 4666 
L 3047 1625 
L 3713 1625 
L 3713 1100 
L 3047 1100 
L 3047 0 
L 2419 0 
L 2419 1100 
L 313 1100 
L 313 1709 
L 2253 4666 
z
" transform="scale(0.015625)"/>
       </defs>
       <use xlink:href="#DejaVuSans-34"/>
       <use xlink:href="#DejaVuSans-30" x="63.623047"/>
       <use xlink:href="#DejaVuSans-30" x="127.246094"/>
       <use xlink:href="#DejaVuSans-30" x="190.869141"/>
       <use xlink:href="#DejaVuSans-30" x="254.492188"/>
      </g>
     </g>
    </g>
    <g id="text_10">
     <!-- Number of Epochs -->
     <g transform="translate(378.245562 548.633125) scale(0.2 -0.2)">
      <defs>
       <path id="DejaVuSans-4e" d="M 628 4666 
L 1478 4666 
L 3547 763 
L 3547 4666 
L 4159 4666 
L 4159 0 
L 3309 0 
L 1241 3903 
L 1241 0 
L 628 0 
L 628 4666 
z
" transform="scale(0.015625)"/>
       <path id="DejaVuSans-75" d="M 544 1381 
L 544 3500 
L 1119 3500 
L 1119 1403 
Q 1119 906 1312 657 
Q 1506 409 1894 409 
Q 2359 409 2629 706 
Q 2900 1003 2900 1516 
L 2900 3500 
L 3475 3500 
L 3475 0 
L 2900 0 
L 2900 538 
Q 2691 219 2414 64 
Q 2138 -91 1772 -91 
Q 1169 -91 856 284 
Q 544 659 544 1381 
z
M 1991 3584 
L 1991 3584 
z
" transform="scale(0.015625)"/>
       <path id="DejaVuSans-6d" d="M 3328 2828 
Q 3544 3216 3844 3400 
Q 4144 3584 4550 3584 
Q 5097 3584 5394 3201 
Q 5691 2819 5691 2113 
L 5691 0 
L 5113 0 
L 5113 2094 
Q 5113 2597 4934 2840 
Q 4756 3084 4391 3084 
Q 3944 3084 3684 2787 
Q 3425 2491 3425 1978 
L 3425 0 
L 2847 0 
L 2847 2094 
Q 2847 2600 2669 2842 
Q 2491 3084 2119 3084 
Q 1678 3084 1418 2786 
Q 1159 2488 1159 1978 
L 1159 0 
L 581 0 
L 581 3500 
L 1159 3500 
L 1159 2956 
Q 1356 3278 1631 3431 
Q 1906 3584 2284 3584 
Q 2666 3584 2933 3390 
Q 3200 3197 3328 2828 
z
" transform="scale(0.015625)"/>
       <path id="DejaVuSans-62" d="M 3116 1747 
Q 3116 2381 2855 2742 
Q 2594 3103 2138 3103 
Q 1681 3103 1420 2742 
Q 1159 2381 1159 1747 
Q 1159 1113 1420 752 
Q 1681 391 2138 391 
Q 2594 391 2855 752 
Q 3116 1113 3116 1747 
z
M 1159 2969 
Q 1341 3281 1617 3432 
Q 1894 3584 2278 3584 
Q 2916 3584 3314 3078 
Q 3713 2572 3713 1747 
Q 3713 922 3314 415 
Q 2916 -91 2278 -91 
Q 1894 -91 1617 61 
Q 1341 213 1159 525 
L 1159 0 
L 581 0 
L 581 4863 
L 1159 4863 
L 1159 2969 
z
" transform="scale(0.015625)"/>
       <path id="DejaVuSans-65" d="M 3597 1894 
L 3597 1613 
L 953 1613 
Q 991 1019 1311 708 
Q 1631 397 2203 397 
Q 2534 397 2845 478 
Q 3156 559 3463 722 
L 3463 178 
Q 3153 47 2828 -22 
Q 2503 -91 2169 -91 
Q 1331 -91 842 396 
Q 353 884 353 1716 
Q 353 2575 817 3079 
Q 1281 3584 2069 3584 
Q 2775 3584 3186 3129 
Q 3597 2675 3597 1894 
z
M 3022 2063 
Q 3016 2534 2758 2815 
Q 2500 3097 2075 3097 
Q 1594 3097 1305 2825 
Q 1016 2553 972 2059 
L 3022 2063 
z
" transform="scale(0.015625)"/>
       <path id="DejaVuSans-72" d="M 2631 2963 
Q 2534 3019 2420 3045 
Q 2306 3072 2169 3072 
Q 1681 3072 1420 2755 
Q 1159 2438 1159 1844 
L 1159 0 
L 581 0 
L 581 3500 
L 1159 3500 
L 1159 2956 
Q 1341 3275 1631 3429 
Q 1922 3584 2338 3584 
Q 2397 3584 2469 3576 
Q 2541 3569 2628 3553 
L 2631 2963 
z
" transform="scale(0.015625)"/>
       <path id="DejaVuSans-20" transform="scale(0.015625)"/>
       <path id="DejaVuSans-6f" d="M 1959 3097 
Q 1497 3097 1228 2736 
Q 959 2375 959 1747 
Q 959 1119 1226 758 
Q 1494 397 1959 397 
Q 2419 397 2687 759 
Q 2956 1122 2956 1747 
Q 2956 2369 2687 2733 
Q 2419 3097 1959 3097 
z
M 1959 3584 
Q 2709 3584 3137 3096 
Q 3566 2609 3566 1747 
Q 3566 888 3137 398 
Q 2709 -91 1959 -91 
Q 1206 -91 779 398 
Q 353 888 353 1747 
Q 353 2609 779 3096 
Q 1206 3584 1959 3584 
z
" transform="scale(0.015625)"/>
       <path id="DejaVuSans-66" d="M 2375 4863 
L 2375 4384 
L 1825 4384 
Q 1516 4384 1395 4259 
Q 1275 4134 1275 3809 
L 1275 3500 
L 2222 3500 
L 2222 3053 
L 1275 3053 
L 1275 0 
L 697 0 
L 697 3053 
L 147 3053 
L 147 3500 
L 697 3500 
L 697 3744 
Q 697 4328 969 4595 
Q 1241 4863 1831 4863 
L 2375 4863 
z
" transform="scale(0.015625)"/>
       <path id="DejaVuSans-45" d="M 628 4666 
L 3578 4666 
L 3578 4134 
L 1259 4134 
L 1259 2753 
L 3481 2753 
L 3481 2222 
L 1259 2222 
L 1259 531 
L 3634 531 
L 3634 0 
L 628 0 
L 628 4666 
z
" transform="scale(0.015625)"/>
       <path id="DejaVuSans-70" d="M 1159 525 
L 1159 -1331 
L 581 -1331 
L 581 3500 
L 1159 3500 
L 1159 2969 
Q 1341 3281 1617 3432 
Q 1894 3584 2278 3584 
Q 2916 3584 3314 3078 
Q 3713 2572 3713 1747 
Q 3713 922 3314 415 
Q 2916 -91 2278 -91 
Q 1894 -91 1617 61 
Q 1341 213 1159 525 
z
M 3116 1747 
Q 3116 2381 2855 2742 
Q 2594 3103 2138 3103 
Q 1681 3103 1420 2742 
Q 1159 2381 1159 1747 
Q 1159 1113 1420 752 
Q 1681 391 2138 391 
Q 2594 391 2855 752 
Q 3116 1113 3116 1747 
z
" transform="scale(0.015625)"/>
       <path id="DejaVuSans-63" d="M 3122 3366 
L 3122 2828 
Q 2878 2963 2633 3030 
Q 2388 3097 2138 3097 
Q 1578 3097 1268 2742 
Q 959 2388 959 1747 
Q 959 1106 1268 751 
Q 1578 397 2138 397 
Q 2388 397 2633 464 
Q 2878 531 3122 666 
L 3122 134 
Q 2881 22 2623 -34 
Q 2366 -91 2075 -91 
Q 1284 -91 818 406 
Q 353 903 353 1747 
Q 353 2603 823 3093 
Q 1294 3584 2113 3584 
Q 2378 3584 2631 3529 
Q 2884 3475 3122 3366 
z
" transform="scale(0.015625)"/>
       <path id="DejaVuSans-68" d="M 3513 2113 
L 3513 0 
L 2938 0 
L 2938 2094 
Q 2938 2591 2744 2837 
Q 2550 3084 2163 3084 
Q 1697 3084 1428 2787 
Q 1159 2491 1159 1978 
L 1159 0 
L 581 0 
L 581 4863 
L 1159 4863 
L 1159 2956 
Q 1366 3272 1645 3428 
Q 1925 3584 2291 3584 
Q 2894 3584 3203 3211 
Q 3513 2838 3513 2113 
z
" transform="scale(0.015625)"/>
       <path id="DejaVuSans-73" d="M 2834 3397 
L 2834 2853 
Q 2591 2978 2328 3040 
Q 2066 3103 1784 3103 
Q 1356 3103 1142 2972 
Q 928 2841 928 2578 
Q 928 2378 1081 2264 
Q 1234 2150 1697 2047 
L 1894 2003 
Q 2506 1872 2764 1633 
Q 3022 1394 3022 966 
Q 3022 478 2636 193 
Q 2250 -91 1575 -91 
Q 1294 -91 989 -36 
Q 684 19 347 128 
L 347 722 
Q 666 556 975 473 
Q 1284 391 1588 391 
Q 1994 391 2212 530 
Q 2431 669 2431 922 
Q 2431 1156 2273 1281 
Q 2116 1406 1581 1522 
L 1381 1569 
Q 847 1681 609 1914 
Q 372 2147 372 2553 
Q 372 3047 722 3315 
Q 1072 3584 1716 3584 
Q 2034 3584 2315 3537 
Q 2597 3491 2834 3397 
z
" transform="scale(0.015625)"/>
      </defs>
      <use xlink:href="#DejaVuSans-4e"/>
      <use xlink:href="#DejaVuSans-75" x="74.804688"/>
      <use xlink:href="#DejaVuSans-6d" x="138.183594"/>
      <use xlink:href="#DejaVuSans-62" x="235.595703"/>
      <use xlink:href="#DejaVuSans-65" x="299.072266"/>
      <use xlink:href="#DejaVuSans-72" x="360.595703"/>
      <use xlink:href="#DejaVuSans-20" x="401.708984"/>
      <use xlink:href="#DejaVuSans-6f" x="433.496094"/>
      <use xlink:href="#DejaVuSans-66" x="494.677734"/>
      <use xlink:href="#DejaVuSans-20" x="529.882812"/>
      <use xlink:href="#DejaVuSans-45" x="561.669922"/>
      <use xlink:href="#DejaVuSans-70" x="624.853516"/>
      <use xlink:href="#DejaVuSans-6f" x="688.330078"/>
      <use xlink:href="#DejaVuSans-63" x="749.511719"/>
      <use xlink:href="#DejaVuSans-68" x="804.492188"/>
      <use xlink:href="#DejaVuSans-73" x="867.871094"/>
     </g>
    </g>
   </g>
   <g id="matplotlib.axis_2">
    <g id="ytick_1">
     <g id="line2d_19">
      <path d="M 78.14 503.08 
L 862.348 503.08 
" clip-path="url(#p7029ab3f94)" style="fill: none; stroke: #b0b0b0; stroke-width: 0.8; stroke-linecap: square"/>
     </g>
     <g id="line2d_20">
      <defs>
       <path id="m749fffdcb9" d="M 0 0 
L -3.5 0 
" style="stroke: #000000; stroke-width: 0.8"/>
      </defs>
      <g>
       <use xlink:href="#m749fffdcb9" x="78.14" y="503.08" style="stroke: #000000; stroke-width: 0.8"/>
      </g>
     </g>
     <g id="text_11">
      <!-- 10 -->
      <g transform="translate(45.69 510.678437) scale(0.2 -0.2)">
       <use xlink:href="#DejaVuSans-31"/>
       <use xlink:href="#DejaVuSans-30" x="63.623047"/>
      </g>
     </g>
    </g>
    <g id="ytick_2">
     <g id="line2d_21">
      <path d="M 78.14 403.784348 
L 862.348 403.784348 
" clip-path="url(#p7029ab3f94)" style="fill: none; stroke: #b0b0b0; stroke-width: 0.8; stroke-linecap: square"/>
     </g>
     <g id="line2d_22">
      <g>
       <use xlink:href="#m749fffdcb9" x="78.14" y="403.784348" style="stroke: #000000; stroke-width: 0.8"/>
      </g>
     </g>
     <g id="text_12">
      <!-- 15 -->
      <g transform="translate(45.69 411.382785) scale(0.2 -0.2)">
       <use xlink:href="#DejaVuSans-31"/>
       <use xlink:href="#DejaVuSans-35" x="63.623047"/>
      </g>
     </g>
    </g>
    <g id="ytick_3">
     <g id="line2d_23">
      <path d="M 78.14 304.488696 
L 862.348 304.488696 
" clip-path="url(#p7029ab3f94)" style="fill: none; stroke: #b0b0b0; stroke-width: 0.8; stroke-linecap: square"/>
     </g>
     <g id="line2d_24">
      <g>
       <use xlink:href="#m749fffdcb9" x="78.14" y="304.488696" style="stroke: #000000; stroke-width: 0.8"/>
      </g>
     </g>
     <g id="text_13">
      <!-- 20 -->
      <g transform="translate(45.69 312.087133) scale(0.2 -0.2)">
       <use xlink:href="#DejaVuSans-32"/>
       <use xlink:href="#DejaVuSans-30" x="63.623047"/>
      </g>
     </g>
    </g>
    <g id="ytick_4">
     <g id="line2d_25">
      <path d="M 78.14 205.193043 
L 862.348 205.193043 
" clip-path="url(#p7029ab3f94)" style="fill: none; stroke: #b0b0b0; stroke-width: 0.8; stroke-linecap: square"/>
     </g>
     <g id="line2d_26">
      <g>
       <use xlink:href="#m749fffdcb9" x="78.14" y="205.193043" style="stroke: #000000; stroke-width: 0.8"/>
      </g>
     </g>
     <g id="text_14">
      <!-- 25 -->
      <g transform="translate(45.69 212.791481) scale(0.2 -0.2)">
       <use xlink:href="#DejaVuSans-32"/>
       <use xlink:href="#DejaVuSans-35" x="63.623047"/>
      </g>
     </g>
    </g>
    <g id="ytick_5">
     <g id="line2d_27">
      <path d="M 78.14 105.897391 
L 862.348 105.897391 
" clip-path="url(#p7029ab3f94)" style="fill: none; stroke: #b0b0b0; stroke-width: 0.8; stroke-linecap: square"/>
     </g>
     <g id="line2d_28">
      <g>
       <use xlink:href="#m749fffdcb9" x="78.14" y="105.897391" style="stroke: #000000; stroke-width: 0.8"/>
      </g>
     </g>
     <g id="text_15">
      <!-- 30 -->
      <g transform="translate(45.69 113.495829) scale(0.2 -0.2)">
       <use xlink:href="#DejaVuSans-33"/>
       <use xlink:href="#DejaVuSans-30" x="63.623047"/>
      </g>
     </g>
    </g>
    <g id="text_16">
     <!-- PSNR -->
     <g transform="translate(37.530625 301.507812) rotate(-90) scale(0.2 -0.2)">
      <defs>
       <path id="DejaVuSans-50" d="M 1259 4147 
L 1259 2394 
L 2053 2394 
Q 2494 2394 2734 2622 
Q 2975 2850 2975 3272 
Q 2975 3691 2734 3919 
Q 2494 4147 2053 4147 
L 1259 4147 
z
M 628 4666 
L 2053 4666 
Q 2838 4666 3239 4311 
Q 3641 3956 3641 3272 
Q 3641 2581 3239 2228 
Q 2838 1875 2053 1875 
L 1259 1875 
L 1259 0 
L 628 0 
L 628 4666 
z
" transform="scale(0.015625)"/>
       <path id="DejaVuSans-53" d="M 3425 4513 
L 3425 3897 
Q 3066 4069 2747 4153 
Q 2428 4238 2131 4238 
Q 1616 4238 1336 4038 
Q 1056 3838 1056 3469 
Q 1056 3159 1242 3001 
Q 1428 2844 1947 2747 
L 2328 2669 
Q 3034 2534 3370 2195 
Q 3706 1856 3706 1288 
Q 3706 609 3251 259 
Q 2797 -91 1919 -91 
Q 1588 -91 1214 -16 
Q 841 59 441 206 
L 441 856 
Q 825 641 1194 531 
Q 1563 422 1919 422 
Q 2459 422 2753 634 
Q 3047 847 3047 1241 
Q 3047 1584 2836 1778 
Q 2625 1972 2144 2069 
L 1759 2144 
Q 1053 2284 737 2584 
Q 422 2884 422 3419 
Q 422 4038 858 4394 
Q 1294 4750 2059 4750 
Q 2388 4750 2728 4690 
Q 3069 4631 3425 4513 
z
" transform="scale(0.015625)"/>
       <path id="DejaVuSans-52" d="M 2841 2188 
Q 3044 2119 3236 1894 
Q 3428 1669 3622 1275 
L 4263 0 
L 3584 0 
L 2988 1197 
Q 2756 1666 2539 1819 
Q 2322 1972 1947 1972 
L 1259 1972 
L 1259 0 
L 628 0 
L 628 4666 
L 2053 4666 
Q 2853 4666 3247 4331 
Q 3641 3997 3641 3322 
Q 3641 2881 3436 2590 
Q 3231 2300 2841 2188 
z
M 1259 4147 
L 1259 2491 
L 2053 2491 
Q 2509 2491 2742 2702 
Q 2975 2913 2975 3322 
Q 2975 3731 2742 3939 
Q 2509 4147 2053 4147 
L 1259 4147 
z
" transform="scale(0.015625)"/>
      </defs>
      <use xlink:href="#DejaVuSans-50"/>
      <use xlink:href="#DejaVuSans-53" x="60.302734"/>
      <use xlink:href="#DejaVuSans-4e" x="123.779297"/>
      <use xlink:href="#DejaVuSans-52" x="198.583984"/>
     </g>
    </g>
   </g>
   <g id="line2d_29">
    <path d="M 113.785818 469.053472 
L 117.368312 155.561072 
L 120.950807 101.600534 
L 124.533301 86.26927 
L 128.115795 78.189136 
L 131.69829 75.102216 
L 135.280784 77.944286 
L 138.863278 74.035585 
L 142.445772 71.284714 
L 146.028267 72.401139 
L 149.610761 76.460861 
L 153.193255 76.226475 
L 156.77575 77.116391 
L 160.358244 85.908365 
L 163.940738 79.718118 
L 167.523233 87.27091 
L 171.105727 89.405559 
L 174.688221 95.56235 
L 178.270715 92.046584 
L 181.85321 90.694583 
L 185.435704 91.978434 
L 189.018198 100.529798 
L 192.600693 96.52329 
L 196.183187 100.891564 
L 199.765681 100.332187 
L 203.348175 108.631144 
L 206.93067 102.209942 
L 210.513164 103.114859 
L 214.095658 103.751991 
L 217.678153 105.024995 
L 221.260647 117.213877 
L 224.843141 105.797256 
L 228.425635 108.868913 
L 232.00813 106.942046 
L 235.590624 106.868938 
L 239.173118 104.198522 
L 242.755613 110.009865 
L 246.338107 106.15682 
L 249.920601 108.250861 
L 253.503095 106.57963 
L 257.08559 110.234643 
L 260.668084 113.183974 
L 267.833073 110.513882 
L 271.415567 111.218605 
L 274.998061 124.33969 
L 278.580556 107.285977 
L 282.16305 120.617695 
L 285.745544 111.026215 
L 289.328038 118.241699 
L 292.910533 113.706224 
L 296.493027 108.891105 
L 300.075521 111.453818 
L 303.658016 119.512898 
L 307.24051 115.162456 
L 310.823004 113.771512 
L 314.405498 114.530939 
L 317.987993 118.906611 
L 321.570487 114.063834 
L 325.152981 118.634228 
L 328.735476 118.24365 
L 332.31797 116.687922 
L 335.900464 118.565125 
L 339.482958 120.092695 
L 343.065453 120.522405 
L 346.647947 113.067028 
L 350.230441 118.790802 
L 353.812936 114.516649 
L 357.39543 115.998123 
L 360.977924 116.364509 
L 364.560418 123.339953 
L 368.142913 120.095705 
L 371.725407 114.945789 
L 375.307901 121.219445 
L 378.890396 119.376068 
L 382.47289 115.41747 
L 386.055384 118.616428 
L 389.637878 112.585104 
L 393.220373 114.28161 
L 396.802867 119.215402 
L 400.385361 115.904767 
L 403.967856 112.371397 
L 407.55035 112.703707 
L 411.132844 116.701646 
L 414.715339 117.809425 
L 418.297833 120.482144 
L 421.880327 114.200722 
L 425.462821 124.439873 
L 429.045316 123.866124 
L 432.62781 120.295198 
L 436.210304 116.558291 
L 439.792799 118.451155 
L 443.375293 114.041939 
L 446.957787 117.762324 
L 450.540281 113.374479 
L 454.122776 117.88379 
L 457.70527 114.482782 
L 461.287764 118.669397 
L 464.870259 120.910602 
L 472.035247 118.012866 
L 475.617741 115.500458 
L 479.200236 120.385469 
L 482.78273 118.138848 
L 486.365224 123.924663 
L 489.947719 121.086021 
L 493.530213 117.317312 
L 497.112707 117.593807 
L 500.695201 124.017697 
L 504.277696 117.908536 
L 507.86019 120.963799 
L 511.442684 123.338727 
L 515.025179 118.735641 
L 518.607673 124.580138 
L 522.190167 117.818135 
L 525.772661 122.996088 
L 529.355156 120.480177 
L 532.93765 126.853159 
L 536.520144 120.348605 
L 540.102639 118.408981 
L 543.685133 114.402406 
L 547.267627 119.915637 
L 550.850122 121.364188 
L 554.432616 119.931975 
L 558.01511 120.365389 
L 561.597604 128.321305 
L 565.180099 115.751528 
L 568.762593 121.708195 
L 572.345087 124.813867 
L 575.927582 120.928607 
L 579.510076 116.480794 
L 583.09257 120.351457 
L 586.675064 121.376974 
L 590.257559 121.570707 
L 593.840053 122.441245 
L 597.422547 121.83924 
L 601.005042 118.268193 
L 604.587536 118.141885 
L 608.17003 118.205455 
L 611.752524 117.541762 
L 615.335019 118.740772 
L 618.917513 118.312525 
L 622.500007 124.16454 
L 626.082502 121.709674 
L 629.664996 125.248638 
L 633.24749 118.490244 
L 636.829984 118.412546 
L 640.412479 122.562856 
L 643.994973 124.036315 
L 647.577467 124.96406 
L 651.159962 126.406444 
L 654.742456 117.693675 
L 658.32495 117.716369 
L 661.907444 122.276033 
L 665.489939 120.151529 
L 669.072433 115.848709 
L 672.654927 118.818857 
L 676.237422 121.620989 
L 679.819916 117.405438 
L 683.40241 121.700673 
L 686.984905 121.05147 
L 690.567399 122.284853 
L 694.149893 117.747024 
L 697.732387 122.926353 
L 701.314882 119.981782 
L 704.897376 125.837897 
L 708.47987 124.395331 
L 712.062365 127.211923 
L 715.644859 115.297801 
L 719.227353 118.415952 
L 722.809847 125.254838 
L 729.974836 121.197493 
L 733.55733 117.888515 
L 737.139825 127.953512 
L 740.722319 124.870384 
L 744.304813 117.987642 
L 747.887307 126.598954 
L 751.469802 125.155814 
L 755.052296 125.6031 
L 758.63479 117.201138 
L 762.217285 118.159872 
L 765.799779 119.286302 
L 769.382273 117.688879 
L 772.964767 119.427176 
L 776.547262 120.642776 
L 780.129756 119.31674 
L 783.71225 119.304595 
L 787.294745 118.656462 
L 790.877239 120.194288 
L 794.459733 123.353098 
L 798.042228 120.616339 
L 801.624722 126.945946 
L 805.207216 117.478971 
L 808.78971 121.995147 
L 812.372205 116.220526 
L 815.954699 123.516563 
L 819.537193 117.151075 
L 823.119688 124.437093 
L 826.702182 124.299814 
L 826.702182 124.299814 
" clip-path="url(#p7029ab3f94)" style="fill: none; stroke: #00008b; stroke-width: 1.5; stroke-linecap: square"/>
   </g>
   <g id="line2d_30">
    <path d="M 113.785818 515.269675 
L 131.69829 101.688893 
L 149.610761 75.185764 
L 167.523233 65.222582 
L 185.435704 82.615281 
L 203.348175 116.338762 
L 221.260647 165.93826 
L 239.173118 197.144025 
L 257.08559 221.634227 
L 274.998061 224.770807 
L 292.910533 234.178237 
L 310.823004 232.842028 
L 328.735476 238.044061 
L 346.647947 242.949266 
L 364.560418 240.155 
L 382.47289 243.338284 
L 400.385361 246.382885 
L 418.297833 246.565798 
L 436.210304 247.212156 
L 454.122776 248.044014 
L 472.035247 248.191352 
L 489.947719 249.257021 
L 507.86019 250.710592 
L 525.772661 251.308026 
L 543.685133 250.396718 
L 561.597604 251.058091 
L 579.510076 249.723977 
L 597.422547 250.821667 
L 615.335019 252.512382 
L 633.24749 250.301683 
L 651.159962 253.124863 
L 669.072433 250.837404 
L 686.984905 254.372967 
L 704.897376 251.198651 
L 722.809847 254.837138 
L 740.722319 253.18499 
L 758.63479 252.914593 
L 776.547262 254.530149 
L 794.459733 254.282072 
L 812.372205 251.519734 
" clip-path="url(#p7029ab3f94)" style="fill: none; stroke: #afafaf; stroke-width: 1.5; stroke-linecap: square"/>
   </g>
   <g id="line2d_31">
    <path d="M 113.785818 521.872948 
L 131.69829 94.059994 
L 149.610761 77.39875 
L 167.523233 72.859954 
L 185.435704 89.148503 
L 203.348175 120.002651 
L 221.260647 170.561686 
L 239.173118 201.863185 
L 257.08559 215.197359 
L 274.998061 225.255268 
L 292.910533 232.786777 
L 310.823004 232.871789 
L 328.735476 235.12737 
L 346.647947 238.372748 
L 364.560418 239.141621 
L 382.47289 241.118614 
L 400.385361 239.784427 
L 418.297833 242.638935 
L 436.210304 244.150303 
L 454.122776 240.832583 
L 472.035247 248.376119 
L 489.947719 243.934866 
L 507.86019 248.87058 
L 525.772661 245.325584 
L 543.685133 250.96102 
L 561.597604 247.647213 
L 579.510076 246.335657 
L 597.422547 248.166491 
L 615.335019 248.823096 
L 633.24749 250.332149 
L 651.159962 248.681851 
L 669.072433 247.641485 
L 686.984905 250.379609 
L 704.897376 248.958719 
L 722.809847 250.378734 
L 740.722319 253.114932 
L 758.63479 250.765383 
L 776.547262 250.574514 
L 794.459733 248.200179 
L 812.372205 252.415717 
" clip-path="url(#p7029ab3f94)" style="fill: none; stroke: #9e9e9e; stroke-width: 1.5; stroke-linecap: square"/>
   </g>
   <g id="line2d_32">
    <path d="M 113.785818 521.529327 
L 131.69829 103.317494 
L 149.610761 66.296763 
L 167.523233 69.385554 
L 185.435704 101.113427 
L 203.348175 149.079394 
L 221.260647 184.52499 
L 239.173118 205.982196 
L 257.08559 223.247834 
L 274.998061 220.612663 
L 292.910533 228.43842 
L 310.823004 231.51577 
L 328.735476 235.780843 
L 346.647947 241.540935 
L 364.560418 239.237836 
L 382.47289 240.350097 
L 400.385361 241.267804 
L 418.297833 245.01924 
L 436.210304 243.656031 
L 454.122776 241.224891 
L 472.035247 246.889255 
L 489.947719 248.102697 
L 507.86019 245.663711 
L 525.772661 247.073224 
L 543.685133 245.855339 
L 561.597604 245.402228 
L 579.510076 248.475404 
L 597.422547 247.81159 
L 615.335019 248.96302 
L 633.24749 249.128442 
L 651.159962 253.21772 
L 669.072433 251.715502 
L 686.984905 250.449509 
L 704.897376 248.973358 
L 722.809847 252.50006 
L 740.722319 251.402954 
L 758.63479 252.540865 
L 776.547262 250.909342 
L 794.459733 247.685144 
L 812.372205 245.278391 
" clip-path="url(#p7029ab3f94)" style="fill: none; stroke: #8f8f8f; stroke-width: 1.5; stroke-linecap: square"/>
   </g>
   <g id="line2d_33">
    <path d="M 113.785818 530.522494 
L 131.69829 86.794878 
L 149.610761 67.812857 
L 167.523233 73.26521 
L 185.435704 105.041604 
L 203.348175 153.056888 
L 221.260647 196.129517 
L 239.173118 210.553769 
L 257.08559 214.369716 
L 274.998061 223.167016 
L 292.910533 182.036865 
L 310.823004 222.803372 
L 328.735476 233.34582 
L 346.647947 226.88493 
L 364.560418 232.775304 
L 382.47289 237.371723 
L 400.385361 231.424919 
L 418.297833 234.979827 
L 436.210304 236.464852 
L 454.122776 229.037891 
L 472.035247 237.021579 
L 489.947719 240.507647 
L 507.86019 237.761937 
L 525.772661 239.250676 
L 543.685133 236.640415 
L 561.597604 238.310218 
L 579.510076 240.992727 
L 597.422547 240.306265 
L 615.335019 238.67032 
L 633.24749 240.570336 
L 651.159962 240.497612 
L 669.072433 245.156835 
L 686.984905 240.509356 
L 704.897376 240.806262 
L 722.809847 243.369225 
L 740.722319 245.151997 
L 758.63479 245.763078 
L 776.547262 245.15791 
L 794.459733 241.811473 
L 812.372205 241.358285 
" clip-path="url(#p7029ab3f94)" style="fill: none; stroke: #717171; stroke-width: 1.5; stroke-linecap: square"/>
   </g>
   <g id="line2d_34">
    <path d="M 113.785818 525.583114 
L 131.69829 93.688023 
L 149.610761 70.298937 
L 167.523233 77.553792 
L 185.435704 117.355136 
L 203.348175 156.9959 
L 221.260647 181.211516 
L 239.173118 199.172436 
L 257.08559 205.29066 
L 274.998061 207.418393 
L 292.910533 217.792925 
L 310.823004 211.499453 
L 328.735476 223.6388 
L 346.647947 222.264367 
L 364.560418 219.875043 
L 382.47289 225.522956 
L 400.385361 223.155288 
L 418.297833 226.956727 
L 436.210304 225.674284 
L 454.122776 227.622238 
L 472.035247 224.654504 
L 489.947719 226.70537 
L 507.86019 227.086021 
L 525.772661 231.069009 
L 543.685133 230.475121 
L 561.597604 229.982192 
L 579.510076 229.288456 
L 597.422547 229.047093 
L 615.335019 231.00422 
L 633.24749 232.017899 
L 651.159962 228.870845 
L 669.072433 230.031545 
L 686.984905 234.708371 
L 704.897376 233.213142 
L 722.809847 229.78364 
L 740.722319 231.908355 
L 758.63479 232.744487 
L 776.547262 231.936339 
L 794.459733 233.74663 
L 812.372205 234.569295 
" clip-path="url(#p7029ab3f94)" style="fill: none; stroke: #555555; stroke-width: 1.5; stroke-linecap: square"/>
   </g>
   <g id="line2d_35">
    <path d="M 113.785818 523.424637 
L 131.69829 78.618079 
L 149.610761 68.396297 
L 167.523233 84.054186 
L 185.435704 121.189232 
L 203.348175 161.654337 
L 221.260647 180.244181 
L 239.173118 195.943665 
L 257.08559 205.212694 
L 274.998061 203.893759 
L 292.910533 210.595957 
L 310.823004 212.261875 
L 328.735476 210.997179 
L 346.647947 211.629637 
L 364.560418 217.613804 
L 382.47289 212.376824 
L 400.385361 215.823197 
L 418.297833 221.685986 
L 436.210304 220.34793 
L 454.122776 218.005402 
L 472.035247 218.800056 
L 489.947719 220.734627 
L 507.86019 223.63867 
L 525.772661 224.35852 
L 543.685133 226.963129 
L 561.597604 226.973362 
L 579.510076 224.718589 
L 597.422547 225.191991 
L 615.335019 223.06467 
L 633.24749 224.776098 
L 651.159962 227.673965 
L 669.072433 220.933169 
L 686.984905 225.772659 
L 704.897376 225.88771 
L 722.809847 224.216681 
L 740.722319 225.232773 
L 758.63479 226.099898 
L 776.547262 224.307495 
L 794.459733 229.249385 
L 812.372205 223.916752 
" clip-path="url(#p7029ab3f94)" style="fill: none; stroke: #555555; stroke-width: 1.5; stroke-linecap: square"/>
   </g>
   <g id="line2d_36">
    <path d="M 113.785818 524.403735 
L 131.69829 75.438643 
L 149.610761 74.813607 
L 167.523233 107.786031 
L 185.435704 143.94056 
L 203.348175 171.926492 
L 221.260647 188.249948 
L 239.173118 196.886739 
L 257.08559 203.798127 
L 274.998061 202.090679 
L 292.910533 205.55944 
L 310.823004 205.909999 
L 328.735476 209.630528 
L 346.647947 211.817059 
L 364.560418 214.001569 
L 382.47289 210.813368 
L 400.385361 213.739328 
L 418.297833 212.321663 
L 436.210304 216.35147 
L 454.122776 215.571087 
L 472.035247 215.104887 
L 489.947719 216.226375 
L 507.86019 215.418461 
L 525.772661 216.870335 
L 543.685133 218.997414 
L 561.597604 217.399568 
L 579.510076 217.307159 
L 597.422547 217.441903 
L 615.335019 216.151376 
L 633.24749 218.281486 
L 651.159962 218.302934 
L 669.072433 219.486612 
L 686.984905 221.724725 
L 704.897376 219.807231 
L 722.809847 221.533849 
L 740.722319 220.091681 
L 758.63479 220.537629 
L 776.547262 219.723503 
L 794.459733 223.14929 
L 812.372205 220.244401 
" clip-path="url(#p7029ab3f94)" style="fill: none; stroke: #434343; stroke-width: 1.5; stroke-linecap: square"/>
   </g>
   <g id="line2d_37">
    <path d="M 113.785818 520.939102 
L 131.69829 81.78052 
L 149.610761 75.521861 
L 167.523233 95.757254 
L 185.435704 128.843001 
L 203.348175 160.213347 
L 221.260647 174.470997 
L 239.173118 182.638653 
L 257.08559 186.641795 
L 274.998061 193.943712 
L 292.910533 195.283037 
L 310.823004 192.494022 
L 328.735476 196.116133 
L 346.647947 200.128128 
L 364.560418 200.210946 
L 382.47289 198.830259 
L 400.385361 195.741336 
L 418.297833 202.487265 
L 436.210304 202.15142 
L 454.122776 205.443394 
L 472.035247 203.365297 
L 489.947719 202.698936 
L 507.86019 204.56281 
L 525.772661 205.445876 
L 543.685133 205.50569 
L 561.597604 206.359112 
L 579.510076 206.839207 
L 597.422547 205.961021 
L 615.335019 205.882166 
L 633.24749 204.693218 
L 651.159962 208.310259 
L 669.072433 206.929518 
L 686.984905 208.17716 
L 704.897376 206.708695 
L 722.809847 206.782147 
L 740.722319 207.456677 
L 758.63479 208.871281 
L 776.547262 204.714286 
L 794.459733 207.942241 
L 812.372205 207.47274 
" clip-path="url(#p7029ab3f94)" style="fill: none; stroke: #303030; stroke-width: 1.5; stroke-linecap: square"/>
   </g>
   <g id="line2d_38">
    <path d="M 113.785818 523.239397 
L 131.69829 79.950596 
L 149.610761 76.743233 
L 167.523233 104.890227 
L 185.435704 145.465478 
L 203.348175 175.072744 
L 221.260647 180.494258 
L 239.173118 186.247998 
L 257.08559 182.857615 
L 274.998061 183.874663 
L 292.910533 186.953824 
L 310.823004 189.741348 
L 328.735476 187.668187 
L 346.647947 191.442101 
L 364.560418 191.916062 
L 382.47289 191.779867 
L 400.385361 194.319103 
L 418.297833 195.222414 
L 436.210304 195.72779 
L 454.122776 197.182477 
L 472.035247 193.436076 
L 489.947719 195.714583 
L 507.86019 193.284718 
L 525.772661 193.162792 
L 543.685133 193.575024 
L 561.597604 197.492993 
L 579.510076 196.369769 
L 597.422547 201.526629 
L 615.335019 198.174909 
L 633.24749 200.903356 
L 651.159962 199.710225 
L 669.072433 199.41422 
L 686.984905 198.447751 
L 704.897376 197.92701 
L 722.809847 199.186834 
L 740.722319 198.052756 
L 758.63479 199.570741 
L 776.547262 198.609866 
L 794.459733 199.750893 
L 812.372205 201.367108 
" clip-path="url(#p7029ab3f94)" style="fill: none; stroke: #1e1e1e; stroke-width: 1.5; stroke-linecap: square"/>
   </g>
   <g id="line2d_39">
    <path d="M 113.785818 521.429577 
L 131.69829 75.139075 
L 149.610761 70.321266 
L 167.523233 100.636081 
L 185.435704 134.422977 
L 203.348175 150.440625 
L 221.260647 165.860556 
L 239.173118 169.322468 
L 257.08559 164.061586 
L 274.998061 172.515851 
L 292.910533 175.283657 
L 310.823004 178.308348 
L 328.735476 176.255086 
L 346.647947 178.317426 
L 364.560418 179.079842 
L 382.47289 176.329104 
L 400.385361 178.568247 
L 418.297833 180.901055 
L 436.210304 181.651354 
L 454.122776 178.560894 
L 472.035247 186.483404 
L 489.947719 185.602843 
L 507.86019 183.636437 
L 525.772661 182.201728 
L 543.685133 184.132572 
L 561.597604 182.96699 
L 579.510076 186.55032 
L 597.422547 181.246112 
L 615.335019 185.639274 
L 633.24749 186.713181 
L 651.159962 186.4686 
L 669.072433 183.832324 
L 686.984905 183.321241 
L 704.897376 186.616059 
L 722.809847 184.557269 
L 740.722319 186.890085 
L 758.63479 188.640587 
L 776.547262 188.171257 
L 794.459733 186.401488 
L 812.372205 188.471038 
" clip-path="url(#p7029ab3f94)" style="fill: none; stroke: #0f0f0f; stroke-width: 1.5; stroke-linecap: square"/>
   </g>
   <g id="line2d_40">
    <path d="M 113.785818 522.689421 
L 131.69829 80.074196 
L 149.610761 90.5472 
L 167.523233 109.028606 
L 185.435704 132.087272 
L 203.348175 144.631342 
L 221.260647 151.146887 
L 239.173118 155.545273 
L 257.08559 161.213677 
L 274.998061 160.027411 
L 292.910533 161.126852 
L 310.823004 166.387015 
L 328.735476 163.403164 
L 346.647947 167.265655 
L 364.560418 169.11801 
L 382.47289 166.237719 
L 400.385361 168.277817 
L 418.297833 174.702245 
L 436.210304 171.303312 
L 454.122776 174.968339 
L 472.035247 170.459546 
L 489.947719 172.757307 
L 507.86019 173.495647 
L 525.772661 172.723017 
L 543.685133 169.965315 
L 561.597604 174.318925 
L 579.510076 172.88498 
L 597.422547 174.415199 
L 615.335019 169.942817 
L 633.24749 173.636836 
L 651.159962 173.638216 
L 669.072433 173.75563 
L 686.984905 176.502439 
L 704.897376 174.062078 
L 722.809847 175.91351 
L 740.722319 172.015991 
L 758.63479 173.279621 
L 776.547262 172.732105 
L 794.459733 172.00751 
L 812.372205 173.061636 
" clip-path="url(#p7029ab3f94)" style="fill: none; stroke: #000000; stroke-width: 1.5; stroke-linecap: square"/>
   </g>
   <g id="line2d_41">
    <path d="M 113.785818 532.45459 
L 117.368312 242.969017 
L 120.950807 175.697702 
L 124.533301 149.772079 
L 128.115795 122.0134 
L 131.69829 113.048552 
L 135.280784 100.645226 
L 138.863278 94.946472 
L 142.445772 76.351283 
L 146.028267 70.06222 
L 149.610761 71.145804 
L 153.193255 75.097308 
L 156.77575 63.278132 
L 160.358244 60.806874 
L 163.940738 65.970922 
L 167.523233 62.737991 
L 171.105727 63.33398 
L 174.688221 73.195405 
L 178.270715 70.046511 
L 181.85321 77.821934 
L 185.435704 76.932534 
L 189.018198 78.454356 
L 192.600693 91.45818 
L 196.183187 91.554639 
L 199.765681 97.608756 
L 206.93067 115.015789 
L 210.513164 131.598803 
L 214.095658 133.763961 
L 217.678153 143.993251 
L 221.260647 150.445539 
L 224.843141 163.582464 
L 228.425635 171.853249 
L 232.00813 178.28986 
L 235.590624 171.81991 
L 239.173118 183.746984 
L 242.755613 186.867584 
L 246.338107 194.268999 
L 249.920601 194.630483 
L 253.503095 204.037504 
L 257.08559 203.020494 
L 260.668084 204.14411 
L 264.250578 202.46337 
L 267.833073 213.533841 
L 271.415567 214.070857 
L 274.998061 215.530342 
L 278.580556 215.051169 
L 282.16305 219.476414 
L 285.745544 221.384517 
L 289.328038 226.403239 
L 292.910533 221.524699 
L 296.493027 222.08876 
L 300.075521 218.456234 
L 303.658016 220.972087 
L 307.24051 221.389862 
L 310.823004 227.664347 
L 314.405498 230.299621 
L 321.570487 219.437631 
L 325.152981 222.388098 
L 328.735476 227.770875 
L 332.31797 227.508837 
L 335.900464 227.66558 
L 339.482958 232.866614 
L 343.065453 234.362021 
L 346.647947 227.185915 
L 353.812936 233.697996 
L 357.39543 229.621737 
L 360.977924 233.699093 
L 364.560418 233.355197 
L 368.142913 229.863619 
L 371.725407 231.045121 
L 375.307901 239.979669 
L 378.890396 233.574156 
L 386.055384 232.850966 
L 389.637878 235.584305 
L 393.220373 230.719874 
L 396.802867 238.625482 
L 400.385361 237.578416 
L 403.967856 231.746944 
L 407.55035 237.570344 
L 411.132844 233.297463 
L 414.715339 241.223373 
L 418.297833 240.298756 
L 421.880327 236.369674 
L 425.462821 239.270077 
L 432.62781 238.557579 
L 436.210304 235.617065 
L 439.792799 237.79857 
L 443.375293 239.229454 
L 446.957787 237.181202 
L 450.540281 240.282932 
L 454.122776 237.117702 
L 457.70527 234.597447 
L 461.287764 239.80399 
L 464.870259 240.665038 
L 468.452753 237.293117 
L 472.035247 237.939866 
L 475.617741 238.258857 
L 479.200236 238.958826 
L 482.78273 238.276197 
L 486.365224 239.94657 
L 489.947719 243.646434 
L 493.530213 240.210737 
L 497.112707 237.521053 
L 500.695201 236.860336 
L 504.277696 238.550685 
L 507.86019 238.635745 
L 511.442684 237.876174 
L 515.025179 239.936188 
L 518.607673 240.686737 
L 522.190167 242.729761 
L 525.772661 239.124817 
L 529.355156 238.691384 
L 532.93765 239.632003 
L 536.520144 242.395812 
L 540.102639 243.173777 
L 543.685133 242.744951 
L 547.267627 240.757287 
L 550.850122 237.666717 
L 554.432616 241.727014 
L 558.01511 241.027729 
L 561.597604 241.994874 
L 565.180099 239.545814 
L 568.762593 245.851245 
L 572.345087 238.650923 
L 575.927582 243.497427 
L 579.510076 240.182944 
L 583.09257 244.898661 
L 586.675064 238.018086 
L 590.257559 242.503594 
L 593.840053 243.125854 
L 597.422547 237.492955 
L 601.005042 241.244282 
L 604.587536 241.558167 
L 608.17003 241.562296 
L 611.752524 239.022249 
L 615.335019 241.527031 
L 618.917513 238.065301 
L 622.500007 243.816155 
L 626.082502 243.536839 
L 629.664996 240.909431 
L 633.24749 242.512237 
L 636.829984 238.333431 
L 640.412479 241.295903 
L 643.994973 239.794495 
L 647.577467 244.732148 
L 651.159962 240.295966 
L 654.742456 246.345481 
L 658.32495 238.981137 
L 661.907444 242.804391 
L 665.489939 246.228384 
L 669.072433 239.9712 
L 672.654927 242.067663 
L 676.237422 245.937471 
L 679.819916 244.180287 
L 683.40241 243.237602 
L 686.984905 244.522192 
L 690.567399 244.536373 
L 694.149893 247.135408 
L 697.732387 241.08065 
L 701.314882 243.038158 
L 704.897376 242.967805 
L 708.47987 241.620502 
L 712.062365 243.271688 
L 715.644859 241.665966 
L 719.227353 246.339578 
L 722.809847 244.373425 
L 726.392342 241.320129 
L 729.974836 243.800286 
L 733.55733 240.089564 
L 737.139825 240.482757 
L 740.722319 246.134001 
L 744.304813 243.810321 
L 747.887307 247.589469 
L 751.469802 241.938294 
L 755.052296 242.498676 
L 758.63479 247.652486 
L 765.799779 244.192056 
L 769.382273 243.992104 
L 772.964767 243.177435 
L 776.547262 245.536877 
L 780.129756 246.835042 
L 783.71225 249.025472 
L 787.294745 246.480041 
L 790.877239 244.595624 
L 794.459733 244.714594 
L 798.042228 244.610872 
L 801.624722 243.952651 
L 805.207216 244.490524 
L 808.78971 247.132618 
L 812.372205 244.115403 
L 815.954699 242.288632 
L 819.537193 245.690806 
L 823.119688 248.263121 
L 826.702182 245.537317 
L 826.702182 245.537317 
" clip-path="url(#p7029ab3f94)" style="fill: none; stroke: #1f77b4; stroke-width: 1.5; stroke-linecap: square"/>
   </g>
   <g id="line2d_42">
    <path d="M 113.785818 526.867463 
L 117.368312 238.127972 
L 120.950807 183.191194 
L 124.533301 139.844322 
L 128.115795 109.525548 
L 131.69829 97.460087 
L 135.280784 98.060186 
L 138.863278 84.852391 
L 142.445772 77.734429 
L 146.028267 73.397815 
L 149.610761 69.730077 
L 153.193255 67.005369 
L 156.77575 71.932406 
L 160.358244 68.141483 
L 163.940738 79.33227 
L 167.523233 63.798532 
L 171.105727 65.752845 
L 174.688221 63.558189 
L 178.270715 73.851228 
L 181.85321 71.265054 
L 185.435704 76.655324 
L 189.018198 76.294865 
L 192.600693 92.295512 
L 196.183187 95.532186 
L 199.765681 96.199862 
L 203.348175 109.815589 
L 206.93067 115.621279 
L 210.513164 119.808756 
L 214.095658 132.443522 
L 217.678153 140.41411 
L 221.260647 142.909212 
L 224.843141 149.425966 
L 228.425635 162.814354 
L 232.00813 156.69468 
L 235.590624 164.262229 
L 239.173118 170.772524 
L 242.755613 174.821725 
L 246.338107 177.230881 
L 249.920601 184.568146 
L 253.503095 188.885565 
L 257.08559 182.188932 
L 260.668084 193.862098 
L 264.250578 195.950359 
L 267.833073 194.157441 
L 271.415567 197.244425 
L 274.998061 206.66708 
L 278.580556 203.248428 
L 282.16305 203.588874 
L 285.745544 265.631674 
L 289.328038 206.742031 
L 292.910533 210.721285 
L 296.493027 209.677409 
L 300.075521 210.121115 
L 303.658016 212.486117 
L 307.24051 210.478761 
L 310.823004 214.695898 
L 314.405498 209.775053 
L 317.987993 215.316949 
L 321.570487 215.699146 
L 325.152981 216.926128 
L 328.735476 216.909218 
L 332.31797 219.159679 
L 335.900464 218.491106 
L 339.482958 216.842289 
L 343.065453 213.808641 
L 346.647947 218.110755 
L 350.230441 218.509207 
L 353.812936 213.01321 
L 357.39543 216.393534 
L 360.977924 224.197 
L 364.560418 223.735626 
L 368.142913 221.001239 
L 371.725407 220.608737 
L 375.307901 226.501459 
L 378.890396 220.279836 
L 382.47289 224.159801 
L 386.055384 222.03367 
L 389.637878 219.440595 
L 393.220373 222.525083 
L 396.802867 220.993184 
L 400.385361 225.522262 
L 403.967856 221.421491 
L 407.55035 480.696939 
L 411.132844 195.078678 
L 414.715339 225.575709 
L 418.297833 229.964579 
L 421.880327 224.576846 
L 425.462821 225.099568 
L 429.045316 224.597475 
L 432.62781 226.623225 
L 436.210304 227.966433 
L 439.792799 227.747548 
L 443.375293 225.881839 
L 446.957787 225.989921 
L 450.540281 225.06355 
L 454.122776 228.647922 
L 457.70527 226.489211 
L 461.287764 228.289141 
L 464.870259 225.753289 
L 472.035247 226.276392 
L 475.617741 226.935598 
L 479.200236 229.255449 
L 482.78273 229.257836 
L 486.365224 227.487797 
L 489.947719 225.464367 
L 493.530213 224.226531 
L 497.112707 227.683526 
L 500.695201 224.836389 
L 504.277696 231.959112 
L 507.86019 281.27085 
L 511.442684 233.06377 
L 515.025179 229.97695 
L 518.607673 227.480153 
L 522.190167 234.420105 
L 525.772661 228.631084 
L 529.355156 230.356473 
L 532.93765 229.151303 
L 536.520144 226.121473 
L 540.102639 228.419014 
L 543.685133 228.870832 
L 547.267627 229.866957 
L 550.850122 227.448981 
L 554.432616 228.592631 
L 558.01511 231.385098 
L 561.597604 231.520292 
L 565.180099 231.844757 
L 568.762593 233.615893 
L 572.345087 232.44611 
L 575.927582 229.070615 
L 579.510076 228.586174 
L 583.09257 232.752663 
L 586.675064 234.431069 
L 590.257559 232.437149 
L 593.840053 228.312701 
L 597.422547 229.630475 
L 601.005042 227.457981 
L 604.587536 231.510932 
L 608.17003 229.491498 
L 611.752524 234.339353 
L 615.335019 230.757593 
L 618.917513 230.957619 
L 622.500007 235.527304 
L 626.082502 233.33838 
L 629.664996 233.600396 
L 633.24749 230.342336 
L 636.829984 234.665346 
L 640.412479 227.623661 
L 643.994973 233.745069 
L 647.577467 234.02188 
L 651.159962 236.133743 
L 654.742456 233.989743 
L 658.32495 232.137376 
L 661.907444 234.259907 
L 665.489939 236.964012 
L 669.072433 233.40827 
L 672.654927 234.785034 
L 676.237422 231.548982 
L 679.819916 233.535892 
L 683.40241 232.095272 
L 686.984905 232.377648 
L 690.567399 233.121823 
L 694.149893 230.555027 
L 697.732387 232.599722 
L 701.314882 236.813801 
L 708.47987 233.645844 
L 712.062365 235.355934 
L 715.644859 228.750035 
L 719.227353 235.014026 
L 722.809847 233.507615 
L 726.392342 232.959874 
L 729.974836 239.990359 
L 733.55733 235.157443 
L 737.139825 234.996229 
L 740.722319 233.540182 
L 744.304813 234.657077 
L 747.887307 234.722469 
L 751.469802 234.52605 
L 755.052296 230.56003 
L 758.63479 234.45133 
L 762.217285 236.471954 
L 765.799779 233.801067 
L 769.382273 236.283303 
L 772.964767 233.559455 
L 776.547262 237.416484 
L 780.129756 235.392621 
L 783.71225 234.023442 
L 787.294745 234.669239 
L 790.877239 237.405919 
L 794.459733 238.02909 
L 798.042228 237.191989 
L 801.624722 236.862417 
L 805.207216 232.785535 
L 808.78971 237.484547 
L 812.372205 231.813205 
L 815.954699 235.19296 
L 819.537193 232.354827 
L 823.119688 234.876223 
L 826.702182 235.556753 
L 826.702182 235.556753 
" clip-path="url(#p7029ab3f94)" style="fill: none; stroke: #ff7f0e; stroke-width: 1.5; stroke-linecap: square"/>
   </g>
   <g id="patch_3">
    <path d="M 78.14 503.08 
L 78.14 46.32 
" style="fill: none; stroke: #000000; stroke-width: 0.8; stroke-linejoin: miter; stroke-linecap: square"/>
   </g>
   <g id="patch_4">
    <path d="M 862.348 503.08 
L 862.348 46.32 
" style="fill: none; stroke: #000000; stroke-width: 0.8; stroke-linejoin: miter; stroke-linecap: square"/>
   </g>
   <g id="patch_5">
    <path d="M 78.14 503.08 
L 862.348 503.08 
" style="fill: none; stroke: #000000; stroke-width: 0.8; stroke-linejoin: miter; stroke-linecap: square"/>
   </g>
   <g id="patch_6">
    <path d="M 78.14 46.32 
L 862.348 46.32 
" style="fill: none; stroke: #000000; stroke-width: 0.8; stroke-linejoin: miter; stroke-linecap: square"/>
   </g>
   <g id="text_17">
    <!-- PSNR vs. Number of Epochs -->
    <g transform="translate(302.8815 40.32) scale(0.24 -0.24)">
     <defs>
      <path id="DejaVuSans-76" d="M 191 3500 
L 800 3500 
L 1894 563 
L 2988 3500 
L 3597 3500 
L 2284 0 
L 1503 0 
L 191 3500 
z
" transform="scale(0.015625)"/>
      <path id="DejaVuSans-2e" d="M 684 794 
L 1344 794 
L 1344 0 
L 684 0 
L 684 794 
z
" transform="scale(0.015625)"/>
     </defs>
     <use xlink:href="#DejaVuSans-50"/>
     <use xlink:href="#DejaVuSans-53" x="60.302734"/>
     <use xlink:href="#DejaVuSans-4e" x="123.779297"/>
     <use xlink:href="#DejaVuSans-52" x="198.583984"/>
     <use xlink:href="#DejaVuSans-20" x="268.066406"/>
     <use xlink:href="#DejaVuSans-76" x="299.853516"/>
     <use xlink:href="#DejaVuSans-73" x="359.033203"/>
     <use xlink:href="#DejaVuSans-2e" x="411.132812"/>
     <use xlink:href="#DejaVuSans-20" x="442.919922"/>
     <use xlink:href="#DejaVuSans-4e" x="474.707031"/>
     <use xlink:href="#DejaVuSans-75" x="549.511719"/>
     <use xlink:href="#DejaVuSans-6d" x="612.890625"/>
     <use xlink:href="#DejaVuSans-62" x="710.302734"/>
     <use xlink:href="#DejaVuSans-65" x="773.779297"/>
     <use xlink:href="#DejaVuSans-72" x="835.302734"/>
     <use xlink:href="#DejaVuSans-20" x="876.416016"/>
     <use xlink:href="#DejaVuSans-6f" x="908.203125"/>
     <use xlink:href="#DejaVuSans-66" x="969.384766"/>
     <use xlink:href="#DejaVuSans-20" x="1004.589844"/>
     <use xlink:href="#DejaVuSans-45" x="1036.376953"/>
     <use xlink:href="#DejaVuSans-70" x="1099.560547"/>
     <use xlink:href="#DejaVuSans-6f" x="1163.037109"/>
     <use xlink:href="#DejaVuSans-63" x="1224.21875"/>
     <use xlink:href="#DejaVuSans-68" x="1279.199219"/>
     <use xlink:href="#DejaVuSans-73" x="1342.578125"/>
    </g>
   </g>
   <g id="legend_1">
    <g id="patch_7">
     <path d="M 677.75425 493.08 
L 848.348 493.08 
Q 852.348 493.08 852.348 489.08 
L 852.348 403.01125 
Q 852.348 399.01125 848.348 399.01125 
L 677.75425 399.01125 
Q 673.75425 399.01125 673.75425 403.01125 
L 673.75425 489.08 
Q 673.75425 493.08 677.75425 493.08 
z
" style="fill: #ffffff; opacity: 0.8; stroke: #cccccc; stroke-linejoin: miter"/>
    </g>
    <g id="line2d_43">
     <path d="M 681.75425 415.208125 
L 701.75425 415.208125 
L 721.75425 415.208125 
" style="fill: none; stroke: #00008b; stroke-width: 1.5; stroke-linecap: square"/>
    </g>
    <g id="text_18">
     <!-- OES (ours) -->
     <g transform="translate(737.75425 422.208125) scale(0.2 -0.2)">
      <defs>
       <path id="DejaVuSans-4f" d="M 2522 4238 
Q 1834 4238 1429 3725 
Q 1025 3213 1025 2328 
Q 1025 1447 1429 934 
Q 1834 422 2522 422 
Q 3209 422 3611 934 
Q 4013 1447 4013 2328 
Q 4013 3213 3611 3725 
Q 3209 4238 2522 4238 
z
M 2522 4750 
Q 3503 4750 4090 4092 
Q 4678 3434 4678 2328 
Q 4678 1225 4090 567 
Q 3503 -91 2522 -91 
Q 1538 -91 948 565 
Q 359 1222 359 2328 
Q 359 3434 948 4092 
Q 1538 4750 2522 4750 
z
" transform="scale(0.015625)"/>
       <path id="DejaVuSans-28" d="M 1984 4856 
Q 1566 4138 1362 3434 
Q 1159 2731 1159 2009 
Q 1159 1288 1364 580 
Q 1569 -128 1984 -844 
L 1484 -844 
Q 1016 -109 783 600 
Q 550 1309 550 2009 
Q 550 2706 781 3412 
Q 1013 4119 1484 4856 
L 1984 4856 
z
" transform="scale(0.015625)"/>
       <path id="DejaVuSans-29" d="M 513 4856 
L 1013 4856 
Q 1481 4119 1714 3412 
Q 1947 2706 1947 2009 
Q 1947 1309 1714 600 
Q 1481 -109 1013 -844 
L 513 -844 
Q 928 -128 1133 580 
Q 1338 1288 1338 2009 
Q 1338 2731 1133 3434 
Q 928 4138 513 4856 
z
" transform="scale(0.015625)"/>
      </defs>
      <use xlink:href="#DejaVuSans-4f"/>
      <use xlink:href="#DejaVuSans-45" x="78.710938"/>
      <use xlink:href="#DejaVuSans-53" x="141.894531"/>
      <use xlink:href="#DejaVuSans-20" x="205.371094"/>
      <use xlink:href="#DejaVuSans-28" x="237.158203"/>
      <use xlink:href="#DejaVuSans-6f" x="276.171875"/>
      <use xlink:href="#DejaVuSans-75" x="337.353516"/>
      <use xlink:href="#DejaVuSans-72" x="400.732422"/>
      <use xlink:href="#DejaVuSans-73" x="441.845703"/>
      <use xlink:href="#DejaVuSans-29" x="493.945312"/>
     </g>
    </g>
    <g id="line2d_44">
     <path d="M 681.75425 444.564375 
L 701.75425 444.564375 
L 721.75425 444.564375 
" style="fill: none; stroke: #1f77b4; stroke-width: 1.5; stroke-linecap: square"/>
    </g>
    <g id="text_19">
     <!-- synflow -->
     <g transform="translate(737.75425 451.564375) scale(0.2 -0.2)">
      <defs>
       <path id="DejaVuSans-79" d="M 2059 -325 
Q 1816 -950 1584 -1140 
Q 1353 -1331 966 -1331 
L 506 -1331 
L 506 -850 
L 844 -850 
Q 1081 -850 1212 -737 
Q 1344 -625 1503 -206 
L 1606 56 
L 191 3500 
L 800 3500 
L 1894 763 
L 2988 3500 
L 3597 3500 
L 2059 -325 
z
" transform="scale(0.015625)"/>
       <path id="DejaVuSans-6e" d="M 3513 2113 
L 3513 0 
L 2938 0 
L 2938 2094 
Q 2938 2591 2744 2837 
Q 2550 3084 2163 3084 
Q 1697 3084 1428 2787 
Q 1159 2491 1159 1978 
L 1159 0 
L 581 0 
L 581 3500 
L 1159 3500 
L 1159 2956 
Q 1366 3272 1645 3428 
Q 1925 3584 2291 3584 
Q 2894 3584 3203 3211 
Q 3513 2838 3513 2113 
z
" transform="scale(0.015625)"/>
       <path id="DejaVuSans-6c" d="M 603 4863 
L 1178 4863 
L 1178 0 
L 603 0 
L 603 4863 
z
" transform="scale(0.015625)"/>
       <path id="DejaVuSans-77" d="M 269 3500 
L 844 3500 
L 1563 769 
L 2278 3500 
L 2956 3500 
L 3675 769 
L 4391 3500 
L 4966 3500 
L 4050 0 
L 3372 0 
L 2619 2869 
L 1863 0 
L 1184 0 
L 269 3500 
z
" transform="scale(0.015625)"/>
      </defs>
      <use xlink:href="#DejaVuSans-73"/>
      <use xlink:href="#DejaVuSans-79" x="52.099609"/>
      <use xlink:href="#DejaVuSans-6e" x="111.279297"/>
      <use xlink:href="#DejaVuSans-66" x="174.658203"/>
      <use xlink:href="#DejaVuSans-6c" x="209.863281"/>
      <use xlink:href="#DejaVuSans-6f" x="237.646484"/>
      <use xlink:href="#DejaVuSans-77" x="298.828125"/>
     </g>
    </g>
    <g id="line2d_45">
     <path d="M 681.75425 473.920625 
L 701.75425 473.920625 
L 721.75425 473.920625 
" style="fill: none; stroke: #ff7f0e; stroke-width: 1.5; stroke-linecap: square"/>
    </g>
    <g id="text_20">
     <!-- grasp -->
     <g transform="translate(737.75425 480.920625) scale(0.2 -0.2)">
      <defs>
       <path id="DejaVuSans-67" d="M 2906 1791 
Q 2906 2416 2648 2759 
Q 2391 3103 1925 3103 
Q 1463 3103 1205 2759 
Q 947 2416 947 1791 
Q 947 1169 1205 825 
Q 1463 481 1925 481 
Q 2391 481 2648 825 
Q 2906 1169 2906 1791 
z
M 3481 434 
Q 3481 -459 3084 -895 
Q 2688 -1331 1869 -1331 
Q 1566 -1331 1297 -1286 
Q 1028 -1241 775 -1147 
L 775 -588 
Q 1028 -725 1275 -790 
Q 1522 -856 1778 -856 
Q 2344 -856 2625 -561 
Q 2906 -266 2906 331 
L 2906 616 
Q 2728 306 2450 153 
Q 2172 0 1784 0 
Q 1141 0 747 490 
Q 353 981 353 1791 
Q 353 2603 747 3093 
Q 1141 3584 1784 3584 
Q 2172 3584 2450 3431 
Q 2728 3278 2906 2969 
L 2906 3500 
L 3481 3500 
L 3481 434 
z
" transform="scale(0.015625)"/>
       <path id="DejaVuSans-61" d="M 2194 1759 
Q 1497 1759 1228 1600 
Q 959 1441 959 1056 
Q 959 750 1161 570 
Q 1363 391 1709 391 
Q 2188 391 2477 730 
Q 2766 1069 2766 1631 
L 2766 1759 
L 2194 1759 
z
M 3341 1997 
L 3341 0 
L 2766 0 
L 2766 531 
Q 2569 213 2275 61 
Q 1981 -91 1556 -91 
Q 1019 -91 701 211 
Q 384 513 384 1019 
Q 384 1609 779 1909 
Q 1175 2209 1959 2209 
L 2766 2209 
L 2766 2266 
Q 2766 2663 2505 2880 
Q 2244 3097 1772 3097 
Q 1472 3097 1187 3025 
Q 903 2953 641 2809 
L 641 3341 
Q 956 3463 1253 3523 
Q 1550 3584 1831 3584 
Q 2591 3584 2966 3190 
Q 3341 2797 3341 1997 
z
" transform="scale(0.015625)"/>
      </defs>
      <use xlink:href="#DejaVuSans-67"/>
      <use xlink:href="#DejaVuSans-72" x="63.476562"/>
      <use xlink:href="#DejaVuSans-61" x="104.589844"/>
      <use xlink:href="#DejaVuSans-73" x="165.869141"/>
      <use xlink:href="#DejaVuSans-70" x="217.96875"/>
     </g>
    </g>
   </g>
  </g>
  <g id="axes_2">
   <g id="patch_8">
    <path d="M 911.361 503.08 
L 934.199 503.08 
L 934.199 46.32 
L 911.361 46.32 
z
" style="fill: #ffffff"/>
   </g>
   <g id="QuadMesh_1">
    <path d="M 911.361 503.08 
L 934.199 503.08 
L 934.199 465.016667 
L 911.361 465.016667 
L 911.361 503.08 
" clip-path="url(#p016046cb1a)" style="fill: #afafaf"/>
    <path d="M 911.361 465.016667 
L 934.199 465.016667 
L 934.199 426.953333 
L 911.361 426.953333 
L 911.361 465.016667 
" clip-path="url(#p016046cb1a)" style="fill: #9e9e9e"/>
    <path d="M 911.361 426.953333 
L 934.199 426.953333 
L 934.199 388.89 
L 911.361 388.89 
L 911.361 426.953333 
" clip-path="url(#p016046cb1a)" style="fill: #8f8f8f"/>
    <path d="M 911.361 388.89 
L 934.199 388.89 
L 934.199 350.826667 
L 911.361 350.826667 
L 911.361 388.89 
" clip-path="url(#p016046cb1a)" style="fill: #7f7f7f"/>
    <path d="M 911.361 350.826667 
L 934.199 350.826667 
L 934.199 312.763333 
L 911.361 312.763333 
L 911.361 350.826667 
" clip-path="url(#p016046cb1a)" style="fill: #717171"/>
    <path d="M 911.361 312.763333 
L 934.199 312.763333 
L 934.199 274.7 
L 911.361 274.7 
L 911.361 312.763333 
" clip-path="url(#p016046cb1a)" style="fill: #636363"/>
    <path d="M 911.361 274.7 
L 934.199 274.7 
L 934.199 236.636667 
L 911.361 236.636667 
L 911.361 274.7 
" clip-path="url(#p016046cb1a)" style="fill: #555555"/>
    <path d="M 911.361 236.636667 
L 934.199 236.636667 
L 934.199 198.573333 
L 911.361 198.573333 
L 911.361 236.636667 
" clip-path="url(#p016046cb1a)" style="fill: #434343"/>
    <path d="M 911.361 198.573333 
L 934.199 198.573333 
L 934.199 160.51 
L 911.361 160.51 
L 911.361 198.573333 
" clip-path="url(#p016046cb1a)" style="fill: #303030"/>
    <path d="M 911.361 160.51 
L 934.199 160.51 
L 934.199 122.446667 
L 911.361 122.446667 
L 911.361 160.51 
" clip-path="url(#p016046cb1a)" style="fill: #1e1e1e"/>
    <path d="M 911.361 122.446667 
L 934.199 122.446667 
L 934.199 84.383333 
L 911.361 84.383333 
L 911.361 122.446667 
" clip-path="url(#p016046cb1a)" style="fill: #0f0f0f"/>
    <path d="M 911.361 84.383333 
L 934.199 84.383333 
L 934.199 46.32 
L 911.361 46.32 
L 911.361 84.383333 
" clip-path="url(#p016046cb1a)"/>
   </g>
   <g id="matplotlib.axis_3"/>
   <g id="matplotlib.axis_4">
    <g id="ytick_6">
     <g id="line2d_46">
      <defs>
       <path id="m62ed6c1833" d="M 0 0 
L 3.5 0 
" style="stroke: #000000; stroke-width: 0.8"/>
      </defs>
      <g>
       <use xlink:href="#m62ed6c1833" x="934.199" y="503.08" style="stroke: #000000; stroke-width: 0.8"/>
      </g>
     </g>
     <g id="text_21">
      <!-- 1 -->
      <g transform="translate(941.199 510.678437) scale(0.2 -0.2)">
       <use xlink:href="#DejaVuSans-31"/>
      </g>
     </g>
    </g>
    <g id="ytick_7">
     <g id="line2d_47">
      <g>
       <use xlink:href="#m62ed6c1833" x="934.199" y="432.809231" style="stroke: #000000; stroke-width: 0.8"/>
      </g>
     </g>
     <g id="text_22">
      <!-- 3 -->
      <g transform="translate(941.199 440.407668) scale(0.2 -0.2)">
       <use xlink:href="#DejaVuSans-33"/>
      </g>
     </g>
    </g>
    <g id="ytick_8">
     <g id="line2d_48">
      <g>
       <use xlink:href="#m62ed6c1833" x="934.199" y="362.538462" style="stroke: #000000; stroke-width: 0.8"/>
      </g>
     </g>
     <g id="text_23">
      <!-- 5 -->
      <g transform="translate(941.199 370.136899) scale(0.2 -0.2)">
       <use xlink:href="#DejaVuSans-35"/>
      </g>
     </g>
    </g>
    <g id="ytick_9">
     <g id="line2d_49">
      <g>
       <use xlink:href="#m62ed6c1833" x="934.199" y="292.267692" style="stroke: #000000; stroke-width: 0.8"/>
      </g>
     </g>
     <g id="text_24">
      <!-- 7 -->
      <g transform="translate(941.199 299.86613) scale(0.2 -0.2)">
       <defs>
        <path id="DejaVuSans-37" d="M 525 4666 
L 3525 4666 
L 3525 4397 
L 1831 0 
L 1172 0 
L 2766 4134 
L 525 4134 
L 525 4666 
z
" transform="scale(0.015625)"/>
       </defs>
       <use xlink:href="#DejaVuSans-37"/>
      </g>
     </g>
    </g>
    <g id="ytick_10">
     <g id="line2d_50">
      <g>
       <use xlink:href="#m62ed6c1833" x="934.199" y="221.996923" style="stroke: #000000; stroke-width: 0.8"/>
      </g>
     </g>
     <g id="text_25">
      <!-- 9 -->
      <g transform="translate(941.199 229.595361) scale(0.2 -0.2)">
       <defs>
        <path id="DejaVuSans-39" d="M 703 97 
L 703 672 
Q 941 559 1184 500 
Q 1428 441 1663 441 
Q 2288 441 2617 861 
Q 2947 1281 2994 2138 
Q 2813 1869 2534 1725 
Q 2256 1581 1919 1581 
Q 1219 1581 811 2004 
Q 403 2428 403 3163 
Q 403 3881 828 4315 
Q 1253 4750 1959 4750 
Q 2769 4750 3195 4129 
Q 3622 3509 3622 2328 
Q 3622 1225 3098 567 
Q 2575 -91 1691 -91 
Q 1453 -91 1209 -44 
Q 966 3 703 97 
z
M 1959 2075 
Q 2384 2075 2632 2365 
Q 2881 2656 2881 3163 
Q 2881 3666 2632 3958 
Q 2384 4250 1959 4250 
Q 1534 4250 1286 3958 
Q 1038 3666 1038 3163 
Q 1038 2656 1286 2365 
Q 1534 2075 1959 2075 
z
" transform="scale(0.015625)"/>
       </defs>
       <use xlink:href="#DejaVuSans-39"/>
      </g>
     </g>
    </g>
    <g id="ytick_11">
     <g id="line2d_51">
      <g>
       <use xlink:href="#m62ed6c1833" x="934.199" y="151.726154" style="stroke: #000000; stroke-width: 0.8"/>
      </g>
     </g>
     <g id="text_26">
      <!-- 11 -->
      <g transform="translate(941.199 159.324591) scale(0.2 -0.2)">
       <use xlink:href="#DejaVuSans-31"/>
       <use xlink:href="#DejaVuSans-31" x="63.623047"/>
      </g>
     </g>
    </g>
    <g id="ytick_12">
     <g id="line2d_52">
      <g>
       <use xlink:href="#m62ed6c1833" x="934.199" y="81.455385" style="stroke: #000000; stroke-width: 0.8"/>
      </g>
     </g>
     <g id="text_27">
      <!-- 13 -->
      <g transform="translate(941.199 89.053822) scale(0.2 -0.2)">
       <use xlink:href="#DejaVuSans-31"/>
       <use xlink:href="#DejaVuSans-33" x="63.623047"/>
      </g>
     </g>
    </g>
    <g id="text_28">
     <!-- IMP iterations -->
     <g transform="translate(985.845875 342.940625) rotate(-90) scale(0.2 -0.2)">
      <defs>
       <path id="DejaVuSans-49" d="M 628 4666 
L 1259 4666 
L 1259 0 
L 628 0 
L 628 4666 
z
" transform="scale(0.015625)"/>
       <path id="DejaVuSans-4d" d="M 628 4666 
L 1569 4666 
L 2759 1491 
L 3956 4666 
L 4897 4666 
L 4897 0 
L 4281 0 
L 4281 4097 
L 3078 897 
L 2444 897 
L 1241 4097 
L 1241 0 
L 628 0 
L 628 4666 
z
" transform="scale(0.015625)"/>
       <path id="DejaVuSans-69" d="M 603 3500 
L 1178 3500 
L 1178 0 
L 603 0 
L 603 3500 
z
M 603 4863 
L 1178 4863 
L 1178 4134 
L 603 4134 
L 603 4863 
z
" transform="scale(0.015625)"/>
       <path id="DejaVuSans-74" d="M 1172 4494 
L 1172 3500 
L 2356 3500 
L 2356 3053 
L 1172 3053 
L 1172 1153 
Q 1172 725 1289 603 
Q 1406 481 1766 481 
L 2356 481 
L 2356 0 
L 1766 0 
Q 1100 0 847 248 
Q 594 497 594 1153 
L 594 3053 
L 172 3053 
L 172 3500 
L 594 3500 
L 594 4494 
L 1172 4494 
z
" transform="scale(0.015625)"/>
      </defs>
      <use xlink:href="#DejaVuSans-49"/>
      <use xlink:href="#DejaVuSans-4d" x="29.492188"/>
      <use xlink:href="#DejaVuSans-50" x="115.771484"/>
      <use xlink:href="#DejaVuSans-20" x="176.074219"/>
      <use xlink:href="#DejaVuSans-69" x="207.861328"/>
      <use xlink:href="#DejaVuSans-74" x="235.644531"/>
      <use xlink:href="#DejaVuSans-65" x="274.853516"/>
      <use xlink:href="#DejaVuSans-72" x="336.376953"/>
      <use xlink:href="#DejaVuSans-61" x="377.490234"/>
      <use xlink:href="#DejaVuSans-74" x="438.769531"/>
      <use xlink:href="#DejaVuSans-69" x="477.978516"/>
      <use xlink:href="#DejaVuSans-6f" x="505.761719"/>
      <use xlink:href="#DejaVuSans-6e" x="566.943359"/>
      <use xlink:href="#DejaVuSans-73" x="630.322266"/>
     </g>
    </g>
   </g>
   <g id="LineCollection_1"/>
   <g id="patch_9">
    <path d="M 911.361 503.08 
L 922.78 503.08 
L 934.199 503.08 
L 934.199 46.32 
L 922.78 46.32 
L 911.361 46.32 
L 911.361 503.08 
z
" style="fill: none; stroke: #000000; stroke-width: 0.8; stroke-linejoin: miter; stroke-linecap: square"/>
   </g>
  </g>
 </g>
 <defs>
  <clipPath id="p7029ab3f94">
   <rect x="78.14" y="46.32" width="784.208" height="456.76"/>
  </clipPath>
  <clipPath id="p016046cb1a">
   <rect x="911.361" y="46.32" width="22.838" height="456.76"/>
  </clipPath>
 </defs>
</svg>
