<?xml version="1.0" encoding="utf-8" standalone="no"?>
<!DOCTYPE svg PUBLIC "-//W3C//DTD SVG 1.1//EN"
  "http://www.w3.org/Graphics/SVG/1.1/DTD/svg11.dtd">
<!-- Created with matplotlib (https://matplotlib.org/) -->
<svg height="576pt" version="1.1" viewBox="0 0 1080 576" width="1080pt" xmlns="http://www.w3.org/2000/svg" xmlns:xlink="http://www.w3.org/1999/xlink">
 <defs>
  <style type="text/css">
*{stroke-linecap:butt;stroke-linejoin:round;}
  </style>
 </defs>
 <g id="figure_1">
  <g id="patch_1">
   <path d="M 0 576 
L 1080 576 
L 1080 0 
L 0 0 
z
" style="fill:#ffffff;"/>
  </g>
  <g id="axes_1">
   <g id="patch_2">
    <path d="M 78.14 503.08 
L 862.348 503.08 
L 862.348 46.32 
L 78.14 46.32 
z
" style="fill:#ffffff;"/>
   </g>
   <g id="matplotlib.axis_1">
    <g id="xtick_1">
     <g id="line2d_1">
      <path clip-path="url(#pce21d01614)" d="M 113.785818 503.08 
L 113.785818 46.32 
" style="fill:none;stroke:#b0b0b0;stroke-linecap:square;stroke-width:0.8;"/>
     </g>
     <g id="line2d_2">
      <defs>
       <path d="M 0 0 
L 0 3.5 
" id="m4be9506b77" style="stroke:#000000;stroke-width:0.8;"/>
      </defs>
      <g>
       <use style="stroke:#000000;stroke-width:0.8;" x="113.785818" xlink:href="#m4be9506b77" y="503.08"/>
      </g>
     </g>
     <g id="text_1">
      <!-- 0 -->
      <defs>
       <path d="M 31.78125 66.40625 
Q 24.171875 66.40625 20.328125 58.90625 
Q 16.5 51.421875 16.5 36.375 
Q 16.5 21.390625 20.328125 13.890625 
Q 24.171875 6.390625 31.78125 6.390625 
Q 39.453125 6.390625 43.28125 13.890625 
Q 47.125 21.390625 47.125 36.375 
Q 47.125 51.421875 43.28125 58.90625 
Q 39.453125 66.40625 31.78125 66.40625 
z
M 31.78125 74.21875 
Q 44.046875 74.21875 50.515625 64.515625 
Q 56.984375 54.828125 56.984375 36.375 
Q 56.984375 17.96875 50.515625 8.265625 
Q 44.046875 -1.421875 31.78125 -1.421875 
Q 19.53125 -1.421875 13.0625 8.265625 
Q 6.59375 17.96875 6.59375 36.375 
Q 6.59375 54.828125 13.0625 64.515625 
Q 19.53125 74.21875 31.78125 74.21875 
z
" id="DejaVuSans-48"/>
      </defs>
      <g transform="translate(107.423318 525.276875)scale(0.2 -0.2)">
       <use xlink:href="#DejaVuSans-48"/>
      </g>
     </g>
    </g>
    <g id="xtick_2">
     <g id="line2d_3">
      <path clip-path="url(#pce21d01614)" d="M 203.348175 503.08 
L 203.348175 46.32 
" style="fill:none;stroke:#b0b0b0;stroke-linecap:square;stroke-width:0.8;"/>
     </g>
     <g id="line2d_4">
      <g>
       <use style="stroke:#000000;stroke-width:0.8;" x="203.348175" xlink:href="#m4be9506b77" y="503.08"/>
      </g>
     </g>
     <g id="text_2">
      <!-- 5000 -->
      <defs>
       <path d="M 10.796875 72.90625 
L 49.515625 72.90625 
L 49.515625 64.59375 
L 19.828125 64.59375 
L 19.828125 46.734375 
Q 21.96875 47.46875 24.109375 47.828125 
Q 26.265625 48.1875 28.421875 48.1875 
Q 40.625 48.1875 47.75 41.5 
Q 54.890625 34.8125 54.890625 23.390625 
Q 54.890625 11.625 47.5625 5.09375 
Q 40.234375 -1.421875 26.90625 -1.421875 
Q 22.3125 -1.421875 17.546875 -0.640625 
Q 12.796875 0.140625 7.71875 1.703125 
L 7.71875 11.625 
Q 12.109375 9.234375 16.796875 8.0625 
Q 21.484375 6.890625 26.703125 6.890625 
Q 35.15625 6.890625 40.078125 11.328125 
Q 45.015625 15.765625 45.015625 23.390625 
Q 45.015625 31 40.078125 35.4375 
Q 35.15625 39.890625 26.703125 39.890625 
Q 22.75 39.890625 18.8125 39.015625 
Q 14.890625 38.140625 10.796875 36.28125 
z
" id="DejaVuSans-53"/>
      </defs>
      <g transform="translate(177.898175 525.276875)scale(0.2 -0.2)">
       <use xlink:href="#DejaVuSans-53"/>
       <use x="63.623047" xlink:href="#DejaVuSans-48"/>
       <use x="127.246094" xlink:href="#DejaVuSans-48"/>
       <use x="190.869141" xlink:href="#DejaVuSans-48"/>
      </g>
     </g>
    </g>
    <g id="xtick_3">
     <g id="line2d_5">
      <path clip-path="url(#pce21d01614)" d="M 292.910533 503.08 
L 292.910533 46.32 
" style="fill:none;stroke:#b0b0b0;stroke-linecap:square;stroke-width:0.8;"/>
     </g>
     <g id="line2d_6">
      <g>
       <use style="stroke:#000000;stroke-width:0.8;" x="292.910533" xlink:href="#m4be9506b77" y="503.08"/>
      </g>
     </g>
     <g id="text_3">
      <!-- 10000 -->
      <defs>
       <path d="M 12.40625 8.296875 
L 28.515625 8.296875 
L 28.515625 63.921875 
L 10.984375 60.40625 
L 10.984375 69.390625 
L 28.421875 72.90625 
L 38.28125 72.90625 
L 38.28125 8.296875 
L 54.390625 8.296875 
L 54.390625 0 
L 12.40625 0 
z
" id="DejaVuSans-49"/>
      </defs>
      <g transform="translate(261.098033 525.276875)scale(0.2 -0.2)">
       <use xlink:href="#DejaVuSans-49"/>
       <use x="63.623047" xlink:href="#DejaVuSans-48"/>
       <use x="127.246094" xlink:href="#DejaVuSans-48"/>
       <use x="190.869141" xlink:href="#DejaVuSans-48"/>
       <use x="254.492188" xlink:href="#DejaVuSans-48"/>
      </g>
     </g>
    </g>
    <g id="xtick_4">
     <g id="line2d_7">
      <path clip-path="url(#pce21d01614)" d="M 382.47289 503.08 
L 382.47289 46.32 
" style="fill:none;stroke:#b0b0b0;stroke-linecap:square;stroke-width:0.8;"/>
     </g>
     <g id="line2d_8">
      <g>
       <use style="stroke:#000000;stroke-width:0.8;" x="382.47289" xlink:href="#m4be9506b77" y="503.08"/>
      </g>
     </g>
     <g id="text_4">
      <!-- 15000 -->
      <g transform="translate(350.66039 525.276875)scale(0.2 -0.2)">
       <use xlink:href="#DejaVuSans-49"/>
       <use x="63.623047" xlink:href="#DejaVuSans-53"/>
       <use x="127.246094" xlink:href="#DejaVuSans-48"/>
       <use x="190.869141" xlink:href="#DejaVuSans-48"/>
       <use x="254.492188" xlink:href="#DejaVuSans-48"/>
      </g>
     </g>
    </g>
    <g id="xtick_5">
     <g id="line2d_9">
      <path clip-path="url(#pce21d01614)" d="M 472.035247 503.08 
L 472.035247 46.32 
" style="fill:none;stroke:#b0b0b0;stroke-linecap:square;stroke-width:0.8;"/>
     </g>
     <g id="line2d_10">
      <g>
       <use style="stroke:#000000;stroke-width:0.8;" x="472.035247" xlink:href="#m4be9506b77" y="503.08"/>
      </g>
     </g>
     <g id="text_5">
      <!-- 20000 -->
      <defs>
       <path d="M 19.1875 8.296875 
L 53.609375 8.296875 
L 53.609375 0 
L 7.328125 0 
L 7.328125 8.296875 
Q 12.9375 14.109375 22.625 23.890625 
Q 32.328125 33.6875 34.8125 36.53125 
Q 39.546875 41.84375 41.421875 45.53125 
Q 43.3125 49.21875 43.3125 52.78125 
Q 43.3125 58.59375 39.234375 62.25 
Q 35.15625 65.921875 28.609375 65.921875 
Q 23.96875 65.921875 18.8125 64.3125 
Q 13.671875 62.703125 7.8125 59.421875 
L 7.8125 69.390625 
Q 13.765625 71.78125 18.9375 73 
Q 24.125 74.21875 28.421875 74.21875 
Q 39.75 74.21875 46.484375 68.546875 
Q 53.21875 62.890625 53.21875 53.421875 
Q 53.21875 48.921875 51.53125 44.890625 
Q 49.859375 40.875 45.40625 35.40625 
Q 44.1875 33.984375 37.640625 27.21875 
Q 31.109375 20.453125 19.1875 8.296875 
z
" id="DejaVuSans-50"/>
      </defs>
      <g transform="translate(440.222747 525.276875)scale(0.2 -0.2)">
       <use xlink:href="#DejaVuSans-50"/>
       <use x="63.623047" xlink:href="#DejaVuSans-48"/>
       <use x="127.246094" xlink:href="#DejaVuSans-48"/>
       <use x="190.869141" xlink:href="#DejaVuSans-48"/>
       <use x="254.492188" xlink:href="#DejaVuSans-48"/>
      </g>
     </g>
    </g>
    <g id="xtick_6">
     <g id="line2d_11">
      <path clip-path="url(#pce21d01614)" d="M 561.597604 503.08 
L 561.597604 46.32 
" style="fill:none;stroke:#b0b0b0;stroke-linecap:square;stroke-width:0.8;"/>
     </g>
     <g id="line2d_12">
      <g>
       <use style="stroke:#000000;stroke-width:0.8;" x="561.597604" xlink:href="#m4be9506b77" y="503.08"/>
      </g>
     </g>
     <g id="text_6">
      <!-- 25000 -->
      <g transform="translate(529.785104 525.276875)scale(0.2 -0.2)">
       <use xlink:href="#DejaVuSans-50"/>
       <use x="63.623047" xlink:href="#DejaVuSans-53"/>
       <use x="127.246094" xlink:href="#DejaVuSans-48"/>
       <use x="190.869141" xlink:href="#DejaVuSans-48"/>
       <use x="254.492188" xlink:href="#DejaVuSans-48"/>
      </g>
     </g>
    </g>
    <g id="xtick_7">
     <g id="line2d_13">
      <path clip-path="url(#pce21d01614)" d="M 651.159962 503.08 
L 651.159962 46.32 
" style="fill:none;stroke:#b0b0b0;stroke-linecap:square;stroke-width:0.8;"/>
     </g>
     <g id="line2d_14">
      <g>
       <use style="stroke:#000000;stroke-width:0.8;" x="651.159962" xlink:href="#m4be9506b77" y="503.08"/>
      </g>
     </g>
     <g id="text_7">
      <!-- 30000 -->
      <defs>
       <path d="M 40.578125 39.3125 
Q 47.65625 37.796875 51.625 33 
Q 55.609375 28.21875 55.609375 21.1875 
Q 55.609375 10.40625 48.1875 4.484375 
Q 40.765625 -1.421875 27.09375 -1.421875 
Q 22.515625 -1.421875 17.65625 -0.515625 
Q 12.796875 0.390625 7.625 2.203125 
L 7.625 11.71875 
Q 11.71875 9.328125 16.59375 8.109375 
Q 21.484375 6.890625 26.8125 6.890625 
Q 36.078125 6.890625 40.9375 10.546875 
Q 45.796875 14.203125 45.796875 21.1875 
Q 45.796875 27.640625 41.28125 31.265625 
Q 36.765625 34.90625 28.71875 34.90625 
L 20.21875 34.90625 
L 20.21875 43.015625 
L 29.109375 43.015625 
Q 36.375 43.015625 40.234375 45.921875 
Q 44.09375 48.828125 44.09375 54.296875 
Q 44.09375 59.90625 40.109375 62.90625 
Q 36.140625 65.921875 28.71875 65.921875 
Q 24.65625 65.921875 20.015625 65.03125 
Q 15.375 64.15625 9.8125 62.3125 
L 9.8125 71.09375 
Q 15.4375 72.65625 20.34375 73.4375 
Q 25.25 74.21875 29.59375 74.21875 
Q 40.828125 74.21875 47.359375 69.109375 
Q 53.90625 64.015625 53.90625 55.328125 
Q 53.90625 49.265625 50.4375 45.09375 
Q 46.96875 40.921875 40.578125 39.3125 
z
" id="DejaVuSans-51"/>
      </defs>
      <g transform="translate(619.347462 525.276875)scale(0.2 -0.2)">
       <use xlink:href="#DejaVuSans-51"/>
       <use x="63.623047" xlink:href="#DejaVuSans-48"/>
       <use x="127.246094" xlink:href="#DejaVuSans-48"/>
       <use x="190.869141" xlink:href="#DejaVuSans-48"/>
       <use x="254.492188" xlink:href="#DejaVuSans-48"/>
      </g>
     </g>
    </g>
    <g id="xtick_8">
     <g id="line2d_15">
      <path clip-path="url(#pce21d01614)" d="M 740.722319 503.08 
L 740.722319 46.32 
" style="fill:none;stroke:#b0b0b0;stroke-linecap:square;stroke-width:0.8;"/>
     </g>
     <g id="line2d_16">
      <g>
       <use style="stroke:#000000;stroke-width:0.8;" x="740.722319" xlink:href="#m4be9506b77" y="503.08"/>
      </g>
     </g>
     <g id="text_8">
      <!-- 35000 -->
      <g transform="translate(708.909819 525.276875)scale(0.2 -0.2)">
       <use xlink:href="#DejaVuSans-51"/>
       <use x="63.623047" xlink:href="#DejaVuSans-53"/>
       <use x="127.246094" xlink:href="#DejaVuSans-48"/>
       <use x="190.869141" xlink:href="#DejaVuSans-48"/>
       <use x="254.492188" xlink:href="#DejaVuSans-48"/>
      </g>
     </g>
    </g>
    <g id="xtick_9">
     <g id="line2d_17">
      <path clip-path="url(#pce21d01614)" d="M 830.284676 503.08 
L 830.284676 46.32 
" style="fill:none;stroke:#b0b0b0;stroke-linecap:square;stroke-width:0.8;"/>
     </g>
     <g id="line2d_18">
      <g>
       <use style="stroke:#000000;stroke-width:0.8;" x="830.284676" xlink:href="#m4be9506b77" y="503.08"/>
      </g>
     </g>
     <g id="text_9">
      <!-- 40000 -->
      <defs>
       <path d="M 37.796875 64.3125 
L 12.890625 25.390625 
L 37.796875 25.390625 
z
M 35.203125 72.90625 
L 47.609375 72.90625 
L 47.609375 25.390625 
L 58.015625 25.390625 
L 58.015625 17.1875 
L 47.609375 17.1875 
L 47.609375 0 
L 37.796875 0 
L 37.796875 17.1875 
L 4.890625 17.1875 
L 4.890625 26.703125 
z
" id="DejaVuSans-52"/>
      </defs>
      <g transform="translate(798.472176 525.276875)scale(0.2 -0.2)">
       <use xlink:href="#DejaVuSans-52"/>
       <use x="63.623047" xlink:href="#DejaVuSans-48"/>
       <use x="127.246094" xlink:href="#DejaVuSans-48"/>
       <use x="190.869141" xlink:href="#DejaVuSans-48"/>
       <use x="254.492188" xlink:href="#DejaVuSans-48"/>
      </g>
     </g>
    </g>
    <g id="text_10">
     <!-- Number of Epochs -->
     <defs>
      <path d="M 9.8125 72.90625 
L 23.09375 72.90625 
L 55.421875 11.921875 
L 55.421875 72.90625 
L 64.984375 72.90625 
L 64.984375 0 
L 51.703125 0 
L 19.390625 60.984375 
L 19.390625 0 
L 9.8125 0 
z
" id="DejaVuSans-78"/>
      <path d="M 8.5 21.578125 
L 8.5 54.6875 
L 17.484375 54.6875 
L 17.484375 21.921875 
Q 17.484375 14.15625 20.5 10.265625 
Q 23.53125 6.390625 29.59375 6.390625 
Q 36.859375 6.390625 41.078125 11.03125 
Q 45.3125 15.671875 45.3125 23.6875 
L 45.3125 54.6875 
L 54.296875 54.6875 
L 54.296875 0 
L 45.3125 0 
L 45.3125 8.40625 
Q 42.046875 3.421875 37.71875 1 
Q 33.40625 -1.421875 27.6875 -1.421875 
Q 18.265625 -1.421875 13.375 4.4375 
Q 8.5 10.296875 8.5 21.578125 
z
M 31.109375 56 
z
" id="DejaVuSans-117"/>
      <path d="M 52 44.1875 
Q 55.375 50.25 60.0625 53.125 
Q 64.75 56 71.09375 56 
Q 79.640625 56 84.28125 50.015625 
Q 88.921875 44.046875 88.921875 33.015625 
L 88.921875 0 
L 79.890625 0 
L 79.890625 32.71875 
Q 79.890625 40.578125 77.09375 44.375 
Q 74.3125 48.1875 68.609375 48.1875 
Q 61.625 48.1875 57.5625 43.546875 
Q 53.515625 38.921875 53.515625 30.90625 
L 53.515625 0 
L 44.484375 0 
L 44.484375 32.71875 
Q 44.484375 40.625 41.703125 44.40625 
Q 38.921875 48.1875 33.109375 48.1875 
Q 26.21875 48.1875 22.15625 43.53125 
Q 18.109375 38.875 18.109375 30.90625 
L 18.109375 0 
L 9.078125 0 
L 9.078125 54.6875 
L 18.109375 54.6875 
L 18.109375 46.1875 
Q 21.1875 51.21875 25.484375 53.609375 
Q 29.78125 56 35.6875 56 
Q 41.65625 56 45.828125 52.96875 
Q 50 49.953125 52 44.1875 
z
" id="DejaVuSans-109"/>
      <path d="M 48.6875 27.296875 
Q 48.6875 37.203125 44.609375 42.84375 
Q 40.53125 48.484375 33.40625 48.484375 
Q 26.265625 48.484375 22.1875 42.84375 
Q 18.109375 37.203125 18.109375 27.296875 
Q 18.109375 17.390625 22.1875 11.75 
Q 26.265625 6.109375 33.40625 6.109375 
Q 40.53125 6.109375 44.609375 11.75 
Q 48.6875 17.390625 48.6875 27.296875 
z
M 18.109375 46.390625 
Q 20.953125 51.265625 25.265625 53.625 
Q 29.59375 56 35.59375 56 
Q 45.5625 56 51.78125 48.09375 
Q 58.015625 40.1875 58.015625 27.296875 
Q 58.015625 14.40625 51.78125 6.484375 
Q 45.5625 -1.421875 35.59375 -1.421875 
Q 29.59375 -1.421875 25.265625 0.953125 
Q 20.953125 3.328125 18.109375 8.203125 
L 18.109375 0 
L 9.078125 0 
L 9.078125 75.984375 
L 18.109375 75.984375 
z
" id="DejaVuSans-98"/>
      <path d="M 56.203125 29.59375 
L 56.203125 25.203125 
L 14.890625 25.203125 
Q 15.484375 15.921875 20.484375 11.0625 
Q 25.484375 6.203125 34.421875 6.203125 
Q 39.59375 6.203125 44.453125 7.46875 
Q 49.3125 8.734375 54.109375 11.28125 
L 54.109375 2.78125 
Q 49.265625 0.734375 44.1875 -0.34375 
Q 39.109375 -1.421875 33.890625 -1.421875 
Q 20.796875 -1.421875 13.15625 6.1875 
Q 5.515625 13.8125 5.515625 26.8125 
Q 5.515625 40.234375 12.765625 48.109375 
Q 20.015625 56 32.328125 56 
Q 43.359375 56 49.78125 48.890625 
Q 56.203125 41.796875 56.203125 29.59375 
z
M 47.21875 32.234375 
Q 47.125 39.59375 43.09375 43.984375 
Q 39.0625 48.390625 32.421875 48.390625 
Q 24.90625 48.390625 20.390625 44.140625 
Q 15.875 39.890625 15.1875 32.171875 
z
" id="DejaVuSans-101"/>
      <path d="M 41.109375 46.296875 
Q 39.59375 47.171875 37.8125 47.578125 
Q 36.03125 48 33.890625 48 
Q 26.265625 48 22.1875 43.046875 
Q 18.109375 38.09375 18.109375 28.8125 
L 18.109375 0 
L 9.078125 0 
L 9.078125 54.6875 
L 18.109375 54.6875 
L 18.109375 46.1875 
Q 20.953125 51.171875 25.484375 53.578125 
Q 30.03125 56 36.53125 56 
Q 37.453125 56 38.578125 55.875 
Q 39.703125 55.765625 41.0625 55.515625 
z
" id="DejaVuSans-114"/>
      <path id="DejaVuSans-32"/>
      <path d="M 30.609375 48.390625 
Q 23.390625 48.390625 19.1875 42.75 
Q 14.984375 37.109375 14.984375 27.296875 
Q 14.984375 17.484375 19.15625 11.84375 
Q 23.34375 6.203125 30.609375 6.203125 
Q 37.796875 6.203125 41.984375 11.859375 
Q 46.1875 17.53125 46.1875 27.296875 
Q 46.1875 37.015625 41.984375 42.703125 
Q 37.796875 48.390625 30.609375 48.390625 
z
M 30.609375 56 
Q 42.328125 56 49.015625 48.375 
Q 55.71875 40.765625 55.71875 27.296875 
Q 55.71875 13.875 49.015625 6.21875 
Q 42.328125 -1.421875 30.609375 -1.421875 
Q 18.84375 -1.421875 12.171875 6.21875 
Q 5.515625 13.875 5.515625 27.296875 
Q 5.515625 40.765625 12.171875 48.375 
Q 18.84375 56 30.609375 56 
z
" id="DejaVuSans-111"/>
      <path d="M 37.109375 75.984375 
L 37.109375 68.5 
L 28.515625 68.5 
Q 23.6875 68.5 21.796875 66.546875 
Q 19.921875 64.59375 19.921875 59.515625 
L 19.921875 54.6875 
L 34.71875 54.6875 
L 34.71875 47.703125 
L 19.921875 47.703125 
L 19.921875 0 
L 10.890625 0 
L 10.890625 47.703125 
L 2.296875 47.703125 
L 2.296875 54.6875 
L 10.890625 54.6875 
L 10.890625 58.5 
Q 10.890625 67.625 15.140625 71.796875 
Q 19.390625 75.984375 28.609375 75.984375 
z
" id="DejaVuSans-102"/>
      <path d="M 9.8125 72.90625 
L 55.90625 72.90625 
L 55.90625 64.59375 
L 19.671875 64.59375 
L 19.671875 43.015625 
L 54.390625 43.015625 
L 54.390625 34.71875 
L 19.671875 34.71875 
L 19.671875 8.296875 
L 56.78125 8.296875 
L 56.78125 0 
L 9.8125 0 
z
" id="DejaVuSans-69"/>
      <path d="M 18.109375 8.203125 
L 18.109375 -20.796875 
L 9.078125 -20.796875 
L 9.078125 54.6875 
L 18.109375 54.6875 
L 18.109375 46.390625 
Q 20.953125 51.265625 25.265625 53.625 
Q 29.59375 56 35.59375 56 
Q 45.5625 56 51.78125 48.09375 
Q 58.015625 40.1875 58.015625 27.296875 
Q 58.015625 14.40625 51.78125 6.484375 
Q 45.5625 -1.421875 35.59375 -1.421875 
Q 29.59375 -1.421875 25.265625 0.953125 
Q 20.953125 3.328125 18.109375 8.203125 
z
M 48.6875 27.296875 
Q 48.6875 37.203125 44.609375 42.84375 
Q 40.53125 48.484375 33.40625 48.484375 
Q 26.265625 48.484375 22.1875 42.84375 
Q 18.109375 37.203125 18.109375 27.296875 
Q 18.109375 17.390625 22.1875 11.75 
Q 26.265625 6.109375 33.40625 6.109375 
Q 40.53125 6.109375 44.609375 11.75 
Q 48.6875 17.390625 48.6875 27.296875 
z
" id="DejaVuSans-112"/>
      <path d="M 48.78125 52.59375 
L 48.78125 44.1875 
Q 44.96875 46.296875 41.140625 47.34375 
Q 37.3125 48.390625 33.40625 48.390625 
Q 24.65625 48.390625 19.8125 42.84375 
Q 14.984375 37.3125 14.984375 27.296875 
Q 14.984375 17.28125 19.8125 11.734375 
Q 24.65625 6.203125 33.40625 6.203125 
Q 37.3125 6.203125 41.140625 7.25 
Q 44.96875 8.296875 48.78125 10.40625 
L 48.78125 2.09375 
Q 45.015625 0.34375 40.984375 -0.53125 
Q 36.96875 -1.421875 32.421875 -1.421875 
Q 20.0625 -1.421875 12.78125 6.34375 
Q 5.515625 14.109375 5.515625 27.296875 
Q 5.515625 40.671875 12.859375 48.328125 
Q 20.21875 56 33.015625 56 
Q 37.15625 56 41.109375 55.140625 
Q 45.0625 54.296875 48.78125 52.59375 
z
" id="DejaVuSans-99"/>
      <path d="M 54.890625 33.015625 
L 54.890625 0 
L 45.90625 0 
L 45.90625 32.71875 
Q 45.90625 40.484375 42.875 44.328125 
Q 39.84375 48.1875 33.796875 48.1875 
Q 26.515625 48.1875 22.3125 43.546875 
Q 18.109375 38.921875 18.109375 30.90625 
L 18.109375 0 
L 9.078125 0 
L 9.078125 75.984375 
L 18.109375 75.984375 
L 18.109375 46.1875 
Q 21.34375 51.125 25.703125 53.5625 
Q 30.078125 56 35.796875 56 
Q 45.21875 56 50.046875 50.171875 
Q 54.890625 44.34375 54.890625 33.015625 
z
" id="DejaVuSans-104"/>
      <path d="M 44.28125 53.078125 
L 44.28125 44.578125 
Q 40.484375 46.53125 36.375 47.5 
Q 32.28125 48.484375 27.875 48.484375 
Q 21.1875 48.484375 17.84375 46.4375 
Q 14.5 44.390625 14.5 40.28125 
Q 14.5 37.15625 16.890625 35.375 
Q 19.28125 33.59375 26.515625 31.984375 
L 29.59375 31.296875 
Q 39.15625 29.25 43.1875 25.515625 
Q 47.21875 21.78125 47.21875 15.09375 
Q 47.21875 7.46875 41.1875 3.015625 
Q 35.15625 -1.421875 24.609375 -1.421875 
Q 20.21875 -1.421875 15.453125 -0.5625 
Q 10.6875 0.296875 5.421875 2 
L 5.421875 11.28125 
Q 10.40625 8.6875 15.234375 7.390625 
Q 20.0625 6.109375 24.8125 6.109375 
Q 31.15625 6.109375 34.5625 8.28125 
Q 37.984375 10.453125 37.984375 14.40625 
Q 37.984375 18.0625 35.515625 20.015625 
Q 33.0625 21.96875 24.703125 23.78125 
L 21.578125 24.515625 
Q 13.234375 26.265625 9.515625 29.90625 
Q 5.8125 33.546875 5.8125 39.890625 
Q 5.8125 47.609375 11.28125 51.796875 
Q 16.75 56 26.8125 56 
Q 31.78125 56 36.171875 55.265625 
Q 40.578125 54.546875 44.28125 53.078125 
z
" id="DejaVuSans-115"/>
     </defs>
     <g transform="translate(378.245562 548.633125)scale(0.2 -0.2)">
      <use xlink:href="#DejaVuSans-78"/>
      <use x="74.804688" xlink:href="#DejaVuSans-117"/>
      <use x="138.183594" xlink:href="#DejaVuSans-109"/>
      <use x="235.595703" xlink:href="#DejaVuSans-98"/>
      <use x="299.072266" xlink:href="#DejaVuSans-101"/>
      <use x="360.595703" xlink:href="#DejaVuSans-114"/>
      <use x="401.708984" xlink:href="#DejaVuSans-32"/>
      <use x="433.496094" xlink:href="#DejaVuSans-111"/>
      <use x="494.677734" xlink:href="#DejaVuSans-102"/>
      <use x="529.882812" xlink:href="#DejaVuSans-32"/>
      <use x="561.669922" xlink:href="#DejaVuSans-69"/>
      <use x="624.853516" xlink:href="#DejaVuSans-112"/>
      <use x="688.330078" xlink:href="#DejaVuSans-111"/>
      <use x="749.511719" xlink:href="#DejaVuSans-99"/>
      <use x="804.492188" xlink:href="#DejaVuSans-104"/>
      <use x="867.871094" xlink:href="#DejaVuSans-115"/>
     </g>
    </g>
   </g>
   <g id="matplotlib.axis_2">
    <g id="ytick_1">
     <g id="line2d_19">
      <path clip-path="url(#pce21d01614)" d="M 78.14 472.629333 
L 862.348 472.629333 
" style="fill:none;stroke:#b0b0b0;stroke-linecap:square;stroke-width:0.8;"/>
     </g>
     <g id="line2d_20">
      <defs>
       <path d="M 0 0 
L -3.5 0 
" id="mbe15a3dae9" style="stroke:#000000;stroke-width:0.8;"/>
      </defs>
      <g>
       <use style="stroke:#000000;stroke-width:0.8;" x="78.14" xlink:href="#mbe15a3dae9" y="472.629333"/>
      </g>
     </g>
     <g id="text_11">
      <!-- 16 -->
      <defs>
       <path d="M 33.015625 40.375 
Q 26.375 40.375 22.484375 35.828125 
Q 18.609375 31.296875 18.609375 23.390625 
Q 18.609375 15.53125 22.484375 10.953125 
Q 26.375 6.390625 33.015625 6.390625 
Q 39.65625 6.390625 43.53125 10.953125 
Q 47.40625 15.53125 47.40625 23.390625 
Q 47.40625 31.296875 43.53125 35.828125 
Q 39.65625 40.375 33.015625 40.375 
z
M 52.59375 71.296875 
L 52.59375 62.3125 
Q 48.875 64.0625 45.09375 64.984375 
Q 41.3125 65.921875 37.59375 65.921875 
Q 27.828125 65.921875 22.671875 59.328125 
Q 17.53125 52.734375 16.796875 39.40625 
Q 19.671875 43.65625 24.015625 45.921875 
Q 28.375 48.1875 33.59375 48.1875 
Q 44.578125 48.1875 50.953125 41.515625 
Q 57.328125 34.859375 57.328125 23.390625 
Q 57.328125 12.15625 50.6875 5.359375 
Q 44.046875 -1.421875 33.015625 -1.421875 
Q 20.359375 -1.421875 13.671875 8.265625 
Q 6.984375 17.96875 6.984375 36.375 
Q 6.984375 53.65625 15.1875 63.9375 
Q 23.390625 74.21875 37.203125 74.21875 
Q 40.921875 74.21875 44.703125 73.484375 
Q 48.484375 72.75 52.59375 71.296875 
z
" id="DejaVuSans-54"/>
      </defs>
      <g transform="translate(45.69 480.227771)scale(0.2 -0.2)">
       <use xlink:href="#DejaVuSans-49"/>
       <use x="63.623047" xlink:href="#DejaVuSans-54"/>
      </g>
     </g>
    </g>
    <g id="ytick_2">
     <g id="line2d_21">
      <path clip-path="url(#pce21d01614)" d="M 78.14 411.728 
L 862.348 411.728 
" style="fill:none;stroke:#b0b0b0;stroke-linecap:square;stroke-width:0.8;"/>
     </g>
     <g id="line2d_22">
      <g>
       <use style="stroke:#000000;stroke-width:0.8;" x="78.14" xlink:href="#mbe15a3dae9" y="411.728"/>
      </g>
     </g>
     <g id="text_12">
      <!-- 18 -->
      <defs>
       <path d="M 31.78125 34.625 
Q 24.75 34.625 20.71875 30.859375 
Q 16.703125 27.09375 16.703125 20.515625 
Q 16.703125 13.921875 20.71875 10.15625 
Q 24.75 6.390625 31.78125 6.390625 
Q 38.8125 6.390625 42.859375 10.171875 
Q 46.921875 13.96875 46.921875 20.515625 
Q 46.921875 27.09375 42.890625 30.859375 
Q 38.875 34.625 31.78125 34.625 
z
M 21.921875 38.8125 
Q 15.578125 40.375 12.03125 44.71875 
Q 8.5 49.078125 8.5 55.328125 
Q 8.5 64.0625 14.71875 69.140625 
Q 20.953125 74.21875 31.78125 74.21875 
Q 42.671875 74.21875 48.875 69.140625 
Q 55.078125 64.0625 55.078125 55.328125 
Q 55.078125 49.078125 51.53125 44.71875 
Q 48 40.375 41.703125 38.8125 
Q 48.828125 37.15625 52.796875 32.3125 
Q 56.78125 27.484375 56.78125 20.515625 
Q 56.78125 9.90625 50.3125 4.234375 
Q 43.84375 -1.421875 31.78125 -1.421875 
Q 19.734375 -1.421875 13.25 4.234375 
Q 6.78125 9.90625 6.78125 20.515625 
Q 6.78125 27.484375 10.78125 32.3125 
Q 14.796875 37.15625 21.921875 38.8125 
z
M 18.3125 54.390625 
Q 18.3125 48.734375 21.84375 45.5625 
Q 25.390625 42.390625 31.78125 42.390625 
Q 38.140625 42.390625 41.71875 45.5625 
Q 45.3125 48.734375 45.3125 54.390625 
Q 45.3125 60.0625 41.71875 63.234375 
Q 38.140625 66.40625 31.78125 66.40625 
Q 25.390625 66.40625 21.84375 63.234375 
Q 18.3125 60.0625 18.3125 54.390625 
z
" id="DejaVuSans-56"/>
      </defs>
      <g transform="translate(45.69 419.326437)scale(0.2 -0.2)">
       <use xlink:href="#DejaVuSans-49"/>
       <use x="63.623047" xlink:href="#DejaVuSans-56"/>
      </g>
     </g>
    </g>
    <g id="ytick_3">
     <g id="line2d_23">
      <path clip-path="url(#pce21d01614)" d="M 78.14 350.826667 
L 862.348 350.826667 
" style="fill:none;stroke:#b0b0b0;stroke-linecap:square;stroke-width:0.8;"/>
     </g>
     <g id="line2d_24">
      <g>
       <use style="stroke:#000000;stroke-width:0.8;" x="78.14" xlink:href="#mbe15a3dae9" y="350.826667"/>
      </g>
     </g>
     <g id="text_13">
      <!-- 20 -->
      <g transform="translate(45.69 358.425104)scale(0.2 -0.2)">
       <use xlink:href="#DejaVuSans-50"/>
       <use x="63.623047" xlink:href="#DejaVuSans-48"/>
      </g>
     </g>
    </g>
    <g id="ytick_4">
     <g id="line2d_25">
      <path clip-path="url(#pce21d01614)" d="M 78.14 289.925333 
L 862.348 289.925333 
" style="fill:none;stroke:#b0b0b0;stroke-linecap:square;stroke-width:0.8;"/>
     </g>
     <g id="line2d_26">
      <g>
       <use style="stroke:#000000;stroke-width:0.8;" x="78.14" xlink:href="#mbe15a3dae9" y="289.925333"/>
      </g>
     </g>
     <g id="text_14">
      <!-- 22 -->
      <g transform="translate(45.69 297.523771)scale(0.2 -0.2)">
       <use xlink:href="#DejaVuSans-50"/>
       <use x="63.623047" xlink:href="#DejaVuSans-50"/>
      </g>
     </g>
    </g>
    <g id="ytick_5">
     <g id="line2d_27">
      <path clip-path="url(#pce21d01614)" d="M 78.14 229.024 
L 862.348 229.024 
" style="fill:none;stroke:#b0b0b0;stroke-linecap:square;stroke-width:0.8;"/>
     </g>
     <g id="line2d_28">
      <g>
       <use style="stroke:#000000;stroke-width:0.8;" x="78.14" xlink:href="#mbe15a3dae9" y="229.024"/>
      </g>
     </g>
     <g id="text_15">
      <!-- 24 -->
      <g transform="translate(45.69 236.622437)scale(0.2 -0.2)">
       <use xlink:href="#DejaVuSans-50"/>
       <use x="63.623047" xlink:href="#DejaVuSans-52"/>
      </g>
     </g>
    </g>
    <g id="ytick_6">
     <g id="line2d_29">
      <path clip-path="url(#pce21d01614)" d="M 78.14 168.122667 
L 862.348 168.122667 
" style="fill:none;stroke:#b0b0b0;stroke-linecap:square;stroke-width:0.8;"/>
     </g>
     <g id="line2d_30">
      <g>
       <use style="stroke:#000000;stroke-width:0.8;" x="78.14" xlink:href="#mbe15a3dae9" y="168.122667"/>
      </g>
     </g>
     <g id="text_16">
      <!-- 26 -->
      <g transform="translate(45.69 175.721104)scale(0.2 -0.2)">
       <use xlink:href="#DejaVuSans-50"/>
       <use x="63.623047" xlink:href="#DejaVuSans-54"/>
      </g>
     </g>
    </g>
    <g id="ytick_7">
     <g id="line2d_31">
      <path clip-path="url(#pce21d01614)" d="M 78.14 107.221333 
L 862.348 107.221333 
" style="fill:none;stroke:#b0b0b0;stroke-linecap:square;stroke-width:0.8;"/>
     </g>
     <g id="line2d_32">
      <g>
       <use style="stroke:#000000;stroke-width:0.8;" x="78.14" xlink:href="#mbe15a3dae9" y="107.221333"/>
      </g>
     </g>
     <g id="text_17">
      <!-- 28 -->
      <g transform="translate(45.69 114.819771)scale(0.2 -0.2)">
       <use xlink:href="#DejaVuSans-50"/>
       <use x="63.623047" xlink:href="#DejaVuSans-56"/>
      </g>
     </g>
    </g>
    <g id="ytick_8">
     <g id="line2d_33">
      <path clip-path="url(#pce21d01614)" d="M 78.14 46.32 
L 862.348 46.32 
" style="fill:none;stroke:#b0b0b0;stroke-linecap:square;stroke-width:0.8;"/>
     </g>
     <g id="line2d_34">
      <g>
       <use style="stroke:#000000;stroke-width:0.8;" x="78.14" xlink:href="#mbe15a3dae9" y="46.32"/>
      </g>
     </g>
     <g id="text_18">
      <!-- 30 -->
      <g transform="translate(45.69 53.918437)scale(0.2 -0.2)">
       <use xlink:href="#DejaVuSans-51"/>
       <use x="63.623047" xlink:href="#DejaVuSans-48"/>
      </g>
     </g>
    </g>
    <g id="text_19">
     <!-- PSNR -->
     <defs>
      <path d="M 19.671875 64.796875 
L 19.671875 37.40625 
L 32.078125 37.40625 
Q 38.96875 37.40625 42.71875 40.96875 
Q 46.484375 44.53125 46.484375 51.125 
Q 46.484375 57.671875 42.71875 61.234375 
Q 38.96875 64.796875 32.078125 64.796875 
z
M 9.8125 72.90625 
L 32.078125 72.90625 
Q 44.34375 72.90625 50.609375 67.359375 
Q 56.890625 61.8125 56.890625 51.125 
Q 56.890625 40.328125 50.609375 34.8125 
Q 44.34375 29.296875 32.078125 29.296875 
L 19.671875 29.296875 
L 19.671875 0 
L 9.8125 0 
z
" id="DejaVuSans-80"/>
      <path d="M 53.515625 70.515625 
L 53.515625 60.890625 
Q 47.90625 63.578125 42.921875 64.890625 
Q 37.9375 66.21875 33.296875 66.21875 
Q 25.25 66.21875 20.875 63.09375 
Q 16.5 59.96875 16.5 54.203125 
Q 16.5 49.359375 19.40625 46.890625 
Q 22.3125 44.4375 30.421875 42.921875 
L 36.375 41.703125 
Q 47.40625 39.59375 52.65625 34.296875 
Q 57.90625 29 57.90625 20.125 
Q 57.90625 9.515625 50.796875 4.046875 
Q 43.703125 -1.421875 29.984375 -1.421875 
Q 24.8125 -1.421875 18.96875 -0.25 
Q 13.140625 0.921875 6.890625 3.21875 
L 6.890625 13.375 
Q 12.890625 10.015625 18.65625 8.296875 
Q 24.421875 6.59375 29.984375 6.59375 
Q 38.421875 6.59375 43.015625 9.90625 
Q 47.609375 13.234375 47.609375 19.390625 
Q 47.609375 24.75 44.3125 27.78125 
Q 41.015625 30.8125 33.5 32.328125 
L 27.484375 33.5 
Q 16.453125 35.6875 11.515625 40.375 
Q 6.59375 45.0625 6.59375 53.421875 
Q 6.59375 63.09375 13.40625 68.65625 
Q 20.21875 74.21875 32.171875 74.21875 
Q 37.3125 74.21875 42.625 73.28125 
Q 47.953125 72.359375 53.515625 70.515625 
z
" id="DejaVuSans-83"/>
      <path d="M 44.390625 34.1875 
Q 47.5625 33.109375 50.5625 29.59375 
Q 53.5625 26.078125 56.59375 19.921875 
L 66.609375 0 
L 56 0 
L 46.6875 18.703125 
Q 43.0625 26.03125 39.671875 28.421875 
Q 36.28125 30.8125 30.421875 30.8125 
L 19.671875 30.8125 
L 19.671875 0 
L 9.8125 0 
L 9.8125 72.90625 
L 32.078125 72.90625 
Q 44.578125 72.90625 50.734375 67.671875 
Q 56.890625 62.453125 56.890625 51.90625 
Q 56.890625 45.015625 53.6875 40.46875 
Q 50.484375 35.9375 44.390625 34.1875 
z
M 19.671875 64.796875 
L 19.671875 38.921875 
L 32.078125 38.921875 
Q 39.203125 38.921875 42.84375 42.21875 
Q 46.484375 45.515625 46.484375 51.90625 
Q 46.484375 58.296875 42.84375 61.546875 
Q 39.203125 64.796875 32.078125 64.796875 
z
" id="DejaVuSans-82"/>
     </defs>
     <g transform="translate(37.530625 301.507812)rotate(-90)scale(0.2 -0.2)">
      <use xlink:href="#DejaVuSans-80"/>
      <use x="60.302734" xlink:href="#DejaVuSans-83"/>
      <use x="123.779297" xlink:href="#DejaVuSans-78"/>
      <use x="198.583984" xlink:href="#DejaVuSans-82"/>
     </g>
    </g>
   </g>
   <g id="line2d_35">
    <path clip-path="url(#pce21d01614)" d="M 113.785818 413.60209 
L 117.368312 170.428678 
L 120.950807 121.983381 
L 124.533301 108.386647 
L 128.115795 77.512077 
L 131.69829 67.055113 
L 135.280784 76.077559 
L 138.863278 74.844517 
L 142.445772 69.915532 
L 146.028267 83.538902 
L 149.610761 72.990305 
L 153.193255 74.034975 
L 156.77575 75.226582 
L 160.358244 80.406407 
L 163.940738 82.008983 
L 167.523233 83.007042 
L 171.105727 86.885165 
L 174.688221 89.043136 
L 178.270715 100.012051 
L 181.85321 105.252472 
L 185.435704 97.754718 
L 189.018198 104.163824 
L 192.600693 96.870974 
L 196.183187 105.278002 
L 199.765681 100.782025 
L 203.348175 110.236634 
L 206.93067 109.501703 
L 210.513164 105.302885 
L 214.095658 102.315333 
L 217.678153 108.115539 
L 221.260647 110.545753 
L 224.843141 107.419223 
L 228.425635 106.407488 
L 232.00813 108.283747 
L 235.590624 114.118524 
L 239.173118 106.691996 
L 242.755613 106.928757 
L 246.338107 109.3326 
L 249.920601 117.714058 
L 253.503095 110.362415 
L 257.08559 110.59118 
L 260.668084 122.58845 
L 264.250578 118.908365 
L 267.833073 113.536218 
L 271.415567 114.958877 
L 274.998061 115.560987 
L 278.580556 113.283178 
L 282.16305 112.081855 
L 285.745544 114.628842 
L 289.328038 115.21793 
L 292.910533 116.332814 
L 296.493027 113.356308 
L 300.075521 119.418033 
L 303.658016 122.892524 
L 307.24051 120.11318 
L 310.823004 117.188723 
L 314.405498 114.860673 
L 317.987993 116.306055 
L 321.570487 115.423404 
L 325.152981 122.549458 
L 328.735476 114.173721 
L 332.31797 115.38538 
L 335.900464 119.368262 
L 339.482958 120.337267 
L 343.065453 116.198181 
L 346.647947 118.913402 
L 350.230441 119.870947 
L 353.812936 118.069784 
L 357.39543 122.043841 
L 360.977924 118.858895 
L 364.560418 117.750695 
L 368.142913 124.76286 
L 371.725407 117.75254 
L 375.307901 121.063062 
L 378.890396 118.857228 
L 382.47289 120.308555 
L 386.055384 122.779977 
L 389.637878 119.822053 
L 393.220373 125.267977 
L 396.802867 125.996504 
L 400.385361 126.052507 
L 403.967856 121.115771 
L 407.55035 123.040703 
L 411.132844 125.959705 
L 414.715339 124.1103 
L 418.297833 121.911942 
L 421.880327 118.740417 
L 425.462821 121.341507 
L 429.045316 125.171957 
L 432.62781 125.900428 
L 436.210304 125.990606 
L 439.792799 125.038117 
L 443.375293 120.909227 
L 446.957787 121.259567 
L 450.540281 124.885458 
L 454.122776 120.950295 
L 457.70527 122.539834 
L 461.287764 129.552304 
L 464.870259 122.608966 
L 468.452753 124.484688 
L 472.035247 129.552776 
L 475.617741 127.802556 
L 479.200236 125.876845 
L 482.78273 123.226141 
L 486.365224 128.988081 
L 489.947719 124.034263 
L 493.530213 127.704805 
L 497.112707 123.457914 
L 500.695201 128.139244 
L 504.277696 126.298901 
L 507.86019 125.11071 
L 511.442684 122.504897 
L 515.025179 124.623546 
L 518.607673 122.682098 
L 522.190167 123.668572 
L 525.772661 122.142445 
L 529.355156 122.927489 
L 532.93765 123.391177 
L 536.520144 131.321701 
L 540.102639 132.026735 
L 543.685133 124.509676 
L 547.267627 124.084422 
L 550.850122 122.202018 
L 554.432616 130.179515 
L 558.01511 128.148001 
L 561.597604 125.55892 
L 565.180099 125.910648 
L 568.762593 125.89634 
L 572.345087 127.140548 
L 575.927582 126.974315 
L 579.510076 131.405248 
L 583.09257 124.994508 
L 586.675064 126.552882 
L 590.257559 128.887381 
L 593.840053 136.065019 
L 597.422547 129.557307 
L 601.005042 126.209675 
L 604.587536 124.641793 
L 608.17003 128.567182 
L 611.752524 131.229494 
L 615.335019 131.623001 
L 618.917513 124.573921 
L 622.500007 127.497649 
L 626.082502 132.04213 
L 629.664996 132.428712 
L 633.24749 128.216703 
L 636.829984 125.215562 
L 640.412479 129.948984 
L 643.994973 128.998662 
L 647.577467 125.927297 
L 651.159962 131.080489 
L 654.742456 130.369508 
L 661.907444 125.554705 
L 665.489939 124.603892 
L 669.072433 127.642134 
L 672.654927 129.136802 
L 676.237422 127.314842 
L 679.819916 126.815897 
L 683.40241 125.904602 
L 686.984905 125.483693 
L 690.567399 126.864874 
L 694.149893 125.228009 
L 697.732387 132.066735 
L 701.314882 129.092562 
L 704.897376 126.504727 
L 708.47987 132.087657 
L 712.062365 124.622015 
L 715.644859 125.910965 
L 719.227353 129.971804 
L 722.809847 125.800882 
L 726.392342 133.591643 
L 729.974836 132.640174 
L 733.55733 131.849802 
L 737.139825 127.18727 
L 740.722319 125.518623 
L 744.304813 131.17515 
L 747.887307 130.763721 
L 751.469802 129.159801 
L 755.052296 131.879103 
L 758.63479 128.51935 
L 762.217285 129.614054 
L 765.799779 128.921991 
L 769.382273 130.558831 
L 772.964767 128.374258 
L 776.547262 130.003864 
L 780.129756 132.681877 
L 783.71225 130.793073 
L 787.294745 128.032667 
L 790.877239 130.668693 
L 794.459733 129.986475 
L 798.042228 126.638466 
L 801.624722 128.826395 
L 805.207216 133.537246 
L 808.78971 127.520012 
L 812.372205 127.67107 
L 815.954699 132.235225 
L 819.537193 129.523476 
L 823.119688 126.996709 
L 826.702182 128.008949 
L 826.702182 128.008949 
" style="fill:none;stroke:#00008b;stroke-linecap:square;stroke-width:1.5;"/>
   </g>
   <g id="line2d_36">
    <path clip-path="url(#pce21d01614)" d="M 115.553487 577 
L 131.69829 143.766948 
L 149.610761 85.236634 
L 167.523233 87.589072 
L 185.435704 137.878642 
L 203.348175 200.405646 
L 221.260647 225.357131 
L 239.173118 243.198427 
L 257.08559 256.776011 
L 274.998061 268.384655 
L 292.910533 270.852849 
L 310.823004 277.789398 
L 328.735476 279.893177 
L 346.647947 288.580172 
L 364.560418 289.188725 
L 382.47289 287.113201 
L 400.385361 286.688739 
L 418.297833 287.75152 
L 436.210304 291.601062 
L 454.122776 293.384299 
L 472.035247 294.921638 
L 489.947719 293.150656 
L 507.86019 295.954656 
L 525.772661 294.743308 
L 543.685133 296.509243 
L 561.597604 298.92991 
L 579.510076 299.664471 
L 597.422547 297.081842 
L 615.335019 299.611344 
L 633.24749 299.358571 
L 651.159962 295.907931 
L 669.072433 298.020067 
L 686.984905 301.066201 
L 704.897376 299.862117 
L 722.809847 299.23271 
L 740.722319 302.080827 
L 758.63479 300.385853 
L 776.547262 307.373269 
L 794.459733 300.548128 
L 812.372205 303.922736 
" style="fill:none;stroke:#afafaf;stroke-linecap:square;stroke-width:1.5;"/>
   </g>
   <g id="line2d_37">
    <path clip-path="url(#pce21d01614)" d="M 115.349482 577 
L 131.69829 144.958244 
L 149.610761 70.283542 
L 167.523233 104.839958 
L 185.435704 155.154693 
L 203.348175 207.716702 
L 221.260647 237.361112 
L 239.173118 252.416535 
L 257.08559 260.170296 
L 274.998061 267.821896 
L 292.910533 273.510279 
L 310.823004 278.897127 
L 328.735476 279.817457 
L 346.647947 286.003257 
L 364.560418 286.447045 
L 382.47289 287.020759 
L 400.385361 289.107068 
L 418.297833 285.567899 
L 436.210304 287.431492 
L 454.122776 289.545034 
L 472.035247 291.912556 
L 489.947719 294.376057 
L 507.86019 292.304937 
L 525.772661 292.11023 
L 543.685133 291.954727 
L 561.597604 294.94646 
L 579.510076 297.640248 
L 597.422547 298.714154 
L 615.335019 296.547953 
L 633.24749 299.965465 
L 651.159962 298.910147 
L 669.072433 296.96895 
L 686.984905 298.415732 
L 704.897376 298.477193 
L 722.809847 298.187866 
L 740.722319 299.014798 
L 758.63479 298.363993 
L 776.547262 299.006704 
L 794.459733 299.910571 
L 812.372205 301.579453 
" style="fill:none;stroke:#afafaf;stroke-linecap:square;stroke-width:1.5;"/>
   </g>
   <g id="line2d_38">
    <path clip-path="url(#pce21d01614)" d="M 115.427687 577 
L 131.69829 148.773406 
L 149.610761 72.711063 
L 167.523233 105.454414 
L 185.435704 165.369006 
L 203.348175 204.963861 
L 221.260647 234.465255 
L 239.173118 250.618271 
L 257.08559 257.259818 
L 274.998061 260.587668 
L 292.910533 268.586687 
L 310.823004 270.281848 
L 328.735476 273.321042 
L 346.647947 276.138093 
L 364.560418 277.080897 
L 382.47289 278.038892 
L 400.385361 285.088823 
L 418.297833 284.020951 
L 436.210304 285.923083 
L 454.122776 285.226716 
L 472.035247 286.554474 
L 489.947719 288.180683 
L 507.86019 286.826983 
L 525.772661 287.577357 
L 543.685133 289.08709 
L 561.597604 289.258341 
L 579.510076 291.42937 
L 597.422547 289.105334 
L 615.335019 289.090722 
L 633.24749 291.696507 
L 651.159962 292.704541 
L 669.072433 292.913929 
L 686.984905 290.9794 
L 704.897376 295.993321 
L 722.809847 293.160597 
L 740.722319 294.951802 
L 758.63479 295.196856 
L 776.547262 298.184191 
L 794.459733 295.156447 
L 812.372205 296.645426 
" style="fill:none;stroke:#9e9e9e;stroke-linecap:square;stroke-width:1.5;"/>
   </g>
   <g id="line2d_39">
    <path clip-path="url(#pce21d01614)" d="M 115.333952 577 
L 131.69829 142.55939 
L 149.610761 72.847787 
L 167.523233 118.258432 
L 185.435704 174.751521 
L 203.348175 221.12614 
L 221.260647 237.741569 
L 239.173118 252.652633 
L 257.08559 259.412364 
L 274.998061 261.898637 
L 292.910533 269.744126 
L 310.823004 273.250289 
L 328.735476 277.247326 
L 346.647947 275.899394 
L 364.560418 275.928105 
L 382.47289 279.448869 
L 400.385361 283.499612 
L 418.297833 279.625689 
L 436.210304 280.813441 
L 454.122776 281.000064 
L 472.035247 284.097847 
L 489.947719 283.454246 
L 507.86019 285.982827 
L 525.772661 284.83656 
L 543.685133 284.8189 
L 561.597604 283.317875 
L 579.510076 285.757085 
L 597.422547 290.645469 
L 615.335019 287.979594 
L 633.24749 291.576566 
L 651.159962 286.525735 
L 669.072433 289.154121 
L 686.984905 289.212839 
L 704.897376 287.288385 
L 722.809847 289.713902 
L 740.722319 295.110856 
L 758.63479 292.09521 
L 776.547262 288.62239 
L 794.459733 292.523194 
L 812.372205 293.433739 
" style="fill:none;stroke:#8f8f8f;stroke-linecap:square;stroke-width:1.5;"/>
   </g>
   <g id="line2d_40">
    <path clip-path="url(#pce21d01614)" d="M 115.096995 577 
L 131.69829 109.913159 
L 149.610761 83.6704 
L 167.523233 135.869622 
L 185.435704 181.24199 
L 203.348175 216.746591 
L 221.260647 233.150965 
L 239.173118 244.623612 
L 257.08559 255.378469 
L 274.998061 256.610323 
L 292.910533 262.739624 
L 310.823004 262.912063 
L 328.735476 266.525377 
L 346.647947 271.130806 
L 364.560418 272.63761 
L 382.47289 272.267253 
L 400.385361 273.82595 
L 418.297833 274.845252 
L 436.210304 272.223019 
L 454.122776 277.526876 
L 472.035247 274.800633 
L 489.947719 279.875792 
L 507.86019 277.517533 
L 525.772661 279.197651 
L 543.685133 278.725274 
L 561.597604 283.085091 
L 579.510076 281.134989 
L 597.422547 282.356263 
L 615.335019 280.865907 
L 633.24749 281.825381 
L 651.159962 282.057182 
L 669.072433 283.714711 
L 686.984905 283.673612 
L 704.897376 285.701109 
L 722.809847 285.333189 
L 740.722319 286.650553 
L 758.63479 283.63566 
L 776.547262 284.342456 
L 794.459733 286.125603 
L 812.372205 285.254448 
" style="fill:none;stroke:#7f7f7f;stroke-linecap:square;stroke-width:1.5;"/>
   </g>
   <g id="line2d_41">
    <path clip-path="url(#pce21d01614)" d="M 114.946115 577 
L 131.69829 100.824481 
L 149.610761 84.112963 
L 167.523233 151.027106 
L 185.435704 203.610261 
L 203.348175 224.527146 
L 221.260647 237.571145 
L 239.173118 247.851635 
L 257.08559 257.216416 
L 274.998061 259.801379 
L 292.910533 262.710645 
L 310.823004 265.347344 
L 328.735476 264.689249 
L 346.647947 264.84532 
L 364.560418 264.306188 
L 382.47289 270.101529 
L 400.385361 270.380378 
L 418.297833 269.927921 
L 436.210304 273.161491 
L 454.122776 277.25119 
L 472.035247 272.37607 
L 489.947719 273.262213 
L 507.86019 274.045251 
L 525.772661 274.578846 
L 543.685133 279.467049 
L 561.597604 277.638267 
L 579.510076 276.145237 
L 597.422547 276.733678 
L 615.335019 278.27058 
L 633.24749 280.483195 
L 651.159962 277.042796 
L 669.072433 278.752847 
L 686.984905 280.197642 
L 704.897376 281.607807 
L 722.809847 280.178839 
L 740.722319 278.139985 
L 758.63479 282.40047 
L 776.547262 280.087605 
L 794.459733 282.212264 
L 812.372205 281.678553 
" style="fill:none;stroke:#717171;stroke-linecap:square;stroke-width:1.5;"/>
   </g>
   <g id="line2d_42">
    <path clip-path="url(#pce21d01614)" d="M 114.79024 577 
L 131.69829 109.029321 
L 149.610761 90.927003 
L 167.523233 141.105734 
L 185.435704 192.195665 
L 203.348175 225.804209 
L 221.260647 231.76607 
L 239.173118 239.652856 
L 257.08559 248.984337 
L 274.998061 252.317505 
L 292.910533 249.323234 
L 310.823004 260.174448 
L 328.735476 259.383302 
L 346.647947 255.914884 
L 364.560418 266.506155 
L 382.47289 257.05599 
L 400.385361 261.079955 
L 418.297833 265.041199 
L 436.210304 264.656548 
L 454.122776 262.7899 
L 472.035247 264.780591 
L 489.947719 266.714678 
L 507.86019 268.715012 
L 525.772661 271.458283 
L 543.685133 269.636468 
L 561.597604 272.281321 
L 579.510076 267.74942 
L 597.422547 273.649507 
L 615.335019 270.395578 
L 633.24749 274.820885 
L 651.159962 272.410938 
L 669.072433 270.983222 
L 686.984905 269.058848 
L 704.897376 278.84543 
L 722.809847 271.689354 
L 740.722319 274.894445 
L 758.63479 273.735762 
L 776.547262 273.937236 
L 794.459733 274.979018 
L 812.372205 276.536471 
" style="fill:none;stroke:#636363;stroke-linecap:square;stroke-width:1.5;"/>
   </g>
   <g id="line2d_43">
    <path clip-path="url(#pce21d01614)" d="M 114.671755 577 
L 131.69829 93.938203 
L 149.610761 105.35703 
L 167.523233 172.352678 
L 185.435704 200.393874 
L 203.348175 218.628037 
L 221.260647 227.955148 
L 239.173118 236.317559 
L 257.08559 238.179588 
L 274.998061 242.409824 
L 292.910533 245.939043 
L 310.823004 246.629475 
L 328.735476 251.516468 
L 346.647947 253.600619 
L 364.560418 250.84742 
L 382.47289 249.355477 
L 400.385361 256.229397 
L 418.297833 253.628441 
L 436.210304 252.287316 
L 454.122776 258.129531 
L 472.035247 257.849787 
L 489.947719 256.360396 
L 507.86019 260.074041 
L 525.772661 258.761709 
L 543.685133 259.990002 
L 561.597604 256.998343 
L 579.510076 259.290544 
L 597.422547 260.250884 
L 615.335019 261.806837 
L 633.24749 258.770048 
L 651.159962 261.460998 
L 669.072433 261.128858 
L 686.984905 263.107706 
L 704.897376 262.296243 
L 722.809847 263.025467 
L 740.722319 261.294945 
L 758.63479 266.180316 
L 776.547262 260.245486 
L 794.459733 261.086546 
L 812.372205 265.185763 
" style="fill:none;stroke:#555555;stroke-linecap:square;stroke-width:1.5;"/>
   </g>
   <g id="line2d_44">
    <path clip-path="url(#pce21d01614)" d="M 114.44802 577 
L 131.69829 90.999181 
L 149.610761 95.770493 
L 167.523233 152.429649 
L 185.435704 196.309895 
L 203.348175 209.388576 
L 221.260647 215.81648 
L 239.173118 220.990323 
L 257.08559 230.878993 
L 274.998061 231.502693 
L 292.910533 230.537097 
L 310.823004 230.62532 
L 328.735476 236.003354 
L 346.647947 236.740378 
L 364.560418 237.271059 
L 382.47289 242.312047 
L 400.385361 242.042659 
L 418.297833 241.327746 
L 436.210304 242.08726 
L 454.122776 241.101671 
L 472.035247 245.093233 
L 489.947719 246.887888 
L 507.86019 244.500801 
L 525.772661 247.503578 
L 543.685133 247.579174 
L 561.597604 250.286746 
L 579.510076 246.438868 
L 597.422547 246.770002 
L 615.335019 248.297258 
L 633.24749 248.07801 
L 651.159962 248.817563 
L 669.072433 250.03913 
L 686.984905 251.324481 
L 704.897376 248.069206 
L 722.809847 248.697759 
L 740.722319 247.882258 
L 758.63479 252.202388 
L 776.547262 250.143292 
L 794.459733 250.168983 
L 812.372205 248.679315 
" style="fill:none;stroke:#555555;stroke-linecap:square;stroke-width:1.5;"/>
   </g>
   <g id="line2d_45">
    <path clip-path="url(#pce21d01614)" d="M 114.642044 577 
L 131.69829 85.700435 
L 149.610761 93.297264 
L 167.523233 155.885707 
L 185.435704 174.235331 
L 203.348175 193.073265 
L 221.260647 201.090833 
L 239.173118 214.946367 
L 257.08559 217.045077 
L 274.998061 217.296889 
L 292.910533 216.523379 
L 310.823004 225.188195 
L 328.735476 223.46939 
L 346.647947 223.206917 
L 364.560418 226.996403 
L 382.47289 228.181187 
L 400.385361 231.761637 
L 418.297833 226.828475 
L 436.210304 227.688894 
L 454.122776 229.260186 
L 472.035247 229.560312 
L 489.947719 233.18037 
L 507.86019 234.913027 
L 525.772661 232.372348 
L 543.685133 231.554869 
L 561.597604 231.751358 
L 579.510076 234.338672 
L 597.422547 236.125075 
L 615.335019 234.164745 
L 633.24749 235.08786 
L 651.159962 233.190896 
L 669.072433 237.144171 
L 686.984905 236.749272 
L 704.897376 238.752552 
L 722.809847 234.496149 
L 740.722319 234.790967 
L 758.63479 237.021502 
L 776.547262 239.03141 
L 794.459733 238.537052 
L 812.372205 238.332295 
" style="fill:none;stroke:#434343;stroke-linecap:square;stroke-width:1.5;"/>
   </g>
   <g id="line2d_46">
    <path clip-path="url(#pce21d01614)" d="M 114.609118 577 
L 131.69829 95.315324 
L 149.610761 124.6291 
L 167.523233 158.895172 
L 185.435704 178.957742 
L 203.348175 188.099121 
L 221.260647 194.161001 
L 239.173118 199.624832 
L 257.08559 206.208622 
L 274.998061 209.228517 
L 292.910533 212.4365 
L 310.823004 210.597807 
L 328.735476 211.012312 
L 346.647947 213.338991 
L 364.560418 212.195676 
L 382.47289 217.260737 
L 400.385361 212.962235 
L 418.297833 217.634194 
L 436.210304 220.152882 
L 454.122776 219.98882 
L 472.035247 220.595003 
L 489.947719 219.857729 
L 507.86019 220.086001 
L 525.772661 220.265854 
L 543.685133 222.049855 
L 561.597604 220.309623 
L 579.510076 222.160224 
L 597.422547 223.071056 
L 615.335019 223.49467 
L 633.24749 226.819805 
L 651.159962 223.150451 
L 669.072433 221.418488 
L 686.984905 222.816143 
L 704.897376 222.207729 
L 722.809847 223.747082 
L 740.722319 224.999709 
L 758.63479 225.961859 
L 776.547262 225.345176 
L 794.459733 224.70999 
L 812.372205 224.86504 
" style="fill:none;stroke:#303030;stroke-linecap:square;stroke-width:1.5;"/>
   </g>
   <g id="line2d_47">
    <path clip-path="url(#pce21d01614)" d="M 113.932902 577 
L 131.69829 93.011062 
L 149.610761 110.016401 
L 167.523233 154.426575 
L 185.435704 166.180418 
L 203.348175 182.199079 
L 221.260647 186.125159 
L 239.173118 188.331965 
L 257.08559 192.340419 
L 274.998061 191.511959 
L 292.910533 195.612009 
L 310.823004 194.712352 
L 328.735476 199.832198 
L 346.647947 203.262008 
L 364.560418 201.344834 
L 382.47289 200.526512 
L 400.385361 202.242873 
L 418.297833 201.813163 
L 436.210304 203.344832 
L 454.122776 204.035321 
L 472.035247 205.883461 
L 489.947719 203.314087 
L 507.86019 210.111781 
L 525.772661 206.996222 
L 543.685133 205.66714 
L 561.597604 208.974409 
L 579.510076 210.39411 
L 597.422547 210.471273 
L 615.335019 208.892797 
L 633.24749 210.943843 
L 651.159962 209.378255 
L 669.072433 209.381154 
L 686.984905 212.176978 
L 704.897376 210.533627 
L 722.809847 213.253402 
L 740.722319 208.074827 
L 758.63479 211.235416 
L 776.547262 210.388751 
L 794.459733 210.254822 
L 812.372205 209.195518 
" style="fill:none;stroke:#1e1e1e;stroke-linecap:square;stroke-width:1.5;"/>
   </g>
   <g id="line2d_48">
    <path clip-path="url(#pce21d01614)" d="M 113.967716 577 
L 131.69829 97.743817 
L 149.610761 117.752261 
L 167.523233 141.976054 
L 185.435704 160.447062 
L 203.348175 165.472427 
L 221.260647 172.26859 
L 239.173118 173.620954 
L 257.08559 184.733529 
L 274.998061 181.633099 
L 292.910533 179.144365 
L 310.823004 179.326385 
L 328.735476 182.204365 
L 346.647947 182.196583 
L 364.560418 182.653164 
L 382.47289 187.854529 
L 400.385361 186.920644 
L 418.297833 186.109336 
L 436.210304 187.631282 
L 454.122776 189.992438 
L 472.035247 190.546106 
L 489.947719 193.252836 
L 507.86019 190.428788 
L 525.772661 188.103286 
L 543.685133 189.987073 
L 561.597604 188.3701 
L 579.510076 190.626898 
L 597.422547 190.448931 
L 615.335019 190.084289 
L 633.24749 191.890124 
L 651.159962 189.727412 
L 669.072433 192.311699 
L 686.984905 191.353153 
L 704.897376 189.906941 
L 722.809847 192.231171 
L 740.722319 190.634165 
L 758.63479 192.990741 
L 776.547262 193.407444 
L 794.459733 194.979492 
L 812.372205 192.404707 
" style="fill:none;stroke:#0f0f0f;stroke-linecap:square;stroke-width:1.5;"/>
   </g>
   <g id="line2d_49">
    <path clip-path="url(#pce21d01614)" d="M 113.851199 577 
L 131.69829 90.637087 
L 149.610761 115.25526 
L 167.523233 141.870427 
L 185.435704 151.012236 
L 203.348175 150.834567 
L 221.260647 159.917981 
L 239.173118 163.057143 
L 257.08559 167.073832 
L 274.998061 166.953532 
L 292.910533 168.935055 
L 310.823004 164.119093 
L 328.735476 172.268695 
L 346.647947 168.490934 
L 364.560418 171.16736 
L 382.47289 172.483997 
L 400.385361 172.875375 
L 418.297833 171.272473 
L 436.210304 171.562794 
L 454.122776 171.179556 
L 472.035247 172.907737 
L 489.947719 174.581548 
L 507.86019 173.01023 
L 525.772661 176.614723 
L 543.685133 172.975243 
L 561.597604 173.995448 
L 579.510076 173.160211 
L 597.422547 173.224316 
L 615.335019 173.943074 
L 633.24749 173.26463 
L 651.159962 176.767457 
L 669.072433 175.492651 
L 686.984905 177.669386 
L 704.897376 177.114264 
L 722.809847 176.901052 
L 740.722319 176.161301 
L 758.63479 179.158764 
L 776.547262 176.937625 
L 794.459733 180.469797 
L 812.372205 176.217157 
" style="fill:none;stroke:#000000;stroke-linecap:square;stroke-width:1.5;"/>
   </g>
   <g id="line2d_50">
    <path clip-path="url(#pce21d01614)" d="M 114.077433 577 
L 117.368312 283.613269 
L 120.950807 204.068709 
L 124.533301 170.78396 
L 128.115795 144.068104 
L 131.69829 135.264149 
L 135.280784 106.785769 
L 138.863278 126.114012 
L 142.445772 84.639797 
L 146.028267 78.035366 
L 149.610761 76.860808 
L 153.193255 85.96707 
L 156.77575 77.140818 
L 160.358244 74.397062 
L 163.940738 74.343137 
L 167.523233 90.137792 
L 171.105727 95.920902 
L 174.688221 98.732502 
L 178.270715 108.033606 
L 181.85321 119.671435 
L 185.435704 129.31416 
L 189.018198 145.399862 
L 192.600693 154.768033 
L 196.183187 162.230534 
L 199.765681 165.471844 
L 203.348175 176.027444 
L 206.93067 180.436121 
L 210.513164 186.187766 
L 214.095658 196.54259 
L 217.678153 204.899009 
L 221.260647 202.36244 
L 224.843141 212.588389 
L 228.425635 210.039791 
L 232.00813 209.330045 
L 235.590624 214.275136 
L 239.173118 219.422884 
L 242.755613 221.187641 
L 246.338107 224.672907 
L 249.920601 230.342357 
L 253.503095 229.002296 
L 257.08559 233.44754 
L 260.668084 231.60876 
L 264.250578 227.358478 
L 267.833073 236.690062 
L 271.415567 238.630856 
L 274.998061 236.799995 
L 278.580556 245.279211 
L 282.16305 242.951015 
L 285.745544 243.258666 
L 289.328038 240.235125 
L 292.910533 241.601842 
L 296.493027 245.195784 
L 300.075521 249.83373 
L 303.658016 246.26362 
L 307.24051 243.605217 
L 310.823004 247.394506 
L 317.987993 248.059971 
L 321.570487 245.293549 
L 325.152981 253.055502 
L 328.735476 251.886172 
L 332.31797 249.630112 
L 335.900464 256.362771 
L 339.482958 252.526564 
L 343.065453 258.942957 
L 346.647947 251.46282 
L 350.230441 258.676776 
L 353.812936 255.690848 
L 357.39543 251.37018 
L 360.977924 255.316031 
L 364.560418 258.064614 
L 368.142913 259.510411 
L 371.725407 259.183817 
L 375.307901 253.839668 
L 378.890396 257.302361 
L 382.47289 253.370695 
L 386.055384 260.664149 
L 389.637878 257.415065 
L 393.220373 256.745556 
L 396.802867 263.273567 
L 400.385361 261.359196 
L 403.967856 260.761191 
L 407.55035 258.930081 
L 411.132844 258.849657 
L 414.715339 256.810343 
L 418.297833 260.218573 
L 421.880327 259.739852 
L 425.462821 262.158257 
L 429.045316 255.484486 
L 432.62781 263.418897 
L 436.210304 259.07205 
L 439.792799 265.741835 
L 443.375293 261.216579 
L 446.957787 265.109331 
L 450.540281 265.686174 
L 454.122776 266.148669 
L 457.70527 259.825438 
L 461.287764 261.960936 
L 464.870259 262.594372 
L 468.452753 261.283453 
L 472.035247 264.15904 
L 475.617741 262.077111 
L 479.200236 266.654632 
L 482.78273 266.68732 
L 486.365224 263.282833 
L 489.947719 266.43795 
L 493.530213 267.170662 
L 497.112707 264.411767 
L 500.695201 263.678209 
L 504.277696 263.743109 
L 507.86019 264.470502 
L 511.442684 264.330678 
L 515.025179 265.076407 
L 518.607673 267.518249 
L 522.190167 264.434502 
L 525.772661 263.677152 
L 529.355156 262.744043 
L 532.93765 267.872043 
L 536.520144 264.367127 
L 540.102639 262.567413 
L 543.685133 268.911231 
L 547.267627 267.989449 
L 550.850122 269.998747 
L 554.432616 266.268936 
L 558.01511 267.328179 
L 561.597604 269.726478 
L 565.180099 266.040626 
L 568.762593 265.050146 
L 572.345087 270.071248 
L 575.927582 269.239441 
L 579.510076 267.322034 
L 583.09257 267.337821 
L 586.675064 269.194969 
L 590.257559 271.360754 
L 593.840053 270.430732 
L 597.422547 270.126793 
L 601.005042 267.851044 
L 604.587536 267.045029 
L 608.17003 269.542036 
L 611.752524 268.035185 
L 615.335019 273.959137 
L 618.917513 266.033071 
L 622.500007 270.054411 
L 626.082502 269.958575 
L 629.664996 265.553741 
L 633.24749 269.056285 
L 636.829984 270.232644 
L 640.412479 267.458848 
L 643.994973 269.011598 
L 647.577467 266.576703 
L 651.159962 270.283986 
L 654.742456 273.274578 
L 658.32495 266.82105 
L 661.907444 272.846989 
L 665.489939 268.578779 
L 669.072433 270.779034 
L 676.237422 272.005873 
L 679.819916 270.185007 
L 683.40241 271.387063 
L 686.984905 271.132705 
L 690.567399 270.001973 
L 694.149893 271.678084 
L 697.732387 272.127255 
L 701.314882 271.383123 
L 704.897376 266.853542 
L 708.47987 269.430392 
L 712.062365 268.017588 
L 715.644859 272.276813 
L 719.227353 271.449623 
L 722.809847 272.746802 
L 726.392342 271.703111 
L 729.974836 271.008931 
L 733.55733 268.916998 
L 737.139825 271.939342 
L 740.722319 270.94929 
L 744.304813 271.684776 
L 751.469802 274.86795 
L 755.052296 273.47516 
L 758.63479 272.663567 
L 762.217285 274.035304 
L 765.799779 270.79876 
L 769.382273 269.397425 
L 772.964767 268.165005 
L 776.547262 273.19684 
L 780.129756 275.196634 
L 783.71225 268.885771 
L 787.294745 274.228061 
L 790.877239 274.168145 
L 794.459733 275.387587 
L 798.042228 274.886225 
L 801.624722 272.735288 
L 805.207216 273.312773 
L 808.78971 274.782055 
L 812.372205 277.211516 
L 815.954699 272.575115 
L 819.537193 273.219356 
L 823.119688 272.260812 
L 826.702182 272.401993 
L 826.702182 272.401993 
" style="fill:none;stroke:#1f77b4;stroke-linecap:square;stroke-width:1.5;"/>
   </g>
   <g id="line2d_51">
    <path clip-path="url(#pce21d01614)" d="M 113.908657 577 
L 117.368312 270.660645 
L 120.950807 191.519154 
L 124.533301 164.587775 
L 128.115795 131.608177 
L 131.69829 109.478186 
L 135.280784 99.796518 
L 138.863278 82.553548 
L 142.445772 94.263692 
L 146.028267 78.735088 
L 149.610761 85.555202 
L 153.193255 82.365007 
L 156.77575 73.033641 
L 160.358244 93.574273 
L 163.940738 90.382089 
L 167.523233 100.87678 
L 171.105727 115.578927 
L 174.688221 117.327954 
L 178.270715 134.44513 
L 185.435704 141.55842 
L 189.018198 152.986573 
L 192.600693 159.562039 
L 196.183187 172.177901 
L 199.765681 177.058659 
L 203.348175 180.841462 
L 206.93067 184.849724 
L 210.513164 187.744947 
L 214.095658 200.062448 
L 217.678153 198.121799 
L 221.260647 204.06397 
L 224.843141 205.36707 
L 228.425635 214.360929 
L 235.590624 214.504156 
L 239.173118 220.297368 
L 242.755613 223.601174 
L 246.338107 223.845506 
L 249.920601 222.015786 
L 253.503095 226.314363 
L 257.08559 224.774227 
L 260.668084 227.857415 
L 264.250578 232.902693 
L 267.833073 235.650826 
L 271.415567 235.685143 
L 274.998061 233.916989 
L 278.580556 236.037726 
L 282.16305 235.77474 
L 285.745544 235.721084 
L 289.328038 241.808744 
L 292.910533 240.658393 
L 296.493027 236.648952 
L 300.075521 243.077574 
L 303.658016 243.681828 
L 307.24051 241.583006 
L 310.823004 240.611529 
L 314.405498 241.761553 
L 317.987993 248.110617 
L 321.570487 245.551946 
L 325.152981 244.987983 
L 328.735476 247.718681 
L 332.31797 249.159056 
L 335.900464 249.7637 
L 339.482958 251.316646 
L 343.065453 251.214929 
L 346.647947 246.872973 
L 350.230441 246.814449 
L 353.812936 252.32256 
L 357.39543 249.606742 
L 360.977924 251.145612 
L 364.560418 251.10642 
L 368.142913 254.794011 
L 371.725407 254.305096 
L 375.307901 252.106962 
L 378.890396 256.312212 
L 382.47289 249.394573 
L 386.055384 251.59832 
L 389.637878 256.208717 
L 393.220373 256.3646 
L 396.802867 254.753398 
L 400.385361 252.742958 
L 403.967856 254.241099 
L 411.132844 256.432115 
L 414.715339 255.261226 
L 418.297833 257.880141 
L 421.880327 256.099822 
L 425.462821 255.695508 
L 429.045316 260.189063 
L 432.62781 255.40108 
L 436.210304 259.459664 
L 439.792799 257.004417 
L 443.375293 258.549812 
L 446.957787 259.823873 
L 450.540281 258.720059 
L 454.122776 258.311702 
L 457.70527 259.162828 
L 461.287764 258.491685 
L 464.870259 259.147429 
L 468.452753 258.493142 
L 472.035247 260.92716 
L 475.617741 260.905703 
L 479.200236 259.786817 
L 482.78273 258.227224 
L 486.365224 259.452964 
L 489.947719 262.666745 
L 493.530213 259.503578 
L 497.112707 258.908736 
L 500.695201 261.772008 
L 504.277696 264.786148 
L 507.86019 264.001787 
L 511.442684 260.334066 
L 515.025179 262.523746 
L 518.607673 261.439762 
L 522.190167 261.969491 
L 525.772661 264.658122 
L 529.355156 261.140956 
L 532.93765 261.656973 
L 536.520144 264.064328 
L 540.102639 263.12561 
L 543.685133 260.519183 
L 547.267627 265.630724 
L 550.850122 263.38155 
L 554.432616 264.029496 
L 558.01511 263.714653 
L 561.597604 265.096622 
L 565.180099 264.685301 
L 568.762593 265.810049 
L 572.345087 263.143365 
L 575.927582 264.341434 
L 579.510076 265.350685 
L 583.09257 262.8388 
L 586.675064 266.807795 
L 590.257559 261.853234 
L 593.840053 265.078656 
L 597.422547 267.073872 
L 601.005042 262.772216 
L 604.587536 268.804799 
L 608.17003 265.921321 
L 611.752524 265.603896 
L 615.335019 262.441049 
L 618.917513 263.87391 
L 622.500007 263.571725 
L 626.082502 268.130738 
L 629.664996 267.069634 
L 633.24749 267.556384 
L 636.829984 267.18491 
L 640.412479 267.083056 
L 643.994973 264.070653 
L 647.577467 264.447642 
L 651.159962 264.51172 
L 654.742456 266.939998 
L 658.32495 266.491665 
L 665.489939 267.086778 
L 669.072433 269.650554 
L 672.654927 269.996404 
L 676.237422 266.05623 
L 679.819916 267.447058 
L 683.40241 267.36777 
L 686.984905 264.592449 
L 690.567399 271.560721 
L 697.732387 267.780813 
L 701.314882 267.520431 
L 704.897376 267.930874 
L 708.47987 267.261902 
L 712.062365 268.24462 
L 715.644859 266.85829 
L 719.227353 266.217646 
L 722.809847 270.404596 
L 726.392342 268.857575 
L 729.974836 266.015906 
L 733.55733 270.143935 
L 737.139825 271.869138 
L 740.722319 268.146186 
L 744.304813 270.097588 
L 747.887307 267.798557 
L 751.469802 271.009581 
L 755.052296 267.687264 
L 758.63479 269.191077 
L 762.217285 268.423803 
L 765.799779 268.328832 
L 769.382273 266.900175 
L 772.964767 269.01726 
L 776.547262 270.752328 
L 780.129756 267.692264 
L 783.71225 267.793305 
L 787.294745 268.154874 
L 794.459733 271.357861 
L 798.042228 270.708826 
L 805.207216 270.837451 
L 808.78971 271.656598 
L 812.372205 269.429303 
L 815.954699 270.524507 
L 823.119688 274.09004 
L 826.702182 270.389422 
L 826.702182 270.389422 
" style="fill:none;stroke:#ff7f0e;stroke-linecap:square;stroke-width:1.5;"/>
   </g>
   <g id="patch_3">
    <path d="M 78.14 503.08 
L 78.14 46.32 
" style="fill:none;stroke:#000000;stroke-linecap:square;stroke-linejoin:miter;stroke-width:0.8;"/>
   </g>
   <g id="patch_4">
    <path d="M 862.348 503.08 
L 862.348 46.32 
" style="fill:none;stroke:#000000;stroke-linecap:square;stroke-linejoin:miter;stroke-width:0.8;"/>
   </g>
   <g id="patch_5">
    <path d="M 78.14 503.08 
L 862.348 503.08 
" style="fill:none;stroke:#000000;stroke-linecap:square;stroke-linejoin:miter;stroke-width:0.8;"/>
   </g>
   <g id="patch_6">
    <path d="M 78.14 46.32 
L 862.348 46.32 
" style="fill:none;stroke:#000000;stroke-linecap:square;stroke-linejoin:miter;stroke-width:0.8;"/>
   </g>
   <g id="text_20">
    <!-- PSNR vs. Number of Epochs -->
    <defs>
     <path d="M 2.984375 54.6875 
L 12.5 54.6875 
L 29.59375 8.796875 
L 46.6875 54.6875 
L 56.203125 54.6875 
L 35.6875 0 
L 23.484375 0 
z
" id="DejaVuSans-118"/>
     <path d="M 10.6875 12.40625 
L 21 12.40625 
L 21 0 
L 10.6875 0 
z
" id="DejaVuSans-46"/>
    </defs>
    <g transform="translate(302.8815 40.32)scale(0.24 -0.24)">
     <use xlink:href="#DejaVuSans-80"/>
     <use x="60.302734" xlink:href="#DejaVuSans-83"/>
     <use x="123.779297" xlink:href="#DejaVuSans-78"/>
     <use x="198.583984" xlink:href="#DejaVuSans-82"/>
     <use x="268.066406" xlink:href="#DejaVuSans-32"/>
     <use x="299.853516" xlink:href="#DejaVuSans-118"/>
     <use x="359.033203" xlink:href="#DejaVuSans-115"/>
     <use x="411.132812" xlink:href="#DejaVuSans-46"/>
     <use x="442.919922" xlink:href="#DejaVuSans-32"/>
     <use x="474.707031" xlink:href="#DejaVuSans-78"/>
     <use x="549.511719" xlink:href="#DejaVuSans-117"/>
     <use x="612.890625" xlink:href="#DejaVuSans-109"/>
     <use x="710.302734" xlink:href="#DejaVuSans-98"/>
     <use x="773.779297" xlink:href="#DejaVuSans-101"/>
     <use x="835.302734" xlink:href="#DejaVuSans-114"/>
     <use x="876.416016" xlink:href="#DejaVuSans-32"/>
     <use x="908.203125" xlink:href="#DejaVuSans-111"/>
     <use x="969.384766" xlink:href="#DejaVuSans-102"/>
     <use x="1004.589844" xlink:href="#DejaVuSans-32"/>
     <use x="1036.376953" xlink:href="#DejaVuSans-69"/>
     <use x="1099.560547" xlink:href="#DejaVuSans-112"/>
     <use x="1163.037109" xlink:href="#DejaVuSans-111"/>
     <use x="1224.21875" xlink:href="#DejaVuSans-99"/>
     <use x="1279.199219" xlink:href="#DejaVuSans-104"/>
     <use x="1342.578125" xlink:href="#DejaVuSans-115"/>
    </g>
   </g>
   <g id="legend_1">
    <g id="patch_7">
     <path d="M 677.75425 493.08 
L 848.348 493.08 
Q 852.348 493.08 852.348 489.08 
L 852.348 403.01125 
Q 852.348 399.01125 848.348 399.01125 
L 677.75425 399.01125 
Q 673.75425 399.01125 673.75425 403.01125 
L 673.75425 489.08 
Q 673.75425 493.08 677.75425 493.08 
z
" style="fill:#ffffff;opacity:0.8;stroke:#cccccc;stroke-linejoin:miter;"/>
    </g>
    <g id="line2d_52">
     <path d="M 681.75425 415.208125 
L 721.75425 415.208125 
" style="fill:none;stroke:#00008b;stroke-linecap:square;stroke-width:1.5;"/>
    </g>
    <g id="line2d_53"/>
    <g id="text_21">
     <!-- OES (ours) -->
     <defs>
      <path d="M 39.40625 66.21875 
Q 28.65625 66.21875 22.328125 58.203125 
Q 16.015625 50.203125 16.015625 36.375 
Q 16.015625 22.609375 22.328125 14.59375 
Q 28.65625 6.59375 39.40625 6.59375 
Q 50.140625 6.59375 56.421875 14.59375 
Q 62.703125 22.609375 62.703125 36.375 
Q 62.703125 50.203125 56.421875 58.203125 
Q 50.140625 66.21875 39.40625 66.21875 
z
M 39.40625 74.21875 
Q 54.734375 74.21875 63.90625 63.9375 
Q 73.09375 53.65625 73.09375 36.375 
Q 73.09375 19.140625 63.90625 8.859375 
Q 54.734375 -1.421875 39.40625 -1.421875 
Q 24.03125 -1.421875 14.8125 8.828125 
Q 5.609375 19.09375 5.609375 36.375 
Q 5.609375 53.65625 14.8125 63.9375 
Q 24.03125 74.21875 39.40625 74.21875 
z
" id="DejaVuSans-79"/>
      <path d="M 31 75.875 
Q 24.46875 64.65625 21.28125 53.65625 
Q 18.109375 42.671875 18.109375 31.390625 
Q 18.109375 20.125 21.3125 9.0625 
Q 24.515625 -2 31 -13.1875 
L 23.1875 -13.1875 
Q 15.875 -1.703125 12.234375 9.375 
Q 8.59375 20.453125 8.59375 31.390625 
Q 8.59375 42.28125 12.203125 53.3125 
Q 15.828125 64.359375 23.1875 75.875 
z
" id="DejaVuSans-40"/>
      <path d="M 8.015625 75.875 
L 15.828125 75.875 
Q 23.140625 64.359375 26.78125 53.3125 
Q 30.421875 42.28125 30.421875 31.390625 
Q 30.421875 20.453125 26.78125 9.375 
Q 23.140625 -1.703125 15.828125 -13.1875 
L 8.015625 -13.1875 
Q 14.5 -2 17.703125 9.0625 
Q 20.90625 20.125 20.90625 31.390625 
Q 20.90625 42.671875 17.703125 53.65625 
Q 14.5 64.65625 8.015625 75.875 
z
" id="DejaVuSans-41"/>
     </defs>
     <g transform="translate(737.75425 422.208125)scale(0.2 -0.2)">
      <use xlink:href="#DejaVuSans-79"/>
      <use x="78.710938" xlink:href="#DejaVuSans-69"/>
      <use x="141.894531" xlink:href="#DejaVuSans-83"/>
      <use x="205.371094" xlink:href="#DejaVuSans-32"/>
      <use x="237.158203" xlink:href="#DejaVuSans-40"/>
      <use x="276.171875" xlink:href="#DejaVuSans-111"/>
      <use x="337.353516" xlink:href="#DejaVuSans-117"/>
      <use x="400.732422" xlink:href="#DejaVuSans-114"/>
      <use x="441.845703" xlink:href="#DejaVuSans-115"/>
      <use x="493.945312" xlink:href="#DejaVuSans-41"/>
     </g>
    </g>
    <g id="line2d_54">
     <path d="M 681.75425 444.564375 
L 721.75425 444.564375 
" style="fill:none;stroke:#1f77b4;stroke-linecap:square;stroke-width:1.5;"/>
    </g>
    <g id="line2d_55"/>
    <g id="text_22">
     <!-- synflow -->
     <defs>
      <path d="M 32.171875 -5.078125 
Q 28.375 -14.84375 24.75 -17.8125 
Q 21.140625 -20.796875 15.09375 -20.796875 
L 7.90625 -20.796875 
L 7.90625 -13.28125 
L 13.1875 -13.28125 
Q 16.890625 -13.28125 18.9375 -11.515625 
Q 21 -9.765625 23.484375 -3.21875 
L 25.09375 0.875 
L 2.984375 54.6875 
L 12.5 54.6875 
L 29.59375 11.921875 
L 46.6875 54.6875 
L 56.203125 54.6875 
z
" id="DejaVuSans-121"/>
      <path d="M 54.890625 33.015625 
L 54.890625 0 
L 45.90625 0 
L 45.90625 32.71875 
Q 45.90625 40.484375 42.875 44.328125 
Q 39.84375 48.1875 33.796875 48.1875 
Q 26.515625 48.1875 22.3125 43.546875 
Q 18.109375 38.921875 18.109375 30.90625 
L 18.109375 0 
L 9.078125 0 
L 9.078125 54.6875 
L 18.109375 54.6875 
L 18.109375 46.1875 
Q 21.34375 51.125 25.703125 53.5625 
Q 30.078125 56 35.796875 56 
Q 45.21875 56 50.046875 50.171875 
Q 54.890625 44.34375 54.890625 33.015625 
z
" id="DejaVuSans-110"/>
      <path d="M 9.421875 75.984375 
L 18.40625 75.984375 
L 18.40625 0 
L 9.421875 0 
z
" id="DejaVuSans-108"/>
      <path d="M 4.203125 54.6875 
L 13.1875 54.6875 
L 24.421875 12.015625 
L 35.59375 54.6875 
L 46.1875 54.6875 
L 57.421875 12.015625 
L 68.609375 54.6875 
L 77.59375 54.6875 
L 63.28125 0 
L 52.6875 0 
L 40.921875 44.828125 
L 29.109375 0 
L 18.5 0 
z
" id="DejaVuSans-119"/>
     </defs>
     <g transform="translate(737.75425 451.564375)scale(0.2 -0.2)">
      <use xlink:href="#DejaVuSans-115"/>
      <use x="52.099609" xlink:href="#DejaVuSans-121"/>
      <use x="111.279297" xlink:href="#DejaVuSans-110"/>
      <use x="174.658203" xlink:href="#DejaVuSans-102"/>
      <use x="209.863281" xlink:href="#DejaVuSans-108"/>
      <use x="237.646484" xlink:href="#DejaVuSans-111"/>
      <use x="298.828125" xlink:href="#DejaVuSans-119"/>
     </g>
    </g>
    <g id="line2d_56">
     <path d="M 681.75425 473.920625 
L 721.75425 473.920625 
" style="fill:none;stroke:#ff7f0e;stroke-linecap:square;stroke-width:1.5;"/>
    </g>
    <g id="line2d_57"/>
    <g id="text_23">
     <!-- grasp -->
     <defs>
      <path d="M 45.40625 27.984375 
Q 45.40625 37.75 41.375 43.109375 
Q 37.359375 48.484375 30.078125 48.484375 
Q 22.859375 48.484375 18.828125 43.109375 
Q 14.796875 37.75 14.796875 27.984375 
Q 14.796875 18.265625 18.828125 12.890625 
Q 22.859375 7.515625 30.078125 7.515625 
Q 37.359375 7.515625 41.375 12.890625 
Q 45.40625 18.265625 45.40625 27.984375 
z
M 54.390625 6.78125 
Q 54.390625 -7.171875 48.1875 -13.984375 
Q 42 -20.796875 29.203125 -20.796875 
Q 24.46875 -20.796875 20.265625 -20.09375 
Q 16.0625 -19.390625 12.109375 -17.921875 
L 12.109375 -9.1875 
Q 16.0625 -11.328125 19.921875 -12.34375 
Q 23.78125 -13.375 27.78125 -13.375 
Q 36.625 -13.375 41.015625 -8.765625 
Q 45.40625 -4.15625 45.40625 5.171875 
L 45.40625 9.625 
Q 42.625 4.78125 38.28125 2.390625 
Q 33.9375 0 27.875 0 
Q 17.828125 0 11.671875 7.65625 
Q 5.515625 15.328125 5.515625 27.984375 
Q 5.515625 40.671875 11.671875 48.328125 
Q 17.828125 56 27.875 56 
Q 33.9375 56 38.28125 53.609375 
Q 42.625 51.21875 45.40625 46.390625 
L 45.40625 54.6875 
L 54.390625 54.6875 
z
" id="DejaVuSans-103"/>
      <path d="M 34.28125 27.484375 
Q 23.390625 27.484375 19.1875 25 
Q 14.984375 22.515625 14.984375 16.5 
Q 14.984375 11.71875 18.140625 8.90625 
Q 21.296875 6.109375 26.703125 6.109375 
Q 34.1875 6.109375 38.703125 11.40625 
Q 43.21875 16.703125 43.21875 25.484375 
L 43.21875 27.484375 
z
M 52.203125 31.203125 
L 52.203125 0 
L 43.21875 0 
L 43.21875 8.296875 
Q 40.140625 3.328125 35.546875 0.953125 
Q 30.953125 -1.421875 24.3125 -1.421875 
Q 15.921875 -1.421875 10.953125 3.296875 
Q 6 8.015625 6 15.921875 
Q 6 25.140625 12.171875 29.828125 
Q 18.359375 34.515625 30.609375 34.515625 
L 43.21875 34.515625 
L 43.21875 35.40625 
Q 43.21875 41.609375 39.140625 45 
Q 35.0625 48.390625 27.6875 48.390625 
Q 23 48.390625 18.546875 47.265625 
Q 14.109375 46.140625 10.015625 43.890625 
L 10.015625 52.203125 
Q 14.9375 54.109375 19.578125 55.046875 
Q 24.21875 56 28.609375 56 
Q 40.484375 56 46.34375 49.84375 
Q 52.203125 43.703125 52.203125 31.203125 
z
" id="DejaVuSans-97"/>
     </defs>
     <g transform="translate(737.75425 480.920625)scale(0.2 -0.2)">
      <use xlink:href="#DejaVuSans-103"/>
      <use x="63.476562" xlink:href="#DejaVuSans-114"/>
      <use x="104.589844" xlink:href="#DejaVuSans-97"/>
      <use x="165.869141" xlink:href="#DejaVuSans-115"/>
      <use x="217.96875" xlink:href="#DejaVuSans-112"/>
     </g>
    </g>
   </g>
  </g>
  <g id="axes_2">
   <g id="patch_8">
    <path clip-path="url(#p20f6e5359f)" d="M 911.361 503.08 
L 911.361 465.016667 
L 911.361 84.383333 
L 911.361 46.32 
L 934.199 46.32 
L 934.199 84.383333 
L 934.199 465.016667 
L 934.199 503.08 
z
" style="fill:#ffffff;stroke:#ffffff;stroke-linejoin:miter;stroke-width:0.01;"/>
   </g>
   <g id="QuadMesh_1">
    <path clip-path="url(#p20f6e5359f)" d="M 911.361 503.08 
L 934.199 503.08 
L 934.199 465.016667 
L 911.361 465.016667 
L 911.361 503.08 
" style="fill:#afafaf;"/>
    <path clip-path="url(#p20f6e5359f)" d="M 911.361 465.016667 
L 934.199 465.016667 
L 934.199 426.953333 
L 911.361 426.953333 
L 911.361 465.016667 
" style="fill:#9e9e9e;"/>
    <path clip-path="url(#p20f6e5359f)" d="M 911.361 426.953333 
L 934.199 426.953333 
L 934.199 388.89 
L 911.361 388.89 
L 911.361 426.953333 
" style="fill:#8f8f8f;"/>
    <path clip-path="url(#p20f6e5359f)" d="M 911.361 388.89 
L 934.199 388.89 
L 934.199 350.826667 
L 911.361 350.826667 
L 911.361 388.89 
" style="fill:#7f7f7f;"/>
    <path clip-path="url(#p20f6e5359f)" d="M 911.361 350.826667 
L 934.199 350.826667 
L 934.199 312.763333 
L 911.361 312.763333 
L 911.361 350.826667 
" style="fill:#717171;"/>
    <path clip-path="url(#p20f6e5359f)" d="M 911.361 312.763333 
L 934.199 312.763333 
L 934.199 274.7 
L 911.361 274.7 
L 911.361 312.763333 
" style="fill:#636363;"/>
    <path clip-path="url(#p20f6e5359f)" d="M 911.361 274.7 
L 934.199 274.7 
L 934.199 236.636667 
L 911.361 236.636667 
L 911.361 274.7 
" style="fill:#555555;"/>
    <path clip-path="url(#p20f6e5359f)" d="M 911.361 236.636667 
L 934.199 236.636667 
L 934.199 198.573333 
L 911.361 198.573333 
L 911.361 236.636667 
" style="fill:#434343;"/>
    <path clip-path="url(#p20f6e5359f)" d="M 911.361 198.573333 
L 934.199 198.573333 
L 934.199 160.51 
L 911.361 160.51 
L 911.361 198.573333 
" style="fill:#303030;"/>
    <path clip-path="url(#p20f6e5359f)" d="M 911.361 160.51 
L 934.199 160.51 
L 934.199 122.446667 
L 911.361 122.446667 
L 911.361 160.51 
" style="fill:#1e1e1e;"/>
    <path clip-path="url(#p20f6e5359f)" d="M 911.361 122.446667 
L 934.199 122.446667 
L 934.199 84.383333 
L 911.361 84.383333 
L 911.361 122.446667 
" style="fill:#0f0f0f;"/>
    <path clip-path="url(#p20f6e5359f)" d="M 911.361 84.383333 
L 934.199 84.383333 
L 934.199 46.32 
L 911.361 46.32 
L 911.361 84.383333 
"/>
   </g>
   <g id="matplotlib.axis_3"/>
   <g id="matplotlib.axis_4">
    <g id="ytick_9">
     <g id="line2d_58">
      <defs>
       <path d="M 0 0 
L 3.5 0 
" id="m9f5c2cb6d5" style="stroke:#000000;stroke-width:0.8;"/>
      </defs>
      <g>
       <use style="stroke:#000000;stroke-width:0.8;" x="934.199" xlink:href="#m9f5c2cb6d5" y="503.08"/>
      </g>
     </g>
     <g id="text_24">
      <!-- 1 -->
      <g transform="translate(941.199 510.678437)scale(0.2 -0.2)">
       <use xlink:href="#DejaVuSans-49"/>
      </g>
     </g>
    </g>
    <g id="ytick_10">
     <g id="line2d_59">
      <g>
       <use style="stroke:#000000;stroke-width:0.8;" x="934.199" xlink:href="#m9f5c2cb6d5" y="432.809231"/>
      </g>
     </g>
     <g id="text_25">
      <!-- 3 -->
      <g transform="translate(941.199 440.407668)scale(0.2 -0.2)">
       <use xlink:href="#DejaVuSans-51"/>
      </g>
     </g>
    </g>
    <g id="ytick_11">
     <g id="line2d_60">
      <g>
       <use style="stroke:#000000;stroke-width:0.8;" x="934.199" xlink:href="#m9f5c2cb6d5" y="362.538462"/>
      </g>
     </g>
     <g id="text_26">
      <!-- 5 -->
      <g transform="translate(941.199 370.136899)scale(0.2 -0.2)">
       <use xlink:href="#DejaVuSans-53"/>
      </g>
     </g>
    </g>
    <g id="ytick_12">
     <g id="line2d_61">
      <g>
       <use style="stroke:#000000;stroke-width:0.8;" x="934.199" xlink:href="#m9f5c2cb6d5" y="292.267692"/>
      </g>
     </g>
     <g id="text_27">
      <!-- 7 -->
      <defs>
       <path d="M 8.203125 72.90625 
L 55.078125 72.90625 
L 55.078125 68.703125 
L 28.609375 0 
L 18.3125 0 
L 43.21875 64.59375 
L 8.203125 64.59375 
z
" id="DejaVuSans-55"/>
      </defs>
      <g transform="translate(941.199 299.86613)scale(0.2 -0.2)">
       <use xlink:href="#DejaVuSans-55"/>
      </g>
     </g>
    </g>
    <g id="ytick_13">
     <g id="line2d_62">
      <g>
       <use style="stroke:#000000;stroke-width:0.8;" x="934.199" xlink:href="#m9f5c2cb6d5" y="221.996923"/>
      </g>
     </g>
     <g id="text_28">
      <!-- 9 -->
      <defs>
       <path d="M 10.984375 1.515625 
L 10.984375 10.5 
Q 14.703125 8.734375 18.5 7.8125 
Q 22.3125 6.890625 25.984375 6.890625 
Q 35.75 6.890625 40.890625 13.453125 
Q 46.046875 20.015625 46.78125 33.40625 
Q 43.953125 29.203125 39.59375 26.953125 
Q 35.25 24.703125 29.984375 24.703125 
Q 19.046875 24.703125 12.671875 31.3125 
Q 6.296875 37.9375 6.296875 49.421875 
Q 6.296875 60.640625 12.9375 67.421875 
Q 19.578125 74.21875 30.609375 74.21875 
Q 43.265625 74.21875 49.921875 64.515625 
Q 56.59375 54.828125 56.59375 36.375 
Q 56.59375 19.140625 48.40625 8.859375 
Q 40.234375 -1.421875 26.421875 -1.421875 
Q 22.703125 -1.421875 18.890625 -0.6875 
Q 15.09375 0.046875 10.984375 1.515625 
z
M 30.609375 32.421875 
Q 37.25 32.421875 41.125 36.953125 
Q 45.015625 41.5 45.015625 49.421875 
Q 45.015625 57.28125 41.125 61.84375 
Q 37.25 66.40625 30.609375 66.40625 
Q 23.96875 66.40625 20.09375 61.84375 
Q 16.21875 57.28125 16.21875 49.421875 
Q 16.21875 41.5 20.09375 36.953125 
Q 23.96875 32.421875 30.609375 32.421875 
z
" id="DejaVuSans-57"/>
      </defs>
      <g transform="translate(941.199 229.595361)scale(0.2 -0.2)">
       <use xlink:href="#DejaVuSans-57"/>
      </g>
     </g>
    </g>
    <g id="ytick_14">
     <g id="line2d_63">
      <g>
       <use style="stroke:#000000;stroke-width:0.8;" x="934.199" xlink:href="#m9f5c2cb6d5" y="151.726154"/>
      </g>
     </g>
     <g id="text_29">
      <!-- 11 -->
      <g transform="translate(941.199 159.324591)scale(0.2 -0.2)">
       <use xlink:href="#DejaVuSans-49"/>
       <use x="63.623047" xlink:href="#DejaVuSans-49"/>
      </g>
     </g>
    </g>
    <g id="ytick_15">
     <g id="line2d_64">
      <g>
       <use style="stroke:#000000;stroke-width:0.8;" x="934.199" xlink:href="#m9f5c2cb6d5" y="81.455385"/>
      </g>
     </g>
     <g id="text_30">
      <!-- 13 -->
      <g transform="translate(941.199 89.053822)scale(0.2 -0.2)">
       <use xlink:href="#DejaVuSans-49"/>
       <use x="63.623047" xlink:href="#DejaVuSans-51"/>
      </g>
     </g>
    </g>
    <g id="text_31">
     <!-- IMP iterations -->
     <defs>
      <path d="M 9.8125 72.90625 
L 19.671875 72.90625 
L 19.671875 0 
L 9.8125 0 
z
" id="DejaVuSans-73"/>
      <path d="M 9.8125 72.90625 
L 24.515625 72.90625 
L 43.109375 23.296875 
L 61.8125 72.90625 
L 76.515625 72.90625 
L 76.515625 0 
L 66.890625 0 
L 66.890625 64.015625 
L 48.09375 14.015625 
L 38.1875 14.015625 
L 19.390625 64.015625 
L 19.390625 0 
L 9.8125 0 
z
" id="DejaVuSans-77"/>
      <path d="M 9.421875 54.6875 
L 18.40625 54.6875 
L 18.40625 0 
L 9.421875 0 
z
M 9.421875 75.984375 
L 18.40625 75.984375 
L 18.40625 64.59375 
L 9.421875 64.59375 
z
" id="DejaVuSans-105"/>
      <path d="M 18.3125 70.21875 
L 18.3125 54.6875 
L 36.8125 54.6875 
L 36.8125 47.703125 
L 18.3125 47.703125 
L 18.3125 18.015625 
Q 18.3125 11.328125 20.140625 9.421875 
Q 21.96875 7.515625 27.59375 7.515625 
L 36.8125 7.515625 
L 36.8125 0 
L 27.59375 0 
Q 17.1875 0 13.234375 3.875 
Q 9.28125 7.765625 9.28125 18.015625 
L 9.28125 47.703125 
L 2.6875 47.703125 
L 2.6875 54.6875 
L 9.28125 54.6875 
L 9.28125 70.21875 
z
" id="DejaVuSans-116"/>
     </defs>
     <g transform="translate(985.845875 342.940625)rotate(-90)scale(0.2 -0.2)">
      <use xlink:href="#DejaVuSans-73"/>
      <use x="29.492188" xlink:href="#DejaVuSans-77"/>
      <use x="115.771484" xlink:href="#DejaVuSans-80"/>
      <use x="176.074219" xlink:href="#DejaVuSans-32"/>
      <use x="207.861328" xlink:href="#DejaVuSans-105"/>
      <use x="235.644531" xlink:href="#DejaVuSans-116"/>
      <use x="274.853516" xlink:href="#DejaVuSans-101"/>
      <use x="336.376953" xlink:href="#DejaVuSans-114"/>
      <use x="377.490234" xlink:href="#DejaVuSans-97"/>
      <use x="438.769531" xlink:href="#DejaVuSans-116"/>
      <use x="477.978516" xlink:href="#DejaVuSans-105"/>
      <use x="505.761719" xlink:href="#DejaVuSans-111"/>
      <use x="566.943359" xlink:href="#DejaVuSans-110"/>
      <use x="630.322266" xlink:href="#DejaVuSans-115"/>
     </g>
    </g>
   </g>
   <g id="patch_9">
    <path d="M 911.361 503.08 
L 911.361 465.016667 
L 911.361 84.383333 
L 911.361 46.32 
L 934.199 46.32 
L 934.199 84.383333 
L 934.199 465.016667 
L 934.199 503.08 
z
" style="fill:none;stroke:#000000;stroke-linejoin:miter;stroke-width:0.8;"/>
   </g>
  </g>
 </g>
 <defs>
  <clipPath id="pce21d01614">
   <rect height="456.76" width="784.208" x="78.14" y="46.32"/>
  </clipPath>
  <clipPath id="p20f6e5359f">
   <rect height="456.76" width="22.838" x="911.361" y="46.32"/>
  </clipPath>
 </defs>
</svg>
