<?xml version="1.0" encoding="utf-8" standalone="no"?>
<!DOCTYPE svg PUBLIC "-//W3C//DTD SVG 1.1//EN"
  "http://www.w3.org/Graphics/SVG/1.1/DTD/svg11.dtd">
<!-- Created with matplotlib (https://matplotlib.org/) -->
<svg height="576pt" version="1.1" viewBox="0 0 1080 576" width="1080pt" xmlns="http://www.w3.org/2000/svg" xmlns:xlink="http://www.w3.org/1999/xlink">
 <defs>
  <style type="text/css">
*{stroke-linecap:butt;stroke-linejoin:round;}
  </style>
 </defs>
 <g id="figure_1">
  <g id="patch_1">
   <path d="M 0 576 
L 1080 576 
L 1080 0 
L 0 0 
z
" style="fill:#ffffff;"/>
  </g>
  <g id="axes_1">
   <g id="patch_2">
    <path d="M 78.14 503.08 
L 862.348 503.08 
L 862.348 46.32 
L 78.14 46.32 
z
" style="fill:#ffffff;"/>
   </g>
   <g id="matplotlib.axis_1">
    <g id="xtick_1">
     <g id="line2d_1">
      <path clip-path="url(#p528ece818c)" d="M 113.785818 503.08 
L 113.785818 46.32 
" style="fill:none;stroke:#b0b0b0;stroke-linecap:square;stroke-width:0.8;"/>
     </g>
     <g id="line2d_2">
      <defs>
       <path d="M 0 0 
L 0 3.5 
" id="m88002b6c18" style="stroke:#000000;stroke-width:0.8;"/>
      </defs>
      <g>
       <use style="stroke:#000000;stroke-width:0.8;" x="113.785818" xlink:href="#m88002b6c18" y="503.08"/>
      </g>
     </g>
     <g id="text_1">
      <!-- 0 -->
      <defs>
       <path d="M 31.78125 66.40625 
Q 24.171875 66.40625 20.328125 58.90625 
Q 16.5 51.421875 16.5 36.375 
Q 16.5 21.390625 20.328125 13.890625 
Q 24.171875 6.390625 31.78125 6.390625 
Q 39.453125 6.390625 43.28125 13.890625 
Q 47.125 21.390625 47.125 36.375 
Q 47.125 51.421875 43.28125 58.90625 
Q 39.453125 66.40625 31.78125 66.40625 
z
M 31.78125 74.21875 
Q 44.046875 74.21875 50.515625 64.515625 
Q 56.984375 54.828125 56.984375 36.375 
Q 56.984375 17.96875 50.515625 8.265625 
Q 44.046875 -1.421875 31.78125 -1.421875 
Q 19.53125 -1.421875 13.0625 8.265625 
Q 6.59375 17.96875 6.59375 36.375 
Q 6.59375 54.828125 13.0625 64.515625 
Q 19.53125 74.21875 31.78125 74.21875 
z
" id="DejaVuSans-48"/>
      </defs>
      <g transform="translate(107.423318 525.276875)scale(0.2 -0.2)">
       <use xlink:href="#DejaVuSans-48"/>
      </g>
     </g>
    </g>
    <g id="xtick_2">
     <g id="line2d_3">
      <path clip-path="url(#p528ece818c)" d="M 203.348175 503.08 
L 203.348175 46.32 
" style="fill:none;stroke:#b0b0b0;stroke-linecap:square;stroke-width:0.8;"/>
     </g>
     <g id="line2d_4">
      <g>
       <use style="stroke:#000000;stroke-width:0.8;" x="203.348175" xlink:href="#m88002b6c18" y="503.08"/>
      </g>
     </g>
     <g id="text_2">
      <!-- 5000 -->
      <defs>
       <path d="M 10.796875 72.90625 
L 49.515625 72.90625 
L 49.515625 64.59375 
L 19.828125 64.59375 
L 19.828125 46.734375 
Q 21.96875 47.46875 24.109375 47.828125 
Q 26.265625 48.1875 28.421875 48.1875 
Q 40.625 48.1875 47.75 41.5 
Q 54.890625 34.8125 54.890625 23.390625 
Q 54.890625 11.625 47.5625 5.09375 
Q 40.234375 -1.421875 26.90625 -1.421875 
Q 22.3125 -1.421875 17.546875 -0.640625 
Q 12.796875 0.140625 7.71875 1.703125 
L 7.71875 11.625 
Q 12.109375 9.234375 16.796875 8.0625 
Q 21.484375 6.890625 26.703125 6.890625 
Q 35.15625 6.890625 40.078125 11.328125 
Q 45.015625 15.765625 45.015625 23.390625 
Q 45.015625 31 40.078125 35.4375 
Q 35.15625 39.890625 26.703125 39.890625 
Q 22.75 39.890625 18.8125 39.015625 
Q 14.890625 38.140625 10.796875 36.28125 
z
" id="DejaVuSans-53"/>
      </defs>
      <g transform="translate(177.898175 525.276875)scale(0.2 -0.2)">
       <use xlink:href="#DejaVuSans-53"/>
       <use x="63.623047" xlink:href="#DejaVuSans-48"/>
       <use x="127.246094" xlink:href="#DejaVuSans-48"/>
       <use x="190.869141" xlink:href="#DejaVuSans-48"/>
      </g>
     </g>
    </g>
    <g id="xtick_3">
     <g id="line2d_5">
      <path clip-path="url(#p528ece818c)" d="M 292.910533 503.08 
L 292.910533 46.32 
" style="fill:none;stroke:#b0b0b0;stroke-linecap:square;stroke-width:0.8;"/>
     </g>
     <g id="line2d_6">
      <g>
       <use style="stroke:#000000;stroke-width:0.8;" x="292.910533" xlink:href="#m88002b6c18" y="503.08"/>
      </g>
     </g>
     <g id="text_3">
      <!-- 10000 -->
      <defs>
       <path d="M 12.40625 8.296875 
L 28.515625 8.296875 
L 28.515625 63.921875 
L 10.984375 60.40625 
L 10.984375 69.390625 
L 28.421875 72.90625 
L 38.28125 72.90625 
L 38.28125 8.296875 
L 54.390625 8.296875 
L 54.390625 0 
L 12.40625 0 
z
" id="DejaVuSans-49"/>
      </defs>
      <g transform="translate(261.098033 525.276875)scale(0.2 -0.2)">
       <use xlink:href="#DejaVuSans-49"/>
       <use x="63.623047" xlink:href="#DejaVuSans-48"/>
       <use x="127.246094" xlink:href="#DejaVuSans-48"/>
       <use x="190.869141" xlink:href="#DejaVuSans-48"/>
       <use x="254.492188" xlink:href="#DejaVuSans-48"/>
      </g>
     </g>
    </g>
    <g id="xtick_4">
     <g id="line2d_7">
      <path clip-path="url(#p528ece818c)" d="M 382.47289 503.08 
L 382.47289 46.32 
" style="fill:none;stroke:#b0b0b0;stroke-linecap:square;stroke-width:0.8;"/>
     </g>
     <g id="line2d_8">
      <g>
       <use style="stroke:#000000;stroke-width:0.8;" x="382.47289" xlink:href="#m88002b6c18" y="503.08"/>
      </g>
     </g>
     <g id="text_4">
      <!-- 15000 -->
      <g transform="translate(350.66039 525.276875)scale(0.2 -0.2)">
       <use xlink:href="#DejaVuSans-49"/>
       <use x="63.623047" xlink:href="#DejaVuSans-53"/>
       <use x="127.246094" xlink:href="#DejaVuSans-48"/>
       <use x="190.869141" xlink:href="#DejaVuSans-48"/>
       <use x="254.492188" xlink:href="#DejaVuSans-48"/>
      </g>
     </g>
    </g>
    <g id="xtick_5">
     <g id="line2d_9">
      <path clip-path="url(#p528ece818c)" d="M 472.035247 503.08 
L 472.035247 46.32 
" style="fill:none;stroke:#b0b0b0;stroke-linecap:square;stroke-width:0.8;"/>
     </g>
     <g id="line2d_10">
      <g>
       <use style="stroke:#000000;stroke-width:0.8;" x="472.035247" xlink:href="#m88002b6c18" y="503.08"/>
      </g>
     </g>
     <g id="text_5">
      <!-- 20000 -->
      <defs>
       <path d="M 19.1875 8.296875 
L 53.609375 8.296875 
L 53.609375 0 
L 7.328125 0 
L 7.328125 8.296875 
Q 12.9375 14.109375 22.625 23.890625 
Q 32.328125 33.6875 34.8125 36.53125 
Q 39.546875 41.84375 41.421875 45.53125 
Q 43.3125 49.21875 43.3125 52.78125 
Q 43.3125 58.59375 39.234375 62.25 
Q 35.15625 65.921875 28.609375 65.921875 
Q 23.96875 65.921875 18.8125 64.3125 
Q 13.671875 62.703125 7.8125 59.421875 
L 7.8125 69.390625 
Q 13.765625 71.78125 18.9375 73 
Q 24.125 74.21875 28.421875 74.21875 
Q 39.75 74.21875 46.484375 68.546875 
Q 53.21875 62.890625 53.21875 53.421875 
Q 53.21875 48.921875 51.53125 44.890625 
Q 49.859375 40.875 45.40625 35.40625 
Q 44.1875 33.984375 37.640625 27.21875 
Q 31.109375 20.453125 19.1875 8.296875 
z
" id="DejaVuSans-50"/>
      </defs>
      <g transform="translate(440.222747 525.276875)scale(0.2 -0.2)">
       <use xlink:href="#DejaVuSans-50"/>
       <use x="63.623047" xlink:href="#DejaVuSans-48"/>
       <use x="127.246094" xlink:href="#DejaVuSans-48"/>
       <use x="190.869141" xlink:href="#DejaVuSans-48"/>
       <use x="254.492188" xlink:href="#DejaVuSans-48"/>
      </g>
     </g>
    </g>
    <g id="xtick_6">
     <g id="line2d_11">
      <path clip-path="url(#p528ece818c)" d="M 561.597604 503.08 
L 561.597604 46.32 
" style="fill:none;stroke:#b0b0b0;stroke-linecap:square;stroke-width:0.8;"/>
     </g>
     <g id="line2d_12">
      <g>
       <use style="stroke:#000000;stroke-width:0.8;" x="561.597604" xlink:href="#m88002b6c18" y="503.08"/>
      </g>
     </g>
     <g id="text_6">
      <!-- 25000 -->
      <g transform="translate(529.785104 525.276875)scale(0.2 -0.2)">
       <use xlink:href="#DejaVuSans-50"/>
       <use x="63.623047" xlink:href="#DejaVuSans-53"/>
       <use x="127.246094" xlink:href="#DejaVuSans-48"/>
       <use x="190.869141" xlink:href="#DejaVuSans-48"/>
       <use x="254.492188" xlink:href="#DejaVuSans-48"/>
      </g>
     </g>
    </g>
    <g id="xtick_7">
     <g id="line2d_13">
      <path clip-path="url(#p528ece818c)" d="M 651.159962 503.08 
L 651.159962 46.32 
" style="fill:none;stroke:#b0b0b0;stroke-linecap:square;stroke-width:0.8;"/>
     </g>
     <g id="line2d_14">
      <g>
       <use style="stroke:#000000;stroke-width:0.8;" x="651.159962" xlink:href="#m88002b6c18" y="503.08"/>
      </g>
     </g>
     <g id="text_7">
      <!-- 30000 -->
      <defs>
       <path d="M 40.578125 39.3125 
Q 47.65625 37.796875 51.625 33 
Q 55.609375 28.21875 55.609375 21.1875 
Q 55.609375 10.40625 48.1875 4.484375 
Q 40.765625 -1.421875 27.09375 -1.421875 
Q 22.515625 -1.421875 17.65625 -0.515625 
Q 12.796875 0.390625 7.625 2.203125 
L 7.625 11.71875 
Q 11.71875 9.328125 16.59375 8.109375 
Q 21.484375 6.890625 26.8125 6.890625 
Q 36.078125 6.890625 40.9375 10.546875 
Q 45.796875 14.203125 45.796875 21.1875 
Q 45.796875 27.640625 41.28125 31.265625 
Q 36.765625 34.90625 28.71875 34.90625 
L 20.21875 34.90625 
L 20.21875 43.015625 
L 29.109375 43.015625 
Q 36.375 43.015625 40.234375 45.921875 
Q 44.09375 48.828125 44.09375 54.296875 
Q 44.09375 59.90625 40.109375 62.90625 
Q 36.140625 65.921875 28.71875 65.921875 
Q 24.65625 65.921875 20.015625 65.03125 
Q 15.375 64.15625 9.8125 62.3125 
L 9.8125 71.09375 
Q 15.4375 72.65625 20.34375 73.4375 
Q 25.25 74.21875 29.59375 74.21875 
Q 40.828125 74.21875 47.359375 69.109375 
Q 53.90625 64.015625 53.90625 55.328125 
Q 53.90625 49.265625 50.4375 45.09375 
Q 46.96875 40.921875 40.578125 39.3125 
z
" id="DejaVuSans-51"/>
      </defs>
      <g transform="translate(619.347462 525.276875)scale(0.2 -0.2)">
       <use xlink:href="#DejaVuSans-51"/>
       <use x="63.623047" xlink:href="#DejaVuSans-48"/>
       <use x="127.246094" xlink:href="#DejaVuSans-48"/>
       <use x="190.869141" xlink:href="#DejaVuSans-48"/>
       <use x="254.492188" xlink:href="#DejaVuSans-48"/>
      </g>
     </g>
    </g>
    <g id="xtick_8">
     <g id="line2d_15">
      <path clip-path="url(#p528ece818c)" d="M 740.722319 503.08 
L 740.722319 46.32 
" style="fill:none;stroke:#b0b0b0;stroke-linecap:square;stroke-width:0.8;"/>
     </g>
     <g id="line2d_16">
      <g>
       <use style="stroke:#000000;stroke-width:0.8;" x="740.722319" xlink:href="#m88002b6c18" y="503.08"/>
      </g>
     </g>
     <g id="text_8">
      <!-- 35000 -->
      <g transform="translate(708.909819 525.276875)scale(0.2 -0.2)">
       <use xlink:href="#DejaVuSans-51"/>
       <use x="63.623047" xlink:href="#DejaVuSans-53"/>
       <use x="127.246094" xlink:href="#DejaVuSans-48"/>
       <use x="190.869141" xlink:href="#DejaVuSans-48"/>
       <use x="254.492188" xlink:href="#DejaVuSans-48"/>
      </g>
     </g>
    </g>
    <g id="xtick_9">
     <g id="line2d_17">
      <path clip-path="url(#p528ece818c)" d="M 830.284676 503.08 
L 830.284676 46.32 
" style="fill:none;stroke:#b0b0b0;stroke-linecap:square;stroke-width:0.8;"/>
     </g>
     <g id="line2d_18">
      <g>
       <use style="stroke:#000000;stroke-width:0.8;" x="830.284676" xlink:href="#m88002b6c18" y="503.08"/>
      </g>
     </g>
     <g id="text_9">
      <!-- 40000 -->
      <defs>
       <path d="M 37.796875 64.3125 
L 12.890625 25.390625 
L 37.796875 25.390625 
z
M 35.203125 72.90625 
L 47.609375 72.90625 
L 47.609375 25.390625 
L 58.015625 25.390625 
L 58.015625 17.1875 
L 47.609375 17.1875 
L 47.609375 0 
L 37.796875 0 
L 37.796875 17.1875 
L 4.890625 17.1875 
L 4.890625 26.703125 
z
" id="DejaVuSans-52"/>
      </defs>
      <g transform="translate(798.472176 525.276875)scale(0.2 -0.2)">
       <use xlink:href="#DejaVuSans-52"/>
       <use x="63.623047" xlink:href="#DejaVuSans-48"/>
       <use x="127.246094" xlink:href="#DejaVuSans-48"/>
       <use x="190.869141" xlink:href="#DejaVuSans-48"/>
       <use x="254.492188" xlink:href="#DejaVuSans-48"/>
      </g>
     </g>
    </g>
    <g id="text_10">
     <!-- Number of Epochs -->
     <defs>
      <path d="M 9.8125 72.90625 
L 23.09375 72.90625 
L 55.421875 11.921875 
L 55.421875 72.90625 
L 64.984375 72.90625 
L 64.984375 0 
L 51.703125 0 
L 19.390625 60.984375 
L 19.390625 0 
L 9.8125 0 
z
" id="DejaVuSans-78"/>
      <path d="M 8.5 21.578125 
L 8.5 54.6875 
L 17.484375 54.6875 
L 17.484375 21.921875 
Q 17.484375 14.15625 20.5 10.265625 
Q 23.53125 6.390625 29.59375 6.390625 
Q 36.859375 6.390625 41.078125 11.03125 
Q 45.3125 15.671875 45.3125 23.6875 
L 45.3125 54.6875 
L 54.296875 54.6875 
L 54.296875 0 
L 45.3125 0 
L 45.3125 8.40625 
Q 42.046875 3.421875 37.71875 1 
Q 33.40625 -1.421875 27.6875 -1.421875 
Q 18.265625 -1.421875 13.375 4.4375 
Q 8.5 10.296875 8.5 21.578125 
z
M 31.109375 56 
z
" id="DejaVuSans-117"/>
      <path d="M 52 44.1875 
Q 55.375 50.25 60.0625 53.125 
Q 64.75 56 71.09375 56 
Q 79.640625 56 84.28125 50.015625 
Q 88.921875 44.046875 88.921875 33.015625 
L 88.921875 0 
L 79.890625 0 
L 79.890625 32.71875 
Q 79.890625 40.578125 77.09375 44.375 
Q 74.3125 48.1875 68.609375 48.1875 
Q 61.625 48.1875 57.5625 43.546875 
Q 53.515625 38.921875 53.515625 30.90625 
L 53.515625 0 
L 44.484375 0 
L 44.484375 32.71875 
Q 44.484375 40.625 41.703125 44.40625 
Q 38.921875 48.1875 33.109375 48.1875 
Q 26.21875 48.1875 22.15625 43.53125 
Q 18.109375 38.875 18.109375 30.90625 
L 18.109375 0 
L 9.078125 0 
L 9.078125 54.6875 
L 18.109375 54.6875 
L 18.109375 46.1875 
Q 21.1875 51.21875 25.484375 53.609375 
Q 29.78125 56 35.6875 56 
Q 41.65625 56 45.828125 52.96875 
Q 50 49.953125 52 44.1875 
z
" id="DejaVuSans-109"/>
      <path d="M 48.6875 27.296875 
Q 48.6875 37.203125 44.609375 42.84375 
Q 40.53125 48.484375 33.40625 48.484375 
Q 26.265625 48.484375 22.1875 42.84375 
Q 18.109375 37.203125 18.109375 27.296875 
Q 18.109375 17.390625 22.1875 11.75 
Q 26.265625 6.109375 33.40625 6.109375 
Q 40.53125 6.109375 44.609375 11.75 
Q 48.6875 17.390625 48.6875 27.296875 
z
M 18.109375 46.390625 
Q 20.953125 51.265625 25.265625 53.625 
Q 29.59375 56 35.59375 56 
Q 45.5625 56 51.78125 48.09375 
Q 58.015625 40.1875 58.015625 27.296875 
Q 58.015625 14.40625 51.78125 6.484375 
Q 45.5625 -1.421875 35.59375 -1.421875 
Q 29.59375 -1.421875 25.265625 0.953125 
Q 20.953125 3.328125 18.109375 8.203125 
L 18.109375 0 
L 9.078125 0 
L 9.078125 75.984375 
L 18.109375 75.984375 
z
" id="DejaVuSans-98"/>
      <path d="M 56.203125 29.59375 
L 56.203125 25.203125 
L 14.890625 25.203125 
Q 15.484375 15.921875 20.484375 11.0625 
Q 25.484375 6.203125 34.421875 6.203125 
Q 39.59375 6.203125 44.453125 7.46875 
Q 49.3125 8.734375 54.109375 11.28125 
L 54.109375 2.78125 
Q 49.265625 0.734375 44.1875 -0.34375 
Q 39.109375 -1.421875 33.890625 -1.421875 
Q 20.796875 -1.421875 13.15625 6.1875 
Q 5.515625 13.8125 5.515625 26.8125 
Q 5.515625 40.234375 12.765625 48.109375 
Q 20.015625 56 32.328125 56 
Q 43.359375 56 49.78125 48.890625 
Q 56.203125 41.796875 56.203125 29.59375 
z
M 47.21875 32.234375 
Q 47.125 39.59375 43.09375 43.984375 
Q 39.0625 48.390625 32.421875 48.390625 
Q 24.90625 48.390625 20.390625 44.140625 
Q 15.875 39.890625 15.1875 32.171875 
z
" id="DejaVuSans-101"/>
      <path d="M 41.109375 46.296875 
Q 39.59375 47.171875 37.8125 47.578125 
Q 36.03125 48 33.890625 48 
Q 26.265625 48 22.1875 43.046875 
Q 18.109375 38.09375 18.109375 28.8125 
L 18.109375 0 
L 9.078125 0 
L 9.078125 54.6875 
L 18.109375 54.6875 
L 18.109375 46.1875 
Q 20.953125 51.171875 25.484375 53.578125 
Q 30.03125 56 36.53125 56 
Q 37.453125 56 38.578125 55.875 
Q 39.703125 55.765625 41.0625 55.515625 
z
" id="DejaVuSans-114"/>
      <path id="DejaVuSans-32"/>
      <path d="M 30.609375 48.390625 
Q 23.390625 48.390625 19.1875 42.75 
Q 14.984375 37.109375 14.984375 27.296875 
Q 14.984375 17.484375 19.15625 11.84375 
Q 23.34375 6.203125 30.609375 6.203125 
Q 37.796875 6.203125 41.984375 11.859375 
Q 46.1875 17.53125 46.1875 27.296875 
Q 46.1875 37.015625 41.984375 42.703125 
Q 37.796875 48.390625 30.609375 48.390625 
z
M 30.609375 56 
Q 42.328125 56 49.015625 48.375 
Q 55.71875 40.765625 55.71875 27.296875 
Q 55.71875 13.875 49.015625 6.21875 
Q 42.328125 -1.421875 30.609375 -1.421875 
Q 18.84375 -1.421875 12.171875 6.21875 
Q 5.515625 13.875 5.515625 27.296875 
Q 5.515625 40.765625 12.171875 48.375 
Q 18.84375 56 30.609375 56 
z
" id="DejaVuSans-111"/>
      <path d="M 37.109375 75.984375 
L 37.109375 68.5 
L 28.515625 68.5 
Q 23.6875 68.5 21.796875 66.546875 
Q 19.921875 64.59375 19.921875 59.515625 
L 19.921875 54.6875 
L 34.71875 54.6875 
L 34.71875 47.703125 
L 19.921875 47.703125 
L 19.921875 0 
L 10.890625 0 
L 10.890625 47.703125 
L 2.296875 47.703125 
L 2.296875 54.6875 
L 10.890625 54.6875 
L 10.890625 58.5 
Q 10.890625 67.625 15.140625 71.796875 
Q 19.390625 75.984375 28.609375 75.984375 
z
" id="DejaVuSans-102"/>
      <path d="M 9.8125 72.90625 
L 55.90625 72.90625 
L 55.90625 64.59375 
L 19.671875 64.59375 
L 19.671875 43.015625 
L 54.390625 43.015625 
L 54.390625 34.71875 
L 19.671875 34.71875 
L 19.671875 8.296875 
L 56.78125 8.296875 
L 56.78125 0 
L 9.8125 0 
z
" id="DejaVuSans-69"/>
      <path d="M 18.109375 8.203125 
L 18.109375 -20.796875 
L 9.078125 -20.796875 
L 9.078125 54.6875 
L 18.109375 54.6875 
L 18.109375 46.390625 
Q 20.953125 51.265625 25.265625 53.625 
Q 29.59375 56 35.59375 56 
Q 45.5625 56 51.78125 48.09375 
Q 58.015625 40.1875 58.015625 27.296875 
Q 58.015625 14.40625 51.78125 6.484375 
Q 45.5625 -1.421875 35.59375 -1.421875 
Q 29.59375 -1.421875 25.265625 0.953125 
Q 20.953125 3.328125 18.109375 8.203125 
z
M 48.6875 27.296875 
Q 48.6875 37.203125 44.609375 42.84375 
Q 40.53125 48.484375 33.40625 48.484375 
Q 26.265625 48.484375 22.1875 42.84375 
Q 18.109375 37.203125 18.109375 27.296875 
Q 18.109375 17.390625 22.1875 11.75 
Q 26.265625 6.109375 33.40625 6.109375 
Q 40.53125 6.109375 44.609375 11.75 
Q 48.6875 17.390625 48.6875 27.296875 
z
" id="DejaVuSans-112"/>
      <path d="M 48.78125 52.59375 
L 48.78125 44.1875 
Q 44.96875 46.296875 41.140625 47.34375 
Q 37.3125 48.390625 33.40625 48.390625 
Q 24.65625 48.390625 19.8125 42.84375 
Q 14.984375 37.3125 14.984375 27.296875 
Q 14.984375 17.28125 19.8125 11.734375 
Q 24.65625 6.203125 33.40625 6.203125 
Q 37.3125 6.203125 41.140625 7.25 
Q 44.96875 8.296875 48.78125 10.40625 
L 48.78125 2.09375 
Q 45.015625 0.34375 40.984375 -0.53125 
Q 36.96875 -1.421875 32.421875 -1.421875 
Q 20.0625 -1.421875 12.78125 6.34375 
Q 5.515625 14.109375 5.515625 27.296875 
Q 5.515625 40.671875 12.859375 48.328125 
Q 20.21875 56 33.015625 56 
Q 37.15625 56 41.109375 55.140625 
Q 45.0625 54.296875 48.78125 52.59375 
z
" id="DejaVuSans-99"/>
      <path d="M 54.890625 33.015625 
L 54.890625 0 
L 45.90625 0 
L 45.90625 32.71875 
Q 45.90625 40.484375 42.875 44.328125 
Q 39.84375 48.1875 33.796875 48.1875 
Q 26.515625 48.1875 22.3125 43.546875 
Q 18.109375 38.921875 18.109375 30.90625 
L 18.109375 0 
L 9.078125 0 
L 9.078125 75.984375 
L 18.109375 75.984375 
L 18.109375 46.1875 
Q 21.34375 51.125 25.703125 53.5625 
Q 30.078125 56 35.796875 56 
Q 45.21875 56 50.046875 50.171875 
Q 54.890625 44.34375 54.890625 33.015625 
z
" id="DejaVuSans-104"/>
      <path d="M 44.28125 53.078125 
L 44.28125 44.578125 
Q 40.484375 46.53125 36.375 47.5 
Q 32.28125 48.484375 27.875 48.484375 
Q 21.1875 48.484375 17.84375 46.4375 
Q 14.5 44.390625 14.5 40.28125 
Q 14.5 37.15625 16.890625 35.375 
Q 19.28125 33.59375 26.515625 31.984375 
L 29.59375 31.296875 
Q 39.15625 29.25 43.1875 25.515625 
Q 47.21875 21.78125 47.21875 15.09375 
Q 47.21875 7.46875 41.1875 3.015625 
Q 35.15625 -1.421875 24.609375 -1.421875 
Q 20.21875 -1.421875 15.453125 -0.5625 
Q 10.6875 0.296875 5.421875 2 
L 5.421875 11.28125 
Q 10.40625 8.6875 15.234375 7.390625 
Q 20.0625 6.109375 24.8125 6.109375 
Q 31.15625 6.109375 34.5625 8.28125 
Q 37.984375 10.453125 37.984375 14.40625 
Q 37.984375 18.0625 35.515625 20.015625 
Q 33.0625 21.96875 24.703125 23.78125 
L 21.578125 24.515625 
Q 13.234375 26.265625 9.515625 29.90625 
Q 5.8125 33.546875 5.8125 39.890625 
Q 5.8125 47.609375 11.28125 51.796875 
Q 16.75 56 26.8125 56 
Q 31.78125 56 36.171875 55.265625 
Q 40.578125 54.546875 44.28125 53.078125 
z
" id="DejaVuSans-115"/>
     </defs>
     <g transform="translate(378.245562 548.633125)scale(0.2 -0.2)">
      <use xlink:href="#DejaVuSans-78"/>
      <use x="74.804688" xlink:href="#DejaVuSans-117"/>
      <use x="138.183594" xlink:href="#DejaVuSans-109"/>
      <use x="235.595703" xlink:href="#DejaVuSans-98"/>
      <use x="299.072266" xlink:href="#DejaVuSans-101"/>
      <use x="360.595703" xlink:href="#DejaVuSans-114"/>
      <use x="401.708984" xlink:href="#DejaVuSans-32"/>
      <use x="433.496094" xlink:href="#DejaVuSans-111"/>
      <use x="494.677734" xlink:href="#DejaVuSans-102"/>
      <use x="529.882812" xlink:href="#DejaVuSans-32"/>
      <use x="561.669922" xlink:href="#DejaVuSans-69"/>
      <use x="624.853516" xlink:href="#DejaVuSans-112"/>
      <use x="688.330078" xlink:href="#DejaVuSans-111"/>
      <use x="749.511719" xlink:href="#DejaVuSans-99"/>
      <use x="804.492188" xlink:href="#DejaVuSans-104"/>
      <use x="867.871094" xlink:href="#DejaVuSans-115"/>
     </g>
    </g>
   </g>
   <g id="matplotlib.axis_2">
    <g id="ytick_1">
     <g id="line2d_19">
      <path clip-path="url(#p528ece818c)" d="M 78.14 503.08 
L 862.348 503.08 
" style="fill:none;stroke:#b0b0b0;stroke-linecap:square;stroke-width:0.8;"/>
     </g>
     <g id="line2d_20">
      <defs>
       <path d="M 0 0 
L -3.5 0 
" id="m8380ca5066" style="stroke:#000000;stroke-width:0.8;"/>
      </defs>
      <g>
       <use style="stroke:#000000;stroke-width:0.8;" x="78.14" xlink:href="#m8380ca5066" y="503.08"/>
      </g>
     </g>
     <g id="text_11">
      <!-- 10 -->
      <g transform="translate(45.69 510.678437)scale(0.2 -0.2)">
       <use xlink:href="#DejaVuSans-49"/>
       <use x="63.623047" xlink:href="#DejaVuSans-48"/>
      </g>
     </g>
    </g>
    <g id="ytick_2">
     <g id="line2d_21">
      <path clip-path="url(#p528ece818c)" d="M 78.14 403.784348 
L 862.348 403.784348 
" style="fill:none;stroke:#b0b0b0;stroke-linecap:square;stroke-width:0.8;"/>
     </g>
     <g id="line2d_22">
      <g>
       <use style="stroke:#000000;stroke-width:0.8;" x="78.14" xlink:href="#m8380ca5066" y="403.784348"/>
      </g>
     </g>
     <g id="text_12">
      <!-- 15 -->
      <g transform="translate(45.69 411.382785)scale(0.2 -0.2)">
       <use xlink:href="#DejaVuSans-49"/>
       <use x="63.623047" xlink:href="#DejaVuSans-53"/>
      </g>
     </g>
    </g>
    <g id="ytick_3">
     <g id="line2d_23">
      <path clip-path="url(#p528ece818c)" d="M 78.14 304.488696 
L 862.348 304.488696 
" style="fill:none;stroke:#b0b0b0;stroke-linecap:square;stroke-width:0.8;"/>
     </g>
     <g id="line2d_24">
      <g>
       <use style="stroke:#000000;stroke-width:0.8;" x="78.14" xlink:href="#m8380ca5066" y="304.488696"/>
      </g>
     </g>
     <g id="text_13">
      <!-- 20 -->
      <g transform="translate(45.69 312.087133)scale(0.2 -0.2)">
       <use xlink:href="#DejaVuSans-50"/>
       <use x="63.623047" xlink:href="#DejaVuSans-48"/>
      </g>
     </g>
    </g>
    <g id="ytick_4">
     <g id="line2d_25">
      <path clip-path="url(#p528ece818c)" d="M 78.14 205.193043 
L 862.348 205.193043 
" style="fill:none;stroke:#b0b0b0;stroke-linecap:square;stroke-width:0.8;"/>
     </g>
     <g id="line2d_26">
      <g>
       <use style="stroke:#000000;stroke-width:0.8;" x="78.14" xlink:href="#m8380ca5066" y="205.193043"/>
      </g>
     </g>
     <g id="text_14">
      <!-- 25 -->
      <g transform="translate(45.69 212.791481)scale(0.2 -0.2)">
       <use xlink:href="#DejaVuSans-50"/>
       <use x="63.623047" xlink:href="#DejaVuSans-53"/>
      </g>
     </g>
    </g>
    <g id="ytick_5">
     <g id="line2d_27">
      <path clip-path="url(#p528ece818c)" d="M 78.14 105.897391 
L 862.348 105.897391 
" style="fill:none;stroke:#b0b0b0;stroke-linecap:square;stroke-width:0.8;"/>
     </g>
     <g id="line2d_28">
      <g>
       <use style="stroke:#000000;stroke-width:0.8;" x="78.14" xlink:href="#m8380ca5066" y="105.897391"/>
      </g>
     </g>
     <g id="text_15">
      <!-- 30 -->
      <g transform="translate(45.69 113.495829)scale(0.2 -0.2)">
       <use xlink:href="#DejaVuSans-51"/>
       <use x="63.623047" xlink:href="#DejaVuSans-48"/>
      </g>
     </g>
    </g>
    <g id="text_16">
     <!-- PSNR -->
     <defs>
      <path d="M 19.671875 64.796875 
L 19.671875 37.40625 
L 32.078125 37.40625 
Q 38.96875 37.40625 42.71875 40.96875 
Q 46.484375 44.53125 46.484375 51.125 
Q 46.484375 57.671875 42.71875 61.234375 
Q 38.96875 64.796875 32.078125 64.796875 
z
M 9.8125 72.90625 
L 32.078125 72.90625 
Q 44.34375 72.90625 50.609375 67.359375 
Q 56.890625 61.8125 56.890625 51.125 
Q 56.890625 40.328125 50.609375 34.8125 
Q 44.34375 29.296875 32.078125 29.296875 
L 19.671875 29.296875 
L 19.671875 0 
L 9.8125 0 
z
" id="DejaVuSans-80"/>
      <path d="M 53.515625 70.515625 
L 53.515625 60.890625 
Q 47.90625 63.578125 42.921875 64.890625 
Q 37.9375 66.21875 33.296875 66.21875 
Q 25.25 66.21875 20.875 63.09375 
Q 16.5 59.96875 16.5 54.203125 
Q 16.5 49.359375 19.40625 46.890625 
Q 22.3125 44.4375 30.421875 42.921875 
L 36.375 41.703125 
Q 47.40625 39.59375 52.65625 34.296875 
Q 57.90625 29 57.90625 20.125 
Q 57.90625 9.515625 50.796875 4.046875 
Q 43.703125 -1.421875 29.984375 -1.421875 
Q 24.8125 -1.421875 18.96875 -0.25 
Q 13.140625 0.921875 6.890625 3.21875 
L 6.890625 13.375 
Q 12.890625 10.015625 18.65625 8.296875 
Q 24.421875 6.59375 29.984375 6.59375 
Q 38.421875 6.59375 43.015625 9.90625 
Q 47.609375 13.234375 47.609375 19.390625 
Q 47.609375 24.75 44.3125 27.78125 
Q 41.015625 30.8125 33.5 32.328125 
L 27.484375 33.5 
Q 16.453125 35.6875 11.515625 40.375 
Q 6.59375 45.0625 6.59375 53.421875 
Q 6.59375 63.09375 13.40625 68.65625 
Q 20.21875 74.21875 32.171875 74.21875 
Q 37.3125 74.21875 42.625 73.28125 
Q 47.953125 72.359375 53.515625 70.515625 
z
" id="DejaVuSans-83"/>
      <path d="M 44.390625 34.1875 
Q 47.5625 33.109375 50.5625 29.59375 
Q 53.5625 26.078125 56.59375 19.921875 
L 66.609375 0 
L 56 0 
L 46.6875 18.703125 
Q 43.0625 26.03125 39.671875 28.421875 
Q 36.28125 30.8125 30.421875 30.8125 
L 19.671875 30.8125 
L 19.671875 0 
L 9.8125 0 
L 9.8125 72.90625 
L 32.078125 72.90625 
Q 44.578125 72.90625 50.734375 67.671875 
Q 56.890625 62.453125 56.890625 51.90625 
Q 56.890625 45.015625 53.6875 40.46875 
Q 50.484375 35.9375 44.390625 34.1875 
z
M 19.671875 64.796875 
L 19.671875 38.921875 
L 32.078125 38.921875 
Q 39.203125 38.921875 42.84375 42.21875 
Q 46.484375 45.515625 46.484375 51.90625 
Q 46.484375 58.296875 42.84375 61.546875 
Q 39.203125 64.796875 32.078125 64.796875 
z
" id="DejaVuSans-82"/>
     </defs>
     <g transform="translate(37.530625 301.507812)rotate(-90)scale(0.2 -0.2)">
      <use xlink:href="#DejaVuSans-80"/>
      <use x="60.302734" xlink:href="#DejaVuSans-83"/>
      <use x="123.779297" xlink:href="#DejaVuSans-78"/>
      <use x="198.583984" xlink:href="#DejaVuSans-82"/>
     </g>
    </g>
   </g>
   <g id="line2d_29">
    <path clip-path="url(#p528ece818c)" d="M 113.785818 345.429189 
L 117.368312 186.837833 
L 120.950807 155.243075 
L 124.533301 146.375639 
L 128.115795 126.24005 
L 131.69829 119.420291 
L 135.280784 125.304495 
L 138.863278 124.500337 
L 142.445772 121.285782 
L 146.028267 130.170588 
L 149.610761 123.291068 
L 156.77575 124.74951 
L 160.358244 128.127657 
L 163.940738 129.172815 
L 167.523233 129.823723 
L 171.105727 132.352933 
L 174.688221 133.760306 
L 178.270715 140.913946 
L 181.85321 144.331612 
L 185.435704 139.441772 
L 189.018198 143.621624 
L 192.600693 138.865418 
L 196.183187 144.348262 
L 199.765681 141.416103 
L 203.348175 147.582152 
L 206.93067 147.10285 
L 210.513164 144.36449 
L 214.095658 142.416087 
L 217.678153 146.19883 
L 221.260647 147.783752 
L 224.843141 145.74471 
L 228.425635 145.084884 
L 232.00813 146.30853 
L 235.590624 150.11382 
L 239.173118 145.270432 
L 242.755613 145.424842 
L 246.338107 146.992565 
L 249.920601 152.458734 
L 253.503095 147.664184 
L 257.08559 147.813378 
L 260.668084 155.637685 
L 264.250578 153.237629 
L 267.833073 149.734055 
L 271.415567 150.661876 
L 274.998061 151.054557 
L 278.580556 149.569029 
L 282.16305 148.785558 
L 285.745544 150.446636 
L 289.328038 150.830824 
L 292.910533 151.557922 
L 296.493027 149.616723 
L 300.075521 153.570021 
L 303.658016 155.835994 
L 310.823004 152.116124 
L 314.405498 150.59783 
L 317.987993 151.54047 
L 321.570487 150.964829 
L 325.152981 155.612255 
L 328.735476 150.149818 
L 332.31797 150.94003 
L 335.900464 153.537562 
L 339.482958 154.169522 
L 343.065453 151.470118 
L 346.647947 153.240915 
L 350.230441 153.8654 
L 353.812936 152.690729 
L 357.39543 155.282505 
L 360.977924 153.205366 
L 364.560418 152.482627 
L 368.142913 157.055778 
L 371.725407 152.483831 
L 375.307901 154.642866 
L 378.890396 153.204279 
L 382.47289 154.150797 
L 386.055384 155.762594 
L 389.637878 153.833513 
L 393.220373 157.385202 
L 396.802867 157.860328 
L 400.385361 157.896852 
L 403.967856 154.677242 
L 407.55035 155.932632 
L 411.132844 157.836329 
L 414.715339 156.630195 
L 418.297833 155.196484 
L 421.880327 153.128098 
L 425.462821 154.824461 
L 429.045316 157.322581 
L 432.62781 157.797671 
L 436.210304 157.856482 
L 439.792799 157.235293 
L 443.375293 154.54254 
L 446.957787 154.771022 
L 450.540281 157.135733 
L 454.122776 154.569323 
L 457.70527 155.605979 
L 461.287764 160.179328 
L 464.870259 155.651065 
L 468.452753 156.874361 
L 472.035247 160.179637 
L 479.200236 157.78229 
L 482.78273 156.05357 
L 486.365224 159.811357 
L 489.947719 156.580606 
L 493.530213 158.974438 
L 497.112707 156.204727 
L 500.695201 159.257768 
L 504.277696 158.057544 
L 507.86019 157.282637 
L 511.442684 155.583194 
L 515.025179 156.964921 
L 518.607673 155.69876 
L 522.190167 156.342112 
L 525.772661 155.346812 
L 529.355156 155.858797 
L 532.93765 156.161202 
L 536.520144 161.333283 
L 540.102639 161.793088 
L 543.685133 156.890658 
L 547.267627 156.613318 
L 550.850122 155.385664 
L 554.432616 160.58838 
L 558.01511 159.263479 
L 561.597604 157.574948 
L 565.180099 157.804336 
L 568.762593 157.795004 
L 572.345087 158.606445 
L 575.927582 158.498032 
L 579.510076 161.38777 
L 583.09257 157.206853 
L 586.675064 158.223184 
L 590.257559 159.745683 
L 593.840053 164.426751 
L 597.422547 160.182591 
L 601.005042 157.999353 
L 604.587536 156.976822 
L 608.17003 159.536858 
L 611.752524 161.273148 
L 615.335019 161.529783 
L 618.917513 156.932557 
L 622.500007 158.839336 
L 626.082502 161.803128 
L 629.664996 162.055247 
L 633.24749 159.308284 
L 636.829984 157.351019 
L 640.412479 160.438033 
L 643.994973 159.818258 
L 647.577467 157.815194 
L 651.159962 161.175971 
L 654.742456 160.712288 
L 661.907444 157.572199 
L 665.489939 156.952103 
L 669.072433 158.933566 
L 672.654927 159.908349 
L 676.237422 158.720114 
L 679.819916 158.394715 
L 683.40241 157.800393 
L 686.984905 157.525886 
L 690.567399 158.426657 
L 694.149893 157.359136 
L 697.732387 161.819175 
L 701.314882 159.879497 
L 704.897376 158.191778 
L 708.47987 161.83282 
L 712.062365 156.963923 
L 715.644859 157.804542 
L 719.227353 160.452915 
L 722.809847 157.732749 
L 726.392342 162.81368 
L 733.55733 161.677697 
L 737.139825 158.636915 
L 740.722319 157.548667 
L 744.304813 161.237707 
L 747.887307 160.969383 
L 751.469802 159.923348 
L 755.052296 161.696806 
L 758.63479 159.505663 
L 762.217285 160.219601 
L 765.799779 159.768255 
L 769.382273 160.835759 
L 772.964767 159.411038 
L 776.547262 160.473824 
L 780.129756 162.220354 
L 783.71225 160.988526 
L 787.294745 159.188261 
L 790.877239 160.907408 
L 794.459733 160.462483 
L 798.042228 158.278999 
L 801.624722 159.70591 
L 805.207216 162.778204 
L 808.78971 158.853921 
L 812.372205 158.952437 
L 815.954699 161.92906 
L 823.119688 158.512636 
L 826.702182 159.172793 
L 826.702182 159.172793 
" style="fill:none;stroke:#00008b;stroke-linecap:square;stroke-width:1.5;"/>
   </g>
   <g id="line2d_30">
    <path clip-path="url(#p528ece818c)" d="M 113.785818 482.928262 
L 131.69829 169.449749 
L 149.610761 131.277805 
L 167.523233 132.812004 
L 185.435704 165.609549 
L 203.348175 206.38803 
L 221.260647 222.660738 
L 239.173118 234.296365 
L 257.08559 243.151311 
L 274.998061 250.722166 
L 292.910533 252.331858 
L 310.823004 256.855694 
L 328.735476 258.227724 
L 346.647947 263.893155 
L 364.560418 264.290038 
L 382.47289 262.936435 
L 400.385361 262.659612 
L 418.297833 263.35273 
L 436.210304 265.863301 
L 454.122776 267.026282 
L 472.035247 268.028894 
L 489.947719 266.873906 
L 507.86019 268.702601 
L 525.772661 267.912592 
L 543.685133 269.064289 
L 561.597604 270.642985 
L 579.510076 271.122046 
L 597.422547 269.437723 
L 615.335019 271.087398 
L 633.24749 270.922547 
L 651.159962 268.672129 
L 669.072433 270.049609 
L 686.984905 272.036218 
L 704.897376 271.250946 
L 722.809847 270.840463 
L 740.722319 272.697931 
L 758.63479 271.592513 
L 776.547262 276.149523 
L 794.459733 271.698344 
L 812.372205 273.899176 
" style="fill:none;stroke:#afafaf;stroke-linecap:square;stroke-width:1.5;"/>
   </g>
   <g id="line2d_31">
    <path clip-path="url(#p528ece818c)" d="M 113.785818 478.942279 
L 131.69829 170.226681 
L 149.610761 121.525788 
L 167.523233 144.062581 
L 185.435704 176.876539 
L 203.348175 211.15611 
L 221.260647 230.489421 
L 239.173118 240.308175 
L 257.08559 245.364975 
L 274.998061 250.355149 
L 292.910533 254.064964 
L 310.823004 257.578126 
L 328.735476 258.178342 
L 346.647947 262.212559 
L 364.560418 262.501986 
L 382.47289 262.876147 
L 400.385361 264.236783 
L 418.297833 261.92863 
L 436.210304 263.144017 
L 454.122776 264.522413 
L 472.035247 266.06645 
L 489.947719 267.67308 
L 507.86019 266.32235 
L 525.772661 266.195367 
L 543.685133 266.093952 
L 561.597604 268.045083 
L 579.510076 269.801901 
L 597.422547 270.502275 
L 615.335019 269.089534 
L 633.24749 271.318347 
L 651.159962 270.630096 
L 669.072433 269.364098 
L 686.984905 270.307651 
L 704.897376 270.347735 
L 722.809847 270.159043 
L 740.722319 270.698347 
L 758.63479 270.273908 
L 776.547262 270.693068 
L 794.459733 271.282546 
L 812.372205 272.370948 
" style="fill:none;stroke:#afafaf;stroke-linecap:square;stroke-width:1.5;"/>
   </g>
   <g id="line2d_32">
    <path clip-path="url(#p528ece818c)" d="M 113.785818 480.175051 
L 131.69829 172.71483 
L 149.610761 123.108954 
L 167.523233 144.463313 
L 185.435704 183.538047 
L 203.348175 209.360779 
L 221.260647 228.600819 
L 239.173118 239.135394 
L 257.08559 243.466838 
L 274.998061 245.637175 
L 292.910533 250.853926 
L 310.823004 251.959466 
L 328.735476 253.941549 
L 346.647947 255.778756 
L 364.560418 256.393629 
L 382.47289 257.018408 
L 400.385361 261.616189 
L 418.297833 260.91975 
L 436.210304 262.160271 
L 454.122776 261.706119 
L 472.035247 262.572049 
L 489.947719 263.632619 
L 507.86019 262.749772 
L 525.772661 263.239146 
L 543.685133 264.223754 
L 561.597604 264.33544 
L 579.510076 265.751328 
L 597.422547 264.235653 
L 615.335019 264.226123 
L 633.24749 265.925548 
L 651.159962 266.582961 
L 669.072433 266.719519 
L 686.984905 265.45787 
L 704.897376 268.727818 
L 722.809847 266.880389 
L 740.722319 268.048566 
L 758.63479 268.208385 
L 776.547262 270.156646 
L 794.459733 268.18203 
L 812.372205 269.153104 
" style="fill:none;stroke:#9e9e9e;stroke-linecap:square;stroke-width:1.5;"/>
   </g>
   <g id="line2d_33">
    <path clip-path="url(#p528ece818c)" d="M 113.785818 478.797305 
L 131.69829 168.662211 
L 149.610761 123.198122 
L 167.523233 152.81376 
L 185.435704 189.657079 
L 203.348175 219.901396 
L 221.260647 230.737545 
L 239.173118 240.462152 
L 257.08559 244.870672 
L 274.998061 246.492155 
L 292.910533 251.608778 
L 310.823004 253.895406 
L 328.735476 256.502169 
L 346.647947 255.623083 
L 364.560418 255.641808 
L 382.47289 257.937958 
L 400.385361 260.579747 
L 418.297833 258.053275 
L 436.210304 258.827896 
L 454.122776 258.949607 
L 472.035247 260.9699 
L 489.947719 260.550161 
L 507.86019 262.199235 
L 525.772661 261.451669 
L 543.685133 261.440152 
L 561.597604 260.461223 
L 579.510076 262.052012 
L 597.422547 265.240088 
L 615.335019 263.501474 
L 633.24749 265.847326 
L 651.159962 262.553305 
L 669.072433 264.267471 
L 686.984905 264.305764 
L 704.897376 263.050686 
L 722.809847 264.632545 
L 740.722319 268.152297 
L 758.63479 266.185572 
L 776.547262 263.920689 
L 794.459733 266.464692 
L 812.372205 267.058526 
" style="fill:none;stroke:#8f8f8f;stroke-linecap:square;stroke-width:1.5;"/>
   </g>
   <g id="line2d_34">
    <path clip-path="url(#p528ece818c)" d="M 113.785818 476.052196 
L 131.69829 147.37119 
L 149.610761 130.256348 
L 167.523233 164.299319 
L 185.435704 193.889993 
L 203.348175 217.045168 
L 221.260647 227.743673 
L 239.173118 235.225834 
L 257.08559 242.239871 
L 274.998061 243.043254 
L 292.910533 247.040624 
L 310.823004 247.153084 
L 328.735476 249.509593 
L 346.647947 252.513135 
L 364.560418 253.495832 
L 382.47289 253.254295 
L 400.385361 254.270837 
L 418.297833 254.935599 
L 436.210304 253.225447 
L 454.122776 256.684484 
L 472.035247 254.9065 
L 489.947719 258.216386 
L 507.86019 256.678391 
L 525.772661 257.77412 
L 543.685133 257.466048 
L 561.597604 260.309407 
L 579.510076 259.037602 
L 597.422547 259.834085 
L 615.335019 258.862113 
L 633.24749 259.487857 
L 651.159962 259.639032 
L 669.072433 260.720029 
L 686.984905 260.693225 
L 704.897376 262.015506 
L 722.809847 261.775558 
L 740.722319 262.634709 
L 758.63479 260.668474 
L 776.547262 261.129428 
L 794.459733 262.29235 
L 812.372205 261.724205 
" style="fill:none;stroke:#7f7f7f;stroke-linecap:square;stroke-width:1.5;"/>
   </g>
   <g id="line2d_35">
    <path clip-path="url(#p528ece818c)" d="M 113.785818 473.502456 
L 131.69829 141.443792 
L 149.610761 130.544976 
L 167.523233 174.184635 
L 185.435704 208.477996 
L 203.348175 222.119443 
L 221.260647 230.626399 
L 239.173118 237.331066 
L 257.08559 243.438532 
L 274.998061 245.124378 
L 292.910533 247.021725 
L 310.823004 248.741311 
L 328.735476 248.312119 
L 346.647947 248.413904 
L 364.560418 248.062297 
L 382.47289 251.841867 
L 400.385361 252.023724 
L 418.297833 251.728644 
L 436.210304 253.837494 
L 454.122776 256.504689 
L 472.035247 253.325263 
L 489.947719 253.903182 
L 507.86019 254.413859 
L 525.772661 254.761856 
L 543.685133 257.949815 
L 561.597604 256.75713 
L 579.510076 255.783415 
L 597.422547 256.167181 
L 615.335019 257.169508 
L 633.24749 258.612518 
L 651.159962 256.36878 
L 669.072433 257.484031 
L 686.984905 258.426289 
L 704.897376 259.345961 
L 722.809847 258.414025 
L 740.722319 257.084338 
L 758.63479 259.862915 
L 776.547262 258.354525 
L 794.459733 259.740172 
L 812.372205 259.3921 
" style="fill:none;stroke:#717171;stroke-linecap:square;stroke-width:1.5;"/>
   </g>
   <g id="line2d_36">
    <path clip-path="url(#p528ece818c)" d="M 113.785818 470.123333 
L 131.69829 146.794774 
L 149.610761 134.988915 
L 167.523233 167.714175 
L 185.435704 201.033695 
L 203.348175 222.95231 
L 221.260647 226.840481 
L 239.173118 231.984037 
L 257.08559 238.069785 
L 274.998061 240.24359 
L 292.910533 238.290805 
L 310.823004 245.367684 
L 328.735476 244.851719 
L 346.647947 242.589707 
L 364.560418 249.497057 
L 382.47289 243.333907 
L 400.385361 245.958232 
L 418.297833 248.541652 
L 436.210304 248.290792 
L 454.122776 247.073413 
L 472.035247 248.37169 
L 489.947719 249.633051 
L 507.86019 250.937617 
L 525.772661 252.726706 
L 543.685133 251.538566 
L 561.597604 253.26347 
L 579.510076 250.307882 
L 597.422547 254.155765 
L 615.335019 252.033638 
L 633.24749 254.919708 
L 651.159962 253.348003 
L 669.072433 252.416884 
L 686.984905 251.161857 
L 704.897376 257.544411 
L 722.809847 252.877405 
L 740.722319 254.967682 
L 758.63479 254.212018 
L 776.547262 254.343415 
L 794.459733 255.022838 
L 812.372205 256.038568 
" style="fill:none;stroke:#636363;stroke-linecap:square;stroke-width:1.5;"/>
   </g>
   <g id="line2d_37">
    <path clip-path="url(#p528ece818c)" d="M 113.785818 468.385443 
L 131.69829 136.952741 
L 149.610761 144.399802 
L 167.523233 188.092616 
L 185.435704 206.380352 
L 203.348175 218.272198 
L 221.260647 224.355097 
L 239.173118 229.808843 
L 257.08559 231.02321 
L 274.998061 233.782059 
L 292.910533 236.083724 
L 310.823004 236.534006 
L 328.735476 239.721175 
L 346.647947 241.080403 
L 364.560418 239.284839 
L 382.47289 238.311833 
L 400.385361 242.794824 
L 418.297833 241.098549 
L 436.210304 240.223902 
L 454.122776 244.034042 
L 472.035247 243.8516 
L 489.947719 242.880258 
L 507.86019 245.302201 
L 525.772661 244.446332 
L 543.685133 245.247393 
L 561.597604 243.296311 
L 579.510076 244.791225 
L 597.422547 245.417533 
L 615.335019 246.432285 
L 633.24749 244.45177 
L 651.159962 246.206738 
L 669.072433 245.990125 
L 686.984905 247.280678 
L 704.897376 246.751463 
L 722.809847 247.227044 
L 740.722319 246.098442 
L 758.63479 249.284554 
L 776.547262 245.414012 
L 794.459733 245.96253 
L 812.372205 248.635933 
" style="fill:none;stroke:#555555;stroke-linecap:square;stroke-width:1.5;"/>
   </g>
   <g id="line2d_38">
    <path clip-path="url(#p528ece818c)" d="M 113.785818 464.160366 
L 131.69829 135.035988 
L 149.610761 138.147713 
L 167.523233 175.099336 
L 185.435704 203.716888 
L 203.348175 212.246463 
L 221.260647 216.438574 
L 239.173118 219.812819 
L 257.08559 226.261952 
L 274.998061 226.668713 
L 292.910533 226.038977 
L 310.823004 226.096513 
L 328.735476 229.603927 
L 346.647947 230.084594 
L 364.560418 230.430691 
L 382.47289 233.718291 
L 400.385361 233.542603 
L 418.297833 233.076356 
L 436.210304 233.571691 
L 454.122776 232.928916 
L 472.035247 235.532108 
L 489.947719 236.702536 
L 507.86019 235.14574 
L 525.772661 237.104073 
L 543.685133 237.153374 
L 561.597604 238.919182 
L 579.510076 236.409696 
L 597.422547 236.625653 
L 615.335019 237.62169 
L 633.24749 237.478702 
L 651.159962 237.96102 
L 669.072433 238.757693 
L 686.984905 239.595966 
L 704.897376 237.472961 
L 722.809847 237.882886 
L 740.722319 237.351038 
L 758.63479 240.168514 
L 776.547262 238.825625 
L 794.459733 238.84238 
L 812.372205 237.870858 
" style="fill:none;stroke:#555555;stroke-linecap:square;stroke-width:1.5;"/>
   </g>
   <g id="line2d_39">
    <path clip-path="url(#p528ece818c)" d="M 113.785818 468.077813 
L 131.69829 131.580284 
L 149.610761 136.534737 
L 167.523233 177.353287 
L 185.435704 189.320433 
L 203.348175 201.606042 
L 221.260647 206.834891 
L 239.173118 215.871109 
L 257.08559 217.239833 
L 274.998061 217.404058 
L 292.910533 216.899595 
L 310.823004 222.550562 
L 328.735476 221.429602 
L 346.647947 221.258424 
L 364.560418 223.729828 
L 382.47289 224.502513 
L 400.385361 226.83759 
L 418.297833 223.62031 
L 436.210304 224.181453 
L 454.122776 225.206208 
L 472.035247 225.401942 
L 489.947719 227.76285 
L 507.86019 228.892844 
L 525.772661 227.235879 
L 543.685133 226.702741 
L 561.597604 226.830886 
L 579.510076 228.518265 
L 597.422547 229.68331 
L 615.335019 228.404834 
L 633.24749 229.006865 
L 651.159962 227.769715 
L 669.072433 230.347938 
L 686.984905 230.090395 
L 704.897376 231.396882 
L 722.809847 228.620967 
L 740.722319 228.813239 
L 758.63479 230.267936 
L 776.547262 231.578746 
L 794.459733 231.256338 
L 812.372205 231.122801 
" style="fill:none;stroke:#434343;stroke-linecap:square;stroke-width:1.5;"/>
   </g>
   <g id="line2d_40">
    <path clip-path="url(#p528ece818c)" d="M 113.785818 467.127375 
L 131.69829 137.850863 
L 149.610761 156.968543 
L 167.523233 179.315982 
L 185.435704 192.400267 
L 203.348175 198.362035 
L 221.260647 202.315435 
L 239.173118 205.878804 
L 257.08559 210.17258 
L 274.998061 212.142076 
L 292.910533 214.234239 
L 310.823004 213.035091 
L 328.735476 213.305421 
L 346.647947 214.82282 
L 364.560418 214.07718 
L 382.47289 217.380481 
L 400.385361 214.57711 
L 418.297833 217.624039 
L 436.210304 219.266662 
L 454.122776 219.159665 
L 472.035247 219.555002 
L 489.947719 219.074171 
L 507.86019 219.223044 
L 525.772661 219.34034 
L 543.685133 220.503819 
L 561.597604 219.368885 
L 579.510076 220.575798 
L 597.422547 221.169819 
L 615.335019 221.446089 
L 633.24749 223.614655 
L 651.159962 221.221598 
L 669.072433 220.092057 
L 686.984905 221.003572 
L 704.897376 220.60678 
L 722.809847 221.610706 
L 740.722319 222.427636 
L 758.63479 223.055126 
L 776.547262 222.652941 
L 794.459733 222.238689 
L 812.372205 222.339809 
" style="fill:none;stroke:#303030;stroke-linecap:square;stroke-width:1.5;"/>
   </g>
   <g id="line2d_41">
    <path clip-path="url(#p528ece818c)" d="M 113.785818 454.606347 
L 131.69829 136.348084 
L 149.610761 147.438523 
L 167.523233 176.401679 
L 185.435704 184.067229 
L 203.348175 194.514182 
L 221.260647 197.074669 
L 239.173118 198.51389 
L 257.08559 201.1281 
L 274.998061 200.587799 
L 292.910533 203.261745 
L 310.823004 202.675012 
L 328.735476 206.014042 
L 346.647947 208.250875 
L 364.560418 207.000544 
L 382.47289 206.466856 
L 400.385361 207.586221 
L 418.297833 207.305976 
L 436.210304 208.30489 
L 454.122776 208.755209 
L 472.035247 209.960518 
L 489.947719 208.284839 
L 507.86019 212.718118 
L 525.772661 210.686231 
L 543.685133 209.819439 
L 561.597604 211.976354 
L 579.510076 212.902246 
L 597.422547 212.952569 
L 615.335019 211.923129 
L 633.24749 213.260767 
L 651.159962 212.239731 
L 669.072433 212.241622 
L 686.984905 214.064986 
L 704.897376 212.993235 
L 722.809847 214.767001 
L 740.722319 211.38967 
L 758.63479 213.450924 
L 776.547262 212.898751 
L 794.459733 212.811406 
L 812.372205 212.120555 
" style="fill:none;stroke:#1e1e1e;stroke-linecap:square;stroke-width:1.5;"/>
   </g>
   <g id="line2d_42">
    <path clip-path="url(#p528ece818c)" d="M 113.785818 455.199577 
L 131.69829 139.434664 
L 149.610761 152.483648 
L 167.523233 168.281774 
L 185.435704 180.328084 
L 203.348175 183.605496 
L 221.260647 188.037776 
L 239.173118 188.919753 
L 257.08559 196.167084 
L 274.998061 194.145065 
L 292.910533 192.521977 
L 310.823004 192.640686 
L 328.735476 194.517629 
L 346.647947 194.512554 
L 364.560418 194.810325 
L 382.47289 198.202519 
L 400.385361 197.593464 
L 418.297833 197.06435 
L 436.210304 198.056923 
L 454.122776 199.596807 
L 472.035247 199.957896 
L 489.947719 201.723154 
L 507.86019 199.881384 
L 525.772661 198.364752 
L 543.685133 199.593309 
L 561.597604 198.538761 
L 579.510076 200.010585 
L 597.422547 199.89452 
L 615.335019 199.65671 
L 633.24749 200.834429 
L 651.159962 199.423965 
L 669.072433 201.109369 
L 686.984905 200.48423 
L 704.897376 199.541048 
L 722.809847 201.056851 
L 740.722319 200.015325 
L 758.63479 201.552222 
L 776.547262 201.823985 
L 794.459733 202.849234 
L 812.372205 201.170026 
" style="fill:none;stroke:#0f0f0f;stroke-linecap:square;stroke-width:1.5;"/>
   </g>
   <g id="line2d_43">
    <path clip-path="url(#p528ece818c)" d="M 113.785818 453.15505 
L 131.69829 134.799839 
L 149.610761 150.85517 
L 167.523233 168.212887 
L 185.435704 174.174937 
L 203.348175 174.059065 
L 221.260647 179.983031 
L 239.173118 182.030311 
L 257.08559 184.64989 
L 274.998061 184.571434 
L 292.910533 185.863731 
L 310.823004 182.722886 
L 328.735476 188.037845 
L 346.647947 185.574087 
L 364.560418 187.319583 
L 382.47289 188.178259 
L 400.385361 188.433506 
L 418.297833 187.388135 
L 436.210304 187.577475 
L 454.122776 187.327537 
L 472.035247 188.454611 
L 489.947719 189.546227 
L 507.86019 188.521454 
L 525.772661 190.872211 
L 543.685133 188.498637 
L 561.597604 189.163988 
L 579.510076 188.619268 
L 597.422547 188.661075 
L 615.335019 189.129831 
L 633.24749 188.687367 
L 651.159962 190.97182 
L 669.072433 190.140425 
L 686.984905 191.560034 
L 704.897376 191.197998 
L 722.809847 191.058947 
L 740.722319 190.576501 
L 758.63479 192.531368 
L 776.547262 191.082799 
L 794.459733 193.386389 
L 812.372205 190.612928 
" style="fill:none;stroke:#000000;stroke-linecap:square;stroke-width:1.5;"/>
   </g>
   <g id="line2d_44">
    <path clip-path="url(#p528ece818c)" d="M 113.785818 468.948202 
L 117.368312 260.653871 
L 120.950807 208.776984 
L 124.533301 187.069539 
L 128.115795 169.646155 
L 131.69829 163.904445 
L 135.280784 145.331588 
L 138.863278 157.936964 
L 142.445772 130.888563 
L 146.028267 126.581326 
L 149.610761 125.81531 
L 153.193255 131.754176 
L 156.77575 125.997925 
L 160.358244 124.208519 
L 163.940738 124.17335 
L 167.523233 134.474212 
L 171.105727 138.245806 
L 174.688221 140.079458 
L 178.270715 146.145395 
L 181.85321 153.735284 
L 185.435704 160.024017 
L 189.018198 170.514692 
L 192.600693 176.624369 
L 196.183187 181.491218 
L 199.765681 183.605115 
L 203.348175 190.489203 
L 206.93067 193.364427 
L 210.513164 197.1155 
L 214.095658 203.868645 
L 217.678153 209.318484 
L 221.260647 207.6642 
L 224.843141 214.333297 
L 228.425635 212.671168 
L 232.00813 212.20829 
L 239.173118 218.790577 
L 242.755613 219.941505 
L 246.338107 222.214504 
L 249.920601 225.911972 
L 253.503095 225.038019 
L 257.08559 227.937091 
L 260.668084 226.737887 
L 264.250578 223.965964 
L 267.833073 230.05178 
L 271.415567 231.317515 
L 274.998061 230.123475 
L 278.580556 235.653399 
L 282.16305 234.13501 
L 285.745544 234.335651 
L 289.328038 232.363777 
L 292.910533 233.255114 
L 296.493027 235.59899 
L 300.075521 238.623737 
L 303.658016 236.295404 
L 307.24051 234.561663 
L 310.823004 237.032939 
L 317.987993 237.466938 
L 321.570487 235.662749 
L 325.152981 240.724892 
L 328.735476 239.962286 
L 332.31797 238.490943 
L 335.900464 242.881807 
L 339.482958 240.379933 
L 343.065453 244.564537 
L 346.647947 239.686187 
L 350.230441 244.390941 
L 353.812936 242.443596 
L 357.39543 239.625769 
L 360.977924 242.199151 
L 364.560418 243.991705 
L 368.142913 244.934616 
L 371.725407 244.72162 
L 375.307901 241.236305 
L 378.890396 243.494583 
L 382.47289 240.930453 
L 386.055384 245.687054 
L 389.637878 243.568086 
L 393.220373 243.131449 
L 396.802867 247.388848 
L 400.385361 246.140345 
L 403.967856 245.750342 
L 407.55035 244.55614 
L 411.132844 244.503689 
L 414.715339 243.173702 
L 418.297833 245.396461 
L 421.880327 245.084251 
L 425.462821 246.661472 
L 429.045316 242.309013 
L 432.62781 247.483628 
L 436.210304 244.648728 
L 439.792799 248.998588 
L 443.375293 246.047334 
L 446.957787 248.586085 
L 454.122776 249.263915 
L 457.70527 245.140068 
L 461.287764 246.532784 
L 464.870259 246.945895 
L 468.452753 246.090947 
L 472.035247 247.96633 
L 475.617741 246.608551 
L 479.200236 249.59389 
L 482.78273 249.615208 
L 486.365224 247.394891 
L 489.947719 249.452576 
L 493.530213 249.930432 
L 497.112707 248.131152 
L 500.695201 247.652745 
L 504.277696 247.695071 
L 507.86019 248.169458 
L 511.442684 248.078268 
L 515.025179 248.564613 
L 518.607673 250.157119 
L 522.190167 248.14598 
L 525.772661 247.652055 
L 529.355156 247.043506 
L 532.93765 250.387854 
L 536.520144 248.102039 
L 540.102639 246.928313 
L 543.685133 251.065585 
L 547.267627 250.464423 
L 550.850122 251.774835 
L 554.432616 249.34235 
L 558.01511 250.03316 
L 561.597604 251.597268 
L 565.180099 249.193452 
L 568.762593 248.547487 
L 572.345087 251.822118 
L 575.927582 251.279635 
L 579.510076 250.029152 
L 583.09257 250.039448 
L 586.675064 251.250632 
L 590.257559 252.6631 
L 593.840053 252.056564 
L 597.422547 251.858343 
L 601.005042 250.374159 
L 604.587536 249.848497 
L 608.17003 251.47698 
L 611.752524 250.494251 
L 615.335019 254.357698 
L 618.917513 249.188524 
L 622.500007 251.811138 
L 626.082502 251.748636 
L 629.664996 248.875918 
L 633.24749 251.160186 
L 636.829984 251.927377 
L 640.412479 250.118379 
L 643.994973 251.131042 
L 647.577467 249.543067 
L 651.159962 251.96086 
L 654.742456 253.911247 
L 658.32495 249.702424 
L 661.907444 253.632384 
L 665.489939 250.848769 
L 669.072433 252.283718 
L 676.237422 253.08383 
L 679.819916 251.896309 
L 683.40241 252.680258 
L 686.984905 252.514373 
L 690.567399 251.776939 
L 694.149893 252.870055 
L 697.732387 253.162992 
L 701.314882 252.677689 
L 704.897376 249.723614 
L 708.47987 251.404168 
L 712.062365 250.482775 
L 715.644859 253.26053 
L 719.227353 252.721058 
L 722.809847 253.567045 
L 726.392342 252.886377 
L 729.974836 252.433651 
L 733.55733 251.069347 
L 737.139825 253.04044 
L 740.722319 252.394754 
L 744.304813 252.874419 
L 751.469802 254.950402 
L 755.052296 254.042061 
L 758.63479 253.512761 
L 762.217285 254.407372 
L 765.799779 252.296583 
L 772.964767 250.578916 
L 776.547262 253.860548 
L 780.129756 255.164762 
L 783.71225 251.048981 
L 787.294745 254.533084 
L 790.877239 254.494008 
L 794.459733 255.289296 
L 798.042228 254.962321 
L 801.624722 253.559536 
L 805.207216 253.936156 
L 808.78971 254.894383 
L 812.372205 256.478815 
L 815.954699 253.455075 
L 819.537193 253.875232 
L 823.119688 253.250095 
L 826.702182 253.342169 
L 826.702182 253.342169 
" style="fill:none;stroke:#1f77b4;stroke-linecap:square;stroke-width:1.5;"/>
   </g>
   <g id="line2d_45">
    <path clip-path="url(#p528ece818c)" d="M 113.785818 459.086702 
L 117.368312 252.206508 
L 120.950807 200.592492 
L 124.533301 183.028549 
L 128.115795 161.520115 
L 131.69829 147.087513 
L 135.280784 140.773382 
L 138.863278 129.527966 
L 142.445772 137.165017 
L 146.028267 127.037666 
L 149.610761 131.485566 
L 153.193255 129.405004 
L 156.77575 123.319331 
L 160.358244 136.715395 
L 163.940738 134.633536 
L 167.523233 141.4779 
L 171.105727 151.066257 
L 174.688221 152.206927 
L 178.270715 163.370302 
L 185.435704 168.009404 
L 189.018198 175.462548 
L 192.600693 179.750895 
L 196.183187 187.978631 
L 199.765681 191.161734 
L 203.348175 193.62878 
L 206.93067 196.242863 
L 210.513164 198.131052 
L 214.095658 206.164205 
L 217.678153 204.898565 
L 221.260647 208.773893 
L 224.843141 209.623741 
L 228.425635 215.489302 
L 235.590624 215.58271 
L 239.173118 219.360892 
L 242.755613 221.515548 
L 246.338107 221.674895 
L 249.920601 220.481599 
L 253.503095 223.285019 
L 257.08559 222.280583 
L 260.668084 224.291358 
L 264.250578 227.581757 
L 267.833073 229.374017 
L 271.415567 229.396398 
L 274.998061 228.243254 
L 278.580556 229.626343 
L 282.16305 229.45483 
L 285.745544 229.419837 
L 289.328038 233.390051 
L 292.910533 232.639821 
L 296.493027 230.024969 
L 300.075521 234.217548 
L 303.658016 234.611627 
L 307.24051 233.24283 
L 310.823004 232.609258 
L 314.405498 233.359274 
L 317.987993 237.499968 
L 321.570487 235.831269 
L 325.152981 235.463467 
L 328.735476 237.244357 
L 332.31797 238.183732 
L 335.900464 238.578065 
L 339.482958 239.590856 
L 343.065453 239.524519 
L 346.647947 236.692808 
L 350.230441 236.65464 
L 353.812936 240.246887 
L 357.39543 238.475701 
L 360.977924 239.479312 
L 364.560418 239.453752 
L 368.142913 241.858703 
L 371.725407 241.539845 
L 375.307901 240.10628 
L 378.890396 242.848834 
L 382.47289 238.33733 
L 386.055384 239.774556 
L 389.637878 242.781337 
L 393.220373 242.883 
L 396.802867 241.832216 
L 400.385361 240.521059 
L 403.967856 241.498108 
L 411.132844 242.927032 
L 414.715339 242.163408 
L 418.297833 243.871396 
L 421.880327 242.710318 
L 425.462821 242.446636 
L 429.045316 245.377215 
L 432.62781 242.254618 
L 436.210304 244.90152 
L 439.792799 243.300272 
L 443.375293 244.308138 
L 446.957787 245.139048 
L 450.540281 244.419169 
L 454.122776 244.152849 
L 457.70527 244.707931 
L 461.287764 244.270229 
L 464.870259 244.697888 
L 468.452753 244.27118 
L 472.035247 245.858582 
L 475.617741 245.844589 
L 479.200236 245.114881 
L 482.78273 244.097755 
L 486.365224 244.897151 
L 489.947719 246.993094 
L 493.530213 244.930159 
L 497.112707 244.542219 
L 504.277696 248.375314 
L 507.86019 247.863774 
L 511.442684 245.471782 
L 515.025179 246.899834 
L 518.607673 246.192888 
L 522.190167 246.538364 
L 525.772661 248.291819 
L 529.355156 245.998015 
L 532.93765 246.334547 
L 536.520144 247.904562 
L 540.102639 247.292354 
L 543.685133 245.592511 
L 547.267627 248.926125 
L 550.850122 247.459272 
L 554.432616 247.881845 
L 558.01511 247.676513 
L 561.597604 248.577797 
L 565.180099 248.309544 
L 568.762593 249.043075 
L 572.345087 247.303934 
L 575.927582 248.085283 
L 579.510076 248.74349 
L 583.09257 247.105304 
L 586.675064 249.693779 
L 590.257559 246.462544 
L 593.840053 248.56608 
L 597.422547 249.867308 
L 601.005042 247.06188 
L 604.587536 250.996173 
L 608.17003 249.115644 
L 611.752524 248.908628 
L 615.335019 246.845902 
L 618.917513 247.780376 
L 622.500007 247.583299 
L 626.082502 250.556568 
L 629.664996 249.864544 
L 633.24749 250.181989 
L 636.829984 249.939724 
L 640.412479 249.873297 
L 643.994973 247.908687 
L 647.577467 248.154549 
L 651.159962 248.196339 
L 654.742456 249.779999 
L 658.32495 249.487608 
L 665.489939 249.875725 
L 669.072433 251.547753 
L 672.654927 251.773307 
L 676.237422 249.203628 
L 679.819916 250.11069 
L 683.40241 250.05898 
L 686.984905 248.248988 
L 690.567399 252.793514 
L 697.732387 250.328356 
L 701.314882 250.158542 
L 704.897376 250.426222 
L 708.47987 249.989936 
L 712.062365 250.630839 
L 715.644859 249.726711 
L 719.227353 249.308899 
L 722.809847 252.039519 
L 726.392342 251.030592 
L 729.974836 249.17733 
L 733.55733 251.869523 
L 737.139825 252.994655 
L 740.722319 250.566643 
L 744.304813 251.839297 
L 747.887307 250.339928 
L 751.469802 252.434075 
L 755.052296 250.267346 
L 758.63479 251.248094 
L 762.217285 250.747698 
L 765.799779 250.68576 
L 769.382273 249.754027 
L 772.964767 251.134735 
L 776.547262 252.266301 
L 780.129756 250.270607 
L 783.71225 250.336503 
L 787.294745 250.572309 
L 794.459733 252.661214 
L 798.042228 252.23793 
L 805.207216 252.321816 
L 808.78971 252.856042 
L 812.372205 251.403459 
L 815.954699 252.117722 
L 823.119688 254.443069 
L 826.702182 252.029623 
L 826.702182 252.029623 
" style="fill:none;stroke:#ff7f0e;stroke-linecap:square;stroke-width:1.5;"/>
   </g>
   <g id="patch_3">
    <path d="M 78.14 503.08 
L 78.14 46.32 
" style="fill:none;stroke:#000000;stroke-linecap:square;stroke-linejoin:miter;stroke-width:0.8;"/>
   </g>
   <g id="patch_4">
    <path d="M 862.348 503.08 
L 862.348 46.32 
" style="fill:none;stroke:#000000;stroke-linecap:square;stroke-linejoin:miter;stroke-width:0.8;"/>
   </g>
   <g id="patch_5">
    <path d="M 78.14 503.08 
L 862.348 503.08 
" style="fill:none;stroke:#000000;stroke-linecap:square;stroke-linejoin:miter;stroke-width:0.8;"/>
   </g>
   <g id="patch_6">
    <path d="M 78.14 46.32 
L 862.348 46.32 
" style="fill:none;stroke:#000000;stroke-linecap:square;stroke-linejoin:miter;stroke-width:0.8;"/>
   </g>
   <g id="text_17">
    <!-- PSNR vs. Number of Epochs -->
    <defs>
     <path d="M 2.984375 54.6875 
L 12.5 54.6875 
L 29.59375 8.796875 
L 46.6875 54.6875 
L 56.203125 54.6875 
L 35.6875 0 
L 23.484375 0 
z
" id="DejaVuSans-118"/>
     <path d="M 10.6875 12.40625 
L 21 12.40625 
L 21 0 
L 10.6875 0 
z
" id="DejaVuSans-46"/>
    </defs>
    <g transform="translate(302.8815 40.32)scale(0.24 -0.24)">
     <use xlink:href="#DejaVuSans-80"/>
     <use x="60.302734" xlink:href="#DejaVuSans-83"/>
     <use x="123.779297" xlink:href="#DejaVuSans-78"/>
     <use x="198.583984" xlink:href="#DejaVuSans-82"/>
     <use x="268.066406" xlink:href="#DejaVuSans-32"/>
     <use x="299.853516" xlink:href="#DejaVuSans-118"/>
     <use x="359.033203" xlink:href="#DejaVuSans-115"/>
     <use x="411.132812" xlink:href="#DejaVuSans-46"/>
     <use x="442.919922" xlink:href="#DejaVuSans-32"/>
     <use x="474.707031" xlink:href="#DejaVuSans-78"/>
     <use x="549.511719" xlink:href="#DejaVuSans-117"/>
     <use x="612.890625" xlink:href="#DejaVuSans-109"/>
     <use x="710.302734" xlink:href="#DejaVuSans-98"/>
     <use x="773.779297" xlink:href="#DejaVuSans-101"/>
     <use x="835.302734" xlink:href="#DejaVuSans-114"/>
     <use x="876.416016" xlink:href="#DejaVuSans-32"/>
     <use x="908.203125" xlink:href="#DejaVuSans-111"/>
     <use x="969.384766" xlink:href="#DejaVuSans-102"/>
     <use x="1004.589844" xlink:href="#DejaVuSans-32"/>
     <use x="1036.376953" xlink:href="#DejaVuSans-69"/>
     <use x="1099.560547" xlink:href="#DejaVuSans-112"/>
     <use x="1163.037109" xlink:href="#DejaVuSans-111"/>
     <use x="1224.21875" xlink:href="#DejaVuSans-99"/>
     <use x="1279.199219" xlink:href="#DejaVuSans-104"/>
     <use x="1342.578125" xlink:href="#DejaVuSans-115"/>
    </g>
   </g>
   <g id="legend_1">
    <g id="patch_7">
     <path d="M 677.75425 493.08 
L 848.348 493.08 
Q 852.348 493.08 852.348 489.08 
L 852.348 403.01125 
Q 852.348 399.01125 848.348 399.01125 
L 677.75425 399.01125 
Q 673.75425 399.01125 673.75425 403.01125 
L 673.75425 489.08 
Q 673.75425 493.08 677.75425 493.08 
z
" style="fill:#ffffff;opacity:0.8;stroke:#cccccc;stroke-linejoin:miter;"/>
    </g>
    <g id="line2d_46">
     <path d="M 681.75425 415.208125 
L 721.75425 415.208125 
" style="fill:none;stroke:#00008b;stroke-linecap:square;stroke-width:1.5;"/>
    </g>
    <g id="line2d_47"/>
    <g id="text_18">
     <!-- OES (ours) -->
     <defs>
      <path d="M 39.40625 66.21875 
Q 28.65625 66.21875 22.328125 58.203125 
Q 16.015625 50.203125 16.015625 36.375 
Q 16.015625 22.609375 22.328125 14.59375 
Q 28.65625 6.59375 39.40625 6.59375 
Q 50.140625 6.59375 56.421875 14.59375 
Q 62.703125 22.609375 62.703125 36.375 
Q 62.703125 50.203125 56.421875 58.203125 
Q 50.140625 66.21875 39.40625 66.21875 
z
M 39.40625 74.21875 
Q 54.734375 74.21875 63.90625 63.9375 
Q 73.09375 53.65625 73.09375 36.375 
Q 73.09375 19.140625 63.90625 8.859375 
Q 54.734375 -1.421875 39.40625 -1.421875 
Q 24.03125 -1.421875 14.8125 8.828125 
Q 5.609375 19.09375 5.609375 36.375 
Q 5.609375 53.65625 14.8125 63.9375 
Q 24.03125 74.21875 39.40625 74.21875 
z
" id="DejaVuSans-79"/>
      <path d="M 31 75.875 
Q 24.46875 64.65625 21.28125 53.65625 
Q 18.109375 42.671875 18.109375 31.390625 
Q 18.109375 20.125 21.3125 9.0625 
Q 24.515625 -2 31 -13.1875 
L 23.1875 -13.1875 
Q 15.875 -1.703125 12.234375 9.375 
Q 8.59375 20.453125 8.59375 31.390625 
Q 8.59375 42.28125 12.203125 53.3125 
Q 15.828125 64.359375 23.1875 75.875 
z
" id="DejaVuSans-40"/>
      <path d="M 8.015625 75.875 
L 15.828125 75.875 
Q 23.140625 64.359375 26.78125 53.3125 
Q 30.421875 42.28125 30.421875 31.390625 
Q 30.421875 20.453125 26.78125 9.375 
Q 23.140625 -1.703125 15.828125 -13.1875 
L 8.015625 -13.1875 
Q 14.5 -2 17.703125 9.0625 
Q 20.90625 20.125 20.90625 31.390625 
Q 20.90625 42.671875 17.703125 53.65625 
Q 14.5 64.65625 8.015625 75.875 
z
" id="DejaVuSans-41"/>
     </defs>
     <g transform="translate(737.75425 422.208125)scale(0.2 -0.2)">
      <use xlink:href="#DejaVuSans-79"/>
      <use x="78.710938" xlink:href="#DejaVuSans-69"/>
      <use x="141.894531" xlink:href="#DejaVuSans-83"/>
      <use x="205.371094" xlink:href="#DejaVuSans-32"/>
      <use x="237.158203" xlink:href="#DejaVuSans-40"/>
      <use x="276.171875" xlink:href="#DejaVuSans-111"/>
      <use x="337.353516" xlink:href="#DejaVuSans-117"/>
      <use x="400.732422" xlink:href="#DejaVuSans-114"/>
      <use x="441.845703" xlink:href="#DejaVuSans-115"/>
      <use x="493.945312" xlink:href="#DejaVuSans-41"/>
     </g>
    </g>
    <g id="line2d_48">
     <path d="M 681.75425 444.564375 
L 721.75425 444.564375 
" style="fill:none;stroke:#1f77b4;stroke-linecap:square;stroke-width:1.5;"/>
    </g>
    <g id="line2d_49"/>
    <g id="text_19">
     <!-- synflow -->
     <defs>
      <path d="M 32.171875 -5.078125 
Q 28.375 -14.84375 24.75 -17.8125 
Q 21.140625 -20.796875 15.09375 -20.796875 
L 7.90625 -20.796875 
L 7.90625 -13.28125 
L 13.1875 -13.28125 
Q 16.890625 -13.28125 18.9375 -11.515625 
Q 21 -9.765625 23.484375 -3.21875 
L 25.09375 0.875 
L 2.984375 54.6875 
L 12.5 54.6875 
L 29.59375 11.921875 
L 46.6875 54.6875 
L 56.203125 54.6875 
z
" id="DejaVuSans-121"/>
      <path d="M 54.890625 33.015625 
L 54.890625 0 
L 45.90625 0 
L 45.90625 32.71875 
Q 45.90625 40.484375 42.875 44.328125 
Q 39.84375 48.1875 33.796875 48.1875 
Q 26.515625 48.1875 22.3125 43.546875 
Q 18.109375 38.921875 18.109375 30.90625 
L 18.109375 0 
L 9.078125 0 
L 9.078125 54.6875 
L 18.109375 54.6875 
L 18.109375 46.1875 
Q 21.34375 51.125 25.703125 53.5625 
Q 30.078125 56 35.796875 56 
Q 45.21875 56 50.046875 50.171875 
Q 54.890625 44.34375 54.890625 33.015625 
z
" id="DejaVuSans-110"/>
      <path d="M 9.421875 75.984375 
L 18.40625 75.984375 
L 18.40625 0 
L 9.421875 0 
z
" id="DejaVuSans-108"/>
      <path d="M 4.203125 54.6875 
L 13.1875 54.6875 
L 24.421875 12.015625 
L 35.59375 54.6875 
L 46.1875 54.6875 
L 57.421875 12.015625 
L 68.609375 54.6875 
L 77.59375 54.6875 
L 63.28125 0 
L 52.6875 0 
L 40.921875 44.828125 
L 29.109375 0 
L 18.5 0 
z
" id="DejaVuSans-119"/>
     </defs>
     <g transform="translate(737.75425 451.564375)scale(0.2 -0.2)">
      <use xlink:href="#DejaVuSans-115"/>
      <use x="52.099609" xlink:href="#DejaVuSans-121"/>
      <use x="111.279297" xlink:href="#DejaVuSans-110"/>
      <use x="174.658203" xlink:href="#DejaVuSans-102"/>
      <use x="209.863281" xlink:href="#DejaVuSans-108"/>
      <use x="237.646484" xlink:href="#DejaVuSans-111"/>
      <use x="298.828125" xlink:href="#DejaVuSans-119"/>
     </g>
    </g>
    <g id="line2d_50">
     <path d="M 681.75425 473.920625 
L 721.75425 473.920625 
" style="fill:none;stroke:#ff7f0e;stroke-linecap:square;stroke-width:1.5;"/>
    </g>
    <g id="line2d_51"/>
    <g id="text_20">
     <!-- grasp -->
     <defs>
      <path d="M 45.40625 27.984375 
Q 45.40625 37.75 41.375 43.109375 
Q 37.359375 48.484375 30.078125 48.484375 
Q 22.859375 48.484375 18.828125 43.109375 
Q 14.796875 37.75 14.796875 27.984375 
Q 14.796875 18.265625 18.828125 12.890625 
Q 22.859375 7.515625 30.078125 7.515625 
Q 37.359375 7.515625 41.375 12.890625 
Q 45.40625 18.265625 45.40625 27.984375 
z
M 54.390625 6.78125 
Q 54.390625 -7.171875 48.1875 -13.984375 
Q 42 -20.796875 29.203125 -20.796875 
Q 24.46875 -20.796875 20.265625 -20.09375 
Q 16.0625 -19.390625 12.109375 -17.921875 
L 12.109375 -9.1875 
Q 16.0625 -11.328125 19.921875 -12.34375 
Q 23.78125 -13.375 27.78125 -13.375 
Q 36.625 -13.375 41.015625 -8.765625 
Q 45.40625 -4.15625 45.40625 5.171875 
L 45.40625 9.625 
Q 42.625 4.78125 38.28125 2.390625 
Q 33.9375 0 27.875 0 
Q 17.828125 0 11.671875 7.65625 
Q 5.515625 15.328125 5.515625 27.984375 
Q 5.515625 40.671875 11.671875 48.328125 
Q 17.828125 56 27.875 56 
Q 33.9375 56 38.28125 53.609375 
Q 42.625 51.21875 45.40625 46.390625 
L 45.40625 54.6875 
L 54.390625 54.6875 
z
" id="DejaVuSans-103"/>
      <path d="M 34.28125 27.484375 
Q 23.390625 27.484375 19.1875 25 
Q 14.984375 22.515625 14.984375 16.5 
Q 14.984375 11.71875 18.140625 8.90625 
Q 21.296875 6.109375 26.703125 6.109375 
Q 34.1875 6.109375 38.703125 11.40625 
Q 43.21875 16.703125 43.21875 25.484375 
L 43.21875 27.484375 
z
M 52.203125 31.203125 
L 52.203125 0 
L 43.21875 0 
L 43.21875 8.296875 
Q 40.140625 3.328125 35.546875 0.953125 
Q 30.953125 -1.421875 24.3125 -1.421875 
Q 15.921875 -1.421875 10.953125 3.296875 
Q 6 8.015625 6 15.921875 
Q 6 25.140625 12.171875 29.828125 
Q 18.359375 34.515625 30.609375 34.515625 
L 43.21875 34.515625 
L 43.21875 35.40625 
Q 43.21875 41.609375 39.140625 45 
Q 35.0625 48.390625 27.6875 48.390625 
Q 23 48.390625 18.546875 47.265625 
Q 14.109375 46.140625 10.015625 43.890625 
L 10.015625 52.203125 
Q 14.9375 54.109375 19.578125 55.046875 
Q 24.21875 56 28.609375 56 
Q 40.484375 56 46.34375 49.84375 
Q 52.203125 43.703125 52.203125 31.203125 
z
" id="DejaVuSans-97"/>
     </defs>
     <g transform="translate(737.75425 480.920625)scale(0.2 -0.2)">
      <use xlink:href="#DejaVuSans-103"/>
      <use x="63.476562" xlink:href="#DejaVuSans-114"/>
      <use x="104.589844" xlink:href="#DejaVuSans-97"/>
      <use x="165.869141" xlink:href="#DejaVuSans-115"/>
      <use x="217.96875" xlink:href="#DejaVuSans-112"/>
     </g>
    </g>
   </g>
  </g>
  <g id="axes_2">
   <g id="patch_8">
    <path clip-path="url(#p3168961c0a)" d="M 911.361 503.08 
L 911.361 465.016667 
L 911.361 84.383333 
L 911.361 46.32 
L 934.199 46.32 
L 934.199 84.383333 
L 934.199 465.016667 
L 934.199 503.08 
z
" style="fill:#ffffff;stroke:#ffffff;stroke-linejoin:miter;stroke-width:0.01;"/>
   </g>
   <g id="QuadMesh_1">
    <path clip-path="url(#p3168961c0a)" d="M 911.361 503.08 
L 934.199 503.08 
L 934.199 465.016667 
L 911.361 465.016667 
L 911.361 503.08 
" style="fill:#afafaf;"/>
    <path clip-path="url(#p3168961c0a)" d="M 911.361 465.016667 
L 934.199 465.016667 
L 934.199 426.953333 
L 911.361 426.953333 
L 911.361 465.016667 
" style="fill:#9e9e9e;"/>
    <path clip-path="url(#p3168961c0a)" d="M 911.361 426.953333 
L 934.199 426.953333 
L 934.199 388.89 
L 911.361 388.89 
L 911.361 426.953333 
" style="fill:#8f8f8f;"/>
    <path clip-path="url(#p3168961c0a)" d="M 911.361 388.89 
L 934.199 388.89 
L 934.199 350.826667 
L 911.361 350.826667 
L 911.361 388.89 
" style="fill:#7f7f7f;"/>
    <path clip-path="url(#p3168961c0a)" d="M 911.361 350.826667 
L 934.199 350.826667 
L 934.199 312.763333 
L 911.361 312.763333 
L 911.361 350.826667 
" style="fill:#717171;"/>
    <path clip-path="url(#p3168961c0a)" d="M 911.361 312.763333 
L 934.199 312.763333 
L 934.199 274.7 
L 911.361 274.7 
L 911.361 312.763333 
" style="fill:#636363;"/>
    <path clip-path="url(#p3168961c0a)" d="M 911.361 274.7 
L 934.199 274.7 
L 934.199 236.636667 
L 911.361 236.636667 
L 911.361 274.7 
" style="fill:#555555;"/>
    <path clip-path="url(#p3168961c0a)" d="M 911.361 236.636667 
L 934.199 236.636667 
L 934.199 198.573333 
L 911.361 198.573333 
L 911.361 236.636667 
" style="fill:#434343;"/>
    <path clip-path="url(#p3168961c0a)" d="M 911.361 198.573333 
L 934.199 198.573333 
L 934.199 160.51 
L 911.361 160.51 
L 911.361 198.573333 
" style="fill:#303030;"/>
    <path clip-path="url(#p3168961c0a)" d="M 911.361 160.51 
L 934.199 160.51 
L 934.199 122.446667 
L 911.361 122.446667 
L 911.361 160.51 
" style="fill:#1e1e1e;"/>
    <path clip-path="url(#p3168961c0a)" d="M 911.361 122.446667 
L 934.199 122.446667 
L 934.199 84.383333 
L 911.361 84.383333 
L 911.361 122.446667 
" style="fill:#0f0f0f;"/>
    <path clip-path="url(#p3168961c0a)" d="M 911.361 84.383333 
L 934.199 84.383333 
L 934.199 46.32 
L 911.361 46.32 
L 911.361 84.383333 
"/>
   </g>
   <g id="matplotlib.axis_3"/>
   <g id="matplotlib.axis_4">
    <g id="ytick_6">
     <g id="line2d_52">
      <defs>
       <path d="M 0 0 
L 3.5 0 
" id="m75c7e7895d" style="stroke:#000000;stroke-width:0.8;"/>
      </defs>
      <g>
       <use style="stroke:#000000;stroke-width:0.8;" x="934.199" xlink:href="#m75c7e7895d" y="503.08"/>
      </g>
     </g>
     <g id="text_21">
      <!-- 1 -->
      <g transform="translate(941.199 510.678437)scale(0.2 -0.2)">
       <use xlink:href="#DejaVuSans-49"/>
      </g>
     </g>
    </g>
    <g id="ytick_7">
     <g id="line2d_53">
      <g>
       <use style="stroke:#000000;stroke-width:0.8;" x="934.199" xlink:href="#m75c7e7895d" y="432.809231"/>
      </g>
     </g>
     <g id="text_22">
      <!-- 3 -->
      <g transform="translate(941.199 440.407668)scale(0.2 -0.2)">
       <use xlink:href="#DejaVuSans-51"/>
      </g>
     </g>
    </g>
    <g id="ytick_8">
     <g id="line2d_54">
      <g>
       <use style="stroke:#000000;stroke-width:0.8;" x="934.199" xlink:href="#m75c7e7895d" y="362.538462"/>
      </g>
     </g>
     <g id="text_23">
      <!-- 5 -->
      <g transform="translate(941.199 370.136899)scale(0.2 -0.2)">
       <use xlink:href="#DejaVuSans-53"/>
      </g>
     </g>
    </g>
    <g id="ytick_9">
     <g id="line2d_55">
      <g>
       <use style="stroke:#000000;stroke-width:0.8;" x="934.199" xlink:href="#m75c7e7895d" y="292.267692"/>
      </g>
     </g>
     <g id="text_24">
      <!-- 7 -->
      <defs>
       <path d="M 8.203125 72.90625 
L 55.078125 72.90625 
L 55.078125 68.703125 
L 28.609375 0 
L 18.3125 0 
L 43.21875 64.59375 
L 8.203125 64.59375 
z
" id="DejaVuSans-55"/>
      </defs>
      <g transform="translate(941.199 299.86613)scale(0.2 -0.2)">
       <use xlink:href="#DejaVuSans-55"/>
      </g>
     </g>
    </g>
    <g id="ytick_10">
     <g id="line2d_56">
      <g>
       <use style="stroke:#000000;stroke-width:0.8;" x="934.199" xlink:href="#m75c7e7895d" y="221.996923"/>
      </g>
     </g>
     <g id="text_25">
      <!-- 9 -->
      <defs>
       <path d="M 10.984375 1.515625 
L 10.984375 10.5 
Q 14.703125 8.734375 18.5 7.8125 
Q 22.3125 6.890625 25.984375 6.890625 
Q 35.75 6.890625 40.890625 13.453125 
Q 46.046875 20.015625 46.78125 33.40625 
Q 43.953125 29.203125 39.59375 26.953125 
Q 35.25 24.703125 29.984375 24.703125 
Q 19.046875 24.703125 12.671875 31.3125 
Q 6.296875 37.9375 6.296875 49.421875 
Q 6.296875 60.640625 12.9375 67.421875 
Q 19.578125 74.21875 30.609375 74.21875 
Q 43.265625 74.21875 49.921875 64.515625 
Q 56.59375 54.828125 56.59375 36.375 
Q 56.59375 19.140625 48.40625 8.859375 
Q 40.234375 -1.421875 26.421875 -1.421875 
Q 22.703125 -1.421875 18.890625 -0.6875 
Q 15.09375 0.046875 10.984375 1.515625 
z
M 30.609375 32.421875 
Q 37.25 32.421875 41.125 36.953125 
Q 45.015625 41.5 45.015625 49.421875 
Q 45.015625 57.28125 41.125 61.84375 
Q 37.25 66.40625 30.609375 66.40625 
Q 23.96875 66.40625 20.09375 61.84375 
Q 16.21875 57.28125 16.21875 49.421875 
Q 16.21875 41.5 20.09375 36.953125 
Q 23.96875 32.421875 30.609375 32.421875 
z
" id="DejaVuSans-57"/>
      </defs>
      <g transform="translate(941.199 229.595361)scale(0.2 -0.2)">
       <use xlink:href="#DejaVuSans-57"/>
      </g>
     </g>
    </g>
    <g id="ytick_11">
     <g id="line2d_57">
      <g>
       <use style="stroke:#000000;stroke-width:0.8;" x="934.199" xlink:href="#m75c7e7895d" y="151.726154"/>
      </g>
     </g>
     <g id="text_26">
      <!-- 11 -->
      <g transform="translate(941.199 159.324591)scale(0.2 -0.2)">
       <use xlink:href="#DejaVuSans-49"/>
       <use x="63.623047" xlink:href="#DejaVuSans-49"/>
      </g>
     </g>
    </g>
    <g id="ytick_12">
     <g id="line2d_58">
      <g>
       <use style="stroke:#000000;stroke-width:0.8;" x="934.199" xlink:href="#m75c7e7895d" y="81.455385"/>
      </g>
     </g>
     <g id="text_27">
      <!-- 13 -->
      <g transform="translate(941.199 89.053822)scale(0.2 -0.2)">
       <use xlink:href="#DejaVuSans-49"/>
       <use x="63.623047" xlink:href="#DejaVuSans-51"/>
      </g>
     </g>
    </g>
    <g id="text_28">
     <!-- IMP iterations -->
     <defs>
      <path d="M 9.8125 72.90625 
L 19.671875 72.90625 
L 19.671875 0 
L 9.8125 0 
z
" id="DejaVuSans-73"/>
      <path d="M 9.8125 72.90625 
L 24.515625 72.90625 
L 43.109375 23.296875 
L 61.8125 72.90625 
L 76.515625 72.90625 
L 76.515625 0 
L 66.890625 0 
L 66.890625 64.015625 
L 48.09375 14.015625 
L 38.1875 14.015625 
L 19.390625 64.015625 
L 19.390625 0 
L 9.8125 0 
z
" id="DejaVuSans-77"/>
      <path d="M 9.421875 54.6875 
L 18.40625 54.6875 
L 18.40625 0 
L 9.421875 0 
z
M 9.421875 75.984375 
L 18.40625 75.984375 
L 18.40625 64.59375 
L 9.421875 64.59375 
z
" id="DejaVuSans-105"/>
      <path d="M 18.3125 70.21875 
L 18.3125 54.6875 
L 36.8125 54.6875 
L 36.8125 47.703125 
L 18.3125 47.703125 
L 18.3125 18.015625 
Q 18.3125 11.328125 20.140625 9.421875 
Q 21.96875 7.515625 27.59375 7.515625 
L 36.8125 7.515625 
L 36.8125 0 
L 27.59375 0 
Q 17.1875 0 13.234375 3.875 
Q 9.28125 7.765625 9.28125 18.015625 
L 9.28125 47.703125 
L 2.6875 47.703125 
L 2.6875 54.6875 
L 9.28125 54.6875 
L 9.28125 70.21875 
z
" id="DejaVuSans-116"/>
     </defs>
     <g transform="translate(985.845875 342.940625)rotate(-90)scale(0.2 -0.2)">
      <use xlink:href="#DejaVuSans-73"/>
      <use x="29.492188" xlink:href="#DejaVuSans-77"/>
      <use x="115.771484" xlink:href="#DejaVuSans-80"/>
      <use x="176.074219" xlink:href="#DejaVuSans-32"/>
      <use x="207.861328" xlink:href="#DejaVuSans-105"/>
      <use x="235.644531" xlink:href="#DejaVuSans-116"/>
      <use x="274.853516" xlink:href="#DejaVuSans-101"/>
      <use x="336.376953" xlink:href="#DejaVuSans-114"/>
      <use x="377.490234" xlink:href="#DejaVuSans-97"/>
      <use x="438.769531" xlink:href="#DejaVuSans-116"/>
      <use x="477.978516" xlink:href="#DejaVuSans-105"/>
      <use x="505.761719" xlink:href="#DejaVuSans-111"/>
      <use x="566.943359" xlink:href="#DejaVuSans-110"/>
      <use x="630.322266" xlink:href="#DejaVuSans-115"/>
     </g>
    </g>
   </g>
   <g id="patch_9">
    <path d="M 911.361 503.08 
L 911.361 465.016667 
L 911.361 84.383333 
L 911.361 46.32 
L 934.199 46.32 
L 934.199 84.383333 
L 934.199 465.016667 
L 934.199 503.08 
z
" style="fill:none;stroke:#000000;stroke-linejoin:miter;stroke-width:0.8;"/>
   </g>
  </g>
 </g>
 <defs>
  <clipPath id="p528ece818c">
   <rect height="456.76" width="784.208" x="78.14" y="46.32"/>
  </clipPath>
  <clipPath id="p3168961c0a">
   <rect height="456.76" width="22.838" x="911.361" y="46.32"/>
  </clipPath>
 </defs>
</svg>
