<?xml version="1.0" encoding="utf-8" standalone="no"?>
<!DOCTYPE svg PUBLIC "-//W3C//DTD SVG 1.1//EN"
  "http://www.w3.org/Graphics/SVG/1.1/DTD/svg11.dtd">
<!-- Created with matplotlib (https://matplotlib.org/) -->
<svg height="432pt" version="1.1" viewBox="0 0 720 432" width="720pt" xmlns="http://www.w3.org/2000/svg" xmlns:xlink="http://www.w3.org/1999/xlink">
 <defs>
  <style type="text/css">
*{stroke-linecap:butt;stroke-linejoin:round;}
  </style>
 </defs>
 <g id="figure_1">
  <g id="patch_1">
   <path d="M 0 432 
L 720 432 
L 720 0 
L 0 0 
z
" style="fill:#ffffff;"/>
  </g>
  <g id="axes_1">
   <g id="patch_2">
    <path d="M 50.78 385.72 
L 709.2 385.72 
L 709.2 29.76 
L 50.78 29.76 
z
" style="fill:#ffffff;"/>
   </g>
   <g id="matplotlib.axis_1">
    <g id="xtick_1">
     <g id="line2d_1">
      <path clip-path="url(#p88e328013f)" d="M 80.708182 385.72 
L 80.708182 29.76 
" style="fill:none;stroke:#b0b0b0;stroke-linecap:square;stroke-width:0.8;"/>
     </g>
     <g id="line2d_2">
      <defs>
       <path d="M 0 0 
L 0 3.5 
" id="m87d478d5e1" style="stroke:#000000;stroke-width:0.8;"/>
      </defs>
      <g>
       <use style="stroke:#000000;stroke-width:0.8;" x="80.708182" xlink:href="#m87d478d5e1" y="385.72"/>
      </g>
     </g>
     <g id="text_1">
      <!-- 0 -->
      <defs>
       <path d="M 31.78125 66.40625 
Q 24.171875 66.40625 20.328125 58.90625 
Q 16.5 51.421875 16.5 36.375 
Q 16.5 21.390625 20.328125 13.890625 
Q 24.171875 6.390625 31.78125 6.390625 
Q 39.453125 6.390625 43.28125 13.890625 
Q 47.125 21.390625 47.125 36.375 
Q 47.125 51.421875 43.28125 58.90625 
Q 39.453125 66.40625 31.78125 66.40625 
z
M 31.78125 74.21875 
Q 44.046875 74.21875 50.515625 64.515625 
Q 56.984375 54.828125 56.984375 36.375 
Q 56.984375 17.96875 50.515625 8.265625 
Q 44.046875 -1.421875 31.78125 -1.421875 
Q 19.53125 -1.421875 13.0625 8.265625 
Q 6.59375 17.96875 6.59375 36.375 
Q 6.59375 54.828125 13.0625 64.515625 
Q 19.53125 74.21875 31.78125 74.21875 
z
" id="DejaVuSans-48"/>
      </defs>
      <g transform="translate(76.890682 401.838125)scale(0.12 -0.12)">
       <use xlink:href="#DejaVuSans-48"/>
      </g>
     </g>
    </g>
    <g id="xtick_2">
     <g id="line2d_3">
      <path clip-path="url(#p88e328013f)" d="M 155.904619 385.72 
L 155.904619 29.76 
" style="fill:none;stroke:#b0b0b0;stroke-linecap:square;stroke-width:0.8;"/>
     </g>
     <g id="line2d_4">
      <g>
       <use style="stroke:#000000;stroke-width:0.8;" x="155.904619" xlink:href="#m87d478d5e1" y="385.72"/>
      </g>
     </g>
     <g id="text_2">
      <!-- 5000 -->
      <defs>
       <path d="M 10.796875 72.90625 
L 49.515625 72.90625 
L 49.515625 64.59375 
L 19.828125 64.59375 
L 19.828125 46.734375 
Q 21.96875 47.46875 24.109375 47.828125 
Q 26.265625 48.1875 28.421875 48.1875 
Q 40.625 48.1875 47.75 41.5 
Q 54.890625 34.8125 54.890625 23.390625 
Q 54.890625 11.625 47.5625 5.09375 
Q 40.234375 -1.421875 26.90625 -1.421875 
Q 22.3125 -1.421875 17.546875 -0.640625 
Q 12.796875 0.140625 7.71875 1.703125 
L 7.71875 11.625 
Q 12.109375 9.234375 16.796875 8.0625 
Q 21.484375 6.890625 26.703125 6.890625 
Q 35.15625 6.890625 40.078125 11.328125 
Q 45.015625 15.765625 45.015625 23.390625 
Q 45.015625 31 40.078125 35.4375 
Q 35.15625 39.890625 26.703125 39.890625 
Q 22.75 39.890625 18.8125 39.015625 
Q 14.890625 38.140625 10.796875 36.28125 
z
" id="DejaVuSans-53"/>
      </defs>
      <g transform="translate(140.634619 401.838125)scale(0.12 -0.12)">
       <use xlink:href="#DejaVuSans-53"/>
       <use x="63.623047" xlink:href="#DejaVuSans-48"/>
       <use x="127.246094" xlink:href="#DejaVuSans-48"/>
       <use x="190.869141" xlink:href="#DejaVuSans-48"/>
      </g>
     </g>
    </g>
    <g id="xtick_3">
     <g id="line2d_5">
      <path clip-path="url(#p88e328013f)" d="M 231.101055 385.72 
L 231.101055 29.76 
" style="fill:none;stroke:#b0b0b0;stroke-linecap:square;stroke-width:0.8;"/>
     </g>
     <g id="line2d_6">
      <g>
       <use style="stroke:#000000;stroke-width:0.8;" x="231.101055" xlink:href="#m87d478d5e1" y="385.72"/>
      </g>
     </g>
     <g id="text_3">
      <!-- 10000 -->
      <defs>
       <path d="M 12.40625 8.296875 
L 28.515625 8.296875 
L 28.515625 63.921875 
L 10.984375 60.40625 
L 10.984375 69.390625 
L 28.421875 72.90625 
L 38.28125 72.90625 
L 38.28125 8.296875 
L 54.390625 8.296875 
L 54.390625 0 
L 12.40625 0 
z
" id="DejaVuSans-49"/>
      </defs>
      <g transform="translate(212.013555 401.838125)scale(0.12 -0.12)">
       <use xlink:href="#DejaVuSans-49"/>
       <use x="63.623047" xlink:href="#DejaVuSans-48"/>
       <use x="127.246094" xlink:href="#DejaVuSans-48"/>
       <use x="190.869141" xlink:href="#DejaVuSans-48"/>
       <use x="254.492188" xlink:href="#DejaVuSans-48"/>
      </g>
     </g>
    </g>
    <g id="xtick_4">
     <g id="line2d_7">
      <path clip-path="url(#p88e328013f)" d="M 306.297492 385.72 
L 306.297492 29.76 
" style="fill:none;stroke:#b0b0b0;stroke-linecap:square;stroke-width:0.8;"/>
     </g>
     <g id="line2d_8">
      <g>
       <use style="stroke:#000000;stroke-width:0.8;" x="306.297492" xlink:href="#m87d478d5e1" y="385.72"/>
      </g>
     </g>
     <g id="text_4">
      <!-- 15000 -->
      <g transform="translate(287.209992 401.838125)scale(0.12 -0.12)">
       <use xlink:href="#DejaVuSans-49"/>
       <use x="63.623047" xlink:href="#DejaVuSans-53"/>
       <use x="127.246094" xlink:href="#DejaVuSans-48"/>
       <use x="190.869141" xlink:href="#DejaVuSans-48"/>
       <use x="254.492188" xlink:href="#DejaVuSans-48"/>
      </g>
     </g>
    </g>
    <g id="xtick_5">
     <g id="line2d_9">
      <path clip-path="url(#p88e328013f)" d="M 381.493929 385.72 
L 381.493929 29.76 
" style="fill:none;stroke:#b0b0b0;stroke-linecap:square;stroke-width:0.8;"/>
     </g>
     <g id="line2d_10">
      <g>
       <use style="stroke:#000000;stroke-width:0.8;" x="381.493929" xlink:href="#m87d478d5e1" y="385.72"/>
      </g>
     </g>
     <g id="text_5">
      <!-- 20000 -->
      <defs>
       <path d="M 19.1875 8.296875 
L 53.609375 8.296875 
L 53.609375 0 
L 7.328125 0 
L 7.328125 8.296875 
Q 12.9375 14.109375 22.625 23.890625 
Q 32.328125 33.6875 34.8125 36.53125 
Q 39.546875 41.84375 41.421875 45.53125 
Q 43.3125 49.21875 43.3125 52.78125 
Q 43.3125 58.59375 39.234375 62.25 
Q 35.15625 65.921875 28.609375 65.921875 
Q 23.96875 65.921875 18.8125 64.3125 
Q 13.671875 62.703125 7.8125 59.421875 
L 7.8125 69.390625 
Q 13.765625 71.78125 18.9375 73 
Q 24.125 74.21875 28.421875 74.21875 
Q 39.75 74.21875 46.484375 68.546875 
Q 53.21875 62.890625 53.21875 53.421875 
Q 53.21875 48.921875 51.53125 44.890625 
Q 49.859375 40.875 45.40625 35.40625 
Q 44.1875 33.984375 37.640625 27.21875 
Q 31.109375 20.453125 19.1875 8.296875 
z
" id="DejaVuSans-50"/>
      </defs>
      <g transform="translate(362.406429 401.838125)scale(0.12 -0.12)">
       <use xlink:href="#DejaVuSans-50"/>
       <use x="63.623047" xlink:href="#DejaVuSans-48"/>
       <use x="127.246094" xlink:href="#DejaVuSans-48"/>
       <use x="190.869141" xlink:href="#DejaVuSans-48"/>
       <use x="254.492188" xlink:href="#DejaVuSans-48"/>
      </g>
     </g>
    </g>
    <g id="xtick_6">
     <g id="line2d_11">
      <path clip-path="url(#p88e328013f)" d="M 456.690365 385.72 
L 456.690365 29.76 
" style="fill:none;stroke:#b0b0b0;stroke-linecap:square;stroke-width:0.8;"/>
     </g>
     <g id="line2d_12">
      <g>
       <use style="stroke:#000000;stroke-width:0.8;" x="456.690365" xlink:href="#m87d478d5e1" y="385.72"/>
      </g>
     </g>
     <g id="text_6">
      <!-- 25000 -->
      <g transform="translate(437.602865 401.838125)scale(0.12 -0.12)">
       <use xlink:href="#DejaVuSans-50"/>
       <use x="63.623047" xlink:href="#DejaVuSans-53"/>
       <use x="127.246094" xlink:href="#DejaVuSans-48"/>
       <use x="190.869141" xlink:href="#DejaVuSans-48"/>
       <use x="254.492188" xlink:href="#DejaVuSans-48"/>
      </g>
     </g>
    </g>
    <g id="xtick_7">
     <g id="line2d_13">
      <path clip-path="url(#p88e328013f)" d="M 531.886802 385.72 
L 531.886802 29.76 
" style="fill:none;stroke:#b0b0b0;stroke-linecap:square;stroke-width:0.8;"/>
     </g>
     <g id="line2d_14">
      <g>
       <use style="stroke:#000000;stroke-width:0.8;" x="531.886802" xlink:href="#m87d478d5e1" y="385.72"/>
      </g>
     </g>
     <g id="text_7">
      <!-- 30000 -->
      <defs>
       <path d="M 40.578125 39.3125 
Q 47.65625 37.796875 51.625 33 
Q 55.609375 28.21875 55.609375 21.1875 
Q 55.609375 10.40625 48.1875 4.484375 
Q 40.765625 -1.421875 27.09375 -1.421875 
Q 22.515625 -1.421875 17.65625 -0.515625 
Q 12.796875 0.390625 7.625 2.203125 
L 7.625 11.71875 
Q 11.71875 9.328125 16.59375 8.109375 
Q 21.484375 6.890625 26.8125 6.890625 
Q 36.078125 6.890625 40.9375 10.546875 
Q 45.796875 14.203125 45.796875 21.1875 
Q 45.796875 27.640625 41.28125 31.265625 
Q 36.765625 34.90625 28.71875 34.90625 
L 20.21875 34.90625 
L 20.21875 43.015625 
L 29.109375 43.015625 
Q 36.375 43.015625 40.234375 45.921875 
Q 44.09375 48.828125 44.09375 54.296875 
Q 44.09375 59.90625 40.109375 62.90625 
Q 36.140625 65.921875 28.71875 65.921875 
Q 24.65625 65.921875 20.015625 65.03125 
Q 15.375 64.15625 9.8125 62.3125 
L 9.8125 71.09375 
Q 15.4375 72.65625 20.34375 73.4375 
Q 25.25 74.21875 29.59375 74.21875 
Q 40.828125 74.21875 47.359375 69.109375 
Q 53.90625 64.015625 53.90625 55.328125 
Q 53.90625 49.265625 50.4375 45.09375 
Q 46.96875 40.921875 40.578125 39.3125 
z
" id="DejaVuSans-51"/>
      </defs>
      <g transform="translate(512.799302 401.838125)scale(0.12 -0.12)">
       <use xlink:href="#DejaVuSans-51"/>
       <use x="63.623047" xlink:href="#DejaVuSans-48"/>
       <use x="127.246094" xlink:href="#DejaVuSans-48"/>
       <use x="190.869141" xlink:href="#DejaVuSans-48"/>
       <use x="254.492188" xlink:href="#DejaVuSans-48"/>
      </g>
     </g>
    </g>
    <g id="xtick_8">
     <g id="line2d_15">
      <path clip-path="url(#p88e328013f)" d="M 607.083239 385.72 
L 607.083239 29.76 
" style="fill:none;stroke:#b0b0b0;stroke-linecap:square;stroke-width:0.8;"/>
     </g>
     <g id="line2d_16">
      <g>
       <use style="stroke:#000000;stroke-width:0.8;" x="607.083239" xlink:href="#m87d478d5e1" y="385.72"/>
      </g>
     </g>
     <g id="text_8">
      <!-- 35000 -->
      <g transform="translate(587.995739 401.838125)scale(0.12 -0.12)">
       <use xlink:href="#DejaVuSans-51"/>
       <use x="63.623047" xlink:href="#DejaVuSans-53"/>
       <use x="127.246094" xlink:href="#DejaVuSans-48"/>
       <use x="190.869141" xlink:href="#DejaVuSans-48"/>
       <use x="254.492188" xlink:href="#DejaVuSans-48"/>
      </g>
     </g>
    </g>
    <g id="xtick_9">
     <g id="line2d_17">
      <path clip-path="url(#p88e328013f)" d="M 682.279676 385.72 
L 682.279676 29.76 
" style="fill:none;stroke:#b0b0b0;stroke-linecap:square;stroke-width:0.8;"/>
     </g>
     <g id="line2d_18">
      <g>
       <use style="stroke:#000000;stroke-width:0.8;" x="682.279676" xlink:href="#m87d478d5e1" y="385.72"/>
      </g>
     </g>
     <g id="text_9">
      <!-- 40000 -->
      <defs>
       <path d="M 37.796875 64.3125 
L 12.890625 25.390625 
L 37.796875 25.390625 
z
M 35.203125 72.90625 
L 47.609375 72.90625 
L 47.609375 25.390625 
L 58.015625 25.390625 
L 58.015625 17.1875 
L 47.609375 17.1875 
L 47.609375 0 
L 37.796875 0 
L 37.796875 17.1875 
L 4.890625 17.1875 
L 4.890625 26.703125 
z
" id="DejaVuSans-52"/>
      </defs>
      <g transform="translate(663.192176 401.838125)scale(0.12 -0.12)">
       <use xlink:href="#DejaVuSans-52"/>
       <use x="63.623047" xlink:href="#DejaVuSans-48"/>
       <use x="127.246094" xlink:href="#DejaVuSans-48"/>
       <use x="190.869141" xlink:href="#DejaVuSans-48"/>
       <use x="254.492188" xlink:href="#DejaVuSans-48"/>
      </g>
     </g>
    </g>
    <g id="text_10">
     <!-- Epoch -->
     <defs>
      <path d="M 9.8125 72.90625 
L 55.90625 72.90625 
L 55.90625 64.59375 
L 19.671875 64.59375 
L 19.671875 43.015625 
L 54.390625 43.015625 
L 54.390625 34.71875 
L 19.671875 34.71875 
L 19.671875 8.296875 
L 56.78125 8.296875 
L 56.78125 0 
L 9.8125 0 
z
" id="DejaVuSans-69"/>
      <path d="M 18.109375 8.203125 
L 18.109375 -20.796875 
L 9.078125 -20.796875 
L 9.078125 54.6875 
L 18.109375 54.6875 
L 18.109375 46.390625 
Q 20.953125 51.265625 25.265625 53.625 
Q 29.59375 56 35.59375 56 
Q 45.5625 56 51.78125 48.09375 
Q 58.015625 40.1875 58.015625 27.296875 
Q 58.015625 14.40625 51.78125 6.484375 
Q 45.5625 -1.421875 35.59375 -1.421875 
Q 29.59375 -1.421875 25.265625 0.953125 
Q 20.953125 3.328125 18.109375 8.203125 
z
M 48.6875 27.296875 
Q 48.6875 37.203125 44.609375 42.84375 
Q 40.53125 48.484375 33.40625 48.484375 
Q 26.265625 48.484375 22.1875 42.84375 
Q 18.109375 37.203125 18.109375 27.296875 
Q 18.109375 17.390625 22.1875 11.75 
Q 26.265625 6.109375 33.40625 6.109375 
Q 40.53125 6.109375 44.609375 11.75 
Q 48.6875 17.390625 48.6875 27.296875 
z
" id="DejaVuSans-112"/>
      <path d="M 30.609375 48.390625 
Q 23.390625 48.390625 19.1875 42.75 
Q 14.984375 37.109375 14.984375 27.296875 
Q 14.984375 17.484375 19.15625 11.84375 
Q 23.34375 6.203125 30.609375 6.203125 
Q 37.796875 6.203125 41.984375 11.859375 
Q 46.1875 17.53125 46.1875 27.296875 
Q 46.1875 37.015625 41.984375 42.703125 
Q 37.796875 48.390625 30.609375 48.390625 
z
M 30.609375 56 
Q 42.328125 56 49.015625 48.375 
Q 55.71875 40.765625 55.71875 27.296875 
Q 55.71875 13.875 49.015625 6.21875 
Q 42.328125 -1.421875 30.609375 -1.421875 
Q 18.84375 -1.421875 12.171875 6.21875 
Q 5.515625 13.875 5.515625 27.296875 
Q 5.515625 40.765625 12.171875 48.375 
Q 18.84375 56 30.609375 56 
z
" id="DejaVuSans-111"/>
      <path d="M 48.78125 52.59375 
L 48.78125 44.1875 
Q 44.96875 46.296875 41.140625 47.34375 
Q 37.3125 48.390625 33.40625 48.390625 
Q 24.65625 48.390625 19.8125 42.84375 
Q 14.984375 37.3125 14.984375 27.296875 
Q 14.984375 17.28125 19.8125 11.734375 
Q 24.65625 6.203125 33.40625 6.203125 
Q 37.3125 6.203125 41.140625 7.25 
Q 44.96875 8.296875 48.78125 10.40625 
L 48.78125 2.09375 
Q 45.015625 0.34375 40.984375 -0.53125 
Q 36.96875 -1.421875 32.421875 -1.421875 
Q 20.0625 -1.421875 12.78125 6.34375 
Q 5.515625 14.109375 5.515625 27.296875 
Q 5.515625 40.671875 12.859375 48.328125 
Q 20.21875 56 33.015625 56 
Q 37.15625 56 41.109375 55.140625 
Q 45.0625 54.296875 48.78125 52.59375 
z
" id="DejaVuSans-99"/>
      <path d="M 54.890625 33.015625 
L 54.890625 0 
L 45.90625 0 
L 45.90625 32.71875 
Q 45.90625 40.484375 42.875 44.328125 
Q 39.84375 48.1875 33.796875 48.1875 
Q 26.515625 48.1875 22.3125 43.546875 
Q 18.109375 38.921875 18.109375 30.90625 
L 18.109375 0 
L 9.078125 0 
L 9.078125 75.984375 
L 18.109375 75.984375 
L 18.109375 46.1875 
Q 21.34375 51.125 25.703125 53.5625 
Q 30.078125 56 35.796875 56 
Q 45.21875 56 50.046875 50.171875 
Q 54.890625 44.34375 54.890625 33.015625 
z
" id="DejaVuSans-104"/>
     </defs>
     <g transform="translate(358.554688 418.971563)scale(0.14 -0.14)">
      <use xlink:href="#DejaVuSans-69"/>
      <use x="63.183594" xlink:href="#DejaVuSans-112"/>
      <use x="126.660156" xlink:href="#DejaVuSans-111"/>
      <use x="187.841797" xlink:href="#DejaVuSans-99"/>
      <use x="242.822266" xlink:href="#DejaVuSans-104"/>
     </g>
    </g>
   </g>
   <g id="matplotlib.axis_2">
    <g id="ytick_1">
     <g id="line2d_19">
      <path clip-path="url(#p88e328013f)" d="M 50.78 385.72 
L 709.2 385.72 
" style="fill:none;stroke:#b0b0b0;stroke-linecap:square;stroke-width:0.8;"/>
     </g>
     <g id="line2d_20">
      <defs>
       <path d="M 0 0 
L -3.5 0 
" id="m680b5d3d3e" style="stroke:#000000;stroke-width:0.8;"/>
      </defs>
      <g>
       <use style="stroke:#000000;stroke-width:0.8;" x="50.78" xlink:href="#m680b5d3d3e" y="385.72"/>
      </g>
     </g>
     <g id="text_11">
      <!-- 18 -->
      <defs>
       <path d="M 31.78125 34.625 
Q 24.75 34.625 20.71875 30.859375 
Q 16.703125 27.09375 16.703125 20.515625 
Q 16.703125 13.921875 20.71875 10.15625 
Q 24.75 6.390625 31.78125 6.390625 
Q 38.8125 6.390625 42.859375 10.171875 
Q 46.921875 13.96875 46.921875 20.515625 
Q 46.921875 27.09375 42.890625 30.859375 
Q 38.875 34.625 31.78125 34.625 
z
M 21.921875 38.8125 
Q 15.578125 40.375 12.03125 44.71875 
Q 8.5 49.078125 8.5 55.328125 
Q 8.5 64.0625 14.71875 69.140625 
Q 20.953125 74.21875 31.78125 74.21875 
Q 42.671875 74.21875 48.875 69.140625 
Q 55.078125 64.0625 55.078125 55.328125 
Q 55.078125 49.078125 51.53125 44.71875 
Q 48 40.375 41.703125 38.8125 
Q 48.828125 37.15625 52.796875 32.3125 
Q 56.78125 27.484375 56.78125 20.515625 
Q 56.78125 9.90625 50.3125 4.234375 
Q 43.84375 -1.421875 31.78125 -1.421875 
Q 19.734375 -1.421875 13.25 4.234375 
Q 6.78125 9.90625 6.78125 20.515625 
Q 6.78125 27.484375 10.78125 32.3125 
Q 14.796875 37.15625 21.921875 38.8125 
z
M 18.3125 54.390625 
Q 18.3125 48.734375 21.84375 45.5625 
Q 25.390625 42.390625 31.78125 42.390625 
Q 38.140625 42.390625 41.71875 45.5625 
Q 45.3125 48.734375 45.3125 54.390625 
Q 45.3125 60.0625 41.71875 63.234375 
Q 38.140625 66.40625 31.78125 66.40625 
Q 25.390625 66.40625 21.84375 63.234375 
Q 18.3125 60.0625 18.3125 54.390625 
z
" id="DejaVuSans-56"/>
      </defs>
      <g transform="translate(28.51 390.279062)scale(0.12 -0.12)">
       <use xlink:href="#DejaVuSans-49"/>
       <use x="63.623047" xlink:href="#DejaVuSans-56"/>
      </g>
     </g>
    </g>
    <g id="ytick_2">
     <g id="line2d_21">
      <path clip-path="url(#p88e328013f)" d="M 50.78 326.393333 
L 709.2 326.393333 
" style="fill:none;stroke:#b0b0b0;stroke-linecap:square;stroke-width:0.8;"/>
     </g>
     <g id="line2d_22">
      <g>
       <use style="stroke:#000000;stroke-width:0.8;" x="50.78" xlink:href="#m680b5d3d3e" y="326.393333"/>
      </g>
     </g>
     <g id="text_12">
      <!-- 20 -->
      <g transform="translate(28.51 330.952396)scale(0.12 -0.12)">
       <use xlink:href="#DejaVuSans-50"/>
       <use x="63.623047" xlink:href="#DejaVuSans-48"/>
      </g>
     </g>
    </g>
    <g id="ytick_3">
     <g id="line2d_23">
      <path clip-path="url(#p88e328013f)" d="M 50.78 267.066667 
L 709.2 267.066667 
" style="fill:none;stroke:#b0b0b0;stroke-linecap:square;stroke-width:0.8;"/>
     </g>
     <g id="line2d_24">
      <g>
       <use style="stroke:#000000;stroke-width:0.8;" x="50.78" xlink:href="#m680b5d3d3e" y="267.066667"/>
      </g>
     </g>
     <g id="text_13">
      <!-- 22 -->
      <g transform="translate(28.51 271.625729)scale(0.12 -0.12)">
       <use xlink:href="#DejaVuSans-50"/>
       <use x="63.623047" xlink:href="#DejaVuSans-50"/>
      </g>
     </g>
    </g>
    <g id="ytick_4">
     <g id="line2d_25">
      <path clip-path="url(#p88e328013f)" d="M 50.78 207.74 
L 709.2 207.74 
" style="fill:none;stroke:#b0b0b0;stroke-linecap:square;stroke-width:0.8;"/>
     </g>
     <g id="line2d_26">
      <g>
       <use style="stroke:#000000;stroke-width:0.8;" x="50.78" xlink:href="#m680b5d3d3e" y="207.74"/>
      </g>
     </g>
     <g id="text_14">
      <!-- 24 -->
      <g transform="translate(28.51 212.299062)scale(0.12 -0.12)">
       <use xlink:href="#DejaVuSans-50"/>
       <use x="63.623047" xlink:href="#DejaVuSans-52"/>
      </g>
     </g>
    </g>
    <g id="ytick_5">
     <g id="line2d_27">
      <path clip-path="url(#p88e328013f)" d="M 50.78 148.413333 
L 709.2 148.413333 
" style="fill:none;stroke:#b0b0b0;stroke-linecap:square;stroke-width:0.8;"/>
     </g>
     <g id="line2d_28">
      <g>
       <use style="stroke:#000000;stroke-width:0.8;" x="50.78" xlink:href="#m680b5d3d3e" y="148.413333"/>
      </g>
     </g>
     <g id="text_15">
      <!-- 26 -->
      <defs>
       <path d="M 33.015625 40.375 
Q 26.375 40.375 22.484375 35.828125 
Q 18.609375 31.296875 18.609375 23.390625 
Q 18.609375 15.53125 22.484375 10.953125 
Q 26.375 6.390625 33.015625 6.390625 
Q 39.65625 6.390625 43.53125 10.953125 
Q 47.40625 15.53125 47.40625 23.390625 
Q 47.40625 31.296875 43.53125 35.828125 
Q 39.65625 40.375 33.015625 40.375 
z
M 52.59375 71.296875 
L 52.59375 62.3125 
Q 48.875 64.0625 45.09375 64.984375 
Q 41.3125 65.921875 37.59375 65.921875 
Q 27.828125 65.921875 22.671875 59.328125 
Q 17.53125 52.734375 16.796875 39.40625 
Q 19.671875 43.65625 24.015625 45.921875 
Q 28.375 48.1875 33.59375 48.1875 
Q 44.578125 48.1875 50.953125 41.515625 
Q 57.328125 34.859375 57.328125 23.390625 
Q 57.328125 12.15625 50.6875 5.359375 
Q 44.046875 -1.421875 33.015625 -1.421875 
Q 20.359375 -1.421875 13.671875 8.265625 
Q 6.984375 17.96875 6.984375 36.375 
Q 6.984375 53.65625 15.1875 63.9375 
Q 23.390625 74.21875 37.203125 74.21875 
Q 40.921875 74.21875 44.703125 73.484375 
Q 48.484375 72.75 52.59375 71.296875 
z
" id="DejaVuSans-54"/>
      </defs>
      <g transform="translate(28.51 152.972396)scale(0.12 -0.12)">
       <use xlink:href="#DejaVuSans-50"/>
       <use x="63.623047" xlink:href="#DejaVuSans-54"/>
      </g>
     </g>
    </g>
    <g id="ytick_6">
     <g id="line2d_29">
      <path clip-path="url(#p88e328013f)" d="M 50.78 89.086667 
L 709.2 89.086667 
" style="fill:none;stroke:#b0b0b0;stroke-linecap:square;stroke-width:0.8;"/>
     </g>
     <g id="line2d_30">
      <g>
       <use style="stroke:#000000;stroke-width:0.8;" x="50.78" xlink:href="#m680b5d3d3e" y="89.086667"/>
      </g>
     </g>
     <g id="text_16">
      <!-- 28 -->
      <g transform="translate(28.51 93.645729)scale(0.12 -0.12)">
       <use xlink:href="#DejaVuSans-50"/>
       <use x="63.623047" xlink:href="#DejaVuSans-56"/>
      </g>
     </g>
    </g>
    <g id="ytick_7">
     <g id="line2d_31">
      <path clip-path="url(#p88e328013f)" d="M 50.78 29.76 
L 709.2 29.76 
" style="fill:none;stroke:#b0b0b0;stroke-linecap:square;stroke-width:0.8;"/>
     </g>
     <g id="line2d_32">
      <g>
       <use style="stroke:#000000;stroke-width:0.8;" x="50.78" xlink:href="#m680b5d3d3e" y="29.76"/>
      </g>
     </g>
     <g id="text_17">
      <!-- 30 -->
      <g transform="translate(28.51 34.319063)scale(0.12 -0.12)">
       <use xlink:href="#DejaVuSans-51"/>
       <use x="63.623047" xlink:href="#DejaVuSans-48"/>
      </g>
     </g>
    </g>
    <g id="text_18">
     <!-- PSNR -->
     <defs>
      <path d="M 19.671875 64.796875 
L 19.671875 37.40625 
L 32.078125 37.40625 
Q 38.96875 37.40625 42.71875 40.96875 
Q 46.484375 44.53125 46.484375 51.125 
Q 46.484375 57.671875 42.71875 61.234375 
Q 38.96875 64.796875 32.078125 64.796875 
z
M 9.8125 72.90625 
L 32.078125 72.90625 
Q 44.34375 72.90625 50.609375 67.359375 
Q 56.890625 61.8125 56.890625 51.125 
Q 56.890625 40.328125 50.609375 34.8125 
Q 44.34375 29.296875 32.078125 29.296875 
L 19.671875 29.296875 
L 19.671875 0 
L 9.8125 0 
z
" id="DejaVuSans-80"/>
      <path d="M 53.515625 70.515625 
L 53.515625 60.890625 
Q 47.90625 63.578125 42.921875 64.890625 
Q 37.9375 66.21875 33.296875 66.21875 
Q 25.25 66.21875 20.875 63.09375 
Q 16.5 59.96875 16.5 54.203125 
Q 16.5 49.359375 19.40625 46.890625 
Q 22.3125 44.4375 30.421875 42.921875 
L 36.375 41.703125 
Q 47.40625 39.59375 52.65625 34.296875 
Q 57.90625 29 57.90625 20.125 
Q 57.90625 9.515625 50.796875 4.046875 
Q 43.703125 -1.421875 29.984375 -1.421875 
Q 24.8125 -1.421875 18.96875 -0.25 
Q 13.140625 0.921875 6.890625 3.21875 
L 6.890625 13.375 
Q 12.890625 10.015625 18.65625 8.296875 
Q 24.421875 6.59375 29.984375 6.59375 
Q 38.421875 6.59375 43.015625 9.90625 
Q 47.609375 13.234375 47.609375 19.390625 
Q 47.609375 24.75 44.3125 27.78125 
Q 41.015625 30.8125 33.5 32.328125 
L 27.484375 33.5 
Q 16.453125 35.6875 11.515625 40.375 
Q 6.59375 45.0625 6.59375 53.421875 
Q 6.59375 63.09375 13.40625 68.65625 
Q 20.21875 74.21875 32.171875 74.21875 
Q 37.3125 74.21875 42.625 73.28125 
Q 47.953125 72.359375 53.515625 70.515625 
z
" id="DejaVuSans-83"/>
      <path d="M 9.8125 72.90625 
L 23.09375 72.90625 
L 55.421875 11.921875 
L 55.421875 72.90625 
L 64.984375 72.90625 
L 64.984375 0 
L 51.703125 0 
L 19.390625 60.984375 
L 19.390625 0 
L 9.8125 0 
z
" id="DejaVuSans-78"/>
      <path d="M 44.390625 34.1875 
Q 47.5625 33.109375 50.5625 29.59375 
Q 53.5625 26.078125 56.59375 19.921875 
L 66.609375 0 
L 56 0 
L 46.6875 18.703125 
Q 43.0625 26.03125 39.671875 28.421875 
Q 36.28125 30.8125 30.421875 30.8125 
L 19.671875 30.8125 
L 19.671875 0 
L 9.8125 0 
L 9.8125 72.90625 
L 32.078125 72.90625 
Q 44.578125 72.90625 50.734375 67.671875 
Q 56.890625 62.453125 56.890625 51.90625 
Q 56.890625 45.015625 53.6875 40.46875 
Q 50.484375 35.9375 44.390625 34.1875 
z
M 19.671875 64.796875 
L 19.671875 38.921875 
L 32.078125 38.921875 
Q 39.203125 38.921875 42.84375 42.21875 
Q 46.484375 45.515625 46.484375 51.90625 
Q 46.484375 58.296875 42.84375 61.546875 
Q 39.203125 64.796875 32.078125 64.796875 
z
" id="DejaVuSans-82"/>
     </defs>
     <g transform="translate(21.598438 226.505469)rotate(-90)scale(0.14 -0.14)">
      <use xlink:href="#DejaVuSans-80"/>
      <use x="60.302734" xlink:href="#DejaVuSans-83"/>
      <use x="123.779297" xlink:href="#DejaVuSans-78"/>
      <use x="198.583984" xlink:href="#DejaVuSans-82"/>
     </g>
    </g>
   </g>
   <g id="line2d_33">
    <path clip-path="url(#p88e328013f)" d="M 81.853242 433 
L 83.716039 131.844999 
L 86.723897 74.737608 
L 89.731754 59.014787 
L 92.739612 44.811612 
L 95.747469 44.643449 
L 98.755327 45.151026 
L 101.763184 40.273127 
L 104.771042 45.316565 
L 107.778899 58.22952 
L 110.786757 54.848224 
L 113.794614 59.767006 
L 116.802471 58.43801 
L 119.810329 61.50483 
L 122.818186 63.031853 
L 125.826044 64.749177 
L 128.833901 69.740095 
L 131.841759 72.677758 
L 134.849616 71.10932 
L 137.857474 73.326756 
L 140.865331 71.11629 
L 146.881046 77.244891 
L 149.888904 75.207391 
L 152.896761 79.795198 
L 155.904619 76.265217 
L 161.920333 82.318039 
L 164.928191 79.948851 
L 167.936048 82.209408 
L 170.943906 83.361494 
L 173.951763 88.886454 
L 176.959621 83.972654 
L 179.967478 82.510209 
L 182.975336 82.63467 
L 185.983193 84.005532 
L 188.991051 83.966856 
L 191.998908 87.806956 
L 195.006766 84.929126 
L 198.014623 86.395161 
L 201.022481 84.689414 
L 204.030338 85.825258 
L 207.038196 88.495473 
L 210.046053 87.113582 
L 213.05391 87.080245 
L 216.061768 86.269609 
L 219.069625 87.925283 
L 222.077483 91.614121 
L 225.08534 88.481233 
L 228.093198 86.921584 
L 231.101055 92.17943 
L 234.108913 87.141689 
L 237.11677 90.533139 
L 240.124628 90.672845 
L 243.132485 88.807938 
L 249.1482 91.116961 
L 252.156058 89.09414 
L 255.163915 93.025913 
L 258.171772 91.957597 
L 261.17963 91.121532 
L 264.187487 91.597013 
L 267.195345 92.418975 
L 270.203202 88.442172 
L 273.21106 93.715274 
L 276.218917 90.878907 
L 279.226775 93.044288 
L 282.234632 90.389704 
L 285.24249 93.767174 
L 288.250347 92.402267 
L 291.258205 93.267273 
L 294.266062 93.548391 
L 297.27392 91.128505 
L 300.281777 95.592428 
L 303.289635 89.543619 
L 306.297492 90.847994 
L 309.305349 93.494576 
L 312.313207 94.084352 
L 315.321064 92.47673 
L 318.328922 92.870174 
L 321.336779 95.273906 
L 324.344637 96.139273 
L 327.352494 93.278585 
L 330.360352 96.745935 
L 333.368209 92.640495 
L 336.376067 94.827973 
L 339.383924 94.17799 
L 342.391782 94.519314 
L 345.399639 94.495921 
L 348.407497 95.581806 
L 351.415354 93.866577 
L 354.423212 98.030044 
L 357.431069 97.838393 
L 360.438926 94.799796 
L 363.446784 94.721229 
L 366.454641 93.02363 
L 369.462499 93.768875 
L 372.470356 93.637377 
L 375.478214 93.712453 
L 378.486071 93.977582 
L 381.493929 96.571228 
L 384.501786 97.15166 
L 387.509644 95.22338 
L 390.517501 95.810249 
L 393.525359 97.122413 
L 399.541074 95.468035 
L 402.548931 99.038431 
L 405.556788 97.17913 
L 408.564646 97.445567 
L 411.572503 94.76812 
L 414.580361 94.795727 
L 420.596076 98.6343 
L 423.603933 96.090494 
L 426.611791 97.962801 
L 429.619648 98.177094 
L 432.627506 95.664255 
L 435.635363 97.694736 
L 438.643221 95.558126 
L 441.651078 94.759466 
L 444.658936 96.625447 
L 450.674651 98.178953 
L 453.682508 96.602191 
L 456.690365 97.449323 
L 459.698223 99.475451 
L 462.70608 96.174858 
L 465.713938 97.818943 
L 468.721795 97.147757 
L 471.729653 94.486439 
L 474.73751 97.73375 
L 477.745368 98.092355 
L 480.753225 99.405401 
L 486.76894 97.613124 
L 489.776798 93.933189 
L 492.784655 95.922807 
L 495.792513 99.52783 
L 498.80037 97.012759 
L 501.808228 96.886716 
L 504.816085 98.050464 
L 507.823942 100.99162 
L 510.8318 95.32661 
L 513.839657 96.555684 
L 516.847515 96.081945 
L 519.855372 100.071458 
L 522.86323 97.75523 
L 525.871087 97.721426 
L 528.878945 99.19391 
L 531.886802 97.91739 
L 534.89466 98.851856 
L 537.902517 99.328437 
L 540.910375 99.340917 
L 543.918232 99.20795 
L 546.92609 96.703768 
L 549.933947 100.572906 
L 552.941804 98.235734 
L 555.949662 97.314612 
L 558.957519 99.352108 
L 561.965377 98.283419 
L 564.973234 98.540963 
L 567.981092 96.71421 
L 570.988949 98.891113 
L 573.996807 95.748321 
L 577.004664 98.746408 
L 580.012522 97.270514 
L 583.020379 97.267103 
L 586.028237 100.670552 
L 589.036094 100.275506 
L 592.043952 97.950264 
L 595.051809 97.186654 
L 598.059667 98.362935 
L 601.067524 97.586523 
L 604.075381 99.193381 
L 607.083239 102.914801 
L 610.091096 98.648819 
L 613.098954 99.463061 
L 616.106811 97.622052 
L 619.114669 97.475616 
L 622.122526 103.395005 
L 625.130384 101.132382 
L 628.138241 98.181235 
L 631.146099 99.91754 
L 634.153956 101.48821 
L 637.161814 97.492362 
L 640.169671 97.444842 
L 643.177529 99.533546 
L 646.185386 99.212071 
L 649.193243 100.750872 
L 652.201101 99.674821 
L 655.208958 98.467042 
L 658.216816 96.971715 
L 661.224673 98.947546 
L 664.232531 99.717468 
L 667.240388 97.948585 
L 670.248246 99.877842 
L 673.256103 100.489721 
L 676.263961 97.607889 
L 679.271818 101.686095 
L 679.271818 101.686095 
" style="fill:none;stroke:#1f77b4;stroke-linecap:square;stroke-width:2;"/>
   </g>
   <g id="line2d_34">
    <path clip-path="url(#p88e328013f)" d="M 81.815528 433 
L 83.716039 100.538985 
L 86.723897 60.011165 
L 89.731754 53.384229 
L 92.739612 48.323974 
L 95.747469 60.043774 
L 98.755327 82.599914 
L 101.763184 84.720103 
L 104.771042 90.212033 
L 107.778899 93.891968 
L 110.786757 99.384691 
L 113.794614 109.37796 
L 116.802471 110.429255 
L 119.810329 117.908903 
L 122.818186 120.656526 
L 125.826044 117.194512 
L 128.833901 124.564096 
L 131.841759 122.791246 
L 134.849616 128.780245 
L 137.857474 127.573993 
L 140.865331 127.466404 
L 143.873189 131.861598 
L 146.881046 128.637353 
L 149.888904 130.542374 
L 152.896761 131.748751 
L 155.904619 129.822077 
L 158.912476 135.273854 
L 161.920333 136.132617 
L 164.928191 134.822386 
L 167.936048 137.118677 
L 170.943906 135.646459 
L 173.951763 136.651779 
L 176.959621 136.745158 
L 179.967478 135.75221 
L 182.975336 135.058105 
L 185.983193 135.827319 
L 188.991051 141.30083 
L 191.998908 136.876165 
L 195.006766 141.252571 
L 198.014623 136.699884 
L 201.022481 140.184482 
L 204.030338 137.609413 
L 207.038196 142.645738 
L 210.046053 140.387401 
L 213.05391 140.794404 
L 216.061768 139.738841 
L 219.069625 139.310852 
L 222.077483 138.302863 
L 225.08534 138.98735 
L 228.093198 143.577151 
L 231.101055 144.069635 
L 234.108913 138.46925 
L 237.11677 143.93941 
L 240.124628 140.290745 
L 243.132485 140.460832 
L 246.140343 144.05166 
L 249.1482 139.857133 
L 252.156058 143.869222 
L 255.163915 143.751709 
L 258.171772 144.521198 
L 261.17963 142.070036 
L 264.187487 143.139001 
L 267.195345 143.274433 
L 270.203202 142.813291 
L 273.21106 143.293476 
L 276.218917 142.533717 
L 279.226775 144.470977 
L 282.234632 143.291792 
L 285.24249 144.227011 
L 288.250347 145.301869 
L 291.258205 142.788804 
L 294.266062 147.87005 
L 297.27392 144.387087 
L 300.281777 144.08411 
L 303.289635 143.99064 
L 306.297492 144.541851 
L 309.305349 148.22191 
L 312.313207 146.94418 
L 315.321064 145.039086 
L 318.328922 146.354843 
L 321.336779 147.997801 
L 324.344637 142.714844 
L 330.360352 147.229554 
L 333.368209 149.162196 
L 336.376067 146.502115 
L 339.383924 146.993199 
L 342.391782 145.685705 
L 345.399639 147.160837 
L 348.407497 144.473985 
L 351.415354 146.250324 
L 354.423212 145.628347 
L 357.431069 145.428041 
L 360.438926 148.876957 
L 363.446784 146.390671 
L 366.454641 143.665447 
L 369.462499 146.682363 
L 372.470356 146.388231 
L 375.478214 146.66644 
L 378.486071 144.337697 
L 381.493929 147.188973 
L 384.501786 146.77974 
L 387.509644 148.867719 
L 390.517501 147.867802 
L 393.525359 144.753545 
L 396.533216 146.694386 
L 399.541074 146.530497 
L 402.548931 145.357062 
L 405.556788 148.135912 
L 408.564646 145.958687 
L 411.572503 151.333902 
L 414.580361 149.106126 
L 417.588218 148.557664 
L 420.596076 146.424776 
L 423.603933 149.16396 
L 426.611791 148.489204 
L 432.627506 147.748201 
L 435.635363 150.051088 
L 438.643221 148.066023 
L 441.651078 147.248618 
L 444.658936 150.167487 
L 447.666793 148.841329 
L 450.674651 147.723196 
L 453.682508 148.72101 
L 456.690365 149.216703 
L 459.698223 149.151954 
L 462.70608 150.303483 
L 465.713938 148.854545 
L 468.721795 149.133328 
L 471.729653 146.836655 
L 474.73751 148.318876 
L 477.745368 150.25094 
L 480.753225 149.457139 
L 483.761083 149.428278 
L 486.76894 147.962191 
L 489.776798 148.10919 
L 492.784655 148.490322 
L 495.792513 152.022706 
L 498.80037 148.972376 
L 501.808228 146.778461 
L 504.816085 150.767453 
L 507.823942 150.512719 
L 510.8318 147.834793 
L 513.839657 148.067508 
L 516.847515 147.02877 
L 519.855372 149.353598 
L 522.86323 151.039258 
L 525.871087 146.645181 
L 528.878945 148.217715 
L 531.886802 149.04705 
L 534.89466 152.372394 
L 537.902517 149.392598 
L 540.910375 149.552335 
L 543.918232 149.545003 
L 546.92609 149.888635 
L 549.933947 149.89575 
L 552.941804 149.189443 
L 555.949662 149.698582 
L 561.965377 151.289656 
L 564.973234 150.250698 
L 567.981092 148.633943 
L 570.988949 151.723312 
L 573.996807 150.046517 
L 577.004664 150.415869 
L 580.012522 149.23311 
L 583.020379 149.380746 
L 586.028237 151.813897 
L 589.036094 150.91534 
L 592.043952 148.165877 
L 595.051809 150.645806 
L 598.059667 149.015808 
L 601.067524 148.839351 
L 604.075381 150.296749 
L 607.083239 150.196348 
L 613.098954 150.749358 
L 616.106811 149.477022 
L 619.114669 149.532667 
L 622.122526 149.365202 
L 625.130384 149.911365 
L 628.138241 150.230665 
L 631.146099 148.823423 
L 634.153956 151.153342 
L 637.161814 151.202993 
L 640.169671 151.671157 
L 643.177529 150.208311 
L 646.185386 150.680281 
L 649.193243 149.466735 
L 652.201101 149.367608 
L 655.208958 148.858172 
L 658.216816 148.834122 
L 661.224673 148.311317 
L 664.232531 149.443184 
L 667.240388 149.087777 
L 670.248246 150.018653 
L 673.256103 150.013922 
L 676.263961 151.184307 
L 679.271818 149.590463 
L 679.271818 149.590463 
" style="fill:none;stroke:#ff7f0e;stroke-linecap:square;stroke-width:2;"/>
   </g>
   <g id="line2d_35">
    <path clip-path="url(#p88e328013f)" d="M 81.085732 433 
L 83.716039 140.394369 
L 86.723897 84.466706 
L 89.731754 65.272662 
L 92.739612 56.427584 
L 95.747469 52.663322 
L 98.755327 43.051412 
L 101.763184 46.271355 
L 104.771042 41.707061 
L 107.778899 41.86983 
L 110.786757 42.971476 
L 113.794614 46.092142 
L 116.802471 53.959744 
L 119.810329 45.519666 
L 122.818186 41.4425 
L 125.826044 48.82495 
L 128.833901 39.744326 
L 131.841759 41.737753 
L 134.849616 44.827435 
L 137.857474 42.25945 
L 140.865331 39.890852 
L 143.873189 49.323457 
L 146.881046 46.975481 
L 149.888904 46.905527 
L 152.896761 43.533459 
L 155.904619 52.436801 
L 161.920333 43.023504 
L 164.928191 46.890334 
L 167.936048 49.155307 
L 170.943906 49.987511 
L 173.951763 51.283418 
L 176.959621 47.837824 
L 179.967478 52.033729 
L 182.975336 47.891614 
L 185.983193 51.123454 
L 188.991051 47.155394 
L 191.998908 50.087757 
L 195.006766 52.221806 
L 198.014623 45.331849 
L 201.022481 46.230249 
L 204.030338 45.932593 
L 207.038196 57.270239 
L 210.046053 53.642626 
L 213.05391 44.38511 
L 216.061768 45.259278 
L 219.069625 57.17477 
L 222.077483 46.286781 
L 225.08534 54.350575 
L 228.093198 48.983151 
L 231.101055 47.166291 
L 234.108913 52.406534 
L 237.11677 54.316229 
L 240.124628 49.045561 
L 243.132485 55.397807 
L 246.140343 45.872643 
L 249.1482 50.853626 
L 252.156058 50.291925 
L 255.163915 48.771899 
L 258.171772 63.847488 
L 261.17963 51.453914 
L 264.187487 56.636776 
L 267.195345 47.433998 
L 270.203202 49.567408 
L 273.21106 57.24531 
L 276.218917 49.17524 
L 279.226775 50.250164 
L 282.234632 55.009119 
L 285.24249 53.093073 
L 288.250347 51.35792 
L 291.258205 52.319905 
L 294.266062 52.292468 
L 297.27392 58.558823 
L 300.281777 48.67769 
L 303.289635 48.325761 
L 306.297492 55.298277 
L 309.305349 52.721707 
L 312.313207 50.397083 
L 315.321064 56.554492 
L 318.328922 57.735811 
L 321.336779 53.076984 
L 324.344637 58.181401 
L 327.352494 52.157258 
L 330.360352 57.109658 
L 333.368209 54.400428 
L 336.376067 56.855254 
L 339.383924 53.093205 
L 342.391782 52.949306 
L 345.399639 52.2473 
L 348.407497 53.405444 
L 351.415354 48.359885 
L 354.423212 53.276616 
L 357.431069 50.076862 
L 360.438926 58.557503 
L 363.446784 76.082614 
L 366.454641 56.171625 
L 369.462499 52.309203 
L 372.470356 49.386358 
L 375.478214 51.555912 
L 378.486071 56.169652 
L 381.493929 57.772151 
L 384.501786 52.259596 
L 387.509644 54.74707 
L 390.517501 54.279531 
L 393.525359 59.986795 
L 396.533216 55.110006 
L 399.541074 59.967245 
L 402.548931 56.106351 
L 405.556788 51.043876 
L 408.564646 55.043352 
L 411.572503 53.855198 
L 414.580361 55.445882 
L 417.588218 52.458241 
L 420.596076 51.363025 
L 423.603933 58.414298 
L 426.611791 49.767462 
L 429.619648 49.555486 
L 432.627506 53.785389 
L 435.635363 59.066304 
L 438.643221 52.755204 
L 441.651078 54.289433 
L 444.658936 58.79351 
L 447.666793 52.106591 
L 450.674651 55.413585 
L 453.682508 57.570422 
L 456.690365 57.03096 
L 459.698223 52.545584 
L 462.70608 51.054682 
L 465.713938 57.50397 
L 468.721795 49.419165 
L 471.729653 51.266203 
L 474.73751 56.862462 
L 477.745368 52.260081 
L 480.753225 60.121961 
L 483.761083 54.323618 
L 486.76894 59.595229 
L 489.776798 58.636929 
L 492.784655 52.148985 
L 495.792513 48.87837 
L 498.80037 53.479135 
L 501.808228 58.942998 
L 507.823942 50.551333 
L 510.8318 51.533879 
L 513.839657 56.369806 
L 516.847515 54.766746 
L 519.855372 56.079888 
L 522.86323 56.864794 
L 525.871087 58.898119 
L 528.878945 56.741816 
L 531.886802 60.540919 
L 534.89466 52.165749 
L 537.902517 57.693298 
L 540.910375 53.953824 
L 543.918232 56.952641 
L 546.92609 58.16421 
L 549.933947 59.20482 
L 552.941804 57.503448 
L 555.949662 54.770655 
L 558.957519 54.055639 
L 561.965377 52.15043 
L 564.973234 53.942509 
L 567.981092 54.466962 
L 570.988949 58.471323 
L 573.996807 57.910862 
L 577.004664 52.443081 
L 580.012522 59.758958 
L 583.020379 54.5554 
L 586.028237 55.255636 
L 589.036094 57.779782 
L 592.043952 55.368801 
L 595.051809 54.270722 
L 598.059667 54.206229 
L 601.067524 54.004554 
L 604.075381 53.572094 
L 607.083239 56.600811 
L 610.091096 53.634148 
L 613.098954 59.435672 
L 616.106811 58.209642 
L 619.114669 54.846238 
L 622.122526 56.836829 
L 625.130384 57.448363 
L 628.138241 58.464753 
L 631.146099 56.687611 
L 634.153956 55.989535 
L 637.161814 56.279202 
L 640.169671 57.207286 
L 643.177529 54.718105 
L 646.185386 59.729343 
L 649.193243 53.924384 
L 652.201101 54.592589 
L 655.208958 54.428853 
L 658.216816 56.418363 
L 661.224673 51.268141 
L 664.232531 52.361749 
L 667.240388 52.716702 
L 670.248246 58.280008 
L 673.256103 53.499087 
L 676.263961 59.231779 
L 679.271818 51.123208 
L 679.271818 51.123208 
" style="fill:none;stroke:#2ca02c;stroke-linecap:square;stroke-width:2;"/>
   </g>
   <g id="line2d_36">
    <path clip-path="url(#p88e328013f)" d="M 85.469893 433 
L 95.747469 67.089735 
L 110.786757 100.073241 
L 125.826044 115.553817 
L 140.865331 123.467244 
L 155.904619 123.355274 
L 170.943906 131.242194 
L 185.983193 127.640086 
L 201.022481 129.430862 
L 216.061768 133.746358 
L 231.101055 134.705029 
L 246.140343 134.744268 
L 261.17963 135.80705 
L 276.218917 134.366883 
L 291.258205 137.050838 
L 306.297492 137.432555 
L 321.336779 137.579469 
L 336.376067 137.520619 
L 351.415354 138.1345 
L 366.454641 138.471951 
L 381.493929 140.294546 
L 396.533216 138.926152 
L 411.572503 140.124716 
L 426.611791 140.062862 
L 441.651078 140.636686 
L 456.690365 140.387742 
L 471.729653 138.098426 
L 486.76894 140.036921 
L 501.808228 139.2048 
L 516.847515 139.265143 
L 531.886802 140.061878 
L 546.92609 140.761711 
L 561.965377 140.957836 
L 577.004664 140.443326 
L 592.043952 140.495115 
L 607.083239 141.049816 
L 622.122526 141.846958 
L 637.161814 142.002784 
L 652.201101 142.976591 
L 667.240388 142.558588 
" style="fill:none;stroke:#d62728;stroke-linecap:square;stroke-width:2;"/>
   </g>
   <g id="line2d_37">
    <path clip-path="url(#p88e328013f)" d="M 81.708131 433 
L 83.716039 95.512815 
L 86.723897 62.71664 
L 89.731754 52.696004 
L 92.739612 44.447326 
L 95.747469 45.962174 
L 98.755327 51.712049 
L 101.763184 48.052706 
L 104.771042 49.640964 
L 107.778899 55.54892 
L 110.786757 52.383809 
L 113.794614 54.271729 
L 116.802471 57.669299 
L 119.810329 66.10073 
L 122.818186 65.221629 
L 125.826044 59.936328 
L 128.833901 62.027824 
L 134.849616 62.208272 
L 137.857474 63.169481 
L 140.865331 67.100917 
L 143.873189 63.201595 
L 146.881046 66.318603 
L 152.896761 63.628635 
L 155.904619 66.351493 
L 158.912476 67.916066 
L 161.920333 72.925075 
L 164.928191 65.654946 
L 167.936048 66.02456 
L 170.943906 65.294217 
L 173.951763 67.475927 
L 176.959621 68.000679 
L 179.967478 72.657008 
L 182.975336 69.571555 
L 185.983193 73.579345 
L 188.991051 68.513793 
L 191.998908 69.154623 
L 195.006766 72.751718 
L 198.014623 69.655817 
L 201.022481 72.393435 
L 204.030338 70.444464 
L 207.038196 70.213296 
L 210.046053 69.833291 
L 213.05391 73.873524 
L 216.061768 71.089093 
L 219.069625 71.56548 
L 222.077483 69.77104 
L 225.08534 70.927352 
L 228.093198 71.788026 
L 234.108913 71.702895 
L 237.11677 73.155762 
L 240.124628 70.787786 
L 243.132485 75.078886 
L 246.140343 71.118342 
L 249.1482 73.048501 
L 252.156058 74.546688 
L 255.163915 73.434913 
L 258.171772 72.890633 
L 261.17963 73.480027 
L 264.187487 73.651564 
L 267.195345 74.059135 
L 270.203202 75.344327 
L 273.21106 77.067844 
L 276.218917 71.344869 
L 279.226775 77.377549 
L 282.234632 72.760854 
L 285.24249 75.030663 
L 288.250347 74.198672 
L 291.258205 72.775681 
L 294.266062 75.286274 
L 297.27392 74.44256 
L 300.281777 76.094976 
L 303.289635 76.625017 
L 306.297492 76.314759 
L 309.305349 73.354368 
L 312.313207 73.79576 
L 315.321064 73.008758 
L 318.328922 74.16738 
L 321.336779 75.526002 
L 324.344637 78.868642 
L 327.352494 73.043266 
L 330.360352 75.680365 
L 333.368209 76.525684 
L 336.376067 78.665547 
L 339.383924 74.675002 
L 342.391782 76.208592 
L 345.399639 74.198042 
L 348.407497 75.188009 
L 351.415354 76.636273 
L 354.423212 75.458007 
L 357.431069 76.684964 
L 360.438926 76.058217 
L 363.446784 75.891099 
L 366.454641 74.217257 
L 369.462499 76.062665 
L 372.470356 75.009874 
L 375.478214 76.136806 
L 378.486071 75.646161 
L 381.493929 78.035238 
L 384.501786 77.420401 
L 387.509644 77.632005 
L 390.517501 76.701108 
L 393.525359 77.031032 
L 396.533216 76.833286 
L 399.541074 75.046335 
L 402.548931 76.990641 
L 405.556788 76.83019 
L 408.564646 76.197256 
L 411.572503 76.731112 
L 414.580361 76.788752 
L 417.588218 75.9294 
L 420.596076 75.770513 
L 423.603933 76.483721 
L 426.611791 77.402738 
L 429.619648 79.20194 
L 432.627506 77.440602 
L 435.635363 77.151372 
L 438.643221 75.832678 
L 441.651078 77.113621 
L 444.658936 77.580962 
L 447.666793 79.296719 
L 450.674651 76.709924 
L 453.682508 78.383539 
L 456.690365 77.341149 
L 459.698223 79.51737 
L 462.70608 77.787603 
L 465.713938 77.42664 
L 468.721795 78.096717 
L 471.729653 78.918585 
L 474.73751 77.715728 
L 477.745368 77.793512 
L 480.753225 78.56788 
L 483.761083 77.272813 
L 486.76894 77.009345 
L 489.776798 79.609363 
L 492.784655 77.875423 
L 495.792513 76.801898 
L 498.80037 79.285816 
L 501.808228 79.005612 
L 504.816085 77.138962 
L 507.823942 81.588457 
L 510.8318 78.813127 
L 513.839657 78.534105 
L 516.847515 77.933225 
L 519.855372 78.232435 
L 522.86323 78.805054 
L 528.878945 77.909768 
L 531.886802 77.983871 
L 534.89466 77.04083 
L 537.902517 78.26061 
L 540.910375 78.265874 
L 543.918232 79.721574 
L 546.92609 78.21089 
L 549.933947 79.062394 
L 552.941804 77.598426 
L 555.949662 80.302098 
L 558.957519 78.179667 
L 561.965377 77.791248 
L 564.973234 78.108463 
L 567.981092 79.204199 
L 570.988949 82.149863 
L 573.996807 79.027352 
L 577.004664 78.333837 
L 583.020379 79.482292 
L 586.028237 78.724007 
L 592.043952 79.023645 
L 595.051809 77.710143 
L 598.059667 79.624308 
L 601.067524 78.778098 
L 604.075381 79.944995 
L 607.083239 79.328804 
L 610.091096 80.031072 
L 613.098954 80.047997 
L 616.106811 78.680129 
L 619.114669 79.646168 
L 622.122526 78.979827 
L 625.130384 79.318326 
L 628.138241 78.865466 
L 631.146099 78.596436 
L 634.153956 81.621951 
L 637.161814 82.407925 
L 640.169671 79.356722 
L 643.177529 79.389997 
L 646.185386 81.136952 
L 652.201101 79.128586 
L 655.208958 80.964975 
L 658.216816 80.795496 
L 661.224673 78.487343 
L 664.232531 79.27322 
L 667.240388 79.481702 
L 670.248246 78.620755 
L 673.256103 80.056036 
L 676.263961 78.136072 
L 679.271818 80.442835 
L 679.271818 80.442835 
" style="fill:none;stroke:#9467bd;stroke-linecap:square;stroke-width:2;"/>
   </g>
   <g id="line2d_38">
    <path clip-path="url(#p88e328013f)" d="M 81.791241 433 
L 83.716039 119.463785 
L 86.723897 53.724358 
L 89.731754 44.682928 
L 92.739612 48.101714 
L 95.747469 54.506375 
L 98.755327 74.454524 
L 101.763184 82.466079 
L 104.771042 84.06712 
L 107.778899 89.433566 
L 110.786757 100.576235 
L 113.794614 101.533642 
L 116.802471 101.762977 
L 119.810329 110.290279 
L 122.818186 114.855362 
L 125.826044 113.86391 
L 128.833901 113.723999 
L 131.841759 117.963663 
L 134.849616 120.592764 
L 137.857474 118.27149 
L 140.865331 114.294049 
L 143.873189 121.289468 
L 146.881046 130.555114 
L 149.888904 125.504781 
L 152.896761 122.256823 
L 155.904619 124.649747 
L 158.912476 125.663854 
L 161.920333 124.737558 
L 164.928191 127.300059 
L 167.936048 126.703613 
L 170.943906 132.311844 
L 173.951763 133.235752 
L 176.959621 133.195687 
L 179.967478 130.836581 
L 182.975336 129.380729 
L 185.983193 129.267452 
L 188.991051 128.873046 
L 191.998908 135.041411 
L 195.006766 126.605384 
L 198.014623 128.036833 
L 201.022481 127.82387 
L 204.030338 131.565865 
L 207.038196 134.671306 
L 210.046053 133.598163 
L 213.05391 134.539182 
L 216.061768 137.091231 
L 219.069625 130.375966 
L 222.077483 133.844239 
L 225.08534 135.007145 
L 228.093198 129.694739 
L 231.101055 135.124752 
L 234.108913 136.362687 
L 237.11677 138.537798 
L 240.124628 133.435648 
L 243.132485 134.483471 
L 246.140343 136.149487 
L 249.1482 136.872591 
L 252.156058 131.981001 
L 255.163915 138.379884 
L 258.171772 138.985255 
L 261.17963 137.355173 
L 264.187487 137.907563 
L 267.195345 132.211082 
L 270.203202 136.313356 
L 273.21106 136.630125 
L 276.218917 132.858828 
L 279.226775 134.495043 
L 282.234632 137.113098 
L 285.24249 137.541212 
L 288.250347 141.893482 
L 291.258205 133.670606 
L 294.266062 141.427402 
L 297.27392 136.590238 
L 300.281777 135.51072 
L 303.289635 140.192392 
L 306.297492 139.625367 
L 309.305349 141.849643 
L 312.313207 141.362576 
L 315.321064 139.054358 
L 318.328922 135.98053 
L 321.336779 138.413113 
L 324.344637 141.843393 
L 327.352494 139.195024 
L 330.360352 138.22042 
L 333.368209 142.381319 
L 336.376067 140.644903 
L 339.383924 137.893582 
L 342.391782 136.076762 
L 345.399639 143.137442 
L 348.407497 139.553902 
L 351.415354 144.118566 
L 354.423212 138.035445 
L 357.431069 140.532264 
L 360.438926 139.761971 
L 363.446784 137.685632 
L 366.454641 141.147106 
L 369.462499 142.48678 
L 372.470356 145.322462 
L 375.478214 142.154768 
L 378.486071 142.379076 
L 381.493929 136.322131 
L 384.501786 136.240184 
L 387.509644 139.410551 
L 390.517501 140.383816 
L 393.525359 144.954867 
L 399.541074 139.872274 
L 402.548931 142.626685 
L 405.556788 139.194242 
L 408.564646 138.548423 
L 411.572503 137.273733 
L 414.580361 138.674652 
L 417.588218 138.521066 
L 420.596076 141.464859 
L 423.603933 144.597726 
L 426.611791 140.853252 
L 429.619648 138.423715 
L 432.627506 143.074103 
L 435.635363 145.191973 
L 438.643221 143.47997 
L 441.651078 142.793178 
L 444.658936 141.595518 
L 447.666793 142.276548 
L 450.674651 143.250114 
L 453.682508 139.958339 
L 456.690365 141.061716 
L 459.698223 142.39244 
L 462.70608 143.320009 
L 465.713938 138.877462 
L 468.721795 139.578505 
L 471.729653 141.044328 
L 474.73751 141.230869 
L 477.745368 143.844078 
L 480.753225 142.358379 
L 483.761083 143.977029 
L 486.76894 140.918151 
L 489.776798 142.60935 
L 492.784655 142.159839 
L 495.792513 143.669534 
L 498.80037 145.575423 
L 501.808228 138.912061 
L 504.816085 141.332508 
L 507.823942 141.007143 
L 510.8318 143.132498 
L 513.839657 140.372577 
L 516.847515 141.335418 
L 519.855372 144.832043 
L 522.86323 140.525792 
L 525.871087 143.660127 
L 528.878945 139.915551 
L 531.886802 142.39789 
L 534.89466 146.240371 
L 537.902517 144.31422 
L 540.910375 146.555976 
L 543.918232 142.996217 
L 546.92609 140.411105 
L 549.933947 138.276588 
L 552.941804 141.968226 
L 555.949662 141.083364 
L 558.957519 144.342549 
L 561.965377 144.472862 
L 564.973234 144.086369 
L 567.981092 142.222765 
L 570.988949 141.467781 
L 573.996807 142.134373 
L 577.004664 145.493718 
L 580.012522 141.605285 
L 583.020379 142.359888 
L 586.028237 143.689875 
L 589.036094 144.568765 
L 592.043952 141.941165 
L 595.051809 142.598241 
L 598.059667 145.489176 
L 601.067524 141.316279 
L 604.075381 147.062527 
L 607.083239 144.526679 
L 610.091096 140.475668 
L 613.098954 144.139669 
L 616.106811 143.760112 
L 619.114669 140.883291 
L 622.122526 142.97598 
L 625.130384 147.46278 
L 628.138241 145.989403 
L 634.153956 141.527143 
L 637.161814 145.578067 
L 640.169671 147.380501 
L 643.177529 146.071199 
L 646.185386 140.710141 
L 649.193243 143.04585 
L 652.201101 145.054452 
L 655.208958 148.090367 
L 658.216816 146.272403 
L 661.224673 142.902274 
L 664.232531 143.636943 
L 667.240388 142.414916 
L 670.248246 144.659155 
L 673.256103 142.211849 
L 676.263961 143.322537 
L 679.271818 142.485975 
L 679.271818 142.485975 
" style="fill:none;stroke:#8c564b;stroke-linecap:square;stroke-width:2;"/>
   </g>
   <g id="patch_3">
    <path d="M 50.78 385.72 
L 50.78 29.76 
" style="fill:none;stroke:#000000;stroke-linecap:square;stroke-linejoin:miter;stroke-width:0.8;"/>
   </g>
   <g id="patch_4">
    <path d="M 709.2 385.72 
L 709.2 29.76 
" style="fill:none;stroke:#000000;stroke-linecap:square;stroke-linejoin:miter;stroke-width:0.8;"/>
   </g>
   <g id="patch_5">
    <path d="M 50.78 385.72 
L 709.2 385.72 
" style="fill:none;stroke:#000000;stroke-linecap:square;stroke-linejoin:miter;stroke-width:0.8;"/>
   </g>
   <g id="patch_6">
    <path d="M 50.78 29.76 
L 709.2 29.76 
" style="fill:none;stroke:#000000;stroke-linecap:square;stroke-linejoin:miter;stroke-width:0.8;"/>
   </g>
   <g id="text_19">
    <!-- PSNR vs Epochs for transfer masks -->
    <defs>
     <path id="DejaVuSans-32"/>
     <path d="M 2.984375 54.6875 
L 12.5 54.6875 
L 29.59375 8.796875 
L 46.6875 54.6875 
L 56.203125 54.6875 
L 35.6875 0 
L 23.484375 0 
z
" id="DejaVuSans-118"/>
     <path d="M 44.28125 53.078125 
L 44.28125 44.578125 
Q 40.484375 46.53125 36.375 47.5 
Q 32.28125 48.484375 27.875 48.484375 
Q 21.1875 48.484375 17.84375 46.4375 
Q 14.5 44.390625 14.5 40.28125 
Q 14.5 37.15625 16.890625 35.375 
Q 19.28125 33.59375 26.515625 31.984375 
L 29.59375 31.296875 
Q 39.15625 29.25 43.1875 25.515625 
Q 47.21875 21.78125 47.21875 15.09375 
Q 47.21875 7.46875 41.1875 3.015625 
Q 35.15625 -1.421875 24.609375 -1.421875 
Q 20.21875 -1.421875 15.453125 -0.5625 
Q 10.6875 0.296875 5.421875 2 
L 5.421875 11.28125 
Q 10.40625 8.6875 15.234375 7.390625 
Q 20.0625 6.109375 24.8125 6.109375 
Q 31.15625 6.109375 34.5625 8.28125 
Q 37.984375 10.453125 37.984375 14.40625 
Q 37.984375 18.0625 35.515625 20.015625 
Q 33.0625 21.96875 24.703125 23.78125 
L 21.578125 24.515625 
Q 13.234375 26.265625 9.515625 29.90625 
Q 5.8125 33.546875 5.8125 39.890625 
Q 5.8125 47.609375 11.28125 51.796875 
Q 16.75 56 26.8125 56 
Q 31.78125 56 36.171875 55.265625 
Q 40.578125 54.546875 44.28125 53.078125 
z
" id="DejaVuSans-115"/>
     <path d="M 37.109375 75.984375 
L 37.109375 68.5 
L 28.515625 68.5 
Q 23.6875 68.5 21.796875 66.546875 
Q 19.921875 64.59375 19.921875 59.515625 
L 19.921875 54.6875 
L 34.71875 54.6875 
L 34.71875 47.703125 
L 19.921875 47.703125 
L 19.921875 0 
L 10.890625 0 
L 10.890625 47.703125 
L 2.296875 47.703125 
L 2.296875 54.6875 
L 10.890625 54.6875 
L 10.890625 58.5 
Q 10.890625 67.625 15.140625 71.796875 
Q 19.390625 75.984375 28.609375 75.984375 
z
" id="DejaVuSans-102"/>
     <path d="M 41.109375 46.296875 
Q 39.59375 47.171875 37.8125 47.578125 
Q 36.03125 48 33.890625 48 
Q 26.265625 48 22.1875 43.046875 
Q 18.109375 38.09375 18.109375 28.8125 
L 18.109375 0 
L 9.078125 0 
L 9.078125 54.6875 
L 18.109375 54.6875 
L 18.109375 46.1875 
Q 20.953125 51.171875 25.484375 53.578125 
Q 30.03125 56 36.53125 56 
Q 37.453125 56 38.578125 55.875 
Q 39.703125 55.765625 41.0625 55.515625 
z
" id="DejaVuSans-114"/>
     <path d="M 18.3125 70.21875 
L 18.3125 54.6875 
L 36.8125 54.6875 
L 36.8125 47.703125 
L 18.3125 47.703125 
L 18.3125 18.015625 
Q 18.3125 11.328125 20.140625 9.421875 
Q 21.96875 7.515625 27.59375 7.515625 
L 36.8125 7.515625 
L 36.8125 0 
L 27.59375 0 
Q 17.1875 0 13.234375 3.875 
Q 9.28125 7.765625 9.28125 18.015625 
L 9.28125 47.703125 
L 2.6875 47.703125 
L 2.6875 54.6875 
L 9.28125 54.6875 
L 9.28125 70.21875 
z
" id="DejaVuSans-116"/>
     <path d="M 34.28125 27.484375 
Q 23.390625 27.484375 19.1875 25 
Q 14.984375 22.515625 14.984375 16.5 
Q 14.984375 11.71875 18.140625 8.90625 
Q 21.296875 6.109375 26.703125 6.109375 
Q 34.1875 6.109375 38.703125 11.40625 
Q 43.21875 16.703125 43.21875 25.484375 
L 43.21875 27.484375 
z
M 52.203125 31.203125 
L 52.203125 0 
L 43.21875 0 
L 43.21875 8.296875 
Q 40.140625 3.328125 35.546875 0.953125 
Q 30.953125 -1.421875 24.3125 -1.421875 
Q 15.921875 -1.421875 10.953125 3.296875 
Q 6 8.015625 6 15.921875 
Q 6 25.140625 12.171875 29.828125 
Q 18.359375 34.515625 30.609375 34.515625 
L 43.21875 34.515625 
L 43.21875 35.40625 
Q 43.21875 41.609375 39.140625 45 
Q 35.0625 48.390625 27.6875 48.390625 
Q 23 48.390625 18.546875 47.265625 
Q 14.109375 46.140625 10.015625 43.890625 
L 10.015625 52.203125 
Q 14.9375 54.109375 19.578125 55.046875 
Q 24.21875 56 28.609375 56 
Q 40.484375 56 46.34375 49.84375 
Q 52.203125 43.703125 52.203125 31.203125 
z
" id="DejaVuSans-97"/>
     <path d="M 54.890625 33.015625 
L 54.890625 0 
L 45.90625 0 
L 45.90625 32.71875 
Q 45.90625 40.484375 42.875 44.328125 
Q 39.84375 48.1875 33.796875 48.1875 
Q 26.515625 48.1875 22.3125 43.546875 
Q 18.109375 38.921875 18.109375 30.90625 
L 18.109375 0 
L 9.078125 0 
L 9.078125 54.6875 
L 18.109375 54.6875 
L 18.109375 46.1875 
Q 21.34375 51.125 25.703125 53.5625 
Q 30.078125 56 35.796875 56 
Q 45.21875 56 50.046875 50.171875 
Q 54.890625 44.34375 54.890625 33.015625 
z
" id="DejaVuSans-110"/>
     <path d="M 56.203125 29.59375 
L 56.203125 25.203125 
L 14.890625 25.203125 
Q 15.484375 15.921875 20.484375 11.0625 
Q 25.484375 6.203125 34.421875 6.203125 
Q 39.59375 6.203125 44.453125 7.46875 
Q 49.3125 8.734375 54.109375 11.28125 
L 54.109375 2.78125 
Q 49.265625 0.734375 44.1875 -0.34375 
Q 39.109375 -1.421875 33.890625 -1.421875 
Q 20.796875 -1.421875 13.15625 6.1875 
Q 5.515625 13.8125 5.515625 26.8125 
Q 5.515625 40.234375 12.765625 48.109375 
Q 20.015625 56 32.328125 56 
Q 43.359375 56 49.78125 48.890625 
Q 56.203125 41.796875 56.203125 29.59375 
z
M 47.21875 32.234375 
Q 47.125 39.59375 43.09375 43.984375 
Q 39.0625 48.390625 32.421875 48.390625 
Q 24.90625 48.390625 20.390625 44.140625 
Q 15.875 39.890625 15.1875 32.171875 
z
" id="DejaVuSans-101"/>
     <path d="M 52 44.1875 
Q 55.375 50.25 60.0625 53.125 
Q 64.75 56 71.09375 56 
Q 79.640625 56 84.28125 50.015625 
Q 88.921875 44.046875 88.921875 33.015625 
L 88.921875 0 
L 79.890625 0 
L 79.890625 32.71875 
Q 79.890625 40.578125 77.09375 44.375 
Q 74.3125 48.1875 68.609375 48.1875 
Q 61.625 48.1875 57.5625 43.546875 
Q 53.515625 38.921875 53.515625 30.90625 
L 53.515625 0 
L 44.484375 0 
L 44.484375 32.71875 
Q 44.484375 40.625 41.703125 44.40625 
Q 38.921875 48.1875 33.109375 48.1875 
Q 26.21875 48.1875 22.15625 43.53125 
Q 18.109375 38.875 18.109375 30.90625 
L 18.109375 0 
L 9.078125 0 
L 9.078125 54.6875 
L 18.109375 54.6875 
L 18.109375 46.1875 
Q 21.1875 51.21875 25.484375 53.609375 
Q 29.78125 56 35.6875 56 
Q 41.65625 56 45.828125 52.96875 
Q 50 49.953125 52 44.1875 
z
" id="DejaVuSans-109"/>
     <path d="M 9.078125 75.984375 
L 18.109375 75.984375 
L 18.109375 31.109375 
L 44.921875 54.6875 
L 56.390625 54.6875 
L 27.390625 29.109375 
L 57.625 0 
L 45.90625 0 
L 18.109375 26.703125 
L 18.109375 0 
L 9.078125 0 
z
" id="DejaVuSans-107"/>
    </defs>
    <g transform="translate(240.00875 23.76)scale(0.16 -0.16)">
     <use xlink:href="#DejaVuSans-80"/>
     <use x="60.302734" xlink:href="#DejaVuSans-83"/>
     <use x="123.779297" xlink:href="#DejaVuSans-78"/>
     <use x="198.583984" xlink:href="#DejaVuSans-82"/>
     <use x="268.066406" xlink:href="#DejaVuSans-32"/>
     <use x="299.853516" xlink:href="#DejaVuSans-118"/>
     <use x="359.033203" xlink:href="#DejaVuSans-115"/>
     <use x="411.132812" xlink:href="#DejaVuSans-32"/>
     <use x="442.919922" xlink:href="#DejaVuSans-69"/>
     <use x="506.103516" xlink:href="#DejaVuSans-112"/>
     <use x="569.580078" xlink:href="#DejaVuSans-111"/>
     <use x="630.761719" xlink:href="#DejaVuSans-99"/>
     <use x="685.742188" xlink:href="#DejaVuSans-104"/>
     <use x="749.121094" xlink:href="#DejaVuSans-115"/>
     <use x="801.220703" xlink:href="#DejaVuSans-32"/>
     <use x="833.007812" xlink:href="#DejaVuSans-102"/>
     <use x="868.212891" xlink:href="#DejaVuSans-111"/>
     <use x="929.394531" xlink:href="#DejaVuSans-114"/>
     <use x="970.507812" xlink:href="#DejaVuSans-32"/>
     <use x="1002.294922" xlink:href="#DejaVuSans-116"/>
     <use x="1041.503906" xlink:href="#DejaVuSans-114"/>
     <use x="1082.617188" xlink:href="#DejaVuSans-97"/>
     <use x="1143.896484" xlink:href="#DejaVuSans-110"/>
     <use x="1207.275391" xlink:href="#DejaVuSans-115"/>
     <use x="1259.375" xlink:href="#DejaVuSans-102"/>
     <use x="1294.580078" xlink:href="#DejaVuSans-101"/>
     <use x="1356.103516" xlink:href="#DejaVuSans-114"/>
     <use x="1397.216797" xlink:href="#DejaVuSans-32"/>
     <use x="1429.003906" xlink:href="#DejaVuSans-109"/>
     <use x="1526.416016" xlink:href="#DejaVuSans-97"/>
     <use x="1587.695312" xlink:href="#DejaVuSans-115"/>
     <use x="1639.794922" xlink:href="#DejaVuSans-107"/>
     <use x="1697.705078" xlink:href="#DejaVuSans-115"/>
    </g>
   </g>
   <g id="legend_1">
    <g id="patch_7">
     <path d="M 503.634375 379.72 
L 700.8 379.72 
Q 703.2 379.72 703.2 377.32 
L 703.2 272.8375 
Q 703.2 270.4375 700.8 270.4375 
L 503.634375 270.4375 
Q 501.234375 270.4375 501.234375 272.8375 
L 501.234375 377.32 
Q 501.234375 379.72 503.634375 379.72 
z
" style="fill:#ffffff;opacity:0.8;stroke:#cccccc;stroke-linejoin:miter;"/>
    </g>
    <g id="line2d_39">
     <path d="M 506.034375 280.155625 
L 530.034375 280.155625 
" style="fill:none;stroke:#1f77b4;stroke-linecap:square;stroke-width:2;"/>
    </g>
    <g id="line2d_40"/>
    <g id="text_20">
     <!-- OES-mask (inter-dataset) -->
     <defs>
      <path d="M 39.40625 66.21875 
Q 28.65625 66.21875 22.328125 58.203125 
Q 16.015625 50.203125 16.015625 36.375 
Q 16.015625 22.609375 22.328125 14.59375 
Q 28.65625 6.59375 39.40625 6.59375 
Q 50.140625 6.59375 56.421875 14.59375 
Q 62.703125 22.609375 62.703125 36.375 
Q 62.703125 50.203125 56.421875 58.203125 
Q 50.140625 66.21875 39.40625 66.21875 
z
M 39.40625 74.21875 
Q 54.734375 74.21875 63.90625 63.9375 
Q 73.09375 53.65625 73.09375 36.375 
Q 73.09375 19.140625 63.90625 8.859375 
Q 54.734375 -1.421875 39.40625 -1.421875 
Q 24.03125 -1.421875 14.8125 8.828125 
Q 5.609375 19.09375 5.609375 36.375 
Q 5.609375 53.65625 14.8125 63.9375 
Q 24.03125 74.21875 39.40625 74.21875 
z
" id="DejaVuSans-79"/>
      <path d="M 4.890625 31.390625 
L 31.203125 31.390625 
L 31.203125 23.390625 
L 4.890625 23.390625 
z
" id="DejaVuSans-45"/>
      <path d="M 31 75.875 
Q 24.46875 64.65625 21.28125 53.65625 
Q 18.109375 42.671875 18.109375 31.390625 
Q 18.109375 20.125 21.3125 9.0625 
Q 24.515625 -2 31 -13.1875 
L 23.1875 -13.1875 
Q 15.875 -1.703125 12.234375 9.375 
Q 8.59375 20.453125 8.59375 31.390625 
Q 8.59375 42.28125 12.203125 53.3125 
Q 15.828125 64.359375 23.1875 75.875 
z
" id="DejaVuSans-40"/>
      <path d="M 9.421875 54.6875 
L 18.40625 54.6875 
L 18.40625 0 
L 9.421875 0 
z
M 9.421875 75.984375 
L 18.40625 75.984375 
L 18.40625 64.59375 
L 9.421875 64.59375 
z
" id="DejaVuSans-105"/>
      <path d="M 45.40625 46.390625 
L 45.40625 75.984375 
L 54.390625 75.984375 
L 54.390625 0 
L 45.40625 0 
L 45.40625 8.203125 
Q 42.578125 3.328125 38.25 0.953125 
Q 33.9375 -1.421875 27.875 -1.421875 
Q 17.96875 -1.421875 11.734375 6.484375 
Q 5.515625 14.40625 5.515625 27.296875 
Q 5.515625 40.1875 11.734375 48.09375 
Q 17.96875 56 27.875 56 
Q 33.9375 56 38.25 53.625 
Q 42.578125 51.265625 45.40625 46.390625 
z
M 14.796875 27.296875 
Q 14.796875 17.390625 18.875 11.75 
Q 22.953125 6.109375 30.078125 6.109375 
Q 37.203125 6.109375 41.296875 11.75 
Q 45.40625 17.390625 45.40625 27.296875 
Q 45.40625 37.203125 41.296875 42.84375 
Q 37.203125 48.484375 30.078125 48.484375 
Q 22.953125 48.484375 18.875 42.84375 
Q 14.796875 37.203125 14.796875 27.296875 
z
" id="DejaVuSans-100"/>
      <path d="M 8.015625 75.875 
L 15.828125 75.875 
Q 23.140625 64.359375 26.78125 53.3125 
Q 30.421875 42.28125 30.421875 31.390625 
Q 30.421875 20.453125 26.78125 9.375 
Q 23.140625 -1.703125 15.828125 -13.1875 
L 8.015625 -13.1875 
Q 14.5 -2 17.703125 9.0625 
Q 20.90625 20.125 20.90625 31.390625 
Q 20.90625 42.671875 17.703125 53.65625 
Q 14.5 64.65625 8.015625 75.875 
z
" id="DejaVuSans-41"/>
     </defs>
     <g transform="translate(539.634375 284.355625)scale(0.12 -0.12)">
      <use xlink:href="#DejaVuSans-79"/>
      <use x="78.710938" xlink:href="#DejaVuSans-69"/>
      <use x="141.894531" xlink:href="#DejaVuSans-83"/>
      <use x="205.371094" xlink:href="#DejaVuSans-45"/>
      <use x="241.455078" xlink:href="#DejaVuSans-109"/>
      <use x="338.867188" xlink:href="#DejaVuSans-97"/>
      <use x="400.146484" xlink:href="#DejaVuSans-115"/>
      <use x="452.246094" xlink:href="#DejaVuSans-107"/>
      <use x="510.15625" xlink:href="#DejaVuSans-32"/>
      <use x="541.943359" xlink:href="#DejaVuSans-40"/>
      <use x="580.957031" xlink:href="#DejaVuSans-105"/>
      <use x="608.740234" xlink:href="#DejaVuSans-110"/>
      <use x="672.119141" xlink:href="#DejaVuSans-116"/>
      <use x="711.328125" xlink:href="#DejaVuSans-101"/>
      <use x="772.851562" xlink:href="#DejaVuSans-114"/>
      <use x="813.871094" xlink:href="#DejaVuSans-45"/>
      <use x="849.955078" xlink:href="#DejaVuSans-100"/>
      <use x="913.431641" xlink:href="#DejaVuSans-97"/>
      <use x="974.710938" xlink:href="#DejaVuSans-116"/>
      <use x="1013.919922" xlink:href="#DejaVuSans-97"/>
      <use x="1075.199219" xlink:href="#DejaVuSans-115"/>
      <use x="1127.298828" xlink:href="#DejaVuSans-101"/>
      <use x="1188.822266" xlink:href="#DejaVuSans-116"/>
      <use x="1228.03125" xlink:href="#DejaVuSans-41"/>
     </g>
    </g>
    <g id="line2d_41">
     <path d="M 506.034375 297.769375 
L 530.034375 297.769375 
" style="fill:none;stroke:#ff7f0e;stroke-linecap:square;stroke-width:2;"/>
    </g>
    <g id="line2d_42"/>
    <g id="text_21">
     <!-- IMP-mask (inter-dataset) -->
     <defs>
      <path d="M 9.8125 72.90625 
L 19.671875 72.90625 
L 19.671875 0 
L 9.8125 0 
z
" id="DejaVuSans-73"/>
      <path d="M 9.8125 72.90625 
L 24.515625 72.90625 
L 43.109375 23.296875 
L 61.8125 72.90625 
L 76.515625 72.90625 
L 76.515625 0 
L 66.890625 0 
L 66.890625 64.015625 
L 48.09375 14.015625 
L 38.1875 14.015625 
L 19.390625 64.015625 
L 19.390625 0 
L 9.8125 0 
z
" id="DejaVuSans-77"/>
     </defs>
     <g transform="translate(539.634375 301.969375)scale(0.12 -0.12)">
      <use xlink:href="#DejaVuSans-73"/>
      <use x="29.492188" xlink:href="#DejaVuSans-77"/>
      <use x="115.771484" xlink:href="#DejaVuSans-80"/>
      <use x="176.042969" xlink:href="#DejaVuSans-45"/>
      <use x="212.126953" xlink:href="#DejaVuSans-109"/>
      <use x="309.539062" xlink:href="#DejaVuSans-97"/>
      <use x="370.818359" xlink:href="#DejaVuSans-115"/>
      <use x="422.917969" xlink:href="#DejaVuSans-107"/>
      <use x="480.828125" xlink:href="#DejaVuSans-32"/>
      <use x="512.615234" xlink:href="#DejaVuSans-40"/>
      <use x="551.628906" xlink:href="#DejaVuSans-105"/>
      <use x="579.412109" xlink:href="#DejaVuSans-110"/>
      <use x="642.791016" xlink:href="#DejaVuSans-116"/>
      <use x="682" xlink:href="#DejaVuSans-101"/>
      <use x="743.523438" xlink:href="#DejaVuSans-114"/>
      <use x="784.542969" xlink:href="#DejaVuSans-45"/>
      <use x="820.626953" xlink:href="#DejaVuSans-100"/>
      <use x="884.103516" xlink:href="#DejaVuSans-97"/>
      <use x="945.382812" xlink:href="#DejaVuSans-116"/>
      <use x="984.591797" xlink:href="#DejaVuSans-97"/>
      <use x="1045.871094" xlink:href="#DejaVuSans-115"/>
      <use x="1097.970703" xlink:href="#DejaVuSans-101"/>
      <use x="1159.494141" xlink:href="#DejaVuSans-116"/>
      <use x="1198.703125" xlink:href="#DejaVuSans-41"/>
     </g>
    </g>
    <g id="line2d_43">
     <path d="M 506.034375 315.383125 
L 530.034375 315.383125 
" style="fill:none;stroke:#2ca02c;stroke-linecap:square;stroke-width:2;"/>
    </g>
    <g id="line2d_44"/>
    <g id="text_22">
     <!-- OES-mask-self -->
     <defs>
      <path d="M 9.421875 75.984375 
L 18.40625 75.984375 
L 18.40625 0 
L 9.421875 0 
z
" id="DejaVuSans-108"/>
     </defs>
     <g transform="translate(539.634375 319.583125)scale(0.12 -0.12)">
      <use xlink:href="#DejaVuSans-79"/>
      <use x="78.710938" xlink:href="#DejaVuSans-69"/>
      <use x="141.894531" xlink:href="#DejaVuSans-83"/>
      <use x="205.371094" xlink:href="#DejaVuSans-45"/>
      <use x="241.455078" xlink:href="#DejaVuSans-109"/>
      <use x="338.867188" xlink:href="#DejaVuSans-97"/>
      <use x="400.146484" xlink:href="#DejaVuSans-115"/>
      <use x="452.246094" xlink:href="#DejaVuSans-107"/>
      <use x="510.15625" xlink:href="#DejaVuSans-45"/>
      <use x="546.240234" xlink:href="#DejaVuSans-115"/>
      <use x="598.339844" xlink:href="#DejaVuSans-101"/>
      <use x="659.863281" xlink:href="#DejaVuSans-108"/>
      <use x="687.646484" xlink:href="#DejaVuSans-102"/>
     </g>
    </g>
    <g id="line2d_45">
     <path d="M 506.034375 332.996875 
L 530.034375 332.996875 
" style="fill:none;stroke:#d62728;stroke-linecap:square;stroke-width:2;"/>
    </g>
    <g id="line2d_46"/>
    <g id="text_23">
     <!-- IMP-mask-self -->
     <g transform="translate(539.634375 337.196875)scale(0.12 -0.12)">
      <use xlink:href="#DejaVuSans-73"/>
      <use x="29.492188" xlink:href="#DejaVuSans-77"/>
      <use x="115.771484" xlink:href="#DejaVuSans-80"/>
      <use x="176.042969" xlink:href="#DejaVuSans-45"/>
      <use x="212.126953" xlink:href="#DejaVuSans-109"/>
      <use x="309.539062" xlink:href="#DejaVuSans-97"/>
      <use x="370.818359" xlink:href="#DejaVuSans-115"/>
      <use x="422.917969" xlink:href="#DejaVuSans-107"/>
      <use x="480.828125" xlink:href="#DejaVuSans-45"/>
      <use x="516.912109" xlink:href="#DejaVuSans-115"/>
      <use x="569.011719" xlink:href="#DejaVuSans-101"/>
      <use x="630.535156" xlink:href="#DejaVuSans-108"/>
      <use x="658.318359" xlink:href="#DejaVuSans-102"/>
     </g>
    </g>
    <g id="line2d_47">
     <path d="M 506.034375 350.610625 
L 530.034375 350.610625 
" style="fill:none;stroke:#9467bd;stroke-linecap:square;stroke-width:2;"/>
    </g>
    <g id="line2d_48"/>
    <g id="text_24">
     <!-- OES-mask (cross dataset)  -->
     <g transform="translate(539.634375 354.810625)scale(0.12 -0.12)">
      <use xlink:href="#DejaVuSans-79"/>
      <use x="78.710938" xlink:href="#DejaVuSans-69"/>
      <use x="141.894531" xlink:href="#DejaVuSans-83"/>
      <use x="205.371094" xlink:href="#DejaVuSans-45"/>
      <use x="241.455078" xlink:href="#DejaVuSans-109"/>
      <use x="338.867188" xlink:href="#DejaVuSans-97"/>
      <use x="400.146484" xlink:href="#DejaVuSans-115"/>
      <use x="452.246094" xlink:href="#DejaVuSans-107"/>
      <use x="510.15625" xlink:href="#DejaVuSans-32"/>
      <use x="541.943359" xlink:href="#DejaVuSans-40"/>
      <use x="580.957031" xlink:href="#DejaVuSans-99"/>
      <use x="635.9375" xlink:href="#DejaVuSans-114"/>
      <use x="677.019531" xlink:href="#DejaVuSans-111"/>
      <use x="738.201172" xlink:href="#DejaVuSans-115"/>
      <use x="790.300781" xlink:href="#DejaVuSans-115"/>
      <use x="842.400391" xlink:href="#DejaVuSans-32"/>
      <use x="874.1875" xlink:href="#DejaVuSans-100"/>
      <use x="937.664062" xlink:href="#DejaVuSans-97"/>
      <use x="998.943359" xlink:href="#DejaVuSans-116"/>
      <use x="1038.152344" xlink:href="#DejaVuSans-97"/>
      <use x="1099.431641" xlink:href="#DejaVuSans-115"/>
      <use x="1151.53125" xlink:href="#DejaVuSans-101"/>
      <use x="1213.054688" xlink:href="#DejaVuSans-116"/>
      <use x="1252.263672" xlink:href="#DejaVuSans-41"/>
      <use x="1291.277344" xlink:href="#DejaVuSans-32"/>
     </g>
    </g>
    <g id="line2d_49">
     <path d="M 506.034375 368.224375 
L 530.034375 368.224375 
" style="fill:none;stroke:#8c564b;stroke-linecap:square;stroke-width:2;"/>
    </g>
    <g id="line2d_50"/>
    <g id="text_25">
     <!-- IMP-mask (cross dataset) -->
     <g transform="translate(539.634375 372.424375)scale(0.12 -0.12)">
      <use xlink:href="#DejaVuSans-73"/>
      <use x="29.492188" xlink:href="#DejaVuSans-77"/>
      <use x="115.771484" xlink:href="#DejaVuSans-80"/>
      <use x="176.042969" xlink:href="#DejaVuSans-45"/>
      <use x="212.126953" xlink:href="#DejaVuSans-109"/>
      <use x="309.539062" xlink:href="#DejaVuSans-97"/>
      <use x="370.818359" xlink:href="#DejaVuSans-115"/>
      <use x="422.917969" xlink:href="#DejaVuSans-107"/>
      <use x="480.828125" xlink:href="#DejaVuSans-32"/>
      <use x="512.615234" xlink:href="#DejaVuSans-40"/>
      <use x="551.628906" xlink:href="#DejaVuSans-99"/>
      <use x="606.609375" xlink:href="#DejaVuSans-114"/>
      <use x="647.691406" xlink:href="#DejaVuSans-111"/>
      <use x="708.873047" xlink:href="#DejaVuSans-115"/>
      <use x="760.972656" xlink:href="#DejaVuSans-115"/>
      <use x="813.072266" xlink:href="#DejaVuSans-32"/>
      <use x="844.859375" xlink:href="#DejaVuSans-100"/>
      <use x="908.335938" xlink:href="#DejaVuSans-97"/>
      <use x="969.615234" xlink:href="#DejaVuSans-116"/>
      <use x="1008.824219" xlink:href="#DejaVuSans-97"/>
      <use x="1070.103516" xlink:href="#DejaVuSans-115"/>
      <use x="1122.203125" xlink:href="#DejaVuSans-101"/>
      <use x="1183.726562" xlink:href="#DejaVuSans-116"/>
      <use x="1222.935547" xlink:href="#DejaVuSans-41"/>
     </g>
    </g>
   </g>
  </g>
 </g>
 <defs>
  <clipPath id="p88e328013f">
   <rect height="355.96" width="658.42" x="50.78" y="29.76"/>
  </clipPath>
 </defs>
</svg>
