<?xml version="1.0" encoding="utf-8" standalone="no"?>
<!DOCTYPE svg PUBLIC "-//W3C//DTD SVG 1.1//EN"
  "http://www.w3.org/Graphics/SVG/1.1/DTD/svg11.dtd">
<!-- Created with matplotlib (https://matplotlib.org/) -->
<svg height="432pt" version="1.1" viewBox="0 0 720 432" width="720pt" xmlns="http://www.w3.org/2000/svg" xmlns:xlink="http://www.w3.org/1999/xlink">
 <defs>
  <style type="text/css">
*{stroke-linecap:butt;stroke-linejoin:round;}
  </style>
 </defs>
 <g id="figure_1">
  <g id="patch_1">
   <path d="M 0 432 
L 720 432 
L 720 0 
L 0 0 
z
" style="fill:#ffffff;"/>
  </g>
  <g id="axes_1">
   <g id="patch_2">
    <path d="M 50.78 385.72 
L 709.2 385.72 
L 709.2 29.76 
L 50.78 29.76 
z
" style="fill:#ffffff;"/>
   </g>
   <g id="matplotlib.axis_1">
    <g id="xtick_1">
     <g id="line2d_1">
      <path clip-path="url(#p39a79e1d48)" d="M 80.708182 385.72 
L 80.708182 29.76 
" style="fill:none;stroke:#b0b0b0;stroke-linecap:square;stroke-width:0.8;"/>
     </g>
     <g id="line2d_2">
      <defs>
       <path d="M 0 0 
L 0 3.5 
" id="ma412e4812d" style="stroke:#000000;stroke-width:0.8;"/>
      </defs>
      <g>
       <use style="stroke:#000000;stroke-width:0.8;" x="80.708182" xlink:href="#ma412e4812d" y="385.72"/>
      </g>
     </g>
     <g id="text_1">
      <!-- 0 -->
      <defs>
       <path d="M 31.78125 66.40625 
Q 24.171875 66.40625 20.328125 58.90625 
Q 16.5 51.421875 16.5 36.375 
Q 16.5 21.390625 20.328125 13.890625 
Q 24.171875 6.390625 31.78125 6.390625 
Q 39.453125 6.390625 43.28125 13.890625 
Q 47.125 21.390625 47.125 36.375 
Q 47.125 51.421875 43.28125 58.90625 
Q 39.453125 66.40625 31.78125 66.40625 
z
M 31.78125 74.21875 
Q 44.046875 74.21875 50.515625 64.515625 
Q 56.984375 54.828125 56.984375 36.375 
Q 56.984375 17.96875 50.515625 8.265625 
Q 44.046875 -1.421875 31.78125 -1.421875 
Q 19.53125 -1.421875 13.0625 8.265625 
Q 6.59375 17.96875 6.59375 36.375 
Q 6.59375 54.828125 13.0625 64.515625 
Q 19.53125 74.21875 31.78125 74.21875 
z
" id="DejaVuSans-48"/>
      </defs>
      <g transform="translate(76.890682 401.838125)scale(0.12 -0.12)">
       <use xlink:href="#DejaVuSans-48"/>
      </g>
     </g>
    </g>
    <g id="xtick_2">
     <g id="line2d_3">
      <path clip-path="url(#p39a79e1d48)" d="M 155.904619 385.72 
L 155.904619 29.76 
" style="fill:none;stroke:#b0b0b0;stroke-linecap:square;stroke-width:0.8;"/>
     </g>
     <g id="line2d_4">
      <g>
       <use style="stroke:#000000;stroke-width:0.8;" x="155.904619" xlink:href="#ma412e4812d" y="385.72"/>
      </g>
     </g>
     <g id="text_2">
      <!-- 5000 -->
      <defs>
       <path d="M 10.796875 72.90625 
L 49.515625 72.90625 
L 49.515625 64.59375 
L 19.828125 64.59375 
L 19.828125 46.734375 
Q 21.96875 47.46875 24.109375 47.828125 
Q 26.265625 48.1875 28.421875 48.1875 
Q 40.625 48.1875 47.75 41.5 
Q 54.890625 34.8125 54.890625 23.390625 
Q 54.890625 11.625 47.5625 5.09375 
Q 40.234375 -1.421875 26.90625 -1.421875 
Q 22.3125 -1.421875 17.546875 -0.640625 
Q 12.796875 0.140625 7.71875 1.703125 
L 7.71875 11.625 
Q 12.109375 9.234375 16.796875 8.0625 
Q 21.484375 6.890625 26.703125 6.890625 
Q 35.15625 6.890625 40.078125 11.328125 
Q 45.015625 15.765625 45.015625 23.390625 
Q 45.015625 31 40.078125 35.4375 
Q 35.15625 39.890625 26.703125 39.890625 
Q 22.75 39.890625 18.8125 39.015625 
Q 14.890625 38.140625 10.796875 36.28125 
z
" id="DejaVuSans-53"/>
      </defs>
      <g transform="translate(140.634619 401.838125)scale(0.12 -0.12)">
       <use xlink:href="#DejaVuSans-53"/>
       <use x="63.623047" xlink:href="#DejaVuSans-48"/>
       <use x="127.246094" xlink:href="#DejaVuSans-48"/>
       <use x="190.869141" xlink:href="#DejaVuSans-48"/>
      </g>
     </g>
    </g>
    <g id="xtick_3">
     <g id="line2d_5">
      <path clip-path="url(#p39a79e1d48)" d="M 231.101055 385.72 
L 231.101055 29.76 
" style="fill:none;stroke:#b0b0b0;stroke-linecap:square;stroke-width:0.8;"/>
     </g>
     <g id="line2d_6">
      <g>
       <use style="stroke:#000000;stroke-width:0.8;" x="231.101055" xlink:href="#ma412e4812d" y="385.72"/>
      </g>
     </g>
     <g id="text_3">
      <!-- 10000 -->
      <defs>
       <path d="M 12.40625 8.296875 
L 28.515625 8.296875 
L 28.515625 63.921875 
L 10.984375 60.40625 
L 10.984375 69.390625 
L 28.421875 72.90625 
L 38.28125 72.90625 
L 38.28125 8.296875 
L 54.390625 8.296875 
L 54.390625 0 
L 12.40625 0 
z
" id="DejaVuSans-49"/>
      </defs>
      <g transform="translate(212.013555 401.838125)scale(0.12 -0.12)">
       <use xlink:href="#DejaVuSans-49"/>
       <use x="63.623047" xlink:href="#DejaVuSans-48"/>
       <use x="127.246094" xlink:href="#DejaVuSans-48"/>
       <use x="190.869141" xlink:href="#DejaVuSans-48"/>
       <use x="254.492188" xlink:href="#DejaVuSans-48"/>
      </g>
     </g>
    </g>
    <g id="xtick_4">
     <g id="line2d_7">
      <path clip-path="url(#p39a79e1d48)" d="M 306.297492 385.72 
L 306.297492 29.76 
" style="fill:none;stroke:#b0b0b0;stroke-linecap:square;stroke-width:0.8;"/>
     </g>
     <g id="line2d_8">
      <g>
       <use style="stroke:#000000;stroke-width:0.8;" x="306.297492" xlink:href="#ma412e4812d" y="385.72"/>
      </g>
     </g>
     <g id="text_4">
      <!-- 15000 -->
      <g transform="translate(287.209992 401.838125)scale(0.12 -0.12)">
       <use xlink:href="#DejaVuSans-49"/>
       <use x="63.623047" xlink:href="#DejaVuSans-53"/>
       <use x="127.246094" xlink:href="#DejaVuSans-48"/>
       <use x="190.869141" xlink:href="#DejaVuSans-48"/>
       <use x="254.492188" xlink:href="#DejaVuSans-48"/>
      </g>
     </g>
    </g>
    <g id="xtick_5">
     <g id="line2d_9">
      <path clip-path="url(#p39a79e1d48)" d="M 381.493929 385.72 
L 381.493929 29.76 
" style="fill:none;stroke:#b0b0b0;stroke-linecap:square;stroke-width:0.8;"/>
     </g>
     <g id="line2d_10">
      <g>
       <use style="stroke:#000000;stroke-width:0.8;" x="381.493929" xlink:href="#ma412e4812d" y="385.72"/>
      </g>
     </g>
     <g id="text_5">
      <!-- 20000 -->
      <defs>
       <path d="M 19.1875 8.296875 
L 53.609375 8.296875 
L 53.609375 0 
L 7.328125 0 
L 7.328125 8.296875 
Q 12.9375 14.109375 22.625 23.890625 
Q 32.328125 33.6875 34.8125 36.53125 
Q 39.546875 41.84375 41.421875 45.53125 
Q 43.3125 49.21875 43.3125 52.78125 
Q 43.3125 58.59375 39.234375 62.25 
Q 35.15625 65.921875 28.609375 65.921875 
Q 23.96875 65.921875 18.8125 64.3125 
Q 13.671875 62.703125 7.8125 59.421875 
L 7.8125 69.390625 
Q 13.765625 71.78125 18.9375 73 
Q 24.125 74.21875 28.421875 74.21875 
Q 39.75 74.21875 46.484375 68.546875 
Q 53.21875 62.890625 53.21875 53.421875 
Q 53.21875 48.921875 51.53125 44.890625 
Q 49.859375 40.875 45.40625 35.40625 
Q 44.1875 33.984375 37.640625 27.21875 
Q 31.109375 20.453125 19.1875 8.296875 
z
" id="DejaVuSans-50"/>
      </defs>
      <g transform="translate(362.406429 401.838125)scale(0.12 -0.12)">
       <use xlink:href="#DejaVuSans-50"/>
       <use x="63.623047" xlink:href="#DejaVuSans-48"/>
       <use x="127.246094" xlink:href="#DejaVuSans-48"/>
       <use x="190.869141" xlink:href="#DejaVuSans-48"/>
       <use x="254.492188" xlink:href="#DejaVuSans-48"/>
      </g>
     </g>
    </g>
    <g id="xtick_6">
     <g id="line2d_11">
      <path clip-path="url(#p39a79e1d48)" d="M 456.690365 385.72 
L 456.690365 29.76 
" style="fill:none;stroke:#b0b0b0;stroke-linecap:square;stroke-width:0.8;"/>
     </g>
     <g id="line2d_12">
      <g>
       <use style="stroke:#000000;stroke-width:0.8;" x="456.690365" xlink:href="#ma412e4812d" y="385.72"/>
      </g>
     </g>
     <g id="text_6">
      <!-- 25000 -->
      <g transform="translate(437.602865 401.838125)scale(0.12 -0.12)">
       <use xlink:href="#DejaVuSans-50"/>
       <use x="63.623047" xlink:href="#DejaVuSans-53"/>
       <use x="127.246094" xlink:href="#DejaVuSans-48"/>
       <use x="190.869141" xlink:href="#DejaVuSans-48"/>
       <use x="254.492188" xlink:href="#DejaVuSans-48"/>
      </g>
     </g>
    </g>
    <g id="xtick_7">
     <g id="line2d_13">
      <path clip-path="url(#p39a79e1d48)" d="M 531.886802 385.72 
L 531.886802 29.76 
" style="fill:none;stroke:#b0b0b0;stroke-linecap:square;stroke-width:0.8;"/>
     </g>
     <g id="line2d_14">
      <g>
       <use style="stroke:#000000;stroke-width:0.8;" x="531.886802" xlink:href="#ma412e4812d" y="385.72"/>
      </g>
     </g>
     <g id="text_7">
      <!-- 30000 -->
      <defs>
       <path d="M 40.578125 39.3125 
Q 47.65625 37.796875 51.625 33 
Q 55.609375 28.21875 55.609375 21.1875 
Q 55.609375 10.40625 48.1875 4.484375 
Q 40.765625 -1.421875 27.09375 -1.421875 
Q 22.515625 -1.421875 17.65625 -0.515625 
Q 12.796875 0.390625 7.625 2.203125 
L 7.625 11.71875 
Q 11.71875 9.328125 16.59375 8.109375 
Q 21.484375 6.890625 26.8125 6.890625 
Q 36.078125 6.890625 40.9375 10.546875 
Q 45.796875 14.203125 45.796875 21.1875 
Q 45.796875 27.640625 41.28125 31.265625 
Q 36.765625 34.90625 28.71875 34.90625 
L 20.21875 34.90625 
L 20.21875 43.015625 
L 29.109375 43.015625 
Q 36.375 43.015625 40.234375 45.921875 
Q 44.09375 48.828125 44.09375 54.296875 
Q 44.09375 59.90625 40.109375 62.90625 
Q 36.140625 65.921875 28.71875 65.921875 
Q 24.65625 65.921875 20.015625 65.03125 
Q 15.375 64.15625 9.8125 62.3125 
L 9.8125 71.09375 
Q 15.4375 72.65625 20.34375 73.4375 
Q 25.25 74.21875 29.59375 74.21875 
Q 40.828125 74.21875 47.359375 69.109375 
Q 53.90625 64.015625 53.90625 55.328125 
Q 53.90625 49.265625 50.4375 45.09375 
Q 46.96875 40.921875 40.578125 39.3125 
z
" id="DejaVuSans-51"/>
      </defs>
      <g transform="translate(512.799302 401.838125)scale(0.12 -0.12)">
       <use xlink:href="#DejaVuSans-51"/>
       <use x="63.623047" xlink:href="#DejaVuSans-48"/>
       <use x="127.246094" xlink:href="#DejaVuSans-48"/>
       <use x="190.869141" xlink:href="#DejaVuSans-48"/>
       <use x="254.492188" xlink:href="#DejaVuSans-48"/>
      </g>
     </g>
    </g>
    <g id="xtick_8">
     <g id="line2d_15">
      <path clip-path="url(#p39a79e1d48)" d="M 607.083239 385.72 
L 607.083239 29.76 
" style="fill:none;stroke:#b0b0b0;stroke-linecap:square;stroke-width:0.8;"/>
     </g>
     <g id="line2d_16">
      <g>
       <use style="stroke:#000000;stroke-width:0.8;" x="607.083239" xlink:href="#ma412e4812d" y="385.72"/>
      </g>
     </g>
     <g id="text_8">
      <!-- 35000 -->
      <g transform="translate(587.995739 401.838125)scale(0.12 -0.12)">
       <use xlink:href="#DejaVuSans-51"/>
       <use x="63.623047" xlink:href="#DejaVuSans-53"/>
       <use x="127.246094" xlink:href="#DejaVuSans-48"/>
       <use x="190.869141" xlink:href="#DejaVuSans-48"/>
       <use x="254.492188" xlink:href="#DejaVuSans-48"/>
      </g>
     </g>
    </g>
    <g id="xtick_9">
     <g id="line2d_17">
      <path clip-path="url(#p39a79e1d48)" d="M 682.279676 385.72 
L 682.279676 29.76 
" style="fill:none;stroke:#b0b0b0;stroke-linecap:square;stroke-width:0.8;"/>
     </g>
     <g id="line2d_18">
      <g>
       <use style="stroke:#000000;stroke-width:0.8;" x="682.279676" xlink:href="#ma412e4812d" y="385.72"/>
      </g>
     </g>
     <g id="text_9">
      <!-- 40000 -->
      <defs>
       <path d="M 37.796875 64.3125 
L 12.890625 25.390625 
L 37.796875 25.390625 
z
M 35.203125 72.90625 
L 47.609375 72.90625 
L 47.609375 25.390625 
L 58.015625 25.390625 
L 58.015625 17.1875 
L 47.609375 17.1875 
L 47.609375 0 
L 37.796875 0 
L 37.796875 17.1875 
L 4.890625 17.1875 
L 4.890625 26.703125 
z
" id="DejaVuSans-52"/>
      </defs>
      <g transform="translate(663.192176 401.838125)scale(0.12 -0.12)">
       <use xlink:href="#DejaVuSans-52"/>
       <use x="63.623047" xlink:href="#DejaVuSans-48"/>
       <use x="127.246094" xlink:href="#DejaVuSans-48"/>
       <use x="190.869141" xlink:href="#DejaVuSans-48"/>
       <use x="254.492188" xlink:href="#DejaVuSans-48"/>
      </g>
     </g>
    </g>
    <g id="text_10">
     <!-- Epoch -->
     <defs>
      <path d="M 9.8125 72.90625 
L 55.90625 72.90625 
L 55.90625 64.59375 
L 19.671875 64.59375 
L 19.671875 43.015625 
L 54.390625 43.015625 
L 54.390625 34.71875 
L 19.671875 34.71875 
L 19.671875 8.296875 
L 56.78125 8.296875 
L 56.78125 0 
L 9.8125 0 
z
" id="DejaVuSans-69"/>
      <path d="M 18.109375 8.203125 
L 18.109375 -20.796875 
L 9.078125 -20.796875 
L 9.078125 54.6875 
L 18.109375 54.6875 
L 18.109375 46.390625 
Q 20.953125 51.265625 25.265625 53.625 
Q 29.59375 56 35.59375 56 
Q 45.5625 56 51.78125 48.09375 
Q 58.015625 40.1875 58.015625 27.296875 
Q 58.015625 14.40625 51.78125 6.484375 
Q 45.5625 -1.421875 35.59375 -1.421875 
Q 29.59375 -1.421875 25.265625 0.953125 
Q 20.953125 3.328125 18.109375 8.203125 
z
M 48.6875 27.296875 
Q 48.6875 37.203125 44.609375 42.84375 
Q 40.53125 48.484375 33.40625 48.484375 
Q 26.265625 48.484375 22.1875 42.84375 
Q 18.109375 37.203125 18.109375 27.296875 
Q 18.109375 17.390625 22.1875 11.75 
Q 26.265625 6.109375 33.40625 6.109375 
Q 40.53125 6.109375 44.609375 11.75 
Q 48.6875 17.390625 48.6875 27.296875 
z
" id="DejaVuSans-112"/>
      <path d="M 30.609375 48.390625 
Q 23.390625 48.390625 19.1875 42.75 
Q 14.984375 37.109375 14.984375 27.296875 
Q 14.984375 17.484375 19.15625 11.84375 
Q 23.34375 6.203125 30.609375 6.203125 
Q 37.796875 6.203125 41.984375 11.859375 
Q 46.1875 17.53125 46.1875 27.296875 
Q 46.1875 37.015625 41.984375 42.703125 
Q 37.796875 48.390625 30.609375 48.390625 
z
M 30.609375 56 
Q 42.328125 56 49.015625 48.375 
Q 55.71875 40.765625 55.71875 27.296875 
Q 55.71875 13.875 49.015625 6.21875 
Q 42.328125 -1.421875 30.609375 -1.421875 
Q 18.84375 -1.421875 12.171875 6.21875 
Q 5.515625 13.875 5.515625 27.296875 
Q 5.515625 40.765625 12.171875 48.375 
Q 18.84375 56 30.609375 56 
z
" id="DejaVuSans-111"/>
      <path d="M 48.78125 52.59375 
L 48.78125 44.1875 
Q 44.96875 46.296875 41.140625 47.34375 
Q 37.3125 48.390625 33.40625 48.390625 
Q 24.65625 48.390625 19.8125 42.84375 
Q 14.984375 37.3125 14.984375 27.296875 
Q 14.984375 17.28125 19.8125 11.734375 
Q 24.65625 6.203125 33.40625 6.203125 
Q 37.3125 6.203125 41.140625 7.25 
Q 44.96875 8.296875 48.78125 10.40625 
L 48.78125 2.09375 
Q 45.015625 0.34375 40.984375 -0.53125 
Q 36.96875 -1.421875 32.421875 -1.421875 
Q 20.0625 -1.421875 12.78125 6.34375 
Q 5.515625 14.109375 5.515625 27.296875 
Q 5.515625 40.671875 12.859375 48.328125 
Q 20.21875 56 33.015625 56 
Q 37.15625 56 41.109375 55.140625 
Q 45.0625 54.296875 48.78125 52.59375 
z
" id="DejaVuSans-99"/>
      <path d="M 54.890625 33.015625 
L 54.890625 0 
L 45.90625 0 
L 45.90625 32.71875 
Q 45.90625 40.484375 42.875 44.328125 
Q 39.84375 48.1875 33.796875 48.1875 
Q 26.515625 48.1875 22.3125 43.546875 
Q 18.109375 38.921875 18.109375 30.90625 
L 18.109375 0 
L 9.078125 0 
L 9.078125 75.984375 
L 18.109375 75.984375 
L 18.109375 46.1875 
Q 21.34375 51.125 25.703125 53.5625 
Q 30.078125 56 35.796875 56 
Q 45.21875 56 50.046875 50.171875 
Q 54.890625 44.34375 54.890625 33.015625 
z
" id="DejaVuSans-104"/>
     </defs>
     <g transform="translate(358.554688 418.971563)scale(0.14 -0.14)">
      <use xlink:href="#DejaVuSans-69"/>
      <use x="63.183594" xlink:href="#DejaVuSans-112"/>
      <use x="126.660156" xlink:href="#DejaVuSans-111"/>
      <use x="187.841797" xlink:href="#DejaVuSans-99"/>
      <use x="242.822266" xlink:href="#DejaVuSans-104"/>
     </g>
    </g>
   </g>
   <g id="matplotlib.axis_2">
    <g id="ytick_1">
     <g id="line2d_19">
      <path clip-path="url(#p39a79e1d48)" d="M 50.78 385.72 
L 709.2 385.72 
" style="fill:none;stroke:#b0b0b0;stroke-linecap:square;stroke-width:0.8;"/>
     </g>
     <g id="line2d_20">
      <defs>
       <path d="M 0 0 
L -3.5 0 
" id="mf385fc6e1d" style="stroke:#000000;stroke-width:0.8;"/>
      </defs>
      <g>
       <use style="stroke:#000000;stroke-width:0.8;" x="50.78" xlink:href="#mf385fc6e1d" y="385.72"/>
      </g>
     </g>
     <g id="text_11">
      <!-- 18 -->
      <defs>
       <path d="M 31.78125 34.625 
Q 24.75 34.625 20.71875 30.859375 
Q 16.703125 27.09375 16.703125 20.515625 
Q 16.703125 13.921875 20.71875 10.15625 
Q 24.75 6.390625 31.78125 6.390625 
Q 38.8125 6.390625 42.859375 10.171875 
Q 46.921875 13.96875 46.921875 20.515625 
Q 46.921875 27.09375 42.890625 30.859375 
Q 38.875 34.625 31.78125 34.625 
z
M 21.921875 38.8125 
Q 15.578125 40.375 12.03125 44.71875 
Q 8.5 49.078125 8.5 55.328125 
Q 8.5 64.0625 14.71875 69.140625 
Q 20.953125 74.21875 31.78125 74.21875 
Q 42.671875 74.21875 48.875 69.140625 
Q 55.078125 64.0625 55.078125 55.328125 
Q 55.078125 49.078125 51.53125 44.71875 
Q 48 40.375 41.703125 38.8125 
Q 48.828125 37.15625 52.796875 32.3125 
Q 56.78125 27.484375 56.78125 20.515625 
Q 56.78125 9.90625 50.3125 4.234375 
Q 43.84375 -1.421875 31.78125 -1.421875 
Q 19.734375 -1.421875 13.25 4.234375 
Q 6.78125 9.90625 6.78125 20.515625 
Q 6.78125 27.484375 10.78125 32.3125 
Q 14.796875 37.15625 21.921875 38.8125 
z
M 18.3125 54.390625 
Q 18.3125 48.734375 21.84375 45.5625 
Q 25.390625 42.390625 31.78125 42.390625 
Q 38.140625 42.390625 41.71875 45.5625 
Q 45.3125 48.734375 45.3125 54.390625 
Q 45.3125 60.0625 41.71875 63.234375 
Q 38.140625 66.40625 31.78125 66.40625 
Q 25.390625 66.40625 21.84375 63.234375 
Q 18.3125 60.0625 18.3125 54.390625 
z
" id="DejaVuSans-56"/>
      </defs>
      <g transform="translate(28.51 390.279062)scale(0.12 -0.12)">
       <use xlink:href="#DejaVuSans-49"/>
       <use x="63.623047" xlink:href="#DejaVuSans-56"/>
      </g>
     </g>
    </g>
    <g id="ytick_2">
     <g id="line2d_21">
      <path clip-path="url(#p39a79e1d48)" d="M 50.78 330.956923 
L 709.2 330.956923 
" style="fill:none;stroke:#b0b0b0;stroke-linecap:square;stroke-width:0.8;"/>
     </g>
     <g id="line2d_22">
      <g>
       <use style="stroke:#000000;stroke-width:0.8;" x="50.78" xlink:href="#mf385fc6e1d" y="330.956923"/>
      </g>
     </g>
     <g id="text_12">
      <!-- 20 -->
      <g transform="translate(28.51 335.515986)scale(0.12 -0.12)">
       <use xlink:href="#DejaVuSans-50"/>
       <use x="63.623047" xlink:href="#DejaVuSans-48"/>
      </g>
     </g>
    </g>
    <g id="ytick_3">
     <g id="line2d_23">
      <path clip-path="url(#p39a79e1d48)" d="M 50.78 276.193846 
L 709.2 276.193846 
" style="fill:none;stroke:#b0b0b0;stroke-linecap:square;stroke-width:0.8;"/>
     </g>
     <g id="line2d_24">
      <g>
       <use style="stroke:#000000;stroke-width:0.8;" x="50.78" xlink:href="#mf385fc6e1d" y="276.193846"/>
      </g>
     </g>
     <g id="text_13">
      <!-- 22 -->
      <g transform="translate(28.51 280.752909)scale(0.12 -0.12)">
       <use xlink:href="#DejaVuSans-50"/>
       <use x="63.623047" xlink:href="#DejaVuSans-50"/>
      </g>
     </g>
    </g>
    <g id="ytick_4">
     <g id="line2d_25">
      <path clip-path="url(#p39a79e1d48)" d="M 50.78 221.430769 
L 709.2 221.430769 
" style="fill:none;stroke:#b0b0b0;stroke-linecap:square;stroke-width:0.8;"/>
     </g>
     <g id="line2d_26">
      <g>
       <use style="stroke:#000000;stroke-width:0.8;" x="50.78" xlink:href="#mf385fc6e1d" y="221.430769"/>
      </g>
     </g>
     <g id="text_14">
      <!-- 24 -->
      <g transform="translate(28.51 225.989832)scale(0.12 -0.12)">
       <use xlink:href="#DejaVuSans-50"/>
       <use x="63.623047" xlink:href="#DejaVuSans-52"/>
      </g>
     </g>
    </g>
    <g id="ytick_5">
     <g id="line2d_27">
      <path clip-path="url(#p39a79e1d48)" d="M 50.78 166.667692 
L 709.2 166.667692 
" style="fill:none;stroke:#b0b0b0;stroke-linecap:square;stroke-width:0.8;"/>
     </g>
     <g id="line2d_28">
      <g>
       <use style="stroke:#000000;stroke-width:0.8;" x="50.78" xlink:href="#mf385fc6e1d" y="166.667692"/>
      </g>
     </g>
     <g id="text_15">
      <!-- 26 -->
      <defs>
       <path d="M 33.015625 40.375 
Q 26.375 40.375 22.484375 35.828125 
Q 18.609375 31.296875 18.609375 23.390625 
Q 18.609375 15.53125 22.484375 10.953125 
Q 26.375 6.390625 33.015625 6.390625 
Q 39.65625 6.390625 43.53125 10.953125 
Q 47.40625 15.53125 47.40625 23.390625 
Q 47.40625 31.296875 43.53125 35.828125 
Q 39.65625 40.375 33.015625 40.375 
z
M 52.59375 71.296875 
L 52.59375 62.3125 
Q 48.875 64.0625 45.09375 64.984375 
Q 41.3125 65.921875 37.59375 65.921875 
Q 27.828125 65.921875 22.671875 59.328125 
Q 17.53125 52.734375 16.796875 39.40625 
Q 19.671875 43.65625 24.015625 45.921875 
Q 28.375 48.1875 33.59375 48.1875 
Q 44.578125 48.1875 50.953125 41.515625 
Q 57.328125 34.859375 57.328125 23.390625 
Q 57.328125 12.15625 50.6875 5.359375 
Q 44.046875 -1.421875 33.015625 -1.421875 
Q 20.359375 -1.421875 13.671875 8.265625 
Q 6.984375 17.96875 6.984375 36.375 
Q 6.984375 53.65625 15.1875 63.9375 
Q 23.390625 74.21875 37.203125 74.21875 
Q 40.921875 74.21875 44.703125 73.484375 
Q 48.484375 72.75 52.59375 71.296875 
z
" id="DejaVuSans-54"/>
      </defs>
      <g transform="translate(28.51 171.226755)scale(0.12 -0.12)">
       <use xlink:href="#DejaVuSans-50"/>
       <use x="63.623047" xlink:href="#DejaVuSans-54"/>
      </g>
     </g>
    </g>
    <g id="ytick_6">
     <g id="line2d_29">
      <path clip-path="url(#p39a79e1d48)" d="M 50.78 111.904615 
L 709.2 111.904615 
" style="fill:none;stroke:#b0b0b0;stroke-linecap:square;stroke-width:0.8;"/>
     </g>
     <g id="line2d_30">
      <g>
       <use style="stroke:#000000;stroke-width:0.8;" x="50.78" xlink:href="#mf385fc6e1d" y="111.904615"/>
      </g>
     </g>
     <g id="text_16">
      <!-- 28 -->
      <g transform="translate(28.51 116.463678)scale(0.12 -0.12)">
       <use xlink:href="#DejaVuSans-50"/>
       <use x="63.623047" xlink:href="#DejaVuSans-56"/>
      </g>
     </g>
    </g>
    <g id="ytick_7">
     <g id="line2d_31">
      <path clip-path="url(#p39a79e1d48)" d="M 50.78 57.141538 
L 709.2 57.141538 
" style="fill:none;stroke:#b0b0b0;stroke-linecap:square;stroke-width:0.8;"/>
     </g>
     <g id="line2d_32">
      <g>
       <use style="stroke:#000000;stroke-width:0.8;" x="50.78" xlink:href="#mf385fc6e1d" y="57.141538"/>
      </g>
     </g>
     <g id="text_17">
      <!-- 30 -->
      <g transform="translate(28.51 61.700601)scale(0.12 -0.12)">
       <use xlink:href="#DejaVuSans-51"/>
       <use x="63.623047" xlink:href="#DejaVuSans-48"/>
      </g>
     </g>
    </g>
    <g id="text_18">
     <!-- PSNR -->
     <defs>
      <path d="M 19.671875 64.796875 
L 19.671875 37.40625 
L 32.078125 37.40625 
Q 38.96875 37.40625 42.71875 40.96875 
Q 46.484375 44.53125 46.484375 51.125 
Q 46.484375 57.671875 42.71875 61.234375 
Q 38.96875 64.796875 32.078125 64.796875 
z
M 9.8125 72.90625 
L 32.078125 72.90625 
Q 44.34375 72.90625 50.609375 67.359375 
Q 56.890625 61.8125 56.890625 51.125 
Q 56.890625 40.328125 50.609375 34.8125 
Q 44.34375 29.296875 32.078125 29.296875 
L 19.671875 29.296875 
L 19.671875 0 
L 9.8125 0 
z
" id="DejaVuSans-80"/>
      <path d="M 53.515625 70.515625 
L 53.515625 60.890625 
Q 47.90625 63.578125 42.921875 64.890625 
Q 37.9375 66.21875 33.296875 66.21875 
Q 25.25 66.21875 20.875 63.09375 
Q 16.5 59.96875 16.5 54.203125 
Q 16.5 49.359375 19.40625 46.890625 
Q 22.3125 44.4375 30.421875 42.921875 
L 36.375 41.703125 
Q 47.40625 39.59375 52.65625 34.296875 
Q 57.90625 29 57.90625 20.125 
Q 57.90625 9.515625 50.796875 4.046875 
Q 43.703125 -1.421875 29.984375 -1.421875 
Q 24.8125 -1.421875 18.96875 -0.25 
Q 13.140625 0.921875 6.890625 3.21875 
L 6.890625 13.375 
Q 12.890625 10.015625 18.65625 8.296875 
Q 24.421875 6.59375 29.984375 6.59375 
Q 38.421875 6.59375 43.015625 9.90625 
Q 47.609375 13.234375 47.609375 19.390625 
Q 47.609375 24.75 44.3125 27.78125 
Q 41.015625 30.8125 33.5 32.328125 
L 27.484375 33.5 
Q 16.453125 35.6875 11.515625 40.375 
Q 6.59375 45.0625 6.59375 53.421875 
Q 6.59375 63.09375 13.40625 68.65625 
Q 20.21875 74.21875 32.171875 74.21875 
Q 37.3125 74.21875 42.625 73.28125 
Q 47.953125 72.359375 53.515625 70.515625 
z
" id="DejaVuSans-83"/>
      <path d="M 9.8125 72.90625 
L 23.09375 72.90625 
L 55.421875 11.921875 
L 55.421875 72.90625 
L 64.984375 72.90625 
L 64.984375 0 
L 51.703125 0 
L 19.390625 60.984375 
L 19.390625 0 
L 9.8125 0 
z
" id="DejaVuSans-78"/>
      <path d="M 44.390625 34.1875 
Q 47.5625 33.109375 50.5625 29.59375 
Q 53.5625 26.078125 56.59375 19.921875 
L 66.609375 0 
L 56 0 
L 46.6875 18.703125 
Q 43.0625 26.03125 39.671875 28.421875 
Q 36.28125 30.8125 30.421875 30.8125 
L 19.671875 30.8125 
L 19.671875 0 
L 9.8125 0 
L 9.8125 72.90625 
L 32.078125 72.90625 
Q 44.578125 72.90625 50.734375 67.671875 
Q 56.890625 62.453125 56.890625 51.90625 
Q 56.890625 45.015625 53.6875 40.46875 
Q 50.484375 35.9375 44.390625 34.1875 
z
M 19.671875 64.796875 
L 19.671875 38.921875 
L 32.078125 38.921875 
Q 39.203125 38.921875 42.84375 42.21875 
Q 46.484375 45.515625 46.484375 51.90625 
Q 46.484375 58.296875 42.84375 61.546875 
Q 39.203125 64.796875 32.078125 64.796875 
z
" id="DejaVuSans-82"/>
     </defs>
     <g transform="translate(21.598438 226.505469)rotate(-90)scale(0.14 -0.14)">
      <use xlink:href="#DejaVuSans-80"/>
      <use x="60.302734" xlink:href="#DejaVuSans-83"/>
      <use x="123.779297" xlink:href="#DejaVuSans-78"/>
      <use x="198.583984" xlink:href="#DejaVuSans-82"/>
     </g>
    </g>
   </g>
   <g id="line2d_33">
    <path clip-path="url(#p39a79e1d48)" d="M 81.483656 433 
L 83.716039 178.707348 
L 86.723897 132.773189 
L 89.731754 130.091309 
L 92.739612 91.88268 
L 95.747469 83.40995 
L 98.755327 91.522532 
L 101.763184 78.389746 
L 104.771042 73.268351 
L 107.778899 70.876165 
L 110.786757 77.094693 
L 113.794614 88.611862 
L 116.802471 74.690914 
L 119.810329 67.435905 
L 122.818186 67.573513 
L 125.826044 66.495087 
L 128.833901 68.060341 
L 131.841759 66.404543 
L 134.849616 67.469497 
L 137.857474 70.696437 
L 140.865331 69.844564 
L 143.873189 67.855431 
L 146.881046 69.223709 
L 149.888904 68.576406 
L 152.896761 70.112899 
L 155.904619 71.100698 
L 158.912476 68.106376 
L 161.920333 68.80346 
L 164.928191 70.954599 
L 167.936048 67.610128 
L 170.943906 71.609914 
L 173.951763 70.53543 
L 176.959621 73.864479 
L 179.967478 69.632122 
L 182.975336 72.964559 
L 185.983193 72.916655 
L 188.991051 71.318843 
L 191.998908 72.921825 
L 195.006766 71.219417 
L 198.014623 72.497761 
L 201.022481 75.508417 
L 204.030338 89.698844 
L 207.038196 70.906606 
L 210.046053 73.185349 
L 213.05391 70.79096 
L 216.061768 72.844452 
L 222.077483 71.951062 
L 225.08534 77.413012 
L 228.093198 71.185201 
L 231.101055 74.583822 
L 234.108913 72.287185 
L 237.11677 72.943975 
L 240.124628 73.430069 
L 243.132485 71.663456 
L 246.140343 76.261518 
L 249.1482 75.341051 
L 252.156058 72.287269 
L 255.163915 70.743123 
L 258.171772 80.782058 
L 261.17963 73.174996 
L 264.187487 76.312824 
L 267.195345 73.584754 
L 270.203202 85.299859 
L 273.21106 76.886365 
L 276.218917 82.296808 
L 279.226775 73.088604 
L 282.234632 72.818698 
L 285.24249 75.09436 
L 288.250347 72.902407 
L 291.258205 75.351279 
L 294.266062 75.99902 
L 297.27392 75.397826 
L 300.281777 78.394893 
L 303.289635 75.249311 
L 306.297492 75.872825 
L 309.305349 77.556609 
L 312.313207 74.667803 
L 315.321064 76.504946 
L 318.328922 71.862163 
L 321.336779 76.962266 
L 324.344637 73.613149 
L 327.352494 75.21272 
L 330.360352 72.687198 
L 333.368209 73.338859 
L 336.376067 77.402634 
L 339.383924 73.602285 
L 342.391782 74.431066 
L 345.399639 76.070184 
L 348.407497 75.638569 
L 351.415354 77.856155 
L 354.423212 75.519227 
L 357.431069 76.239922 
L 360.438926 75.061416 
L 363.446784 80.100968 
L 366.454641 79.953405 
L 369.462499 77.374389 
L 372.470356 76.404515 
L 375.478214 75.66178 
L 378.486071 76.173423 
L 381.493929 78.314004 
L 384.501786 76.508088 
L 387.509644 75.159548 
L 390.517501 75.233222 
L 393.525359 73.639367 
L 396.533216 74.984783 
L 399.541074 75.354613 
L 402.548931 73.840536 
L 405.556788 73.462479 
L 408.564646 75.238577 
L 411.572503 74.645972 
L 414.580361 75.891661 
L 417.588218 74.729173 
L 420.596076 73.322769 
L 423.603933 73.88806 
L 426.611791 78.330864 
L 429.619648 76.827684 
L 432.627506 74.851127 
L 435.635363 75.247701 
L 438.643221 77.837805 
L 441.651078 75.432983 
L 444.658936 80.495793 
L 447.666793 77.065405 
L 450.674651 75.637393 
L 453.682508 74.849255 
L 456.690365 74.74691 
L 459.698223 78.334056 
L 462.70608 74.773916 
L 465.713938 79.137822 
L 468.721795 74.23459 
L 471.729653 77.866697 
L 474.73751 75.404859 
L 477.745368 77.172983 
L 480.753225 74.105463 
L 483.761083 75.352432 
L 486.76894 76.373417 
L 489.776798 76.120281 
L 492.784655 74.23808 
L 495.792513 75.960562 
L 498.80037 76.277108 
L 501.808228 75.854507 
L 504.816085 74.995641 
L 507.823942 76.447529 
L 510.8318 77.580586 
L 513.839657 76.725406 
L 516.847515 77.974031 
L 519.855372 76.555649 
L 522.86323 77.199938 
L 525.871087 76.292043 
L 528.878945 77.875323 
L 531.886802 76.95359 
L 534.89466 76.298082 
L 537.902517 76.735971 
L 540.910375 75.313025 
L 543.918232 77.556156 
L 546.92609 76.852901 
L 549.933947 75.316775 
L 552.941804 75.018549 
L 555.949662 75.90914 
L 558.957519 76.579116 
L 561.965377 75.403529 
L 564.973234 75.179164 
L 567.981092 78.833065 
L 570.988949 75.592683 
L 577.004664 78.352833 
L 580.012522 76.990964 
L 583.020379 76.652462 
L 586.028237 77.055824 
L 589.036094 75.807576 
L 592.043952 76.672957 
L 598.059667 75.38123 
L 601.067524 77.39274 
L 604.075381 78.494807 
L 607.083239 77.11891 
L 610.091096 79.740189 
L 613.098954 76.553683 
L 616.106811 76.90624 
L 619.114669 75.293007 
L 622.122526 77.344852 
L 625.130384 76.773021 
L 628.138241 75.98912 
L 631.146099 77.096183 
L 634.153956 77.618657 
L 637.161814 77.894324 
L 640.169671 76.828123 
L 643.177529 76.055191 
L 646.185386 76.221293 
L 649.193243 77.109251 
L 652.201101 76.058909 
L 655.208958 79.42576 
L 658.216816 78.512883 
L 661.224673 77.178167 
L 664.232531 80.568783 
L 667.240388 76.692682 
L 670.248246 76.171657 
L 673.256103 79.246814 
L 676.263961 76.632933 
L 679.271818 75.97555 
L 679.271818 75.97555 
" style="fill:none;stroke:#1f77b4;stroke-linecap:square;stroke-width:2;"/>
   </g>
   <g id="line2d_34">
    <path clip-path="url(#p39a79e1d48)" d="M 81.478295 433 
L 83.716039 147.806897 
L 86.723897 108.298389 
L 89.731754 75.736044 
L 92.739612 70.46859 
L 95.747469 76.020083 
L 98.755327 74.855651 
L 101.763184 82.270804 
L 104.771042 90.873091 
L 107.778899 98.658355 
L 110.786757 100.172724 
L 113.794614 107.373999 
L 116.802471 107.588269 
L 119.810329 112.74535 
L 122.818186 123.770394 
L 125.826044 120.091219 
L 128.833901 125.992123 
L 131.841759 123.103589 
L 134.849616 125.929358 
L 137.857474 128.068308 
L 140.865331 128.70853 
L 143.873189 134.934798 
L 146.881046 132.571622 
L 149.888904 135.215046 
L 152.896761 139.083164 
L 155.904619 135.264274 
L 158.912476 135.766088 
L 161.920333 135.830956 
L 164.928191 141.429677 
L 167.936048 142.377639 
L 170.943906 145.066944 
L 173.951763 142.594132 
L 176.959621 143.702345 
L 179.967478 141.198553 
L 182.975336 144.400195 
L 185.983193 143.266849 
L 188.991051 144.163582 
L 191.998908 146.167157 
L 195.006766 144.360181 
L 198.014623 146.008282 
L 201.022481 145.265644 
L 204.030338 144.318459 
L 207.038196 144.938995 
L 210.046053 149.348428 
L 213.05391 148.339429 
L 216.061768 147.026502 
L 219.069625 146.689987 
L 222.077483 144.465643 
L 225.08534 146.974067 
L 228.093198 148.376728 
L 231.101055 151.94534 
L 234.108913 146.971234 
L 237.11677 151.916067 
L 240.124628 146.372537 
L 243.132485 151.988151 
L 246.140343 148.289291 
L 249.1482 148.391754 
L 252.156058 148.710134 
L 255.163915 156.001488 
L 258.171772 149.41214 
L 261.17963 150.314547 
L 264.187487 150.540202 
L 267.195345 151.982622 
L 270.203202 153.948393 
L 273.21106 150.356661 
L 276.218917 152.119073 
L 279.226775 150.559511 
L 282.234632 150.898549 
L 285.24249 149.873696 
L 288.250347 155.941557 
L 291.258205 153.865636 
L 294.266062 156.028448 
L 297.27392 153.186552 
L 300.281777 153.90074 
L 303.289635 152.827542 
L 306.297492 154.074208 
L 309.305349 151.660618 
L 312.313207 153.29699 
L 315.321064 153.76127 
L 318.328922 155.410954 
L 321.336779 154.37347 
L 324.344637 154.203668 
L 327.352494 153.583452 
L 330.360352 153.290769 
L 333.368209 155.740396 
L 336.376067 154.717799 
L 339.383924 152.342488 
L 342.391782 154.568815 
L 345.399639 153.645572 
L 348.407497 153.283234 
L 351.415354 153.774938 
L 354.423212 152.374542 
L 357.431069 153.497035 
L 360.438926 155.28966 
L 363.446784 157.544826 
L 366.454641 157.885733 
L 369.462499 159.23172 
L 372.470356 155.549733 
L 375.478214 155.079523 
L 378.486071 154.313521 
L 381.493929 155.063309 
L 384.501786 157.255049 
L 387.509644 154.435649 
L 390.517501 156.088129 
L 393.525359 153.354355 
L 396.533216 155.428047 
L 399.541074 156.307229 
L 402.548931 154.352746 
L 405.556788 157.559174 
L 408.564646 154.552723 
L 411.572503 157.485464 
L 414.580361 153.978228 
L 417.588218 154.527692 
L 420.596076 157.132481 
L 423.603933 154.969304 
L 426.611791 157.153042 
L 429.619648 158.134482 
L 432.627506 154.759656 
L 435.635363 161.051029 
L 438.643221 158.260748 
L 441.651078 156.865551 
L 444.658936 155.778878 
L 447.666793 157.020256 
L 450.674651 157.381022 
L 453.682508 155.966662 
L 456.690365 157.620061 
L 459.698223 155.700916 
L 462.70608 158.418955 
L 465.713938 157.126328 
L 468.721795 158.332136 
L 471.729653 156.061187 
L 474.73751 157.862307 
L 477.745368 159.133026 
L 480.753225 156.258831 
L 483.761083 158.472797 
L 486.76894 156.095258 
L 489.776798 159.795098 
L 492.784655 158.458735 
L 495.792513 156.755078 
L 498.80037 158.334892 
L 501.808228 155.651805 
L 504.816085 159.704888 
L 507.823942 157.821126 
L 510.8318 157.881727 
L 513.839657 157.623457 
L 516.847515 158.975476 
L 519.855372 155.386682 
L 522.86323 158.62513 
L 525.871087 157.332108 
L 528.878945 157.261167 
L 531.886802 156.683245 
L 534.89466 155.455924 
L 537.902517 159.443293 
L 540.910375 158.210419 
L 543.918232 158.921313 
L 546.92609 158.50017 
L 549.933947 157.403897 
L 552.941804 157.733045 
L 555.949662 158.615531 
L 558.957519 157.403193 
L 561.965377 157.953001 
L 564.973234 160.183344 
L 570.988949 157.617242 
L 573.996807 157.859667 
L 577.004664 159.674715 
L 580.012522 157.827806 
L 583.020379 157.75695 
L 586.028237 160.844263 
L 589.036094 157.49182 
L 592.043952 160.053098 
L 595.051809 159.227387 
L 598.059667 156.96247 
L 601.067524 157.53391 
L 604.075381 157.592942 
L 607.083239 158.21549 
L 610.091096 158.11079 
L 613.098954 159.709868 
L 616.106811 157.126044 
L 619.114669 158.795803 
L 625.130384 157.844642 
L 628.138241 159.287984 
L 631.146099 156.98377 
L 634.153956 158.157263 
L 637.161814 157.822443 
L 640.169671 159.624943 
L 643.177529 159.999762 
L 649.193243 157.374301 
L 652.201101 159.554172 
L 655.208958 158.085004 
L 658.216816 157.555449 
L 661.224673 159.076889 
L 664.232531 158.103432 
L 667.240388 159.697022 
L 670.248246 160.983316 
L 673.256103 160.223645 
L 676.263961 160.378759 
L 679.271818 158.816939 
L 679.271818 158.816939 
" style="fill:none;stroke:#ff7f0e;stroke-linecap:square;stroke-width:2;"/>
   </g>
   <g id="line2d_35">
    <path clip-path="url(#p39a79e1d48)" d="M 80.708182 347.657336 
L 83.716039 155.154994 
L 86.723897 103.48203 
L 89.731754 79.648234 
L 92.739612 66.482744 
L 95.747469 66.526339 
L 98.755327 62.502479 
L 101.763184 66.999736 
L 104.771042 68.077978 
L 107.778899 76.161412 
L 110.786757 78.562479 
L 113.794614 81.295083 
L 116.802471 83.696542 
L 119.810329 86.780233 
L 122.818186 95.376789 
L 125.826044 94.111465 
L 128.833901 93.391266 
L 131.841759 101.914264 
L 134.849616 105.159435 
L 137.857474 100.473294 
L 140.865331 100.036021 
L 143.873189 106.329913 
L 146.881046 106.096107 
L 149.888904 110.363424 
L 152.896761 106.796928 
L 155.904619 112.418924 
L 158.912476 109.939471 
L 161.920333 114.097804 
L 164.928191 113.923461 
L 167.936048 112.094004 
L 170.943906 112.274987 
L 173.951763 115.20076 
L 176.959621 114.452821 
L 179.967478 112.812129 
L 182.975336 113.444613 
L 185.983193 115.472328 
L 188.991051 121.953728 
L 191.998908 114.228282 
L 195.006766 121.813724 
L 198.014623 122.024956 
L 201.022481 116.070708 
L 204.030338 117.993356 
L 207.038196 116.861424 
L 210.046053 121.515361 
L 213.05391 124.591685 
L 216.061768 119.139283 
L 219.069625 121.809038 
L 222.077483 120.55805 
L 225.08534 118.641578 
L 228.093198 116.938119 
L 231.101055 123.197545 
L 234.108913 118.685375 
L 237.11677 119.065533 
L 240.124628 123.892246 
L 243.132485 125.325506 
L 246.140343 125.036044 
L 249.1482 126.667881 
L 252.156058 123.238144 
L 255.163915 124.318015 
L 258.171772 124.697597 
L 261.17963 119.642632 
L 264.187487 126.718846 
L 267.195345 126.331433 
L 270.203202 126.513586 
L 273.21106 127.092907 
L 276.218917 122.924872 
L 279.226775 125.539143 
L 282.234632 124.258539 
L 285.24249 119.797363 
L 288.250347 124.110666 
L 291.258205 130.556395 
L 294.266062 120.254873 
L 297.27392 125.81105 
L 300.281777 124.18081 
L 303.289635 123.91581 
L 306.297492 127.027034 
L 309.305349 127.130851 
L 312.313207 128.083628 
L 315.321064 127.235612 
L 318.328922 123.182293 
L 321.336779 123.749562 
L 324.344637 124.999107 
L 327.352494 127.615343 
L 330.360352 127.103106 
L 333.368209 129.282526 
L 336.376067 124.296753 
L 339.383924 128.19672 
L 342.391782 126.417597 
L 345.399639 127.236201 
L 348.407497 128.414843 
L 351.415354 130.247072 
L 354.423212 133.014616 
L 357.431069 125.815182 
L 360.438926 127.47959 
L 363.446784 131.508053 
L 366.454641 128.365569 
L 369.462499 127.648377 
L 372.470356 127.350346 
L 375.478214 129.495049 
L 378.486071 129.367805 
L 381.493929 132.189395 
L 384.501786 126.80015 
L 387.509644 131.263253 
L 390.517501 133.173993 
L 393.525359 125.813655 
L 396.533216 132.677327 
L 399.541074 130.637207 
L 402.548931 131.794039 
L 405.556788 132.148505 
L 408.564646 130.954395 
L 411.572503 126.434903 
L 414.580361 128.270843 
L 417.588218 125.960996 
L 420.596076 133.395163 
L 423.603933 132.522111 
L 426.611791 127.473362 
L 429.619648 132.533316 
L 432.627506 129.992875 
L 435.635363 129.052464 
L 438.643221 133.362251 
L 441.651078 132.413798 
L 444.658936 131.034186 
L 447.666793 133.575402 
L 450.674651 131.741629 
L 453.682508 128.724169 
L 456.690365 130.087373 
L 459.698223 131.8668 
L 462.70608 129.198018 
L 465.713938 127.801164 
L 468.721795 132.727056 
L 471.729653 125.820138 
L 474.73751 134.337324 
L 477.745368 126.982994 
L 483.761083 133.735193 
L 486.76894 129.677723 
L 489.776798 128.327446 
L 492.784655 132.538996 
L 495.792513 127.968938 
L 498.80037 132.783667 
L 501.808228 127.834107 
L 504.816085 128.084899 
L 507.823942 128.574036 
L 510.8318 128.642387 
L 513.839657 131.800324 
L 516.847515 130.924333 
L 519.855372 134.702714 
L 522.86323 131.745817 
L 525.871087 129.435793 
L 528.878945 135.680327 
L 531.886802 134.056755 
L 534.89466 135.94429 
L 537.902517 130.981984 
L 540.910375 133.134077 
L 543.918232 132.414557 
L 546.92609 133.413262 
L 549.933947 132.127481 
L 552.941804 133.471144 
L 555.949662 128.627348 
L 558.957519 131.080958 
L 561.965377 131.631186 
L 564.973234 135.313143 
L 567.981092 130.372567 
L 570.988949 135.479108 
L 573.996807 134.898095 
L 577.004664 130.94455 
L 580.012522 135.097223 
L 583.020379 130.509425 
L 586.028237 132.806017 
L 589.036094 132.279899 
L 592.043952 129.596631 
L 595.051809 129.04904 
L 598.059667 129.167782 
L 601.067524 131.262885 
L 604.075381 130.945246 
L 607.083239 133.232799 
L 610.091096 132.486498 
L 613.098954 134.241852 
L 616.106811 133.718607 
L 619.114669 134.149089 
L 622.122526 129.920559 
L 625.130384 132.589707 
L 628.138241 128.729197 
L 631.146099 131.167329 
L 634.153956 135.711452 
L 637.161814 133.592083 
L 640.169671 130.984537 
L 643.177529 131.018993 
L 646.185386 130.203286 
L 649.193243 133.013364 
L 652.201101 129.476674 
L 655.208958 130.29682 
L 661.224673 133.862873 
L 664.232531 131.273001 
L 667.240388 132.937506 
L 670.248246 131.408972 
L 673.256103 132.673387 
L 676.263961 128.324667 
L 679.271818 132.850901 
L 679.271818 132.850901 
" style="fill:none;stroke:#2ca02c;stroke-linecap:square;stroke-width:2;"/>
   </g>
   <g id="line2d_36">
    <path clip-path="url(#p39a79e1d48)" d="M 84.206416 433 
L 95.747469 95.848535 
L 110.786757 72.876621 
L 125.826044 106.765532 
L 140.865331 117.145069 
L 155.904619 129.603649 
L 170.943906 143.381654 
L 185.983193 145.434426 
L 201.022481 149.33345 
L 216.061768 150.52682 
L 231.101055 151.394126 
L 246.140343 154.211311 
L 261.17963 151.872365 
L 276.218917 157.966157 
L 291.258205 157.76026 
L 306.297492 160.081651 
L 321.336779 158.624824 
L 336.376067 160.450202 
L 351.415354 161.040467 
L 366.454641 162.455657 
L 381.493929 164.291304 
L 396.533216 163.015056 
L 411.572503 162.846596 
L 426.611791 162.969913 
L 441.651078 164.750246 
L 456.690365 165.518581 
L 471.729653 165.171592 
L 486.76894 162.614498 
L 501.808228 165.881183 
L 516.847515 161.482211 
L 531.886802 168.182958 
L 546.92609 166.93775 
L 561.965377 168.0946 
L 577.004664 165.839798 
L 592.043952 168.775464 
L 607.083239 164.696506 
L 622.122526 168.193944 
L 637.161814 164.964193 
L 652.201101 169.059984 
L 667.240388 166.133934 
" style="fill:none;stroke:#d62728;stroke-linecap:square;stroke-width:2;"/>
   </g>
   <g id="line2d_37">
    <path clip-path="url(#p39a79e1d48)" d="M 81.425684 433 
L 83.716039 176.816569 
L 86.723897 121.030959 
L 89.731754 101.501057 
L 92.739612 86.694211 
L 95.747469 76.099668 
L 98.755327 70.774093 
L 101.763184 79.474211 
L 104.771042 84.063114 
L 107.778899 70.223213 
L 110.786757 68.161364 
L 113.794614 72.464964 
L 116.802471 71.134032 
L 119.810329 86.472868 
L 122.818186 70.187354 
L 125.826044 75.805224 
L 128.833901 74.910732 
L 131.841759 76.766543 
L 134.849616 78.11358 
L 137.857474 80.212249 
L 140.865331 84.668221 
L 143.873189 81.596293 
L 146.881046 77.347293 
L 149.888904 81.36567 
L 152.896761 87.639462 
L 155.904619 80.380299 
L 158.912476 85.148436 
L 161.920333 81.485694 
L 164.928191 79.863859 
L 167.936048 81.110238 
L 170.943906 85.642117 
L 173.951763 86.19904 
L 176.959621 84.598826 
L 179.967478 84.176181 
L 182.975336 85.081247 
L 185.983193 88.336782 
L 188.991051 85.016741 
L 191.998908 87.829313 
L 195.006766 87.541621 
L 198.014623 85.930532 
L 201.022481 86.714979 
L 204.030338 85.138783 
L 207.038196 85.66339 
L 210.046053 87.252519 
L 213.05391 85.578464 
L 216.061768 87.243485 
L 219.069625 90.89666 
L 222.077483 91.771171 
L 225.08534 88.116652 
L 228.093198 96.220185 
L 231.101055 88.463589 
L 234.108913 88.440382 
L 237.11677 90.949846 
L 240.124628 97.317916 
L 243.132485 89.038404 
L 246.140343 90.031854 
L 249.1482 93.593553 
L 252.156058 93.122625 
L 255.163915 89.72033 
L 258.171772 92.20448 
L 261.17963 93.02056 
L 264.187487 89.848615 
L 267.195345 91.193428 
L 270.203202 91.820501 
L 273.21106 89.780947 
L 276.218917 91.043152 
L 279.226775 89.639757 
L 282.234632 91.387944 
L 285.24249 93.670115 
L 288.250347 92.292542 
L 291.258205 94.078731 
L 294.266062 91.219045 
L 297.27392 96.31416 
L 300.281777 92.059332 
L 303.289635 90.386121 
L 306.297492 93.028336 
L 309.305349 92.995441 
L 312.313207 89.949275 
L 315.321064 92.446873 
L 318.328922 91.125265 
L 321.336779 92.679374 
L 324.344637 98.08951 
L 327.352494 91.238453 
L 330.360352 95.013679 
L 333.368209 93.934625 
L 336.376067 93.330959 
L 339.383924 91.77969 
L 342.391782 94.91055 
L 345.399639 93.029682 
L 351.415354 92.830178 
L 354.423212 92.433663 
L 357.431069 92.852806 
L 360.438926 92.917949 
L 363.446784 93.545678 
L 366.454641 92.954309 
L 369.462499 94.170382 
L 372.470356 97.4341 
L 375.478214 94.797771 
L 378.486071 93.752392 
L 381.493929 93.069406 
L 384.501786 93.566676 
L 387.509644 93.858322 
L 390.517501 96.129068 
L 393.525359 95.151322 
L 396.533216 97.943821 
L 399.541074 95.020869 
L 402.548931 93.141422 
L 405.556788 93.862623 
L 408.564646 95.435383 
L 411.572503 94.570031 
L 414.580361 94.512268 
L 417.588218 95.450657 
L 420.596076 96.624096 
L 423.603933 95.340485 
L 426.611791 96.641504 
L 429.619648 95.559594 
L 432.627506 95.241635 
L 435.635363 95.882687 
L 438.643221 95.996018 
L 441.651078 94.72342 
L 444.658936 95.512396 
L 447.666793 97.642087 
L 450.674651 97.759269 
L 453.682508 94.669348 
L 456.690365 98.356753 
L 459.698223 98.179701 
L 462.70608 95.05781 
L 465.713938 95.069618 
L 468.721795 99.970543 
L 471.729653 96.192964 
L 480.753225 96.847721 
L 483.761083 97.191604 
L 486.76894 95.138336 
L 489.776798 95.776747 
L 492.784655 94.63656 
L 495.792513 96.044678 
L 498.80037 94.611704 
L 501.808228 99.849218 
L 504.816085 99.294275 
L 507.823942 96.786763 
L 510.8318 95.803421 
L 513.839657 95.859621 
L 516.847515 96.733628 
L 519.855372 97.123104 
L 522.86323 96.849391 
L 525.871087 94.686646 
L 528.878945 96.252891 
L 531.886802 98.933002 
L 534.89466 96.632672 
L 537.902517 95.888483 
L 540.910375 95.664254 
L 543.918232 98.138895 
L 546.92609 97.094644 
L 549.933947 97.049644 
L 552.941804 96.890204 
L 555.949662 96.874081 
L 558.957519 98.759488 
L 561.965377 97.263026 
L 564.973234 96.473517 
L 567.981092 98.264988 
L 570.988949 98.957848 
L 573.996807 96.01965 
L 577.004664 97.993129 
L 580.012522 96.685219 
L 586.028237 97.177133 
L 589.036094 97.10597 
L 592.043952 97.606782 
L 595.051809 99.157234 
L 598.059667 97.602338 
L 601.067524 97.854888 
L 604.075381 97.957504 
L 607.083239 96.819586 
L 610.091096 99.211138 
L 613.098954 97.267838 
L 616.106811 98.305906 
L 619.114669 98.903 
L 622.122526 98.249237 
L 625.130384 102.381813 
L 628.138241 97.422783 
L 631.146099 100.326257 
L 634.153956 96.65067 
L 637.161814 97.845448 
L 640.169671 100.971802 
L 643.177529 97.440544 
L 646.185386 98.451678 
L 649.193243 97.816028 
L 652.201101 96.836108 
L 655.208958 96.684694 
L 658.216816 99.750039 
L 661.224673 97.411996 
L 664.232531 99.143846 
L 667.240388 97.70058 
L 673.256103 100.555121 
L 676.263961 98.673984 
L 679.271818 100.415512 
L 679.271818 100.415512 
" style="fill:none;stroke:#9467bd;stroke-linecap:square;stroke-width:2;"/>
   </g>
   <g id="line2d_38">
    <path clip-path="url(#p39a79e1d48)" d="M 81.532619 433 
L 83.716039 178.891441 
L 86.723897 117.431142 
L 89.731754 97.34146 
L 92.739612 105.418934 
L 95.747469 72.419338 
L 98.755327 66.426228 
L 101.763184 70.877723 
L 104.771042 71.918616 
L 110.786757 78.428279 
L 113.794614 87.562458 
L 116.802471 92.221535 
L 119.810329 103.640396 
L 122.818186 104.520706 
L 125.826044 111.873783 
L 128.833901 113.080126 
L 131.841759 116.497058 
L 134.849616 123.454284 
L 137.857474 125.720818 
L 140.865331 125.904452 
L 143.873189 131.233902 
L 146.881046 128.404933 
L 149.888904 132.072296 
L 152.896761 132.679279 
L 155.904619 136.389774 
L 158.912476 136.071758 
L 161.920333 133.050816 
L 164.928191 143.816824 
L 167.936048 135.961707 
L 170.943906 144.940135 
L 173.951763 140.638156 
L 176.959621 142.73318 
L 179.967478 143.030013 
L 182.975336 148.3369 
L 185.983193 144.348771 
L 188.991051 149.243196 
L 191.998908 148.023627 
L 195.006766 151.684798 
L 198.014623 147.747928 
L 201.022481 151.802878 
L 204.030338 149.747625 
L 207.038196 148.152564 
L 210.046053 149.029078 
L 213.05391 152.933881 
L 216.061768 147.900768 
L 219.069625 151.208737 
L 222.077483 148.123296 
L 225.08534 150.682687 
L 228.093198 155.108136 
L 231.101055 153.82779 
L 234.108913 150.58185 
L 237.11677 152.606162 
L 240.124628 153.213426 
L 243.132485 151.386719 
L 246.140343 154.157824 
L 249.1482 155.100102 
L 252.156058 152.529538 
L 255.163915 155.362214 
L 258.171772 152.409058 
L 261.17963 152.182833 
L 264.187487 153.146541 
L 267.195345 160.692453 
L 270.203202 160.447872 
L 276.218917 155.416431 
L 279.226775 156.385395 
L 282.234632 154.166447 
L 285.24249 160.609439 
L 288.250347 157.463182 
L 291.258205 153.683863 
L 294.266062 157.931421 
L 297.27392 154.281827 
L 300.281777 154.673683 
L 303.289635 161.302139 
L 306.297492 161.608874 
L 309.305349 159.436954 
L 312.313207 155.344702 
L 315.321064 160.112906 
L 318.328922 160.339982 
L 321.336779 159.547337 
L 324.344637 158.510848 
L 327.352494 157.646454 
L 330.360352 154.923429 
L 333.368209 156.367751 
L 336.376067 160.591954 
L 339.383924 157.594674 
L 342.391782 158.453899 
L 345.399639 155.527179 
L 348.407497 157.879263 
L 351.415354 155.289615 
L 354.423212 159.513947 
L 357.431069 157.429339 
L 360.438926 159.581608 
L 363.446784 159.865616 
L 366.454641 162.788514 
L 369.462499 160.750541 
L 372.470356 159.427713 
L 375.478214 157.017359 
L 378.486071 156.340243 
L 381.493929 162.785264 
L 384.501786 164.016037 
L 387.509644 162.93245 
L 390.517501 164.289405 
L 393.525359 162.387417 
L 396.533216 161.109816 
L 399.541074 164.04998 
L 402.548931 158.244234 
L 405.556788 164.336009 
L 408.564646 159.399115 
L 411.572503 161.804272 
L 414.580361 159.513119 
L 417.588218 159.006898 
L 420.596076 163.710362 
L 423.603933 162.130348 
L 426.611791 161.044311 
L 429.619648 163.491835 
L 432.627506 158.22562 
L 435.635363 159.614304 
L 438.643221 163.724125 
L 441.651078 163.785598 
L 444.658936 160.499109 
L 447.666793 163.519356 
L 450.674651 160.14286 
L 453.682508 164.701971 
L 456.690365 162.335562 
L 459.698223 160.822309 
L 462.70608 161.693292 
L 465.713938 161.953164 
L 468.721795 159.626095 
L 471.729653 162.156101 
L 474.73751 161.120815 
L 477.745368 162.818486 
L 480.753225 159.302231 
L 483.761083 165.324128 
L 486.76894 163.454817 
L 489.776798 158.722907 
L 492.784655 159.051363 
L 495.792513 165.983093 
L 501.808228 159.537163 
L 504.816085 162.040244 
L 507.823942 164.219441 
L 510.8318 163.034119 
L 513.839657 165.995536 
L 516.847515 161.721157 
L 519.855372 161.462499 
L 522.86323 159.206144 
L 528.878945 160.931474 
L 531.886802 162.344718 
L 534.89466 160.670434 
L 537.902517 162.046811 
L 540.910375 163.546454 
L 543.918232 162.320863 
L 546.92609 164.848315 
L 549.933947 164.08329 
L 552.941804 164.876313 
L 555.949662 164.910532 
L 558.957519 163.276402 
L 561.965377 162.466401 
L 564.973234 165.291252 
L 567.981092 159.188737 
L 570.988949 165.704902 
L 573.996807 163.731757 
L 577.004664 165.137345 
L 580.012522 162.985361 
L 583.020379 167.11497 
L 586.028237 165.505442 
L 589.036094 162.791737 
L 592.043952 166.996645 
L 595.051809 165.232898 
L 598.059667 163.704934 
L 604.075381 164.418079 
L 607.083239 164.1767 
L 610.091096 164.767819 
L 613.098954 165.53478 
L 616.106811 164.130275 
L 619.114669 164.488106 
L 622.122526 164.660565 
L 625.130384 160.07435 
L 628.138241 164.003394 
L 631.146099 163.010539 
L 634.153956 167.507116 
L 637.161814 163.652322 
L 640.169671 162.45793 
L 643.177529 165.30383 
L 646.185386 161.675033 
L 649.193243 164.273982 
L 652.201101 163.742349 
L 655.208958 166.12096 
L 658.216816 166.084927 
L 661.224673 164.04621 
L 664.232531 164.334228 
L 667.240388 163.471054 
L 670.248246 161.743235 
L 673.256103 161.41622 
L 676.263961 164.038297 
L 679.271818 163.357751 
L 679.271818 163.357751 
" style="fill:none;stroke:#8c564b;stroke-linecap:square;stroke-width:2;"/>
   </g>
   <g id="patch_3">
    <path d="M 50.78 385.72 
L 50.78 29.76 
" style="fill:none;stroke:#000000;stroke-linecap:square;stroke-linejoin:miter;stroke-width:0.8;"/>
   </g>
   <g id="patch_4">
    <path d="M 709.2 385.72 
L 709.2 29.76 
" style="fill:none;stroke:#000000;stroke-linecap:square;stroke-linejoin:miter;stroke-width:0.8;"/>
   </g>
   <g id="patch_5">
    <path d="M 50.78 385.72 
L 709.2 385.72 
" style="fill:none;stroke:#000000;stroke-linecap:square;stroke-linejoin:miter;stroke-width:0.8;"/>
   </g>
   <g id="patch_6">
    <path d="M 50.78 29.76 
L 709.2 29.76 
" style="fill:none;stroke:#000000;stroke-linecap:square;stroke-linejoin:miter;stroke-width:0.8;"/>
   </g>
   <g id="text_19">
    <!-- PSNR vs Epochs for transfer masks -->
    <defs>
     <path id="DejaVuSans-32"/>
     <path d="M 2.984375 54.6875 
L 12.5 54.6875 
L 29.59375 8.796875 
L 46.6875 54.6875 
L 56.203125 54.6875 
L 35.6875 0 
L 23.484375 0 
z
" id="DejaVuSans-118"/>
     <path d="M 44.28125 53.078125 
L 44.28125 44.578125 
Q 40.484375 46.53125 36.375 47.5 
Q 32.28125 48.484375 27.875 48.484375 
Q 21.1875 48.484375 17.84375 46.4375 
Q 14.5 44.390625 14.5 40.28125 
Q 14.5 37.15625 16.890625 35.375 
Q 19.28125 33.59375 26.515625 31.984375 
L 29.59375 31.296875 
Q 39.15625 29.25 43.1875 25.515625 
Q 47.21875 21.78125 47.21875 15.09375 
Q 47.21875 7.46875 41.1875 3.015625 
Q 35.15625 -1.421875 24.609375 -1.421875 
Q 20.21875 -1.421875 15.453125 -0.5625 
Q 10.6875 0.296875 5.421875 2 
L 5.421875 11.28125 
Q 10.40625 8.6875 15.234375 7.390625 
Q 20.0625 6.109375 24.8125 6.109375 
Q 31.15625 6.109375 34.5625 8.28125 
Q 37.984375 10.453125 37.984375 14.40625 
Q 37.984375 18.0625 35.515625 20.015625 
Q 33.0625 21.96875 24.703125 23.78125 
L 21.578125 24.515625 
Q 13.234375 26.265625 9.515625 29.90625 
Q 5.8125 33.546875 5.8125 39.890625 
Q 5.8125 47.609375 11.28125 51.796875 
Q 16.75 56 26.8125 56 
Q 31.78125 56 36.171875 55.265625 
Q 40.578125 54.546875 44.28125 53.078125 
z
" id="DejaVuSans-115"/>
     <path d="M 37.109375 75.984375 
L 37.109375 68.5 
L 28.515625 68.5 
Q 23.6875 68.5 21.796875 66.546875 
Q 19.921875 64.59375 19.921875 59.515625 
L 19.921875 54.6875 
L 34.71875 54.6875 
L 34.71875 47.703125 
L 19.921875 47.703125 
L 19.921875 0 
L 10.890625 0 
L 10.890625 47.703125 
L 2.296875 47.703125 
L 2.296875 54.6875 
L 10.890625 54.6875 
L 10.890625 58.5 
Q 10.890625 67.625 15.140625 71.796875 
Q 19.390625 75.984375 28.609375 75.984375 
z
" id="DejaVuSans-102"/>
     <path d="M 41.109375 46.296875 
Q 39.59375 47.171875 37.8125 47.578125 
Q 36.03125 48 33.890625 48 
Q 26.265625 48 22.1875 43.046875 
Q 18.109375 38.09375 18.109375 28.8125 
L 18.109375 0 
L 9.078125 0 
L 9.078125 54.6875 
L 18.109375 54.6875 
L 18.109375 46.1875 
Q 20.953125 51.171875 25.484375 53.578125 
Q 30.03125 56 36.53125 56 
Q 37.453125 56 38.578125 55.875 
Q 39.703125 55.765625 41.0625 55.515625 
z
" id="DejaVuSans-114"/>
     <path d="M 18.3125 70.21875 
L 18.3125 54.6875 
L 36.8125 54.6875 
L 36.8125 47.703125 
L 18.3125 47.703125 
L 18.3125 18.015625 
Q 18.3125 11.328125 20.140625 9.421875 
Q 21.96875 7.515625 27.59375 7.515625 
L 36.8125 7.515625 
L 36.8125 0 
L 27.59375 0 
Q 17.1875 0 13.234375 3.875 
Q 9.28125 7.765625 9.28125 18.015625 
L 9.28125 47.703125 
L 2.6875 47.703125 
L 2.6875 54.6875 
L 9.28125 54.6875 
L 9.28125 70.21875 
z
" id="DejaVuSans-116"/>
     <path d="M 34.28125 27.484375 
Q 23.390625 27.484375 19.1875 25 
Q 14.984375 22.515625 14.984375 16.5 
Q 14.984375 11.71875 18.140625 8.90625 
Q 21.296875 6.109375 26.703125 6.109375 
Q 34.1875 6.109375 38.703125 11.40625 
Q 43.21875 16.703125 43.21875 25.484375 
L 43.21875 27.484375 
z
M 52.203125 31.203125 
L 52.203125 0 
L 43.21875 0 
L 43.21875 8.296875 
Q 40.140625 3.328125 35.546875 0.953125 
Q 30.953125 -1.421875 24.3125 -1.421875 
Q 15.921875 -1.421875 10.953125 3.296875 
Q 6 8.015625 6 15.921875 
Q 6 25.140625 12.171875 29.828125 
Q 18.359375 34.515625 30.609375 34.515625 
L 43.21875 34.515625 
L 43.21875 35.40625 
Q 43.21875 41.609375 39.140625 45 
Q 35.0625 48.390625 27.6875 48.390625 
Q 23 48.390625 18.546875 47.265625 
Q 14.109375 46.140625 10.015625 43.890625 
L 10.015625 52.203125 
Q 14.9375 54.109375 19.578125 55.046875 
Q 24.21875 56 28.609375 56 
Q 40.484375 56 46.34375 49.84375 
Q 52.203125 43.703125 52.203125 31.203125 
z
" id="DejaVuSans-97"/>
     <path d="M 54.890625 33.015625 
L 54.890625 0 
L 45.90625 0 
L 45.90625 32.71875 
Q 45.90625 40.484375 42.875 44.328125 
Q 39.84375 48.1875 33.796875 48.1875 
Q 26.515625 48.1875 22.3125 43.546875 
Q 18.109375 38.921875 18.109375 30.90625 
L 18.109375 0 
L 9.078125 0 
L 9.078125 54.6875 
L 18.109375 54.6875 
L 18.109375 46.1875 
Q 21.34375 51.125 25.703125 53.5625 
Q 30.078125 56 35.796875 56 
Q 45.21875 56 50.046875 50.171875 
Q 54.890625 44.34375 54.890625 33.015625 
z
" id="DejaVuSans-110"/>
     <path d="M 56.203125 29.59375 
L 56.203125 25.203125 
L 14.890625 25.203125 
Q 15.484375 15.921875 20.484375 11.0625 
Q 25.484375 6.203125 34.421875 6.203125 
Q 39.59375 6.203125 44.453125 7.46875 
Q 49.3125 8.734375 54.109375 11.28125 
L 54.109375 2.78125 
Q 49.265625 0.734375 44.1875 -0.34375 
Q 39.109375 -1.421875 33.890625 -1.421875 
Q 20.796875 -1.421875 13.15625 6.1875 
Q 5.515625 13.8125 5.515625 26.8125 
Q 5.515625 40.234375 12.765625 48.109375 
Q 20.015625 56 32.328125 56 
Q 43.359375 56 49.78125 48.890625 
Q 56.203125 41.796875 56.203125 29.59375 
z
M 47.21875 32.234375 
Q 47.125 39.59375 43.09375 43.984375 
Q 39.0625 48.390625 32.421875 48.390625 
Q 24.90625 48.390625 20.390625 44.140625 
Q 15.875 39.890625 15.1875 32.171875 
z
" id="DejaVuSans-101"/>
     <path d="M 52 44.1875 
Q 55.375 50.25 60.0625 53.125 
Q 64.75 56 71.09375 56 
Q 79.640625 56 84.28125 50.015625 
Q 88.921875 44.046875 88.921875 33.015625 
L 88.921875 0 
L 79.890625 0 
L 79.890625 32.71875 
Q 79.890625 40.578125 77.09375 44.375 
Q 74.3125 48.1875 68.609375 48.1875 
Q 61.625 48.1875 57.5625 43.546875 
Q 53.515625 38.921875 53.515625 30.90625 
L 53.515625 0 
L 44.484375 0 
L 44.484375 32.71875 
Q 44.484375 40.625 41.703125 44.40625 
Q 38.921875 48.1875 33.109375 48.1875 
Q 26.21875 48.1875 22.15625 43.53125 
Q 18.109375 38.875 18.109375 30.90625 
L 18.109375 0 
L 9.078125 0 
L 9.078125 54.6875 
L 18.109375 54.6875 
L 18.109375 46.1875 
Q 21.1875 51.21875 25.484375 53.609375 
Q 29.78125 56 35.6875 56 
Q 41.65625 56 45.828125 52.96875 
Q 50 49.953125 52 44.1875 
z
" id="DejaVuSans-109"/>
     <path d="M 9.078125 75.984375 
L 18.109375 75.984375 
L 18.109375 31.109375 
L 44.921875 54.6875 
L 56.390625 54.6875 
L 27.390625 29.109375 
L 57.625 0 
L 45.90625 0 
L 18.109375 26.703125 
L 18.109375 0 
L 9.078125 0 
z
" id="DejaVuSans-107"/>
    </defs>
    <g transform="translate(240.00875 23.76)scale(0.16 -0.16)">
     <use xlink:href="#DejaVuSans-80"/>
     <use x="60.302734" xlink:href="#DejaVuSans-83"/>
     <use x="123.779297" xlink:href="#DejaVuSans-78"/>
     <use x="198.583984" xlink:href="#DejaVuSans-82"/>
     <use x="268.066406" xlink:href="#DejaVuSans-32"/>
     <use x="299.853516" xlink:href="#DejaVuSans-118"/>
     <use x="359.033203" xlink:href="#DejaVuSans-115"/>
     <use x="411.132812" xlink:href="#DejaVuSans-32"/>
     <use x="442.919922" xlink:href="#DejaVuSans-69"/>
     <use x="506.103516" xlink:href="#DejaVuSans-112"/>
     <use x="569.580078" xlink:href="#DejaVuSans-111"/>
     <use x="630.761719" xlink:href="#DejaVuSans-99"/>
     <use x="685.742188" xlink:href="#DejaVuSans-104"/>
     <use x="749.121094" xlink:href="#DejaVuSans-115"/>
     <use x="801.220703" xlink:href="#DejaVuSans-32"/>
     <use x="833.007812" xlink:href="#DejaVuSans-102"/>
     <use x="868.212891" xlink:href="#DejaVuSans-111"/>
     <use x="929.394531" xlink:href="#DejaVuSans-114"/>
     <use x="970.507812" xlink:href="#DejaVuSans-32"/>
     <use x="1002.294922" xlink:href="#DejaVuSans-116"/>
     <use x="1041.503906" xlink:href="#DejaVuSans-114"/>
     <use x="1082.617188" xlink:href="#DejaVuSans-97"/>
     <use x="1143.896484" xlink:href="#DejaVuSans-110"/>
     <use x="1207.275391" xlink:href="#DejaVuSans-115"/>
     <use x="1259.375" xlink:href="#DejaVuSans-102"/>
     <use x="1294.580078" xlink:href="#DejaVuSans-101"/>
     <use x="1356.103516" xlink:href="#DejaVuSans-114"/>
     <use x="1397.216797" xlink:href="#DejaVuSans-32"/>
     <use x="1429.003906" xlink:href="#DejaVuSans-109"/>
     <use x="1526.416016" xlink:href="#DejaVuSans-97"/>
     <use x="1587.695312" xlink:href="#DejaVuSans-115"/>
     <use x="1639.794922" xlink:href="#DejaVuSans-107"/>
     <use x="1697.705078" xlink:href="#DejaVuSans-115"/>
    </g>
   </g>
   <g id="legend_1">
    <g id="patch_7">
     <path d="M 499.693125 379.72 
L 700.8 379.72 
Q 703.2 379.72 703.2 377.32 
L 703.2 272.8375 
Q 703.2 270.4375 700.8 270.4375 
L 499.693125 270.4375 
Q 497.293125 270.4375 497.293125 272.8375 
L 497.293125 377.32 
Q 497.293125 379.72 499.693125 379.72 
z
" style="fill:#ffffff;opacity:0.8;stroke:#cccccc;stroke-linejoin:miter;"/>
    </g>
    <g id="line2d_39">
     <path d="M 502.093125 280.155625 
L 526.093125 280.155625 
" style="fill:none;stroke:#1f77b4;stroke-linecap:square;stroke-width:2;"/>
    </g>
    <g id="line2d_40"/>
    <g id="text_20">
     <!-- OES-mask-self  -->
     <defs>
      <path d="M 39.40625 66.21875 
Q 28.65625 66.21875 22.328125 58.203125 
Q 16.015625 50.203125 16.015625 36.375 
Q 16.015625 22.609375 22.328125 14.59375 
Q 28.65625 6.59375 39.40625 6.59375 
Q 50.140625 6.59375 56.421875 14.59375 
Q 62.703125 22.609375 62.703125 36.375 
Q 62.703125 50.203125 56.421875 58.203125 
Q 50.140625 66.21875 39.40625 66.21875 
z
M 39.40625 74.21875 
Q 54.734375 74.21875 63.90625 63.9375 
Q 73.09375 53.65625 73.09375 36.375 
Q 73.09375 19.140625 63.90625 8.859375 
Q 54.734375 -1.421875 39.40625 -1.421875 
Q 24.03125 -1.421875 14.8125 8.828125 
Q 5.609375 19.09375 5.609375 36.375 
Q 5.609375 53.65625 14.8125 63.9375 
Q 24.03125 74.21875 39.40625 74.21875 
z
" id="DejaVuSans-79"/>
      <path d="M 4.890625 31.390625 
L 31.203125 31.390625 
L 31.203125 23.390625 
L 4.890625 23.390625 
z
" id="DejaVuSans-45"/>
      <path d="M 9.421875 75.984375 
L 18.40625 75.984375 
L 18.40625 0 
L 9.421875 0 
z
" id="DejaVuSans-108"/>
     </defs>
     <g transform="translate(535.693125 284.355625)scale(0.12 -0.12)">
      <use xlink:href="#DejaVuSans-79"/>
      <use x="78.710938" xlink:href="#DejaVuSans-69"/>
      <use x="141.894531" xlink:href="#DejaVuSans-83"/>
      <use x="205.371094" xlink:href="#DejaVuSans-45"/>
      <use x="241.455078" xlink:href="#DejaVuSans-109"/>
      <use x="338.867188" xlink:href="#DejaVuSans-97"/>
      <use x="400.146484" xlink:href="#DejaVuSans-115"/>
      <use x="452.246094" xlink:href="#DejaVuSans-107"/>
      <use x="510.15625" xlink:href="#DejaVuSans-45"/>
      <use x="546.240234" xlink:href="#DejaVuSans-115"/>
      <use x="598.339844" xlink:href="#DejaVuSans-101"/>
      <use x="659.863281" xlink:href="#DejaVuSans-108"/>
      <use x="687.646484" xlink:href="#DejaVuSans-102"/>
      <use x="722.851562" xlink:href="#DejaVuSans-32"/>
     </g>
    </g>
    <g id="line2d_41">
     <path d="M 502.093125 297.769375 
L 526.093125 297.769375 
" style="fill:none;stroke:#ff7f0e;stroke-linecap:square;stroke-width:2;"/>
    </g>
    <g id="line2d_42"/>
    <g id="text_21">
     <!-- IMP-mask (cross-dataset) -->
     <defs>
      <path d="M 9.8125 72.90625 
L 19.671875 72.90625 
L 19.671875 0 
L 9.8125 0 
z
" id="DejaVuSans-73"/>
      <path d="M 9.8125 72.90625 
L 24.515625 72.90625 
L 43.109375 23.296875 
L 61.8125 72.90625 
L 76.515625 72.90625 
L 76.515625 0 
L 66.890625 0 
L 66.890625 64.015625 
L 48.09375 14.015625 
L 38.1875 14.015625 
L 19.390625 64.015625 
L 19.390625 0 
L 9.8125 0 
z
" id="DejaVuSans-77"/>
      <path d="M 31 75.875 
Q 24.46875 64.65625 21.28125 53.65625 
Q 18.109375 42.671875 18.109375 31.390625 
Q 18.109375 20.125 21.3125 9.0625 
Q 24.515625 -2 31 -13.1875 
L 23.1875 -13.1875 
Q 15.875 -1.703125 12.234375 9.375 
Q 8.59375 20.453125 8.59375 31.390625 
Q 8.59375 42.28125 12.203125 53.3125 
Q 15.828125 64.359375 23.1875 75.875 
z
" id="DejaVuSans-40"/>
      <path d="M 45.40625 46.390625 
L 45.40625 75.984375 
L 54.390625 75.984375 
L 54.390625 0 
L 45.40625 0 
L 45.40625 8.203125 
Q 42.578125 3.328125 38.25 0.953125 
Q 33.9375 -1.421875 27.875 -1.421875 
Q 17.96875 -1.421875 11.734375 6.484375 
Q 5.515625 14.40625 5.515625 27.296875 
Q 5.515625 40.1875 11.734375 48.09375 
Q 17.96875 56 27.875 56 
Q 33.9375 56 38.25 53.625 
Q 42.578125 51.265625 45.40625 46.390625 
z
M 14.796875 27.296875 
Q 14.796875 17.390625 18.875 11.75 
Q 22.953125 6.109375 30.078125 6.109375 
Q 37.203125 6.109375 41.296875 11.75 
Q 45.40625 17.390625 45.40625 27.296875 
Q 45.40625 37.203125 41.296875 42.84375 
Q 37.203125 48.484375 30.078125 48.484375 
Q 22.953125 48.484375 18.875 42.84375 
Q 14.796875 37.203125 14.796875 27.296875 
z
" id="DejaVuSans-100"/>
      <path d="M 8.015625 75.875 
L 15.828125 75.875 
Q 23.140625 64.359375 26.78125 53.3125 
Q 30.421875 42.28125 30.421875 31.390625 
Q 30.421875 20.453125 26.78125 9.375 
Q 23.140625 -1.703125 15.828125 -13.1875 
L 8.015625 -13.1875 
Q 14.5 -2 17.703125 9.0625 
Q 20.90625 20.125 20.90625 31.390625 
Q 20.90625 42.671875 17.703125 53.65625 
Q 14.5 64.65625 8.015625 75.875 
z
" id="DejaVuSans-41"/>
     </defs>
     <g transform="translate(535.693125 301.969375)scale(0.12 -0.12)">
      <use xlink:href="#DejaVuSans-73"/>
      <use x="29.492188" xlink:href="#DejaVuSans-77"/>
      <use x="115.771484" xlink:href="#DejaVuSans-80"/>
      <use x="176.042969" xlink:href="#DejaVuSans-45"/>
      <use x="212.126953" xlink:href="#DejaVuSans-109"/>
      <use x="309.539062" xlink:href="#DejaVuSans-97"/>
      <use x="370.818359" xlink:href="#DejaVuSans-115"/>
      <use x="422.917969" xlink:href="#DejaVuSans-107"/>
      <use x="480.828125" xlink:href="#DejaVuSans-32"/>
      <use x="512.615234" xlink:href="#DejaVuSans-40"/>
      <use x="551.628906" xlink:href="#DejaVuSans-99"/>
      <use x="606.609375" xlink:href="#DejaVuSans-114"/>
      <use x="647.691406" xlink:href="#DejaVuSans-111"/>
      <use x="708.873047" xlink:href="#DejaVuSans-115"/>
      <use x="760.972656" xlink:href="#DejaVuSans-115"/>
      <use x="813.072266" xlink:href="#DejaVuSans-45"/>
      <use x="849.15625" xlink:href="#DejaVuSans-100"/>
      <use x="912.632812" xlink:href="#DejaVuSans-97"/>
      <use x="973.912109" xlink:href="#DejaVuSans-116"/>
      <use x="1013.121094" xlink:href="#DejaVuSans-97"/>
      <use x="1074.400391" xlink:href="#DejaVuSans-115"/>
      <use x="1126.5" xlink:href="#DejaVuSans-101"/>
      <use x="1188.023438" xlink:href="#DejaVuSans-116"/>
      <use x="1227.232422" xlink:href="#DejaVuSans-41"/>
     </g>
    </g>
    <g id="line2d_43">
     <path d="M 502.093125 315.383125 
L 526.093125 315.383125 
" style="fill:none;stroke:#2ca02c;stroke-linecap:square;stroke-width:2;"/>
    </g>
    <g id="line2d_44"/>
    <g id="text_22">
     <!-- OES-mask (cross dataset)  -->
     <g transform="translate(535.693125 319.583125)scale(0.12 -0.12)">
      <use xlink:href="#DejaVuSans-79"/>
      <use x="78.710938" xlink:href="#DejaVuSans-69"/>
      <use x="141.894531" xlink:href="#DejaVuSans-83"/>
      <use x="205.371094" xlink:href="#DejaVuSans-45"/>
      <use x="241.455078" xlink:href="#DejaVuSans-109"/>
      <use x="338.867188" xlink:href="#DejaVuSans-97"/>
      <use x="400.146484" xlink:href="#DejaVuSans-115"/>
      <use x="452.246094" xlink:href="#DejaVuSans-107"/>
      <use x="510.15625" xlink:href="#DejaVuSans-32"/>
      <use x="541.943359" xlink:href="#DejaVuSans-40"/>
      <use x="580.957031" xlink:href="#DejaVuSans-99"/>
      <use x="635.9375" xlink:href="#DejaVuSans-114"/>
      <use x="677.019531" xlink:href="#DejaVuSans-111"/>
      <use x="738.201172" xlink:href="#DejaVuSans-115"/>
      <use x="790.300781" xlink:href="#DejaVuSans-115"/>
      <use x="842.400391" xlink:href="#DejaVuSans-32"/>
      <use x="874.1875" xlink:href="#DejaVuSans-100"/>
      <use x="937.664062" xlink:href="#DejaVuSans-97"/>
      <use x="998.943359" xlink:href="#DejaVuSans-116"/>
      <use x="1038.152344" xlink:href="#DejaVuSans-97"/>
      <use x="1099.431641" xlink:href="#DejaVuSans-115"/>
      <use x="1151.53125" xlink:href="#DejaVuSans-101"/>
      <use x="1213.054688" xlink:href="#DejaVuSans-116"/>
      <use x="1252.263672" xlink:href="#DejaVuSans-41"/>
      <use x="1291.277344" xlink:href="#DejaVuSans-32"/>
     </g>
    </g>
    <g id="line2d_45">
     <path d="M 502.093125 332.996875 
L 526.093125 332.996875 
" style="fill:none;stroke:#d62728;stroke-linecap:square;stroke-width:2;"/>
    </g>
    <g id="line2d_46"/>
    <g id="text_23">
     <!-- IMP-mask-self -->
     <g transform="translate(535.693125 337.196875)scale(0.12 -0.12)">
      <use xlink:href="#DejaVuSans-73"/>
      <use x="29.492188" xlink:href="#DejaVuSans-77"/>
      <use x="115.771484" xlink:href="#DejaVuSans-80"/>
      <use x="176.042969" xlink:href="#DejaVuSans-45"/>
      <use x="212.126953" xlink:href="#DejaVuSans-109"/>
      <use x="309.539062" xlink:href="#DejaVuSans-97"/>
      <use x="370.818359" xlink:href="#DejaVuSans-115"/>
      <use x="422.917969" xlink:href="#DejaVuSans-107"/>
      <use x="480.828125" xlink:href="#DejaVuSans-45"/>
      <use x="516.912109" xlink:href="#DejaVuSans-115"/>
      <use x="569.011719" xlink:href="#DejaVuSans-101"/>
      <use x="630.535156" xlink:href="#DejaVuSans-108"/>
      <use x="658.318359" xlink:href="#DejaVuSans-102"/>
     </g>
    </g>
    <g id="line2d_47">
     <path d="M 502.093125 350.610625 
L 526.093125 350.610625 
" style="fill:none;stroke:#9467bd;stroke-linecap:square;stroke-width:2;"/>
    </g>
    <g id="line2d_48"/>
    <g id="text_24">
     <!-- OES-mask (inter dataaset)  -->
     <defs>
      <path d="M 9.421875 54.6875 
L 18.40625 54.6875 
L 18.40625 0 
L 9.421875 0 
z
M 9.421875 75.984375 
L 18.40625 75.984375 
L 18.40625 64.59375 
L 9.421875 64.59375 
z
" id="DejaVuSans-105"/>
     </defs>
     <g transform="translate(535.693125 354.810625)scale(0.12 -0.12)">
      <use xlink:href="#DejaVuSans-79"/>
      <use x="78.710938" xlink:href="#DejaVuSans-69"/>
      <use x="141.894531" xlink:href="#DejaVuSans-83"/>
      <use x="205.371094" xlink:href="#DejaVuSans-45"/>
      <use x="241.455078" xlink:href="#DejaVuSans-109"/>
      <use x="338.867188" xlink:href="#DejaVuSans-97"/>
      <use x="400.146484" xlink:href="#DejaVuSans-115"/>
      <use x="452.246094" xlink:href="#DejaVuSans-107"/>
      <use x="510.15625" xlink:href="#DejaVuSans-32"/>
      <use x="541.943359" xlink:href="#DejaVuSans-40"/>
      <use x="580.957031" xlink:href="#DejaVuSans-105"/>
      <use x="608.740234" xlink:href="#DejaVuSans-110"/>
      <use x="672.119141" xlink:href="#DejaVuSans-116"/>
      <use x="711.328125" xlink:href="#DejaVuSans-101"/>
      <use x="772.851562" xlink:href="#DejaVuSans-114"/>
      <use x="813.964844" xlink:href="#DejaVuSans-32"/>
      <use x="845.751953" xlink:href="#DejaVuSans-100"/>
      <use x="909.228516" xlink:href="#DejaVuSans-97"/>
      <use x="970.507812" xlink:href="#DejaVuSans-116"/>
      <use x="1009.716797" xlink:href="#DejaVuSans-97"/>
      <use x="1070.996094" xlink:href="#DejaVuSans-97"/>
      <use x="1132.275391" xlink:href="#DejaVuSans-115"/>
      <use x="1184.375" xlink:href="#DejaVuSans-101"/>
      <use x="1245.898438" xlink:href="#DejaVuSans-116"/>
      <use x="1285.107422" xlink:href="#DejaVuSans-41"/>
      <use x="1324.121094" xlink:href="#DejaVuSans-32"/>
     </g>
    </g>
    <g id="line2d_49">
     <path d="M 502.093125 368.224375 
L 526.093125 368.224375 
" style="fill:none;stroke:#8c564b;stroke-linecap:square;stroke-width:2;"/>
    </g>
    <g id="line2d_50"/>
    <g id="text_25">
     <!-- IMP-mask (inter dataaset) -->
     <g transform="translate(535.693125 372.424375)scale(0.12 -0.12)">
      <use xlink:href="#DejaVuSans-73"/>
      <use x="29.492188" xlink:href="#DejaVuSans-77"/>
      <use x="115.771484" xlink:href="#DejaVuSans-80"/>
      <use x="176.042969" xlink:href="#DejaVuSans-45"/>
      <use x="212.126953" xlink:href="#DejaVuSans-109"/>
      <use x="309.539062" xlink:href="#DejaVuSans-97"/>
      <use x="370.818359" xlink:href="#DejaVuSans-115"/>
      <use x="422.917969" xlink:href="#DejaVuSans-107"/>
      <use x="480.828125" xlink:href="#DejaVuSans-32"/>
      <use x="512.615234" xlink:href="#DejaVuSans-40"/>
      <use x="551.628906" xlink:href="#DejaVuSans-105"/>
      <use x="579.412109" xlink:href="#DejaVuSans-110"/>
      <use x="642.791016" xlink:href="#DejaVuSans-116"/>
      <use x="682" xlink:href="#DejaVuSans-101"/>
      <use x="743.523438" xlink:href="#DejaVuSans-114"/>
      <use x="784.636719" xlink:href="#DejaVuSans-32"/>
      <use x="816.423828" xlink:href="#DejaVuSans-100"/>
      <use x="879.900391" xlink:href="#DejaVuSans-97"/>
      <use x="941.179688" xlink:href="#DejaVuSans-116"/>
      <use x="980.388672" xlink:href="#DejaVuSans-97"/>
      <use x="1041.667969" xlink:href="#DejaVuSans-97"/>
      <use x="1102.947266" xlink:href="#DejaVuSans-115"/>
      <use x="1155.046875" xlink:href="#DejaVuSans-101"/>
      <use x="1216.570312" xlink:href="#DejaVuSans-116"/>
      <use x="1255.779297" xlink:href="#DejaVuSans-41"/>
     </g>
    </g>
   </g>
  </g>
 </g>
 <defs>
  <clipPath id="p39a79e1d48">
   <rect height="355.96" width="658.42" x="50.78" y="29.76"/>
  </clipPath>
 </defs>
</svg>
