<?xml version="1.0" encoding="utf-8" standalone="no"?>
<!DOCTYPE svg PUBLIC "-//W3C//DTD SVG 1.1//EN"
  "http://www.w3.org/Graphics/SVG/1.1/DTD/svg11.dtd">
<!-- Created with matplotlib (https://matplotlib.org/) -->
<svg height="432pt" version="1.1" viewBox="0 0 720 432" width="720pt" xmlns="http://www.w3.org/2000/svg" xmlns:xlink="http://www.w3.org/1999/xlink">
 <defs>
  <style type="text/css">
*{stroke-linecap:butt;stroke-linejoin:round;}
  </style>
 </defs>
 <g id="figure_1">
  <g id="patch_1">
   <path d="M 0 432 
L 720 432 
L 720 0 
L 0 0 
z
" style="fill:#ffffff;"/>
  </g>
  <g id="axes_1">
   <g id="patch_2">
    <path d="M 50.78 385.72 
L 709.2 385.72 
L 709.2 29.76 
L 50.78 29.76 
z
" style="fill:#ffffff;"/>
   </g>
   <g id="matplotlib.axis_1">
    <g id="xtick_1">
     <g id="line2d_1">
      <path clip-path="url(#p9e22ef8b92)" d="M 80.708182 385.72 
L 80.708182 29.76 
" style="fill:none;stroke:#b0b0b0;stroke-linecap:square;stroke-width:0.8;"/>
     </g>
     <g id="line2d_2">
      <defs>
       <path d="M 0 0 
L 0 3.5 
" id="md1ca2691d8" style="stroke:#000000;stroke-width:0.8;"/>
      </defs>
      <g>
       <use style="stroke:#000000;stroke-width:0.8;" x="80.708182" xlink:href="#md1ca2691d8" y="385.72"/>
      </g>
     </g>
     <g id="text_1">
      <!-- 0 -->
      <defs>
       <path d="M 31.78125 66.40625 
Q 24.171875 66.40625 20.328125 58.90625 
Q 16.5 51.421875 16.5 36.375 
Q 16.5 21.390625 20.328125 13.890625 
Q 24.171875 6.390625 31.78125 6.390625 
Q 39.453125 6.390625 43.28125 13.890625 
Q 47.125 21.390625 47.125 36.375 
Q 47.125 51.421875 43.28125 58.90625 
Q 39.453125 66.40625 31.78125 66.40625 
z
M 31.78125 74.21875 
Q 44.046875 74.21875 50.515625 64.515625 
Q 56.984375 54.828125 56.984375 36.375 
Q 56.984375 17.96875 50.515625 8.265625 
Q 44.046875 -1.421875 31.78125 -1.421875 
Q 19.53125 -1.421875 13.0625 8.265625 
Q 6.59375 17.96875 6.59375 36.375 
Q 6.59375 54.828125 13.0625 64.515625 
Q 19.53125 74.21875 31.78125 74.21875 
z
" id="DejaVuSans-48"/>
      </defs>
      <g transform="translate(76.890682 401.838125)scale(0.12 -0.12)">
       <use xlink:href="#DejaVuSans-48"/>
      </g>
     </g>
    </g>
    <g id="xtick_2">
     <g id="line2d_3">
      <path clip-path="url(#p9e22ef8b92)" d="M 155.904619 385.72 
L 155.904619 29.76 
" style="fill:none;stroke:#b0b0b0;stroke-linecap:square;stroke-width:0.8;"/>
     </g>
     <g id="line2d_4">
      <g>
       <use style="stroke:#000000;stroke-width:0.8;" x="155.904619" xlink:href="#md1ca2691d8" y="385.72"/>
      </g>
     </g>
     <g id="text_2">
      <!-- 5000 -->
      <defs>
       <path d="M 10.796875 72.90625 
L 49.515625 72.90625 
L 49.515625 64.59375 
L 19.828125 64.59375 
L 19.828125 46.734375 
Q 21.96875 47.46875 24.109375 47.828125 
Q 26.265625 48.1875 28.421875 48.1875 
Q 40.625 48.1875 47.75 41.5 
Q 54.890625 34.8125 54.890625 23.390625 
Q 54.890625 11.625 47.5625 5.09375 
Q 40.234375 -1.421875 26.90625 -1.421875 
Q 22.3125 -1.421875 17.546875 -0.640625 
Q 12.796875 0.140625 7.71875 1.703125 
L 7.71875 11.625 
Q 12.109375 9.234375 16.796875 8.0625 
Q 21.484375 6.890625 26.703125 6.890625 
Q 35.15625 6.890625 40.078125 11.328125 
Q 45.015625 15.765625 45.015625 23.390625 
Q 45.015625 31 40.078125 35.4375 
Q 35.15625 39.890625 26.703125 39.890625 
Q 22.75 39.890625 18.8125 39.015625 
Q 14.890625 38.140625 10.796875 36.28125 
z
" id="DejaVuSans-53"/>
      </defs>
      <g transform="translate(140.634619 401.838125)scale(0.12 -0.12)">
       <use xlink:href="#DejaVuSans-53"/>
       <use x="63.623047" xlink:href="#DejaVuSans-48"/>
       <use x="127.246094" xlink:href="#DejaVuSans-48"/>
       <use x="190.869141" xlink:href="#DejaVuSans-48"/>
      </g>
     </g>
    </g>
    <g id="xtick_3">
     <g id="line2d_5">
      <path clip-path="url(#p9e22ef8b92)" d="M 231.101055 385.72 
L 231.101055 29.76 
" style="fill:none;stroke:#b0b0b0;stroke-linecap:square;stroke-width:0.8;"/>
     </g>
     <g id="line2d_6">
      <g>
       <use style="stroke:#000000;stroke-width:0.8;" x="231.101055" xlink:href="#md1ca2691d8" y="385.72"/>
      </g>
     </g>
     <g id="text_3">
      <!-- 10000 -->
      <defs>
       <path d="M 12.40625 8.296875 
L 28.515625 8.296875 
L 28.515625 63.921875 
L 10.984375 60.40625 
L 10.984375 69.390625 
L 28.421875 72.90625 
L 38.28125 72.90625 
L 38.28125 8.296875 
L 54.390625 8.296875 
L 54.390625 0 
L 12.40625 0 
z
" id="DejaVuSans-49"/>
      </defs>
      <g transform="translate(212.013555 401.838125)scale(0.12 -0.12)">
       <use xlink:href="#DejaVuSans-49"/>
       <use x="63.623047" xlink:href="#DejaVuSans-48"/>
       <use x="127.246094" xlink:href="#DejaVuSans-48"/>
       <use x="190.869141" xlink:href="#DejaVuSans-48"/>
       <use x="254.492188" xlink:href="#DejaVuSans-48"/>
      </g>
     </g>
    </g>
    <g id="xtick_4">
     <g id="line2d_7">
      <path clip-path="url(#p9e22ef8b92)" d="M 306.297492 385.72 
L 306.297492 29.76 
" style="fill:none;stroke:#b0b0b0;stroke-linecap:square;stroke-width:0.8;"/>
     </g>
     <g id="line2d_8">
      <g>
       <use style="stroke:#000000;stroke-width:0.8;" x="306.297492" xlink:href="#md1ca2691d8" y="385.72"/>
      </g>
     </g>
     <g id="text_4">
      <!-- 15000 -->
      <g transform="translate(287.209992 401.838125)scale(0.12 -0.12)">
       <use xlink:href="#DejaVuSans-49"/>
       <use x="63.623047" xlink:href="#DejaVuSans-53"/>
       <use x="127.246094" xlink:href="#DejaVuSans-48"/>
       <use x="190.869141" xlink:href="#DejaVuSans-48"/>
       <use x="254.492188" xlink:href="#DejaVuSans-48"/>
      </g>
     </g>
    </g>
    <g id="xtick_5">
     <g id="line2d_9">
      <path clip-path="url(#p9e22ef8b92)" d="M 381.493929 385.72 
L 381.493929 29.76 
" style="fill:none;stroke:#b0b0b0;stroke-linecap:square;stroke-width:0.8;"/>
     </g>
     <g id="line2d_10">
      <g>
       <use style="stroke:#000000;stroke-width:0.8;" x="381.493929" xlink:href="#md1ca2691d8" y="385.72"/>
      </g>
     </g>
     <g id="text_5">
      <!-- 20000 -->
      <defs>
       <path d="M 19.1875 8.296875 
L 53.609375 8.296875 
L 53.609375 0 
L 7.328125 0 
L 7.328125 8.296875 
Q 12.9375 14.109375 22.625 23.890625 
Q 32.328125 33.6875 34.8125 36.53125 
Q 39.546875 41.84375 41.421875 45.53125 
Q 43.3125 49.21875 43.3125 52.78125 
Q 43.3125 58.59375 39.234375 62.25 
Q 35.15625 65.921875 28.609375 65.921875 
Q 23.96875 65.921875 18.8125 64.3125 
Q 13.671875 62.703125 7.8125 59.421875 
L 7.8125 69.390625 
Q 13.765625 71.78125 18.9375 73 
Q 24.125 74.21875 28.421875 74.21875 
Q 39.75 74.21875 46.484375 68.546875 
Q 53.21875 62.890625 53.21875 53.421875 
Q 53.21875 48.921875 51.53125 44.890625 
Q 49.859375 40.875 45.40625 35.40625 
Q 44.1875 33.984375 37.640625 27.21875 
Q 31.109375 20.453125 19.1875 8.296875 
z
" id="DejaVuSans-50"/>
      </defs>
      <g transform="translate(362.406429 401.838125)scale(0.12 -0.12)">
       <use xlink:href="#DejaVuSans-50"/>
       <use x="63.623047" xlink:href="#DejaVuSans-48"/>
       <use x="127.246094" xlink:href="#DejaVuSans-48"/>
       <use x="190.869141" xlink:href="#DejaVuSans-48"/>
       <use x="254.492188" xlink:href="#DejaVuSans-48"/>
      </g>
     </g>
    </g>
    <g id="xtick_6">
     <g id="line2d_11">
      <path clip-path="url(#p9e22ef8b92)" d="M 456.690365 385.72 
L 456.690365 29.76 
" style="fill:none;stroke:#b0b0b0;stroke-linecap:square;stroke-width:0.8;"/>
     </g>
     <g id="line2d_12">
      <g>
       <use style="stroke:#000000;stroke-width:0.8;" x="456.690365" xlink:href="#md1ca2691d8" y="385.72"/>
      </g>
     </g>
     <g id="text_6">
      <!-- 25000 -->
      <g transform="translate(437.602865 401.838125)scale(0.12 -0.12)">
       <use xlink:href="#DejaVuSans-50"/>
       <use x="63.623047" xlink:href="#DejaVuSans-53"/>
       <use x="127.246094" xlink:href="#DejaVuSans-48"/>
       <use x="190.869141" xlink:href="#DejaVuSans-48"/>
       <use x="254.492188" xlink:href="#DejaVuSans-48"/>
      </g>
     </g>
    </g>
    <g id="xtick_7">
     <g id="line2d_13">
      <path clip-path="url(#p9e22ef8b92)" d="M 531.886802 385.72 
L 531.886802 29.76 
" style="fill:none;stroke:#b0b0b0;stroke-linecap:square;stroke-width:0.8;"/>
     </g>
     <g id="line2d_14">
      <g>
       <use style="stroke:#000000;stroke-width:0.8;" x="531.886802" xlink:href="#md1ca2691d8" y="385.72"/>
      </g>
     </g>
     <g id="text_7">
      <!-- 30000 -->
      <defs>
       <path d="M 40.578125 39.3125 
Q 47.65625 37.796875 51.625 33 
Q 55.609375 28.21875 55.609375 21.1875 
Q 55.609375 10.40625 48.1875 4.484375 
Q 40.765625 -1.421875 27.09375 -1.421875 
Q 22.515625 -1.421875 17.65625 -0.515625 
Q 12.796875 0.390625 7.625 2.203125 
L 7.625 11.71875 
Q 11.71875 9.328125 16.59375 8.109375 
Q 21.484375 6.890625 26.8125 6.890625 
Q 36.078125 6.890625 40.9375 10.546875 
Q 45.796875 14.203125 45.796875 21.1875 
Q 45.796875 27.640625 41.28125 31.265625 
Q 36.765625 34.90625 28.71875 34.90625 
L 20.21875 34.90625 
L 20.21875 43.015625 
L 29.109375 43.015625 
Q 36.375 43.015625 40.234375 45.921875 
Q 44.09375 48.828125 44.09375 54.296875 
Q 44.09375 59.90625 40.109375 62.90625 
Q 36.140625 65.921875 28.71875 65.921875 
Q 24.65625 65.921875 20.015625 65.03125 
Q 15.375 64.15625 9.8125 62.3125 
L 9.8125 71.09375 
Q 15.4375 72.65625 20.34375 73.4375 
Q 25.25 74.21875 29.59375 74.21875 
Q 40.828125 74.21875 47.359375 69.109375 
Q 53.90625 64.015625 53.90625 55.328125 
Q 53.90625 49.265625 50.4375 45.09375 
Q 46.96875 40.921875 40.578125 39.3125 
z
" id="DejaVuSans-51"/>
      </defs>
      <g transform="translate(512.799302 401.838125)scale(0.12 -0.12)">
       <use xlink:href="#DejaVuSans-51"/>
       <use x="63.623047" xlink:href="#DejaVuSans-48"/>
       <use x="127.246094" xlink:href="#DejaVuSans-48"/>
       <use x="190.869141" xlink:href="#DejaVuSans-48"/>
       <use x="254.492188" xlink:href="#DejaVuSans-48"/>
      </g>
     </g>
    </g>
    <g id="xtick_8">
     <g id="line2d_15">
      <path clip-path="url(#p9e22ef8b92)" d="M 607.083239 385.72 
L 607.083239 29.76 
" style="fill:none;stroke:#b0b0b0;stroke-linecap:square;stroke-width:0.8;"/>
     </g>
     <g id="line2d_16">
      <g>
       <use style="stroke:#000000;stroke-width:0.8;" x="607.083239" xlink:href="#md1ca2691d8" y="385.72"/>
      </g>
     </g>
     <g id="text_8">
      <!-- 35000 -->
      <g transform="translate(587.995739 401.838125)scale(0.12 -0.12)">
       <use xlink:href="#DejaVuSans-51"/>
       <use x="63.623047" xlink:href="#DejaVuSans-53"/>
       <use x="127.246094" xlink:href="#DejaVuSans-48"/>
       <use x="190.869141" xlink:href="#DejaVuSans-48"/>
       <use x="254.492188" xlink:href="#DejaVuSans-48"/>
      </g>
     </g>
    </g>
    <g id="xtick_9">
     <g id="line2d_17">
      <path clip-path="url(#p9e22ef8b92)" d="M 682.279676 385.72 
L 682.279676 29.76 
" style="fill:none;stroke:#b0b0b0;stroke-linecap:square;stroke-width:0.8;"/>
     </g>
     <g id="line2d_18">
      <g>
       <use style="stroke:#000000;stroke-width:0.8;" x="682.279676" xlink:href="#md1ca2691d8" y="385.72"/>
      </g>
     </g>
     <g id="text_9">
      <!-- 40000 -->
      <defs>
       <path d="M 37.796875 64.3125 
L 12.890625 25.390625 
L 37.796875 25.390625 
z
M 35.203125 72.90625 
L 47.609375 72.90625 
L 47.609375 25.390625 
L 58.015625 25.390625 
L 58.015625 17.1875 
L 47.609375 17.1875 
L 47.609375 0 
L 37.796875 0 
L 37.796875 17.1875 
L 4.890625 17.1875 
L 4.890625 26.703125 
z
" id="DejaVuSans-52"/>
      </defs>
      <g transform="translate(663.192176 401.838125)scale(0.12 -0.12)">
       <use xlink:href="#DejaVuSans-52"/>
       <use x="63.623047" xlink:href="#DejaVuSans-48"/>
       <use x="127.246094" xlink:href="#DejaVuSans-48"/>
       <use x="190.869141" xlink:href="#DejaVuSans-48"/>
       <use x="254.492188" xlink:href="#DejaVuSans-48"/>
      </g>
     </g>
    </g>
    <g id="text_10">
     <!-- Epoch -->
     <defs>
      <path d="M 9.8125 72.90625 
L 55.90625 72.90625 
L 55.90625 64.59375 
L 19.671875 64.59375 
L 19.671875 43.015625 
L 54.390625 43.015625 
L 54.390625 34.71875 
L 19.671875 34.71875 
L 19.671875 8.296875 
L 56.78125 8.296875 
L 56.78125 0 
L 9.8125 0 
z
" id="DejaVuSans-69"/>
      <path d="M 18.109375 8.203125 
L 18.109375 -20.796875 
L 9.078125 -20.796875 
L 9.078125 54.6875 
L 18.109375 54.6875 
L 18.109375 46.390625 
Q 20.953125 51.265625 25.265625 53.625 
Q 29.59375 56 35.59375 56 
Q 45.5625 56 51.78125 48.09375 
Q 58.015625 40.1875 58.015625 27.296875 
Q 58.015625 14.40625 51.78125 6.484375 
Q 45.5625 -1.421875 35.59375 -1.421875 
Q 29.59375 -1.421875 25.265625 0.953125 
Q 20.953125 3.328125 18.109375 8.203125 
z
M 48.6875 27.296875 
Q 48.6875 37.203125 44.609375 42.84375 
Q 40.53125 48.484375 33.40625 48.484375 
Q 26.265625 48.484375 22.1875 42.84375 
Q 18.109375 37.203125 18.109375 27.296875 
Q 18.109375 17.390625 22.1875 11.75 
Q 26.265625 6.109375 33.40625 6.109375 
Q 40.53125 6.109375 44.609375 11.75 
Q 48.6875 17.390625 48.6875 27.296875 
z
" id="DejaVuSans-112"/>
      <path d="M 30.609375 48.390625 
Q 23.390625 48.390625 19.1875 42.75 
Q 14.984375 37.109375 14.984375 27.296875 
Q 14.984375 17.484375 19.15625 11.84375 
Q 23.34375 6.203125 30.609375 6.203125 
Q 37.796875 6.203125 41.984375 11.859375 
Q 46.1875 17.53125 46.1875 27.296875 
Q 46.1875 37.015625 41.984375 42.703125 
Q 37.796875 48.390625 30.609375 48.390625 
z
M 30.609375 56 
Q 42.328125 56 49.015625 48.375 
Q 55.71875 40.765625 55.71875 27.296875 
Q 55.71875 13.875 49.015625 6.21875 
Q 42.328125 -1.421875 30.609375 -1.421875 
Q 18.84375 -1.421875 12.171875 6.21875 
Q 5.515625 13.875 5.515625 27.296875 
Q 5.515625 40.765625 12.171875 48.375 
Q 18.84375 56 30.609375 56 
z
" id="DejaVuSans-111"/>
      <path d="M 48.78125 52.59375 
L 48.78125 44.1875 
Q 44.96875 46.296875 41.140625 47.34375 
Q 37.3125 48.390625 33.40625 48.390625 
Q 24.65625 48.390625 19.8125 42.84375 
Q 14.984375 37.3125 14.984375 27.296875 
Q 14.984375 17.28125 19.8125 11.734375 
Q 24.65625 6.203125 33.40625 6.203125 
Q 37.3125 6.203125 41.140625 7.25 
Q 44.96875 8.296875 48.78125 10.40625 
L 48.78125 2.09375 
Q 45.015625 0.34375 40.984375 -0.53125 
Q 36.96875 -1.421875 32.421875 -1.421875 
Q 20.0625 -1.421875 12.78125 6.34375 
Q 5.515625 14.109375 5.515625 27.296875 
Q 5.515625 40.671875 12.859375 48.328125 
Q 20.21875 56 33.015625 56 
Q 37.15625 56 41.109375 55.140625 
Q 45.0625 54.296875 48.78125 52.59375 
z
" id="DejaVuSans-99"/>
      <path d="M 54.890625 33.015625 
L 54.890625 0 
L 45.90625 0 
L 45.90625 32.71875 
Q 45.90625 40.484375 42.875 44.328125 
Q 39.84375 48.1875 33.796875 48.1875 
Q 26.515625 48.1875 22.3125 43.546875 
Q 18.109375 38.921875 18.109375 30.90625 
L 18.109375 0 
L 9.078125 0 
L 9.078125 75.984375 
L 18.109375 75.984375 
L 18.109375 46.1875 
Q 21.34375 51.125 25.703125 53.5625 
Q 30.078125 56 35.796875 56 
Q 45.21875 56 50.046875 50.171875 
Q 54.890625 44.34375 54.890625 33.015625 
z
" id="DejaVuSans-104"/>
     </defs>
     <g transform="translate(358.554688 418.971563)scale(0.14 -0.14)">
      <use xlink:href="#DejaVuSans-69"/>
      <use x="63.183594" xlink:href="#DejaVuSans-112"/>
      <use x="126.660156" xlink:href="#DejaVuSans-111"/>
      <use x="187.841797" xlink:href="#DejaVuSans-99"/>
      <use x="242.822266" xlink:href="#DejaVuSans-104"/>
     </g>
    </g>
   </g>
   <g id="matplotlib.axis_2">
    <g id="ytick_1">
     <g id="line2d_19">
      <path clip-path="url(#p9e22ef8b92)" d="M 50.78 385.72 
L 709.2 385.72 
" style="fill:none;stroke:#b0b0b0;stroke-linecap:square;stroke-width:0.8;"/>
     </g>
     <g id="line2d_20">
      <defs>
       <path d="M 0 0 
L -3.5 0 
" id="m7433a530b1" style="stroke:#000000;stroke-width:0.8;"/>
      </defs>
      <g>
       <use style="stroke:#000000;stroke-width:0.8;" x="50.78" xlink:href="#m7433a530b1" y="385.72"/>
      </g>
     </g>
     <g id="text_11">
      <!-- 18 -->
      <defs>
       <path d="M 31.78125 34.625 
Q 24.75 34.625 20.71875 30.859375 
Q 16.703125 27.09375 16.703125 20.515625 
Q 16.703125 13.921875 20.71875 10.15625 
Q 24.75 6.390625 31.78125 6.390625 
Q 38.8125 6.390625 42.859375 10.171875 
Q 46.921875 13.96875 46.921875 20.515625 
Q 46.921875 27.09375 42.890625 30.859375 
Q 38.875 34.625 31.78125 34.625 
z
M 21.921875 38.8125 
Q 15.578125 40.375 12.03125 44.71875 
Q 8.5 49.078125 8.5 55.328125 
Q 8.5 64.0625 14.71875 69.140625 
Q 20.953125 74.21875 31.78125 74.21875 
Q 42.671875 74.21875 48.875 69.140625 
Q 55.078125 64.0625 55.078125 55.328125 
Q 55.078125 49.078125 51.53125 44.71875 
Q 48 40.375 41.703125 38.8125 
Q 48.828125 37.15625 52.796875 32.3125 
Q 56.78125 27.484375 56.78125 20.515625 
Q 56.78125 9.90625 50.3125 4.234375 
Q 43.84375 -1.421875 31.78125 -1.421875 
Q 19.734375 -1.421875 13.25 4.234375 
Q 6.78125 9.90625 6.78125 20.515625 
Q 6.78125 27.484375 10.78125 32.3125 
Q 14.796875 37.15625 21.921875 38.8125 
z
M 18.3125 54.390625 
Q 18.3125 48.734375 21.84375 45.5625 
Q 25.390625 42.390625 31.78125 42.390625 
Q 38.140625 42.390625 41.71875 45.5625 
Q 45.3125 48.734375 45.3125 54.390625 
Q 45.3125 60.0625 41.71875 63.234375 
Q 38.140625 66.40625 31.78125 66.40625 
Q 25.390625 66.40625 21.84375 63.234375 
Q 18.3125 60.0625 18.3125 54.390625 
z
" id="DejaVuSans-56"/>
      </defs>
      <g transform="translate(28.51 390.279063)scale(0.12 -0.12)">
       <use xlink:href="#DejaVuSans-49"/>
       <use x="63.623047" xlink:href="#DejaVuSans-56"/>
      </g>
     </g>
    </g>
    <g id="ytick_2">
     <g id="line2d_21">
      <path clip-path="url(#p9e22ef8b92)" d="M 50.78 338.258667 
L 709.2 338.258667 
" style="fill:none;stroke:#b0b0b0;stroke-linecap:square;stroke-width:0.8;"/>
     </g>
     <g id="line2d_22">
      <g>
       <use style="stroke:#000000;stroke-width:0.8;" x="50.78" xlink:href="#m7433a530b1" y="338.258667"/>
      </g>
     </g>
     <g id="text_12">
      <!-- 20 -->
      <g transform="translate(28.51 342.817729)scale(0.12 -0.12)">
       <use xlink:href="#DejaVuSans-50"/>
       <use x="63.623047" xlink:href="#DejaVuSans-48"/>
      </g>
     </g>
    </g>
    <g id="ytick_3">
     <g id="line2d_23">
      <path clip-path="url(#p9e22ef8b92)" d="M 50.78 290.797333 
L 709.2 290.797333 
" style="fill:none;stroke:#b0b0b0;stroke-linecap:square;stroke-width:0.8;"/>
     </g>
     <g id="line2d_24">
      <g>
       <use style="stroke:#000000;stroke-width:0.8;" x="50.78" xlink:href="#m7433a530b1" y="290.797333"/>
      </g>
     </g>
     <g id="text_13">
      <!-- 22 -->
      <g transform="translate(28.51 295.356396)scale(0.12 -0.12)">
       <use xlink:href="#DejaVuSans-50"/>
       <use x="63.623047" xlink:href="#DejaVuSans-50"/>
      </g>
     </g>
    </g>
    <g id="ytick_4">
     <g id="line2d_25">
      <path clip-path="url(#p9e22ef8b92)" d="M 50.78 243.336 
L 709.2 243.336 
" style="fill:none;stroke:#b0b0b0;stroke-linecap:square;stroke-width:0.8;"/>
     </g>
     <g id="line2d_26">
      <g>
       <use style="stroke:#000000;stroke-width:0.8;" x="50.78" xlink:href="#m7433a530b1" y="243.336"/>
      </g>
     </g>
     <g id="text_14">
      <!-- 24 -->
      <g transform="translate(28.51 247.895063)scale(0.12 -0.12)">
       <use xlink:href="#DejaVuSans-50"/>
       <use x="63.623047" xlink:href="#DejaVuSans-52"/>
      </g>
     </g>
    </g>
    <g id="ytick_5">
     <g id="line2d_27">
      <path clip-path="url(#p9e22ef8b92)" d="M 50.78 195.874667 
L 709.2 195.874667 
" style="fill:none;stroke:#b0b0b0;stroke-linecap:square;stroke-width:0.8;"/>
     </g>
     <g id="line2d_28">
      <g>
       <use style="stroke:#000000;stroke-width:0.8;" x="50.78" xlink:href="#m7433a530b1" y="195.874667"/>
      </g>
     </g>
     <g id="text_15">
      <!-- 26 -->
      <defs>
       <path d="M 33.015625 40.375 
Q 26.375 40.375 22.484375 35.828125 
Q 18.609375 31.296875 18.609375 23.390625 
Q 18.609375 15.53125 22.484375 10.953125 
Q 26.375 6.390625 33.015625 6.390625 
Q 39.65625 6.390625 43.53125 10.953125 
Q 47.40625 15.53125 47.40625 23.390625 
Q 47.40625 31.296875 43.53125 35.828125 
Q 39.65625 40.375 33.015625 40.375 
z
M 52.59375 71.296875 
L 52.59375 62.3125 
Q 48.875 64.0625 45.09375 64.984375 
Q 41.3125 65.921875 37.59375 65.921875 
Q 27.828125 65.921875 22.671875 59.328125 
Q 17.53125 52.734375 16.796875 39.40625 
Q 19.671875 43.65625 24.015625 45.921875 
Q 28.375 48.1875 33.59375 48.1875 
Q 44.578125 48.1875 50.953125 41.515625 
Q 57.328125 34.859375 57.328125 23.390625 
Q 57.328125 12.15625 50.6875 5.359375 
Q 44.046875 -1.421875 33.015625 -1.421875 
Q 20.359375 -1.421875 13.671875 8.265625 
Q 6.984375 17.96875 6.984375 36.375 
Q 6.984375 53.65625 15.1875 63.9375 
Q 23.390625 74.21875 37.203125 74.21875 
Q 40.921875 74.21875 44.703125 73.484375 
Q 48.484375 72.75 52.59375 71.296875 
z
" id="DejaVuSans-54"/>
      </defs>
      <g transform="translate(28.51 200.433729)scale(0.12 -0.12)">
       <use xlink:href="#DejaVuSans-50"/>
       <use x="63.623047" xlink:href="#DejaVuSans-54"/>
      </g>
     </g>
    </g>
    <g id="ytick_6">
     <g id="line2d_29">
      <path clip-path="url(#p9e22ef8b92)" d="M 50.78 148.413333 
L 709.2 148.413333 
" style="fill:none;stroke:#b0b0b0;stroke-linecap:square;stroke-width:0.8;"/>
     </g>
     <g id="line2d_30">
      <g>
       <use style="stroke:#000000;stroke-width:0.8;" x="50.78" xlink:href="#m7433a530b1" y="148.413333"/>
      </g>
     </g>
     <g id="text_16">
      <!-- 28 -->
      <g transform="translate(28.51 152.972396)scale(0.12 -0.12)">
       <use xlink:href="#DejaVuSans-50"/>
       <use x="63.623047" xlink:href="#DejaVuSans-56"/>
      </g>
     </g>
    </g>
    <g id="ytick_7">
     <g id="line2d_31">
      <path clip-path="url(#p9e22ef8b92)" d="M 50.78 100.952 
L 709.2 100.952 
" style="fill:none;stroke:#b0b0b0;stroke-linecap:square;stroke-width:0.8;"/>
     </g>
     <g id="line2d_32">
      <g>
       <use style="stroke:#000000;stroke-width:0.8;" x="50.78" xlink:href="#m7433a530b1" y="100.952"/>
      </g>
     </g>
     <g id="text_17">
      <!-- 30 -->
      <g transform="translate(28.51 105.511062)scale(0.12 -0.12)">
       <use xlink:href="#DejaVuSans-51"/>
       <use x="63.623047" xlink:href="#DejaVuSans-48"/>
      </g>
     </g>
    </g>
    <g id="ytick_8">
     <g id="line2d_33">
      <path clip-path="url(#p9e22ef8b92)" d="M 50.78 53.490667 
L 709.2 53.490667 
" style="fill:none;stroke:#b0b0b0;stroke-linecap:square;stroke-width:0.8;"/>
     </g>
     <g id="line2d_34">
      <g>
       <use style="stroke:#000000;stroke-width:0.8;" x="50.78" xlink:href="#m7433a530b1" y="53.490667"/>
      </g>
     </g>
     <g id="text_18">
      <!-- 32 -->
      <g transform="translate(28.51 58.049729)scale(0.12 -0.12)">
       <use xlink:href="#DejaVuSans-51"/>
       <use x="63.623047" xlink:href="#DejaVuSans-50"/>
      </g>
     </g>
    </g>
    <g id="text_19">
     <!-- PSNR -->
     <defs>
      <path d="M 19.671875 64.796875 
L 19.671875 37.40625 
L 32.078125 37.40625 
Q 38.96875 37.40625 42.71875 40.96875 
Q 46.484375 44.53125 46.484375 51.125 
Q 46.484375 57.671875 42.71875 61.234375 
Q 38.96875 64.796875 32.078125 64.796875 
z
M 9.8125 72.90625 
L 32.078125 72.90625 
Q 44.34375 72.90625 50.609375 67.359375 
Q 56.890625 61.8125 56.890625 51.125 
Q 56.890625 40.328125 50.609375 34.8125 
Q 44.34375 29.296875 32.078125 29.296875 
L 19.671875 29.296875 
L 19.671875 0 
L 9.8125 0 
z
" id="DejaVuSans-80"/>
      <path d="M 53.515625 70.515625 
L 53.515625 60.890625 
Q 47.90625 63.578125 42.921875 64.890625 
Q 37.9375 66.21875 33.296875 66.21875 
Q 25.25 66.21875 20.875 63.09375 
Q 16.5 59.96875 16.5 54.203125 
Q 16.5 49.359375 19.40625 46.890625 
Q 22.3125 44.4375 30.421875 42.921875 
L 36.375 41.703125 
Q 47.40625 39.59375 52.65625 34.296875 
Q 57.90625 29 57.90625 20.125 
Q 57.90625 9.515625 50.796875 4.046875 
Q 43.703125 -1.421875 29.984375 -1.421875 
Q 24.8125 -1.421875 18.96875 -0.25 
Q 13.140625 0.921875 6.890625 3.21875 
L 6.890625 13.375 
Q 12.890625 10.015625 18.65625 8.296875 
Q 24.421875 6.59375 29.984375 6.59375 
Q 38.421875 6.59375 43.015625 9.90625 
Q 47.609375 13.234375 47.609375 19.390625 
Q 47.609375 24.75 44.3125 27.78125 
Q 41.015625 30.8125 33.5 32.328125 
L 27.484375 33.5 
Q 16.453125 35.6875 11.515625 40.375 
Q 6.59375 45.0625 6.59375 53.421875 
Q 6.59375 63.09375 13.40625 68.65625 
Q 20.21875 74.21875 32.171875 74.21875 
Q 37.3125 74.21875 42.625 73.28125 
Q 47.953125 72.359375 53.515625 70.515625 
z
" id="DejaVuSans-83"/>
      <path d="M 9.8125 72.90625 
L 23.09375 72.90625 
L 55.421875 11.921875 
L 55.421875 72.90625 
L 64.984375 72.90625 
L 64.984375 0 
L 51.703125 0 
L 19.390625 60.984375 
L 19.390625 0 
L 9.8125 0 
z
" id="DejaVuSans-78"/>
      <path d="M 44.390625 34.1875 
Q 47.5625 33.109375 50.5625 29.59375 
Q 53.5625 26.078125 56.59375 19.921875 
L 66.609375 0 
L 56 0 
L 46.6875 18.703125 
Q 43.0625 26.03125 39.671875 28.421875 
Q 36.28125 30.8125 30.421875 30.8125 
L 19.671875 30.8125 
L 19.671875 0 
L 9.8125 0 
L 9.8125 72.90625 
L 32.078125 72.90625 
Q 44.578125 72.90625 50.734375 67.671875 
Q 56.890625 62.453125 56.890625 51.90625 
Q 56.890625 45.015625 53.6875 40.46875 
Q 50.484375 35.9375 44.390625 34.1875 
z
M 19.671875 64.796875 
L 19.671875 38.921875 
L 32.078125 38.921875 
Q 39.203125 38.921875 42.84375 42.21875 
Q 46.484375 45.515625 46.484375 51.90625 
Q 46.484375 58.296875 42.84375 61.546875 
Q 39.203125 64.796875 32.078125 64.796875 
z
" id="DejaVuSans-82"/>
     </defs>
     <g transform="translate(21.598438 226.505469)rotate(-90)scale(0.14 -0.14)">
      <use xlink:href="#DejaVuSans-80"/>
      <use x="60.302734" xlink:href="#DejaVuSans-83"/>
      <use x="123.779297" xlink:href="#DejaVuSans-78"/>
      <use x="198.583984" xlink:href="#DejaVuSans-82"/>
     </g>
    </g>
   </g>
   <g id="line2d_35">
    <path clip-path="url(#p9e22ef8b92)" d="M 81.895081 433 
L 83.716039 217.310043 
L 86.723897 165.38478 
L 89.731754 197.591434 
L 92.739612 115.346326 
L 95.747469 114.608668 
L 98.755327 133.41513 
L 101.763184 90.343225 
L 104.771042 77.847096 
L 107.778899 88.013507 
L 110.786757 79.176002 
L 113.794614 72.854708 
L 116.802471 81.398595 
L 119.810329 82.727871 
L 122.818186 68.751386 
L 125.826044 71.825559 
L 128.833901 65.388342 
L 131.841759 71.337603 
L 134.849616 68.557929 
L 137.857474 97.022712 
L 140.865331 78.138542 
L 143.873189 67.971016 
L 146.881046 73.631006 
L 149.888904 82.891353 
L 152.896761 88.6047 
L 155.904619 81.300975 
L 158.912476 71.83018 
L 161.920333 75.874019 
L 164.928191 89.262311 
L 167.936048 79.684763 
L 170.943906 79.930647 
L 173.951763 79.291987 
L 176.959621 80.151563 
L 179.967478 81.455166 
L 182.975336 83.672169 
L 185.983193 80.531779 
L 188.991051 79.289301 
L 191.998908 77.633452 
L 195.006766 86.865854 
L 198.014623 81.552278 
L 201.022481 80.434382 
L 204.030338 92.308667 
L 207.038196 83.123057 
L 213.05391 82.946056 
L 216.061768 88.7328 
L 219.069625 83.232859 
L 222.077483 85.368198 
L 225.08534 82.553587 
L 228.093198 86.393658 
L 231.101055 96.030276 
L 234.108913 86.614496 
L 237.11677 94.080375 
L 240.124628 87.023158 
L 246.140343 88.406831 
L 249.1482 88.291148 
L 252.156058 90.391391 
L 255.163915 89.234803 
L 258.171772 89.319358 
L 261.17963 88.620773 
L 264.187487 92.724831 
L 267.195345 93.908033 
L 270.203202 88.461721 
L 273.21106 91.543473 
L 276.218917 90.918545 
L 279.226775 88.652372 
L 282.234632 96.732305 
L 285.24249 90.410568 
L 288.250347 90.606077 
L 291.258205 92.502567 
L 294.266062 95.3558 
L 297.27392 94.180235 
L 300.281777 89.706794 
L 303.289635 92.546155 
L 306.297492 94.173239 
L 309.305349 90.629877 
L 312.313207 95.81797 
L 315.321064 90.046651 
L 318.328922 92.007302 
L 321.336779 92.018078 
L 324.344637 92.422906 
L 327.352494 98.279444 
L 330.360352 97.896892 
L 333.368209 95.191731 
L 336.376067 93.760833 
L 339.383924 91.436351 
L 342.391782 96.030701 
L 345.399639 95.534268 
L 348.407497 92.681129 
L 351.415354 94.178729 
L 354.423212 94.817865 
L 357.431069 94.92935 
L 360.438926 94.171373 
L 363.446784 92.76989 
L 366.454641 91.868937 
L 369.462499 96.705003 
L 372.470356 92.35352 
L 375.478214 98.028965 
L 378.486071 93.982487 
L 381.493929 92.054162 
L 384.501786 95.915655 
L 387.509644 91.857971 
L 390.517501 94.379832 
L 393.525359 95.909692 
L 396.533216 94.28937 
L 399.541074 93.794382 
L 402.548931 94.652247 
L 405.556788 97.003195 
L 408.564646 98.18732 
L 411.572503 93.424267 
L 414.580361 95.013942 
L 417.588218 93.84296 
L 420.596076 99.522186 
L 423.603933 93.447469 
L 426.611791 93.427885 
L 429.619648 97.680974 
L 432.627506 94.18301 
L 435.635363 94.052424 
L 438.643221 94.278295 
L 441.651078 94.743682 
L 444.658936 99.886449 
L 447.666793 96.655952 
L 450.674651 100.783695 
L 453.682508 96.63513 
L 456.690365 99.910142 
L 459.698223 95.508712 
L 462.70608 99.84445 
L 465.713938 102.492755 
L 468.721795 97.497279 
L 471.729653 96.299204 
L 474.73751 97.001502 
L 477.745368 96.316971 
L 480.753225 96.119673 
L 483.761083 98.845514 
L 486.76894 102.368844 
L 489.776798 100.941587 
L 492.784655 100.759625 
L 495.792513 95.216944 
L 498.80037 98.653456 
L 501.808228 100.58669 
L 504.816085 96.706083 
L 507.823942 93.944607 
L 510.8318 96.366756 
L 513.839657 96.55394 
L 516.847515 94.894142 
L 519.855372 99.230374 
L 522.86323 95.74164 
L 525.871087 96.790672 
L 528.878945 97.105608 
L 531.886802 96.808453 
L 534.89466 98.789167 
L 540.910375 95.873718 
L 546.92609 96.780432 
L 549.933947 97.628023 
L 552.941804 96.716058 
L 555.949662 100.376425 
L 558.957519 96.801834 
L 561.965377 98.195572 
L 564.973234 100.055274 
L 567.981092 99.249188 
L 570.988949 97.912678 
L 573.996807 99.186274 
L 577.004664 99.29508 
L 580.012522 101.417944 
L 583.020379 100.823723 
L 586.028237 99.452703 
L 589.036094 102.036079 
L 592.043952 98.591633 
L 595.051809 98.361538 
L 598.059667 98.432814 
L 601.067524 98.905299 
L 604.075381 102.513491 
L 607.083239 102.083507 
L 610.091096 98.463311 
L 613.098954 99.652586 
L 616.106811 100.437056 
L 619.114669 99.332897 
L 622.122526 105.59891 
L 625.130384 99.37113 
L 628.138241 97.627054 
L 631.146099 102.263884 
L 634.153956 98.989862 
L 637.161814 100.477065 
L 640.169671 97.974934 
L 643.177529 100.462404 
L 646.185386 97.944671 
L 649.193243 97.288038 
L 652.201101 98.704323 
L 655.208958 98.457962 
L 658.216816 103.385172 
L 661.224673 101.482012 
L 664.232531 99.042681 
L 667.240388 97.792353 
L 670.248246 100.977034 
L 673.256103 99.982181 
L 676.263961 101.22191 
L 679.271818 100.558004 
L 679.271818 100.558004 
" style="fill:none;stroke:#1f77b4;stroke-linecap:square;stroke-width:2;"/>
   </g>
   <g id="line2d_36">
    <path clip-path="url(#p9e22ef8b92)" d="M 81.8329 433 
L 83.716039 183.454288 
L 86.723897 128.283348 
L 89.731754 115.124043 
L 92.739612 84.743972 
L 95.747469 94.86454 
L 98.755327 73.230524 
L 101.763184 62.842149 
L 104.771042 65.758161 
L 107.778899 71.539379 
L 110.786757 72.715228 
L 113.794614 76.186769 
L 116.802471 84.378924 
L 119.810329 83.343148 
L 122.818186 92.648461 
L 125.826044 96.960697 
L 128.833901 106.832621 
L 131.841759 111.001676 
L 134.849616 112.401064 
L 137.857474 127.199921 
L 140.865331 125.634011 
L 143.873189 134.735717 
L 146.881046 138.159209 
L 149.888904 142.044681 
L 152.896761 142.279478 
L 155.904619 142.965151 
L 158.912476 142.319375 
L 161.920333 146.360783 
L 164.928191 145.698686 
L 167.936048 143.754025 
L 170.943906 146.91716 
L 173.951763 152.572721 
L 176.959621 155.471553 
L 179.967478 164.510107 
L 182.975336 150.619207 
L 185.983193 160.789425 
L 188.991051 163.598963 
L 191.998908 162.470181 
L 195.006766 156.477011 
L 198.014623 160.643957 
L 201.022481 163.82168 
L 204.030338 160.800796 
L 207.038196 160.360157 
L 210.046053 164.66196 
L 213.05391 160.893787 
L 216.061768 163.486895 
L 219.069625 175.470529 
L 222.077483 166.256472 
L 225.08534 165.308864 
L 228.093198 167.328288 
L 231.101055 168.23063 
L 234.108913 165.165315 
L 237.11677 165.96524 
L 240.124628 164.940308 
L 243.132485 169.393963 
L 246.140343 165.844429 
L 249.1482 165.304051 
L 252.156058 167.256314 
L 255.163915 168.543334 
L 258.171772 166.450039 
L 261.17963 169.523951 
L 264.187487 171.511017 
L 267.195345 168.593403 
L 270.203202 170.128405 
L 273.21106 166.513642 
L 276.218917 168.789153 
L 279.226775 165.215851 
L 282.234632 171.090438 
L 285.24249 169.861256 
L 288.250347 170.938949 
L 291.258205 177.983113 
L 294.266062 171.487733 
L 297.27392 169.274978 
L 300.281777 169.009257 
L 303.289635 171.605988 
L 306.297492 175.084685 
L 309.305349 169.234637 
L 312.313207 172.789337 
L 315.321064 174.341996 
L 318.328922 173.326008 
L 321.336779 176.757688 
L 324.344637 170.465987 
L 327.352494 177.184552 
L 330.360352 176.618543 
L 333.368209 170.806163 
L 336.376067 170.583688 
L 339.383924 176.714073 
L 342.391782 175.746615 
L 345.399639 173.251495 
L 348.407497 174.358721 
L 351.415354 176.614225 
L 354.423212 171.582668 
L 357.431069 175.748277 
L 360.438926 178.132651 
L 363.446784 173.184221 
L 366.454641 171.879246 
L 369.462499 171.526783 
L 372.470356 172.309672 
L 375.478214 173.580928 
L 378.486071 177.290451 
L 381.493929 173.332927 
L 384.501786 177.568065 
L 387.509644 175.176688 
L 390.517501 177.805103 
L 393.525359 172.676869 
L 396.533216 173.033446 
L 399.541074 172.725896 
L 402.548931 181.583458 
L 405.556788 174.022404 
L 408.564646 175.854527 
L 411.572503 174.788401 
L 414.580361 178.313698 
L 417.588218 179.382181 
L 420.596076 175.341212 
L 423.603933 178.446173 
L 426.611791 177.252033 
L 429.619648 178.60204 
L 432.627506 173.939983 
L 435.635363 178.991581 
L 438.643221 173.666169 
L 441.651078 172.606058 
L 444.658936 176.850895 
L 447.666793 176.324314 
L 450.674651 178.961523 
L 453.682508 172.767083 
L 456.690365 177.843251 
L 459.698223 175.863369 
L 462.70608 174.449175 
L 465.713938 177.957125 
L 468.721795 177.667268 
L 471.729653 179.641964 
L 474.73751 179.257034 
L 477.745368 174.592006 
L 480.753225 178.156987 
L 483.761083 176.319795 
L 486.76894 177.080654 
L 489.776798 177.65554 
L 492.784655 179.879897 
L 495.792513 176.52724 
L 498.80037 174.502111 
L 501.808228 174.308694 
L 507.823942 175.717524 
L 510.8318 175.691891 
L 513.839657 177.756328 
L 516.847515 175.336247 
L 519.855372 176.425895 
L 522.86323 178.534058 
L 525.871087 179.398864 
L 528.878945 177.354186 
L 531.886802 179.767595 
L 537.902517 176.104794 
L 540.910375 175.678545 
L 543.918232 179.717223 
L 546.92609 180.569587 
L 549.933947 177.840327 
L 552.941804 175.793089 
L 555.949662 176.930593 
L 558.957519 179.821504 
L 561.965377 176.055133 
L 564.973234 177.928826 
L 567.981092 175.972229 
L 570.988949 181.227189 
L 573.996807 181.365282 
L 577.004664 182.515804 
L 580.012522 179.970933 
L 583.020379 176.22032 
L 586.028237 180.418886 
L 589.036094 180.886593 
L 595.051809 178.27673 
L 598.059667 178.749828 
L 601.067524 179.85187 
L 604.075381 179.069701 
L 607.083239 179.723416 
L 610.091096 175.875003 
L 613.098954 176.387569 
L 616.106811 176.067102 
L 619.114669 177.067278 
L 622.122526 180.475081 
L 625.130384 176.31892 
L 628.138241 180.622428 
L 631.146099 179.525574 
L 634.153956 179.208334 
L 637.161814 176.47671 
L 640.169671 181.630675 
L 643.177529 181.985778 
L 646.185386 181.031514 
L 649.193243 180.53022 
L 652.201101 181.63767 
L 655.208958 181.41683 
L 658.216816 179.420087 
L 661.224673 186.130426 
L 664.232531 180.565861 
L 667.240388 177.176116 
L 670.248246 182.407276 
L 673.256103 179.743828 
L 676.263961 181.674229 
L 679.271818 177.75477 
L 679.271818 177.75477 
" style="fill:none;stroke:#ff7f0e;stroke-linecap:square;stroke-width:2;"/>
   </g>
   <g id="line2d_37">
    <path clip-path="url(#p9e22ef8b92)" d="M 81.526416 433 
L 83.716039 160.297612 
L 86.723897 95.817471 
L 89.731754 77.497378 
L 92.739612 67.842023 
L 95.747469 64.153307 
L 98.755327 67.549439 
L 101.763184 62.878736 
L 104.771042 59.591584 
L 107.778899 60.925656 
L 110.786757 65.77682 
L 113.794614 65.496741 
L 116.802471 66.560145 
L 119.810329 77.066114 
L 122.818186 69.669079 
L 125.826044 78.694287 
L 128.833901 81.245086 
L 131.841759 88.602143 
L 134.849616 84.400978 
L 137.857474 82.785405 
L 140.865331 84.319543 
L 143.873189 94.537994 
L 146.881046 89.750418 
L 149.888904 94.970287 
L 152.896761 94.301859 
L 155.904619 104.218697 
L 158.912476 96.545683 
L 161.920333 97.627014 
L 164.928191 98.388354 
L 167.936048 99.90953 
L 170.943906 114.474634 
L 173.951763 100.832344 
L 176.959621 104.50282 
L 179.967478 102.200311 
L 182.975336 102.11295 
L 185.983193 98.921936 
L 188.991051 105.8662 
L 191.998908 101.262004 
L 195.006766 103.764279 
L 198.014623 101.767241 
L 201.022481 106.134799 
L 204.030338 109.659101 
L 210.046053 106.468476 
L 213.05391 107.310584 
L 216.061768 122.989624 
L 219.069625 102.611291 
L 222.077483 118.542026 
L 225.08534 107.080688 
L 228.093198 115.70283 
L 231.101055 110.283165 
L 234.108913 104.529338 
L 237.11677 107.591652 
L 240.124628 117.221848 
L 243.132485 112.023288 
L 246.140343 110.36118 
L 249.1482 111.268657 
L 252.156058 116.497367 
L 255.163915 110.71049 
L 258.171772 116.171882 
L 261.17963 115.705161 
L 264.187487 113.846144 
L 267.195345 116.089307 
L 270.203202 117.914678 
L 273.21106 118.428159 
L 276.218917 109.519356 
L 279.226775 116.35898 
L 282.234632 111.251582 
L 285.24249 113.021868 
L 288.250347 113.459681 
L 291.258205 121.794988 
L 294.266062 117.918274 
L 297.27392 111.764382 
L 300.281777 119.261087 
L 303.289635 117.058343 
L 306.297492 112.328017 
L 309.305349 116.150613 
L 312.313207 108.943482 
L 315.321064 110.970722 
L 318.328922 116.866356 
L 321.336779 112.910313 
L 324.344637 108.688112 
L 327.352494 109.085206 
L 330.360352 113.862544 
L 333.368209 115.186283 
L 336.376067 118.380049 
L 339.383924 110.874064 
L 342.391782 123.109338 
L 345.399639 122.423736 
L 348.407497 118.156658 
L 351.415354 113.691241 
L 354.423212 115.95312 
L 357.431069 110.684327 
L 360.438926 115.13 
L 363.446784 109.886745 
L 366.454641 115.275147 
L 369.462499 111.211112 
L 372.470356 116.213907 
L 375.478214 118.892035 
L 381.493929 115.429386 
L 384.501786 112.427184 
L 387.509644 118.264528 
L 390.517501 115.579928 
L 393.525359 122.493687 
L 396.533216 119.101652 
L 399.541074 114.598233 
L 402.548931 114.928632 
L 405.556788 122.604858 
L 408.564646 115.304717 
L 411.572503 118.955603 
L 414.580361 121.793523 
L 417.588218 116.293066 
L 420.596076 123.276947 
L 423.603933 115.196691 
L 426.611791 121.384087 
L 429.619648 118.377698 
L 432.627506 125.993093 
L 435.635363 118.220476 
L 438.643221 115.902724 
L 441.651078 111.115066 
L 444.658936 117.703101 
L 447.666793 119.434048 
L 450.674651 117.722625 
L 453.682508 118.240533 
L 456.690365 127.747454 
L 459.698223 112.7272 
L 462.70608 119.845119 
L 465.713938 123.556242 
L 468.721795 118.91355 
L 471.729653 113.598637 
L 474.73751 118.223884 
L 477.745368 119.449326 
L 480.753225 119.680828 
L 483.761083 120.721077 
L 486.76894 120.001711 
L 489.776798 115.734489 
L 492.784655 115.583557 
L 495.792513 115.659519 
L 498.80037 114.86644 
L 501.808228 116.299197 
L 504.816085 115.787463 
L 507.823942 122.780328 
L 510.8318 119.846886 
L 513.839657 124.075771 
L 516.847515 115.999828 
L 519.855372 115.906984 
L 522.86323 120.866396 
L 525.871087 122.627106 
L 528.878945 123.735715 
L 531.886802 125.459292 
L 534.89466 115.047968 
L 537.902517 115.075087 
L 540.910375 120.523656 
L 543.918232 117.984981 
L 546.92609 112.843326 
L 549.933947 116.392505 
L 552.941804 119.740912 
L 555.949662 114.703539 
L 558.957519 119.83613 
L 561.965377 119.060366 
L 564.973234 120.534196 
L 567.981092 115.111718 
L 570.988949 121.300757 
L 573.996807 117.782142 
L 577.004664 124.779906 
L 580.012522 123.056111 
L 583.020379 126.421798 
L 586.028237 112.185019 
L 589.036094 115.911054 
L 592.043952 124.08318 
L 598.059667 119.234856 
L 601.067524 115.280792 
L 604.075381 127.307959 
L 607.083239 123.623776 
L 610.091096 115.399245 
L 613.098954 125.689331 
L 616.106811 123.964851 
L 619.114669 124.499335 
L 622.122526 114.459412 
L 625.130384 115.60505 
L 628.138241 116.951078 
L 631.146099 115.042237 
L 634.153956 117.119416 
L 637.161814 118.571996 
L 640.169671 116.98745 
L 643.177529 116.972937 
L 646.185386 116.198451 
L 649.193243 118.036076 
L 652.201101 121.810696 
L 655.208958 118.540406 
L 658.216816 126.103969 
L 661.224673 114.791408 
L 664.232531 120.188012 
L 667.240388 113.287629 
L 670.248246 122.006028 
L 673.256103 114.399589 
L 676.263961 123.106016 
L 679.271818 122.941974 
L 679.271818 122.941974 
" style="fill:none;stroke:#2ca02c;stroke-linecap:square;stroke-width:2;"/>
   </g>
   <g id="line2d_38">
    <path clip-path="url(#p9e22ef8b92)" d="M 84.804633 433 
L 95.747469 99.386838 
L 110.786757 64.758872 
L 125.826044 93.481582 
L 140.865331 122.700472 
L 155.904619 145.396345 
L 170.943906 155.847299 
L 185.983193 163.477339 
L 201.022481 173.247258 
L 216.061768 171.187693 
L 231.101055 171.144534 
L 246.140343 178.945352 
L 261.17963 177.069056 
L 276.218917 182.582332 
L 291.258205 181.487216 
L 306.297492 182.834584 
L 321.336779 181.107512 
L 336.376067 180.296486 
L 351.415354 184.293137 
L 366.454641 191.689351 
L 381.493929 190.38942 
L 396.533216 185.599493 
L 411.572503 185.377757 
L 426.611791 184.163415 
L 441.651078 184.563224 
L 456.690365 189.141124 
L 471.729653 191.061057 
L 486.76894 187.951228 
L 501.808228 188.537645 
L 516.847515 187.829132 
L 531.886802 191.245728 
L 546.92609 187.738852 
L 561.965377 191.656532 
L 577.004664 190.541542 
L 592.043952 190.285956 
L 607.083239 188.410818 
L 622.122526 187.959807 
L 637.161814 190.903143 
L 652.201101 190.258601 
L 667.240388 191.360405 
" style="fill:none;stroke:#d62728;stroke-linecap:square;stroke-width:2;"/>
   </g>
   <g id="line2d_39">
    <path clip-path="url(#p9e22ef8b92)" d="M 81.878261 433 
L 83.716039 189.489214 
L 86.723897 144.439461 
L 89.731754 124.816851 
L 92.739612 111.583356 
L 95.747469 89.462853 
L 98.755327 85.085528 
L 101.763184 79.51741 
L 104.771042 76.842396 
L 107.778899 73.751534 
L 110.786757 63.803248 
L 113.794614 65.968612 
L 116.802471 71.024423 
L 119.810329 62.413546 
L 122.818186 75.921665 
L 125.826044 66.768846 
L 128.833901 64.816685 
L 131.841759 66.857762 
L 134.849616 66.03007 
L 137.857474 76.69402 
L 140.865331 71.546405 
L 143.873189 89.696947 
L 146.881046 75.850744 
L 149.888904 77.278596 
L 152.896761 80.515953 
L 155.904619 75.633897 
L 158.912476 88.23132 
L 161.920333 81.884077 
L 164.928191 85.195008 
L 167.936048 86.277476 
L 170.943906 86.059736 
L 173.951763 85.601376 
L 176.959621 88.317473 
L 179.967478 95.88641 
L 182.975336 91.906684 
L 185.983193 92.422792 
L 188.991051 100.426986 
L 191.998908 92.060481 
L 195.006766 93.515743 
L 198.014623 93.793182 
L 201.022481 94.488796 
L 204.030338 97.506541 
L 207.038196 95.695141 
L 210.046053 96.232475 
L 213.05391 93.750255 
L 216.061768 96.911597 
L 219.069625 97.70244 
L 222.077483 99.859288 
L 225.08534 100.236652 
L 228.093198 100.176183 
L 231.101055 103.072115 
L 234.108913 106.205266 
L 237.11677 105.132592 
L 240.124628 106.806517 
L 243.132485 107.232853 
L 246.140343 108.464658 
L 249.1482 101.747485 
L 252.156058 99.874078 
L 255.163915 104.719951 
L 258.171772 110.058027 
L 261.17963 105.418307 
L 264.187487 104.102738 
L 267.195345 104.075963 
L 270.203202 103.876322 
L 273.21106 104.489474 
L 276.218917 104.907014 
L 279.226775 105.197827 
L 282.234632 106.011694 
L 285.24249 109.774877 
L 288.250347 111.18414 
L 291.258205 107.883913 
L 294.266062 104.05001 
L 297.27392 105.425065 
L 300.281777 108.644255 
L 303.289635 107.827266 
L 309.305349 107.135181 
L 312.313207 106.675341 
L 315.321064 116.36794 
L 318.328922 110.908432 
L 321.336779 109.778771 
L 324.344637 107.339035 
L 327.352494 109.025521 
L 330.360352 110.878058 
L 333.368209 110.921237 
L 336.376067 106.997197 
L 339.383924 111.313913 
L 342.391782 108.359091 
L 345.399639 115.061156 
L 348.407497 112.111002 
L 351.415354 112.185273 
L 354.423212 110.672488 
L 357.431069 111.393946 
L 360.438926 115.407246 
L 363.446784 110.43599 
L 366.454641 111.154456 
L 369.462499 111.244498 
L 372.470356 110.706226 
L 375.478214 112.978219 
L 378.486071 115.878688 
L 381.493929 111.754336 
L 384.501786 111.693819 
L 387.509644 112.282028 
L 390.517501 113.238527 
L 393.525359 110.314115 
L 396.533216 113.614354 
L 399.541074 113.327808 
L 402.548931 114.589879 
L 405.556788 114.64336 
L 408.564646 115.387323 
L 411.572503 113.804384 
L 414.580361 114.316022 
L 417.588218 116.727145 
L 420.596076 119.338154 
L 423.603933 112.139974 
L 426.611791 116.218171 
L 429.619648 111.138217 
L 432.627506 111.609291 
L 435.635363 114.861804 
L 438.643221 114.609904 
L 441.651078 112.991941 
L 444.658936 117.303672 
L 447.666793 115.267912 
L 450.674651 116.630869 
L 453.682508 115.757847 
L 456.690365 114.389891 
L 459.698223 117.471894 
L 462.70608 117.345074 
L 465.713938 114.395404 
L 468.721795 113.136891 
L 471.729653 117.382056 
L 474.73751 118.36227 
L 477.745368 115.44521 
L 480.753225 115.860479 
L 483.761083 118.826059 
L 486.76894 118.122614 
L 489.776798 117.632951 
L 492.784655 116.354184 
L 495.792513 115.22869 
L 498.80037 118.534184 
L 501.808228 115.645412 
L 504.816085 114.71729 
L 507.823942 115.668584 
L 513.839657 117.853611 
L 516.847515 114.530036 
L 519.855372 114.754276 
L 522.86323 116.846217 
L 525.871087 122.012849 
L 528.878945 118.218705 
L 531.886802 119.23914 
L 534.89466 117.800484 
L 537.902517 117.181236 
L 540.910375 115.796659 
L 543.918232 117.7727 
L 546.92609 116.922516 
L 549.933947 117.182292 
L 552.941804 116.400331 
L 555.949662 119.710998 
L 558.957519 115.996621 
L 561.965377 115.90131 
L 564.973234 117.348567 
L 567.981092 119.662145 
L 570.988949 119.554986 
L 573.996807 119.598114 
L 577.004664 115.446142 
L 580.012522 117.468484 
L 583.020379 117.088513 
L 586.028237 115.87436 
L 589.036094 117.709667 
L 592.043952 120.867465 
L 595.051809 116.103929 
L 598.059667 118.701881 
L 601.067524 119.585949 
L 604.075381 118.801339 
L 607.083239 122.693066 
L 610.091096 120.011919 
L 613.098954 115.95596 
L 616.106811 116.477374 
L 619.114669 117.868025 
L 622.122526 118.846349 
L 625.130384 121.992722 
L 628.138241 119.47238 
L 631.146099 117.248924 
L 634.153956 118.240163 
L 637.161814 120.885371 
L 640.169671 117.741961 
L 643.177529 118.878938 
L 646.185386 117.193311 
L 649.193243 120.937569 
L 652.201101 123.332601 
L 655.208958 119.180041 
L 658.216816 116.495625 
L 661.224673 119.983724 
L 664.232531 119.470981 
L 667.240388 119.893471 
L 673.256103 118.842126 
L 676.263961 119.113347 
L 679.271818 119.639729 
L 679.271818 119.639729 
" style="fill:none;stroke:#9467bd;stroke-linecap:square;stroke-width:2;"/>
   </g>
   <g id="line2d_40">
    <path clip-path="url(#p9e22ef8b92)" d="M 81.770802 433 
L 83.716039 172.033605 
L 86.723897 125.395073 
L 89.731754 98.38953 
L 92.739612 81.721525 
L 95.747469 72.835197 
L 98.755327 85.552648 
L 101.763184 70.304547 
L 104.771042 68.630006 
L 107.778899 75.336324 
L 110.786757 82.778681 
L 113.794614 85.614707 
L 116.802471 98.155833 
L 119.810329 101.785193 
L 122.818186 113.386587 
L 125.826044 117.020789 
L 128.833901 119.710746 
L 131.841759 129.146849 
L 134.849616 132.786786 
L 137.857474 139.310453 
L 140.865331 144.516432 
L 143.873189 145.911087 
L 146.881046 142.473694 
L 149.888904 146.180205 
L 152.896761 150.991259 
L 155.904619 149.731235 
L 158.912476 153.208614 
L 161.920333 154.074151 
L 164.928191 155.820177 
L 167.936048 157.789406 
L 170.943906 156.559331 
L 173.951763 170.40365 
L 176.959621 166.130388 
L 179.967478 164.717668 
L 182.975336 163.058905 
L 185.983193 162.714376 
L 188.991051 162.992326 
L 191.998908 169.838353 
L 195.006766 167.460437 
L 198.014623 162.297221 
L 201.022481 167.912977 
L 204.030338 170.286692 
L 207.038196 173.303884 
L 210.046053 172.581011 
L 213.05391 165.701083 
L 219.069625 171.422412 
L 222.077483 174.851479 
L 225.08534 173.753868 
L 228.093198 175.676085 
L 231.101055 169.384042 
L 234.108913 173.881669 
L 237.11677 172.049873 
L 240.124628 177.808536 
L 243.132485 171.45852 
L 246.140343 174.869263 
L 249.1482 171.454741 
L 252.156058 176.090615 
L 255.163915 172.191896 
L 258.171772 179.860941 
L 261.17963 170.78652 
L 264.187487 179.983734 
L 267.195345 180.23743 
L 270.203202 181.253109 
L 273.21106 171.084929 
L 276.218917 179.628814 
L 279.226775 174.861582 
L 282.234632 180.410271 
L 285.24249 180.978999 
L 288.250347 178.673233 
L 291.258205 174.129476 
L 294.266062 177.590512 
L 297.27392 178.241817 
L 300.281777 177.849537 
L 303.289635 177.121731 
L 306.297492 177.649314 
L 309.305349 176.140389 
L 312.313207 178.270737 
L 315.321064 179.864926 
L 318.328922 178.036594 
L 321.336779 174.545363 
L 324.344637 183.998507 
L 327.352494 178.935585 
L 330.360352 184.309485 
L 333.368209 181.608093 
L 336.376067 183.239261 
L 339.383924 181.096481 
L 342.391782 184.064992 
L 345.399639 183.531838 
L 348.407497 184.595142 
L 351.415354 178.324225 
L 354.423212 179.277605 
L 357.431069 177.622243 
L 360.438926 184.152176 
L 363.446784 180.851066 
L 366.454641 181.699455 
L 369.462499 181.061983 
L 372.470356 183.051352 
L 375.478214 182.473707 
L 378.486071 179.869267 
L 381.493929 184.655538 
L 384.501786 183.032548 
L 387.509644 181.913715 
L 390.517501 183.068517 
L 393.525359 180.624839 
L 399.541074 179.557367 
L 402.548931 181.503686 
L 405.556788 179.524087 
L 408.564646 181.440994 
L 411.572503 184.885978 
L 414.580361 180.586626 
L 417.588218 180.801188 
L 420.596076 182.490094 
L 423.603933 183.082364 
L 426.611791 182.48602 
L 429.619648 180.362429 
L 432.627506 184.096934 
L 435.635363 184.066632 
L 438.643221 185.911428 
L 441.651078 182.47821 
L 444.658936 186.803141 
L 447.666793 182.92347 
L 450.674651 180.607248 
L 453.682508 181.387791 
L 456.690365 181.88858 
L 459.698223 184.87014 
L 462.70608 182.898854 
L 465.713938 183.961462 
L 468.721795 181.738004 
L 471.729653 184.184309 
L 474.73751 183.448524 
L 477.745368 185.014727 
L 480.753225 182.727173 
L 483.761083 185.152064 
L 486.76894 184.389607 
L 489.776798 187.332924 
L 492.784655 187.756664 
L 495.792513 184.162659 
L 498.80037 181.62616 
L 501.808228 188.827843 
L 504.816085 183.169046 
L 507.823942 182.62546 
L 510.8318 186.131076 
L 513.839657 181.904321 
L 516.847515 184.435277 
L 519.855372 183.218304 
L 522.86323 180.103537 
L 525.871087 182.145766 
L 528.878945 183.418562 
L 531.886802 186.914768 
L 534.89466 185.743613 
L 537.902517 187.790457 
L 540.910375 183.870339 
L 543.918232 184.240906 
L 546.92609 185.228145 
L 549.933947 184.429197 
L 552.941804 185.840661 
L 555.949662 182.989257 
L 558.957519 189.160271 
L 561.965377 184.353458 
L 564.973234 185.765296 
L 567.981092 185.799984 
L 570.988949 184.467715 
L 573.996807 183.390775 
L 577.004664 182.977231 
L 580.012522 185.666423 
L 583.020379 185.709517 
L 586.028237 187.298224 
L 589.036094 184.254208 
L 592.043952 187.520827 
L 595.051809 182.482098 
L 598.059667 187.217667 
L 601.067524 185.908847 
L 604.075381 188.166577 
L 607.083239 188.042657 
L 610.091096 183.960992 
L 613.098954 186.353848 
L 616.106811 185.459612 
L 619.114669 183.681948 
L 622.122526 186.917738 
L 628.138241 187.838769 
L 631.146099 183.909455 
L 634.153956 185.200159 
L 637.161814 184.182511 
L 640.169671 182.106791 
L 643.177529 186.459809 
L 646.185386 186.046696 
L 649.193243 183.177275 
L 652.201101 184.792803 
L 655.208958 188.995989 
L 658.216816 184.862553 
L 661.224673 185.096927 
L 664.232531 186.491433 
L 667.240388 183.44398 
L 670.248246 186.486154 
L 673.256103 189.811498 
L 676.263961 183.426926 
L 679.271818 184.318564 
L 679.271818 184.318564 
" style="fill:none;stroke:#8c564b;stroke-linecap:square;stroke-width:2;"/>
   </g>
   <g id="patch_3">
    <path d="M 50.78 385.72 
L 50.78 29.76 
" style="fill:none;stroke:#000000;stroke-linecap:square;stroke-linejoin:miter;stroke-width:0.8;"/>
   </g>
   <g id="patch_4">
    <path d="M 709.2 385.72 
L 709.2 29.76 
" style="fill:none;stroke:#000000;stroke-linecap:square;stroke-linejoin:miter;stroke-width:0.8;"/>
   </g>
   <g id="patch_5">
    <path d="M 50.78 385.72 
L 709.2 385.72 
" style="fill:none;stroke:#000000;stroke-linecap:square;stroke-linejoin:miter;stroke-width:0.8;"/>
   </g>
   <g id="patch_6">
    <path d="M 50.78 29.76 
L 709.2 29.76 
" style="fill:none;stroke:#000000;stroke-linecap:square;stroke-linejoin:miter;stroke-width:0.8;"/>
   </g>
   <g id="text_20">
    <!-- PSNR vs Epochs for transfer masks -->
    <defs>
     <path id="DejaVuSans-32"/>
     <path d="M 2.984375 54.6875 
L 12.5 54.6875 
L 29.59375 8.796875 
L 46.6875 54.6875 
L 56.203125 54.6875 
L 35.6875 0 
L 23.484375 0 
z
" id="DejaVuSans-118"/>
     <path d="M 44.28125 53.078125 
L 44.28125 44.578125 
Q 40.484375 46.53125 36.375 47.5 
Q 32.28125 48.484375 27.875 48.484375 
Q 21.1875 48.484375 17.84375 46.4375 
Q 14.5 44.390625 14.5 40.28125 
Q 14.5 37.15625 16.890625 35.375 
Q 19.28125 33.59375 26.515625 31.984375 
L 29.59375 31.296875 
Q 39.15625 29.25 43.1875 25.515625 
Q 47.21875 21.78125 47.21875 15.09375 
Q 47.21875 7.46875 41.1875 3.015625 
Q 35.15625 -1.421875 24.609375 -1.421875 
Q 20.21875 -1.421875 15.453125 -0.5625 
Q 10.6875 0.296875 5.421875 2 
L 5.421875 11.28125 
Q 10.40625 8.6875 15.234375 7.390625 
Q 20.0625 6.109375 24.8125 6.109375 
Q 31.15625 6.109375 34.5625 8.28125 
Q 37.984375 10.453125 37.984375 14.40625 
Q 37.984375 18.0625 35.515625 20.015625 
Q 33.0625 21.96875 24.703125 23.78125 
L 21.578125 24.515625 
Q 13.234375 26.265625 9.515625 29.90625 
Q 5.8125 33.546875 5.8125 39.890625 
Q 5.8125 47.609375 11.28125 51.796875 
Q 16.75 56 26.8125 56 
Q 31.78125 56 36.171875 55.265625 
Q 40.578125 54.546875 44.28125 53.078125 
z
" id="DejaVuSans-115"/>
     <path d="M 37.109375 75.984375 
L 37.109375 68.5 
L 28.515625 68.5 
Q 23.6875 68.5 21.796875 66.546875 
Q 19.921875 64.59375 19.921875 59.515625 
L 19.921875 54.6875 
L 34.71875 54.6875 
L 34.71875 47.703125 
L 19.921875 47.703125 
L 19.921875 0 
L 10.890625 0 
L 10.890625 47.703125 
L 2.296875 47.703125 
L 2.296875 54.6875 
L 10.890625 54.6875 
L 10.890625 58.5 
Q 10.890625 67.625 15.140625 71.796875 
Q 19.390625 75.984375 28.609375 75.984375 
z
" id="DejaVuSans-102"/>
     <path d="M 41.109375 46.296875 
Q 39.59375 47.171875 37.8125 47.578125 
Q 36.03125 48 33.890625 48 
Q 26.265625 48 22.1875 43.046875 
Q 18.109375 38.09375 18.109375 28.8125 
L 18.109375 0 
L 9.078125 0 
L 9.078125 54.6875 
L 18.109375 54.6875 
L 18.109375 46.1875 
Q 20.953125 51.171875 25.484375 53.578125 
Q 30.03125 56 36.53125 56 
Q 37.453125 56 38.578125 55.875 
Q 39.703125 55.765625 41.0625 55.515625 
z
" id="DejaVuSans-114"/>
     <path d="M 18.3125 70.21875 
L 18.3125 54.6875 
L 36.8125 54.6875 
L 36.8125 47.703125 
L 18.3125 47.703125 
L 18.3125 18.015625 
Q 18.3125 11.328125 20.140625 9.421875 
Q 21.96875 7.515625 27.59375 7.515625 
L 36.8125 7.515625 
L 36.8125 0 
L 27.59375 0 
Q 17.1875 0 13.234375 3.875 
Q 9.28125 7.765625 9.28125 18.015625 
L 9.28125 47.703125 
L 2.6875 47.703125 
L 2.6875 54.6875 
L 9.28125 54.6875 
L 9.28125 70.21875 
z
" id="DejaVuSans-116"/>
     <path d="M 34.28125 27.484375 
Q 23.390625 27.484375 19.1875 25 
Q 14.984375 22.515625 14.984375 16.5 
Q 14.984375 11.71875 18.140625 8.90625 
Q 21.296875 6.109375 26.703125 6.109375 
Q 34.1875 6.109375 38.703125 11.40625 
Q 43.21875 16.703125 43.21875 25.484375 
L 43.21875 27.484375 
z
M 52.203125 31.203125 
L 52.203125 0 
L 43.21875 0 
L 43.21875 8.296875 
Q 40.140625 3.328125 35.546875 0.953125 
Q 30.953125 -1.421875 24.3125 -1.421875 
Q 15.921875 -1.421875 10.953125 3.296875 
Q 6 8.015625 6 15.921875 
Q 6 25.140625 12.171875 29.828125 
Q 18.359375 34.515625 30.609375 34.515625 
L 43.21875 34.515625 
L 43.21875 35.40625 
Q 43.21875 41.609375 39.140625 45 
Q 35.0625 48.390625 27.6875 48.390625 
Q 23 48.390625 18.546875 47.265625 
Q 14.109375 46.140625 10.015625 43.890625 
L 10.015625 52.203125 
Q 14.9375 54.109375 19.578125 55.046875 
Q 24.21875 56 28.609375 56 
Q 40.484375 56 46.34375 49.84375 
Q 52.203125 43.703125 52.203125 31.203125 
z
" id="DejaVuSans-97"/>
     <path d="M 54.890625 33.015625 
L 54.890625 0 
L 45.90625 0 
L 45.90625 32.71875 
Q 45.90625 40.484375 42.875 44.328125 
Q 39.84375 48.1875 33.796875 48.1875 
Q 26.515625 48.1875 22.3125 43.546875 
Q 18.109375 38.921875 18.109375 30.90625 
L 18.109375 0 
L 9.078125 0 
L 9.078125 54.6875 
L 18.109375 54.6875 
L 18.109375 46.1875 
Q 21.34375 51.125 25.703125 53.5625 
Q 30.078125 56 35.796875 56 
Q 45.21875 56 50.046875 50.171875 
Q 54.890625 44.34375 54.890625 33.015625 
z
" id="DejaVuSans-110"/>
     <path d="M 56.203125 29.59375 
L 56.203125 25.203125 
L 14.890625 25.203125 
Q 15.484375 15.921875 20.484375 11.0625 
Q 25.484375 6.203125 34.421875 6.203125 
Q 39.59375 6.203125 44.453125 7.46875 
Q 49.3125 8.734375 54.109375 11.28125 
L 54.109375 2.78125 
Q 49.265625 0.734375 44.1875 -0.34375 
Q 39.109375 -1.421875 33.890625 -1.421875 
Q 20.796875 -1.421875 13.15625 6.1875 
Q 5.515625 13.8125 5.515625 26.8125 
Q 5.515625 40.234375 12.765625 48.109375 
Q 20.015625 56 32.328125 56 
Q 43.359375 56 49.78125 48.890625 
Q 56.203125 41.796875 56.203125 29.59375 
z
M 47.21875 32.234375 
Q 47.125 39.59375 43.09375 43.984375 
Q 39.0625 48.390625 32.421875 48.390625 
Q 24.90625 48.390625 20.390625 44.140625 
Q 15.875 39.890625 15.1875 32.171875 
z
" id="DejaVuSans-101"/>
     <path d="M 52 44.1875 
Q 55.375 50.25 60.0625 53.125 
Q 64.75 56 71.09375 56 
Q 79.640625 56 84.28125 50.015625 
Q 88.921875 44.046875 88.921875 33.015625 
L 88.921875 0 
L 79.890625 0 
L 79.890625 32.71875 
Q 79.890625 40.578125 77.09375 44.375 
Q 74.3125 48.1875 68.609375 48.1875 
Q 61.625 48.1875 57.5625 43.546875 
Q 53.515625 38.921875 53.515625 30.90625 
L 53.515625 0 
L 44.484375 0 
L 44.484375 32.71875 
Q 44.484375 40.625 41.703125 44.40625 
Q 38.921875 48.1875 33.109375 48.1875 
Q 26.21875 48.1875 22.15625 43.53125 
Q 18.109375 38.875 18.109375 30.90625 
L 18.109375 0 
L 9.078125 0 
L 9.078125 54.6875 
L 18.109375 54.6875 
L 18.109375 46.1875 
Q 21.1875 51.21875 25.484375 53.609375 
Q 29.78125 56 35.6875 56 
Q 41.65625 56 45.828125 52.96875 
Q 50 49.953125 52 44.1875 
z
" id="DejaVuSans-109"/>
     <path d="M 9.078125 75.984375 
L 18.109375 75.984375 
L 18.109375 31.109375 
L 44.921875 54.6875 
L 56.390625 54.6875 
L 27.390625 29.109375 
L 57.625 0 
L 45.90625 0 
L 18.109375 26.703125 
L 18.109375 0 
L 9.078125 0 
z
" id="DejaVuSans-107"/>
    </defs>
    <g transform="translate(240.00875 23.76)scale(0.16 -0.16)">
     <use xlink:href="#DejaVuSans-80"/>
     <use x="60.302734" xlink:href="#DejaVuSans-83"/>
     <use x="123.779297" xlink:href="#DejaVuSans-78"/>
     <use x="198.583984" xlink:href="#DejaVuSans-82"/>
     <use x="268.066406" xlink:href="#DejaVuSans-32"/>
     <use x="299.853516" xlink:href="#DejaVuSans-118"/>
     <use x="359.033203" xlink:href="#DejaVuSans-115"/>
     <use x="411.132812" xlink:href="#DejaVuSans-32"/>
     <use x="442.919922" xlink:href="#DejaVuSans-69"/>
     <use x="506.103516" xlink:href="#DejaVuSans-112"/>
     <use x="569.580078" xlink:href="#DejaVuSans-111"/>
     <use x="630.761719" xlink:href="#DejaVuSans-99"/>
     <use x="685.742188" xlink:href="#DejaVuSans-104"/>
     <use x="749.121094" xlink:href="#DejaVuSans-115"/>
     <use x="801.220703" xlink:href="#DejaVuSans-32"/>
     <use x="833.007812" xlink:href="#DejaVuSans-102"/>
     <use x="868.212891" xlink:href="#DejaVuSans-111"/>
     <use x="929.394531" xlink:href="#DejaVuSans-114"/>
     <use x="970.507812" xlink:href="#DejaVuSans-32"/>
     <use x="1002.294922" xlink:href="#DejaVuSans-116"/>
     <use x="1041.503906" xlink:href="#DejaVuSans-114"/>
     <use x="1082.617188" xlink:href="#DejaVuSans-97"/>
     <use x="1143.896484" xlink:href="#DejaVuSans-110"/>
     <use x="1207.275391" xlink:href="#DejaVuSans-115"/>
     <use x="1259.375" xlink:href="#DejaVuSans-102"/>
     <use x="1294.580078" xlink:href="#DejaVuSans-101"/>
     <use x="1356.103516" xlink:href="#DejaVuSans-114"/>
     <use x="1397.216797" xlink:href="#DejaVuSans-32"/>
     <use x="1429.003906" xlink:href="#DejaVuSans-109"/>
     <use x="1526.416016" xlink:href="#DejaVuSans-97"/>
     <use x="1587.695312" xlink:href="#DejaVuSans-115"/>
     <use x="1639.794922" xlink:href="#DejaVuSans-107"/>
     <use x="1697.705078" xlink:href="#DejaVuSans-115"/>
    </g>
   </g>
   <g id="legend_1">
    <g id="patch_7">
     <path d="M 499.693125 379.72 
L 700.8 379.72 
Q 703.2 379.72 703.2 377.32 
L 703.2 272.8375 
Q 703.2 270.4375 700.8 270.4375 
L 499.693125 270.4375 
Q 497.293125 270.4375 497.293125 272.8375 
L 497.293125 377.32 
Q 497.293125 379.72 499.693125 379.72 
z
" style="fill:#ffffff;opacity:0.8;stroke:#cccccc;stroke-linejoin:miter;"/>
    </g>
    <g id="line2d_41">
     <path d="M 502.093125 280.155625 
L 526.093125 280.155625 
" style="fill:none;stroke:#1f77b4;stroke-linecap:square;stroke-width:2;"/>
    </g>
    <g id="line2d_42"/>
    <g id="text_21">
     <!-- OES-mask (cross-dataset) -->
     <defs>
      <path d="M 39.40625 66.21875 
Q 28.65625 66.21875 22.328125 58.203125 
Q 16.015625 50.203125 16.015625 36.375 
Q 16.015625 22.609375 22.328125 14.59375 
Q 28.65625 6.59375 39.40625 6.59375 
Q 50.140625 6.59375 56.421875 14.59375 
Q 62.703125 22.609375 62.703125 36.375 
Q 62.703125 50.203125 56.421875 58.203125 
Q 50.140625 66.21875 39.40625 66.21875 
z
M 39.40625 74.21875 
Q 54.734375 74.21875 63.90625 63.9375 
Q 73.09375 53.65625 73.09375 36.375 
Q 73.09375 19.140625 63.90625 8.859375 
Q 54.734375 -1.421875 39.40625 -1.421875 
Q 24.03125 -1.421875 14.8125 8.828125 
Q 5.609375 19.09375 5.609375 36.375 
Q 5.609375 53.65625 14.8125 63.9375 
Q 24.03125 74.21875 39.40625 74.21875 
z
" id="DejaVuSans-79"/>
      <path d="M 4.890625 31.390625 
L 31.203125 31.390625 
L 31.203125 23.390625 
L 4.890625 23.390625 
z
" id="DejaVuSans-45"/>
      <path d="M 31 75.875 
Q 24.46875 64.65625 21.28125 53.65625 
Q 18.109375 42.671875 18.109375 31.390625 
Q 18.109375 20.125 21.3125 9.0625 
Q 24.515625 -2 31 -13.1875 
L 23.1875 -13.1875 
Q 15.875 -1.703125 12.234375 9.375 
Q 8.59375 20.453125 8.59375 31.390625 
Q 8.59375 42.28125 12.203125 53.3125 
Q 15.828125 64.359375 23.1875 75.875 
z
" id="DejaVuSans-40"/>
      <path d="M 45.40625 46.390625 
L 45.40625 75.984375 
L 54.390625 75.984375 
L 54.390625 0 
L 45.40625 0 
L 45.40625 8.203125 
Q 42.578125 3.328125 38.25 0.953125 
Q 33.9375 -1.421875 27.875 -1.421875 
Q 17.96875 -1.421875 11.734375 6.484375 
Q 5.515625 14.40625 5.515625 27.296875 
Q 5.515625 40.1875 11.734375 48.09375 
Q 17.96875 56 27.875 56 
Q 33.9375 56 38.25 53.625 
Q 42.578125 51.265625 45.40625 46.390625 
z
M 14.796875 27.296875 
Q 14.796875 17.390625 18.875 11.75 
Q 22.953125 6.109375 30.078125 6.109375 
Q 37.203125 6.109375 41.296875 11.75 
Q 45.40625 17.390625 45.40625 27.296875 
Q 45.40625 37.203125 41.296875 42.84375 
Q 37.203125 48.484375 30.078125 48.484375 
Q 22.953125 48.484375 18.875 42.84375 
Q 14.796875 37.203125 14.796875 27.296875 
z
" id="DejaVuSans-100"/>
      <path d="M 8.015625 75.875 
L 15.828125 75.875 
Q 23.140625 64.359375 26.78125 53.3125 
Q 30.421875 42.28125 30.421875 31.390625 
Q 30.421875 20.453125 26.78125 9.375 
Q 23.140625 -1.703125 15.828125 -13.1875 
L 8.015625 -13.1875 
Q 14.5 -2 17.703125 9.0625 
Q 20.90625 20.125 20.90625 31.390625 
Q 20.90625 42.671875 17.703125 53.65625 
Q 14.5 64.65625 8.015625 75.875 
z
" id="DejaVuSans-41"/>
     </defs>
     <g transform="translate(535.693125 284.355625)scale(0.12 -0.12)">
      <use xlink:href="#DejaVuSans-79"/>
      <use x="78.710938" xlink:href="#DejaVuSans-69"/>
      <use x="141.894531" xlink:href="#DejaVuSans-83"/>
      <use x="205.371094" xlink:href="#DejaVuSans-45"/>
      <use x="241.455078" xlink:href="#DejaVuSans-109"/>
      <use x="338.867188" xlink:href="#DejaVuSans-97"/>
      <use x="400.146484" xlink:href="#DejaVuSans-115"/>
      <use x="452.246094" xlink:href="#DejaVuSans-107"/>
      <use x="510.15625" xlink:href="#DejaVuSans-32"/>
      <use x="541.943359" xlink:href="#DejaVuSans-40"/>
      <use x="580.957031" xlink:href="#DejaVuSans-99"/>
      <use x="635.9375" xlink:href="#DejaVuSans-114"/>
      <use x="677.019531" xlink:href="#DejaVuSans-111"/>
      <use x="738.201172" xlink:href="#DejaVuSans-115"/>
      <use x="790.300781" xlink:href="#DejaVuSans-115"/>
      <use x="842.400391" xlink:href="#DejaVuSans-45"/>
      <use x="878.484375" xlink:href="#DejaVuSans-100"/>
      <use x="941.960938" xlink:href="#DejaVuSans-97"/>
      <use x="1003.240234" xlink:href="#DejaVuSans-116"/>
      <use x="1042.449219" xlink:href="#DejaVuSans-97"/>
      <use x="1103.728516" xlink:href="#DejaVuSans-115"/>
      <use x="1155.828125" xlink:href="#DejaVuSans-101"/>
      <use x="1217.351562" xlink:href="#DejaVuSans-116"/>
      <use x="1256.560547" xlink:href="#DejaVuSans-41"/>
     </g>
    </g>
    <g id="line2d_43">
     <path d="M 502.093125 297.769375 
L 526.093125 297.769375 
" style="fill:none;stroke:#ff7f0e;stroke-linecap:square;stroke-width:2;"/>
    </g>
    <g id="line2d_44"/>
    <g id="text_22">
     <!-- IMP-mask (cross-dataset) -->
     <defs>
      <path d="M 9.8125 72.90625 
L 19.671875 72.90625 
L 19.671875 0 
L 9.8125 0 
z
" id="DejaVuSans-73"/>
      <path d="M 9.8125 72.90625 
L 24.515625 72.90625 
L 43.109375 23.296875 
L 61.8125 72.90625 
L 76.515625 72.90625 
L 76.515625 0 
L 66.890625 0 
L 66.890625 64.015625 
L 48.09375 14.015625 
L 38.1875 14.015625 
L 19.390625 64.015625 
L 19.390625 0 
L 9.8125 0 
z
" id="DejaVuSans-77"/>
     </defs>
     <g transform="translate(535.693125 301.969375)scale(0.12 -0.12)">
      <use xlink:href="#DejaVuSans-73"/>
      <use x="29.492188" xlink:href="#DejaVuSans-77"/>
      <use x="115.771484" xlink:href="#DejaVuSans-80"/>
      <use x="176.042969" xlink:href="#DejaVuSans-45"/>
      <use x="212.126953" xlink:href="#DejaVuSans-109"/>
      <use x="309.539062" xlink:href="#DejaVuSans-97"/>
      <use x="370.818359" xlink:href="#DejaVuSans-115"/>
      <use x="422.917969" xlink:href="#DejaVuSans-107"/>
      <use x="480.828125" xlink:href="#DejaVuSans-32"/>
      <use x="512.615234" xlink:href="#DejaVuSans-40"/>
      <use x="551.628906" xlink:href="#DejaVuSans-99"/>
      <use x="606.609375" xlink:href="#DejaVuSans-114"/>
      <use x="647.691406" xlink:href="#DejaVuSans-111"/>
      <use x="708.873047" xlink:href="#DejaVuSans-115"/>
      <use x="760.972656" xlink:href="#DejaVuSans-115"/>
      <use x="813.072266" xlink:href="#DejaVuSans-45"/>
      <use x="849.15625" xlink:href="#DejaVuSans-100"/>
      <use x="912.632812" xlink:href="#DejaVuSans-97"/>
      <use x="973.912109" xlink:href="#DejaVuSans-116"/>
      <use x="1013.121094" xlink:href="#DejaVuSans-97"/>
      <use x="1074.400391" xlink:href="#DejaVuSans-115"/>
      <use x="1126.5" xlink:href="#DejaVuSans-101"/>
      <use x="1188.023438" xlink:href="#DejaVuSans-116"/>
      <use x="1227.232422" xlink:href="#DejaVuSans-41"/>
     </g>
    </g>
    <g id="line2d_45">
     <path d="M 502.093125 315.383125 
L 526.093125 315.383125 
" style="fill:none;stroke:#2ca02c;stroke-linecap:square;stroke-width:2;"/>
    </g>
    <g id="line2d_46"/>
    <g id="text_23">
     <!-- OES-mask-self -->
     <defs>
      <path d="M 9.421875 75.984375 
L 18.40625 75.984375 
L 18.40625 0 
L 9.421875 0 
z
" id="DejaVuSans-108"/>
     </defs>
     <g transform="translate(535.693125 319.583125)scale(0.12 -0.12)">
      <use xlink:href="#DejaVuSans-79"/>
      <use x="78.710938" xlink:href="#DejaVuSans-69"/>
      <use x="141.894531" xlink:href="#DejaVuSans-83"/>
      <use x="205.371094" xlink:href="#DejaVuSans-45"/>
      <use x="241.455078" xlink:href="#DejaVuSans-109"/>
      <use x="338.867188" xlink:href="#DejaVuSans-97"/>
      <use x="400.146484" xlink:href="#DejaVuSans-115"/>
      <use x="452.246094" xlink:href="#DejaVuSans-107"/>
      <use x="510.15625" xlink:href="#DejaVuSans-45"/>
      <use x="546.240234" xlink:href="#DejaVuSans-115"/>
      <use x="598.339844" xlink:href="#DejaVuSans-101"/>
      <use x="659.863281" xlink:href="#DejaVuSans-108"/>
      <use x="687.646484" xlink:href="#DejaVuSans-102"/>
     </g>
    </g>
    <g id="line2d_47">
     <path d="M 502.093125 332.996875 
L 526.093125 332.996875 
" style="fill:none;stroke:#d62728;stroke-linecap:square;stroke-width:2;"/>
    </g>
    <g id="line2d_48"/>
    <g id="text_24">
     <!-- IMP-mask-self -->
     <g transform="translate(535.693125 337.196875)scale(0.12 -0.12)">
      <use xlink:href="#DejaVuSans-73"/>
      <use x="29.492188" xlink:href="#DejaVuSans-77"/>
      <use x="115.771484" xlink:href="#DejaVuSans-80"/>
      <use x="176.042969" xlink:href="#DejaVuSans-45"/>
      <use x="212.126953" xlink:href="#DejaVuSans-109"/>
      <use x="309.539062" xlink:href="#DejaVuSans-97"/>
      <use x="370.818359" xlink:href="#DejaVuSans-115"/>
      <use x="422.917969" xlink:href="#DejaVuSans-107"/>
      <use x="480.828125" xlink:href="#DejaVuSans-45"/>
      <use x="516.912109" xlink:href="#DejaVuSans-115"/>
      <use x="569.011719" xlink:href="#DejaVuSans-101"/>
      <use x="630.535156" xlink:href="#DejaVuSans-108"/>
      <use x="658.318359" xlink:href="#DejaVuSans-102"/>
     </g>
    </g>
    <g id="line2d_49">
     <path d="M 502.093125 350.610625 
L 526.093125 350.610625 
" style="fill:none;stroke:#9467bd;stroke-linecap:square;stroke-width:2;"/>
    </g>
    <g id="line2d_50"/>
    <g id="text_25">
     <!-- OES-mask (inter dataaset)  -->
     <defs>
      <path d="M 9.421875 54.6875 
L 18.40625 54.6875 
L 18.40625 0 
L 9.421875 0 
z
M 9.421875 75.984375 
L 18.40625 75.984375 
L 18.40625 64.59375 
L 9.421875 64.59375 
z
" id="DejaVuSans-105"/>
     </defs>
     <g transform="translate(535.693125 354.810625)scale(0.12 -0.12)">
      <use xlink:href="#DejaVuSans-79"/>
      <use x="78.710938" xlink:href="#DejaVuSans-69"/>
      <use x="141.894531" xlink:href="#DejaVuSans-83"/>
      <use x="205.371094" xlink:href="#DejaVuSans-45"/>
      <use x="241.455078" xlink:href="#DejaVuSans-109"/>
      <use x="338.867188" xlink:href="#DejaVuSans-97"/>
      <use x="400.146484" xlink:href="#DejaVuSans-115"/>
      <use x="452.246094" xlink:href="#DejaVuSans-107"/>
      <use x="510.15625" xlink:href="#DejaVuSans-32"/>
      <use x="541.943359" xlink:href="#DejaVuSans-40"/>
      <use x="580.957031" xlink:href="#DejaVuSans-105"/>
      <use x="608.740234" xlink:href="#DejaVuSans-110"/>
      <use x="672.119141" xlink:href="#DejaVuSans-116"/>
      <use x="711.328125" xlink:href="#DejaVuSans-101"/>
      <use x="772.851562" xlink:href="#DejaVuSans-114"/>
      <use x="813.964844" xlink:href="#DejaVuSans-32"/>
      <use x="845.751953" xlink:href="#DejaVuSans-100"/>
      <use x="909.228516" xlink:href="#DejaVuSans-97"/>
      <use x="970.507812" xlink:href="#DejaVuSans-116"/>
      <use x="1009.716797" xlink:href="#DejaVuSans-97"/>
      <use x="1070.996094" xlink:href="#DejaVuSans-97"/>
      <use x="1132.275391" xlink:href="#DejaVuSans-115"/>
      <use x="1184.375" xlink:href="#DejaVuSans-101"/>
      <use x="1245.898438" xlink:href="#DejaVuSans-116"/>
      <use x="1285.107422" xlink:href="#DejaVuSans-41"/>
      <use x="1324.121094" xlink:href="#DejaVuSans-32"/>
     </g>
    </g>
    <g id="line2d_51">
     <path d="M 502.093125 368.224375 
L 526.093125 368.224375 
" style="fill:none;stroke:#8c564b;stroke-linecap:square;stroke-width:2;"/>
    </g>
    <g id="line2d_52"/>
    <g id="text_26">
     <!-- IMP-mask (inter dataaset) -->
     <g transform="translate(535.693125 372.424375)scale(0.12 -0.12)">
      <use xlink:href="#DejaVuSans-73"/>
      <use x="29.492188" xlink:href="#DejaVuSans-77"/>
      <use x="115.771484" xlink:href="#DejaVuSans-80"/>
      <use x="176.042969" xlink:href="#DejaVuSans-45"/>
      <use x="212.126953" xlink:href="#DejaVuSans-109"/>
      <use x="309.539062" xlink:href="#DejaVuSans-97"/>
      <use x="370.818359" xlink:href="#DejaVuSans-115"/>
      <use x="422.917969" xlink:href="#DejaVuSans-107"/>
      <use x="480.828125" xlink:href="#DejaVuSans-32"/>
      <use x="512.615234" xlink:href="#DejaVuSans-40"/>
      <use x="551.628906" xlink:href="#DejaVuSans-105"/>
      <use x="579.412109" xlink:href="#DejaVuSans-110"/>
      <use x="642.791016" xlink:href="#DejaVuSans-116"/>
      <use x="682" xlink:href="#DejaVuSans-101"/>
      <use x="743.523438" xlink:href="#DejaVuSans-114"/>
      <use x="784.636719" xlink:href="#DejaVuSans-32"/>
      <use x="816.423828" xlink:href="#DejaVuSans-100"/>
      <use x="879.900391" xlink:href="#DejaVuSans-97"/>
      <use x="941.179688" xlink:href="#DejaVuSans-116"/>
      <use x="980.388672" xlink:href="#DejaVuSans-97"/>
      <use x="1041.667969" xlink:href="#DejaVuSans-97"/>
      <use x="1102.947266" xlink:href="#DejaVuSans-115"/>
      <use x="1155.046875" xlink:href="#DejaVuSans-101"/>
      <use x="1216.570312" xlink:href="#DejaVuSans-116"/>
      <use x="1255.779297" xlink:href="#DejaVuSans-41"/>
     </g>
    </g>
   </g>
  </g>
 </g>
 <defs>
  <clipPath id="p9e22ef8b92">
   <rect height="355.96" width="658.42" x="50.78" y="29.76"/>
  </clipPath>
 </defs>
</svg>
