<?xml version="1.0" encoding="utf-8" standalone="no"?>
<!DOCTYPE svg PUBLIC "-//W3C//DTD SVG 1.1//EN"
  "http://www.w3.org/Graphics/SVG/1.1/DTD/svg11.dtd">
<!-- Created with matplotlib (https://matplotlib.org/) -->
<svg height="432pt" version="1.1" viewBox="0 0 720 432" width="720pt" xmlns="http://www.w3.org/2000/svg" xmlns:xlink="http://www.w3.org/1999/xlink">
 <defs>
  <style type="text/css">
*{stroke-linecap:butt;stroke-linejoin:round;}
  </style>
 </defs>
 <g id="figure_1">
  <g id="patch_1">
   <path d="M 0 432 
L 720 432 
L 720 0 
L 0 0 
z
" style="fill:#ffffff;"/>
  </g>
  <g id="axes_1">
   <g id="patch_2">
    <path d="M 50.78 385.72 
L 709.2 385.72 
L 709.2 29.76 
L 50.78 29.76 
z
" style="fill:#ffffff;"/>
   </g>
   <g id="matplotlib.axis_1">
    <g id="xtick_1">
     <g id="line2d_1">
      <path clip-path="url(#pa7eea2442b)" d="M 80.708182 385.72 
L 80.708182 29.76 
" style="fill:none;stroke:#b0b0b0;stroke-linecap:square;stroke-width:0.8;"/>
     </g>
     <g id="line2d_2">
      <defs>
       <path d="M 0 0 
L 0 3.5 
" id="mea8542bd23" style="stroke:#000000;stroke-width:0.8;"/>
      </defs>
      <g>
       <use style="stroke:#000000;stroke-width:0.8;" x="80.708182" xlink:href="#mea8542bd23" y="385.72"/>
      </g>
     </g>
     <g id="text_1">
      <!-- 0 -->
      <defs>
       <path d="M 31.78125 66.40625 
Q 24.171875 66.40625 20.328125 58.90625 
Q 16.5 51.421875 16.5 36.375 
Q 16.5 21.390625 20.328125 13.890625 
Q 24.171875 6.390625 31.78125 6.390625 
Q 39.453125 6.390625 43.28125 13.890625 
Q 47.125 21.390625 47.125 36.375 
Q 47.125 51.421875 43.28125 58.90625 
Q 39.453125 66.40625 31.78125 66.40625 
z
M 31.78125 74.21875 
Q 44.046875 74.21875 50.515625 64.515625 
Q 56.984375 54.828125 56.984375 36.375 
Q 56.984375 17.96875 50.515625 8.265625 
Q 44.046875 -1.421875 31.78125 -1.421875 
Q 19.53125 -1.421875 13.0625 8.265625 
Q 6.59375 17.96875 6.59375 36.375 
Q 6.59375 54.828125 13.0625 64.515625 
Q 19.53125 74.21875 31.78125 74.21875 
z
" id="DejaVuSans-48"/>
      </defs>
      <g transform="translate(76.890682 401.838125)scale(0.12 -0.12)">
       <use xlink:href="#DejaVuSans-48"/>
      </g>
     </g>
    </g>
    <g id="xtick_2">
     <g id="line2d_3">
      <path clip-path="url(#pa7eea2442b)" d="M 155.904619 385.72 
L 155.904619 29.76 
" style="fill:none;stroke:#b0b0b0;stroke-linecap:square;stroke-width:0.8;"/>
     </g>
     <g id="line2d_4">
      <g>
       <use style="stroke:#000000;stroke-width:0.8;" x="155.904619" xlink:href="#mea8542bd23" y="385.72"/>
      </g>
     </g>
     <g id="text_2">
      <!-- 5000 -->
      <defs>
       <path d="M 10.796875 72.90625 
L 49.515625 72.90625 
L 49.515625 64.59375 
L 19.828125 64.59375 
L 19.828125 46.734375 
Q 21.96875 47.46875 24.109375 47.828125 
Q 26.265625 48.1875 28.421875 48.1875 
Q 40.625 48.1875 47.75 41.5 
Q 54.890625 34.8125 54.890625 23.390625 
Q 54.890625 11.625 47.5625 5.09375 
Q 40.234375 -1.421875 26.90625 -1.421875 
Q 22.3125 -1.421875 17.546875 -0.640625 
Q 12.796875 0.140625 7.71875 1.703125 
L 7.71875 11.625 
Q 12.109375 9.234375 16.796875 8.0625 
Q 21.484375 6.890625 26.703125 6.890625 
Q 35.15625 6.890625 40.078125 11.328125 
Q 45.015625 15.765625 45.015625 23.390625 
Q 45.015625 31 40.078125 35.4375 
Q 35.15625 39.890625 26.703125 39.890625 
Q 22.75 39.890625 18.8125 39.015625 
Q 14.890625 38.140625 10.796875 36.28125 
z
" id="DejaVuSans-53"/>
      </defs>
      <g transform="translate(140.634619 401.838125)scale(0.12 -0.12)">
       <use xlink:href="#DejaVuSans-53"/>
       <use x="63.623047" xlink:href="#DejaVuSans-48"/>
       <use x="127.246094" xlink:href="#DejaVuSans-48"/>
       <use x="190.869141" xlink:href="#DejaVuSans-48"/>
      </g>
     </g>
    </g>
    <g id="xtick_3">
     <g id="line2d_5">
      <path clip-path="url(#pa7eea2442b)" d="M 231.101055 385.72 
L 231.101055 29.76 
" style="fill:none;stroke:#b0b0b0;stroke-linecap:square;stroke-width:0.8;"/>
     </g>
     <g id="line2d_6">
      <g>
       <use style="stroke:#000000;stroke-width:0.8;" x="231.101055" xlink:href="#mea8542bd23" y="385.72"/>
      </g>
     </g>
     <g id="text_3">
      <!-- 10000 -->
      <defs>
       <path d="M 12.40625 8.296875 
L 28.515625 8.296875 
L 28.515625 63.921875 
L 10.984375 60.40625 
L 10.984375 69.390625 
L 28.421875 72.90625 
L 38.28125 72.90625 
L 38.28125 8.296875 
L 54.390625 8.296875 
L 54.390625 0 
L 12.40625 0 
z
" id="DejaVuSans-49"/>
      </defs>
      <g transform="translate(212.013555 401.838125)scale(0.12 -0.12)">
       <use xlink:href="#DejaVuSans-49"/>
       <use x="63.623047" xlink:href="#DejaVuSans-48"/>
       <use x="127.246094" xlink:href="#DejaVuSans-48"/>
       <use x="190.869141" xlink:href="#DejaVuSans-48"/>
       <use x="254.492188" xlink:href="#DejaVuSans-48"/>
      </g>
     </g>
    </g>
    <g id="xtick_4">
     <g id="line2d_7">
      <path clip-path="url(#pa7eea2442b)" d="M 306.297492 385.72 
L 306.297492 29.76 
" style="fill:none;stroke:#b0b0b0;stroke-linecap:square;stroke-width:0.8;"/>
     </g>
     <g id="line2d_8">
      <g>
       <use style="stroke:#000000;stroke-width:0.8;" x="306.297492" xlink:href="#mea8542bd23" y="385.72"/>
      </g>
     </g>
     <g id="text_4">
      <!-- 15000 -->
      <g transform="translate(287.209992 401.838125)scale(0.12 -0.12)">
       <use xlink:href="#DejaVuSans-49"/>
       <use x="63.623047" xlink:href="#DejaVuSans-53"/>
       <use x="127.246094" xlink:href="#DejaVuSans-48"/>
       <use x="190.869141" xlink:href="#DejaVuSans-48"/>
       <use x="254.492188" xlink:href="#DejaVuSans-48"/>
      </g>
     </g>
    </g>
    <g id="xtick_5">
     <g id="line2d_9">
      <path clip-path="url(#pa7eea2442b)" d="M 381.493929 385.72 
L 381.493929 29.76 
" style="fill:none;stroke:#b0b0b0;stroke-linecap:square;stroke-width:0.8;"/>
     </g>
     <g id="line2d_10">
      <g>
       <use style="stroke:#000000;stroke-width:0.8;" x="381.493929" xlink:href="#mea8542bd23" y="385.72"/>
      </g>
     </g>
     <g id="text_5">
      <!-- 20000 -->
      <defs>
       <path d="M 19.1875 8.296875 
L 53.609375 8.296875 
L 53.609375 0 
L 7.328125 0 
L 7.328125 8.296875 
Q 12.9375 14.109375 22.625 23.890625 
Q 32.328125 33.6875 34.8125 36.53125 
Q 39.546875 41.84375 41.421875 45.53125 
Q 43.3125 49.21875 43.3125 52.78125 
Q 43.3125 58.59375 39.234375 62.25 
Q 35.15625 65.921875 28.609375 65.921875 
Q 23.96875 65.921875 18.8125 64.3125 
Q 13.671875 62.703125 7.8125 59.421875 
L 7.8125 69.390625 
Q 13.765625 71.78125 18.9375 73 
Q 24.125 74.21875 28.421875 74.21875 
Q 39.75 74.21875 46.484375 68.546875 
Q 53.21875 62.890625 53.21875 53.421875 
Q 53.21875 48.921875 51.53125 44.890625 
Q 49.859375 40.875 45.40625 35.40625 
Q 44.1875 33.984375 37.640625 27.21875 
Q 31.109375 20.453125 19.1875 8.296875 
z
" id="DejaVuSans-50"/>
      </defs>
      <g transform="translate(362.406429 401.838125)scale(0.12 -0.12)">
       <use xlink:href="#DejaVuSans-50"/>
       <use x="63.623047" xlink:href="#DejaVuSans-48"/>
       <use x="127.246094" xlink:href="#DejaVuSans-48"/>
       <use x="190.869141" xlink:href="#DejaVuSans-48"/>
       <use x="254.492188" xlink:href="#DejaVuSans-48"/>
      </g>
     </g>
    </g>
    <g id="xtick_6">
     <g id="line2d_11">
      <path clip-path="url(#pa7eea2442b)" d="M 456.690365 385.72 
L 456.690365 29.76 
" style="fill:none;stroke:#b0b0b0;stroke-linecap:square;stroke-width:0.8;"/>
     </g>
     <g id="line2d_12">
      <g>
       <use style="stroke:#000000;stroke-width:0.8;" x="456.690365" xlink:href="#mea8542bd23" y="385.72"/>
      </g>
     </g>
     <g id="text_6">
      <!-- 25000 -->
      <g transform="translate(437.602865 401.838125)scale(0.12 -0.12)">
       <use xlink:href="#DejaVuSans-50"/>
       <use x="63.623047" xlink:href="#DejaVuSans-53"/>
       <use x="127.246094" xlink:href="#DejaVuSans-48"/>
       <use x="190.869141" xlink:href="#DejaVuSans-48"/>
       <use x="254.492188" xlink:href="#DejaVuSans-48"/>
      </g>
     </g>
    </g>
    <g id="xtick_7">
     <g id="line2d_13">
      <path clip-path="url(#pa7eea2442b)" d="M 531.886802 385.72 
L 531.886802 29.76 
" style="fill:none;stroke:#b0b0b0;stroke-linecap:square;stroke-width:0.8;"/>
     </g>
     <g id="line2d_14">
      <g>
       <use style="stroke:#000000;stroke-width:0.8;" x="531.886802" xlink:href="#mea8542bd23" y="385.72"/>
      </g>
     </g>
     <g id="text_7">
      <!-- 30000 -->
      <defs>
       <path d="M 40.578125 39.3125 
Q 47.65625 37.796875 51.625 33 
Q 55.609375 28.21875 55.609375 21.1875 
Q 55.609375 10.40625 48.1875 4.484375 
Q 40.765625 -1.421875 27.09375 -1.421875 
Q 22.515625 -1.421875 17.65625 -0.515625 
Q 12.796875 0.390625 7.625 2.203125 
L 7.625 11.71875 
Q 11.71875 9.328125 16.59375 8.109375 
Q 21.484375 6.890625 26.8125 6.890625 
Q 36.078125 6.890625 40.9375 10.546875 
Q 45.796875 14.203125 45.796875 21.1875 
Q 45.796875 27.640625 41.28125 31.265625 
Q 36.765625 34.90625 28.71875 34.90625 
L 20.21875 34.90625 
L 20.21875 43.015625 
L 29.109375 43.015625 
Q 36.375 43.015625 40.234375 45.921875 
Q 44.09375 48.828125 44.09375 54.296875 
Q 44.09375 59.90625 40.109375 62.90625 
Q 36.140625 65.921875 28.71875 65.921875 
Q 24.65625 65.921875 20.015625 65.03125 
Q 15.375 64.15625 9.8125 62.3125 
L 9.8125 71.09375 
Q 15.4375 72.65625 20.34375 73.4375 
Q 25.25 74.21875 29.59375 74.21875 
Q 40.828125 74.21875 47.359375 69.109375 
Q 53.90625 64.015625 53.90625 55.328125 
Q 53.90625 49.265625 50.4375 45.09375 
Q 46.96875 40.921875 40.578125 39.3125 
z
" id="DejaVuSans-51"/>
      </defs>
      <g transform="translate(512.799302 401.838125)scale(0.12 -0.12)">
       <use xlink:href="#DejaVuSans-51"/>
       <use x="63.623047" xlink:href="#DejaVuSans-48"/>
       <use x="127.246094" xlink:href="#DejaVuSans-48"/>
       <use x="190.869141" xlink:href="#DejaVuSans-48"/>
       <use x="254.492188" xlink:href="#DejaVuSans-48"/>
      </g>
     </g>
    </g>
    <g id="xtick_8">
     <g id="line2d_15">
      <path clip-path="url(#pa7eea2442b)" d="M 607.083239 385.72 
L 607.083239 29.76 
" style="fill:none;stroke:#b0b0b0;stroke-linecap:square;stroke-width:0.8;"/>
     </g>
     <g id="line2d_16">
      <g>
       <use style="stroke:#000000;stroke-width:0.8;" x="607.083239" xlink:href="#mea8542bd23" y="385.72"/>
      </g>
     </g>
     <g id="text_8">
      <!-- 35000 -->
      <g transform="translate(587.995739 401.838125)scale(0.12 -0.12)">
       <use xlink:href="#DejaVuSans-51"/>
       <use x="63.623047" xlink:href="#DejaVuSans-53"/>
       <use x="127.246094" xlink:href="#DejaVuSans-48"/>
       <use x="190.869141" xlink:href="#DejaVuSans-48"/>
       <use x="254.492188" xlink:href="#DejaVuSans-48"/>
      </g>
     </g>
    </g>
    <g id="xtick_9">
     <g id="line2d_17">
      <path clip-path="url(#pa7eea2442b)" d="M 682.279676 385.72 
L 682.279676 29.76 
" style="fill:none;stroke:#b0b0b0;stroke-linecap:square;stroke-width:0.8;"/>
     </g>
     <g id="line2d_18">
      <g>
       <use style="stroke:#000000;stroke-width:0.8;" x="682.279676" xlink:href="#mea8542bd23" y="385.72"/>
      </g>
     </g>
     <g id="text_9">
      <!-- 40000 -->
      <defs>
       <path d="M 37.796875 64.3125 
L 12.890625 25.390625 
L 37.796875 25.390625 
z
M 35.203125 72.90625 
L 47.609375 72.90625 
L 47.609375 25.390625 
L 58.015625 25.390625 
L 58.015625 17.1875 
L 47.609375 17.1875 
L 47.609375 0 
L 37.796875 0 
L 37.796875 17.1875 
L 4.890625 17.1875 
L 4.890625 26.703125 
z
" id="DejaVuSans-52"/>
      </defs>
      <g transform="translate(663.192176 401.838125)scale(0.12 -0.12)">
       <use xlink:href="#DejaVuSans-52"/>
       <use x="63.623047" xlink:href="#DejaVuSans-48"/>
       <use x="127.246094" xlink:href="#DejaVuSans-48"/>
       <use x="190.869141" xlink:href="#DejaVuSans-48"/>
       <use x="254.492188" xlink:href="#DejaVuSans-48"/>
      </g>
     </g>
    </g>
    <g id="text_10">
     <!-- Epoch -->
     <defs>
      <path d="M 9.8125 72.90625 
L 55.90625 72.90625 
L 55.90625 64.59375 
L 19.671875 64.59375 
L 19.671875 43.015625 
L 54.390625 43.015625 
L 54.390625 34.71875 
L 19.671875 34.71875 
L 19.671875 8.296875 
L 56.78125 8.296875 
L 56.78125 0 
L 9.8125 0 
z
" id="DejaVuSans-69"/>
      <path d="M 18.109375 8.203125 
L 18.109375 -20.796875 
L 9.078125 -20.796875 
L 9.078125 54.6875 
L 18.109375 54.6875 
L 18.109375 46.390625 
Q 20.953125 51.265625 25.265625 53.625 
Q 29.59375 56 35.59375 56 
Q 45.5625 56 51.78125 48.09375 
Q 58.015625 40.1875 58.015625 27.296875 
Q 58.015625 14.40625 51.78125 6.484375 
Q 45.5625 -1.421875 35.59375 -1.421875 
Q 29.59375 -1.421875 25.265625 0.953125 
Q 20.953125 3.328125 18.109375 8.203125 
z
M 48.6875 27.296875 
Q 48.6875 37.203125 44.609375 42.84375 
Q 40.53125 48.484375 33.40625 48.484375 
Q 26.265625 48.484375 22.1875 42.84375 
Q 18.109375 37.203125 18.109375 27.296875 
Q 18.109375 17.390625 22.1875 11.75 
Q 26.265625 6.109375 33.40625 6.109375 
Q 40.53125 6.109375 44.609375 11.75 
Q 48.6875 17.390625 48.6875 27.296875 
z
" id="DejaVuSans-112"/>
      <path d="M 30.609375 48.390625 
Q 23.390625 48.390625 19.1875 42.75 
Q 14.984375 37.109375 14.984375 27.296875 
Q 14.984375 17.484375 19.15625 11.84375 
Q 23.34375 6.203125 30.609375 6.203125 
Q 37.796875 6.203125 41.984375 11.859375 
Q 46.1875 17.53125 46.1875 27.296875 
Q 46.1875 37.015625 41.984375 42.703125 
Q 37.796875 48.390625 30.609375 48.390625 
z
M 30.609375 56 
Q 42.328125 56 49.015625 48.375 
Q 55.71875 40.765625 55.71875 27.296875 
Q 55.71875 13.875 49.015625 6.21875 
Q 42.328125 -1.421875 30.609375 -1.421875 
Q 18.84375 -1.421875 12.171875 6.21875 
Q 5.515625 13.875 5.515625 27.296875 
Q 5.515625 40.765625 12.171875 48.375 
Q 18.84375 56 30.609375 56 
z
" id="DejaVuSans-111"/>
      <path d="M 48.78125 52.59375 
L 48.78125 44.1875 
Q 44.96875 46.296875 41.140625 47.34375 
Q 37.3125 48.390625 33.40625 48.390625 
Q 24.65625 48.390625 19.8125 42.84375 
Q 14.984375 37.3125 14.984375 27.296875 
Q 14.984375 17.28125 19.8125 11.734375 
Q 24.65625 6.203125 33.40625 6.203125 
Q 37.3125 6.203125 41.140625 7.25 
Q 44.96875 8.296875 48.78125 10.40625 
L 48.78125 2.09375 
Q 45.015625 0.34375 40.984375 -0.53125 
Q 36.96875 -1.421875 32.421875 -1.421875 
Q 20.0625 -1.421875 12.78125 6.34375 
Q 5.515625 14.109375 5.515625 27.296875 
Q 5.515625 40.671875 12.859375 48.328125 
Q 20.21875 56 33.015625 56 
Q 37.15625 56 41.109375 55.140625 
Q 45.0625 54.296875 48.78125 52.59375 
z
" id="DejaVuSans-99"/>
      <path d="M 54.890625 33.015625 
L 54.890625 0 
L 45.90625 0 
L 45.90625 32.71875 
Q 45.90625 40.484375 42.875 44.328125 
Q 39.84375 48.1875 33.796875 48.1875 
Q 26.515625 48.1875 22.3125 43.546875 
Q 18.109375 38.921875 18.109375 30.90625 
L 18.109375 0 
L 9.078125 0 
L 9.078125 75.984375 
L 18.109375 75.984375 
L 18.109375 46.1875 
Q 21.34375 51.125 25.703125 53.5625 
Q 30.078125 56 35.796875 56 
Q 45.21875 56 50.046875 50.171875 
Q 54.890625 44.34375 54.890625 33.015625 
z
" id="DejaVuSans-104"/>
     </defs>
     <g transform="translate(358.554688 418.971563)scale(0.14 -0.14)">
      <use xlink:href="#DejaVuSans-69"/>
      <use x="63.183594" xlink:href="#DejaVuSans-112"/>
      <use x="126.660156" xlink:href="#DejaVuSans-111"/>
      <use x="187.841797" xlink:href="#DejaVuSans-99"/>
      <use x="242.822266" xlink:href="#DejaVuSans-104"/>
     </g>
    </g>
   </g>
   <g id="matplotlib.axis_2">
    <g id="ytick_1">
     <g id="line2d_19">
      <path clip-path="url(#pa7eea2442b)" d="M 50.78 385.72 
L 709.2 385.72 
" style="fill:none;stroke:#b0b0b0;stroke-linecap:square;stroke-width:0.8;"/>
     </g>
     <g id="line2d_20">
      <defs>
       <path d="M 0 0 
L -3.5 0 
" id="me8cc6f381f" style="stroke:#000000;stroke-width:0.8;"/>
      </defs>
      <g>
       <use style="stroke:#000000;stroke-width:0.8;" x="50.78" xlink:href="#me8cc6f381f" y="385.72"/>
      </g>
     </g>
     <g id="text_11">
      <!-- 18 -->
      <defs>
       <path d="M 31.78125 34.625 
Q 24.75 34.625 20.71875 30.859375 
Q 16.703125 27.09375 16.703125 20.515625 
Q 16.703125 13.921875 20.71875 10.15625 
Q 24.75 6.390625 31.78125 6.390625 
Q 38.8125 6.390625 42.859375 10.171875 
Q 46.921875 13.96875 46.921875 20.515625 
Q 46.921875 27.09375 42.890625 30.859375 
Q 38.875 34.625 31.78125 34.625 
z
M 21.921875 38.8125 
Q 15.578125 40.375 12.03125 44.71875 
Q 8.5 49.078125 8.5 55.328125 
Q 8.5 64.0625 14.71875 69.140625 
Q 20.953125 74.21875 31.78125 74.21875 
Q 42.671875 74.21875 48.875 69.140625 
Q 55.078125 64.0625 55.078125 55.328125 
Q 55.078125 49.078125 51.53125 44.71875 
Q 48 40.375 41.703125 38.8125 
Q 48.828125 37.15625 52.796875 32.3125 
Q 56.78125 27.484375 56.78125 20.515625 
Q 56.78125 9.90625 50.3125 4.234375 
Q 43.84375 -1.421875 31.78125 -1.421875 
Q 19.734375 -1.421875 13.25 4.234375 
Q 6.78125 9.90625 6.78125 20.515625 
Q 6.78125 27.484375 10.78125 32.3125 
Q 14.796875 37.15625 21.921875 38.8125 
z
M 18.3125 54.390625 
Q 18.3125 48.734375 21.84375 45.5625 
Q 25.390625 42.390625 31.78125 42.390625 
Q 38.140625 42.390625 41.71875 45.5625 
Q 45.3125 48.734375 45.3125 54.390625 
Q 45.3125 60.0625 41.71875 63.234375 
Q 38.140625 66.40625 31.78125 66.40625 
Q 25.390625 66.40625 21.84375 63.234375 
Q 18.3125 60.0625 18.3125 54.390625 
z
" id="DejaVuSans-56"/>
      </defs>
      <g transform="translate(28.51 390.279063)scale(0.12 -0.12)">
       <use xlink:href="#DejaVuSans-49"/>
       <use x="63.623047" xlink:href="#DejaVuSans-56"/>
      </g>
     </g>
    </g>
    <g id="ytick_2">
     <g id="line2d_21">
      <path clip-path="url(#pa7eea2442b)" d="M 50.78 338.258667 
L 709.2 338.258667 
" style="fill:none;stroke:#b0b0b0;stroke-linecap:square;stroke-width:0.8;"/>
     </g>
     <g id="line2d_22">
      <g>
       <use style="stroke:#000000;stroke-width:0.8;" x="50.78" xlink:href="#me8cc6f381f" y="338.258667"/>
      </g>
     </g>
     <g id="text_12">
      <!-- 20 -->
      <g transform="translate(28.51 342.817729)scale(0.12 -0.12)">
       <use xlink:href="#DejaVuSans-50"/>
       <use x="63.623047" xlink:href="#DejaVuSans-48"/>
      </g>
     </g>
    </g>
    <g id="ytick_3">
     <g id="line2d_23">
      <path clip-path="url(#pa7eea2442b)" d="M 50.78 290.797333 
L 709.2 290.797333 
" style="fill:none;stroke:#b0b0b0;stroke-linecap:square;stroke-width:0.8;"/>
     </g>
     <g id="line2d_24">
      <g>
       <use style="stroke:#000000;stroke-width:0.8;" x="50.78" xlink:href="#me8cc6f381f" y="290.797333"/>
      </g>
     </g>
     <g id="text_13">
      <!-- 22 -->
      <g transform="translate(28.51 295.356396)scale(0.12 -0.12)">
       <use xlink:href="#DejaVuSans-50"/>
       <use x="63.623047" xlink:href="#DejaVuSans-50"/>
      </g>
     </g>
    </g>
    <g id="ytick_4">
     <g id="line2d_25">
      <path clip-path="url(#pa7eea2442b)" d="M 50.78 243.336 
L 709.2 243.336 
" style="fill:none;stroke:#b0b0b0;stroke-linecap:square;stroke-width:0.8;"/>
     </g>
     <g id="line2d_26">
      <g>
       <use style="stroke:#000000;stroke-width:0.8;" x="50.78" xlink:href="#me8cc6f381f" y="243.336"/>
      </g>
     </g>
     <g id="text_14">
      <!-- 24 -->
      <g transform="translate(28.51 247.895063)scale(0.12 -0.12)">
       <use xlink:href="#DejaVuSans-50"/>
       <use x="63.623047" xlink:href="#DejaVuSans-52"/>
      </g>
     </g>
    </g>
    <g id="ytick_5">
     <g id="line2d_27">
      <path clip-path="url(#pa7eea2442b)" d="M 50.78 195.874667 
L 709.2 195.874667 
" style="fill:none;stroke:#b0b0b0;stroke-linecap:square;stroke-width:0.8;"/>
     </g>
     <g id="line2d_28">
      <g>
       <use style="stroke:#000000;stroke-width:0.8;" x="50.78" xlink:href="#me8cc6f381f" y="195.874667"/>
      </g>
     </g>
     <g id="text_15">
      <!-- 26 -->
      <defs>
       <path d="M 33.015625 40.375 
Q 26.375 40.375 22.484375 35.828125 
Q 18.609375 31.296875 18.609375 23.390625 
Q 18.609375 15.53125 22.484375 10.953125 
Q 26.375 6.390625 33.015625 6.390625 
Q 39.65625 6.390625 43.53125 10.953125 
Q 47.40625 15.53125 47.40625 23.390625 
Q 47.40625 31.296875 43.53125 35.828125 
Q 39.65625 40.375 33.015625 40.375 
z
M 52.59375 71.296875 
L 52.59375 62.3125 
Q 48.875 64.0625 45.09375 64.984375 
Q 41.3125 65.921875 37.59375 65.921875 
Q 27.828125 65.921875 22.671875 59.328125 
Q 17.53125 52.734375 16.796875 39.40625 
Q 19.671875 43.65625 24.015625 45.921875 
Q 28.375 48.1875 33.59375 48.1875 
Q 44.578125 48.1875 50.953125 41.515625 
Q 57.328125 34.859375 57.328125 23.390625 
Q 57.328125 12.15625 50.6875 5.359375 
Q 44.046875 -1.421875 33.015625 -1.421875 
Q 20.359375 -1.421875 13.671875 8.265625 
Q 6.984375 17.96875 6.984375 36.375 
Q 6.984375 53.65625 15.1875 63.9375 
Q 23.390625 74.21875 37.203125 74.21875 
Q 40.921875 74.21875 44.703125 73.484375 
Q 48.484375 72.75 52.59375 71.296875 
z
" id="DejaVuSans-54"/>
      </defs>
      <g transform="translate(28.51 200.433729)scale(0.12 -0.12)">
       <use xlink:href="#DejaVuSans-50"/>
       <use x="63.623047" xlink:href="#DejaVuSans-54"/>
      </g>
     </g>
    </g>
    <g id="ytick_6">
     <g id="line2d_29">
      <path clip-path="url(#pa7eea2442b)" d="M 50.78 148.413333 
L 709.2 148.413333 
" style="fill:none;stroke:#b0b0b0;stroke-linecap:square;stroke-width:0.8;"/>
     </g>
     <g id="line2d_30">
      <g>
       <use style="stroke:#000000;stroke-width:0.8;" x="50.78" xlink:href="#me8cc6f381f" y="148.413333"/>
      </g>
     </g>
     <g id="text_16">
      <!-- 28 -->
      <g transform="translate(28.51 152.972396)scale(0.12 -0.12)">
       <use xlink:href="#DejaVuSans-50"/>
       <use x="63.623047" xlink:href="#DejaVuSans-56"/>
      </g>
     </g>
    </g>
    <g id="ytick_7">
     <g id="line2d_31">
      <path clip-path="url(#pa7eea2442b)" d="M 50.78 100.952 
L 709.2 100.952 
" style="fill:none;stroke:#b0b0b0;stroke-linecap:square;stroke-width:0.8;"/>
     </g>
     <g id="line2d_32">
      <g>
       <use style="stroke:#000000;stroke-width:0.8;" x="50.78" xlink:href="#me8cc6f381f" y="100.952"/>
      </g>
     </g>
     <g id="text_17">
      <!-- 30 -->
      <g transform="translate(28.51 105.511062)scale(0.12 -0.12)">
       <use xlink:href="#DejaVuSans-51"/>
       <use x="63.623047" xlink:href="#DejaVuSans-48"/>
      </g>
     </g>
    </g>
    <g id="ytick_8">
     <g id="line2d_33">
      <path clip-path="url(#pa7eea2442b)" d="M 50.78 53.490667 
L 709.2 53.490667 
" style="fill:none;stroke:#b0b0b0;stroke-linecap:square;stroke-width:0.8;"/>
     </g>
     <g id="line2d_34">
      <g>
       <use style="stroke:#000000;stroke-width:0.8;" x="50.78" xlink:href="#me8cc6f381f" y="53.490667"/>
      </g>
     </g>
     <g id="text_18">
      <!-- 32 -->
      <g transform="translate(28.51 58.049729)scale(0.12 -0.12)">
       <use xlink:href="#DejaVuSans-51"/>
       <use x="63.623047" xlink:href="#DejaVuSans-50"/>
      </g>
     </g>
    </g>
    <g id="text_19">
     <!-- PSNR -->
     <defs>
      <path d="M 19.671875 64.796875 
L 19.671875 37.40625 
L 32.078125 37.40625 
Q 38.96875 37.40625 42.71875 40.96875 
Q 46.484375 44.53125 46.484375 51.125 
Q 46.484375 57.671875 42.71875 61.234375 
Q 38.96875 64.796875 32.078125 64.796875 
z
M 9.8125 72.90625 
L 32.078125 72.90625 
Q 44.34375 72.90625 50.609375 67.359375 
Q 56.890625 61.8125 56.890625 51.125 
Q 56.890625 40.328125 50.609375 34.8125 
Q 44.34375 29.296875 32.078125 29.296875 
L 19.671875 29.296875 
L 19.671875 0 
L 9.8125 0 
z
" id="DejaVuSans-80"/>
      <path d="M 53.515625 70.515625 
L 53.515625 60.890625 
Q 47.90625 63.578125 42.921875 64.890625 
Q 37.9375 66.21875 33.296875 66.21875 
Q 25.25 66.21875 20.875 63.09375 
Q 16.5 59.96875 16.5 54.203125 
Q 16.5 49.359375 19.40625 46.890625 
Q 22.3125 44.4375 30.421875 42.921875 
L 36.375 41.703125 
Q 47.40625 39.59375 52.65625 34.296875 
Q 57.90625 29 57.90625 20.125 
Q 57.90625 9.515625 50.796875 4.046875 
Q 43.703125 -1.421875 29.984375 -1.421875 
Q 24.8125 -1.421875 18.96875 -0.25 
Q 13.140625 0.921875 6.890625 3.21875 
L 6.890625 13.375 
Q 12.890625 10.015625 18.65625 8.296875 
Q 24.421875 6.59375 29.984375 6.59375 
Q 38.421875 6.59375 43.015625 9.90625 
Q 47.609375 13.234375 47.609375 19.390625 
Q 47.609375 24.75 44.3125 27.78125 
Q 41.015625 30.8125 33.5 32.328125 
L 27.484375 33.5 
Q 16.453125 35.6875 11.515625 40.375 
Q 6.59375 45.0625 6.59375 53.421875 
Q 6.59375 63.09375 13.40625 68.65625 
Q 20.21875 74.21875 32.171875 74.21875 
Q 37.3125 74.21875 42.625 73.28125 
Q 47.953125 72.359375 53.515625 70.515625 
z
" id="DejaVuSans-83"/>
      <path d="M 9.8125 72.90625 
L 23.09375 72.90625 
L 55.421875 11.921875 
L 55.421875 72.90625 
L 64.984375 72.90625 
L 64.984375 0 
L 51.703125 0 
L 19.390625 60.984375 
L 19.390625 0 
L 9.8125 0 
z
" id="DejaVuSans-78"/>
      <path d="M 44.390625 34.1875 
Q 47.5625 33.109375 50.5625 29.59375 
Q 53.5625 26.078125 56.59375 19.921875 
L 66.609375 0 
L 56 0 
L 46.6875 18.703125 
Q 43.0625 26.03125 39.671875 28.421875 
Q 36.28125 30.8125 30.421875 30.8125 
L 19.671875 30.8125 
L 19.671875 0 
L 9.8125 0 
L 9.8125 72.90625 
L 32.078125 72.90625 
Q 44.578125 72.90625 50.734375 67.671875 
Q 56.890625 62.453125 56.890625 51.90625 
Q 56.890625 45.015625 53.6875 40.46875 
Q 50.484375 35.9375 44.390625 34.1875 
z
M 19.671875 64.796875 
L 19.671875 38.921875 
L 32.078125 38.921875 
Q 39.203125 38.921875 42.84375 42.21875 
Q 46.484375 45.515625 46.484375 51.90625 
Q 46.484375 58.296875 42.84375 61.546875 
Q 39.203125 64.796875 32.078125 64.796875 
z
" id="DejaVuSans-82"/>
     </defs>
     <g transform="translate(21.598438 226.505469)rotate(-90)scale(0.14 -0.14)">
      <use xlink:href="#DejaVuSans-80"/>
      <use x="60.302734" xlink:href="#DejaVuSans-83"/>
      <use x="123.779297" xlink:href="#DejaVuSans-78"/>
      <use x="198.583984" xlink:href="#DejaVuSans-82"/>
     </g>
    </g>
   </g>
   <g id="line2d_35">
    <path clip-path="url(#pa7eea2442b)" d="M 81.522538 433 
L 83.716039 177.579374 
L 86.723897 100.25429 
L 89.731754 88.012375 
L 92.739612 62.766287 
L 95.747469 63.867268 
L 98.755327 75.572528 
L 101.763184 64.643463 
L 104.771042 46.892661 
L 107.778899 48.328988 
L 110.786757 77.325525 
L 113.794614 37.548319 
L 116.802471 43.638149 
L 119.810329 36.811666 
L 122.818186 36.945327 
L 125.826044 47.904005 
L 128.833901 36.956901 
L 131.841759 39.502736 
L 134.849616 48.05336 
L 137.857474 42.06717 
L 140.865331 45.024774 
L 143.873189 45.056083 
L 146.881046 47.046108 
L 149.888904 47.917481 
L 152.896761 45.91928 
L 155.904619 48.612856 
L 158.912476 55.399063 
L 161.920333 60.951503 
L 164.928191 53.70148 
L 167.936048 53.828968 
L 170.943906 50.260588 
L 173.951763 60.434236 
L 176.959621 50.595296 
L 179.967478 48.498707 
L 182.975336 61.925449 
L 185.983193 55.510439 
L 188.991051 51.683277 
L 191.998908 64.198731 
L 195.006766 57.0648 
L 198.014623 57.855362 
L 201.022481 57.787848 
L 204.030338 62.992908 
L 207.038196 56.183851 
L 210.046053 59.249711 
L 213.05391 58.911152 
L 216.061768 55.994826 
L 219.069625 61.627449 
L 222.077483 64.561112 
L 225.08534 57.183006 
L 228.093198 56.659696 
L 231.101055 59.037645 
L 237.11677 67.23131 
L 240.124628 61.863612 
L 243.132485 55.697283 
L 246.140343 67.83399 
L 249.1482 58.245984 
L 252.156058 60.253861 
L 255.163915 64.10702 
L 258.171772 60.652076 
L 261.17963 62.110839 
L 264.187487 78.473694 
L 267.195345 64.193321 
L 270.203202 67.726205 
L 273.21106 58.906312 
L 276.218917 61.392726 
L 279.226775 61.302859 
L 282.234632 66.674273 
L 285.24249 70.646568 
L 288.250347 60.785771 
L 291.258205 64.285507 
L 294.266062 65.942421 
L 297.27392 61.353523 
L 300.281777 66.979967 
L 303.289635 60.280221 
L 306.297492 60.147944 
L 309.305349 68.016466 
L 312.313207 67.7809 
L 315.321064 62.17163 
L 318.328922 63.051897 
L 321.336779 64.44304 
L 324.344637 64.869112 
L 327.352494 67.145982 
L 330.360352 62.606826 
L 333.368209 63.095913 
L 339.383924 71.771449 
L 342.391782 67.490532 
L 345.399639 68.422247 
L 348.407497 64.037422 
L 351.415354 68.71679 
L 354.423212 67.134592 
L 357.431069 69.483814 
L 360.438926 63.850793 
L 363.446784 63.086095 
L 366.454641 69.960447 
L 369.462499 67.660993 
L 372.470356 70.311829 
L 375.478214 66.921383 
L 378.486071 65.974917 
L 381.493929 64.328064 
L 384.501786 69.972743 
L 387.509644 67.834846 
L 390.517501 69.16286 
L 393.525359 68.424682 
L 396.533216 66.689959 
L 399.541074 65.15683 
L 402.548931 67.80128 
L 405.556788 64.729604 
L 408.564646 66.776213 
L 411.572503 70.756326 
L 414.580361 67.68002 
L 417.588218 65.719115 
L 420.596076 71.996815 
L 423.603933 65.595884 
L 426.611791 67.136841 
L 429.619648 67.399587 
L 432.627506 71.294547 
L 435.635363 68.085655 
L 438.643221 66.6023 
L 441.651078 70.742553 
L 444.658936 68.136404 
L 447.666793 72.580818 
L 450.674651 69.481783 
L 453.682508 71.746033 
L 456.690365 68.683242 
L 459.698223 65.44088 
L 462.70608 69.162325 
L 465.713938 73.237263 
L 468.721795 66.267243 
L 471.729653 68.961632 
L 474.73751 68.021827 
L 477.745368 70.313099 
L 480.753225 66.792456 
L 483.761083 70.026413 
L 486.76894 67.863472 
L 492.784655 69.428378 
L 495.792513 68.572443 
L 498.80037 67.17829 
L 501.808228 70.149584 
L 504.816085 71.240468 
L 507.823942 70.280482 
L 510.8318 70.394801 
L 513.839657 69.202711 
L 516.847515 67.035236 
L 519.855372 68.45088 
L 522.86323 69.079652 
L 525.871087 72.134314 
L 528.878945 68.836553 
L 531.886802 67.876474 
L 534.89466 73.57883 
L 537.902517 73.753339 
L 540.910375 70.332346 
L 543.918232 69.010437 
L 546.92609 70.273355 
L 549.933947 70.831101 
L 552.941804 70.429468 
L 555.949662 68.032221 
L 558.957519 70.417855 
L 561.965377 70.952166 
L 564.973234 69.336978 
L 567.981092 69.823968 
L 570.988949 71.883284 
L 573.996807 72.644945 
L 577.004664 70.553024 
L 580.012522 70.151545 
L 586.028237 68.391651 
L 589.036094 69.821333 
L 592.043952 71.505852 
L 595.051809 70.148962 
L 598.059667 72.683269 
L 601.067524 71.544337 
L 604.075381 71.155033 
L 607.083239 69.449775 
L 610.091096 69.667659 
L 613.098954 71.31625 
L 616.106811 71.606055 
L 619.114669 70.410581 
L 622.122526 71.737831 
L 625.130384 70.705889 
L 628.138241 73.179157 
L 631.146099 70.533726 
L 634.153956 71.860576 
L 637.161814 70.804981 
L 640.169671 74.018674 
L 643.177529 71.027774 
L 646.185386 72.191177 
L 649.193243 70.951833 
L 652.201101 71.117083 
L 655.208958 69.867643 
L 658.216816 70.211372 
L 661.224673 73.199559 
L 664.232531 69.954792 
L 667.240388 71.560801 
L 670.248246 71.489222 
L 673.256103 74.421606 
L 676.263961 70.184351 
L 679.271818 72.774749 
L 679.271818 72.774749 
" style="fill:none;stroke:#1f77b4;stroke-linecap:square;stroke-width:2;"/>
   </g>
   <g id="line2d_36">
    <path clip-path="url(#pa7eea2442b)" d="M 81.464202 433 
L 83.716039 140.876875 
L 86.723897 94.809591 
L 89.731754 77.341952 
L 92.739612 51.028138 
L 95.747469 47.904944 
L 98.755327 50.264589 
L 101.763184 55.008979 
L 104.771042 57.717993 
L 107.778899 68.699499 
L 110.786757 72.452103 
L 113.794614 83.502234 
L 116.802471 90.713892 
L 119.810329 104.299704 
L 122.818186 114.545389 
L 125.826044 115.383689 
L 128.833901 117.415103 
L 131.841759 128.132004 
L 134.849616 136.459404 
L 137.857474 129.878176 
L 140.865331 132.876978 
L 143.873189 142.407157 
L 146.881046 138.697858 
L 149.888904 142.827987 
L 152.896761 144.594531 
L 155.904619 149.51336 
L 158.912476 146.241202 
L 161.920333 142.12737 
L 164.928191 149.774332 
L 167.936048 159.665488 
L 170.943906 146.826038 
L 173.951763 151.178926 
L 176.959621 151.875745 
L 179.967478 150.848176 
L 182.975336 159.015499 
L 185.983193 158.08335 
L 188.991051 157.79342 
L 191.998908 157.792964 
L 195.006766 155.316152 
L 198.014623 155.715107 
L 201.022481 158.447081 
L 204.030338 155.356544 
L 207.038196 162.306259 
L 210.046053 161.399794 
L 213.05391 165.773258 
L 216.061768 163.714053 
L 219.069625 161.498663 
L 222.077483 160.084363 
L 225.08534 167.372492 
L 228.093198 165.441494 
L 231.101055 164.561609 
L 234.108913 166.62741 
L 237.11677 164.473602 
L 240.124628 164.251022 
L 243.132485 164.862322 
L 246.140343 162.001662 
L 249.1482 166.511248 
L 252.156058 168.053502 
L 255.163915 160.891437 
L 258.171772 171.353318 
L 261.17963 165.363751 
L 264.187487 167.3503 
L 267.195345 166.007004 
L 270.203202 167.644527 
L 273.21106 164.354793 
L 279.226775 165.676734 
L 282.234632 165.946589 
L 285.24249 172.745925 
L 288.250347 168.921551 
L 291.258205 167.587405 
L 294.266062 170.998183 
L 297.27392 166.71137 
L 300.281777 167.562176 
L 303.289635 165.891649 
L 306.297492 172.660053 
L 309.305349 168.186838 
L 312.313207 171.403335 
L 315.321064 164.394049 
L 318.328922 167.576705 
L 321.336779 172.358334 
L 324.344637 166.141889 
L 327.352494 172.983063 
L 330.360352 172.375506 
L 333.368209 175.924676 
L 336.376067 165.929124 
L 339.383924 171.184312 
L 342.391782 171.611661 
L 345.399639 168.419628 
L 348.407497 168.593406 
L 351.415354 173.010589 
L 354.423212 169.31847 
L 357.431069 169.052043 
L 360.438926 167.08028 
L 363.446784 172.785383 
L 366.454641 175.83183 
L 369.462499 166.787584 
L 372.470356 172.753479 
L 375.478214 169.27576 
L 378.486071 168.657657 
L 381.493929 175.407415 
L 384.501786 170.588976 
L 387.509644 170.822907 
L 390.517501 172.971772 
L 393.525359 178.053901 
L 396.533216 168.681211 
L 399.541074 176.099717 
L 402.548931 174.510849 
L 405.556788 171.908444 
L 408.564646 168.910367 
L 411.572503 172.149036 
L 414.580361 174.612163 
L 417.588218 173.714591 
L 420.596076 174.074623 
L 423.603933 172.915184 
L 426.611791 173.686736 
L 429.619648 173.775224 
L 432.627506 173.451977 
L 435.635363 174.998139 
L 438.643221 168.542611 
L 441.651078 175.778246 
L 444.658936 177.21994 
L 447.666793 171.707111 
L 450.674651 174.068697 
L 453.682508 174.223012 
L 456.690365 170.389753 
L 459.698223 171.850994 
L 462.70608 174.675389 
L 465.713938 175.694252 
L 468.721795 172.613962 
L 471.729653 171.683577 
L 474.73751 173.714506 
L 477.745368 172.075547 
L 480.753225 170.884969 
L 486.76894 179.677112 
L 489.776798 173.474254 
L 492.784655 179.762525 
L 495.792513 174.532662 
L 498.80037 177.211312 
L 501.808228 173.965679 
L 504.816085 171.998338 
L 507.823942 172.002112 
L 510.8318 174.339566 
L 513.839657 175.170811 
L 516.847515 179.01167 
L 519.855372 174.794869 
L 522.86323 177.669567 
L 525.871087 170.303471 
L 528.878945 174.400936 
L 531.886802 171.063116 
L 534.89466 174.111971 
L 537.902517 175.512504 
L 540.910375 172.504161 
L 543.918232 173.757648 
L 546.92609 172.701538 
L 549.933947 173.322047 
L 552.941804 170.436883 
L 555.949662 177.03981 
L 558.957519 175.415564 
L 561.965377 173.470231 
L 564.973234 170.746732 
L 567.981092 176.017299 
L 570.988949 176.770995 
L 573.996807 176.472428 
L 577.004664 176.854526 
L 580.012522 176.793102 
L 583.020379 175.296218 
L 586.028237 173.307915 
L 589.036094 179.070192 
L 592.043952 172.986417 
L 595.051809 173.481481 
L 598.059667 173.521791 
L 601.067524 172.702704 
L 604.075381 173.548012 
L 607.083239 173.772864 
L 610.091096 179.369568 
L 613.098954 174.691056 
L 616.106811 178.782155 
L 619.114669 176.871106 
L 622.122526 176.263973 
L 625.130384 175.057625 
L 631.146099 174.208025 
L 634.153956 178.501754 
L 637.161814 172.706384 
L 640.169671 177.809518 
L 643.177529 173.049348 
L 646.185386 174.350635 
L 649.193243 176.074617 
L 652.201101 175.311934 
L 655.208958 178.67663 
L 658.216816 177.573777 
L 661.224673 172.175063 
L 664.232531 180.121721 
L 667.240388 175.546947 
L 670.248246 174.63085 
L 673.256103 172.765441 
L 676.263961 178.665514 
L 679.271818 174.854312 
L 679.271818 174.854312 
" style="fill:none;stroke:#ff7f0e;stroke-linecap:square;stroke-width:2;"/>
   </g>
   <g id="line2d_37">
    <path clip-path="url(#pa7eea2442b)" d="M 80.708182 358.780642 
L 83.716039 155.427194 
L 86.723897 88.658444 
L 89.731754 75.858411 
L 92.739612 55.203873 
L 98.755327 30.691499 
L 101.763184 49.815172 
L 104.771042 32.775829 
L 107.778899 40.742987 
L 110.786757 37.341339 
L 113.794614 43.538409 
L 116.802471 42.773817 
L 119.810329 52.396353 
L 122.818186 59.965361 
L 125.826044 69.904174 
L 128.833901 68.643477 
L 131.841759 73.53608 
L 134.849616 72.130144 
L 137.857474 86.36333 
L 140.865331 86.313876 
L 143.873189 88.222847 
L 146.881046 90.690295 
L 149.888904 102.323198 
L 152.896761 92.461521 
L 155.904619 104.453672 
L 158.912476 106.823919 
L 161.920333 108.142608 
L 164.928191 124.643681 
L 167.936048 111.628877 
L 170.943906 107.445203 
L 173.951763 118.822387 
L 176.959621 111.279198 
L 179.967478 116.112149 
L 182.975336 121.654751 
L 185.983193 128.148589 
L 188.991051 116.581805 
L 191.998908 132.047664 
L 195.006766 128.955176 
L 198.014623 121.288593 
L 201.022481 119.240144 
L 204.030338 129.806652 
L 207.038196 126.58678 
L 210.046053 121.703642 
L 213.05391 129.64814 
L 216.061768 121.393455 
L 219.069625 125.458624 
L 222.077483 129.272976 
L 225.08534 134.678057 
L 228.093198 131.306701 
L 231.101055 126.731967 
L 234.108913 129.523756 
L 237.11677 127.94642 
L 240.124628 134.144475 
L 243.132485 141.404716 
L 246.140343 131.922637 
L 249.1482 141.89411 
L 252.156058 141.406351 
L 255.163915 140.156154 
L 258.171772 135.552735 
L 261.17963 143.268706 
L 264.187487 138.04735 
L 267.195345 135.511099 
L 270.203202 139.921696 
L 273.21106 139.801807 
L 276.218917 132.908152 
L 279.226775 140.414541 
L 282.234632 134.509404 
L 285.24249 147.513166 
L 288.250347 132.830673 
L 291.258205 141.588339 
L 294.266062 145.779783 
L 297.27392 151.298206 
L 300.281777 150.290384 
L 303.289635 137.332964 
L 306.297492 141.249301 
L 309.305349 144.443839 
L 312.313207 139.34674 
L 315.321064 143.160082 
L 318.328922 138.894537 
L 321.336779 140.34715 
L 324.344637 143.301452 
L 327.352494 142.250458 
L 330.360352 143.39742 
L 333.368209 139.077375 
L 336.376067 152.722009 
L 339.383924 145.10729 
L 342.391782 145.276441 
L 345.399639 146.912412 
L 348.407497 146.049687 
L 351.415354 136.577097 
L 354.423212 147.599248 
L 357.431069 145.446181 
L 360.438926 145.777207 
L 363.446784 141.294636 
L 366.454641 141.281308 
L 369.462499 146.88217 
L 372.470356 139.063945 
L 375.478214 151.427248 
L 378.486071 149.807828 
L 381.493929 151.466721 
L 384.501786 143.731275 
L 387.509644 147.949269 
L 390.517501 151.095778 
L 393.525359 151.616344 
L 396.533216 146.143871 
L 399.541074 138.228783 
L 402.548931 147.922557 
L 405.556788 152.220956 
L 408.564646 148.86947 
L 411.572503 145.251801 
L 414.580361 148.871866 
L 417.588218 146.203193 
L 420.596076 142.47199 
L 423.603933 148.941391 
L 429.619648 144.940826 
L 435.635363 150.751887 
L 438.643221 155.089285 
L 441.651078 151.147604 
L 444.658936 151.368512 
L 447.666793 150.138122 
L 450.674651 146.616474 
L 453.682508 142.673011 
L 456.690365 155.57137 
L 459.698223 152.7452 
L 462.70608 155.206139 
L 465.713938 147.16158 
L 468.721795 145.487732 
L 471.729653 153.321893 
L 474.73751 154.508491 
L 477.745368 155.36857 
L 480.753225 154.621793 
L 483.761083 153.082503 
L 486.76894 152.959804 
L 489.776798 148.438777 
L 492.784655 151.738922 
L 495.792513 152.880709 
L 498.80037 143.946281 
L 501.808228 143.530452 
L 504.816085 152.952515 
L 507.823942 154.680588 
L 510.8318 147.482562 
L 513.839657 156.793939 
L 516.847515 154.298091 
L 519.855372 154.173963 
L 522.86323 150.803167 
L 525.871087 145.844218 
L 528.878945 146.013865 
L 531.886802 154.646791 
L 534.89466 154.992917 
L 537.902517 153.455618 
L 540.910375 152.990858 
L 543.918232 152.787653 
L 549.933947 150.563785 
L 552.941804 157.675573 
L 555.949662 156.483211 
L 558.957519 156.589131 
L 561.965377 153.85987 
L 564.973234 147.884908 
L 567.981092 156.518803 
L 570.988949 158.891546 
L 573.996807 144.350696 
L 577.004664 153.734983 
L 580.012522 148.429097 
L 583.020379 156.4502 
L 586.028237 147.080297 
L 589.036094 155.63986 
L 592.043952 150.243258 
L 595.051809 154.659808 
L 598.059667 149.588046 
L 601.067524 152.335916 
L 604.075381 150.806117 
L 607.083239 155.5621 
L 610.091096 148.698865 
L 613.098954 154.798696 
L 616.106811 154.325996 
L 619.114669 152.704471 
L 622.122526 150.569486 
L 625.130384 150.582769 
L 628.138241 154.023564 
L 631.146099 147.458969 
L 634.153956 154.082737 
L 637.161814 148.831687 
L 640.169671 152.914306 
L 643.177529 148.567578 
L 646.185386 150.063065 
L 649.193243 156.675122 
L 652.201101 149.681892 
L 655.208958 146.984975 
L 661.224673 153.958769 
L 664.232531 152.872327 
L 667.240388 150.335569 
L 670.248246 151.877091 
L 673.256103 147.749003 
L 676.263961 147.667316 
L 679.271818 150.527857 
L 679.271818 150.527857 
" style="fill:none;stroke:#2ca02c;stroke-linecap:square;stroke-width:2;"/>
   </g>
   <g id="line2d_38">
    <path clip-path="url(#pa7eea2442b)" d="M 83.559665 433 
L 95.747469 43.196574 
L 110.786757 69.927967 
L 125.826044 113.267739 
L 140.865331 138.990089 
L 155.904619 146.337568 
L 170.943906 158.197811 
L 185.983193 162.144258 
L 201.022481 167.716224 
L 216.061768 173.367272 
L 231.101055 170.927329 
L 246.140343 170.427908 
L 261.17963 173.44713 
L 276.218917 169.647981 
L 291.258205 173.746585 
L 306.297492 176.972396 
L 321.336779 174.174072 
L 336.376067 177.550327 
L 351.415354 174.414821 
L 366.454641 176.456636 
L 381.493929 176.918404 
L 396.533216 176.655131 
L 411.572503 179.933242 
L 426.611791 178.700792 
L 441.651078 182.866368 
L 456.690365 182.341296 
L 471.729653 178.995725 
L 486.76894 178.317431 
L 501.808228 184.414159 
L 516.847515 176.331642 
L 531.886802 178.77359 
L 546.92609 183.540157 
L 561.965377 181.799498 
L 577.004664 182.377948 
L 592.043952 181.545221 
L 607.083239 183.086136 
L 622.122526 183.319501 
L 637.161814 186.37702 
L 652.201101 179.591727 
L 667.240388 183.944285 
" style="fill:none;stroke:#d62728;stroke-linecap:square;stroke-width:2;"/>
   </g>
   <g id="line2d_39">
    <path clip-path="url(#pa7eea2442b)" d="M 81.547819 433 
L 83.716039 137.254903 
L 86.723897 102.842078 
L 89.731754 57.428583 
L 92.739612 54.586974 
L 95.747469 38.779651 
L 98.755327 39.051148 
L 101.763184 42.211293 
L 104.771042 66.331992 
L 107.778899 35.551155 
L 110.786757 36.212255 
L 113.794614 39.687606 
L 116.802471 54.493587 
L 119.810329 56.050544 
L 122.818186 48.728636 
L 125.826044 56.944722 
L 128.833901 63.265202 
L 131.841759 63.278377 
L 134.849616 62.833064 
L 137.857474 70.227675 
L 140.865331 73.526907 
L 143.873189 77.604225 
L 146.881046 72.255299 
L 149.888904 78.111431 
L 152.896761 77.656689 
L 155.904619 88.508664 
L 158.912476 81.593138 
L 161.920333 88.523003 
L 164.928191 83.056723 
L 167.936048 84.765481 
L 170.943906 85.824224 
L 173.951763 86.383244 
L 176.959621 89.979463 
L 179.967478 89.267085 
L 182.975336 94.752608 
L 185.983193 94.961112 
L 188.991051 93.755834 
L 191.998908 91.007786 
L 195.006766 92.262406 
L 198.014623 97.092682 
L 201.022481 95.563834 
L 204.030338 91.168037 
L 207.038196 91.924383 
L 210.046053 94.17167 
L 213.05391 95.467775 
L 216.061768 98.220783 
L 219.069625 94.503077 
L 222.077483 101.309518 
L 225.08534 97.595453 
L 228.093198 97.496656 
L 231.101055 101.162157 
L 234.108913 102.648767 
L 237.11677 100.774027 
L 240.124628 98.006644 
L 243.132485 99.255445 
L 246.140343 102.773244 
L 249.1482 100.484953 
L 252.156058 99.805782 
L 255.163915 97.627144 
L 258.171772 102.609006 
L 261.17963 102.983094 
L 264.187487 102.948121 
L 267.195345 103.350685 
L 270.203202 100.099166 
L 273.21106 102.907486 
L 276.218917 103.543371 
L 279.226775 102.660591 
L 282.234632 101.920813 
L 285.24249 103.895527 
L 288.250347 103.959526 
L 291.258205 104.928372 
L 294.266062 103.991135 
L 297.27392 105.045323 
L 300.281777 104.113544 
L 303.289635 108.882716 
L 306.297492 106.766668 
L 312.313207 101.03925 
L 315.321064 104.452525 
L 318.328922 107.616361 
L 321.336779 108.000301 
L 324.344637 107.132577 
L 327.352494 104.342942 
L 330.360352 101.944172 
L 333.368209 109.67633 
L 336.376067 112.785634 
L 339.383924 107.275581 
L 342.391782 107.231396 
L 345.399639 103.148382 
L 348.407497 104.177768 
L 351.415354 103.437444 
L 354.423212 105.897385 
L 357.431069 105.284027 
L 360.438926 111.687209 
L 363.446784 109.872882 
L 366.454641 105.930913 
L 369.462499 105.899239 
L 372.470356 106.020516 
L 375.478214 105.169617 
L 378.486071 109.313643 
L 381.493929 105.325871 
L 384.501786 106.400413 
L 387.509644 106.259014 
L 390.517501 109.992261 
L 393.525359 109.480343 
L 396.533216 105.830093 
L 399.541074 108.900007 
L 402.548931 110.955301 
L 405.556788 108.350228 
L 408.564646 108.833492 
L 411.572503 109.142721 
L 414.580361 110.293431 
L 417.588218 109.81612 
L 420.596076 106.250296 
L 423.603933 109.355831 
L 426.611791 110.892314 
L 429.619648 111.103831 
L 432.627506 109.077119 
L 435.635363 111.571806 
L 438.643221 111.066194 
L 441.651078 108.647251 
L 444.658936 105.899493 
L 447.666793 111.319971 
L 450.674651 110.70999 
L 453.682508 108.008867 
L 456.690365 111.654111 
L 459.698223 108.713028 
L 462.70608 112.082169 
L 465.713938 111.490073 
L 468.721795 113.393501 
L 471.729653 107.052474 
L 474.73751 107.552514 
L 477.745368 110.682548 
L 480.753225 111.134636 
L 483.761083 108.761089 
L 486.76894 112.775521 
L 489.776798 108.878273 
L 492.784655 111.771011 
L 495.792513 108.239161 
L 498.80037 111.288789 
L 501.808228 112.40757 
L 504.816085 114.22845 
L 507.823942 107.872556 
L 510.8318 109.790602 
L 513.839657 107.273487 
L 516.847515 109.718964 
L 519.855372 112.386487 
L 522.86323 109.624252 
L 525.871087 112.029336 
L 528.878945 108.551136 
L 531.886802 110.322305 
L 537.902517 109.246574 
L 540.910375 111.807923 
L 546.92609 109.942123 
L 549.933947 111.167652 
L 552.941804 108.505995 
L 555.949662 110.38749 
L 558.957519 109.605781 
L 561.965377 111.175622 
L 564.973234 109.186679 
L 567.981092 109.822381 
L 570.988949 113.304526 
L 573.996807 109.877956 
L 577.004664 114.282366 
L 580.012522 117.273239 
L 583.020379 109.794941 
L 586.028237 111.218196 
L 589.036094 113.27445 
L 592.043952 114.668589 
L 595.051809 113.230806 
L 598.059667 111.061318 
L 601.067524 115.322975 
L 604.075381 114.828684 
L 607.083239 111.660531 
L 610.091096 107.941202 
L 613.098954 112.861349 
L 616.106811 109.232124 
L 619.114669 109.778077 
L 622.122526 115.537092 
L 625.130384 112.266073 
L 628.138241 112.655945 
L 631.146099 114.0055 
L 634.153956 111.867765 
L 637.161814 111.794987 
L 640.169671 114.011811 
L 643.177529 111.860369 
L 646.185386 111.849411 
L 649.193243 110.121349 
L 652.201101 110.173661 
L 655.208958 111.78916 
L 658.216816 114.910995 
L 661.224673 114.258375 
L 664.232531 112.783861 
L 667.240388 111.512283 
L 670.248246 114.035487 
L 673.256103 110.233222 
L 676.263961 110.694609 
L 679.271818 110.762799 
L 679.271818 110.762799 
" style="fill:none;stroke:#9467bd;stroke-linecap:square;stroke-width:2;"/>
   </g>
   <g id="line2d_40">
    <path clip-path="url(#pa7eea2442b)" d="M 81.73422 433 
L 83.716039 233.729591 
L 86.723897 98.962162 
L 89.731754 67.6243 
L 92.739612 56.065209 
L 95.747469 56.242631 
L 98.755327 34.152264 
L 101.763184 45.924836 
L 104.771042 42.926422 
L 107.778899 40.580677 
L 110.786757 45.93247 
L 113.794614 57.684806 
L 116.802471 98.814679 
L 119.810329 69.862786 
L 122.818186 75.69302 
L 125.826044 95.556604 
L 128.833901 101.986018 
L 131.841759 110.41434 
L 134.849616 119.549909 
L 137.857474 134.589932 
L 140.865331 126.75322 
L 143.873189 130.12515 
L 146.881046 133.263572 
L 149.888904 138.770264 
L 152.896761 149.186847 
L 155.904619 158.931997 
L 158.912476 153.124015 
L 161.920333 149.126195 
L 164.928191 156.254345 
L 167.936048 154.446518 
L 170.943906 155.595493 
L 173.951763 156.26538 
L 176.959621 156.066988 
L 179.967478 162.883861 
L 182.975336 163.92876 
L 185.983193 160.966791 
L 188.991051 161.299061 
L 191.998908 165.18019 
L 195.006766 163.718905 
L 198.014623 165.751425 
L 201.022481 165.652576 
L 204.030338 166.314551 
L 207.038196 169.781559 
L 210.046053 166.453972 
L 213.05391 168.634585 
L 216.061768 167.41271 
L 222.077483 170.161062 
L 225.08534 175.053914 
L 228.093198 175.441004 
L 231.101055 172.4656 
L 234.108913 175.199236 
L 237.11677 171.754239 
L 240.124628 169.280558 
L 243.132485 172.269094 
L 246.140343 172.95143 
L 249.1482 175.315584 
L 252.156058 172.631338 
L 255.163915 172.694752 
L 258.171772 176.177252 
L 261.17963 174.619932 
L 264.187487 172.137903 
L 270.203202 175.905247 
L 273.21106 176.81215 
L 276.218917 176.319535 
L 279.226775 173.385293 
L 282.234632 176.759832 
L 285.24249 176.168998 
L 288.250347 176.042721 
L 291.258205 177.740477 
L 294.266062 177.108582 
L 297.27392 178.443182 
L 300.281777 178.117805 
L 303.289635 175.58945 
L 306.297492 177.789283 
L 312.313207 176.620778 
L 315.321064 179.325558 
L 318.328922 175.055458 
L 321.336779 178.860573 
L 324.344637 180.549124 
L 327.352494 178.589594 
L 330.360352 181.307187 
L 336.376067 176.747393 
L 339.383924 181.256272 
L 342.391782 180.450752 
L 345.399639 178.359052 
L 348.407497 180.677961 
L 351.415354 181.012858 
L 354.423212 180.406487 
L 357.431069 180.728399 
L 360.438926 178.801284 
L 363.446784 181.210761 
L 366.454641 181.249603 
L 369.462499 182.825844 
L 372.470356 182.386863 
L 375.478214 181.219195 
L 378.486071 180.812855 
L 381.493929 181.609097 
L 384.501786 183.762185 
L 387.509644 181.501203 
L 390.517501 181.914065 
L 393.525359 181.218582 
L 396.533216 182.71089 
L 399.541074 179.280374 
L 402.548931 183.716519 
L 405.556788 182.435111 
L 408.564646 182.337595 
L 411.572503 180.980283 
L 414.580361 182.441528 
L 417.588218 187.011672 
L 420.596076 184.238732 
L 423.603933 183.593592 
L 426.611791 180.844739 
L 429.619648 183.981853 
L 432.627506 183.321084 
L 435.635363 183.676072 
L 438.643221 182.524712 
L 441.651078 183.542895 
L 444.658936 184.8434 
L 447.666793 180.55001 
L 450.674651 184.983979 
L 453.682508 184.118553 
L 456.690365 186.355022 
L 459.698223 183.432018 
L 462.70608 184.563641 
L 465.713938 183.373362 
L 468.721795 186.060863 
L 471.729653 187.681761 
L 474.73751 184.032919 
L 477.745368 181.094603 
L 480.753225 187.701051 
L 483.761083 182.239355 
L 486.76894 185.581077 
L 489.776798 182.63455 
L 492.784655 181.971599 
L 498.80037 182.499386 
L 501.808228 185.490943 
L 507.823942 183.63618 
L 510.8318 184.105568 
L 513.839657 182.729919 
L 519.855372 185.11234 
L 522.86323 184.690706 
L 525.871087 184.124748 
L 528.878945 182.631445 
L 531.886802 183.383986 
L 534.89466 186.009368 
L 537.902517 186.906193 
L 540.910375 183.418211 
L 543.918232 184.362052 
L 546.92609 184.042689 
L 549.933947 184.050071 
L 552.941804 183.23768 
L 555.949662 184.870007 
L 558.957519 183.791781 
L 561.965377 183.692745 
L 564.973234 185.255915 
L 567.981092 185.217664 
L 570.988949 184.030331 
L 573.996807 185.404492 
L 577.004664 184.8986 
L 580.012522 185.905062 
L 583.020379 184.757245 
L 586.028237 183.882147 
L 589.036094 183.623129 
L 592.043952 184.479386 
L 595.051809 183.748361 
L 598.059667 183.930694 
L 601.067524 185.344363 
L 604.075381 186.431322 
L 607.083239 185.161349 
L 610.091096 185.969392 
L 613.098954 184.63461 
L 616.106811 185.412085 
L 619.114669 187.788824 
L 622.122526 187.275896 
L 625.130384 184.278253 
L 628.138241 187.779148 
L 631.146099 185.163699 
L 634.153956 183.454195 
L 637.161814 184.618587 
L 640.169671 187.907593 
L 643.177529 189.059267 
L 646.185386 183.58662 
L 649.193243 184.890091 
L 652.201101 185.449427 
L 655.208958 184.345508 
L 658.216816 187.249713 
L 661.224673 187.040016 
L 664.232531 185.223 
L 667.240388 183.616244 
L 670.248246 185.131148 
L 673.256103 188.729003 
L 676.263961 186.804901 
L 679.271818 187.765848 
L 679.271818 187.765848 
" style="fill:none;stroke:#8c564b;stroke-linecap:square;stroke-width:2;"/>
   </g>
   <g id="patch_3">
    <path d="M 50.78 385.72 
L 50.78 29.76 
" style="fill:none;stroke:#000000;stroke-linecap:square;stroke-linejoin:miter;stroke-width:0.8;"/>
   </g>
   <g id="patch_4">
    <path d="M 709.2 385.72 
L 709.2 29.76 
" style="fill:none;stroke:#000000;stroke-linecap:square;stroke-linejoin:miter;stroke-width:0.8;"/>
   </g>
   <g id="patch_5">
    <path d="M 50.78 385.72 
L 709.2 385.72 
" style="fill:none;stroke:#000000;stroke-linecap:square;stroke-linejoin:miter;stroke-width:0.8;"/>
   </g>
   <g id="patch_6">
    <path d="M 50.78 29.76 
L 709.2 29.76 
" style="fill:none;stroke:#000000;stroke-linecap:square;stroke-linejoin:miter;stroke-width:0.8;"/>
   </g>
   <g id="text_20">
    <!-- PSNR vs Epochs for transfer masks -->
    <defs>
     <path id="DejaVuSans-32"/>
     <path d="M 2.984375 54.6875 
L 12.5 54.6875 
L 29.59375 8.796875 
L 46.6875 54.6875 
L 56.203125 54.6875 
L 35.6875 0 
L 23.484375 0 
z
" id="DejaVuSans-118"/>
     <path d="M 44.28125 53.078125 
L 44.28125 44.578125 
Q 40.484375 46.53125 36.375 47.5 
Q 32.28125 48.484375 27.875 48.484375 
Q 21.1875 48.484375 17.84375 46.4375 
Q 14.5 44.390625 14.5 40.28125 
Q 14.5 37.15625 16.890625 35.375 
Q 19.28125 33.59375 26.515625 31.984375 
L 29.59375 31.296875 
Q 39.15625 29.25 43.1875 25.515625 
Q 47.21875 21.78125 47.21875 15.09375 
Q 47.21875 7.46875 41.1875 3.015625 
Q 35.15625 -1.421875 24.609375 -1.421875 
Q 20.21875 -1.421875 15.453125 -0.5625 
Q 10.6875 0.296875 5.421875 2 
L 5.421875 11.28125 
Q 10.40625 8.6875 15.234375 7.390625 
Q 20.0625 6.109375 24.8125 6.109375 
Q 31.15625 6.109375 34.5625 8.28125 
Q 37.984375 10.453125 37.984375 14.40625 
Q 37.984375 18.0625 35.515625 20.015625 
Q 33.0625 21.96875 24.703125 23.78125 
L 21.578125 24.515625 
Q 13.234375 26.265625 9.515625 29.90625 
Q 5.8125 33.546875 5.8125 39.890625 
Q 5.8125 47.609375 11.28125 51.796875 
Q 16.75 56 26.8125 56 
Q 31.78125 56 36.171875 55.265625 
Q 40.578125 54.546875 44.28125 53.078125 
z
" id="DejaVuSans-115"/>
     <path d="M 37.109375 75.984375 
L 37.109375 68.5 
L 28.515625 68.5 
Q 23.6875 68.5 21.796875 66.546875 
Q 19.921875 64.59375 19.921875 59.515625 
L 19.921875 54.6875 
L 34.71875 54.6875 
L 34.71875 47.703125 
L 19.921875 47.703125 
L 19.921875 0 
L 10.890625 0 
L 10.890625 47.703125 
L 2.296875 47.703125 
L 2.296875 54.6875 
L 10.890625 54.6875 
L 10.890625 58.5 
Q 10.890625 67.625 15.140625 71.796875 
Q 19.390625 75.984375 28.609375 75.984375 
z
" id="DejaVuSans-102"/>
     <path d="M 41.109375 46.296875 
Q 39.59375 47.171875 37.8125 47.578125 
Q 36.03125 48 33.890625 48 
Q 26.265625 48 22.1875 43.046875 
Q 18.109375 38.09375 18.109375 28.8125 
L 18.109375 0 
L 9.078125 0 
L 9.078125 54.6875 
L 18.109375 54.6875 
L 18.109375 46.1875 
Q 20.953125 51.171875 25.484375 53.578125 
Q 30.03125 56 36.53125 56 
Q 37.453125 56 38.578125 55.875 
Q 39.703125 55.765625 41.0625 55.515625 
z
" id="DejaVuSans-114"/>
     <path d="M 18.3125 70.21875 
L 18.3125 54.6875 
L 36.8125 54.6875 
L 36.8125 47.703125 
L 18.3125 47.703125 
L 18.3125 18.015625 
Q 18.3125 11.328125 20.140625 9.421875 
Q 21.96875 7.515625 27.59375 7.515625 
L 36.8125 7.515625 
L 36.8125 0 
L 27.59375 0 
Q 17.1875 0 13.234375 3.875 
Q 9.28125 7.765625 9.28125 18.015625 
L 9.28125 47.703125 
L 2.6875 47.703125 
L 2.6875 54.6875 
L 9.28125 54.6875 
L 9.28125 70.21875 
z
" id="DejaVuSans-116"/>
     <path d="M 34.28125 27.484375 
Q 23.390625 27.484375 19.1875 25 
Q 14.984375 22.515625 14.984375 16.5 
Q 14.984375 11.71875 18.140625 8.90625 
Q 21.296875 6.109375 26.703125 6.109375 
Q 34.1875 6.109375 38.703125 11.40625 
Q 43.21875 16.703125 43.21875 25.484375 
L 43.21875 27.484375 
z
M 52.203125 31.203125 
L 52.203125 0 
L 43.21875 0 
L 43.21875 8.296875 
Q 40.140625 3.328125 35.546875 0.953125 
Q 30.953125 -1.421875 24.3125 -1.421875 
Q 15.921875 -1.421875 10.953125 3.296875 
Q 6 8.015625 6 15.921875 
Q 6 25.140625 12.171875 29.828125 
Q 18.359375 34.515625 30.609375 34.515625 
L 43.21875 34.515625 
L 43.21875 35.40625 
Q 43.21875 41.609375 39.140625 45 
Q 35.0625 48.390625 27.6875 48.390625 
Q 23 48.390625 18.546875 47.265625 
Q 14.109375 46.140625 10.015625 43.890625 
L 10.015625 52.203125 
Q 14.9375 54.109375 19.578125 55.046875 
Q 24.21875 56 28.609375 56 
Q 40.484375 56 46.34375 49.84375 
Q 52.203125 43.703125 52.203125 31.203125 
z
" id="DejaVuSans-97"/>
     <path d="M 54.890625 33.015625 
L 54.890625 0 
L 45.90625 0 
L 45.90625 32.71875 
Q 45.90625 40.484375 42.875 44.328125 
Q 39.84375 48.1875 33.796875 48.1875 
Q 26.515625 48.1875 22.3125 43.546875 
Q 18.109375 38.921875 18.109375 30.90625 
L 18.109375 0 
L 9.078125 0 
L 9.078125 54.6875 
L 18.109375 54.6875 
L 18.109375 46.1875 
Q 21.34375 51.125 25.703125 53.5625 
Q 30.078125 56 35.796875 56 
Q 45.21875 56 50.046875 50.171875 
Q 54.890625 44.34375 54.890625 33.015625 
z
" id="DejaVuSans-110"/>
     <path d="M 56.203125 29.59375 
L 56.203125 25.203125 
L 14.890625 25.203125 
Q 15.484375 15.921875 20.484375 11.0625 
Q 25.484375 6.203125 34.421875 6.203125 
Q 39.59375 6.203125 44.453125 7.46875 
Q 49.3125 8.734375 54.109375 11.28125 
L 54.109375 2.78125 
Q 49.265625 0.734375 44.1875 -0.34375 
Q 39.109375 -1.421875 33.890625 -1.421875 
Q 20.796875 -1.421875 13.15625 6.1875 
Q 5.515625 13.8125 5.515625 26.8125 
Q 5.515625 40.234375 12.765625 48.109375 
Q 20.015625 56 32.328125 56 
Q 43.359375 56 49.78125 48.890625 
Q 56.203125 41.796875 56.203125 29.59375 
z
M 47.21875 32.234375 
Q 47.125 39.59375 43.09375 43.984375 
Q 39.0625 48.390625 32.421875 48.390625 
Q 24.90625 48.390625 20.390625 44.140625 
Q 15.875 39.890625 15.1875 32.171875 
z
" id="DejaVuSans-101"/>
     <path d="M 52 44.1875 
Q 55.375 50.25 60.0625 53.125 
Q 64.75 56 71.09375 56 
Q 79.640625 56 84.28125 50.015625 
Q 88.921875 44.046875 88.921875 33.015625 
L 88.921875 0 
L 79.890625 0 
L 79.890625 32.71875 
Q 79.890625 40.578125 77.09375 44.375 
Q 74.3125 48.1875 68.609375 48.1875 
Q 61.625 48.1875 57.5625 43.546875 
Q 53.515625 38.921875 53.515625 30.90625 
L 53.515625 0 
L 44.484375 0 
L 44.484375 32.71875 
Q 44.484375 40.625 41.703125 44.40625 
Q 38.921875 48.1875 33.109375 48.1875 
Q 26.21875 48.1875 22.15625 43.53125 
Q 18.109375 38.875 18.109375 30.90625 
L 18.109375 0 
L 9.078125 0 
L 9.078125 54.6875 
L 18.109375 54.6875 
L 18.109375 46.1875 
Q 21.1875 51.21875 25.484375 53.609375 
Q 29.78125 56 35.6875 56 
Q 41.65625 56 45.828125 52.96875 
Q 50 49.953125 52 44.1875 
z
" id="DejaVuSans-109"/>
     <path d="M 9.078125 75.984375 
L 18.109375 75.984375 
L 18.109375 31.109375 
L 44.921875 54.6875 
L 56.390625 54.6875 
L 27.390625 29.109375 
L 57.625 0 
L 45.90625 0 
L 18.109375 26.703125 
L 18.109375 0 
L 9.078125 0 
z
" id="DejaVuSans-107"/>
    </defs>
    <g transform="translate(240.00875 23.76)scale(0.16 -0.16)">
     <use xlink:href="#DejaVuSans-80"/>
     <use x="60.302734" xlink:href="#DejaVuSans-83"/>
     <use x="123.779297" xlink:href="#DejaVuSans-78"/>
     <use x="198.583984" xlink:href="#DejaVuSans-82"/>
     <use x="268.066406" xlink:href="#DejaVuSans-32"/>
     <use x="299.853516" xlink:href="#DejaVuSans-118"/>
     <use x="359.033203" xlink:href="#DejaVuSans-115"/>
     <use x="411.132812" xlink:href="#DejaVuSans-32"/>
     <use x="442.919922" xlink:href="#DejaVuSans-69"/>
     <use x="506.103516" xlink:href="#DejaVuSans-112"/>
     <use x="569.580078" xlink:href="#DejaVuSans-111"/>
     <use x="630.761719" xlink:href="#DejaVuSans-99"/>
     <use x="685.742188" xlink:href="#DejaVuSans-104"/>
     <use x="749.121094" xlink:href="#DejaVuSans-115"/>
     <use x="801.220703" xlink:href="#DejaVuSans-32"/>
     <use x="833.007812" xlink:href="#DejaVuSans-102"/>
     <use x="868.212891" xlink:href="#DejaVuSans-111"/>
     <use x="929.394531" xlink:href="#DejaVuSans-114"/>
     <use x="970.507812" xlink:href="#DejaVuSans-32"/>
     <use x="1002.294922" xlink:href="#DejaVuSans-116"/>
     <use x="1041.503906" xlink:href="#DejaVuSans-114"/>
     <use x="1082.617188" xlink:href="#DejaVuSans-97"/>
     <use x="1143.896484" xlink:href="#DejaVuSans-110"/>
     <use x="1207.275391" xlink:href="#DejaVuSans-115"/>
     <use x="1259.375" xlink:href="#DejaVuSans-102"/>
     <use x="1294.580078" xlink:href="#DejaVuSans-101"/>
     <use x="1356.103516" xlink:href="#DejaVuSans-114"/>
     <use x="1397.216797" xlink:href="#DejaVuSans-32"/>
     <use x="1429.003906" xlink:href="#DejaVuSans-109"/>
     <use x="1526.416016" xlink:href="#DejaVuSans-97"/>
     <use x="1587.695312" xlink:href="#DejaVuSans-115"/>
     <use x="1639.794922" xlink:href="#DejaVuSans-107"/>
     <use x="1697.705078" xlink:href="#DejaVuSans-115"/>
    </g>
   </g>
   <g id="legend_1">
    <g id="patch_7">
     <path d="M 499.693125 379.72 
L 700.8 379.72 
Q 703.2 379.72 703.2 377.32 
L 703.2 272.8375 
Q 703.2 270.4375 700.8 270.4375 
L 499.693125 270.4375 
Q 497.293125 270.4375 497.293125 272.8375 
L 497.293125 377.32 
Q 497.293125 379.72 499.693125 379.72 
z
" style="fill:#ffffff;opacity:0.8;stroke:#cccccc;stroke-linejoin:miter;"/>
    </g>
    <g id="line2d_41">
     <path d="M 502.093125 280.155625 
L 526.093125 280.155625 
" style="fill:none;stroke:#1f77b4;stroke-linecap:square;stroke-width:2;"/>
    </g>
    <g id="line2d_42"/>
    <g id="text_21">
     <!-- OES-mask-self  -->
     <defs>
      <path d="M 39.40625 66.21875 
Q 28.65625 66.21875 22.328125 58.203125 
Q 16.015625 50.203125 16.015625 36.375 
Q 16.015625 22.609375 22.328125 14.59375 
Q 28.65625 6.59375 39.40625 6.59375 
Q 50.140625 6.59375 56.421875 14.59375 
Q 62.703125 22.609375 62.703125 36.375 
Q 62.703125 50.203125 56.421875 58.203125 
Q 50.140625 66.21875 39.40625 66.21875 
z
M 39.40625 74.21875 
Q 54.734375 74.21875 63.90625 63.9375 
Q 73.09375 53.65625 73.09375 36.375 
Q 73.09375 19.140625 63.90625 8.859375 
Q 54.734375 -1.421875 39.40625 -1.421875 
Q 24.03125 -1.421875 14.8125 8.828125 
Q 5.609375 19.09375 5.609375 36.375 
Q 5.609375 53.65625 14.8125 63.9375 
Q 24.03125 74.21875 39.40625 74.21875 
z
" id="DejaVuSans-79"/>
      <path d="M 4.890625 31.390625 
L 31.203125 31.390625 
L 31.203125 23.390625 
L 4.890625 23.390625 
z
" id="DejaVuSans-45"/>
      <path d="M 9.421875 75.984375 
L 18.40625 75.984375 
L 18.40625 0 
L 9.421875 0 
z
" id="DejaVuSans-108"/>
     </defs>
     <g transform="translate(535.693125 284.355625)scale(0.12 -0.12)">
      <use xlink:href="#DejaVuSans-79"/>
      <use x="78.710938" xlink:href="#DejaVuSans-69"/>
      <use x="141.894531" xlink:href="#DejaVuSans-83"/>
      <use x="205.371094" xlink:href="#DejaVuSans-45"/>
      <use x="241.455078" xlink:href="#DejaVuSans-109"/>
      <use x="338.867188" xlink:href="#DejaVuSans-97"/>
      <use x="400.146484" xlink:href="#DejaVuSans-115"/>
      <use x="452.246094" xlink:href="#DejaVuSans-107"/>
      <use x="510.15625" xlink:href="#DejaVuSans-45"/>
      <use x="546.240234" xlink:href="#DejaVuSans-115"/>
      <use x="598.339844" xlink:href="#DejaVuSans-101"/>
      <use x="659.863281" xlink:href="#DejaVuSans-108"/>
      <use x="687.646484" xlink:href="#DejaVuSans-102"/>
      <use x="722.851562" xlink:href="#DejaVuSans-32"/>
     </g>
    </g>
    <g id="line2d_43">
     <path d="M 502.093125 297.769375 
L 526.093125 297.769375 
" style="fill:none;stroke:#ff7f0e;stroke-linecap:square;stroke-width:2;"/>
    </g>
    <g id="line2d_44"/>
    <g id="text_22">
     <!-- IMP-mask (cross-dataset) -->
     <defs>
      <path d="M 9.8125 72.90625 
L 19.671875 72.90625 
L 19.671875 0 
L 9.8125 0 
z
" id="DejaVuSans-73"/>
      <path d="M 9.8125 72.90625 
L 24.515625 72.90625 
L 43.109375 23.296875 
L 61.8125 72.90625 
L 76.515625 72.90625 
L 76.515625 0 
L 66.890625 0 
L 66.890625 64.015625 
L 48.09375 14.015625 
L 38.1875 14.015625 
L 19.390625 64.015625 
L 19.390625 0 
L 9.8125 0 
z
" id="DejaVuSans-77"/>
      <path d="M 31 75.875 
Q 24.46875 64.65625 21.28125 53.65625 
Q 18.109375 42.671875 18.109375 31.390625 
Q 18.109375 20.125 21.3125 9.0625 
Q 24.515625 -2 31 -13.1875 
L 23.1875 -13.1875 
Q 15.875 -1.703125 12.234375 9.375 
Q 8.59375 20.453125 8.59375 31.390625 
Q 8.59375 42.28125 12.203125 53.3125 
Q 15.828125 64.359375 23.1875 75.875 
z
" id="DejaVuSans-40"/>
      <path d="M 45.40625 46.390625 
L 45.40625 75.984375 
L 54.390625 75.984375 
L 54.390625 0 
L 45.40625 0 
L 45.40625 8.203125 
Q 42.578125 3.328125 38.25 0.953125 
Q 33.9375 -1.421875 27.875 -1.421875 
Q 17.96875 -1.421875 11.734375 6.484375 
Q 5.515625 14.40625 5.515625 27.296875 
Q 5.515625 40.1875 11.734375 48.09375 
Q 17.96875 56 27.875 56 
Q 33.9375 56 38.25 53.625 
Q 42.578125 51.265625 45.40625 46.390625 
z
M 14.796875 27.296875 
Q 14.796875 17.390625 18.875 11.75 
Q 22.953125 6.109375 30.078125 6.109375 
Q 37.203125 6.109375 41.296875 11.75 
Q 45.40625 17.390625 45.40625 27.296875 
Q 45.40625 37.203125 41.296875 42.84375 
Q 37.203125 48.484375 30.078125 48.484375 
Q 22.953125 48.484375 18.875 42.84375 
Q 14.796875 37.203125 14.796875 27.296875 
z
" id="DejaVuSans-100"/>
      <path d="M 8.015625 75.875 
L 15.828125 75.875 
Q 23.140625 64.359375 26.78125 53.3125 
Q 30.421875 42.28125 30.421875 31.390625 
Q 30.421875 20.453125 26.78125 9.375 
Q 23.140625 -1.703125 15.828125 -13.1875 
L 8.015625 -13.1875 
Q 14.5 -2 17.703125 9.0625 
Q 20.90625 20.125 20.90625 31.390625 
Q 20.90625 42.671875 17.703125 53.65625 
Q 14.5 64.65625 8.015625 75.875 
z
" id="DejaVuSans-41"/>
     </defs>
     <g transform="translate(535.693125 301.969375)scale(0.12 -0.12)">
      <use xlink:href="#DejaVuSans-73"/>
      <use x="29.492188" xlink:href="#DejaVuSans-77"/>
      <use x="115.771484" xlink:href="#DejaVuSans-80"/>
      <use x="176.042969" xlink:href="#DejaVuSans-45"/>
      <use x="212.126953" xlink:href="#DejaVuSans-109"/>
      <use x="309.539062" xlink:href="#DejaVuSans-97"/>
      <use x="370.818359" xlink:href="#DejaVuSans-115"/>
      <use x="422.917969" xlink:href="#DejaVuSans-107"/>
      <use x="480.828125" xlink:href="#DejaVuSans-32"/>
      <use x="512.615234" xlink:href="#DejaVuSans-40"/>
      <use x="551.628906" xlink:href="#DejaVuSans-99"/>
      <use x="606.609375" xlink:href="#DejaVuSans-114"/>
      <use x="647.691406" xlink:href="#DejaVuSans-111"/>
      <use x="708.873047" xlink:href="#DejaVuSans-115"/>
      <use x="760.972656" xlink:href="#DejaVuSans-115"/>
      <use x="813.072266" xlink:href="#DejaVuSans-45"/>
      <use x="849.15625" xlink:href="#DejaVuSans-100"/>
      <use x="912.632812" xlink:href="#DejaVuSans-97"/>
      <use x="973.912109" xlink:href="#DejaVuSans-116"/>
      <use x="1013.121094" xlink:href="#DejaVuSans-97"/>
      <use x="1074.400391" xlink:href="#DejaVuSans-115"/>
      <use x="1126.5" xlink:href="#DejaVuSans-101"/>
      <use x="1188.023438" xlink:href="#DejaVuSans-116"/>
      <use x="1227.232422" xlink:href="#DejaVuSans-41"/>
     </g>
    </g>
    <g id="line2d_45">
     <path d="M 502.093125 315.383125 
L 526.093125 315.383125 
" style="fill:none;stroke:#2ca02c;stroke-linecap:square;stroke-width:2;"/>
    </g>
    <g id="line2d_46"/>
    <g id="text_23">
     <!-- OES-mask (cross dataset)  -->
     <g transform="translate(535.693125 319.583125)scale(0.12 -0.12)">
      <use xlink:href="#DejaVuSans-79"/>
      <use x="78.710938" xlink:href="#DejaVuSans-69"/>
      <use x="141.894531" xlink:href="#DejaVuSans-83"/>
      <use x="205.371094" xlink:href="#DejaVuSans-45"/>
      <use x="241.455078" xlink:href="#DejaVuSans-109"/>
      <use x="338.867188" xlink:href="#DejaVuSans-97"/>
      <use x="400.146484" xlink:href="#DejaVuSans-115"/>
      <use x="452.246094" xlink:href="#DejaVuSans-107"/>
      <use x="510.15625" xlink:href="#DejaVuSans-32"/>
      <use x="541.943359" xlink:href="#DejaVuSans-40"/>
      <use x="580.957031" xlink:href="#DejaVuSans-99"/>
      <use x="635.9375" xlink:href="#DejaVuSans-114"/>
      <use x="677.019531" xlink:href="#DejaVuSans-111"/>
      <use x="738.201172" xlink:href="#DejaVuSans-115"/>
      <use x="790.300781" xlink:href="#DejaVuSans-115"/>
      <use x="842.400391" xlink:href="#DejaVuSans-32"/>
      <use x="874.1875" xlink:href="#DejaVuSans-100"/>
      <use x="937.664062" xlink:href="#DejaVuSans-97"/>
      <use x="998.943359" xlink:href="#DejaVuSans-116"/>
      <use x="1038.152344" xlink:href="#DejaVuSans-97"/>
      <use x="1099.431641" xlink:href="#DejaVuSans-115"/>
      <use x="1151.53125" xlink:href="#DejaVuSans-101"/>
      <use x="1213.054688" xlink:href="#DejaVuSans-116"/>
      <use x="1252.263672" xlink:href="#DejaVuSans-41"/>
      <use x="1291.277344" xlink:href="#DejaVuSans-32"/>
     </g>
    </g>
    <g id="line2d_47">
     <path d="M 502.093125 332.996875 
L 526.093125 332.996875 
" style="fill:none;stroke:#d62728;stroke-linecap:square;stroke-width:2;"/>
    </g>
    <g id="line2d_48"/>
    <g id="text_24">
     <!-- IMP-mask-self -->
     <g transform="translate(535.693125 337.196875)scale(0.12 -0.12)">
      <use xlink:href="#DejaVuSans-73"/>
      <use x="29.492188" xlink:href="#DejaVuSans-77"/>
      <use x="115.771484" xlink:href="#DejaVuSans-80"/>
      <use x="176.042969" xlink:href="#DejaVuSans-45"/>
      <use x="212.126953" xlink:href="#DejaVuSans-109"/>
      <use x="309.539062" xlink:href="#DejaVuSans-97"/>
      <use x="370.818359" xlink:href="#DejaVuSans-115"/>
      <use x="422.917969" xlink:href="#DejaVuSans-107"/>
      <use x="480.828125" xlink:href="#DejaVuSans-45"/>
      <use x="516.912109" xlink:href="#DejaVuSans-115"/>
      <use x="569.011719" xlink:href="#DejaVuSans-101"/>
      <use x="630.535156" xlink:href="#DejaVuSans-108"/>
      <use x="658.318359" xlink:href="#DejaVuSans-102"/>
     </g>
    </g>
    <g id="line2d_49">
     <path d="M 502.093125 350.610625 
L 526.093125 350.610625 
" style="fill:none;stroke:#9467bd;stroke-linecap:square;stroke-width:2;"/>
    </g>
    <g id="line2d_50"/>
    <g id="text_25">
     <!-- OES-mask (inter dataaset)  -->
     <defs>
      <path d="M 9.421875 54.6875 
L 18.40625 54.6875 
L 18.40625 0 
L 9.421875 0 
z
M 9.421875 75.984375 
L 18.40625 75.984375 
L 18.40625 64.59375 
L 9.421875 64.59375 
z
" id="DejaVuSans-105"/>
     </defs>
     <g transform="translate(535.693125 354.810625)scale(0.12 -0.12)">
      <use xlink:href="#DejaVuSans-79"/>
      <use x="78.710938" xlink:href="#DejaVuSans-69"/>
      <use x="141.894531" xlink:href="#DejaVuSans-83"/>
      <use x="205.371094" xlink:href="#DejaVuSans-45"/>
      <use x="241.455078" xlink:href="#DejaVuSans-109"/>
      <use x="338.867188" xlink:href="#DejaVuSans-97"/>
      <use x="400.146484" xlink:href="#DejaVuSans-115"/>
      <use x="452.246094" xlink:href="#DejaVuSans-107"/>
      <use x="510.15625" xlink:href="#DejaVuSans-32"/>
      <use x="541.943359" xlink:href="#DejaVuSans-40"/>
      <use x="580.957031" xlink:href="#DejaVuSans-105"/>
      <use x="608.740234" xlink:href="#DejaVuSans-110"/>
      <use x="672.119141" xlink:href="#DejaVuSans-116"/>
      <use x="711.328125" xlink:href="#DejaVuSans-101"/>
      <use x="772.851562" xlink:href="#DejaVuSans-114"/>
      <use x="813.964844" xlink:href="#DejaVuSans-32"/>
      <use x="845.751953" xlink:href="#DejaVuSans-100"/>
      <use x="909.228516" xlink:href="#DejaVuSans-97"/>
      <use x="970.507812" xlink:href="#DejaVuSans-116"/>
      <use x="1009.716797" xlink:href="#DejaVuSans-97"/>
      <use x="1070.996094" xlink:href="#DejaVuSans-97"/>
      <use x="1132.275391" xlink:href="#DejaVuSans-115"/>
      <use x="1184.375" xlink:href="#DejaVuSans-101"/>
      <use x="1245.898438" xlink:href="#DejaVuSans-116"/>
      <use x="1285.107422" xlink:href="#DejaVuSans-41"/>
      <use x="1324.121094" xlink:href="#DejaVuSans-32"/>
     </g>
    </g>
    <g id="line2d_51">
     <path d="M 502.093125 368.224375 
L 526.093125 368.224375 
" style="fill:none;stroke:#8c564b;stroke-linecap:square;stroke-width:2;"/>
    </g>
    <g id="line2d_52"/>
    <g id="text_26">
     <!-- IMP-mask (inter dataaset) -->
     <g transform="translate(535.693125 372.424375)scale(0.12 -0.12)">
      <use xlink:href="#DejaVuSans-73"/>
      <use x="29.492188" xlink:href="#DejaVuSans-77"/>
      <use x="115.771484" xlink:href="#DejaVuSans-80"/>
      <use x="176.042969" xlink:href="#DejaVuSans-45"/>
      <use x="212.126953" xlink:href="#DejaVuSans-109"/>
      <use x="309.539062" xlink:href="#DejaVuSans-97"/>
      <use x="370.818359" xlink:href="#DejaVuSans-115"/>
      <use x="422.917969" xlink:href="#DejaVuSans-107"/>
      <use x="480.828125" xlink:href="#DejaVuSans-32"/>
      <use x="512.615234" xlink:href="#DejaVuSans-40"/>
      <use x="551.628906" xlink:href="#DejaVuSans-105"/>
      <use x="579.412109" xlink:href="#DejaVuSans-110"/>
      <use x="642.791016" xlink:href="#DejaVuSans-116"/>
      <use x="682" xlink:href="#DejaVuSans-101"/>
      <use x="743.523438" xlink:href="#DejaVuSans-114"/>
      <use x="784.636719" xlink:href="#DejaVuSans-32"/>
      <use x="816.423828" xlink:href="#DejaVuSans-100"/>
      <use x="879.900391" xlink:href="#DejaVuSans-97"/>
      <use x="941.179688" xlink:href="#DejaVuSans-116"/>
      <use x="980.388672" xlink:href="#DejaVuSans-97"/>
      <use x="1041.667969" xlink:href="#DejaVuSans-97"/>
      <use x="1102.947266" xlink:href="#DejaVuSans-115"/>
      <use x="1155.046875" xlink:href="#DejaVuSans-101"/>
      <use x="1216.570312" xlink:href="#DejaVuSans-116"/>
      <use x="1255.779297" xlink:href="#DejaVuSans-41"/>
     </g>
    </g>
   </g>
  </g>
 </g>
 <defs>
  <clipPath id="pa7eea2442b">
   <rect height="355.96" width="658.42" x="50.78" y="29.76"/>
  </clipPath>
 </defs>
</svg>
